<svg role="img" viewBox="0 0 64 64" xmlns="http://www.w3.org/2000/svg"><title>Sun PhuQuoc Airways</title><path fill="#ca1c2a" d="M18.648 28.785c-.254 0-.498.037-.73.11a1.927 1.927 0 0 0-.617.318c-.179.139-.323.305-.43.498a1.288 1.288 0 0 0-.163.638c0 .212.034.403.103.573.068.17.171.32.31.45.139.13.312.242.519.336.207.094.45.173.727.234.075.02.153.037.233.053.08.017.16.04.24.068.08.028.153.06.219.095a.498.498 0 0 1 .155.124.266.266 0 0 1 .056.17.269.269 0 0 1-.067.188.382.382 0 0 1-.194.106 1.145 1.145 0 0 1-.282.032c-.236 0-.478-.05-.727-.152-.25-.101-.492-.306-.727-.612l-.819.927c.164.204.35.38.56.531.21.151.452.267.727.348.275.08.589.12.942.12l-.001-.001c.376 0 .713-.063 1.012-.188.299-.126.537-.31.714-.553.176-.243.264-.542.264-.895 0-.24-.043-.45-.127-.63a1.262 1.262 0 0 0-.367-.456 2.16 2.16 0 0 0-.561-.312 4.404 4.404 0 0 0-.709-.202 7.472 7.472 0 0 1-.25-.053 1.649 1.649 0 0 1-.258-.082.629.629 0 0 1-.197-.123.23.23 0 0 1-.078-.174c0-.076.023-.136.07-.181a.455.455 0 0 1 .201-.103 1.342 1.342 0 0 1 .681.018 1.447 1.447 0 0 1 .678.429l.833-.807a2.114 2.114 0 0 0-.434-.445 1.807 1.807 0 0 0-.617-.294 3.34 3.34 0 0 0-.889-.103zm2.591.127v3.052c0 .378.093.713.279 1.006.185.292.442.522.769.69.327.168.7.251 1.118.252.424 0 .797-.086 1.122-.252.324-.168.58-.398.765-.69.186-.294.279-.628.279-1.006v-3.052H24.2V31.9a.778.778 0 0 1-.387.697.797.797 0 0 1-.408.103.738.738 0 0 1-.656-.386.849.849 0 0 1-.1-.414v-2.988zm8.241 0v1.551c0 .151.004.29.011.418a11.645 11.645 0 0 0 .07.787l.01.078-2.06-2.833h-1.248v4.957h1.347v-1.473c0-.151-.001-.286-.004-.404a7.6 7.6 0 0 0-.038-.659 16.973 16.973 0 0 0-.022-.233l2.019 2.767h1.263v-4.956zm2.401 6.526c-.128 0-.25.018-.368.055a1.01 1.01 0 0 0-.312.161.847.847 0 0 0-.218.252.646.646 0 0 0-.082.321c0 .107.017.204.052.29a.62.62 0 0 0 .156.226.96.96 0 0 0 .262.17c.104.048.226.087.367.118.038.01.077.018.117.027a.816.816 0 0 1 .231.082c.034.018.06.039.078.062.02.024.03.053.03.086 0 .039-.013.07-.035.094a.193.193 0 0 1-.098.054.595.595 0 0 1-.143.016.968.968 0 0 1-.367-.077.928.928 0 0 1-.367-.31l-.413.468c.083.103.177.192.283.268.106.076.228.135.367.176.139.04.298.06.475.06.19 0 .36-.031.511-.093a.833.833 0 0 0 .36-.279.752.752 0 0 0 .134-.452.742.742 0 0 0-.065-.318l.002-.001a.623.623 0 0 0-.185-.23 1.104 1.104 0 0 0-.283-.158 2.131 2.131 0 0 0-.357-.102 4.07 4.07 0 0 1-.128-.027.92.92 0 0 1-.13-.04.322.322 0 0 1-.099-.062.116.116 0 0 1-.04-.088.12.12 0 0 1 .035-.091.235.235 0 0 1 .102-.052.662.662 0 0 1 .343.009.77.77 0 0 1 .343.216l.421-.407a1.066 1.066 0 0 0-.219-.225.906.906 0 0 0-.311-.148 1.702 1.702 0 0 0-.449-.05zm-11.324.06v2.504h.663v-.851h.195l.478.85h.794l-.55-.949a.203.203 0 0 0 .022-.01h.001a.791.791 0 0 0 .312-.301.865.865 0 0 0 .112-.444.76.76 0 0 0-.424-.694.963.963 0 0 0-.452-.104zm-3.11.002-.994 2.502h.687l.153-.414h.856l.152.414h.702l-.986-2.502zm1.81 0v2.502h.705V35.5h-.353zm3.496 0 .723 2.502h.577l.466-1.272.518 1.272h.548l.728-2.502h-.687l-.325 1.2c-.014.06-.026.116-.035.167a1.64 1.64 0 0 0-.024.165c-.005-.027-.01-.055-.017-.083a2.364 2.364 0 0 0-.077-.248l-.331-.923h-.546l-.335.923c-.029.086-.05.165-.064.238l-.018.102a4.412 4.412 0 0 0-.068-.34l-.324-1.2zm4.355 0-.994 2.502h.688l.152-.414h.857l.152.414h.702l-.987-2.502zm1.176 0 .983 1.393v1.109h.713v-1.115l.911-1.387h-.77l-.499.789-.548-.789zm-7.065.568h.364c.068 0 .126.012.173.034a.236.236 0 0 1 .104.097c.024.042.035.09.035.147a.346.346 0 0 1-.033.156.257.257 0 0 1-.096.104.301.301 0 0 1-.156.037h-.39zm-3.495.321.033.112.054.16c.019.055.04.115.064.179l.09.247h-.487l.09-.247.066-.182a5.757 5.757 0 0 0 .09-.269zm9.662 0c.01.038.02.075.033.112l.053.16c.02.055.04.115.064.179l.09.247h-.487l.09-.247.067-.182a5.895 5.895 0 0 0 .09-.269z"/><path fill="#f1c217" d="M52.424 34.131c-1.88-.116-2.495.487-3.375.369-.826-.112-1.634-1.04-1.634-1.04 1.453-.436 2.483-.303 5.01.672z"/><path fill="#ca1c2a" d="m39.036 28.627-1.79.628c.251.218.397.535.397.868v3.309a.445.445 0 0 1-.309.423l-.04.013h2.02a.443.443 0 0 1-.28-.413V31.03c.154-.07.295-.105.42-.105.144 0 .249.057.316.168.067.112.102.298.102.56v1.802c0 .183-.11.347-.28.414h2.02a.503.503 0 0 1-.347-.478v-2.037c0-.355-.076-.624-.23-.808-.152-.184-.375-.276-.668-.276-.163 0-.347.042-.55.125-.206.084-.465.263-.78.538zm9.869.067c-.525 0-.982.13-1.37.388-.387.26-.676.59-.864.993a2.94 2.94 0 0 0-.28 1.255 2.917 2.917 0 0 0 .337 1.386.839.839 0 0 0 .917.423c.394-.081.907-.175 1.2-.175.04 0 .08 0 .12.002a7.118 7.118 0 0 1-.202-.246 6.415 6.415 0 0 1-.703-1.071 6.203 6.203 0 0 1-.37-.842 4.405 4.405 0 0 1-.162-.608 2.798 2.798 0 0 1-.052-.518c0-.195.042-.343.122-.444a.41.41 0 0 1 .332-.15c.153 0 .336.066.546.193.213.128.454.357.725.685.274.329.507.685.702 1.073.194.386.345.747.438 1.084.178.635.14 1.079.14 1.079s.974-.3 1.086-1.827v-.002c.026-.373-.067-.724-.2-1.053a2.556 2.556 0 0 0-1.413-1.423 2.752 2.752 0 0 0-1.05-.202zm-16.612.142c.385.234.62.653.62 1.105v3.246a.696.696 0 0 1-.558.682h2.717a.762.762 0 0 1-.626-.751v-1.13a5.215 5.215 0 0 0 1.104-.12c.327-.073.602-.181.825-.323.223-.142.392-.317.508-.521.115-.205.174-.433.174-.685l.001-.002c0-.214-.05-.414-.153-.6a1.338 1.338 0 0 0-.464-.48 2.515 2.515 0 0 0-.787-.31 4.879 4.879 0 0 0-1.097-.111Zm2.152.112h.077c.283 0 .509.12.679.363.17.242.254.564.254 1.035s-.092.842-.276 1.115c-.184.272-.428.411-.734.415zm11.266 1.296-1.79.629c.25.217.396.534.396.868v1.48c-.13.045-.249.069-.356.069-.162 0-.269-.059-.32-.178-.051-.119-.076-.332-.076-.639v-2.195l-1.791.629c.252.217.397.534.397.867v.977c0 .415.072.718.216.909.143.191.37.287.682.287.134 0 .288-.039.46-.116.172-.077.434-.244.787-.5v.537h1.741a.503.503 0 0 1-.348-.478l.002.003zm10.037 0-1.79.629c.252.217.397.534.397.868v1.48c-.13.045-.248.069-.355.069-.162 0-.27-.059-.32-.178-.052-.119-.077-.332-.077-.639v-2.195l-1.79.629c.251.217.397.534.397.867v.977c0 .415.07.718.215.909.143.191.371.287.683.287.134 0 .288-.039.46-.116.172-.077.433-.244.786-.5v.537h1.742a.502.502 0 0 1-.348-.478v.003zm2.598.06c-.274 0-.529.047-.766.14a1.885 1.885 0 0 0-.613.385 1.677 1.677 0 0 0-.397.576c-.093.221-.14.453-.14.695a1.772 1.772 0 0 0 .582 1.335c.18.163.385.288.62.374.234.087.475.13.721.13l.002-.002c.316 0 .599-.046.85-.14a1.67 1.67 0 0 0 .623-.39c.165-.168.29-.364.373-.588.083-.224.125-.454.125-.72 0-.265-.05-.51-.146-.733a1.64 1.64 0 0 0-.411-.573 1.822 1.822 0 0 0-.631-.364 2.47 2.47 0 0 0-.792-.125zm4.387 0c-.283 0-.545.05-.784.147a1.794 1.794 0 0 0-1.002 1.017c-.09.23-.136.466-.136.723 0 .257.046.495.136.714a1.621 1.621 0 0 0 .945.911c.213.082.436.123.668.123h-.001c.31 0 .59-.057.839-.174a1.47 1.47 0 0 0 .602-.518l-.007-.007a.689.689 0 0 1-.21.028c-.237 0-.479-.066-.728-.199a2.5 2.5 0 0 1-.679-.538 2.838 2.838 0 0 1-.49-.755 2.022 2.022 0 0 1-.185-.822c0-.121.024-.214.073-.279a.243.243 0 0 1 .206-.098c.21 0 .46.165.753.496.292.331.599.8.919 1.405h.007l.272-1.95a3.444 3.444 0 0 0-1.198-.224Zm-5.097.25c.144 0 .317.11.519.332.202.222.399.496.592.822.192.326.352.642.48.947.128.306.192.53.192.675 0 .238-.095.357-.285.357v-.001c-.135 0-.303-.109-.502-.325a5.132 5.132 0 0 1-.593-.804 6.958 6.958 0 0 1-.488-.946c-.13-.313-.195-.551-.195-.714a.39.39 0 0 1 .073-.251.249.249 0 0 1 .207-.091z"/><path fill="#f1c217" d="M7.993 24.563C6.423 25.758 5.16 27.29 4.449 30.7c1.56-2.611 2.803-2.273 3.772-3.48.722-.903-.228-2.659-.228-2.659Zm-5 1.305c-.437 1.93-.421 3.918 1.217 6.989-.477-3.007.69-3.55.66-5.1-.024-1.157-1.877-1.889-1.877-1.889zm8.926.907c-1.729.033-3.518.545-5.905 2.427 2.865-.992 3.6.067 5.117-.233 1.132-.223 1.528-2.181 1.528-2.181a10.757 10.757 0 0 0-.74-.013zm-5.905 2.427h-.003v.002l.003-.002zm2.153-.14v.001c2.833 1.089 2.717 2.375 4.071 3.123 1.01.558 2.569-.687 2.569-.687-1.446-1.344-3.17-2.325-6.64-2.437zm-.887.413a2.626 2.626 0 0 0-2.622 2.63 2.627 2.627 0 0 0 2.622 2.632 2.627 2.627 0 0 0 2.622-2.632 2.627 2.627 0 0 0-2.622-2.63zm-5.914.394c-.7 0-1.366.223-1.366.223.9 1.76 2.187 3.272 5.41 4.568-2.292-1.994-1.745-3.164-2.763-4.332-.308-.353-.803-.459-1.281-.46Zm8.543.479c1.473 2.66.56 3.572 1.119 5.018.416 1.079 2.407 1.132 2.407 1.132-.247-1.963-.94-3.826-3.526-6.15zm.511 2.106c-.576 2.989-1.86 3.098-2.359 4.565-.372 1.096 1.12 2.419 1.12 2.419 1.069-1.663 1.732-3.536 1.24-6.984ZM2.381 33.72c-1.053.04-1.967 1.538-1.967 1.538 1.817.767 3.77 1.097 7.07.011-3.034-.05-3.363-1.3-4.89-1.537a1.098 1.098 0 0 0-.213-.012Zm7.08.677-.001.002h.002zm-.001.002c-2.355 1.917-3.407 1.173-4.73 1.975-.986.599-.691 2.575-.691 2.575 1.882-.584 3.59-1.591 5.42-4.55Z"/></svg>