<svg role="img" viewBox="0 0 64 64" xmlns="http://www.w3.org/2000/svg" fill="currentColor"><title>Sun PhuQuoc Airways</title><path d="M7.992 24.563c-1.57 1.194-2.832 2.726-3.543 6.136 1.56-2.61 2.803-2.271 3.772-3.478.72-.902-.226-2.654-.229-2.659zm-5 1.304c-.437 1.93-.42 3.92 1.219 6.99-.477-3.007.688-3.55.658-5.1-.024-1.156-1.877-1.89-1.877-1.89zm8.928.908c-1.73.033-3.52.544-5.906 2.426 2.865-.992 3.6.068 5.117-.232 1.132-.223 1.527-2.182 1.527-2.182a10.757 10.757 0 0 0-.738-.012zm27.115 1.852-1.789.629c.251.218.397.534.397.867v3.309a.445.445 0 0 1-.309.423l-.04.012h2.02a.443.443 0 0 1-.28-.412V31.03c.153-.07.294-.103.42-.103.143 0 .249.057.316.168.067.112.101.296.101.558v1.803c0 .183-.11.347-.28.414h2.02a.503.503 0 0 1-.345-.478v-2.037c0-.355-.077-.623-.23-.807-.153-.184-.376-.277-.669-.277a1.48 1.48 0 0 0-.55.125c-.207.084-.465.264-.78.539l-.002-2.307zm9.87.066c-.526 0-.982.131-1.37.389-.387.26-.675.59-.863.992a2.94 2.94 0 0 0-.281 1.256 2.917 2.917 0 0 0 .338 1.387.839.839 0 0 0 .916.422c.394-.081.908-.174 1.2-.174.04 0 .08 0 .12.002a7.118 7.118 0 0 1-.201-.246 6.415 6.415 0 0 1-.703-1.073 6.203 6.203 0 0 1-.372-.841 4.405 4.405 0 0 1-.162-.608 2.798 2.798 0 0 1-.05-.517c0-.195.04-.345.12-.446a.41.41 0 0 1 .333-.148c.153 0 .337.064.547.191.213.128.453.358.724.686.274.329.506.684.701 1.072.194.386.347.747.44 1.084.178.635.138 1.08.138 1.08s.974-.301 1.086-1.828v-.002c.026-.373-.066-.724-.199-1.053a2.556 2.556 0 0 0-1.414-1.422 2.752 2.752 0 0 0-1.049-.203zm-30.257.092c-.254 0-.498.037-.73.11a1.927 1.927 0 0 0-.617.318 1.623 1.623 0 0 0-.43.498 1.288 1.288 0 0 0-.164.639c0 .212.035.402.104.572.068.17.171.32.31.45.14.13.313.241.52.335.207.094.45.173.726.234.075.02.153.037.233.053.08.017.16.04.24.069.08.027.153.06.219.095a.498.498 0 0 1 .156.123.266.266 0 0 1 .055.17.269.269 0 0 1-.067.19.382.382 0 0 1-.193.105 1.145 1.145 0 0 1-.283.031c-.236 0-.478-.048-.727-.15-.25-.101-.492-.307-.727-.613l-.82.927c.164.204.35.38.56.532.21.15.452.266.727.347a3.4 3.4 0 0 0 .944.12c.375 0 .71-.063 1.01-.188.298-.126.537-.312.714-.555.176-.243.264-.541.264-.894 0-.24-.043-.45-.127-.63a1.262 1.262 0 0 0-.367-.456 2.16 2.16 0 0 0-.56-.313 4.404 4.404 0 0 0-.71-.2 7.472 7.472 0 0 1-.25-.054 1.649 1.649 0 0 1-.258-.082.629.629 0 0 1-.197-.123.23.23 0 0 1-.078-.174.24.24 0 0 1 .07-.181.455.455 0 0 1 .201-.104 1.342 1.342 0 0 1 .68.02 1.447 1.447 0 0 1 .68.428l.832-.807a2.114 2.114 0 0 0-.434-.445 1.807 1.807 0 0 0-.617-.293 3.34 3.34 0 0 0-.889-.104zm13.645.05c.385.235.62.654.62 1.106v3.247a.696.696 0 0 1-.558.681h2.717a.762.762 0 0 1-.627-.752v-1.129a5.215 5.215 0 0 0 1.106-.12c.327-.074.601-.181.824-.323.223-.142.392-.318.508-.522a1.37 1.37 0 0 0 .174-.683l.002-.002c0-.214-.052-.416-.155-.602a1.338 1.338 0 0 0-.463-.478 2.515 2.515 0 0 0-.787-.31 4.879 4.879 0 0 0-1.097-.112h-2.264zm-11.055.077v3.053c0 .378.094.713.28 1.006.185.292.442.521.77.69.326.167.698.25 1.116.251.424 0 .798-.086 1.123-.252.324-.168.581-.397.766-.69.186-.293.277-.627.277-1.005v-3.053H24.2V31.9a.778.778 0 0 1-.387.698.797.797 0 0 1-.409.101.738.738 0 0 1-.656-.385.849.849 0 0 1-.1-.414v-2.988h-1.41zm5.026 0v4.957h1.345v-1.473c0-.15 0-.286-.004-.404a7.6 7.6 0 0 0-.037-.658 16.973 16.973 0 0 0-.021-.232l2.017 2.765h1.264v-4.955H29.48v1.55c0 .152.003.29.01.419a11.645 11.645 0 0 0 .07.787l.01.078-2.058-2.834h-1.248zm8.181.035h.076c.283 0 .51.12.68.364.17.242.254.564.254 1.035 0 .47-.091.842-.275 1.115-.184.272-.429.412-.735.416v-2.93zm-26.277.116c2.833 1.088 2.716 2.375 4.07 3.123 1.01.558 2.569-.688 2.569-.688-1.446-1.344-3.169-2.324-6.639-2.436zm-.889.412a2.626 2.626 0 0 0-2.62 2.63 2.627 2.627 0 0 0 2.62 2.631 2.627 2.627 0 0 0 2.623-2.63 2.627 2.627 0 0 0-2.623-2.631zm-5.914.392v.002c-.7 0-1.365.223-1.365.223.9 1.76 2.187 3.272 5.41 4.568-2.292-1.994-1.746-3.164-2.764-4.332-.308-.353-.803-.46-1.28-.46zm44.346.377-1.79.629c.25.217.395.533.395.867v1.48a1.1 1.1 0 0 1-.355.07c-.162 0-.27-.06-.32-.179-.051-.119-.077-.331-.077-.638v-2.196l-1.79.63c.251.216.398.533.398.866v.979c0 .415.07.717.215.908.143.191.37.287.681.287.134 0 .29-.04.461-.117.172-.077.434-.244.787-.5v.537h1.74a.503.503 0 0 1-.347-.476l.002.002v-3.149zm10.037 0-1.791.629c.252.217.398.533.398.867v1.48a1.1 1.1 0 0 1-.355.07c-.162 0-.27-.06-.32-.179-.052-.119-.076-.331-.076-.638v-2.196l-1.791.63c.25.216.398.533.398.866v.979c0 .415.07.717.215.908.143.191.37.287.681.287.134 0 .29-.04.461-.117.172-.077.433-.244.786-.5v.537h1.742a.502.502 0 0 1-.348-.474V30.244zm2.598.06c-.274 0-.529.046-.766.14a1.885 1.885 0 0 0-.613.384 1.677 1.677 0 0 0-.397.576c-.093.221-.14.454-.14.696a1.772 1.772 0 0 0 .582 1.336c.18.163.386.287.62.373.235.087.476.13.722.13l.001-.002c.316 0 .6-.046.85-.14a1.67 1.67 0 0 0 .623-.39c.165-.169.29-.365.373-.589a2.01 2.01 0 0 0 .125-.718c0-.265-.05-.512-.146-.735a1.64 1.64 0 0 0-.41-.572 1.822 1.822 0 0 0-.631-.363 2.47 2.47 0 0 0-.793-.125zm4.386 0c-.283 0-.544.05-.783.147a1.794 1.794 0 0 0-1.002 1.018 1.947 1.947 0 0 0 0 1.435 1.621 1.621 0 0 0 .946.912c.212.082.436.123.668.123.309 0 .589-.057.837-.173a1.47 1.47 0 0 0 .602-.52l-.008-.006a.689.689 0 0 1-.209.028 1.54 1.54 0 0 1-.728-.2 2.5 2.5 0 0 1-.678-.537 2.838 2.838 0 0 1-.49-.756 2.022 2.022 0 0 1-.186-.822c0-.12.023-.212.072-.277a.243.243 0 0 1 .207-.1c.21 0 .46.165.752.496.292.331.6.802.92 1.407h.006l.274-1.952a3.444 3.444 0 0 0-1.2-.222zm-52.824.044c1.473 2.66.56 3.571 1.12 5.017.415 1.08 2.408 1.133 2.408 1.133-.247-1.963-.942-3.826-3.528-6.15zm47.729.207c.144 0 .315.11.517.332a5 5 0 0 1 .592.82c.192.326.353.642.48.947.129.306.194.531.194.676 0 .238-.095.358-.285.358v-.002c-.135 0-.303-.109-.502-.325a5.132 5.132 0 0 1-.594-.804 6.958 6.958 0 0 1-.488-.946c-.13-.313-.196-.552-.196-.715a.39.39 0 0 1 .075-.25.249.249 0 0 1 .207-.091zM10.42 32.453c-.576 2.99-1.86 3.1-2.36 4.567-.371 1.096 1.122 2.417 1.122 2.417 1.069-1.662 1.732-3.536 1.24-6.984h-.002zm38.422.77a5.014 5.014 0 0 0-1.428.238s.809.927 1.635 1.039c.88.118 1.494-.484 3.37-.37-1.654-.637-2.667-.916-3.577-.907zM2.38 33.72c-1.053.04-1.967 1.537-1.967 1.537 1.817.767 3.77 1.098 7.07.012-3.034-.05-3.363-1.3-4.89-1.538a1.098 1.098 0 0 0-.213-.011zm7.076.681c-2.352 1.913-3.404 1.17-4.727 1.971-.986.599-.69 2.576-.69 2.576 1.88-.584 3.588-1.59 5.417-4.547zm22.424 1.035c-.128 0-.25.018-.367.055a1.01 1.01 0 0 0-.313.162.847.847 0 0 0-.219.252.646.646 0 0 0-.082.32.77.77 0 0 0 .053.292.62.62 0 0 0 .156.224.96.96 0 0 0 .262.17 1.8 1.8 0 0 0 .367.12c.038.01.077.018.117.027a.816.816 0 0 1 .23.082c.035.018.061.037.08.06a.13.13 0 0 1 .028.086.139.139 0 0 1-.035.096.193.193 0 0 1-.097.053.595.595 0 0 1-.143.015.968.968 0 0 1-.367-.076.928.928 0 0 1-.367-.31l-.413.468c.083.103.178.192.284.268.106.076.228.135.367.176.139.04.297.06.474.06.19 0 .36-.032.51-.094a.833.833 0 0 0 .362-.279.752.752 0 0 0 .132-.451.742.742 0 0 0-.064-.318h.002a.623.623 0 0 0-.186-.23 1.104 1.104 0 0 0-.283-.16 2.131 2.131 0 0 0-.355-.1 4.07 4.07 0 0 1-.13-.028.92.92 0 0 1-.128-.04.322.322 0 0 1-.1-.062.116.116 0 0 1-.04-.087.12.12 0 0 1 .034-.092.235.235 0 0 1 .104-.051.662.662 0 0 1 .342.008.77.77 0 0 1 .343.217l.42-.409a1.066 1.066 0 0 0-.218-.224.906.906 0 0 0-.31-.149 1.702 1.702 0 0 0-.45-.049v-.002zm-11.324.061v2.504h.664v-.852h.193l.479.852h.794l-.55-.95a.203.203 0 0 0 .021-.009h.002a.791.791 0 0 0 .313-.303.865.865 0 0 0 .111-.443.76.76 0 0 0-.424-.693.963.963 0 0 0-.453-.106h-1.15zm-3.11.002-.994 2.502h.688l.152-.414h.855l.153.414h.703l-.986-2.502h-.57zm1.81 0v2.502h.706V35.5h-.705zm3.497 0 .723 2.502h.576l.467-1.272.517 1.272h.549l.727-2.502h-.686l-.326 1.2c-.014.06-.026.116-.035.167a1.64 1.64 0 0 0-.024.164 1.344 1.344 0 0 0-.017-.082 2.364 2.364 0 0 0-.077-.248l-.332-.924h-.545l-.335.924a1.83 1.83 0 0 0-.065.238l-.017.102a4.412 4.412 0 0 0-.069-.34l-.322-1.199-.71-.002zm4.353 0-.994 2.502h.69l.15-.414h.858l.152.414h.701l-.986-2.502h-.57zm1.176 0 .985 1.393v1.109h.712v-1.115l.91-1.387h-.769l-.5.79-.547-.79h-.79zm-7.064.568h.363c.068 0 .127.012.174.034a.236.236 0 0 1 .103.097c.024.042.036.09.036.147a.346.346 0 0 1-.034.156.257.257 0 0 1-.095.103.301.301 0 0 1-.157.038h-.388l-.002-.575zm-3.494.32.033.114.053.158c.019.055.04.116.064.18l.09.248h-.486l.09-.248.066-.182a5.757 5.757 0 0 0 .09-.27zm9.662 0c.01.039.02.077.033.114l.053.158c.02.055.038.116.062.18l.092.248h-.488l.09-.248.068-.182a5.895 5.895 0 0 0 .09-.27z"/></svg>