<svg role="img" viewBox="0 0 64 64" xmlns="http://www.w3.org/2000/svg"><title>Ryanair</title><path d="m13.775 35.665-1.948-2.574h-.765v2.574H8.766v-6.748h3.409c2.504 0 4.104.696 4.104 2.087 0 .974-.904 1.53-2.157 1.879l2.227 2.782zm-1.74-5.565h-1.043v1.878h1.113c1.183 0 1.809-.348 1.809-.904.07-.696-.487-.974-1.878-.974zm9.948 2.991v2.574h-2.295v-2.504l-3.34-4.244h2.505l.974 1.392c.417.556.834 1.252.974 1.6.139-.348.556-1.044.974-1.6l.973-1.392h2.505zm8.696 2.574-.626-1.391H27.2l-.627 1.391H24.21l3.27-6.748h2.226l3.27 6.748zm-1.461-3.339c-.209-.487-.487-1.322-.626-1.67-.07.348-.348 1.044-.557 1.6l-.348.835h1.879zm10.087 3.34-2.365-2.992c-.348-.417-.766-.974-.974-1.391 0 .417.07 1.113.07 1.53v2.852h-2.088v-6.748h2.296l2.226 2.992c.278.417.765 1.043 1.043 1.391 0-.417-.07-1.183-.07-1.6v-2.783h2.088v6.748zm9.6 0-.627-1.392h-2.852l-.626 1.391h-2.365l3.27-6.748H48l3.27 6.748zm-1.461-3.34c-.209-.487-.487-1.322-.626-1.67-.07.348-.348 1.044-.557 1.6l-.348.835h1.879zm4.73 3.34v-6.749h2.296v6.748zm9.322 0-2.018-2.575h-.765v2.574h-2.295v-6.748h3.408c2.504 0 4.104.696 4.104 2.087 0 .974-.904 1.53-2.156 1.879L64 35.665Zm-1.74-5.566h-1.043v1.878h1.113c1.183 0 1.809-.348 1.809-.904.07-.696-.487-.974-1.878-.974z" fill="#073590"/><path d="M3.049 28.265a.883.883 0 0 0-.617.235c-.278.278-.556.556-.834.765h-.14c-.07-.07.07-.14.07-.279s.069-.278 0-.417c-.14-.139-.417-.138-.626-.138-.07 0-.209.069-.278.069-.07 0-.14 0-.14.07 0 .138 0 .277-.07.416v.21c0 .208.21.069.279.069.07 0 .07.07.07.07v.14c-.14.277-.557.416-.696.555-.21.278.14.349.14.488v.069c0 .14.069.278.069.417.139.348.347.627.486.905.07.14.14.209.21.348.069.07.069.138.069.138.626.557 1.46.975 2.017 1.6.14.14.278.348.417.487.21.279.417.558.487.836.07.139.14.278.278.417.07 0 0-.14 0-.21v-.069c-.07-.07-.069-.208-.138-.347v-.07c0-.208-.07-.348-.14-.487-.07-.279-.209-.487-.348-.765-.14-.279-.347-.487-.625-.696-.209-.07-.349-.278-.488-.417a2.348 2.348 0 0 1-.417-.834l-.209-.419c-.14-.208-.556-.277-.556-.555 0-.279.139-.558.208-.836a1.75 1.75 0 0 1 1.6-.696c.696 0 1.323.21 2.018.279.348 0 .765 0 1.113-.139.07 0 .209-.07.279-.07.278-.069.556-.209.834-.418.07-.07.07-.069.07-.138h-.07c-.209.07-.347.138-.556.138h-.348c-.487-.07-.975-.208-1.462-.347-.626-.14-1.113-.348-1.739-.348a.895.895 0 0 0-.217-.026Zm.274 1.457c-.014-.002-.03.005-.057.03-.139-.069-.207.07-.277.14-.278.556-.488 1.112-.488 1.738 0 .07 0 .139.07.139h.07c.209-.556.348-1.181.696-1.668.07-.14.139-.21.07-.348-.044 0-.06-.028-.084-.031zm.71.1s-.002.07-.071.07c-.348.625-.556 1.25-.765 1.877-.07.278-.139.627-.07.905h.07c.07 0 .07-.07.07-.07.208-.765.626-1.46.973-2.156.07-.208.21-.348.14-.557-.07-.07-.208-.069-.347-.069zm1.112.07c-.139 0-.209.139-.278.209-.14.347-.348.625-.487.972-.347.626-.556 1.393-.626 2.158 0 .07-.07.208 0 .277 0 .07.07.07.07 0l.209-.625c.278-.974.903-1.74 1.32-2.644a.212.212 0 0 0 0-.278c-.07-.07-.138-.07-.208-.07zm1.113 0c-.14.069-.209.208-.278.278-.348.765-.765 1.46-1.113 2.225-.278.696-.557 1.322-.627 2.087 0 .07 0 .14.07.21h.07c.07-.21.139-.349.208-.558.209-.556.417-1.182.765-1.739.348-.695.836-1.322 1.114-2.017 0-.14.07-.209 0-.348-.07-.14-.14-.139-.209-.139z" fill="#f1c931"/></svg>