<svg role="img" viewBox="0 0 64 64" xmlns="http://www.w3.org/2000/svg"><title>Ryanair</title><path d="M3.049 28.266a.883.883 0 0 0-.617.234c-.279.278-.556.557-.834.766h-.141c-.07-.07.07-.14.07-.28 0-.139.07-.277 0-.416-.139-.139-.416-.138-.625-.138-.07 0-.21.068-.279.068-.07 0-.139 0-.139.07 0 .14 0 .277-.07.416v.21c0 .208.21.07.28.07.069 0 .068.068.068.068v.14c-.14.279-.556.416-.696.555-.208.279.141.35.141.489v.07c0 .139.068.277.068.416.14.348.348.626.487.904.07.14.14.209.209.348.07.07.07.139.07.139.626.556 1.461.975 2.018 1.601.139.14.276.347.416.486.208.279.416.558.486.836.07.14.14.277.28.416.069 0 0-.139 0-.209v-.068c-.07-.07-.07-.208-.14-.348v-.07c0-.209-.07-.35-.14-.488-.07-.278-.209-.486-.348-.764-.139-.278-.346-.487-.625-.695-.208-.07-.347-.279-.486-.418a2.35 2.35 0 0 1-.418-.834l-.209-.418c-.14-.209-.557-.279-.557-.557s.14-.557.21-.836a1.748 1.748 0 0 1 1.599-.695c.696 0 1.322.21 2.018.28.347 0 .765 0 1.113-.14.07 0 .21-.07.28-.07.277-.07.555-.209.833-.418.07-.07.068-.069.068-.138h-.068c-.209.07-.348.138-.557.138h-.347c-.487-.07-.974-.208-1.461-.347-.626-.14-1.114-.348-1.74-.348a.89.89 0 0 0-.217-.025zm5.717.652v6.748h2.296v-2.574h.764l1.95 2.574h2.572l-2.225-2.783c1.252-.348 2.156-.905 2.156-1.88 0-1.39-1.6-2.085-4.105-2.085H8.766zm7.582 0 3.34 4.242v2.506h2.294v-2.574l3.27-4.174h-2.504l-.973 1.39c-.417.557-.835 1.252-.974 1.6-.14-.348-.557-1.043-.975-1.6l-.972-1.39h-2.506zm11.13 0-3.269 6.748h2.365l.627-1.393h2.852l.627 1.393h2.295l-3.27-6.748H27.48zm6.471 0v6.748h2.086v-2.853c0-.418-.07-1.112-.07-1.53.209.418.627.973.974 1.39l2.366 2.993h2.226v-6.748h-2.088v2.781c0 .418.07 1.184.07 1.602a24.19 24.19 0 0 1-1.042-1.393l-2.227-2.99H33.95zm11.756 0-3.27 6.748h2.366l.625-1.393h2.853l.625 1.393h2.366L48 28.918h-2.295zm6.469 0v6.748h2.295v-6.748h-2.295zm4.244 0v6.748h2.295v-2.574h.766l2.017 2.574H64l-2.227-2.783c1.253-.348 2.157-.905 2.157-1.88 0-1.39-1.6-2.085-4.104-2.085h-3.408zm-53.094.803c-.014-.002-.032.005-.058.031-.14-.07-.208.07-.278.139-.278.556-.486 1.114-.486 1.74 0 .07-.001.139.068.139h.07c.21-.557.348-1.183.696-1.67.07-.14.14-.209.07-.348-.043 0-.059-.028-.082-.031zm.71.101s-.004.069-.073.069c-.348.626-.555 1.252-.764 1.879-.07.278-.14.626-.07.904h.07c.07 0 .069-.069.069-.069.208-.765.626-1.46.974-2.156.07-.208.21-.35.14-.558-.069-.07-.208-.069-.347-.069zm1.11.069c-.139 0-.207.139-.277.209-.139.347-.347.626-.486.974-.348.626-.558 1.391-.627 2.156 0 .07-.07.208 0 .278 0 .07.07.07.07 0l.21-.625c.277-.974.902-1.74 1.32-2.645a.21.21 0 0 0 0-.277c-.07-.07-.14-.07-.21-.07zm1.114 0c-.14.07-.208.21-.278.279-.347.765-.765 1.46-1.113 2.225-.278.695-.557 1.322-.627 2.087 0 .07.001.14.07.21h.07c.07-.21.138-.349.208-.557.209-.557.418-1.184.766-1.74.347-.696.835-1.322 1.113-2.018 0-.14.07-.209 0-.348-.07-.139-.14-.138-.21-.138zm4.734.209h1.043c1.391 0 1.949.279 1.88.974 0 .557-.627.905-1.81.905h-1.113v-1.88zm47.72 0h1.044c1.391 0 1.948.279 1.879.974 0 .557-.626.905-1.809.905h-1.113v-1.88zm-30.12.556c.139.348.418 1.183.627 1.67l.347.766h-1.878l.347-.836c.209-.557.487-1.252.557-1.6zm18.226 0c.14.348.417 1.183.625 1.67l.348.766h-1.877l.348-.836c.208-.557.487-1.252.556-1.6z"/></svg>