<svg role="img" viewBox="0 0 64 64" xmlns="http://www.w3.org/2000/svg" fill="#00b7ac"><title>flynas</title><path d="M6.041 18.197c-3.62 0-5.844 2.252-6.03 6.055a1.476 1.476 0 0 0-.011.186v8.68a1.373 1.373 0 0 0 1.373 1.372 1.373 1.373 0 0 0 1.373-1.373v-8.345c0-3.431 1.881-3.829 3.295-3.829.153 0 .31.01.48.02.142.009.282.017.422.021a1.372 1.372 0 0 0 1.414-1.332 1.373 1.373 0 0 0-1.332-1.414c-.111-.003-.223-.01-.336-.015-.192-.012-.412-.026-.648-.026zm5.041.077a1.374 1.374 0 0 0-1.373 1.373v13.47a1.373 1.373 0 0 0 1.373 1.373 1.373 1.373 0 0 0 1.375-1.373v-13.47a1.374 1.374 0 0 0-1.375-1.373zm4.191 3.336a1.374 1.374 0 0 0-.517.138 1.373 1.373 0 0 0-.623 1.84l4.533 9.162-1.924 3.9a1.374 1.374 0 0 0 .625 1.84 1.373 1.373 0 0 0 .604.141 1.373 1.373 0 0 0 1.232-.766l7.047-14.277a1.373 1.373 0 0 0-.623-1.84 1.374 1.374 0 0 0-1.84.623l-3.59 7.278-3.601-7.278a1.374 1.374 0 0 0-1.323-.762zm43.588.044c-2.635 0-4.474 1.582-4.474 3.848v.035c0 2.614 1.84 3.292 4.246 3.907 2.069.53 2.635.892 2.635 1.685v.037c0 .792-.714 1.264-1.909 1.264a5.487 5.487 0 0 1-3.33-1.172 1.313 1.313 0 0 0-.785-.248 1.259 1.259 0 0 0-1.283 1.264 1.276 1.276 0 0 0 .516 1.03 8.341 8.341 0 0 0 4.826 1.544c2.896 0 4.697-1.517 4.697-3.96v-.036c0-2.301-1.623-3.194-4.06-3.83-2.22-.568-2.82-.849-2.82-1.743v-.037c0-.711.667-1.172 1.704-1.172a5.434 5.434 0 0 1 2.737.874 1.306 1.306 0 0 0 .695.199 1.26 1.26 0 0 0 1.283-1.266 1.258 1.258 0 0 0-.605-1.086 7.475 7.475 0 0 0-4.073-1.137zm-26.22.032c-3.442.012-6.036 2.852-6.036 6.603v5.152a1.374 1.374 0 0 0 1.374 1.374 1.374 1.374 0 0 0 1.375-1.374V28.29c0-2.263 1.357-3.848 3.289-3.855 1.942.007 3.298 1.592 3.298 3.855v5.152a1.374 1.374 0 0 0 1.373 1.374 1.374 1.374 0 0 0 1.375-1.374V28.29c0-3.75-2.595-6.59-6.046-6.603zm13.697 0c-3.576.012-6.282 2.784-6.346 6.468v.192c.064 3.697 2.773 6.469 6.352 6.469a7.682 7.682 0 0 0 1.263-.09 1.377 1.377 0 0 0 1.098-1.608 1.37 1.37 0 0 0-1.603-1.092 5.823 5.823 0 0 1-.76.043c-2.11 0-3.587-1.568-3.604-3.818.017-2.241 1.495-3.809 3.6-3.816 2.126.007 3.611 1.593 3.611 3.855v5.153a1.373 1.373 0 0 0 1.373 1.373 1.373 1.373 0 0 0 1.373-1.373v-5.155c0-3.751-2.728-6.589-6.357-6.601zM4.955 24.453a1.37 1.37 0 0 0-1.371 1.373 1.37 1.37 0 0 0 1.371 1.371 1.371 1.371 0 0 0 1.373-1.37 1.371 1.371 0 0 0-1.373-1.374zm37.576 13.553a.442.442 0 0 0-.308.129.44.44 0 0 0-.127.308.44.44 0 0 0 .13.311.438.438 0 0 0 .307.125v-.002a.443.443 0 0 0 .309-.127.442.442 0 0 0 .129-.307.441.441 0 0 0-.131-.31.448.448 0 0 0-.309-.127zm5.131 0a.439.439 0 0 0-.308.127.445.445 0 0 0-.127.31.44.44 0 0 0 .127.309.44.44 0 0 0 .308.125v-.002a.446.446 0 0 0 .309-.125.441.441 0 0 0 .127-.307.445.445 0 0 0-.13-.31.442.442 0 0 0-.306-.127zm-9.197.033a.437.437 0 0 0-.438.436v2.629c0 1.762.924 2.773 2.534 2.773h1.892a.33.33 0 0 0 .043-.002h.024a.292.292 0 0 0 .042.002.432.432 0 0 0 .432-.434V40.5a.432.432 0 0 0-.432-.435l-.002.004a.438.438 0 0 0-.437.433v2.506h-1.564c-.412 0-1.663 0-1.663-1.9v-2.633a.435.435 0 0 0-.431-.436zm12.748.014a.436.436 0 0 0-.438.431v4.97a.438.438 0 0 0 .438.439.437.437 0 0 0 .432-.44v-4.969a.435.435 0 0 0-.432-.431zm6.7 0a.436.436 0 0 0-.436.431v3.526c0 .008 0 .016.002.021v.004a.137.137 0 0 1-.002.028.446.446 0 0 0 .128.312.439.439 0 0 0 .307.131.454.454 0 0 0 .309-.13.469.469 0 0 0 .105-.182l.03-.094a1.488 1.488 0 0 1 .138-.336 3.424 3.424 0 0 1 .363-.524 3.337 3.337 0 0 1 .397-.384l.035-.03a2.794 2.794 0 0 1 1.957-.625c1.27.047 1.524.563 1.524 1.38v1.439h-7.211l.052-.12a2.376 2.376 0 0 0 .194-.921v-1.494a.435.435 0 0 0-.436-.436.436.436 0 0 0-.435.436v1.492c0 .043-.01 1.04-.788 1.04h-.888v-2.532a.435.435 0 0 0-.434-.436.436.436 0 0 0-.435.436v3.013a1.699 1.699 0 0 1-.985 1.465.438.438 0 0 0-.256.56.444.444 0 0 0 .565.253 2.57 2.57 0 0 0 1.5-1.815l.014-.068h9.992a.438.438 0 0 0 .435-.44V41.58c0-1.442-.798-2.202-2.373-2.261a3.686 3.686 0 0 0-2.572.84l-.035.03c-.06.052-.121.107-.184.165l-.144.132v-2.002a.435.435 0 0 0-.434-.431zM27.054 40.06a.435.435 0 0 0-.436.431v2.018c0 1.763.924 2.773 2.533 2.773h2.045a.247.247 0 0 1 .028 0h.002a.437.437 0 0 0 .435-.437v-.963h3.87a.424.424 0 0 0 .054-.004c1.13-.077 1.537-1.183 1.537-1.908v-1.475a.436.436 0 0 0-.435-.434v-.002a.435.435 0 0 0-.434.436v1.473c0 .043-.01 1.04-.79 1.04h-1.323l.05-.118a2.362 2.362 0 0 0 .194-.922v-1.473a.436.436 0 0 0-.434-.436.436.436 0 0 0-.437.436v1.473c0 .043-.01 1.04-.787 1.04h-1.065v-2.517a.435.435 0 0 0-.435-.432.435.435 0 0 0-.436.432v3.918h-1.639c-.41 0-1.662 0-1.662-1.9v-2.018a.435.435 0 0 0-.435-.432zm22.558.008a.436.436 0 0 0-.437.435v3.918H47.5c-.41 0-1.662 0-1.662-1.9v-2.016a.436.436 0 0 0-.436-.435.435.435 0 0 0-.435.435v2.016c0 1.763.925 2.773 2.533 2.773h2.12a.432.432 0 0 0 .427-.437v-4.354a.436.436 0 0 0-.434-.435zm4.723 4.552.002.002a.447.447 0 0 0-.309.13.436.436 0 0 0-.13.308.45.45 0 0 0 .13.308.446.446 0 0 0 .307.127.441.441 0 0 0 .309-.128.439.439 0 0 0 .128-.31.436.436 0 0 0-.128-.308.438.438 0 0 0-.309-.129zm1.28 0v.002a.436.436 0 0 0-.307.13.432.432 0 0 0-.131.308.445.445 0 0 0 .13.31.439.439 0 0 0 .307.127.446.446 0 0 0 .309-.13.44.44 0 0 0 .127-.31.436.436 0 0 0-.13-.306.44.44 0 0 0-.306-.13z"/></svg>