<svg role="img" viewBox="0 0 64 64" xmlns="http://www.w3.org/2000/svg"><title>Philippine Airlines</title><path d="M0 35.843h8.718L10.4 26.85Z" fill="#001F60"/><path d="M9.388 32.26s-.183-1.168-.178-1.475c.004-.26.074-2.193.104-2.996l-.26.224a211.12 211.12 0 0 1-.076 2.76c-.01.148-.272 1.447-.272 1.447s-.49-1.084-.546-1.398a67.309 67.309 0 0 1-.244-1.825l-.226.196c.083.544.227 1.493.246 1.665.024.225-.049 1.495-.049 1.495s-.693-1.079-.77-1.27A29.238 29.238 0 0 1 6.757 30l-.18.155c.101.308.283.864.327 1.011.047.155.268 1.473.268 1.473s-.848-.834-1.023-1.079a21.852 21.852 0 0 1-.433-.66l-.18.155c.127.187.337.5.415.637.087.152.561 1.395.561 1.395s-1.147-.778-1.223-.84a8.954 8.954 0 0 1-.519-.53l-.183.16c.17.177.451.47.528.552.095.104.862 1.225.862 1.225s-1.215-.46-1.372-.564l-.804-.534-.187.161c.24.16.72.477.865.578.197.136 1.092 1.037 1.092 1.037l-1.464-.246a149.777 149.777 0 0 1-1.484-.511l-.213.183c.393.136 1.356.47 1.616.567.165.062 1.3.743 1.3.743s-1.262.024-1.473.02c-.185-.005-2.106-.28-2.578-.347l-.27.233c.579.068 2.473.29 2.817.343.493.124 1.423.526 1.423.526l4.142-3.576Z" fill="#FFCC05"/><path d="M5.244 35.843h8.718l1.683-8.993Z" fill="#EE2A29"/><path d="M17.942 34.229h-.955l-.302 1.616h-.934l.845-4.492h1.959c.451 0 .79.116 1.013.348.225.231.292.59.202 1.075-.1.53-.306.904-.616 1.124-.31.22-.714.329-1.212.329zm.314-2.093h-.875l-.248 1.321h.875a.892.892 0 0 0 .549-.16c.144-.108.237-.279.28-.512.045-.234.015-.4-.09-.5-.105-.099-.269-.149-.49-.149zm4.623.739c.068.124.1.251.096.382-.004.13-.034.344-.09.64l-.367 1.949h-.888l.378-2.02c.033-.178.03-.322-.008-.432-.05-.154-.187-.231-.408-.231a.752.752 0 0 0-.567.23c-.147.153-.249.372-.302.656l-.338 1.796h-.867l.843-4.474h.866l-.3 1.588c.163-.192.334-.327.514-.402a1.395 1.395 0 0 1 1.084-.008c.155.071.272.18.353.326zm.772-.347h.882l-.624 3.318h-.881Zm.957-.402h-.881l.151-.8h.882l-.152.8zm.718 3.72h-.869l.845-4.493h.87zm1.17-3.318h.883l-.624 3.318h-.882l.624-3.318zm.958-.402h-.882l.151-.8h.882l-.151.8zm3.337 2.018c-.11.585-.325 1.031-.646 1.337-.322.307-.69.46-1.104.46-.264 0-.472-.065-.621-.197a.943.943 0 0 1-.222-.32l-.327 1.726h-.86l.872-4.623h.833l-.092.491c.12-.144.242-.258.364-.342a1.276 1.276 0 0 1 .73-.222c.389 0 .69.143.906.43.215.286.271.706.167 1.26zm-1.466-.93c-.316 0-.56.149-.734.448-.09.158-.158.36-.205.603-.072.386-.02.657.155.814a.605.605 0 0 0 .409.137.77.77 0 0 0 .606-.28c.163-.187.272-.436.33-.747a1.183 1.183 0 0 0-.048-.68c-.08-.197-.25-.295-.513-.295zm4.968.93c-.11.585-.325 1.031-.646 1.337-.32.307-.689.46-1.103.46-.265 0-.472-.065-.622-.197a.933.933 0 0 1-.221-.32l-.327 1.726h-.86l.872-4.623h.832l-.092.49c.121-.143.242-.258.364-.34a1.276 1.276 0 0 1 .73-.224c.388 0 .69.143.906.43.216.286.271.707.167 1.26zm-1.466-.93c-.315 0-.56.149-.733.448-.09.158-.158.36-.205.603-.072.386-.02.657.154.814a.605.605 0 0 0 .41.137.77.77 0 0 0 .605-.28c.163-.187.272-.436.33-.747a1.187 1.187 0 0 0-.047-.68c-.08-.197-.251-.295-.514-.295zm2.098-.686h.882l-.624 3.318h-.881zm.958-.402H35l.152-.8h.882l-.151.8zm3.265 1.485-.422 2.234h-.89l.377-2.02c.035-.173.036-.307.005-.4-.052-.171-.199-.257-.439-.257a.753.753 0 0 0-.677.375c-.082.132-.142.3-.18.505l-.337 1.797h-.867l.624-3.312h.839l-.092.483c.144-.17.273-.292.388-.368.204-.133.443-.2.718-.2.344 0 .607.09.792.27.184.179.238.477.16.893zm3.193-.527c.095.197.136.426.124.686a4.175 4.175 0 0 1-.094.658h-2.276c-.05.332.01.565.182.698.104.083.24.125.41.125a.742.742 0 0 0 .465-.152c.07-.055.138-.131.205-.228h.888c-.06.196-.201.396-.422.599-.346.323-.775.484-1.288.484-.423 0-.77-.136-1.042-.408-.272-.272-.35-.714-.235-1.327.107-.574.336-1.015.685-1.321a1.797 1.797 0 0 1 1.223-.46c.277 0 .516.052.72.155a.983.983 0 0 1 .455.491zm-2.116.771h1.351c.03-.23-.008-.405-.112-.524a.542.542 0 0 0-.433-.179.706.706 0 0 0-.503.19 1.178 1.178 0 0 0-.303.513zm5.548-2.502h1.061l.748 4.492h-1.02l-.116-.924h-1.657l-.484.924h-.982zm-.585 2.796h1.141l-.23-1.766-.91 1.767zm3.216-1.62h.881l-.623 3.317h-.882zm.957-.403h-.882l.151-.8h.882l-.151.8zm2.389.329-.168.89a2.28 2.28 0 0 0-.247-.015c-.35 0-.606.114-.77.34-.09.129-.16.326-.211.591l-.297 1.585h-.875l.623-3.317h.83l-.108.579c.176-.222.32-.373.434-.454a1.127 1.127 0 0 1 .717-.203zm.447 3.39h-.87l.845-4.492h.87zm1.17-3.317h.882l-.623 3.318h-.882zm.958-.402h-.882l.151-.8h.882l-.151.8zm3.265 1.485-.421 2.234h-.891l.378-2.02c.034-.173.036-.307.005-.4-.053-.171-.2-.257-.44-.257a.753.753 0 0 0-.677.375c-.082.132-.142.3-.18.505l-.337 1.797h-.866l.623-3.312h.84l-.092.483c.144-.17.273-.292.387-.368.204-.133.443-.2.718-.2.344 0 .608.09.792.27.185.179.238.477.161.893zm3.194-.527c.094.197.135.426.124.686a4.22 4.22 0 0 1-.094.658h-2.276c-.05.332.01.565.182.698.103.083.24.125.409.125a.74.74 0 0 0 .465-.152c.07-.055.139-.131.205-.228h.888c-.06.196-.201.396-.421.599-.347.323-.776.484-1.288.484-.423 0-.771-.136-1.043-.408-.272-.272-.35-.714-.236-1.327.109-.574.337-1.015.687-1.321a1.797 1.797 0 0 1 1.223-.46c.276 0 .516.052.719.155a.985.985 0 0 1 .456.491zm-2.117.771h1.352c.03-.23-.008-.405-.112-.524a.542.542 0 0 0-.433-.179.705.705 0 0 0-.503.19 1.18 1.18 0 0 0-.304.513zm3.025.93c-.01.156.01.266.06.331.084.116.272.174.563.174.17 0 .311-.025.422-.076.11-.05.176-.127.196-.229.018-.097-.01-.171-.082-.222-.072-.05-.358-.138-.857-.262-.359-.093-.601-.21-.73-.35-.129-.138-.168-.338-.118-.598.058-.306.228-.57.51-.79.283-.22.643-.33 1.08-.33.415 0 .737.082.967.247.23.166.326.452.29.858h-.87a.46.46 0 0 0-.046-.265c-.074-.119-.226-.178-.456-.178-.19 0-.33.03-.42.089-.091.059-.144.128-.158.207-.02.1.009.172.087.216.077.047.363.127.86.241.33.081.566.204.708.369.14.166.187.374.14.624a1.27 1.27 0 0 1-.52.806c-.284.209-.682.313-1.194.312-.523 0-.888-.11-1.096-.33-.208-.22-.28-.502-.218-.843z" fill="#1E2D5F"/></svg>