<svg role="img" viewBox="0 0 64 64" xmlns="http://www.w3.org/2000/svg"><title>Philippine Airlines</title><path d="m11.766 26.518-.786.672L.737 35.946l-.737.63h15.026l.056-.293 1.658-8.756.19-1.008-.786.671-5.375 4.59.805-4.253zm-.548.943-.998 5.261c0-.002-.18-1.136-.175-1.434.004-.252.073-2.127.102-2.911zm5.164 0-1.657 8.757H.975l.998-.853c.576.067 2.427.282 2.766.333.485.12 1.4.512 1.4.512l4.08-3.481.001-.006zm-6.49 1.134c-.019.737-.06 2.462-.075 2.68-.01.144-.269 1.409-.269 1.409s-.482-1.056-.538-1.36c-.044-.242-.172-1.24-.239-1.771zm-1.343 1.147c.082.531.223 1.45.24 1.616.026.22-.047 1.455-.047 1.455s-.683-1.05-.759-1.236a27.245 27.245 0 0 1-.352-1.049zm-1.094.937c.1.3.275.836.32.98.045.15.262 1.432.262 1.432s-.835-.811-1.007-1.049c-.09-.125-.297-.441-.424-.638zm-1.025.875c.125.182.33.483.406.617.085.148.552 1.357.552 1.357s-1.13-.758-1.204-.818a8.746 8.746 0 0 1-.508-.51zm18.058.26-.149.777h.869l.148-.778zm2.802 0-.148.777h.868l.149-.778zm8.3 0-.148.777h.868l.149-.778zm13.275 0-.15.777h.869l.148-.778zm4.887 0-.149.777h.869l.148-.778zm-36.435.027-.833 4.372h.92l.298-1.574h.94c.49 0 .89-.106 1.195-.32.304-.213.507-.578.606-1.094.088-.472.023-.82-.199-1.046-.22-.225-.553-.338-.998-.338zm8.572 0-.83 4.372h.855l.832-4.372zm20.16 0-2.412 4.372h.967l.477-.9h1.631l.115.9h1.004l-.736-4.372zm6.303 0-.833 4.372h.857l.832-4.372zm-31.328.017-.829 4.355h.853l.332-1.749c.053-.276.153-.489.299-.638a.745.745 0 0 1 .558-.224c.218 0 .351.075.401.225.039.107.042.247.008.42l-.372 1.967h.874l.362-1.896c.055-.29.084-.497.088-.624a.71.71 0 0 0-.094-.373h-.001a.734.734 0 0 0-.347-.317 1.277 1.277 0 0 0-.531-.103 1.383 1.383 0 0 0-.537.11 1.366 1.366 0 0 0-.506.393l.296-1.546zm-15.528.496c.168.173.441.454.516.534.094.1.85 1.192.85 1.192s-1.198-.447-1.352-.548l-.787-.518Zm12.594.248h.861c.219 0 .38.05.484.146.103.096.133.259.09.486-.044.227-.136.393-.278.498a.882.882 0 0 1-.54.157h-.862zm28.281.24.227 1.72h-1.124Zm16.384.047c-.43 0-.784.108-1.062.322-.279.215-.447.471-.503.77-.05.253-.011.447.116.581.126.137.365.25.718.341.492.12.774.206.845.256.071.049.098.122.08.217-.02.099-.084.172-.193.222-.11.049-.247.073-.415.073-.287 0-.472-.055-.555-.169-.05-.063-.07-.17-.059-.322h-.869c-.061.333.01.606.215.82.204.215.565.323 1.08.323.504 0 .896-.102 1.175-.304.28-.203.45-.464.512-.784.046-.243.001-.446-.137-.608-.14-.16-.373-.28-.698-.359-.49-.11-.771-.19-.847-.234-.077-.044-.106-.114-.086-.212.014-.077.066-.143.156-.201.09-.057.227-.085.414-.085.226 0 .376.057.449.171.037.064.053.15.046.259h.855c.037-.395-.058-.674-.284-.835-.227-.162-.544-.242-.953-.242zm-21.24.006a1.78 1.78 0 0 0-1.206.448c-.344.298-.57.727-.675 1.286-.114.596-.036 1.027.232 1.292.268.265.61.397 1.026.397.505 0 .928-.157 1.269-.47.217-.198.356-.393.415-.584h-.875a1 1 0 0 1-.202.222.737.737 0 0 1-.458.147.629.629 0 0 1-.403-.12c-.17-.13-.23-.357-.179-.68H42.7c.057-.278.088-.493.092-.641a1.37 1.37 0 0 0-.12-.667h-.001a.963.963 0 0 0-.45-.479 1.549 1.549 0 0 0-.707-.151zm18.16 0a1.78 1.78 0 0 0-1.204.448c-.344.298-.57.727-.676 1.286-.113.596-.036 1.027.232 1.292.268.265.61.397 1.027.397.504 0 .928-.157 1.268-.47.217-.198.356-.393.416-.584h-.876a.989.989 0 0 1-.201.222.735.735 0 0 1-.459.147c-.166 0-.3-.04-.402-.12-.17-.13-.23-.357-.18-.68h2.242c.057-.278.089-.493.093-.641a1.358 1.358 0 0 0-.122-.667.965.965 0 0 0-.45-.479 1.551 1.551 0 0 0-.708-.151Zm-21.089.012c-.27 0-.505.064-.706.194-.112.073-.24.192-.382.358l.09-.47h-.826l-.614 3.224h.854l.33-1.749c.038-.2.097-.363.179-.492a.743.743 0 0 1 .667-.365c.236 0 .38.084.432.25.03.09.029.22-.005.39l-.372 1.966h.877l.416-2.174c.076-.405.023-.696-.16-.87-.18-.175-.441-.262-.78-.262zm13.239 0c-.256 0-.478.066-.665.198-.112.08-.255.226-.428.441l.107-.563h-.818l-.614 3.23h.863l.291-1.543c.05-.259.12-.45.209-.575.16-.222.414-.332.758-.332a2.248 2.248 0 0 1 .243.015l.165-.866a1.754 1.754 0 0 1-.07-.004l-.041-.001zm4.924 0c-.27 0-.506.064-.707.194a1.924 1.924 0 0 0-.382.358l.09-.47h-.825l-.614 3.224h.852l.333-1.749c.037-.2.096-.363.177-.492a.743.743 0 0 1 .667-.365c.236 0 .38.084.433.25.03.09.029.22-.005.39l-.373 1.966h.878l.415-2.174c.076-.405.023-.696-.159-.87-.182-.175-.442-.262-.78-.262zm-26.51.005a1.26 1.26 0 0 0-.719.217c-.12.08-.24.191-.358.332l.09-.478h-.82l-.859 4.499h.847l.322-1.678c.064.136.136.24.218.31.148.129.352.193.613.193.408 0 .77-.15 1.086-.448.317-.299.529-.732.637-1.302.102-.54.048-.949-.164-1.228-.213-.278-.51-.417-.893-.417zm3.45 0c-.263 0-.503.072-.72.217-.12.08-.239.191-.358.332l.09-.478h-.82l-.858 4.499h.847l.322-1.678c.063.136.136.24.218.31.147.129.351.193.612.193.408 0 .77-.15 1.087-.448.315-.299.528-.732.636-1.302.103-.54.047-.949-.165-1.228-.212-.278-.509-.417-.891-.417zm-9.425.071-.614 3.23h.869l.614-3.23zm2.803 0-.614 3.23h.869l.614-3.23zm8.3 0-.614 3.23h.868l.614-3.23h-.867zm13.274 0-.614 3.23h.868l.614-3.23zm4.887 0-.613 3.23h.868l.614-3.23Zm-48.99.188c.24.156.705.462.848.56.194.13 1.075 1.008 1.075 1.008L5.019 34.5c-.227-.073-1.083-.368-1.455-.496Zm36.843.42c.182 0 .324.058.426.174.103.116.139.286.11.51h-1.33c.067-.21.166-.377.298-.5a.698.698 0 0 1 .496-.184zm18.162 0c.182 0 .324.058.426.174.102.116.139.286.11.51h-1.33c.067-.21.166-.376.298-.5a.702.702 0 0 1 .496-.184zm-29.69.06c.258 0 .426.097.505.288.078.192.094.413.046.662-.057.302-.165.544-.325.727a.76.76 0 0 1-.597.272.596.596 0 0 1-.402-.133c-.172-.152-.223-.417-.152-.793.046-.237.113-.432.201-.586.171-.291.413-.437.724-.437zm3.448 0c.258 0 .427.097.506.288.079.192.094.413.046.662-.057.302-.165.544-.324.727a.762.762 0 0 1-.597.272.6.6 0 0 1-.403-.133c-.172-.152-.222-.417-.152-.793.046-.237.114-.432.202-.586.17-.291.412-.437.722-.437zm-29.946.532c.39.133 1.33.455 1.584.55.163.06 1.28.723 1.28.723s-1.241.023-1.45.018c-.18-.004-2.058-.27-2.531-.336z"/></svg>