<svg role="img" viewBox="0 0 24 24" xmlns="http://www.w3.org/2000/svg"><title>WestJet</title><path d="M15.98 1.609c-.17.17-3.048 3.096-3.45 3.474-.414.402-.682.438-1.048.195-.366-.244-1.463-.988-1.463-.988l-1.365 6.656 8.386-1.878 2.645-4.79s-1.73.756-2.303 1c-.573.243-.793.207-.878-.195-.073-.39-.5-3.316-.524-3.474Zm4.534 5.875-3.413 1.658-7.886 9.288 5.826.902s.012-.89.037-1.548c.036-.659.402-.78.633-.915.22-.134 6.863-3.985 6.863-3.985l-.67-.366c-.403-.207-.183-.573 0-.817L24 8.898s-2.352.427-2.889.5c-.426.048-.487-.11-.512-.366-.012-.122-.085-1.548-.085-1.548zm-14.176.183s-1 1.121-1.231 1.365c-.232.244-.439.414-.817.366-.475-.073-2.56-.5-2.56-.5s-.17 2.56-.194 2.803c-.025.256-.11.585-.56.963l7.593-1.694Zm6.911 3.766L.89 12.774 0 12.859s2.816 3.316 2.938 3.462c.67.792.658 1.097-.025 1.938-.536.658-.878 1.085-.878 1.085s3.901-.658 4.45-.744c.5-.085.999.05.877.744-.085.463-.549 3.047-.549 3.047l2.329-3.961z"/></svg>