<svg role="img" viewBox="0 0 64 64" xmlns="http://www.w3.org/2000/svg"><title>WestJet</title><path d="M59.6 25.578c-.09.09-1.672 1.694-1.891 1.908-.23.22-.38.24-.576.106-.201-.134-.801-.543-.801-.543l-.752 3.656 4.602-1.033 1.449-2.629s-.95.412-1.26.549c-.312.134-.44.113-.486-.106-.041-.211-.273-1.815-.285-1.908zm-36.516 1.664c-2.087 0-3.32 1.01-3.32 2.332 0 2.304 3.32 2.15 3.32 3.348 0 .49-.688.697-1.275.697-1.041 0-2.262-.427-2.635-.824l-.317 1.8c.828.361 1.57.616 2.907.616 1.51 0 3.756-.587 3.756-2.414 0-2.36-3.381-2.264-3.381-3.4 0-.575.863-.63 1.146-.63.446 0 1.01.07 1.615.301a.442.442 0 0 0 .594-.336l.178-1.021c-.52-.227-1.38-.469-2.588-.469zm3.291.115-.273 1.565h2.3l-1.078 6.17h1.834c.273 0 .5-.197.547-.457l.998-5.711h1.836a.552.552 0 0 0 .545-.455l.193-1.108v-.004h-6.902zm17.176 0-.272 1.565h2.301l-1.08 6.17h1.834c.273 0 .5-.197.547-.457l1-5.711h1.834c.273 0 .5-.195.547-.455l.193-1.108v-.004h-6.904zm-32.742.004-1.907 4.934-1.666-4.93H5.045l.484 1.356-1.554 3.58-1.534-4.936H0l2.734 7.73H4.29c.22 0 .41-.128.5-.316l1.66-3.484 1.358 3.799h1.582c.229 0 .424-.14.51-.338l3.138-7.395H10.81zm25.619 0-2.303.002-1.21 6.93c-.323 1.842-1.356 2.476-2.495 2.64l1.264 1.489c1.595-.436 3.098-1.658 3.53-4.129l1.214-6.932zm-22.623.002-1.352 7.73h4.93a.553.553 0 0 0 .545-.456l.193-1.108h-3.094l.278-1.595h2.523c.273 0 .5-.195.547-.455l.193-1.11h-2.99l.252-1.445h2.629c.273 0 .5-.195.547-.455l.191-1.106h-5.392zm23.789 0-1.352 7.73h4.924c.273 0 .5-.196.547-.456l.195-1.108h-3.096l.28-1.595h2.521c.273 0 .5-.195.547-.455l.195-1.108h-2.988l.252-1.447h2.629c.273 0 .5-.195.547-.455l.193-1.106h-5.394zm24.492 1.44-1.875.908-4.326 5.1 3.195.494s.009-.49.022-.85c.018-.363.222-.427.351-.504.121-.077 3.768-2.181 3.768-2.181l-.367-.2c-.227-.116-.103-.316-.002-.453.097-.134 1.148-1.54 1.148-1.54s-1.29.234-1.586.273c-.232.028-.269-.063-.28-.2-.007-.07-.048-.847-.048-.847zm-7.777.1s-.549.613-.672.747c-.124.137-.24.228-.451.2a55.75 55.75 0 0 1-1.4-.274s-.091 1.407-.104 1.541c-.016.142-.062.321-.309.528l4.16-.932-1.224-1.81zm3.779 2.066-6.777.73-.477.049 1.607 1.9c.366.433.358.604-.015 1.063-.294.358-.485.594-.485.594s2.142-.362 2.438-.41c.273-.047.55.029.48.408l-.302 1.668 1.275-2.168 2.256-3.834z"/></svg>