<svg role="img" viewBox="0 0 24 24" xmlns="http://www.w3.org/2000/svg" fill="currentColor"><title>Atlantic Airways</title><path d="M.008 7.483c.773.658 3.794 2.763 5.799 2.129 6.192-1.966 6.86-1.744 6.896-1.729-.07-.183-.39-.238-.527-.23C2.425 8.12.008 7.483.008 7.483ZM11.85 8.581c-.104 0-.616.04-2.157.658-2.182.873-3.306 2.113-3.306 2.113a.217.217 0 0 0-.086.149c-.041.54 2.119 1.527 2.119 1.527C4.814 15.467 0 16.516 0 16.516c15.556.08 19.021-5.41 19.021-5.41.638-.354 2.797-.619 3.995-.748.5-.054.843.021.947.02.011 0 .02-.002.025-.004l.002-.002h.002l.002-.002h.002l.002-.002v-.004l.002-.002v-.006c-.005-.034-.076-.092-.076-.092-.62-.383-2.488-.492-2.488-.492s-.818-.838-3.067-.655c-1.863.151-5.164 1.204-5.164 1.204-.842-.294-1.365-.932-1.334-1.74h-.021z"/></svg>