<svg role="img" viewBox="0 0 64 64" xmlns="http://www.w3.org/2000/svg"><title>Atlantic Airways</title><path fill="#db001b" d="M14.73 26.739c.167-.01.557.056.64.28 0 0-.612-.365-8.345 2.09-2.426.767-6.082-1.779-7.017-2.575 0 0 2.925.771 14.721.205"/><path fill="#004c93" d="M62.73 26.496c-.65 0-1.308.28-1.761.748a2.417 2.417 0 0 0-.684 1.694c0 .686.235 1.29.744 1.751.478.433 1.093.68 1.739.68.374 0 .662-.092 1.062-.215v-1.443c-.251.3-.646.49-1.04.49-.748 0-1.249-.527-1.249-1.256 0-.718.497-1.283 1.23-1.283.413 0 .814.178 1.06.508v-1.441a2.848 2.848 0 0 0-1.1-.233zm-29.527.121-1.781 4.63h1.275l.32-.806h1.657l.3.805h1.284l-1.742-4.629h-1.313zm11.953 0-1.781 4.63h1.277l.32-.806h1.655l.303.805h1.283l-1.744-4.629h-1.313zm3.633 0v4.63h1.205v-2.835h.01l2.203 2.834h1.203v-4.629h-1.203v2.83h-.012l-2.203-2.83H48.79zm9.543 0v4.627h1.201v-4.627h-1.201zm-22.303.002v1.018h1.229v3.61h1.203v-3.61h1.232v-1.018H36.03zm4.219 0v4.627h2.645v-1.02h-1.444V26.62h-1.201zm13.711 0v1.018h1.228v3.61h1.206v-3.61h1.228v-1.018H53.96zm-39.623 1.242c-.126 0-.745.05-2.61.797-2.64 1.056-4.001 2.557-4.001 2.557a.259.259 0 0 0-.102.18c-.05.653 2.564 1.847 2.564 1.847C5.825 36.192 0 37.462 0 37.462c18.82.096 23.012-6.546 23.012-6.546.77-.429 3.38-.748 4.83-.904.606-.065 1.021.025 1.146.023a.115.115 0 0 0 .03-.004l.005-.002.002-.002h.002l.002-.002.002-.002.002-.002v-.001l.002-.006c-.001-.04-.092-.116-.092-.116-.75-.463-3.011-.593-3.011-.593s-.989-1.015-3.71-.793c-2.254.182-6.245 1.455-6.245 1.455-1.02-.356-1.653-1.128-1.616-2.106h-.025zm19.512.188h.011l.49 1.47h-1.001l.5-1.47zm11.953 0h.013l.49 1.47h-1.001l.498-1.47zm16.56 4.582c-.926 0-1.595.615-1.595 1.555 0 .895.496 1.092 1.252 1.306.257.073.73.19.73.528 0 .325-.3.466-.582.466-.414 0-.766-.212-1.068-.478l-.514.97a2.843 2.843 0 0 0 1.623.526c.468 0 .953-.129 1.316-.434.368-.314.477-.786.477-1.246 0-.748-.495-1.074-1.14-1.263l-.31-.094c-.208-.068-.53-.17-.53-.442 0-.257.293-.384.513-.384.296 0 .578.12.799.304l.479-.931a3.163 3.163 0 0 0-1.45-.383zm-15.164.123-.972 2.99h-.012l-.805-2.988h-1.252l1.383 4.627h1.22l.907-2.682h.012l.81 2.68h1.229l1.478-4.627h-1.25l-.873 2.99h-.011l-.909-2.99h-.955zm8.563 0 1.709 2.406v2.223h1.2V35.16l1.708-2.406h-1.443l-.866 1.258-.865-1.258H55.76zm-22.557.002-1.781 4.627h1.275l.32-.803h1.657l.3.803h1.284l-1.742-4.627h-1.313zm4.055 0v4.627h1.203v-4.627h-1.203zm2.826 0v4.627h1.205v-1.78h.012l1.133 1.78h1.498l-1.453-1.897c.655-.117 1.011-.669 1.011-1.306 0-.987-.692-1.424-1.607-1.424h-1.799zm12.922 0-1.777 4.627h1.275l.32-.803h1.655l.3.803h1.283l-1.742-4.627h-1.314zm-11.717.92h.113c.394 0 .836.074.836.578 0 .503-.442.576-.836.576h-.113v-1.154zm-7.441.51h.011l.49 1.472h-1.001l.5-1.472zm19.804 0h.012l.492 1.472h-1l.496-1.472z"/></svg>