<svg role="img" viewBox="0 0 64 64" xmlns="http://www.w3.org/2000/svg" fill="currentColor"><title>Atlantic Airways</title><path d="M62.73 26.496c-.65 0-1.308.28-1.762.749a2.416 2.416 0 0 0-.682 1.693c0 .687.234 1.289.744 1.75.478.434 1.093.68 1.738.68.374 0 .661-.091 1.061-.214V29.71c-.25.301-.645.492-1.04.492-.747 0-1.248-.529-1.248-1.258 0-.718.497-1.282 1.23-1.282.413 0 .813.178 1.058.508v-1.442a2.841 2.841 0 0 0-1.098-.232Zm-62.722.038c.935.796 4.591 3.342 7.017 2.575 7.734-2.456 8.346-2.09 8.346-2.09-.084-.224-.474-.29-.641-.28-11.797.566-14.722-.205-14.722-.205Zm33.193.083-1.78 4.63h1.275l.32-.805h1.657l.301.804h1.283l-1.742-4.629zm11.955 0-1.781 4.63h1.277l.32-.805h1.655l.301.804h1.284l-1.745-4.629zm3.632 0v4.63h1.205v-2.835h.01l2.203 2.834h1.205v-4.629h-1.205v2.83h-.012l-2.202-2.83zm9.544 0v4.628h1.202v-4.628zm-22.303.001v1.018h1.228v3.61h1.203v-3.61h1.232v-1.018zm17.93 0v1.018h1.229v3.61h1.204v-3.61h1.23v-1.018zm-13.713 0v4.628h2.645v-1.02h-1.443V26.62Zm-25.91 1.243c-.125 0-.744.049-2.608.797-2.64 1.056-4.002 2.557-4.002 2.557a.259.259 0 0 0-.103.18c-.05.653 2.564 1.848 2.564 1.848C5.825 36.193 0 37.463 0 37.463c18.82.096 23.012-6.547 23.012-6.547.772-.43 3.383-.749 4.832-.905.606-.065 1.02.026 1.146.024.031 0 .044-.007.046-.02.005-.04-.092-.117-.092-.117-.75-.463-3.01-.594-3.01-.594s-.989-1.013-3.71-.792c-2.254.183-6.247 1.454-6.247 1.454-1.019-.356-1.652-1.126-1.614-2.104l-.026-.001zm19.51.187h.012l.49 1.472h-1.001zm11.954 0h.013l.49 1.472h-1zm16.561 4.583c-.926 0-1.595.615-1.595 1.554 0 .896.497 1.093 1.252 1.307.258.073.73.19.73.528 0 .325-.3.466-.582.466-.413 0-.767-.212-1.069-.479l-.514.97a2.847 2.847 0 0 0 1.624.527c.468 0 .953-.128 1.316-.433.368-.314.477-.787.477-1.247 0-.748-.495-1.074-1.141-1.264l-.307-.092c-.21-.068-.533-.171-.533-.442 0-.258.294-.386.514-.386.295 0 .578.122.799.306l.479-.932a3.163 3.163 0 0 0-1.45-.383zm-15.165.123-.971 2.99h-.013l-.805-2.989h-1.25l1.38 4.628h1.222l.907-2.682h.012l.81 2.68h1.228l1.48-4.627h-1.252l-.872 2.99h-.013l-.907-2.99zm8.564 0 1.708 2.407v2.222h1.201V35.16l1.708-2.406h-1.444l-.866 1.258-.865-1.258zm-22.559.001-1.78 4.628h1.275l.32-.804h1.657l.301.804h1.283l-1.742-4.628zm4.056 0v4.628h1.203v-4.628zm2.827 0v4.628h1.203v-1.78h.012l1.134 1.78h1.498l-1.454-1.896c.656-.117 1.013-.67 1.013-1.308 0-.987-.694-1.424-1.609-1.424zm12.922 0-1.778 4.628h1.275l.321-.804h1.655l.3.804h1.284l-1.743-4.628zm-11.719.92h.115c.394 0 .836.074.836.578 0 .503-.442.576-.836.576h-.115zm-7.441.51h.012l.49 1.474h-1.001zm19.806 0h.012l.492 1.474h-1z"/></svg>