<svg role="img" viewBox="0 0 64 64" xmlns="http://www.w3.org/2000/svg" fill="currentColor"><title>T'way Air</title><path d="M13.54 18.666a3.152 3.152 0 0 0-1.944 5.633c.9.699 1.818 2.01-.352 4.053-.408.426-.118.761.158.939.666.43 1.104.366 1.815 0 1.822-.944 5.12-4.774 3.191-8.789l-.004.004c-.019-.045-.041-.088-.064-.133a3.153 3.153 0 0 0-2.8-1.707zM3.43 20.068c-.775 0-1.409.627-1.409 1.405v3.177H.963a.96.96 0 0 0-.963.961v1.565c0 .532.43.963.963.963H2.02v6.902c0 3.464 1.628 5.307 4.645 5.307.57 0 1.345-.028 2.098-.084.533 0 .965-.43.965-.963v-1.623a.965.965 0 0 0-.965-.965c-.794 0-1.358-.316-1.358-1.211v-7.36h1.358c.533 0 .965-.43.965-.962v-1.565a.962.962 0 0 0-.965-.96H7.406v-3.182c0-.775-.627-1.405-1.406-1.405H3.43zm40.85 4.215c-1.713 0-4.721.446-5.598 3.434-.05.147-.073.302-.073.465 0 .948.605 1.537 1.577 1.537h1.365c.971 0 1.516-.374 1.717-1.182.113-.453.49-.723 1.011-.723.579 0 1 .43 1 1.024 0 .842-.402 1.297-1.343 1.52-4.148 1.076-6.079 2.953-6.079 5.65 0 2.697 1.682 4.443 4.284 4.443l-.004-.004c1.436 0 2.612-.59 3.289-1.629.125.85.755 1.44 1.564 1.44h1.781c.87 0 1.577-.69 1.577-1.53.143-2.519.069-7.086-.03-9.382-.075-1.93-.654-3.26-1.765-4.06-.95-.685-2.308-1.003-4.274-1.003zm8.734.363a1.407 1.407 0 0 0-1.377 1.696c1.005 4.857 2.177 9.865 3.16 13.015.11.405.213.64.22 1.157.008.317-.411 1.183-1.644 1.183h-.137a.962.962 0 0 0-.965.961v1.672c0 .533.432.961.965.961.56.03 1.27.043 1.92.043 2.662 0 4.07-1.187 5.147-4.707 1.414-4.623 2.967-9.998 3.677-14.346.012-.072.02-.147.02-.222 0-.775-.631-1.405-1.406-1.405h-2.008c-.677 0-1.243.475-1.375 1.114-.393 1.806-.845 5.29-1.219 7.812h-.053c-.434-2.259-.982-5.937-1.511-7.883a1.408 1.408 0 0 0-1.362-1.05h-2.052zm-33.188.008c-.601 0-1.508.446-1.406 1.53.416 3.724 1.47 8.566 2.687 12.962.193.813.843 1.118 1.391 1.118h2.772c.85 0 1.297-.68 1.38-1.13l1.286-5.85h.052l1.282 5.85c.083.45.53 1.13 1.38 1.13h2.77c.548 0 1.203-.305 1.392-1.118 1.218-4.4 2.272-9.238 2.688-12.962.102-1.08-.805-1.53-1.406-1.53h-2.11c-.446 0-1.171.276-1.338 1.145-.457 2.33-.74 4.886-1.062 7.168a148.06 148.06 0 0 0-1.211-7.317c-.125-.532-.62-.996-1.346-.996H26.89c-.726 0-1.223.464-1.348.996-.533 2.252-.94 5.13-1.213 7.293-.321-2.273-.605-4.821-1.058-7.144a1.364 1.364 0 0 0-1.338-1.145h-2.106zM45.373 33.3v1.27c0 1.816-.549 2.19-1.37 2.19-.283 0-.57-.128-.763-.34-.223-.24-.319-.585-.273-.985.106-.914.904-1.315 1.607-1.666.299-.151.584-.295.799-.47z"/></svg>