<svg role="img" viewBox="0 0 24 24" xmlns="http://www.w3.org/2000/svg"><title>Bangkok Airways</title><path d="M16.814 0c-.06.032-.122.069-.13.154a.977.977 0 0 0 .036.306c.025.141.051.274.08.416a7.351 7.351 0 0 1 .071 1.246 10.657 10.657 0 0 1-.875 3.895 8.215 8.215 0 0 1-.476.95c-.236.389-.472.785-.732 1.17a19.291 19.291 0 0 1-1.45 1.826c-.437.488-.923.917-1.395 1.362-.161.137-.322.28-.482.419-.347.296-.691.59-1.039.866-.208.174-.412.341-.619.516a9.147 9.147 0 0 0-2.283 2.851 6.6 6.6 0 0 0-.557 2.146 5.276 5.276 0 0 0 1.444 4.267 5.457 5.457 0 0 0 .465.414A6.213 6.213 0 0 0 11.888 24c0-.001.002-.01 0-.01a.937.937 0 0 1-.262-.105 4.603 4.603 0 0 1-.938-.582 4.09 4.09 0 0 1-1.578-3.018 3.263 3.263 0 0 1 .17-1.503 5.067 5.067 0 0 1 1.25-1.912c.187-.188.352-.392.55-.57.184-.169.366-.346.549-.507.292-.262.6-.494.908-.724.433-.36.867-.723 1.302-1.082.418-.328.834-.656 1.227-1.025.202-.187.385-.394.568-.598a4.935 4.935 0 0 0 .583-.946 6.044 6.044 0 0 0 .83-2.889c.01-.404-.01-.811-.017-1.21V6.226c0-1.268.009-2.508.009-3.77 0-.148.01-.292.01-.438 0-.514.014-1.015.014-1.519a1.071 1.071 0 0 0-.033-.43C16.986-.003 16.904 0 16.814 0Zm.142 10.03a4.748 4.748 0 0 1-.096.527 3.846 3.846 0 0 1-.31.933 7.07 7.07 0 0 1-.27.46 7.937 7.937 0 0 1-1.18 1.48c-.084.081-.173.167-.257.252-.284.22-.576.433-.857.65-.445.337-.885.674-1.328 1.01-1.263.955-2.66 2.104-3.233 3.597a3.037 3.037 0 0 0-.144 1.233 4.253 4.253 0 0 0 1.623 3.102 2.66 2.66 0 0 0 1.371.659.015.015 0 0 0 0-.01c-.04 0-.147-.09-.187-.113a8.126 8.126 0 0 1-.804-.62 3.922 3.922 0 0 1-.691-.738 3.76 3.76 0 0 1-.392-.726 3.84 3.84 0 0 1-.338-1.27 3.442 3.442 0 0 1 .218-1.407 3.795 3.795 0 0 1 .372-.763 7.815 7.815 0 0 1 2.206-2.005c.38-.257.752-.527 1.145-.765.387-.234.737-.504 1.105-.775a5.646 5.646 0 0 0 .664-.584 3.17 3.17 0 0 0 .337-.427c.113-.168.235-.327.338-.5a4.216 4.216 0 0 0 .69-1.661 6.507 6.507 0 0 0 .03-.87v-.457a.703.703 0 0 0-.012-.213zm-.063 2.484c-.08.212-.182.413-.275.614a5.163 5.163 0 0 1-.878 1.371 8.013 8.013 0 0 1-1.39 1.099c-.509.343-1.012.688-1.524 1.032-.787.539-1.696 1.073-2.212 1.92a2.967 2.967 0 0 0-.274.526 3.943 3.943 0 0 0-.229 1.073 3.61 3.61 0 0 0 .342 1.785 3.257 3.257 0 0 0 .315.508 2.725 2.725 0 0 0 .327.42 4.416 4.416 0 0 0 .732.582 2.69 2.69 0 0 0 1.338.529.013.013 0 0 0-.002-.008h-.007c0-.016-.01-.016-.023-.025a80.015 80.015 0 0 0-.344-.215 5.774 5.774 0 0 1-.88-.714 2.994 2.994 0 0 1-.87-1.907 2.385 2.385 0 0 1 .017-.643 2.563 2.563 0 0 1 .271-.754 3.071 3.071 0 0 1 2.169-1.583 1.502 1.502 0 0 1 .434.021 2.188 2.188 0 0 1 .784.281c.112.07.224.14.334.213h.029a.026.026 0 0 0 .018-.006c.07-.033.14-.07.206-.103a3.62 3.62 0 0 0 .609-.434 2.936 2.936 0 0 0 .98-1.84 6.097 6.097 0 0 0 .034-.685l-.012-.207V14.33c0-.454-.003-.917-.008-1.357v-.291a.634.634 0 0 0-.012-.168z"/></svg>