<svg role="img" viewBox="0 0 64 64" xmlns="http://www.w3.org/2000/svg"><title>Garuda Indonesia</title><path d="m46.461 26.122.1.168h2.937c.739 0 2.878.062 4.49.764v.004c1.215.533 2.955 1.83 3.21 2.015.254.185 2.757 1.973 2.757 1.973s.393.283.758.283.726-.365.726-.365-3.54-2.54-3.794-2.72c-.259-.185-1.433-1.17-3.616-1.745-1.493-.394-4.068-.377-4.363-.377zm.771 1.33.1.168h2.594c.944 0 2.564.082 3.877.738l-.004.004c1.219.612 2.617 1.642 2.818 1.786.205.143 2.299 1.636 2.299 1.636s.395.28.756.28c.394 0 .758-.377.758-.377l-3.352-2.397c-.148-.103-1.546-1.17-3.176-1.539-1.411-.32-3.546-.299-3.85-.299zm12.045 1.23c-.143.325.418.698.418.698l1.744 1.252c.222.14.418.03.418.03s.45-.227.704-.28c.221-.058.92-.087 1.005-.059.197.029.418.227.418.227.111-.784-.394-.837-.726-.895v-.007c-.328-.058-.756-.082-.756-.082l-.586.167-.336-.279s.698.057.895.086c.168 0 .109-.086.027-.254-.082-.164-.28-.164-.28-.164h-1.76s-.316 0-.68-.082c-.366-.086-.505-.357-.505-.357zm-8.427.11c-.226-.001-.378.002-.412.002h-2.43l.1.164h2.117c.439 0 2.13.024 3.418.713 1.108.595 2.199 1.413 2.404 1.56.205.148 1.867 1.335 1.867 1.335s.391.261.748.261.738-.38.738-.38-2.65-1.905-2.892-2.073c-.238-.168-1.194-.95-2.729-1.314-.898-.228-2.251-.264-2.93-.268zm-2.065 1.336.09.164h1.73c.497 0 1.566.048 2.85.717l.008.004c.87.455 1.825 1.17 2.014 1.297.184.127 1.4 1.002 1.4 1.002s.381.271.734.271c.374 0 .754-.39.754-.39s-2.269-1.622-2.437-1.733c-.173-.107-1.03-.757-2.278-1.09-.993-.267-2.686-.242-2.826-.242zm.758 1.332.1.17h1.345c.201 0 1.469.061 2.371.66h.004c.858.57 1.363.985 1.528 1.104.164.119.927.664.927.664s.353.275.784.275c.324 0 .726-.377.726-.377s-1.822-1.285-1.99-1.4c-.168-.115-.75-.574-1.842-.862-.91-.238-2.209-.234-2.295-.234ZM2.541 32.495c-.817 0-1.358.275-1.707.604-.755.71-.834 1.628-.834 2.095 0 .579.145 1.507.711 2.069.386.373.893.615 1.69.615.303 0 .492-.012.804-.057v.004c.27-.033.415-.072.686-.146V34.94H2.244l-.064.415s.126-.045.425-.045h.448v2.052s-.164.06-.57.06c-.575 0-1.585-.163-1.585-2.232 0-1.366.542-2.244 1.823-2.244.623 0 1 .214 1.029.23l-.135-.476s-.348-.205-1.074-.205zm14.018.045s.23.139.23.418v1.322s-.206-.447-.95-.447c-1.234 0-1.534 1.263-1.534 2.043 0 1.038.39 1.975 1.498 1.975h.017c.427-.009.709-.177 1-.44v.194c0 .14.05.187.202.187l.539.004v-4.924c0-.172-.169-.332-.403-.332zm14.736 0s.228.139.228.418v1.322s-.204-.447-.943-.447c-1.231 0-1.53 1.263-1.53 2.043 0 1.038.385 1.975 1.49 1.975h.02c.427-.009.71-.177 1-.44v.194c0 .14.06.187.212.187l.529.004v-4.924c0-.172-.173-.332-.403-.332zm-7.773.016s.222.11.222.398v4.576c0 .193.098.262.258.262l.596.004v-4.969c0-.164-.099-.271-.325-.271zm18.576 1.246c-1.385.013-1.645.926-1.645 1.603v.848c0 .509.051.908.334 1.203.226.238.66.39 1.235.39.68 0 1.289-.353 1.289-.353l.078-.476s-.53.415-1.2.423c-.599.009-.96-.176-.96-.853v-.357s.198.037.46.037c.604 0 1.28-.148 1.604-.608.21-.283.223-.55.223-.693 0-.394-.206-1.079-1.125-1.145v-.01c-.103-.007-.201-.01-.293-.01zm-36.127.02c-.681 0-1.108.286-1.108.286l-.074.475s.411-.351 1.04-.351c.405 0 .63.106.753.25.148.172.148.414.148.558v.4s-.196-.035-.455-.035c-.607 0-1.285.146-1.609.606-.21.283-.22.551-.22.695 0 .394.2 1.12 1.122 1.145.587.012.982-.218 1.211-.559v.227c0 .07.001.155.063.212.065.07.217.061.254.061l.406.004v-2.543c0-.509-.065-.768-.332-1.043-.23-.234-.625-.389-1.2-.389Zm13.69 0c-.682 0-1.108.286-1.108.286l-.078.475s.415-.351 1.043-.351c.402 0 .63.106.75.25.143.172.144.414.144.558v.4s-.192-.035-.455-.035c-.607 0-1.277.146-1.605.606a1.103 1.103 0 0 0-.227.695c0 .394.206 1.12 1.125 1.145.587.012.981-.218 1.211-.559v.227c0 .07 0 .155.057.212.065.07.219.061.255.061l.422.004v-2.543c0-.509-.069-.768-.336-1.043-.23-.234-.624-.389-1.199-.389zm30.157 0c-.685 0-1.107.286-1.107.286l-.074.475s.295-.34 1.017-.351c.419-.009.669.098.784.246.16.192.14.418.14.562v.4s-.198-.035-.46-.035c-.604 0-1.28.146-1.604.606-.21.283-.223.551-.223.695 0 .394.202 1.12 1.125 1.145.591.012.981-.218 1.215-.559v.227c0 .07 0 .155.057.212.065.07.214.061.255.061l.407.004v-2.543c0-.509-.064-.768-.334-1.043-.234-.234-.627-.389-1.198-.389zm-15.244.011c-1.272-.004-1.728.964-1.728 2.043 0 1.178.456 1.966 1.728 1.975 1.059.008 1.678-.908 1.678-1.975 0-1.067-.393-2.035-1.678-2.043zm-7.33.024c-.513 0-.89.217-1.103.562v-.303c0-.131-.075-.2-.223-.2l-.72-.005s.212.061.212.336v3.541h.772v-2.765c0-.415.433-.682.836-.682.48 0 .69.193.69.887v2.24c0 .189.115.32.312.32h.464v-2.47c0-.477-.062-.825-.316-1.108-.238-.258-.513-.353-.924-.353zm11.387 0c-.517 0-.894.217-1.104.562v-.303c0-.131-.072-.2-.224-.2l-.715-.005s.213.061.213.336v3.541h.771v-2.765c0-.415.436-.682.834-.682.484 0 .69.193.69.887v2.24c0 .189.115.32.312.32h.467v-2.47c0-.477-.07-.825-.32-1.108-.242-.258-.518-.353-.924-.353zm6.6.01c-.69.008-1.249.373-1.249 1.058 0 1.247 1.754 1.067 1.807 1.822.037.472-.247.758-.8.758-.555 0-1.089-.348-1.089-.348l.112.46c.143.085.48.245 1.088.245h.04c.407-.008.773-.12 1.048-.353l.003.004c.21-.18.348-.456.348-.817 0-.57-.421-.862-.959-1.091-.513-.222-.8-.312-.842-.69-.016-.143.049-.668.705-.668.612 0 .916.295.916.295l-.11-.43s-.26-.246-.974-.246zm-35.504.007c-.517.02-.798.385-.823.46v-.214c0-.106-.06-.201-.228-.201h-.768s.22.07.22.402v3.471h.776v-2.428c0-.369.076-.89.737-1.013l.004.004a.958.958 0 0 1 .648.078l-.104-.489c-.102-.061-.294-.074-.462-.07zm.746.045c-.004-.004.234.069.234.344v2.13c0 .473.062.821.316 1.104.243.263.516.354.922.354.517 0 .895-.218 1.104-.559v.227c0 .049 0 .155.058.213.078.07.233.06.262.06l.403.004v-3.873h-.768v2.766c0 .406-.434.677-.832.677-.484 0-.69-.197-.69-.886v-2.34c0-.132-.11-.221-.287-.221zm36.3.004s.243.091.243.346v3.322c0 .127.077.201.22.201l.547.004v-3.643c0-.147-.058-.23-.219-.23zm-4.593.268c.519.006.613.4.584.794-.041.493-.238.916-1.1.916-.238 0-.435-.044-.435-.044v-.682c0-.497.165-.895.777-.973.063-.008.12-.012.174-.011zm-7.59.048c.767.009.842.904.842 1.655 0 .915-.268 1.574-.842 1.574-.649 0-.92-.507-.92-1.574 0-.858.136-1.663.92-1.655zm-18.61.037c.284 0 .475.09.598.217.177.185.205.505.205.727v1.785c-.205.258-.442.39-.787.39-.628 0-.845-.76-.853-1.523v-.056c0-.538.087-1.54.837-1.54zm14.749 0c.274 0 .476.09.595.217.177.185.205.505.205.727h-.01v1.785c-.2.258-.434.39-.779.39-.632 0-.849-.76-.857-1.523v-.056c0-.538.086-1.54.846-1.54zM6.299 35.75c.238 0 .435.045.435.045v.898c0 .284-.225.468-.5.57a.918.918 0 0 1-.3.06c-.386 0-.698-.25-.698-.698 0-.074.009-.223.034-.289.106-.353.5-.586 1.029-.586zm13.678 0c.242 0 .435.045.435.045v.898c0 .284-.227.468-.502.57a.87.87 0 0 1-.295.06c-.385 0-.697-.25-.697-.698 0-.074.005-.223.03-.289.106-.353.5-.586 1.029-.586zm30.166 0c.238 0 .44.045.44.045l.003-.004v.902c0 .284-.231.468-.506.57a.908.908 0 0 1-.299.06c-.385 0-.697-.25-.697-.698 0-.074.005-.223.03-.289.106-.353.5-.586 1.029-.586z"/></svg>