<svg role="img" viewBox="0 0 64 64" xmlns="http://www.w3.org/2000/svg"><title>Garuda Indonesia</title><path d="m48.008 28.793.1.164h2.117c.439 0 2.13.025 3.418.715 1.108.595 2.199 1.41 2.404 1.559l1.867 1.333s.391.262.748.262.738-.38.738-.38-2.65-1.905-2.892-2.073c-.238-.168-1.194-.947-2.729-1.312-1.198-.304-3.202-.268-3.341-.268zm.777 1.334.09.164h1.73c.497 0 1.566.05 2.85.719l.008.004c.87.455 1.825 1.17 2.014 1.297.184.127 1.4 1 1.4 1s.381.271.734.271c.374 0 .756-.39.756-.39s-2.271-1.62-2.44-1.731c-.172-.107-1.03-.76-2.277-1.092-.993-.267-2.686-.242-2.826-.242zm.758 1.334.1.168h1.345c.201 0 1.469.061 2.371.66h.004c.858.57 1.363.985 1.528 1.104l.927.666s.353.273.784.273c.324 0 .726-.377.726-.377s-1.822-1.283-1.99-1.398c-.168-.115-.75-.576-1.842-.864-.91-.238-2.209-.232-2.295-.232z" fill="#008B99"/><path d="m46.461 26.121.1.168h2.937c.739 0 2.878.062 4.49.764v.004c1.215.533 2.955 1.83 3.21 2.015.254.185 2.757 1.975 2.757 1.975s.393.283.758.283.726-.365.726-.365-3.54-2.54-3.794-2.72c-.259-.185-1.433-1.17-3.616-1.745-1.493-.394-4.068-.379-4.363-.379zm.771 1.33.1.168h2.594c.944 0 2.564.082 3.877.738l-.004.004c1.219.612 2.617 1.642 2.818 1.786.205.143 2.299 1.638 2.299 1.638s.395.28.756.28c.394 0 .758-.38.758-.38l-3.352-2.396c-.148-.102-1.546-1.17-3.176-1.539-1.411-.32-3.546-.299-3.85-.299zm12.045 1.23c-.143.325.418.7.418.7l1.744 1.25c.222.14.42.03.42.03s.447-.227.702-.28c.221-.058.92-.085 1.005-.057.197.029.418.225.418.225.111-.784-.394-.837-.726-.895v-.007a7.93 7.93 0 0 0-.756-.082l-.586.167-.336-.279s.698.057.895.086c.168 0 .109-.086.027-.254-.082-.164-.277-.164-.277-.164h-1.762s-.317 0-.682-.082c-.365-.086-.504-.357-.504-.357z" fill="#002560"/><path d="M2.541 32.494c-.817 0-1.358.275-1.707.604-.755.71-.834 1.63-.834 2.097 0 .579.145 1.507.711 2.069.386.373.893.615 1.69.615.303 0 .492-.014.804-.059v.004c.27-.033.415-.072.686-.146v-2.739H2.244l-.064.417s.126-.045.425-.045h.448v2.05s-.164.063-.57.063c-.575 0-1.585-.164-1.585-2.233 0-1.366.542-2.246 1.823-2.246.623 0 1.002.214 1.031.23l-.137-.476s-.348-.205-1.074-.205zm14.018.045s.23.141.23.42v1.32s-.206-.447-.95-.447c-1.234 0-1.534 1.263-1.534 2.043 0 1.038.39 1.975 1.498 1.975h.017c.427-.009.709-.177 1-.44v.194c0 .14.05.189.202.189l.539.004V32.87c0-.172-.169-.332-.403-.332zm14.736 0s.228.141.228.42v1.32s-.204-.447-.943-.447c-1.231 0-1.53 1.263-1.53 2.043 0 1.038.385 1.975 1.49 1.975h.02c.427-.009.71-.177 1-.44v.194c0 .14.06.189.212.189l.529.004V32.87c0-.172-.173-.332-.403-.332zm-7.773.018s.222.11.222.398v4.574c0 .193.098.264.258.264l.596.004v-4.97c0-.165-.099-.27-.325-.27zm18.576 1.246c-1.385.013-1.645.924-1.645 1.601v.85c0 .509.051.906.334 1.201.226.238.66.39 1.235.39.68 0 1.289-.353 1.289-.353l.078-.474s-.53.413-1.2.421c-.599.009-.96-.176-.96-.853v-.357s.198.037.46.037c.604 0 1.28-.148 1.604-.608.21-.283.223-.55.223-.693 0-.394-.206-1.079-1.125-1.145v-.007c-.103-.008-.201-.011-.293-.01zM5.97 33.82c-.681 0-1.108.287-1.108.287l-.074.477s.411-.353 1.04-.353c.405 0 .63.106.753.25.148.172.148.414.148.558v.402s-.196-.037-.455-.037c-.607 0-1.285.148-1.609.608-.21.283-.22.55-.22.693 0 .394.2 1.12 1.122 1.145.587.012.982-.218 1.211-.559v.227c0 .07.001.155.063.213.065.07.217.062.254.062l.406.004v-2.545c0-.509-.065-.768-.332-1.043-.23-.234-.625-.389-1.2-.389Zm13.69 0c-.682 0-1.108.287-1.108.287l-.078.477s.415-.353 1.043-.353c.402 0 .63.106.75.25.143.172.144.414.144.558v.402s-.192-.037-.455-.037c-.607 0-1.277.148-1.605.608-.214.283-.225.55-.225.693 0 .394.204 1.12 1.123 1.145.587.012.981-.218 1.211-.559v.227c0 .07 0 .155.057.213.065.07.219.062.255.062l.422.004v-2.545c0-.509-.069-.768-.336-1.043-.23-.234-.624-.389-1.199-.389zm30.157 0c-.685 0-1.107.287-1.107.287l-.074.477s.295-.341 1.017-.353c.419-.009.669.098.784.246.16.192.14.418.14.562v.402s-.198-.037-.46-.037c-.604 0-1.28.148-1.604.608-.21.283-.223.55-.223.693 0 .394.202 1.12 1.125 1.145.591.012.981-.218 1.215-.559v.227c0 .07 0 .155.057.213.065.07.214.062.255.062l.407.004v-2.545c0-.509-.062-.768-.332-1.043-.234-.234-.63-.389-1.2-.389zm-15.244.012c-1.272-.004-1.728.964-1.728 2.043 0 1.178.456 1.966 1.728 1.975 1.059.008 1.678-.908 1.678-1.975 0-1.067-.393-2.035-1.678-2.043zm-7.33.025c-.513 0-.89.218-1.103.563v-.305c0-.131-.075-.2-.223-.2l-.72-.005s.212.061.212.336v3.543h.772v-2.767c0-.415.435-.68.838-.68.48 0 .689.193.689.887v2.24c0 .189.114.32.31.32h.465v-2.47c0-.477-.062-.827-.316-1.11-.238-.259-.513-.352-.924-.352zm11.389 0c-.517 0-.896.218-1.106.563v-.305c0-.131-.072-.2-.224-.2l-.715-.005s.213.061.213.336v3.543h.771v-2.767c0-.415.436-.68.834-.68.485 0 .69.193.69.887v2.24c0 .189.115.32.312.32h.467v-2.47c0-.477-.07-.827-.32-1.11-.242-.259-.516-.352-.922-.352zm6.597.008c-.689.008-1.248.374-1.248 1.059 0 1.247 1.754 1.067 1.807 1.822.037.472-.247.76-.8.76-.555 0-1.089-.35-1.089-.35l.112.46c.143.085.48.245 1.088.245h.04c.407-.008.773-.117 1.048-.351l.003.004c.21-.18.348-.456.348-.817 0-.57-.421-.862-.959-1.092-.513-.221-.8-.311-.842-.689-.016-.144.049-.67.705-.67.612 0 .916.297.916.297l-.11-.432s-.26-.246-.974-.246zm-35.503.008c-.517.02-.798.385-.823.459v-.213c0-.107-.06-.201-.228-.201h-.768s.22.07.22.402v3.473h.776v-2.43c0-.369.076-.89.737-1.013l.004.004a.958.958 0 0 1 .648.078l-.104-.489c-.102-.061-.294-.074-.462-.07zm.746.045c-.004-.004.234.07.234.346v2.129c0 .472.062.82.316 1.103.243.263.516.354.922.354.517 0 .897-.218 1.106-.559v.227c0 .049-.001.155.056.212.078.07.233.063.262.063l.403.004v-3.875h-.768v2.766c0 .406-.434.677-.832.677-.484 0-.69-.197-.69-.886V34.14c0-.132-.11-.223-.287-.223zm36.3.004s.243.091.243.346v3.324c0 .127.077.201.22.201l.547.004v-3.645c0-.147-.057-.23-.217-.23zm-4.648.27c.568-.022.67.387.639.794-.041.493-.238.914-1.1.914-.238 0-.435-.044-.435-.044v-.682c0-.497.165-.895.777-.973.042-.005.081-.008.119-.01zm-7.535.046c.767.009.842.904.842 1.655 0 .915-.268 1.576-.842 1.576-.649 0-.92-.51-.92-1.576 0-.858.136-1.663.92-1.655zm-18.61.037c.284 0 .475.09.598.217.177.185.205.505.205.727v1.785c-.205.258-.442.39-.787.39-.628 0-.845-.76-.853-1.523v-.057c0-.537.087-1.539.837-1.539zm14.749 0c.274 0 .476.09.595.217.177.185.205.505.205.727h-.01v1.785c-.2.258-.434.39-.779.39-.632 0-.849-.76-.857-1.523v-.057c0-.537.086-1.539.846-1.539zm-24.43 1.473c.238 0 .435.045.435.045v.9c0 .284-.225.468-.5.57a.91.91 0 0 1-.3.057c-.386 0-.698-.25-.698-.697a1.1 1.1 0 0 1 .034-.287c.106-.353.5-.588 1.029-.588zm13.678 0c.242 0 .435.045.435.045v.9c0 .284-.227.468-.502.57a.861.861 0 0 1-.295.057c-.385 0-.697-.25-.697-.697 0-.074.005-.221.03-.287.106-.353.5-.588 1.029-.588zm30.166 0c.238 0 .44.045.44.045l.003-.004v.904c0 .284-.231.468-.506.57a.9.9 0 0 1-.299.057c-.385 0-.697-.25-.697-.697 0-.074.005-.221.03-.287.106-.353.5-.588 1.029-.588z" fill="#4C4847"/></svg>