<svg role="img" viewBox="0 0 24 24" xmlns="http://www.w3.org/2000/svg"><title>Oman Air</title><path d="M24.0002 1.539c-1.4966 1.49-5.3838 1.5633-7.6192 1.3985-2.321-.1693-6.4252-.9106-7.1582-.9707-.4282-.0255-.9523-.0426-1.4433.1816-.4923.227-.936.7036-1.1582 1.3828a1.8931 1.8931 0 0 0-.0918.582c-.0085.6846.3742 1.3686.8613 1.9786.3694-.4302 1.3996-1.4413 2.9863-1.4766h.002a45.7464 45.7464 0 0 1 .7735-.0078c1.5194 0 2.1633.0988 3.5722.1406.1609.0046.3746.0098.6329.0098 1.167 0 3.2052-.0859 5.0156-.5644 1.8463-.4302 3.164-1.3781 3.627-2.6543zM7.256 1.877c-1.4638-.0187-4.262.4135-5.1328 2.2304a2.6145 2.6145 0 0 0-.2656 1.1563c-.0229 2.338 2.945 5.0823 4.5684 6.8613 1.5554 1.7234 3.4395 3.3487 4.3535 5.1016.2177.4197.4115 1.0052.3906 1.6113-.0503 1.4652-.566 1.9947-.8262 2.17 5.624-2.9984 4.5586-5.8946 4.5586-5.8946-.2334-1.3436-1.5208-2.96-2.9199-4.2598C10.581 9.546 9.1825 8.4531 8.717 8.006c-.7584-.7473-2.5611-2.175-2.5781-3.8926 0-.2308.0354-.4652.1113-.6992.2517-.7892.9748-1.2516 1.543-1.5059-.1452-.0183-.328-.0286-.5372-.0312Zm15.4024 1.7304c-.642.3923-1.4081.6801-2.2012.8906-1.8568.4904-3.9156.5743-5.0976.5743-.2616 0-.4759-.0052-.6407-.0098-1.4259-.0432-2.0633-.1406-3.5644-.1406-.2315 0-.4845.0019-.7656.0078-1.3724.0248-2.3174.877-2.7032 1.3047-.0353.0392-.0636.0728-.0898.1035.4877.5623 1.0369 1.0487 1.3984 1.3926.2727.2628.9983.8179 1.8633 1.539a1.866 1.866 0 0 1 .5156-.8183h.002c.5141-.4782 1.4762-.8643 3.2402-.9434 3.488-.1621 4.0285-.3462 5.2988-1.0039 1.1305-.5838 2.3375-1.7249 2.7442-2.8965Zm-20.9277.7754C1.1619 5.0216-.8036 7.5714.3635 11.168c.4184 1.2893 1.8199 2.9968 3.2988 5.1328 1.424 2.0575 1.749 4.7205 1.6719 6.1601 4.4295-.1974 5.3977-2.0169 5.412-3.5664 0-.5276-.1313-1.02-.3183-1.377-.8604-1.6593-2.6516-3.3253-4.2226-5.0624-1.5829-1.7718-4.6926-4.4492-4.7149-7.0899 0-.3465.0977-.6594.2403-.9824zM21.2756 5.875a5.1729 5.1729 0 0 1-1.2149.9023h-.002v-.002c-1.2951.6774-1.9534.8836-5.4297 1.0392-2.8499.1386-3.34 1.3683-3.4492 1.7226.361.3073.7387.6379 1.1133.9863.6617.6205 1.3323 1.2531 1.8906 1.9063-.0046-1.6999 1.3054-1.914 1.6133-2.0996.4035-.2432 1.2425-.3811 3.043-1.4102 1.9268-1.101 2.3506-2.6108 2.4356-3.0449z"/></svg>