<svg role="img" viewBox="0 0 64 64" xmlns="http://www.w3.org/2000/svg"><title>Oman Air</title><path d="M64 23.999c-1.144 1.14-4.117 1.196-5.827 1.07-1.775-.13-4.914-.696-5.475-.742-.327-.02-.728-.033-1.104.139-.376.173-.715.537-.885 1.057-.048.15-.07.297-.07.445-.006.523.286 1.046.659 1.513.282-.33 1.07-1.102 2.284-1.13a34.987 34.987 0 0 1 .593-.005c1.162 0 1.654.076 2.731.108.123.004.287.007.485.007.892 0 2.451-.066 3.836-.432C62.639 25.7 63.647 24.975 64 24zm-12.805.259c-1.12-.014-3.26.315-3.926 1.705a2 2 0 0 0-.203.885c-.018 1.788 2.252 3.888 3.493 5.248 1.19 1.318 2.63 2.561 3.33 3.902.166.32.314.769.298 1.232-.038 1.12-.432 1.526-.631 1.66 4.3-2.294 3.487-4.51 3.487-4.51-.178-1.027-1.163-2.263-2.233-3.257-1.073-1-2.142-1.835-2.498-2.177-.58-.572-1.959-1.664-1.972-2.977 0-.177.027-.356.085-.535.193-.604.746-.957 1.18-1.152a3.764 3.764 0 0 0-.41-.024zm11.78 1.323c-.492.3-1.077.52-1.684.68-1.42.376-2.994.44-3.898.44-.2 0-.366-.003-.492-.006-1.09-.033-1.576-.109-2.724-.109-.177 0-.371.002-.586.007-1.05.019-1.773.671-2.068.998-.027.03-.048.056-.068.08.373.43.793.8 1.07 1.064.208.2.763.625 1.424 1.177.05-.163.159-.405.396-.626h-.001c.393-.367 1.13-.662 2.48-.722 2.667-.124 3.08-.264 4.051-.767.865-.446 1.788-1.32 2.1-2.216zm-16.006.594c-.435.488-1.938 2.438-1.046 5.189.32.986 1.392 2.292 2.523 3.926 1.089 1.573 1.337 3.61 1.278 4.711 3.388-.151 4.128-1.543 4.14-2.728 0-.404-.101-.78-.244-1.052-.658-1.27-2.027-2.544-3.229-3.873-1.21-1.355-3.59-3.402-3.606-5.422 0-.265.075-.504.184-.751zm14.947 1.14a3.956 3.956 0 0 1-.928.69h-.001c-.99.517-1.494.674-4.153.793-2.18.106-2.554 1.048-2.638 1.319.276.235.564.487.85.754.507.474 1.02.958 1.446 1.458-.003-1.3 1-1.465 1.235-1.607.308-.186.95-.29 2.327-1.077 1.474-.842 1.797-1.997 1.862-2.33zm-52.249.016-1.613 4.684h2.387c.056.405.36.683.823.683.462 0 .964-.278 1.31-.683h5.583l1.611-4.684h-.97l-1.258 3.654h-2.295l.04-.12c.063-.182.247-.33.413-.33h1.154l.356-1.035c-.196 0-.207.116-.412.116h-1.714c-.205 0-.481.183-.558.407l-.327.962H13c0-.482-.316-.826-.83-.826-.515 0-1.08.344-1.423.826H9.38l1.257-3.654zm10.694 0-1.611 4.684h.97l1.612-4.684zm7.058 0-1.613 4.684h.97l1.614-4.684zm7.167 0-1.246 3.655h-.635l.43-1.26h-.973l-.427 1.26h-2.383l.296-.872h-1.114l-.68 1.998h-.92c-.079.3-.048.551.088.756.136.202.404.278.685.278.282 0 .533-.063.788-.266.257-.204.372-.469.475-.768l.032-.097 10.584.003 1.595-4.687h-.971v.001h-.001l-1.245 3.654h-.768l.134-.394c.154-.45-.053-.814-.461-.814h-2.703c-.167 0-.34.06-.5.164l.89-2.61zm7.209 0-1.617 4.688h.972l1.615-4.688zm-26.623.91c-.253 0-.488.225-.524.502a.59.59 0 0 0-.004.116c0 .084-.518.112-.518.112l-.13.41s.643-.068 1.08-.137a.36.36 0 0 0 .056-.007h.002a.584.584 0 0 0 .424-.493c.038-.278-.135-.502-.386-.502zm-.061.337c.086 0 .145.077.13.172h.002c-.011.096-.092.172-.18.172-.087 0-.145-.076-.132-.172.012-.094.094-.172.18-.172zm-7.128.144c-.253 0-.485.224-.523.502-.036.279.137.504.39.504.251 0 .486-.225.521-.504.039-.277-.134-.502-.388-.502zm-2.056.504c-.092.021-.379.39-.786.39H3.425c-.203 0-.48.184-.556.408l-.03.09-.171.5-.245.72-.233.683H.833l.316-.924c-.533.133-.88.684-.978 1.019-.077.301-.05.553.088.757.137.202.6.394.878.394.28 0 .944.001 1.509-.382.27-.183.526-.469.627-.768l.032-.097.35-1.03.116-.34h.692l-.467 1.37 3.25-.031a.38.38 0 0 0 .213-.073.377.377 0 0 0 .146-.187l.556-1.636h-.885l-.327.904-1.635.002zm17.942.215c-.251 0-.487.225-.524.503h-.001c-.037.277.137.502.39.502.254 0 .486-.225.523-.502.037-.278-.136-.503-.388-.503zm.874.672-.648 1.902h-1.356l.314-.924-.002.001h-.001c-.53.133-.877.684-.975 1.019-.079.3-.05.552.087.757.136.202.6.394.879.394s.945.001 1.51-.382c.27-.183.525-.469.626-.768l.033-.097.352-1.03.296-.872zm9.892.568h2.36c.185 0 .277.164.209.368h-2.917c.068-.204.165-.368.348-.368zm-22.798.365c.19 0 .285.161.214.36h-.001c-.072.199-.281.36-.469.36-.188 0-.284-.162-.212-.36.07-.2.28-.36.468-.36zm18.817 1.395c-.225 0-.434.201-.467.448-.033.247.123.449.347.449.223 0 .431-.202.467-.449.031-.247-.123-.448-.347-.448zm1.063 0c-.225 0-.432.201-.465.448-.033.247.12.449.346.449.225 0 .434-.202.466-.449.033-.247-.121-.448-.347-.448zM.691 33.449c-.225 0-.433.201-.466.448-.034.25.122.45.347.45.224 0 .433-.2.467-.45.032-.247-.123-.448-.348-.448zm1.063 0c-.224 0-.432.201-.465.448-.034.25.122.45.346.45.224 0 .43-.2.465-.45.034-.247-.121-.448-.346-.448zM3.53 35.62c-1.5 0-2.644.25-3.056 1.558l-.38 1.2h.001c-.413 1.308.57 1.558 2.072 1.558 1.501 0 2.643-.25 3.056-1.557l.38-1.201c.413-1.308-.574-1.558-2.073-1.558Zm3.25.035-1.344 4.25h1.481l.88-3.26h.044l.39 3.26H9.51l2.434-3.26h.051l-1.177 3.26h1.478l1.342-4.25h-2.403l-1.847 2.668h-.052l-.215-2.668Zm8.958 0-3.005 4.25h1.536l.505-.733h1.988l.056.732h1.509l-.344-4.249zm4.316 0-1.34 4.25H20.191l.942-3.266h.06l.534 3.265h2.521l1.342-4.249h-1.479l-.942 3.264h-.06l-.557-3.264Zm9.997 0-3.006 4.25h1.537l.506-.733h1.988l.057.732h1.508l-.344-4.249zm4.301 0-1.342 4.25h1.479l1.34-4.25zm2.357 0-.001.001-1.342 4.25h1.479l.357-1.13h1.145c.443 0 .553.216.438.533l-.188.596h1.478l.269-.856c.153-.482-.159-.736-.76-.753l.016-.046c1.107-.188 1.24-.6 1.463-1.31.334-1.06-.228-1.268-1.5-1.285h-2.853Zm-20.101.85h.014l.107 1.84h-1.375zm14.313 0h.015l.106 1.84h-1.375zm-27.7.101c.768 0 1.022.063.823.692l-.304.956c-.2.634-.492.696-1.262.696s-1-.062-.823-.696l.304-.956c.221-.629.492-.692 1.261-.692Zm34.655.034h1.145c.487 0 .579.108.46.488-.15.48-.188.662-.823.662h-1.145z"/></svg>