<svg role="img" viewBox="0 0 64 64" xmlns="http://www.w3.org/2000/svg"><title>Oman Air</title><path d="M64 23.999c-1.1446 1.1396-4.118 1.1964-5.8275 1.0704-1.7752-.1295-4.9145-.6962-5.475-.7422-.3275-.0195-.728-.0329-1.1036.1386-.3765.1736-.7158.5372-.8858 1.0568-.048.15-.0693.2978-.0693.4453-.0064.5235.2857 1.0463.6582 1.5128.2826-.329 1.0708-1.102 2.2844-1.129h.001a34.9872 34.9872 0 0 1 .5918-.0059c1.162 0 1.654.0764 2.7316.1084.123.0035.2869.0068.4844.0068.8926 0 2.4516-.0656 3.8362-.4317 1.412-.329 2.4196-1.0543 2.7736-2.0304Zm-1.0265 1.5821c-.491.3-1.0761.5197-1.6827.6808-1.42.375-2.9946.4394-3.8987.4394-.2 0-.3652-.0033-.4912-.0068-1.0906-.033-1.5767-.1084-2.7248-.1084-.177 0-.371.0023-.586.0068-1.0495.019-1.7725.6711-2.0675.9981-.027.03-.0483.0557-.0683.0792.373.43.7928.8015 1.0694 1.0645.2085.201.7633.6253 1.4248 1.1768.05-.1625.1586-.405.3956-.625l-.001-.001c.393-.366 1.1295-.6613 2.4796-.7218 2.6677-.124 3.0805-.2636 4.052-.7666.8646-.4465 1.7878-1.32 2.0988-2.216zm-1.0576 1.7345a3.9562 3.9562 0 0 1-.9288.6895h-.001v-.001c-.9906.518-1.494.675-4.1526.794-2.1797.106-2.5544 1.0475-2.6379 1.3185.276.235.5641.4874.8507.754.506.4745 1.0183.9585 1.4454 1.458-.0035-1.3.9989-1.4645 1.2344-1.6065.3085-.186.9502-.2902 2.3273-1.0772 1.4736-.842 1.7974-1.9972 1.8624-2.3293z" fill="#b39759"/><path d="M51.1945 24.2578c-1.1196-.0142-3.2601.3156-3.926 1.7052a1.9996 1.9996 0 0 0-.2032.8848c-.0176 1.7881 2.2518 3.8878 3.4934 5.2484 1.1896 1.318 2.6303 2.561 3.3293 3.9016.1665.321.3149.769.2989 1.2325-.0385 1.1206-.4329 1.5253-.632 1.6593 4.3013-2.2931 3.4876-4.509 3.4876-4.509-.1785-1.0276-1.1635-2.264-2.2335-3.258-1.0721-1.0001-2.1412-1.835-2.4973-2.177-.58-.5715-1.9588-1.6632-1.9718-2.9767 0-.1765.027-.3562.085-.5352.1925-.6036.7452-.957 1.1797-1.1515-.111-.014-.2502-.0223-.4101-.0244zm-4.2259 1.9171c-.435.4886-1.9385 2.4382-1.046 5.1888.32.9861 1.3916 2.2925 2.5227 3.926 1.089 1.5737 1.3374 3.6102 1.2784 4.7113 3.3877-.151 4.128-1.5426 4.139-2.7277v-.001c0-.4035-.1002-.7788-.2433-1.0518-.658-1.2691-2.0271-2.5438-3.2287-3.8723-1.2106-1.3551-3.5897-3.4026-3.6067-5.4223 0-.265.0756-.504.1846-.751z" fill="#a6a8ab"/><path d="M9.6677 27.3313 8.0543 32.015h2.3879c.056.405.3603.6827.8223.6827s.9646-.2776 1.3096-.6827h5.5834l1.6114-4.6838h-.9698l-1.2588 3.6535h-2.2941l.04-.1191c.062-.1826.2467-.3301.4122-.3301h1.1543l.3555-1.0353c-.195 0-.2066.1153-.4111.1153h-1.714c-.205 0-.4816.1837-.5586.4072l-.3272.962h-1.1964c0-.482-.3165-.8262-.831-.8262-.5146 0-1.0795.3442-1.422.8262H9.3806l1.2569-3.6535Zm10.694 0-1.6114 4.6838h.9698l1.6124-4.6838zm7.0581 0-1.6134 4.6838h.9708l1.6134-4.6838zm7.1665 0-1.2452 3.6545h-.6358l.4297-1.2589h-.9727l-.4268 1.2589h-2.383l.296-.8721H28.535l-.6807 1.9981h-.92c-.0785.3-.048.5514.088.756.136.202.404.2783.6855.2783s.5326-.0627.7881-.2657c.2565-.2045.3722-.469.4747-.7686l.0322-.0967 10.5837.003 1.5948-4.6869h-.9707v.001h-.001l-1.2452 3.6535h-.7677l.1338-.3935c.154-.4495-.0529-.8145-.461-.8145h-2.7032c-.167 0-.3406.06-.4991.164l.8887-2.6105zm7.2094 0-1.6173 4.6878h.9727l1.6144-4.6878zm-26.6228.9102c-.2535 0-.4879.2244-.5244.502a.59.59 0 0 0-.004.1152c0 .084-.5175.1123-.5175.1123l-.13.4092s.6432-.0667 1.0802-.1357a.36.36 0 0 0 .0557-.0078h.002c.2125-.0495.3939-.2517.4239-.4932.0375-.2776-.1353-.502-.3858-.502zm-.0615.337c.0865 0 .1449.0763.1309.1718h.001c-.011.096-.0917.1719-.1787.1719-.0875 0-.1459-.0759-.1329-.172.012-.0944.0937-.1718.1797-.1718zm-7.1274.1435c-.2535 0-.4855.2244-.5235.502-.0355.279.1377.5039.3897.5039.2515 0 .486-.2254.5215-.504.0385-.2765-.1342-.502-.3877-.502Zm-2.0558.504c-.092.0214-.3791.3906-.7862.3906H3.4261c-.203 0-.4802.1837-.5567.4072l-.0302.0908-.171.5-.2441.7198-.2334.6827H.834l.3155-.9239c-.533.1325-.8796.6841-.9776 1.0186-.0775.3016-.0496.5529.0879.757.137.2024.5995.3945.878.3945.279 0 .9438.0006 1.5089-.3819.2695-.183.5254-.469.627-.7686l.0322-.0967.3506-1.0303.1152-.3399h.6915l-.4668 1.3702 3.2502-.0312a.38.38 0 0 0 .2129-.0733.3765.3765 0 0 0 .1465-.1865l.5557-1.6359h-.8849v-.001h-.001l-.3262.9044-1.6348.002zm17.9416.2148c-.2515 0-.4875.2254-.5245.503h-.001c-.0365.277.1372.502.3907.502s.486-.225.5225-.502c.0375-.278-.1362-.503-.3877-.503zm.874.6719-.6484 1.9024h-1.3556l.3135-.9238-.002.001h-.001c-.53.1325-.8766.6836-.9747 1.0186-.0785.301-.0505.5524.087.7569.136.202.6004.3945.879.3945.279 0 .9448.0007 1.5098-.3818.2696-.183.525-.4691.626-.7686l.0333-.0967.3515-1.0304.297-.8721zm9.8923.5684h2.3605c.184 0 .2765.1642.208.3682h-2.9172c.0685-.204.1652-.3682.3487-.3682zm-22.7983.3652c.189 0 .2849.1609.2139.3604h-.001c-.072.198-.2813.3584-.4688.3584-.188 0-.284-.1609-.212-.3584.07-.2.2793-.3604.4678-.3604zm18.8166 1.3947c-.2245 0-.4338.2012-.4668.4482-.033.247.1231.4483.3467.4483.2235 0 .4318-.2013.4678-.4483.031-.247-.1232-.4482-.3477-.4482zm1.0635 0c-.225 0-.4318.2012-.4648.4482-.033.247.1202.4483.3457.4483.225 0 .4343-.2013.4658-.4483.033-.247-.1212-.4482-.3467-.4482zM.6916 33.4488c-.225 0-.4329.2013-.4659.4483-.034.249.1222.4502.3467.4502.224 0 .4328-.2012.4668-.4502.032-.247-.1221-.4483-.3476-.4483zm1.0635 0c-.2245 0-.4328.2013-.4658.4483-.034.249.1221.4502.3467.4502.224 0 .4303-.2012.4648-.4502.0335-.247-.1212-.4483-.3457-.4483z" fill="#b39759"/><path d="m.0941 38.38.38-1.2012c.412-1.308 1.5562-1.558 3.0553-1.558 1.499 0 2.4866.25 2.0736 1.558l-.38 1.2011C4.81 39.688 3.6679 39.937 2.1663 39.937c-1.5006 0-2.4847-.25-2.0717-1.557zm3.6453-.125.3035-.9566c.199-.6286-.0545-.691-.823-.691-.7691 0-1.0401.0624-1.2616.691l-.304.9565c-.1766.634.0534.6966.8235.6966.77 0 1.0626-.0625 1.2626-.6966zm3.1752 1.65H5.436l1.3426-4.2492h2.3426l.214 2.6686h.0525l1.8476-2.6686h2.4022l-1.342 4.2492h-1.4777l1.177-3.2587h-.0514L9.5092 39.905H8.2307L7.84 36.6463h-.0425l-.881 3.2587zm7.859-.732-.5046.732h-1.5366l3.0052-4.2492h2.2452l.3435 4.2492h-1.5086l-.056-.732h-1.9891zm1.848-2.6677h-.014l-1.254 1.8416h1.375l-.106-1.8416zm3.5703 3.3997h-1.4786l1.3411-4.2492h2.4992l.5575 3.2637h.059l.9425-3.2632h1.4786l-1.3415 4.2487h-2.5202l-.536-3.2642h-.0595l-.9416 3.2642h-.001zm8.8956-.732-.505.732h-1.5377l3.0057-4.2492h2.2467l.3435 4.2492H31.133l-.058-.732zm1.8486-2.6677h-.015l-1.2541 1.8416h1.375zm3.5522 3.3997h-1.4786l1.3426-4.2492h1.477zm2.2206-4.2487h2.8532c1.2726.0165 1.8341.225 1.5001 1.285-.2225.709-.355 1.1221-1.4626 1.3096l-.015.0455c.6006.017.9121.2715.7591.7536l-.269.856h-1.4786l.1885-.596c.115-.317.0051-.5326-.4385-.5326h-1.1446l-.3575 1.1286h-1.4786l1.3426-4.2493.0015-.001zm1.9492 2.135c.635 0 .672-.182.822-.663.1195-.38.028-.487-.459-.487h-1.145l-.3636 1.15h1.145z" fill="#a6a8ab"/></svg>