<svg role="img" viewBox="0 0 24 24" xmlns="http://www.w3.org/2000/svg"><title>Air India</title><path d="M8.4821.0015c-2.236.0415-4.381 1.0174-6.391 2.897l.0241-.0072c-.012.0111-.0242.0213-.0362.0326l.0145-.0048c-.5339.4748-1.0803 1.0217-1.639 1.6547 0 0 .002.0015.006.0036-.007.0074-.0128.0143-.0193.0217 0 0 .0133.0376.1399-.064.749-.609 3.198-2.892 9.8596.1026 3.2734 1.4719 6.42 2.7788 6.42 2.7788s1.0282 3.2351 2.2083 6.6358c2.3978 6.89-.0886 9.1359-.761 9.821-.102.1143-.064.1267-.064.1267.9646-.698 1.7385-1.3952 2.3856-2.0805 1.624-1.6368 2.5893-3.4257 2.856-5.3417.2538-1.878-.204-3.5027-.585-4.5686-.266-.7486-.4809-1.3449-.6717-1.8778-.8627-2.4236-1.028-2.8676-1.6246-5.291l-.2026-.7997-.01-.0036.0229-.0217-.7876-.2533c-2.3854-.774-2.8043-.9646-5.1644-2.0178-.5205-.2284-1.104-.4956-1.8272-.8128-.8503-.368-2.144-.8756-3.705-.9263a7.9964 7.9964 0 0 0-.4487-.0036z"/></svg>