<svg role="img" viewBox="0 0 24 24" xmlns="http://www.w3.org/2000/svg"><title>Firefly</title><path d="M13.0436.0033c-.6124-.0261-1.2785.1008-2.0053.4059a.1398.1398 0 0 0-.0316.0126.3433.3433 0 0 0-.0329.0127C1.624 4.2319 19.856 21.877 19.856 21.877l.0165-.0101S20.2697.312 13.0436.0033zm-.359 1.1658c5.8485-.1968 5.9918 17.8365 5.9918 17.8365l-.014.0063S4.3726 4.4482 11.3874 1.48a.1567.1567 0 0 0 .024-.0088l.0253-.0089c.4423-.1859.858-.2802 1.248-.2933Zm.01 1.129c-.2729.0011-.562.0633-.866.1948l.0025.0025-.0165.0089a.145.145 0 0 1-.0177.0063C7.1871 4.5213 17.3004 15.8713 17.45 16.028l.0114-.0051S16.7884 2.2826 12.6946 2.298zm-5.438 13.2456c-1.2066-.0059-2.2081.5333-2.8221 1.8966-.0052.0084-.0062.0162-.0101.024a.2246.2246 0 0 1-.0101.024c-2.7992 6.7766 15.4582 6.5103 15.4582 6.5103l.005-.014s-7.8873-8.4175-12.6209-8.4409zm.0316 1.1064c3.5533.0462 10.072 6.289 10.072 6.289l-.0051.0113S3.3365 22.4236 5.4055 17.793c0-.0058.0031-.0093.005-.0164a.0427.0427 0 0 1 .009-.0164c.3876-.8023 1.0487-1.1208 1.8687-1.1101zm.2048 1.0443c-.4292.0165-.7591.1834-.9381.5526a.0259.0259 0 0 0-.0038.0076l-.005.01c-1.4385 2.7546 8.4889 3.6137 8.4889 3.6137v-.0063s-5.2222-4.2664-7.542-4.1775z"/></svg>