<svg role="img" viewBox="0 0 24 24" xmlns="http://www.w3.org/2000/svg"><title>Philippine Airlines</title><path d="m16.679 4.87-1.114.953-14.52 12.412L0 19.129h21.301l.08-.415L23.73 6.301 24 4.872l-1.116.951-7.619 6.508 1.142-6.03Zm-.777 1.338-1.414 7.458c0-.003-.256-1.611-.25-2.034.006-.357.105-3.015.146-4.126zm7.32 0L20.874 18.62H1.383l1.413-1.21c.818.096 3.442.401 3.922.473.688.171 1.985.726 1.985.726l5.784-4.935.001-.008zm-9.2 1.607c-.026 1.045-.085 3.49-.106 3.8-.015.204-.38 1.996-.38 1.996s-.684-1.496-.764-1.929c-.062-.34-.243-1.757-.338-2.51zm-1.903 1.627c.116.752.316 2.054.341 2.29.035.31-.068 2.063-.068 2.063s-.968-1.489-1.075-1.753c-.091-.224-.35-1.019-.5-1.486zm-1.551 1.327c.14.427.39 1.186.452 1.388.065.214.373 2.032.373 2.032s-1.183-1.15-1.427-1.487a30.482 30.482 0 0 1-.602-.905zm-1.453 1.24c.177.259.467.686.575.875.121.21.783 1.924.783 1.924s-1.601-1.074-1.707-1.16c-.127-.1-.491-.48-.72-.723Zm-1.324 1.134c.238.245.625.645.73.758.134.143 1.205 1.69 1.205 1.69s-1.696-.634-1.916-.778l-1.115-.734zm-1.357 1.16c.338.22.999.653 1.2.792.276.186 1.524 1.43 1.524 1.43l-2.043-.339c-.322-.103-1.536-.521-2.062-.703Zm-1.678 1.434c.552.188 1.884.645 2.245.778.231.086 1.816 1.026 1.816 1.026s-1.761.033-2.056.026c-.257-.006-2.919-.383-3.588-.477z"/></svg>