<svg role="img" viewBox="0 0 24 24" xmlns="http://www.w3.org/2000/svg"><title>Qantas</title><path d="m0 3.46.214.555.198.517c1.968 4.374 5.516 2.364 10.221 6.656h.043c.683.598 1.11.044.897-.298-.214-.342-.17-.513-.17-.556a6.364 6.364 0 0 1 2.604 1.367l-.042.128c-.385.769-3.972.427-4.015 1.964 0 .427.214.812.598.94l.726.299c2.349.94 4.399 2.349 6.107 4.142.042.043.042.085 0 .128 0 .043 0 .043-.044.043h-.042a17.69 17.69 0 0 0-8.199-3.63c-.213-.043-.341-.214-.384-.427-.555-5.082-5.594-5.423-7.516-8.71L6.492 20.54H24L9.993 6.449c-1.879-1.88-4.441-2.99-7.089-2.99Z"/></svg>