<svg role="img" viewBox="0 0 24 24" xmlns="http://www.w3.org/2000/svg"><title>Scoot</title><path d="M10.592 22.592c5.833 0 10.592-4.726 10.592-10.592 0-5.832-4.726-10.592-10.592-10.592C4.76 1.408 0 6.134 0 12a10.572 10.572 0 0 0 10.592 10.592" fill="#FFE900"/><path d="m22.324 8.346-1.173.805.2.838-.987.263c-.393-.342-.923-.565-1.593-.565-1.609 0-2.38 1.274-2.38 2.347 0 1.072.771 2.346 2.38 2.346s2.38-1.274 2.38-2.346c0-.23-.032-.458-.096-.679l.598-.16.805 3.286L24 14.11l-.034-.904-.436.1-.603-2.413L24 10.626l-.268-1.207-1.073.268zM5.162 9.687c-.905 0-1.709.57-1.709 1.509 0 .603.47.972 1.039 1.14.838.335 1.173.368 1.173.67 0 .2-.235.335-.47.335-.066 0-.435 0-.502-.403H3.386c.134 1.173 1.14 1.475 1.81 1.475.972 0 1.81-.57 1.81-1.542 0-.938-.804-1.173-1.542-1.374-.335-.1-.67-.235-.67-.436 0-.134.1-.301.368-.301.369-.034.402.2.402.301h1.308c-.1-1.173-1.106-1.374-1.71-1.374Zm4.123 0c-1.307 0-2.313 1.04-2.313 2.347A2.332 2.332 0 0 0 9.32 14.38a2.325 2.325 0 0 0 2.312-1.81h-1.34c-.135.268-.402.603-.939.603-.637 0-1.039-.47-1.039-1.106 0-.302.1-.604.301-.805.201-.2.47-.334.772-.3.469-.068.737.267.904.569h1.341c-.235-1.073-1.173-1.844-2.346-1.844Zm4.692 0c-1.608 0-2.38 1.274-2.38 2.347 0 1.072.772 2.346 2.38 2.346 1.61 0 2.38-1.274 2.38-2.346 0-1.073-.77-2.347-2.38-2.347zm0 1.24c.57 0 1.073.47 1.073 1.107 0 .636-.47 1.106-1.073 1.106-.57 0-1.072-.47-1.072-1.106 0-.637.47-1.107 1.072-1.107zm4.76 0c.604 0 1.073.47 1.073 1.107 0 .636-.47 1.106-1.072 1.106-.57 0-1.073-.47-1.073-1.106 0-.637.47-1.107 1.073-1.107z"/></svg>