<svg role="img" viewBox="0 0 24 24" xmlns="http://www.w3.org/2000/svg"><title>Starlux Airlines</title><path d="M12.168 2.453c-.202 0-.404.068-.605.068h-.133c-.673.202-1.21.47-1.748.874-.135.134-.27.201-.405.335L1.143 12h5.58c1.277 0 2.487-.472 3.361-1.346l6.723-6.722c.74-.673 1.546-1.143 2.554-1.479h-7.193zm8 .674s-.133 2.082-.402 3.225c0 0 0 .068-.067.068l-1.144-.807s.672.874.806 1.143c0 0 .001.068-.066.068-.74.202-2.89.403-2.89.403s2.15.201 2.89.47l.066.067c-.067.269-.74 1.076-.74 1.076l1.145-.672s.066 0 .066.066c.202 1.143.404 3.227.404 3.227s.134-2.084.403-3.227c0 0 0-.066.068-.066l1.143.672c0-.067-.673-.874-.807-1.143 0-.067 0-.066.066-.066.74-.202 2.891-.47 2.891-.47s-2.151-.135-2.89-.337l-.067-.068c.067-.27.74-1.143.74-1.143l-1.144.807s-.067-.001-.067-.068c-.201-1.143-.404-3.225-.404-3.225zM12.707 12c-1.277 0-2.488.538-3.43 1.412l-6.656 6.654A5.592 5.592 0 0 1 0 21.546h7.127c.202 0 .402-.067.603-.067h.135c.605-.202 1.21-.47 1.748-.874.135-.134.27-.201.405-.335L18.285 12h-5.578z"/></svg>