<svg role="img" viewBox="0 0 24 24" xmlns="http://www.w3.org/2000/svg"><title>Transavia</title><path d="M23.974 12.002C23.974 5.317 18.684 0 12 0S.024 5.318.024 12.003C.024 18.687 5.316 24 12 24c6.685.002 11.974-5.313 11.974-11.997l.002-.001z" fill="#00D66C"/><path d="M17.29 13.734h-.674c-.673 0-.96.359-1.058 1.056-.17 1.275-1.179 2.14-2.502 2.14-1.537 0-2.522-1.13-2.522-2.767v-3.846c0-.154-.023-.289-.06-.41.144.065.317.1.515.1h3.535c.675 0 1.058-.386 1.058-1.058v-.312c0-.675-.383-1.059-1.058-1.059H12.53V5.411c0-.672-.386-1.057-1.058-1.057h-.483c-.672 0-1.056.386-1.056 1.057v3.537c0 .152.02.288.06.41a1.27 1.27 0 0 0-.517-.098H5.94c-.673 0-1.058.385-1.058 1.057v.314c0 .673.385 1.058 1.058 1.058h1.997v2.473c0 3.102 1.995 5.267 5.121 5.267 2.91 0 4.834-1.853 5.194-4.64.095-.698-.362-1.056-.964-1.056z" fill="#FFFFFF"/></svg>