<svg role="img" viewBox="0 0 24 24" xmlns="http://www.w3.org/2000/svg"><title>Virgin Australia</title><path d="M7.915 20.1617c.3177.6189.7307.8777 1.3167.8777h8.077c.4973 0 .7113-.2917 1.0294-.6973l4.9906-7.1377c.8638-1.1674.8436-1.1041.2264-1.6248l-9.3788-7.9554c-.62-.5215-1.1136-.6636-1.9346-.6636H.5362c-.394 0-.653.4117-.4833.7663l7.8614 16.434Z" fill="#E10A0A"/><path d="M15.5566 8.6268c-.0313-.0428.0086-.1065.0172-.1525.014-.039.0436-.102.0818-.1393 0-.0008.0037-.0037.0037-.0045.0016-.0025 0-.0054.0016-.0062.032-.0226.06-.0592.095-.0818.133-.1121.4622-.1812.491.0452.0148.1681-.1628.3386-.2918.4553-.1253.0872-.3838.0863-.3986-.115m-.4064 3.2475c-.027-.1829.0251-.3735.0329-.5564 0 0-.0037 0-.0016-.0025.014-.0546.011-.1516.0263-.224.0037-.073.007-.1565.0226-.217-.0016-.0015-.0037-.0007-.0053-.0032v-.007c.0086-.0016.0053-.0111 0-.0148.007-.0296.0156-.0768.0148-.0925 0-.0016-.0016 0-.0037-.0016v-.0062s.0037-.0037.0053-.0062c.0008-.0184-.0037-.0768.0115-.106.0078-.0045-.0045-.0123-.0053-.0172.0016-.0016.0037-.0016.0053-.0025.0008-.0124.0045-.0428.0037-.0539-.0045-.028.0226-.0694.0025-.0924.0218-.0045.0016-.0481.0095-.046.018.0053-.0086-.0045.0016-.014.0016-.0033.0123-.0033.0016-.0062-.0037-.0025.0025-.0062.0037-.0078-.0008-.0366.0053-.081.0095-.108a.5465.5465 0 0 1 .0095-.0975c.0062-.0016.0078-.0094.0016-.0123v-.0132c.0062-.0078.0016-.0184.0078-.0263 0-.0033.0086-.0033.0037-.0078 0-.0016-.0037 0-.0037-.0016 0-.0078-.0033-.0234.0037-.0226.0016-.0016-.0016-.0033-.0016-.0037.007-.0287.014-.1089.021-.1594.011-.0025-.0045-.0045 0-.0078 0-.0016.0037-.0016.0037-.0033.0062-.0062-.0053-.0103-.0037-.0131.0062-.0103.0102-.039.0078-.0452.0033-.0116.0102-.0568.0193-.0609-.0016-.0164.0123-.0304.0148-.0476 0-.0025.0016-.0033.0016-.0054.0025-.0024 0-.0024-.0016-.0037.011 0 .0045-.0102.0115-.0164 0 0 .0078-.0033.0062-.0053 0-.0017-.0025-.0017-.0025-.0025.011-.0304.025-.0678.046-.0925 0-.0008.0016 0 .0037-.0024.0078-.0321.0468-.053.0608-.0785.014-.0062.0173-.0181.0304-.0243.0037-.007.032-.028.0366-.034.048-.0436.129-.0716.1767-.0695.018-.007.0497 0 .0629-.0103.041.0095.0706.014.1002.0436.0016.0016-.0025.0024 0 .0037 0 .0016.0037.0016.0037.0037.0033.0045.0016.0304.0053.0263.0037-.0017.0037.0053.0037.007.0016.0053-.0016.0131-.0016.0193-.0016 0-.0053 0-.0037.0024.0115.0025.0078.0148.0016.0202-.0033.0024-.0037.014.0016.0086.0016 0 0 .0025-.0016.0033.0037.0045.0037.0164.0095.007 0-.007.014-.0017.0156 0 .0016.0016-.0016.0033-.0016.0045.0095.0037-.0033.007-.0025.011.0025 0 .0037-.0024.0037-.0015.0016.0008 0 .0024-.0016.0024 0 .0033-.0053.0181 0 .021.0086-.0017.0009.018.0078.011 0-.0016.0016-.007.0037-.007 0 0 .0025.0026.0025.0038.0037.0123.0053.018.0132.028a.038.038 0 0 1-.0078.0209c0 .0078-.0025.0234.0053.0271.0103.0156-.014.0193-.0078.0341-.0045.0095-.0271.0115-.0078.0201-.0045.0095.0095 0 .0037.0103-.0062 0 .0008.0054-.0095.0062 0 .0008-.0037.0008-.0037 0-.0095.0061.0025.0172.0078.0226.0053.014-.0296.0234-.0234.034.0025.0026.0025.0054.0037.0062 0 .0009.0016.0046.0016.0054-.0016.0025-.0016.0033 0 .0053.0016-.0045.0201.0008.0131.0025-.0078-.0033-.0164.0193-.0053.0201v.0033s.0037 0 .0053.0017c0 .0024 0 .0086-.0016.0102-.0053 0-.0037.0033-.0016.007.0062.0333-.0164.0148-.0172.0374 0 0 0 .0008.0016.0017.0008.0102.025.0102-.0016.0184-.0016 0-.0037.0033-.0016.0037a.0429.0429 0 0 1 .0037.0165c.0025.0008.0062 0 .0062.0016 0 .0087-.0157.0148-.021.0255-.0008.0078-.0123.0033-.0115.014 0 .0094.0156.007.025.007.0026.0053.0054 0 .0096 0-.0103.0062-.007.0164-.0148.0217 0 0 .0016.0037.0037.0053 0 0 .0037 0 .0016.0025 0 .0009-.0037.0009-.0053 0v-.0045s-.0053.0045-.0053 0c-.0033 0-.0078.0053-.0111 0-.0037.0016.0016.0025 0 .0045.007.0124.007.0086.0131.0235.0037.0254-.0333.0037-.0115.0312 0 .0016.0078.0053.0062.007-.0025.0053.0008.0037.0053.0062 0 .0016-.0025.0033-.0037.0045.0016.0062-.0103.0078-.0115.0037-.0016-.0008-.0016-.0016-.0016-.0008-.007.011 0 .027-.0053.039 0 .0033.0037.0095-.0025.0111.0095.0234-.011.0871.0095.0974.0025-.0008.0025-.0025.0037-.0033.0016-.0033.0062 0 .0016.0033 0 .0025-.0037.0025-.0037.0045-.0025.0016-.0053.0086-.0053.0094-.0078.0025-.0025.0033.0016.0033 0 .0016-.0037.0025-.0037.0025-.0062.0033.0008.0062.0025.0016.0016 0 .0037.0016.0037.0008.0025 0 .0037.0008.0053.0025 0 .0033-.0037.0025-.0037.0037-.0053.0037.0045.0037-.0025.0078 0 .0025.0037.0016.0025.0037-.0062.0016.0016.007.0037.0111.0037.0033.007.0086.0053.0132-.0016.0008-.0016-.0008-.0037-.0008.0016.0287-.0357.0636-.0037.0854 0 .0016.0016.0016.0037.0016h.0037c0 .0025-.0037.0037-.0037.007.0156.007-.0263.0156-.0131.0263.0279.0078-.0251.0584.0131.0732.0164.0053-.0095.0131-.011.0226 0 .0185-.0054.0443.013.0172.0132.0132-.0077.0181-.0115.028 0 .0086-.0095.032-.0016.0452.0444.048-.0226.0263.0148.0661-.0226.0559.0193.0732-.0078.0678-.0242-.0016-.0062.0181-.0131.028-.0617.0217.0086.0435-.0243.0583-.0045.0271-.0078.081.0263.0871.0016.0009.007.0053.0095.007.0157.0173.0016.0288 0 .046-.011 0-.0115-.0164-.025-.0184-.0156.0123.0086-.0124-.0095-.014-.0124 0-.0086.0226-.0078.0288.0045.0025.0218-.0037.0172.0045-.0008.0025-.0095.0062 0 .007.0062.0045-.0095.0164-.0016.0217.0086.014.0304-.0086.0243.0086.0123.0481-.0193.0033-.0399.0016-.0148.0617-.0156.1829-.0193.2741-.0103.0078.0095.0086-.0016.0193-.0062.0592-.0078.1648.0156.2162-.0008.0123-.028.025-.0131.0398.018.0086-.025.0329.0025.0272-.0625.216-.3473.4396-.5991.39-.0358-.0297-.074-.0617-.0835-.116m4.9915-1.448c-.0185.0016-.007.0147-.0111.0226-.0218.0102-.021.0295.0037.0164-.0025.0156-.0016.0263.0156.0304 0 .0037-.0115.0132-.0156.0123-.0234-.007-.0288.0428-.032.0625-.0038.0156-.0313-.0218-.0264.0234h.0037c0 .007-.0078.0123-.0147.0115-.0009.0185-.0062.0304.0016.0469-.0469-.0173-.0637.115-.1307.1323.0103.0201-.0341.0185-.032.0398-.2873.2211-.674.2515-.9986.4015-.0855.0288-.201.0699-.2655.1134-.094.032-.2021.0847-.2966.1307 0 .0008 0 .0033-.0016.0053-.1114.0436-.2256.1105-.3259.1656v-.0037c-.042.0242-.081.0497-.1237.0637-.0123.0242-.067.0296-.0834.048-.0234.0112-.0505.0186-.0686.0383-.1278.048-.2412.143-.3641.1804-.0296.039-.088.0452-.1229.081-.018.0052-.0419.0024-.048.0217-.07.0341-.141.0715-.2047.1159-.0333.014-.0678.039-.1044.055-.4738.2708-.964.5462-1.4287.8465-.0062-.0037-.0235.014-.0304.0165-.0157.0234-.0498.0357-.0777.0546-.0366.0304-.099.0498-.1307.0872.0263.021-.039.0095-.0489.0254-.0476.0444-.1487.0941-.2087.1369-.0103.0078-.021.0115-.0288.0226-.0357.0115-.094.0686-.1212.0826-.0156.0033-.0263.025-.042.0312.0017-.0008 0-.0025 0-.0033-.007 0-.0102.0095-.0172.0115a.0164.0164 0 0 1-.0016.0037c-.0078.0033-.0148.0037-.0193.0123-.0008.0181-.0333.0115-.0263.0255-.018 0-.035.0181-.0452.0271.0062.0498-.0707.0514-.0896.0843-.0078.0025-.0078-.0016-.0131-.0062-.0037.0053-.0053.011-.0095.0156.0016 0 .0016.0016.0037.0016-.0025.021-.0444.0234-.0304.0444.0148.0172.0025.0476-.0115.0698 0 .0132.0095.0062.0185.0111.0062.0124-.0053.0288-.0185.0226-.0037.0009-.0016.0053-.0016.0086.0185 0 .0062.0925.0016.1081.0131.032.0513-.0033-.0157.0723v.0181c-.0131.021.0313.0008.0251.0156-.0156.0288-.0095.0678-.032.0871.0452.0202.0365.074.011.1184.0148.0172-.0077.018-.0077.0764.0037.0037.0115.0037.0172.0053 0 0 .0016.0016.0037.0025 0 0 .0025-.0016.0025-.0008.0025.0115-.0095.0645-.0193.0263-.0357-.0062-.0045.053.0062.067.0255.0263-.0288.0624-.0115.0924.0226.0053.0131.0156.0095.035.0164.0131 0 .0357-.0095.048-.0045.0053-.0045.0202.0053.0193.011.0157-.0234.028.0016.0452.0016.0025-.0016.0053-.0016.0078-.0086.0235-.021.1385.0037.1472.0033.018-.0115.0279-.0132.0435-.02.0185.0086.0045.0132.0111.0185.0201-.0008.018 0 .0436.041.0115-.018.0115-.0185.0217.011.0033.0053.0165-.0037.0173-.0025.007.0016.021-.0095.018.0123.021.039-.0311.0226.0272.0037 0 .0037-.0016.0053 0 0 .0148.007.028 0 .042 0 .0007-.0025.0024-.0037.0036.0008.0053.0095 0 .0103.0086.0193.0045-.0234-.007-.0062.0428-.0115.0123-.0103.039-.0037.0538 0 .0016.0016 0 .0016.0016.0025.0016 0 .0025-.0016.0045 0 .0016-.0016.0037-.0016.0053-.0263.0185.0037.0016.0016.0226.0053 0 .0037.0045.0037.0086-.0165.0156-.0037.0575-.0053.0834.0033.0103.0045.0333-.0115.0341.0053.0115.0263.0592-.0016.0723.0016.0148.0008.0193-.0115.021-.0033.0123.007.0045.0115.0008a.013.013 0 0 1 0 .0255c-.0053.0185.007.028.021.0366 0 .007 0 .0172-.0038.0242-.0025.0053-.0016.0148-.0037.021-.0053.0148-.007.0242-.0172.0374.0016.0086.0185-.0025.0131.0078-.0062.0037-.0045.0078.0037.0086.0132.0078-.0403.0904-.0016.0452.0296-.0296-.0398.0723.0037.0349.0033.0115-.025.0156-.0078.0234.0304.0103-.0226.0185.0115.0399.0411.007-.032.0123-.0365.0287.0016.0165-.0053.0263-.0132.0382.0103.007.0016.0193.0095.0263.035-.0025-.0095.0148-.0037.0202-.0095.0095 0 .0148.0037.0226.0045-.0251.0312 0 .0078.0078.0242-.0156.0403-.0053.0358.0296 0 .007-.0045.0147-.0095.0037-.0202-.0124-.0539.0045-.0251.0226.0826.0706-.0436.0102.0263.0686.007.0427.0053.06-.0514.0513.0008.0124.074.0009.032.0157-.0094 0-.0102.0147-.0015.0115.0287.0365-.0539.0497-.0148.0895.0296 0-.0193.0646.0357.0255-.0102.0173 0 .032-.0172.039.0234.0194.0016.0375.032.0079-.0148.0263-.0304.0768.0037.0296-.0078.034-.053.0242-.0608.0636-.0193.0111.0201.0202.0033.046.0131.0079.0296.0026.021.0264-.0033.014.032.0095.021.0296-.0506.0016-.0551-.0157-.042.0862.0271.007.0263-.0086.0263-.025.0242-.0037-.0008.039.0095.0522.0045.0053.0201 0 .025.0102-.0365.0251-.0677.0062-.0262.0592.0172.0304-.0497.0625.0016.0756 0 .0078-.0037.014-.0037.021.0078.0037.0131.0045.0193-.0008.0131.0086-.007.02.0053.0217.0103-.0115.0382-.0131.025.0111a.027.027 0 0 1-.0094.0062c-.0313.0243.0025.0202-.0263.067.0102 0 .0756-.0016.0382.0095-.0202.0037-.0181.0312-.0115.0444.0123.0123.0328-.007.0263.0164-.0514.0444.039.0156-.0095.0617.0037.0016.0193 0 .0193.0037-.014.0172 0 .0419-.0078.0575.0062.021-.0218.0148-.0025.0033-.0033-.0427-.0592.0078-.0173.018.014.0186-.0123.0313-.0095.049 0 .0016-.0037.0033-.0037.0045-.0164.0193.0016.0123.0053.0271.0037.0033.0037.0062.0037.0086.0399.0583.021.0193.049.0037.0184.014-.0219.0193.0184.0374 0 .0156-.021.0287-.0016.039-.0008.0148-.0123-.0115-.0115.0025.0016.0045.0053.0053.0037.0111h.0053c.0053.014.0025.0358.0095.049 0 .0032.0103.0024.0053.0077.011.0111.0037.0086-.0016.025.0037.001.0078 0 .0095-.0015-.0045.0185.0078.0095.0156.0131-.0148.0078 0 .0148.0078.0009.0053.0115-.0201.0131.0037.0234-.0053.021-.0559.0497-.025.0653-.0111.0095-.0913.0033-.0551.025.0025.0046.0037.0063.0078.0079.0037-.0218.021-.0193.0366-.0016.0016-.0008.0037-.0016.0053-.0033l.0016.0016c-.0086.028-.0662.0016-.0477.0263.011.0053-.0132.0103.0078.0123-.0288.039.0095.0366-.0037.0617.0025.048.067.0505.0514.0037.0254.0062-.0037.0304.0115.048 0-.0217.0078-.0102.0184-.0008 0 .0095.014.0095.021.021-.018.0296-.032-.025-.0514.014.0235.0015.0194-.007.0452.0217.0185.0103.0522.0193.0157.0382.0312-.0304-.035-.02-.0078-.007-.0062.0165-.0157.0025-.0251.007.0037.0033.0078.0037.0095.0045 0 .014.0271.0255-.0053.0243 0 .0452-.0341.0037-.042-.0037 0 .0053.0054.0103-.0015.0123.014.007-.0016.035.0263.0201.0193-.0172.0078.0235.021.0218-.0112.0095-.0506.0124-.0227.039 0 .0034 0 .0046-.0037.0063.0235-.0009.0193.0193.028.0123.0008.0008.0025.0008.0037.0008 0 .0053-.0037.0078-.0078.0111.0053.0053.0131-.0045.0131-.011.0095.013-.0193.0279.0037.0365-.0086.0062-.0123.0218.0037.018 0-.0024 0-.0044.0025-.007.0078.0096.0193.0087.0304.0103-.0037.0115.0062.0202.0115 0 .0053.0037.0037.014-.0016.0218-.0497.0132-.014.0514-.0476.055.0062.0038.0131.0124.021.014-.04.0243-.0662.0654.0184.0826-.0172.0157-.046.0185-.0591.035-.1176.3727-.7426.3291-.7837-.0699-.0016.0008-.0037 0-.0053 0-.0156-.0842-.0398-.1648-.0382-.2474.0016-.0365.007-.0854-.0053-.113.0078-.141.0218-.2802.0111-.4154.0436-.452.0156-.976.0436-1.386.0053-.0411.007-.0835-.0025-.1184-.0016-.0045 0-.0078.0037-.0103v-.0025s-.0016 0-.0037-.0008c.0045-.1253.0115-.2523.0025-.3743.0131-.056-.0037-.127.0053-.1882 0-.201.0025-.4212-.0037-.6226.0078-.1175.0053-.2498.0078-.3657-.194.088-.3501.2445-.5199.3628-.0476.049-.1508.116-.207.169-.067.0443-.1517.113-.2187.1713 0-.0008-.0016-.0016-.0016-.0016-.0037 0-.0053.0025-.0053.0078-.0115.0037-.025.0103-.032.0201-.4146.3378-.8247.6748-1.2451 1.0224-.0025-.0008-.0025-.0025-.0025-.0033-.1767.1385-.3255.2987-.478.4578-.0895.0591-.1795.1331-.2387.2178-.1356.122-.2523.2691-.3813.4039-.0016-.0016-.0062-.0016-.0062-.0025-.0444.0624-.1229.122-.1689.1812-.0402.0304-.0748.0731-.1122.1003 0 0 0 .0045-.0016.0053-.1742.2108-.3916.4257-.5937.611-.2396.203-.6855-.0477-.6016-.376.0016-.0053.0131-.0164.0037-.0201.3846-.5753.9656-1.0047 1.469-1.4617.0202-.0185.0538-.0489.0793-.0645.1184-.1019.256-.2326.3797-.3114.0469-.074.1525-.1122.194-.189.039-.0112.0933-.056.1159-.0917.0095-.0037.0053.0062.0147.0053-.0053-.0201.046-.0201.0366-.042.2716-.2062.533-.4371.7993-.6442v-.0078c.0476-.0263.1043-.0592.1384-.0974 0 .0025.0016.0045.0016.007.0235-.0157.0498-.049.0818-.0551.025-.046.0933-.0575.1175-.0957.0428-.0218.0756-.0539.1134-.0785v-.0037c.0888-.0654.1874-.127.2622-.1915.0296-.021.0826-.0444.1003-.0732a.8942.8942 0 0 0 .1726-.127c.1697-.1072.3143-.2592.4902-.357-.0025-.0008-.0025 0-.0037-.0016.0037-.0025.0037-.0037.0078-.0045.0723-.0567.1504-.1212.235-.1636v-.0045h-.0025c-.0016-.0025-.0016-.007 0-.0102.0095-.0053-.0016-.0193.0025-.033.0037-.0085.0009-.0303.0037-.0328.014-.0078.0033-.0218.0078-.0444-.0263-.0443.0218-.2116-.025-.2621 0-.0008-.0095 0-.0095-.0008-.0157-.0037-.035.0123-.0358.0254-.0776.0341-.1192.0904-.1874.1167-.0193.0366-.0949.0185-.127.042 0 .0044.0026.0094.0054.0115-.0111.0053-.127.0226-.0551.032-.0156.0115-.0653.0078-.0818-.007-.0053-.0033-.0053-.0078-.0148-.0025.0025.0053-.0053.0111-.0095.0115-.007.0025-.0172-.0016-.021.0045-.0538.0156-.1207.0193-.1672.0288-.0148.0062-.0365-.0062-.0489.0016v.0045s-.0053.0025-.0078.0008v-.0045c-.067.007-.1298-.014-.194-.0288.0038.0037 0 .0037 0 .0086-.027-.0357-.0911-.0419-.129-.081-.0016.0026-.0037.0038-.0037.0054-.048-.0559-.108-.1044-.1306-.175-.0288-.0847-.0477-.196-.0567-.291a.0138.0138 0 0 0 .0053-.0016c-.0132-.1898.014-.392-.0132-.5687.0193-.1401.039-.3004.042-.4335.0085-.0498.02-.1114.0303-.169.0045-.106.0481-.2444.0818-.3578.0329-.0913.0818-.2047.1348-.2934.0016.0008.0037 0 .0062.0008.0033-.0358.0419-.0625.053-.0888.0062-.0115.025-.039.032-.0443.0732-.113.155-.2203.2754-.2918.0078-.018.0349-.0242.0435-.0296.0078.0086.0452-.035.0625-.0477.0053 0 .0131-.0045.0131-.0102.1143-.046.372-.1578.4155.0086.0016-.0009.0037-.0009.0037-.0016.0062.025.0193.0558.0053.081-.0124.0044-.0045.0332-.0148.0402.0333.0304-.0358.0924-.0193.1282-.0111.0164-.0313.0288-.0333.0444-.0025.0053-.0053.0123 0 .0156-.0025.0086-.0115.0062-.0173.0062-.0078.0164-.0131.0497-.0304.0583-.0037.0094-.0131.0033-.0172.0124-.0124.0094-.0185.0185-.0358.0242 0 .0025 0 .0045.0016.0062-.0016.0008-.0037 0-.0037 0-.0016.0016-.0016.0037-.0037.0045-.0201.0078-.0444.0522-.0452.0801-.0016-.0008-.0078 0-.0095-.0008-.0016.0218-.0131.0185-.0263.0312-.0016-.0008 0-.0016-.0016-.0025-.0037.0124-.039.0305-.025.0436-.0017.0078-.0079.0173-.0054.028.0033.0032-.0095.0193-.0131.0242-.0263-.0296-.0095.0444-.0304.0374 0 .007.0016.014-.0016.0201-.0095-.0025-.0132.014-.0132.021-.0575.1508-.2062.4581-.1446.5937.0103.0272.0201.0699-.0053.0896-.0707.3115-.1159 1.117.4138.708.0025.0016.0037.0016.0053.0033.2087-.1767.1898-.4873.224-.7306.0036.0008.0052 0 .0052 0 .0124-.1356.033-.29.0383-.4146 0-.0131.0037-.0333 0-.046.0731-.298.0045-.8543.1479-1.186-.0037-.0032-.0016-.0036-.0016-.007.0016 0 .0037-.0015.0053-.0015a.305.305 0 0 1 .1044-.0917c0-.0037.0037-.0053.0078-.0053.0016.0086.0148-.0033.0226-.0045.168-.115.39-.0242.4614.1245-.0037.0132-.0218-.0016-.0234.0115.0242.0288-.0218.0995.0103.136-.0374.028.0185.0687.0053.0913-.0193.0025-.0243.0086-.0156.028.0095.0036.0193.0607-.0016.059-.0243.0235.007.0757-.0095.1004.0349.0312-.0193.0452-.0016.0694.0201.0497 0 .088.0016.1315-.035-.0193-.0062.0164-.0095.0341-.0037 0-.0078-.0016-.0095-.0037-.0095.0086-.0053.0847.011.0452.021.0115-.013.0218-.0184.0234-.0165.201-.0218.3986-.0436.618-.007.0342-.0131.1221-.0095.1566-.0148.0637-.0263.1862-.0185.2375-.0033.0411-.0419.1418-.0025.155a.0114.0114 0 0 1-.0115.011c-.014.1028-.035.2014-.0016.2856.0025.0802-.0333.0818-.0053.1106-.0053.0016-.0078 0-.0131 0-.0025.0078-.0078.0398.0053.0402 0 .0045-.0185.0226 0 .0185-.0181.0765.014.0399-.0037.1262-.0305.1052.0008.214-.0194.3098.007.0103.0053.028.0078.035.2824-.1673.5807-.3728.884-.547 0-.0008-.0017-.0025-.0038-.0025.1862-.1418.4504-.2457.6189-.3805.35-.1488.7314-.424 1.1041-.6131.0522-.028.113-.0723.1726-.0916 0-.0009-.0016-.0025-.0016-.0037.134-.109.7356-.344.7216-.4607-.2157-.0974-.1775-.4138-.1541-.5921.0173-.1455-.0226-.2778.021-.4146-.0313-.0855-.0111-.0609-.0016-.1262-.0037 0-.0053-.0016-.0095-.0008.0254-.0888.0254-.2499.025-.3246-.0016-.1496.0592-.4085-.154-.4085-.0888-.0185-.1805.0616-.2524.1064-.0419.021-.021.0617-.067.074-.0016.0497-.1064.1315-.129.1175.0584.055-.0522.0723-.053.108.0053.0272-.007.0687-.021.0889.0111.0287-.0172.0016-.0193.0226.0062.0497.0037.1035-.0234.1446.039-.0016.0185.042-.0095.0357.0173-.0172-.0148-.0234-.0172-.0147.0102.0172.0025.0156-.0078.0279-.0235.0333.0747.0094.0226.035-.0116.0225.0164.0402-.0288.0443.0148.0037.0304 0 .0382.0173-.088.007-.0382.0452-.0477.1002.06.0522.0086.0769-.0053.0871.0148.0202-.021.0124-.0287.0202.0062.0086.0148.0102.0148.0226.0164.011-.0173.0045-.025 0-.0017.0053 0 .014 0 .0201.0015 0 .0015.0008.0036.0008-.0037.0115-.011.0251.0037.0272.0045.018.021.0226.0366.0312-.0053.007-.0053.0193.0016.0255-.0226.0094.007.039-.0078.0591.0452.0103-.0016.032-.025.032-.001-.0653-.0165-.0147-.0054.0112 0 .0016-.0304.0172-.011.021-.0124.018-.0087.0279.011.0418-.0037.0094.0078.0103.0053.0185-.0575.0053-.0148.1315-.0304.1837-.0103.021-.0033.0263.0095.0333-.0271.028-.0033.0288.0131.0103 0 .0016.0016.0025.0016.0037 0 0 .0025-.0016.0025-.0025.0037 0 .0062 0 .0095.0008.0086.041-.0513.0271-.0226.0616-.0365.0226.0111.0399.0132.0629-.0366-.0045-.042.021-.0037.0173.0115.0156.028.034-.0016.0583a.0777.0777 0 0 1-.0173.0559c.0132.0242.0403.0966-.0095.0218 0 .0443.0366.074.028.1183-.0341-.0037-.0016.0165-.028.028-.0296.0147.0033.0349-.0263.0332-.032.0769.0111.0342-.0263.074-.0037 0-.0053.0025-.0078.0037.0185.0608-.0254.0514-.0279.0756l.0037-.0008c.007.0078-.0156.0132-.0193.0045l-.0037.0008c-.1142.1315-.4615.2988-.5597.0617 0-.0016.0016-.0053 0-.007-.0435-.148.0053-.3316-.0025-.473.0025-.018.007-.0366.0037-.055-.0016-.0009-.0037-.0026-.0062-.0034.014-.0123.0095-.053.0078-.0715.0025-.0016.0025-.0025.0037-.0037.0111-.1524.0016-.3283.0263-.4709-.0025-.007-.0095-.0131-.0025-.0193-.0086-.0399-.0033-.0933.0037-.129.0062-.6476 0-1.3018.8219-1.172.1278.0296.2428-.0879.3176-.1627-.0016-.0016 0-.0033-.0016-.0053.1907-.2228.5112-.4718.8218-.323.0251.014.0403.0477.0625.0616.0288-.0444.0062.007.0185.0226.0218.0193.0234.0403.0263.0678.0444-.0193-.0304.0202.0608.1097-.0037.0087-.021.0025-.0288.0025-.025.0559.0452.095.0436.102-.011.0192-.0218.0566.0037.0677.0271.0045-.0234.021-.0341.0148-.0193.0243-.0234.0801-.0078.106-.0185.0802-.0016.0374.0341.0185.0016.0234-.0218.0539-.0078.0818.0115 0 .0037.021.0185.0086.0053.0382-.055-.0234-.0263.0333.014.0218-.0111.0148-.0132.0255.0078.007.0321.0061.0078.0148.0062.0263 0 .0637.0263.0871-.0045.0033-.0033.011-.0053.014-.0123 0-.0242 0-.0419-.0017-.0328.081.0732.0522-.0037.0995-.0172.0254.063.0583.0185.0505-.0444-.0103-.0382.2918-.011.3205.0217.0156.0114.0411-.0149.0333-.0078.0103.014.0086.0016.0234-.011.0288.0444.0411-.0016.049.0033.011.0078.0114 0 .0242-.0156.0398.0514.0263.0333.055-.0435.0111.0226.0551 0 .0818-.0164-.0645-.0131.067-.0148.0871-.0427-.018-.007.0173-.021.042.0124.0279.0264-.0469.0305-.0009.0193.0296-.0411.0111-.021.032.0411.0046-.06.0235.025.0506-.0094.0547-.0381-.0477-.025.0933-.0193.021.0185.0078.0304.0173.0025.0045-.0263.032-.0078.0295-.018.0411.0477.0132.0341.0514-.0016.0263-.0522.0226-.021.042-.0015.0024-.0077.0032-.0102.0024.0016.0103.0193.025.0263.0053.0095-.0033.0037.0111.0132.0115.0016.007 0 .014 0 .0193-.0218.0342.0304.0124.0131.039-.0148.028.0242.0063.0358.0202.0062.0123.0123.0436.0419.046v.0062c.0661.0251.154-.0172.2087-.0435.0497-.0124.088-.0436.1348-.06 0 0 0-.0037.0016-.0037.0045-.0033.0234-.0025.0226-.0103.028-.0148.0653-.0287.1044-.0538.0016.0025.0053.0037.0078.0008-.0037-.0078.0156-.0078.0172-.0156a1.6886 1.6886 0 0 0 .1804-.0982c0 .0008.0016.0016.0037.0033.0481-.0271.102-.0592.1636-.0793.1253-.0617.2691-.0263.3998-.0115-.0053-.0045-.0115-.0053-.0095-.014.0078.0008.0115.0103.0173 0 .014.0078.0102.0341.0357.0296 0-.0062-.0078-.0053-.0078-.0111.0584.0226.0756.0933.1175.1377-.0037.0295.0341.0452.0115.0645.0181.0164.0255.0123.0185.034m-8.6443.9156c.0053.0008.0095-.0025.0095-.0078a.7125.7125 0 0 1 .1368-.0181c.0855-.0165.155-.0645.2412-.0785.0033-.0164-.0131-.0008-.0185-.0033-.0016-.0173.0116-.0123.0251-.0132v-.0045c.0053 0 .0095 0 .0111-.0045.0296.0132.0296-.0123.0477-.0184.0218-.0235.055-.0078.0756-.0255-.0037-.0037-.0095-.0033-.0095-.0086a.017.017 0 0 0 .0172-.0124h.0016c0 .0165.0181.0165.0194.0016-.0148-.02.0382.0033.0419-.0193.0785-.0287.2021-.032.2387.0584.0271.0312.039.0723.0497.0994a.0177.0177 0 0 0 .0078.0078c0 .0062.0124.0173.0132.028.0016-.0009.0037 0 .0037 0-.0033.011-.0062.0254.0037.034-.0016.0256-.0263.0843-.0053.095-.0016.055-.0477.0785-.0625.129-.0226.0111-.039.0477-.0645.0608-.0629.0399-.1134.0974-.1783.134-.0062.0173-.0288.0226-.042.035 0 0 .0017.0015.0017.0024-.0111.0025-.0132.0148-.021.0165-.021.011-.0374.034-.0608.0505 0 .0008.0025.0025.0016.0037-.0103 0-.0156.0053-.021.0111-.0366.0617-.1052.1208-.1331.1899-.0218.0172-.0497.0694-.0263.0965-.0132.0132-.056.0366-.0173.0514-.035.0053-.0037.0489-.0497.1356.0062.0694.0255.0559-.028.0888.0096.0025.021.0172.0054.0226-.0025.0123-.0218.0332-.0053.0435-.0016.0132-.0037.0333-.0078.046 0-.0008-.0016-.0016-.0037-.0025-.0037.0037-.0016.0103.0037.0086a.0153.0153 0 0 1-.0037.0094c.0025.0025.0037.0037.0078.0037-.0194.0756.0045.169-.0185.229 0 .0077-.0025.0184.0053.0225-.0156.0645-.0078.1418-.0115.208-.007.0419-.0086.143-.0078.203.021 0-.0016.011-.0037.0172.0033.0255.0234.0662-.0016.0846-.0115.0913-.0045.189-.0304.2787-.0662.1758-.1993.2847-.3604.3484a.041.041 0 0 1-.0173.0033c-.046.0296-.1261.0329-.1742.0288-.0156-.0053-.0296-.0132-.0436-.0193v-.0115s-.0053-.0016-.0078 0c-.0053 0-.011-.0078-.0172-.0103-.1455-.1853-.0522-.4668-.0592-.6784h.0025c-.0053-.0777-.0263-.15.0111-.2256.0008-.0374-.0341-.0769-.0037-.1098.0025-.02-.007-.053.0016-.0793-.0115-.0016.0062-.0172-.0016-.0217.0053-.0045.0037-.014.0016-.0202-.0115-.0016-.0148-.039.0016-.0402.0078-.0333.0333-.0646.025-.0958.0017-.0164-.0044-.0489.0079-.06.0062-.1845.041-.404.0263-.5823.0226-.1121.0037-.2395.055-.3439.0226-.201.2227-.3316.4085-.3797-.0016 0-.0016.0016-.0016.0016.0053-.0025.0172-.0045.0095.0045m-1.0002.8383c-.0715.0156-.0637.099-.0148.1619.0132.014-.0333.0653.0016.0925-.088.2839-.0855.7035-.1463 1.021H10.33c-.0053.1283-.0419.2614-.0435.3946.0025 0 .0025.0008.0037.0008-.0103.0505 0 .0974-.0132.1471.0173.0164.0037.0468.0115.0662.0115.0164-.0115.0817-.021.1052.0079.0854-.0287.1713-.0451.2551.0078.0313.0748-.027.0398.0547.0016.0164-.014.011-.021.0148-.013-.0016-.0209-.0078-.025-.0193-.099.113-.3916.3805-.5712.2157-.025-.0403-.0382-.0994-.0435-.1418-.0046-.2325.018-.4824.025-.715-.0037 0-.0053-.0016-.0078-.0025.0304-.0957.0095-.274.0382-.3258.0078-.0193 0-.0452.0054-.0654h.0016c-.0148-.0279.0086-.0826-.0037-.1113.0333-.1143.0078-.2601.032-.3633-.0184-.141.033-.3267.0321-.47.0436-.1168.0801-.2894.1874-.3773.0131-.0242.0403-.0538.0698-.0583-.0037-.0009-.0053-.0037-.0078-.0062.1533-.1299.4405-.2367.4841.0435-.028.0226 0 .0801.0366.0855m.281-1.5837c-.0078.0078-.0102.018-.0078.028.0037.0008.0053.0024.0053.0052-.018.0086-.0016.021.0016.0272h-.0095c-.0062.053-.0468.0768-.0608.127-.0402.0513-.0382.0093-.053.0644-.0053.0333-.053.0251-.0592.056-.0037-.0017-.011.0032-.0053.0077-.02.0062-.0312.021-.0497.0333-.0095.0045-.0102.0201-.0263.018 0 .0026-.0025.0026-.0025.0046-.0242.0148-.0476.021-.0698.046-.0148.0062-.0304.014-.0399.0263 0 .0123-.0357.0025-.0288.018-.0078.0017-.0131.0054-.0184.0079-.0016.007-.0132.0053-.0116.0131-.0037.0025-.0095.0009-.0156-.0008.0025-.0008.0025-.0037.0037-.0045-.0304.014-.0468.0366-.0817.0165v-.0045c-.0124.0062-.0235.0053-.0399.0016-.0037-.0094-.0173.0016-.0226.0033-.0016-.0033-.0062-.0062-.0078-.0078.0016-.0025.0053-.0053.0078-.0078-.032-.0103-.0723-.0115-.0699-.0551-.0147-.0008-.018-.0131-.02-.0242-.0046.0045-.0046.0102-.0104.0037-.0016-.0016 0-.0086-.0016-.0103-.0102-.0411-.021-.0818-.0147-.1122.0312-.267.3377-.5572.6015-.5223.0078.0053.0132.0132.0251.0111 0 .0016.0016.0037.0016.0062.0288.0033.0358.0748.049.1044.0242.0053.0052.0452.0287.0489-.0045.0242.0148.046.0016.0686m-1.716 2.1446c.0723-.0863-.014-.201.0357-.302 0-.0148-.0016-.0411.021-.0333.021-.0053.0452-.0653.0131-.067.049-.0723-.011-.0444.0263-.1072-.014-.0678.0255-.1447.0358-.2195.0304-.1142.0427-.2675.0912-.3735-.0025-.007-.0164-.014.0016-.0201-.0045-.0033-.0086-.0053-.0016-.0086.0025-.0514.0201-.0912.0304-.141 0-.0016.0037 0 .0053-.0025a.4596.4596 0 0 1 .0305-.12c.018-.067.0226-.1602.0698-.207-.0037-.0116-.0025-.0321.0132-.035.0172-.0974.0731-.1672.0924-.2613 0-.0025.0025-.0033.0025-.0037.0016-.0863.0768-.115.099-.1862.0399-.0764.0078-.1454.0329-.2264.0033-.1282.0477-.2334.099-.358.014-.1096.06-.2078.1106-.2966-.0539-.053.0234-.1377.0398-.1952-.0185-.0366.0288-.0756.0156-.1002.0181-.0724.033-.1648.0777-.2499 0-.0263.0333-.0645.0185-.0818.014-.0217.021-.0398.0341-.0624.0086-.0662.0255-.1447.0686-.1907.0086-.0061.0037-.0218.0115-.0271-.0078-.035.0243-.0164.0185-.0801.0148-.0165.0078-.0477.0263-.063.0016-.0015.0016-.0032 0-.0044.0045-.046.0382-.0863.0477-.129.0115-.0333.0624-.0724.0489-.1098.0271-.018.0234-.0575.0452-.0793.007-.0061.0086-.0164.0148-.0218.0095-.0312.0016-.0694.0053-.0932.0234-.0724.0661-.1447.0871-.2125.0115.0025.0037-.014.0115-.018-.0025-.0087 0-.0124.0037-.0181.025-.033.021-.0584.0399-.0863v-.0103c.0402-.0575.0538-.148.099-.208-.0016-.0008-.0016-.0024-.0037-.0036.028-.06.0505-.1208.0842-.1804 0-.0033 0-.0078.0016-.0087.0374-.0616.0522-.1557.1176-.1968.0016-.0094-.0037-.0505.0148-.042 0-.0147.0078-.0241.021-.0311-.0149-.0103.0052-.0218.0155-.028-.0025-.0008-.0025-.0016-.0037-.0033.0678-.0982.143-.2194.2297-.3065.0045-.032.0547-.0547.0637-.081.0025-.0016.0037-.0024.0037-.0033.0078-.0061.0156-.0147.0173-.025.0333.0045.0489-.025.0514-.053.0304-.021.0037.0193.0131.021.025.0053.0341-.035.0263-.0551.0132-.0033.0132-.0095.0148-.0202.0131-.0024-.0053.032.021.0103-.0037-.0173.007-.025.0263-.0312.0025 0 .0078.0033.0102.0037-.0033.0045.0037.007.0078.0037 0-.0009 0-.0037.0016-.0054 0 0 .0037-.0024.0037-.0033.0148-.007.0078-.0287.0185-.0402.0156.014.0033-.0165.0148-.0124.007-.0287-.0078-.087.0382-.0715-.0185-.0217.0111-.0295.0132-.0513.0095-.0017.014-.0165.0193-.0243 0-.0016.0016-.0037.0016-.0053.025-.0193.0271-.0584.0513-.0748.021-.0522.035-.1105.0477-.1664-.0115-.0506.0037-.1471-.025-.2116-.0769-.3978-.6731-.524-.909-.1899a.0417.0417 0 0 0-.0226.0201.0156.0156 0 0 1-.0078.0017c-.0399.06-.1159.122-.1348.2022C9.9553 7.0858 9.593 8.2076 9.2325 9.26c-.2507.9122-.537 1.8746-.7113 2.8226-.1541.715-.2622 1.4522-.3587 2.1758-.0037 0-.0054.0037-.0095.0037-.0037.0078-.0037.0185-.0037.0271-.0103.0243-.0333.0411-.0263.0033-.0131-.0156-.0115-.0172-.032-.0078-.032-.0538.0332-.1775-.049-.1873.0342-.081-.0279-.1854-.0114-.2655.011-.1393.0193-.113-.0341-.2178.0263.0045.0032-.0226 0-.0033-.0321.0095-.0046-.0608.0131-.0661-.0078-.0095-.0201.0078-.0304.0062-.0358.0332-.0086-.1837.0115-.1874.0341-.0522-.0296-.1245-.0304-.1578-.0444-.0958-.0193-.2178-.0723-.3135.0172-.0194-.0173-.056-.0078-.0695.011 0 .0304-.0045.025-.021-.0559-.0764-.0234-.115-.0817-.2794-.0646-.0477.0172-.0863-.0358-.0982-.0477-.018.0078-.1307-.032-.1426-.0235-.1455-.0374-.2396-.0609-.3673-.0094-.0078.0033-.0263-.0053-.0226-.0037-.0094 0-.0078.0078-.0103-.0374-.0333.0234-.0399.0016-.0625 0-.0468-.0226-.0678-.0016-.0916-.0333-.0181-.0477-.028-.021-.0686-.0086-.0132-.0349-.053-.0016-.0551 0-.0226-.0366.0148-.0341-.0148.0358-.014-.0296-.0477.0103-.055-.0584-.1386-.06-.3186-.0913-.4796-.027-.1028-.0312-.2404-.0608-.3493 0-.2803-.2161-.5913-.5198-.4561h.0017c-.1985.0723-.2318.3258-.2943.4807-.122.3526-.2186.7052-.3472 1.0536-.0312.1578-.1192.3571-.1648.491-.011.0149-.0287.0194-.011.0436-.0342.099-.0818.2326-.1307.3415.0037 0 .0053.0016.0094.0008-.0172.0592-.0357.1192-.0629.1714-.1236.2515-.1775.7068.2396.6279.0871.0062.1533-.108.2125-.1184-.0251-.041.0304-.0862.0304-.1245.032-.0468.0357-.1278.08-.1656.0219-.0402.014-.1035.0593-.136.0583-.0086-.0341-.0148.0078-.0452.0078-.0357.0193-.0234.0172-.0357-.0053-.0053.0025-.0086.0037-.0086.0062-.0045-.0094-.0095-.0016-.0181.0045-.0033.0078-.0132.0094-.0148.0037-.0016.0103-.0025.0079-.007-.0124-.0132.0279-.0263.0184-.042-.0123-.0233-.0037-.034.0116-.0505.0193-.0095-.0469.0033-.0037-.0287.0304.0398.0061-.048.0382-.0715-.0193-.0053-.0148-.0452.0053-.042-.0131-.0287.025-.0365.0263-.0566-.0242-.021.0095-.0436.0078-.0687.0054 0 .0037-.0045.0054-.0078.0094-.007.025-.0078.0226-.021-.0025-.0044-.0202 0-.0132-.007.007-.0052 0-.0164.0095-.0155.0148-.0016-.0054-.0235.0226-.0218.0234-.014-.0025-.0218-.0017-.0374.0165-.014.0115.0329.0185-.0505-.0045.0184-.0094-.0033-.0115-.014-.0094-.0202.0086-.014.0156-.0053.0095-.0062.0263-.0243.0358-.0037.0226-.0025-.0087-.0115-.0062-.0148.0078-.0053-.0008-.0053-.0078-.007-.0016.0025 0 .0053-.0016.007-.0062-.007.0037-.0148.0016-.0234 0-.0033.0016-.0033.0037-.0045-.0037-.0037-.0016-.0111-.0016-.0156.0102-.0025.0295.0254.0304.0025.0131-.0037.0045-.0132.0078-.0194.0016-.0008.0103 0 .0094-.0053.0037-.0037.0054-.0078 0-.0115.0037-.0033.0054-.0102 0-.0115-.0016-.0033.0025-.0025.0037-.0037 0-.0016.0017-.0037.0017-.0053.0024-.0025.0061-.007.0102-.0062.0037-.007.0062-.0095.0054-.0164 0-.0016.0016-.0025.0037-.0037-.0033-.0173.0131-.0263.0094-.0452.0046-.0033 0-.007.0017-.0103.0254-.028.0468.0025.0764.0037.014.0165.0193.039.0399.0341-.0046.0103-.0251.0584-.0115.0662.0164.0296.0131-.0185.0365-.0123.0263.0045.0202.0254 0 .0312.0132.0201-.007.0398-.0016.046.0156.0062.0218.0123.011.0255-.011.0025-.018.0062-.011.0172.0164.0062-.0201.0481.0148.0551.0045.0218-.0185.0427.0016.0653.0341.0358.0715.0765.0399.136.0037.0063.0115-.0093.0148-.011.0156.12.0444.2515.0538.3682.028.1019.032.2227.0358.3135.0037.007-.0054.007-.0054.0131.0115.0016.0037.0382.0193.0296.0193.0539.0296.1299.0288.1874.041.1923.0629.4085.0933.5983.0333.231.0694.4344.0949.6427h.0078v.0053c.0008.095.025.2116.0436.304.0102.0453.0024.1053.0226.141.0016.007 0 .0148 0 .0218.0078.0296.018.0707.0172.1035.0193.0333-.0255.088-.0115.1262.0341.0095.053.0514.0436.0793-.0111.0288-.0366.0288-.0382.049.0053 0 .0078-.0038.0094-.0079.0715-.0131.046.1105.0686.1574.0017.014.0046.0296.0017.0436-.0132.0172.0349.0904.0263.136-.0235.0489.0287.0834.021.1426.0016.0016.0053.0078.0053.007.027.1557.041.2909.0776.4544.0017.014.0062.0584.0115.0748.0025.021-.0024.0329.0103.0514 0 .0008.0016 0 .0037.0016-.0016.041.0164.067.0185.1052.0255.108.0399.231.0855.3361.0156.0103.027.0288.034.0436.0017.0008.0054.0008.0054.0033.0086.018.028.0287.046.034.0037.007.0079.0104.0132.0173.0855.049.1907.0263.277.0025v-.0025c.014-.018.0842-.0468.1105-.0842.0025-.0053.0061-.0173.0115-.021.0016-.0016.0037-.0045.0037-.0062.0086-.0062.0094-.018.0156-.025.0452-.0834.0477-.1874.0818-.2684.0086-.1619.0513-.3838.0793-.5539-.0025-.0628.0172-.1376.025-.2013.007-.0436.0079-.1028.0185-.1426a.2295.2295 0 0 0 .0037-.0469 2.954 2.954 0 0 1 .028-.221v.0016c.0008-.049.021-.1192.0172-.1644.0124-.032.0062-.0686.0132-.1027.0016-.0016.0037-.0009.0053-.0016.0062-.1332.033-.3041.0539-.431.0016-.0687.0123-.1525.041-.215.0149-.0218.0218-.0616.0149-.0925-.0116-.0016.0061-.0078.0037-.014 0-.0024.0016-.0032.0016-.0052-.0037-.0016.0078-.0115.0115-.0078-.0111.0131.0201 0 .0173.007.0024.0025.0094-.0037.0115-.0053 0-.0016.0016-.0045.0016-.007.0333-.053-.0263-.0514-.0341-.0917 0-.0916.0366-.2021.0288-.2925 0-.028.0185-.033.0185-.0522.0024 0 .0024-.0009.0024-.0009.0037-.0086.0087-.0193.0132-.0304 0-.0008.0037 0 .0037 0 .0016-.0016.0016-.0033.0016-.0037.0382-.0148.0333-.0624.0366-.0982 0-.0016.0037 0 .0037-.0008.0025-.0016 0-.0025.0025-.0045.027-.0115.0123-.0678.0263-.0957-.0037-.0173-.0185-.0304-.0037-.0481 0-.0123-.0062-.0201-.0079-.0333-.0628.0263-.0312-.102-.0263-.1418.0025-.0025 0-.0062.0025-.0095.0008-.0053.0025-.014.0017-.02.0053-.0132.0234-.0313.0131-.047.0173-.0357.0218-.1898.0489-.1758.007-.0062-.0296-.0148-.007-.0263.007-.025-.0242-.0645.0111-.0801.0025-.0053.007-.0103.0132-.0095.0304-.0288-.007-.0732.0078-.1003.0156-.035.0008-.0522.0094-.0793-.011-.0645.0481-.129.0477-.1993-.0193-.0094-.0062-.042-.0054-.0625.0025-.0016.0037-.0025.0037-.0037.0017-.0008.0017-.0033.0017-.0037.0045-.0016.0094-.0037.0016-.007 0-.0053.0054-.0016.0095-.0016.0053-.0025.0033-.0053.0037-.007 0-.0045.0037-.0033.0061-.0062" fill="#FFFFFF"/></svg>