<svg role="img" viewBox="0 0 64 64" xmlns="http://www.w3.org/2000/svg"><title>Air India</title><path d="M54.717 24.613c-1.377.025-2.696.626-3.934 1.783l.016-.006-.024.022.008-.002c-.328.292-.664.628-1.008 1.017l.002.002h.002l-.011.014s.008.023.085-.04c.462-.374 1.97-1.78 6.07.063 2.016.907 3.954 1.711 3.954 1.711s.633 1.992 1.36 4.086c1.476 4.242-.055 5.625-.47 6.047-.062.07-.039.078-.039.078.594-.43 1.07-.86 1.47-1.281 1-1.008 1.593-2.11 1.757-3.29.156-1.155-.125-2.155-.36-2.812-.163-.46-.296-.828-.413-1.156-.532-1.492-.633-1.765-1-3.258l-.125-.492-.006-.002.013-.013-.484-.157c-1.469-.476-1.727-.593-3.18-1.242-.32-.14-.68-.305-1.125-.5-.523-.226-1.32-.539-2.28-.57a5.032 5.032 0 0 0-.278-.002zm-51.71 6.455C1.758 32.482 0 34.865 0 36.998h1.89c0-.32.04-.649.118-.97h4.304c.079.329.118.65.118.97h1.89c0-2.133-1.756-4.516-3.006-5.93zm6.407 0v5.93h1.9v-5.93zm3.43 0v5.93h1.898v-1.243h1.977a7 7 0 0 0 .836-.046c.351.343.656.898.78 1.28h1.97c-.211-.632-.625-1.382-1.094-1.812.601-.343.984-.992.984-1.78 0-1.75-1.256-2.329-3.482-2.329zm11.867 0v5.93h1.9v-5.93zm3.422 0v5.93h1.822V32.99c1.734.562 3.336 2.328 4.125 4.008h1.67v-5.93h-1.818v2.695c-1.132-1.261-2.496-2.173-4.188-2.695zm9.158 0v5.93h3.748c2.203 0 3.83-.992 3.83-2.97 0-1.976-1.627-2.96-3.83-2.96zm8.695 0v5.93h1.899v-5.93zm5.998 0c-1.25 1.414-3.006 3.797-3.006 5.93h1.891c0-.32.039-.649.117-.97h4.305c.078.329.115.65.115.97H57.3c0-2.141-1.758-4.516-3.008-5.93zM4.156 32.154c.586.68 1.258 1.617 1.719 2.625H2.437c.461-1.008 1.133-1.945 1.72-2.625zm48.979 0c.586.68 1.256 1.617 1.716 2.625h-3.437c.46-1.008 1.135-1.945 1.72-2.625zm-38.393.281h2.063c1 0 1.572.18 1.572.961-.008.79-.572.992-1.572.992h-2.063zm24.445.047h1.627c1.414 0 2.164.5 2.164 1.547s-.75 1.555-2.164 1.555h-1.627z"/></svg>