<svg role="img" viewBox="0 0 64 64" xmlns="http://www.w3.org/2000/svg"><title>Air India</title><path d="M3.009 31.068C1.759 32.482 0 34.865 0 36.998h1.891c0-.32.04-.649.117-.97h4.305c.078.329.117.65.117.97h1.89c0-2.133-1.756-4.516-3.007-5.93zm6.406 0v5.93h1.899v-5.93zm3.43 0v5.93h1.898v-1.242h1.976c.297 0 .579-.016.837-.047.351.343.656.898.78 1.28h1.97c-.212-.632-.626-1.381-1.094-1.811.601-.344.984-.993.984-1.782 0-1.75-1.257-2.328-3.484-2.328zm11.867 0v5.93h1.899v-5.93zm3.422 0v5.93h1.82V32.99c1.735.563 3.336 2.328 4.125 4.008h1.672v-5.93h-1.82v2.695c-1.132-1.261-2.496-2.172-4.187-2.695zm9.156 0v5.93h3.75c2.203 0 3.828-.992 3.828-2.969 0-1.977-1.625-2.96-3.828-2.96zm8.696 0v5.93h1.898v-5.93zm6 0c-1.25 1.414-3.008 3.797-3.008 5.93h1.89c0-.32.04-.649.118-.97h4.304c.079.329.117.65.117.97h1.891c0-2.14-1.758-4.516-3.008-5.93zm-47.83 1.086c.587.68 1.259 1.617 1.72 2.625H2.438c.461-1.008 1.133-1.945 1.719-2.625Zm48.978 0c.586.68 1.257 1.617 1.718 2.625h-3.437c.46-1.008 1.133-1.945 1.719-2.625zm-38.391.281h2.063c1 0 1.57.18 1.57.961-.008.79-.57.992-1.57.992h-2.063zm24.445.047h1.626c1.414 0 2.164.5 2.164 1.547s-.75 1.555-2.164 1.555h-1.626z" fill="#DA0E29"/><path d="M63.955 34.818c.156-1.156-.126-2.156-.36-2.812l-.414-1.157c-.531-1.492-.633-1.765-1-3.257l-.125-.493-.485-.156c-1.468-.476-1.726-.594-3.18-1.242-.32-.14-.679-.305-1.124-.5-.524-.227-1.32-.54-2.281-.57-1.477-.055-2.891.546-4.211 1.78l.023-.007c-.336.297-.68.64-1.031 1.04 0 0 .008.023.086-.04.46-.375 1.969-1.781 6.07.063 2.016.906 3.953 1.71 3.953 1.71s.633 1.993 1.36 4.086c1.476 4.243-.055 5.626-.47 6.047-.062.07-.038.079-.038.079.594-.43 1.07-.86 1.468-1.282 1-1.008 1.594-2.11 1.759-3.289z" fill="url(#a)" style="fill:url(#a)"/><path d="m62.064 27.084-.485-.157c-1.468-.476-1.726-.593-3.18-1.242-.32-.14-.679-.304-1.124-.5-.524-.226-1.32-.539-2.282-.57-1.476-.055-2.89.547-4.21 1.781l.023-.008c-.336.297-.68.641-1.031 1.04 0 0 .007.023.086-.04.46-.375 1.968-1.78 6.07.063 2.016.906 3.953 1.71 3.953 1.71z" fill="#FED9A0"/><defs><linearGradient id="a" x1="198.42" y1="71.185" x2="157.529" y2="15.56" gradientUnits="userSpaceOnUse" gradientTransform="matrix(.3802 0 0 .3802 -5.93 18.685)"><stop offset=".18" stop-color="#FED9A0"/><stop offset=".312" stop-color="#ECC890"/><stop offset=".574" stop-color="#BF9A66"/><stop offset=".746" stop-color="#9E7947"/></linearGradient></defs></svg>