<svg role="img" viewBox="0 0 24 24" xmlns="http://www.w3.org/2000/svg"><title>Qatar Airways</title><path d="M22.848 1.62c-.11 0-.29.06-.416.109-.248.099-4.6 1.46-11.42 6.511-5.2 3.85-7.167 7.515-7.223 7.588-.064.082-.158.21-.06.315.119.132.29.296.667.058.367-.234.44-.363.487-.355.046.007.05.132-.031.289-.08.14-.419.47-.616.467-.073-.003-.05.037-.05.037a7.272 7.272 0 0 0 .877.9s.129.185.527.025a2.666 2.666 0 0 0 1.33-1.185 14.118 14.118 0 0 0 1.566-3.78s-.35.295-.642.176a1.532 1.532 0 0 1 .47-.771c.372-.315.53-.307.53-.307l.236-1.107a2.758 2.758 0 0 1 .445 2.219 2.202 2.202 0 0 0 .707-1.286s.566 1.757-.076 3.032a4.12 4.12 0 0 1-2.027 1.8c-.296.117-.198.186-.02.186a4.878 4.878 0 0 0 1.235-.262c.368-.131.58 0 .89.451.311.453 1.646 2.467 2.27 3.233a14.632 14.632 0 0 0 1.557 1.594 9.084 9.084 0 0 0 1.86-1.416c-.95-.084-1.573-.169-1.573-.282 0-.112.864-.219 2.12-.316.156-.18.297-.364.427-.547.123-.171.24-.354.355-.535-2.011-.104-3.61-.237-3.61-.383 0-.155 1.826-.294 4.04-.402a8.527 8.527 0 0 0 .398-.955c-2.568-.11-4.896-.262-4.896-.442s2.49-.34 5.173-.453c.072-.302.134-.612.182-.922-2.722-.11-5.273-.278-5.273-.46 0-.183 2.61-.35 5.367-.46.015-.272.014-.553.004-.838-3.965-.4-5.06-2.159-5.106-2.218a.142.142 0 0 1 .12-.239 3.853 3.853 0 0 0 1.593-.205c.721-.308.83-.691.83-.691a91.59 91.59 0 0 0-3.54-.137s-.136-.01-.136-.074c.005-.17.252-.32.252-.32 2.38-1.6 6.078-3.332 11.098-5.196.194-.074.26-.12.254-.207a.39.39 0 0 0-.06-.185c-.04-.05-.161-.05-.387.014-4.67 1.337-8.898 2.971-12.496 5.373-.106.059-.225-.089-.06-.19a34.922 34.922 0 0 1 4.245-2.56 59.27 59.27 0 0 1 7.412-4.198c.317-.136.357-.18.367-.261a.241.241 0 0 0-.093-.211c-.016-.016-.044-.022-.08-.022zM6.46 4.751c-.302 0-.55.12-.55.262 0 .142.248.257.55.257 1.555 0 6.285-.117 6.285-.257s-4.734-.262-6.285-.262zM4.285 6.068c-.527 0-.957.165-.957.368 0 .2.43.367.957.367 1.64 0 5.274-.06 7.928-.15.201-.138.395-.28.588-.413a281.167 281.167 0 0 0-8.516-.172zM2.912 7.752c-.672 0-1.219.21-1.219.465 0 .254.547.465 1.22.465V8.68c1.435 0 4.075-.035 6.679-.094.302-.237.605-.474.926-.715-2.89-.076-6.002-.119-7.606-.119zm12.986.328c-.212.107-.41.215-.61.32a6.31 6.31 0 0 0 1.675-.18 3.414 3.414 0 0 0-1.065-.14zM2.092 9.475c-.766 0-1.38.237-1.38.527 0 .29.615.523 1.38.523v-.002c1.211 0 3.196-.024 5.355-.06a29.72 29.72 0 0 1 1-.904c-2.54-.053-4.958-.084-6.355-.084zm14.586.355-.033.121a.97.97 0 0 1-.094.217 4.643 4.643 0 0 0 1.39-.172 4.015 4.015 0 0 0-1.263-.166zm-15.04 1.395c-.805 0-1.46.25-1.46.558 0 .309.655.56 1.46.56.973 0 2.405-.014 4.036-.04.288-.328.604-.668.945-1.026-2.01-.032-3.82-.052-4.98-.052zm13.475.283a6.83 6.83 0 0 0 1.084.51 9.412 9.412 0 0 0 2.285-.233c0-.099-1.38-.197-3.369-.277zm-13.625 1.49c-.821 0-1.488.256-1.488.568 0 .313.667.569 1.488.569.703 0 1.644-.007 2.723-.022.237-.33.519-.69.84-1.084a244.426 244.426 0 0 0-3.563-.031zm.145 1.79c-.806 0-1.463.251-1.463.558 0 .306.657.56 1.463.56.418 0 .914-.001 1.48-.008a1.033 1.033 0 0 1 .194-.425 19.649 19.649 0 0 1 .42-.67c-.817-.008-1.53-.016-2.094-.016zm.459 1.823c-.766 0-1.38.233-1.38.526 0 .292.615.523 1.38.523.584 0 1.344-.006 2.222-.015-.2-.191-.863-.954-.945-1.03-.487-.003-.92-.004-1.277-.004zm7.465.225-.016.004v-.002a5.341 5.341 0 0 1-1.432.297 2.871 2.871 0 0 0-1.459.482c1.102-.022 2.266-.044 3.418-.07a61.315 61.315 0 0 1-.326-.475 1.562 1.562 0 0 0-.185-.236zm-6.645 1.62c-.672 0-1.219.205-1.219.464s.547.463 1.22.463c1.736 0 5.24-.05 8.323-.137-.16-.217-.314-.445-.47-.67v-.002c-2.958-.078-6.205-.119-7.854-.119zm1.371 1.88c-.527 0-.957.162-.957.363 0 .201.43.365.957.365 1.708 0 5.584-.058 8.258-.16-.125-.134-.25-.277-.379-.42a284.087 284.087 0 0 0-7.879-.148zm2.178 1.523c-.302 0-.55.118-.55.26 0 .143.248.262.55.262 1.55 0 6.285-.119 6.285-.262 0-.143-4.73-.26-6.285-.26z"/></svg>