<svg role="img" viewBox="0 0 64 64" xmlns="http://www.w3.org/2000/svg"><title>Qatar Airways</title><path d="M63.066 22.969c-.089 0-.237.05-.339.089-.2.08-3.73 1.184-9.26 5.279-4.215 3.12-5.81 6.094-5.854 6.153-.052.067-.127.17-.048.255.097.107.235.24.54.048.298-.19.356-.295.394-.29.038.008.04.108-.024.235-.064.113-.34.38-.5.379-.06-.002-.042.03-.042.03a5.897 5.897 0 0 0 .713.73s.104.15.427.02a2.162 2.162 0 0 0 1.08-.961 11.447 11.447 0 0 0 1.267-3.064s-.284.239-.52.143a1.242 1.242 0 0 1 .382-.626c.301-.255.427-.25.427-.25l.193-.896a2.236 2.236 0 0 1 .361 1.799 1.785 1.785 0 0 0 .574-1.043s.457 1.425-.063 2.458a3.341 3.341 0 0 1-1.643 1.46c-.24.094-.16.15-.016.15a3.955 3.955 0 0 0 1-.212c.3-.107.47-.001.722.365.252.367 1.334 2.002 1.84 2.623a11.864 11.864 0 0 0 1.263 1.292 7.366 7.366 0 0 0 1.51-1.15c-.772-.067-1.276-.135-1.276-.226 0-.092.701-.18 1.72-.258.125-.145.238-.295.344-.443.1-.14.195-.286.288-.433-1.63-.084-2.927-.193-2.927-.31 0-.126 1.48-.24 3.275-.327a6.914 6.914 0 0 0 .323-.774c-2.082-.09-3.97-.212-3.97-.358s2.02-.276 4.196-.368a9.76 9.76 0 0 0 .147-.747c-2.206-.09-4.276-.225-4.276-.373s2.117-.284 4.352-.373a7.29 7.29 0 0 0 .003-.68c-3.215-.325-4.1-1.75-4.139-1.8a.115.115 0 0 1 .096-.191 3.124 3.124 0 0 0 1.291-.168c.585-.25.674-.56.674-.56a74.237 74.237 0 0 0-2.87-.11s-.11-.01-.11-.06c.003-.14.204-.26.204-.26 1.93-1.297 4.93-2.701 9-4.213.156-.06.21-.097.204-.168a.317.317 0 0 0-.048-.15c-.033-.04-.13-.04-.315.011-3.786 1.084-7.214 2.41-10.132 4.356-.086.048-.182-.071-.048-.153a28.315 28.315 0 0 1 3.441-2.076 48.058 48.058 0 0 1 6.01-3.404c.257-.11.29-.147.3-.213a.195.195 0 0 0-.076-.17c-.013-.013-.036-.018-.065-.017zm-13.287 2.54c-.245 0-.446.096-.446.211 0 .115.2.21.446.21 1.26 0 5.095-.096 5.095-.21 0-.113-3.839-.211-5.095-.211zm-34.93.957c-.318 1.089-1.09 2.81-2.428 5.808l-1.54 3.422a3.815 3.815 0 0 1 .6-.08 4.44 4.44 0 0 1 .638.079 28.446 28.446 0 0 1 1.06-2.878 31.3 31.3 0 0 1 1.587-.052c.57 0 1.128.024 1.697.052l.558 1.406.559 1.473c.236-.014.61-.08.978-.08s.84.066 1.036.08a266.107 266.107 0 0 1-1.974-4.445c-.478-1.113-1.274-2.97-1.91-4.785a1.402 1.402 0 0 1-.86 0zm14.763 0c-.314 1.089-1.086 2.81-2.424 5.808l-1.54 3.422a3.84 3.84 0 0 1 .594-.08 4.379 4.379 0 0 1 .638.08 29.765 29.765 0 0 1 1.062-2.878 31.23 31.23 0 0 1 1.592-.053c.57 0 1.128.025 1.698.053l.557 1.405.554 1.473c.24-.014.612-.08.985-.08s.834.066 1.03.08a244.054 244.054 0 0 1-1.972-4.445c-.477-1.113-1.275-2.97-1.908-4.785a1.522 1.522 0 0 1-.425.067 1.576 1.576 0 0 1-.441-.067zm-24.623.027c-2.68 0-4.989 1.485-4.989 4.85a4.52 4.52 0 0 0 1.275 3.2 4.83 4.83 0 0 0 3.673 1.336c.145 0 .292 0 .437-.012l3.04 2.376a9.757 9.757 0 0 1 1.474-.825l-3-1.858c1.843-.65 2.998-2.293 2.998-4.531 0-3.184-2.427-4.536-4.908-4.536zm43.025.084c-.426 0-.774.132-.775.297 0 .163.349.298.775.298 1.33 0 4.276-.048 6.428-.122.163-.111.321-.227.477-.334-2.168-.085-5.475-.14-6.905-.14zm-12.212.02c.093 1.71.093 1.897.093 3.634 0 2.557-.014 2.848-.118 5.462a6.582 6.582 0 0 1 .914-.08 8.195 8.195 0 0 1 .889.08c0-.344-.055-2.055-.055-2.44V31.37h.32a96.623 96.623 0 0 1 2.215 3.224c.198.306.492.798.689 1.103a6.267 6.267 0 0 1 1.074-.08 9.609 9.609 0 0 1 1.18.08 53.846 53.846 0 0 1-2.242-2.983c-.197-.278-.49-.716-.687-.994l-.374-.53v-.004c1.207-.224 2.306-.981 2.306-2.454a2.056 2.056 0 0 0-.608-1.485c-.57-.545-1.22-.65-2.08-.65-.308 0-1.843.066-2.191.066a12.523 12.523 0 0 1-1.325-.067zm-16.756.004a1.985 1.985 0 0 1 .07.489 2.009 2.009 0 0 1-.067.49c.677-.066 1.953-.096 2.073-.096h.66c.016.52.028.983.028 1.473l.013 3.7c0 1.007-.08 2.03-.134 3.037a8.737 8.737 0 0 1 .9-.08c.16 0 .589.039.974.08a13.555 13.555 0 0 1-.096-1.817V28.97l-.002.003c0-.504.014-1.007.028-1.486.915 0 1.853.013 2.637.097a2.443 2.443 0 0 1-.067-.477 3.228 3.228 0 0 1 .067-.505c-1.274.066-2.44.08-3.544.08-1.017 0-2.488-.014-3.54-.08zm-14.083.571c2.173 0 3.116 1.803 3.116 3.725a5.363 5.363 0 0 1-.677 2.97 2.896 2.896 0 0 1-2.424 1.337c-2.452 0-3.158-2.33-3.158-3.791v-.002c0-3.34 1.79-4.239 3.143-4.239zm33.506.081a2.003 2.003 0 0 1 1.23.332 1.533 1.533 0 0 1 .56 1.378 1.714 1.714 0 0 1-1.82 1.829c-.343 0-.662-.027-.915-.038v-3.435c.203-.011.693-.066.945-.066zm8.433.688c-.545 0-.99.17-.99.377 0 .206.445.377.99.377v-.001c1.165 0 3.304-.028 5.415-.076.245-.193.49-.385.75-.58a275.887 275.887 0 0 0-6.165-.097zm10.53.266c-.174.087-.333.174-.497.26a5.116 5.116 0 0 0 1.358-.145 2.768 2.768 0 0 0-.863-.114zm-42.598.527 1.249 3.26c-.414.028-.81.053-1.22.053-.465 0-.915-.037-1.377-.052zm14.763 0 1.249 3.26c-.411.028-.81.053-1.22.053-.465 0-.913-.037-1.38-.052zm16.64.605c-.621 0-1.118.192-1.118.426 0 .235.498.425 1.118.425l-.001-.002c.982 0 2.592-.018 4.343-.048.252-.24.523-.485.81-.734-2.06-.042-4.02-.067-5.152-.067zm11.826.287-.027.1a.787.787 0 0 1-.077.175 3.764 3.764 0 0 0 1.127-.14 3.256 3.256 0 0 0-1.023-.135zM45.87 30.758c-.653 0-1.185.202-1.185.452s.533.455 1.185.455c.789 0 1.95-.011 3.272-.033.234-.266.49-.542.766-.832-1.63-.026-3.097-.042-4.038-.042zm10.924.23a5.539 5.539 0 0 0 .88.413 7.63 7.63 0 0 0 1.853-.19c0-.08-1.12-.16-2.733-.224zm-11.045 1.207c-.666 0-1.208.208-1.208.46 0 .255.542.462 1.208.462.57 0 1.332-.006 2.208-.018.192-.267.419-.56.68-.88a198.176 198.176 0 0 0-2.888-.024zm.117 1.45c-.653 0-1.186.206-1.186.454 0 .248.533.455 1.186.455.339 0 .74-.002 1.2-.007a.837.837 0 0 1 .158-.344l.004-.007c.086-.144.2-.328.336-.538-.662-.006-1.24-.012-1.698-.012zm.37 1.48c-.62 0-1.117.189-1.117.426s.498.425 1.118.425c.473 0 1.09-.004 1.802-.012-.163-.155-.7-.774-.765-.836a168.168 168.168 0 0 0-1.037-.003zm6.052.18-.012.006v-.002a4.33 4.33 0 0 1-1.16.24 2.328 2.328 0 0 0-1.182.39c.892-.016 1.836-.034 2.771-.055a51.52 51.52 0 0 1-.265-.385 1.267 1.267 0 0 0-.152-.192zm-5.385 1.315c-.545 0-.99.167-.99.377s.445.376.99.376c1.408 0 4.248-.042 6.748-.112-.13-.176-.254-.361-.38-.543v-.002a282.797 282.797 0 0 0-6.368-.096zm-24.616.544c-.11.363-.365.937-.81 1.937l-.51 1.14a1.453 1.453 0 0 1 .197-.025 1.72 1.72 0 0 1 .214.025 9.633 9.633 0 0 1 .352-.96c.175-.008.353-.017.53-.017.19 0 .373.008.563.017l.188.47.186.49c.08-.004.205-.025.326-.025.12 0 .28.02.345.025a88.247 88.247 0 0 1-.66-1.482c-.16-.37-.423-.992-.637-1.595a.481.481 0 0 1-.138.023.5.5 0 0 1-.146-.023zm-10.952.003a19.99 19.99 0 0 1-.808 1.938l-.512 1.139a1.447 1.447 0 0 1 .198-.025 1.692 1.692 0 0 1 .214.025 9.59 9.59 0 0 1 .35-.96c.177-.008.356-.018.534-.018.189 0 .373.01.564.018l.186.47.183.489c.08-.004.204-.025.328-.025.123 0 .279.02.345.025-.2-.427-.49-1.095-.66-1.482a27.55 27.55 0 0 1-.636-1.594.506.506 0 0 1-.14.022.514.514 0 0 1-.146-.022zm16.023.01c-.802 0-1.032.497-1.032.885a.765.765 0 0 0 .558.783c.122.048.332.134.456.184a.548.548 0 0 1-.216 1.062c-.26 0-.48-.068-.688-.508h-.058a1.656 1.656 0 0 1-.104.496 1.819 1.819 0 0 0 .83.228.99.99 0 0 0 1.12-.97.885.885 0 0 0-.215-.584 1.434 1.434 0 0 0-.604-.322c-.385-.15-.61-.24-.61-.56a.467.467 0 0 1 .518-.478.55.55 0 0 1 .577.385h.064a2.29 2.29 0 0 1 .137-.42 1.582 1.582 0 0 0-.733-.182Zm-.98 2.406a1.656 1.656 0 0 0 0-.002l-.001.002zm-10.421-2.376a.902.902 0 0 0-.15.005c-.103 0-.616.02-.73.02a4.36 4.36 0 0 1-.443-.02c.033.57.033.63.033 1.21 0 .85-.004.948-.041 1.82a2.441 2.441 0 0 1 .306-.025c.11 0 .208.018.297.025 0-.115-.017-.685-.017-.813V38.8h.104c.24.337.514.727.739 1.075.066.103.166.266.23.367a1.987 1.987 0 0 1 .358-.025 3.47 3.47 0 0 1 .394.025 18.465 18.465 0 0 1-.747-.993c-.068-.096-.164-.24-.232-.33l-.124-.18a.833.833 0 0 0 .77-.818.69.69 0 0 0-.202-.494.902.902 0 0 0-.545-.22zm-2.698.006a9.12 9.12 0 0 1 .044 1.018h.002c0 .757 0 1.487-.047 2.012.096-.004.222-.025.317-.025.096 0 .208.02.309.025a17.468 17.468 0 0 1-.045-1.495 14.477 14.477 0 0 1 .048-1.535 3.146 3.146 0 0 1-.314.024c-.064 0-.23-.015-.314-.024zm3.692 0a60.218 60.218 0 0 1 .952 2.695l.11.337a1.053 1.053 0 0 1 .18-.026.654.654 0 0 1 .169.026c.07-.23.154-.51.216-.697.172-.502.193-.57.42-1.197l.133-.37c.048.142.133.37.18.507.049.138.276.815.327.967.074.2.087.253.25.79a1.735 1.735 0 0 1 .194-.025.886.886 0 0 1 .176.025 42.282 42.282 0 0 1 1.093-3.03.856.856 0 0 1-.198.024.924.924 0 0 1-.205-.024c-.16.57-.24.85-.364 1.23-.208.618-.237.692-.362 1.027-.144-.38-.28-.766-.407-1.155a55.795 55.795 0 0 1-.344-1.102.94.94 0 0 1-.197.023 1.097 1.097 0 0 1-.193-.023c-.133.536-.6 1.837-.647 1.956l-.11.289-.083-.25-.003-.002c-.208-.613-.496-1.475-.634-1.995a2.2 2.2 0 0 1-.308.024c-.107 0-.257-.015-.345-.024zm6.464 0c.23.382.607.993.835 1.38l.26.45c0 .277-.014.856-.027 1.2.083-.008.206-.025.293-.025.102 0 .205.018.307.025-.017-.41-.03-.65-.03-1.023v-.161a.337.337 0 0 1 0-.001.337.337 0 0 1 .055-.14c.189-.318.36-.652.557-.972.067-.103.39-.616.458-.733a.577.577 0 0 1-.185.023 1.628 1.628 0 0 1-.26-.023 12.592 12.592 0 0 1-.763 1.49 16.782 16.782 0 0 1-.771-1.49 2.406 2.406 0 0 1-.364.023c-.096 0-.198-.008-.365-.023zm16.367 0c-.196 0-.251.084-.251.24 0 .159.068.217.25.217v-.002c.18 0 .31-.072.31-.214 0-.142-.083-.24-.31-.24zm.7 0c-.198 0-.252.084-.252.24 0 .159.067.217.25.217v-.002c.182 0 .309-.072.309-.214 0-.142-.085-.24-.308-.24zm-10.996.042c-.201 0-.257.083-.257.24 0 .159.07.218.256.218v-.001c.18 0 .307-.074.307-.216 0-.142-.084-.24-.306-.24zm.67 0c-.196 0-.25.083-.25.24 0 .159.068.218.249.218l.002-.001c.185 0 .306-.074.306-.216 0-.142-.085-.24-.306-.24zm5.013.017s-.305.214-.53.385c-.223.172 0 .285 0 .285v1.824h-.644l-.014-1.563-.577.423c-.127.1-.055.19.083.19 0 0-.025 1.154-.025 1.429a.488.488 0 0 1-.705.444s-.15.03-.025.144a.696.696 0 0 0 .445.198.78.78 0 0 0 .788-.788h8.093v-2.918s-.473.313-.574.4c-.1.087-.066.189.06.175v1.865h-.7V38.07s-.142.055-.334.142c-.192.087-.901.373-.901.76v.445h.717v.348h-1.697c0-.082.004-.202.004-.38a.866.866 0 0 0-.898-.856H35.77a.818.818 0 0 0-.603.174zm7.82.056s-.476.312-.575.399h-.001c-.095.086-.07.188.056.172v2.346h.52zm-27.465.102a.656.656 0 0 1 .41.109.51.51 0 0 1 .187.459.572.572 0 0 1-.605.61 4.22 4.22 0 0 1-.304-.013V37.45a4.38 4.38 0 0 1 .312-.02zm15.155.153s-.577.53-.633.602c-.056.072.138.142.138.142l-.033.205a5.81 5.81 0 0 0-.508.312c-.275.184-.481.422-.481.587 0 .164-.072.813-.072.813h3.669v-1.736a4.114 4.114 0 0 0-.546.378c-.205.185.048.255.048.255v.623h-1.582zm-19.348.338.414 1.087a6.276 6.276 0 0 1-.404.017c-.154 0-.304-.013-.461-.017zm10.952 0 .414 1.087a6.094 6.094 0 0 1-.406.017c-.156 0-.306-.013-.46-.017zm25.73.223c-.426 0-.774.132-.774.295 0 .163.348.296.775.296 1.385 0 4.526-.048 6.695-.13-.102-.11-.202-.225-.307-.34-2.146-.075-5.068-.12-6.388-.12zm-7.687.612v.289h-.337c0-.188.337-.29.337-.29zm-4.75.272h2.145c.46 0 .39.242.39.402 0 .084-.003.222-.008.336h-2.935v-.515c.076-.198.206-.223.407-.223zm-5.408.046v.69h-.54s-.077-.335.12-.463a3.75 3.75 0 0 1 .42-.227zm19.612.306c-.245 0-.446.096-.446.21 0 .116.2.213.446.213 1.256 0 5.095-.096 5.095-.212 0-.116-3.835-.21-5.095-.21zm-18.6 1.049c-.196 0-.251.084-.251.243 0 .16.067.217.25.217.184 0 .31-.072.31-.217 0-.144-.084-.242-.311-.242zm.7 0c-.198 0-.252.084-.252.243 0 .16.072.217.253.217.18 0 .31-.072.31-.217 0-.144-.087-.242-.312-.242z"/></svg>