<svg role="img" viewBox="0 0 64 64" xmlns="http://www.w3.org/2000/svg"><title>Vietnam Airlines</title><path d="M4.848 28.078c-.15 0-.212.083-.135.367.103.38-.02.793-.057.89-.255.691-.615 1.531-.607 2.505.008.984.28 1.952 1.314 2.58.043.026.093.058.078.107-.018.059-.192.01-.378-.101-.334-.2-1.197-.876-1.192-2.582-.002-.226-.078-.485-.627-.774-1.195-.629-2.241-.53-2.406-.49-.237.056-.233.264-.121.318.509.259.741.852 1.033 1.463.778 1.628 2.194 2.467 2.979 2.524.096.007.192.04.189.088-.003.079-.284.055-.346.048-.768-.078-1.56-.678-1.998-1.164-.198-.22-.582-.177-1.002-.05A2.613 2.613 0 0 0 .03 35.074c-.103.196.083.313.274.233.1-.045.23-.077.39-.07.457-.014 1.911.684 3.274.683 1.617 0 2.432-.688 2.545-.752.113.064.924.754 2.54.754 1.364 0 2.82-.7 3.276-.686.16-.006.29.026.39.07.192.08.378-.036.274-.232a2.61 2.61 0 0 0-1.543-1.267c-.42-.127-.803-.17-1.002.05-.438.487-1.23 1.086-1.998 1.164-.062.007-.342.03-.345-.048-.004-.049.092-.08.189-.086.785-.057 2.2-.898 2.978-2.526.292-.61.525-1.203 1.034-1.46.112-.054.115-.265-.121-.32-.165-.04-1.212-.14-2.407.49-.548.288-.625.547-.627.773.005 1.706-.857 2.383-1.191 2.584-.186.111-.36.158-.379.1-.015-.05.035-.083.078-.108 1.034-.628 1.307-1.596 1.315-2.58.008-.973-.352-1.814-.608-2.504-.037-.098-.16-.51-.056-.89.076-.285.015-.368-.135-.368-.164 0-.381.267-.455.358-.059.068-.25.3-.537.869-.57 1.127-.575 2.305-.575 2.449 0 .809.21.902.55 1.07.339.168.5.386.5.637 0 .258-.178.525-.5.62-.251.073-.41.045-.397-.02.01-.052.122-.064.154-.073.34-.092.565-.266.565-.527 0-.327-.403-.566-.97-.566-.565 0-.966.24-.966.566 0 .261.224.435.564.527.033.009.144.021.155.073.013.064-.146.092-.397.02-.322-.095-.5-.362-.5-.62 0-.25.16-.47.5-.637.34-.168.55-.26.55-1.07 0-.144-.005-1.322-.575-2.45-.288-.568-.478-.8-.537-.868-.074-.091-.292-.358-.455-.358zm45.64 2.322a.64.64 0 0 0-.328.102c-.198.13-.207.194-.207.445l.002 4.565c0 .159.078.158.361.158.286 0 .364.001.364-.158l.004-4.936c.001-.126-.087-.174-.196-.176zm-36.822.163c-.463 0-.432.045-.34.273.022.055 1.784 4.347 1.883 4.584.1.237.122.254.5.254.364 0 .372-.013.479-.256.105-.243 1.487-3.718 1.853-4.627.082-.202.047-.219-.28-.219-.285 0-.31.018-.365.14 0 0-1.548 3.958-1.582 4.05-.008.026-.04.029-.054-.002-.05-.112-1.621-4.059-1.621-4.059-.038-.1-.048-.139-.473-.139zm32.555.011a.532.532 0 0 0-.174.008c-.243.051-.388.242-.348.432.04.189.252.303.494.252.243-.052.387-.241.346-.43-.03-.142-.155-.242-.318-.262zm-27.42.002a.532.532 0 0 0-.174.008c-.243.05-.388.24-.348.43.041.189.252.305.494.254.243-.051.389-.24.348-.43-.03-.142-.157-.242-.32-.262zm24.084 0c-.372 0-.42.012-.524.256l-1.94 4.658c-.076.186-.008.184.3.184.288 0 .322-.008.377-.131l.558-1.398c.034-.085.046-.12.145-.12.382 0 1.472 0 1.974-.002.097 0 .107.028.145.118.247.586.586 1.404.586 1.404.043.104.005.129.433.129.455 0 .483-.015.393-.217-.024-.054-1.83-4.388-1.93-4.625-.1-.237-.142-.256-.517-.256zm9.07 0a.533.533 0 0 0-.174.008c-.243.05-.388.24-.347.43.04.189.25.305.492.254.243-.051.388-.24.347-.43-.03-.142-.154-.242-.318-.262zm-27.248.293c-.057.005-.124.041-.285.147-.21.137-.266.225-.266.476v.334c0 .092-.003.09-.084.092-.17.003-.402 0-.402 0-.115 0-.115.062-.115.191 0 .124 0 .188.115.188h.402c.083 0 .085.01.084.096-.002.18 0 2.369 0 2.369 0 .862.462.965.918.972.451.007.748-.127.742-.287-.003-.092-.065-.133-.17-.12-.073.008-.123.03-.222.03-.24 0-.541-.065-.541-.59V32.4c0-.091 0-.104.092-.103h.652c.114 0 .12-.064.12-.188 0-.127-.006-.191-.12-.191h-.656c-.088 0-.088-.01-.088-.086v-.797c0-.127-.098-.173-.176-.166zm18.066.406c.01 0 .02.009.026.024.049.126.744 1.898.847 2.172.023.06.033.107-.046.107h-1.627c-.1 0-.076-.058-.059-.101.108-.274.798-2.078.834-2.18.005-.015.015-.022.025-.022zm19.635.577c-.884-.006-1.481.33-1.482 1.029-.001 1.308 2.373 1.029 2.369 1.935-.001.375-.35.55-.858.555-.506.005-.775-.2-.921-.555-.071-.144-.167-.275-.387-.271-.199.003-.316.132-.316.326 0 .267.464.887 1.591.887.924 0 1.612-.372 1.596-1.102-.028-1.271-2.402-1.038-2.402-1.924 0-.346.356-.505.742-.505.555 0 .739.184.855.455a.383.383 0 0 0 .377.242c.16 0 .293-.102.293-.29 0-.28-.39-.775-1.457-.782zm-40.8.002c-1.081 0-1.91.589-1.91 1.945 0 1.443 1.076 1.955 1.995 1.955 1.112 0 1.678-.86 1.678-1.201 0-.065-.05-.13-.142-.13-.084 0-.126.03-.176.116a1.555 1.555 0 0 1-1.291.715c-.848.008-1.336-.602-1.315-1.543 0-.032.014-.06.063-.06.048-.002 1.325-.003 2.613 0 .247 0 .252-.164.252-.3 0-.779-.726-1.497-1.768-1.497zm10.3 0c-1.23.002-1.719.531-1.738.873-.01.182.098.313.31.318a.395.395 0 0 0 .377-.244c.152-.354.413-.57.95-.57.42 0 .796.191.795.69v.222c0 .067 0 .08-.059.087-1.107.178-2.545.526-2.545 1.543 0 .633.758.984 1.773.985.605.004.913-.105 1.276-.272.272-.128.271-.272.271-.44v-2.073c0-.791-.657-1.121-1.41-1.12zm26.828 0c-1.08 0-1.912.589-1.912 1.945 0 1.443 1.08 1.955 1.998 1.955 1.112 0 1.678-.86 1.678-1.201 0-.065-.05-.13-.143-.13-.083 0-.125.03-.175.116a1.554 1.554 0 0 1-1.291.715c-.848.008-1.337-.602-1.315-1.543 0-.032.014-.06.063-.06.049-.002 1.325-.003 2.613 0 .247 0 .252-.164.252-.3 0-.779-.727-1.497-1.768-1.497zm-10.062.01c-.61-.02-.925.086-1.143.171-.245.096-.353.235-.353.453v3.022c0 .159.077.158.363.158.285 0 .363 0 .363-.158v-2.852c0-.278.299-.428.627-.428.56 0 .497.448.897.448.181 0 .29-.105.29-.283 0-.308-.408-.51-1.044-.532zm-20.856.001a3.67 3.67 0 0 0-1.357.258c-.244.108-.264.242-.264.465v2.924c0 .159.08.16.364.16.285 0 .363-.001.363-.16l-.002-2.7c0-.238.086-.566.914-.566.783 0 .978.463.978.95v2.316c0 .159.08.16.364.16.286 0 .363-.001.363-.16v-2.317c.002-1.147-.998-1.33-1.723-1.33zm26.809.004c-.585 0-1.11.149-1.357.258-.245.108-.264.242-.264.465l.002 2.924c0 .158.077.158.361.158.286 0 .363 0 .363-.158v-2.7c0-.238.085-.568.913-.568.782 0 .978.463.978.95l.002 2.318c0 .158.078.158.361.158.287 0 .364 0 .364-.158v-2.319c.002-1.147-.998-1.328-1.723-1.328zm-19.137.004c-.425 0-.84.103-1.213.268-.268.119-.27.276-.27.43v2.945c0 .159.08.158.364.158s.361 0 .361-.158l.002-2.743c0-.409.328-.52.758-.521.536 0 .863.25.863.883v2.38c0 .16.079.159.364.159.284 0 .363 0 .363-.158v-2.428c0-.481.251-.84.828-.84.56 0 .799.367.799.852l-.002 2.416c0 .159.076.157.361.158.284 0 .364 0 .364-.158v-2.461c0-.979-.92-1.182-1.463-1.182-.636 0-.997.182-1.244.455-.264-.287-.617-.455-1.235-.455zm10.801.016a.646.646 0 0 0-.33.101c-.2.13-.205.195-.205.446v3.072c0 .159.078.158.361.158.286 0 .363 0 .363-.158l.004-3.444c.002-.126-.084-.174-.193-.175zm-27.42.002a.647.647 0 0 0-.33.101c-.199.13-.205.194-.205.445v3.073c0 .159.078.158.361.158.285 0 .366 0 .366-.158l.001-3.444c.002-.126-.084-.174-.193-.175zm33.152 0a.64.64 0 0 0-.328.101c-.198.13-.205.194-.205.445v3.073c0 .159.078.158.362.158.285 0 .363 0 .363-.158l.004-3.444c.001-.126-.087-.174-.196-.175zm-30.474.34c.572-.005 1.073.342 1.1.853.007.147-.03.166-.206.166h-1.931c-.054 0-.06-.025-.055-.06.064-.453.41-.954 1.092-.96zm37.129 0c.572-.005 1.073.342 1.1.853.007.147-.03.166-.206.166h-1.931c-.054 0-.062-.025-.057-.06.064-.453.411-.954 1.094-.96zM32.58 33.61c.013.006.022.023.022.057v1.207c0 .384-.499.486-.868.486-.651 0-.976-.279-.976-.646 0-.67.864-.912 1.765-1.102.024-.005.044-.008.057-.002z"/></svg>