<svg role="img" viewBox="0 0 64 64" xmlns="http://www.w3.org/2000/svg"><title>Virgin Atlantic</title><path d="M64 24.358h-5.427c-1.684 0-2.083.265-2.747 1.019l-4.851 5.316c3.876-.177 5.072 3.722 8.993 2.636z" fill="#da0530"/><path d="M56.89 26.44s.243-.443.42-.598c0 0 .2-.133.222-.333 0 0 .022-.133-.089-.221 0 0-.288-.244-.532.177 0 0-1.13 2.127-1.506 4.275 0 0-.022.067-.044-.132 0 0-.155-1.795-.178-1.861 0-.067 0-.222-.155-.244 0 0-.177-.022-.288.244l-.487 1.218s-.089.155.044.222c0 0 .155.088.244-.133l.222-.488c.044-.11.088-.088.088-.088.022 0 .044.11.044.11s.2 2.415.2 2.437c0 .022.022.222.177.222.11 0 .155-.133.177-.244.022-.11.244-1.263.598-2.503.266-.82.576-1.64.842-2.06zm-.333 2.104c-.222.045-.266.31-.266.31l-.133 1.064c-.022.2.244.066.244.066.11-.066.133-.2.133-.2l.044-.265.133-.731c.044-.288-.155-.244-.155-.244zm.465.089s-.066.554-.089.664c0 0-.11.466.156.377 0 0 .199-.044.221-.332l.044-.399s.023-.288.244-.42c0 0 .244-.112.177-.267 0 0-.044-.133-.2-.066-.11.044-.176.066-.176.066s-.155.022-.178.022c.023.023-.177.023-.199.355zm-.2-.62c.156-.133.111-.222.111-.222-.066-.155-.265 0-.265 0-.178.133-.111.244-.111.244.088.155.266-.022.266-.022zm2.548.775s.2-.044.222-.266c0 0 .11-.842.133-.864 0-.022.066-.243-.089-.221 0 0-.2.044-.222.221l-.155.82-.022.177s-.044.177.133.133zm.465-1.772s.155-.133.089-.244c0 0-.066-.11-.266.044 0 0-.177.155-.066.244 0 0 .11.11.243-.044zm2.083 1.04c-.045-.066-.133-.11-.31-.043-.2.088-.266.11-.266.133 0 0-.244.11-.2-.2l.067-.73s.022-.267-.177-.267c0 0-.111-.022-.288.133 0 0-.089.089-.155.089-.045 0-.089.022-.155 0-.067-.022-.133-.022-.178 0 0 0-.2.044-.221.332l-.089.643s-.044.243-.022.31c0 0 .022.11.2.044 0 0 .154-.044.177-.31 0 0 .044-.51.11-.62 0 0 .089-.155.222-.244 0 0 .177-.089.177.066l-.066.598s-.067.288.066.333c0 0 .022 0-.022.022 0 0-.864.354-1.95.975.067-.62.2-1.485.2-1.485.022-.133-.155-.133-.155-.133-.177 0-.2.2-.2.288-.022.09-.132.798-.132.798-.067.31-.244.31-.244.31-.177.022-.067-.487-.067-.487.045-.177.067-.333.2-.465.133-.111.155-.266.044-.266-.177 0-.354.177-.354.177-.31.31-.31 1.063-.31 1.063 0 .244.155.31.155.31.199.089.465-.066.465-.066.066-.044.044.022.044.022l-.022.2c-.798.465-1.706 1.04-2.481 1.705 0 0-.355.266-.222.443.133.177.333.022.421-.066 0 0 .798-.82 2.26-1.728l-.045.62c-.022.266-.11 1.13-.11 1.13-.045.332.022.399.022.42a.213.213 0 0 0 .31.045c.177-.11.089-.399.066-.532-.022-.133-.022-.354-.022-.354.022-.177.111-1.373.111-1.373 0-.045 0-.111.022-.2a15.564 15.564 0 0 1 1.927-.975s.31-.132.576-.199c0 0 .089-.044.2-.066.155-.045.354-.111.399-.2.044-.066.066-.133.022-.2z" fill="#ffffff"/><path d="M3.123 38.07H2.57L0 32.532h.731l2.104 4.718 2.083-4.718h.709Zm3.744-6.159h-.642v-.73h.642zm0 6.159h-.642v-5.538h.642zm10.434-6.18h-.643v-.732h.643zm0 6.18h-.643v-5.538h.643zm15.927 0h-.642v-6.912h.642zm14.665-6.18h-.62v-.732h.62Zm0 6.18h-.62v-5.538h.62Zm-17.035 0h-.62v-6.912h.62v1.352h1.085v.598h-1.085zm14.687 0h-.62v-6.912h.62v1.352h1.085v.598h-1.085Zm-18.63.11c-1.02 0-2.06-.598-2.06-1.75v-.022c0-1.196.842-1.816 2.48-1.816h1.551v-.022c0-1.02-.576-1.529-1.705-1.529-.554 0-1.064.133-1.64.421l-.044.022-.244-.531.045-.023c.62-.31 1.307-.487 1.95-.487.752 0 1.306.2 1.683.576.376.377.554.864.554 1.55v3.479h-.62v-.731c-.244.31-.887.863-1.95.863zm-1.418-1.772c0 .687.62 1.196 1.462 1.196.953 0 1.927-.553 1.927-1.75v-.664h-1.484c-1.351-.022-1.905.332-1.905 1.218zm10.567 1.772c-1.02 0-2.06-.598-2.06-1.75v-.022c0-1.196.841-1.816 2.48-1.816h1.551v-.022c0-1.02-.576-1.529-1.705-1.529-.554 0-1.064.133-1.64.421l-.044.022-.222-.531.045-.023c.62-.31 1.307-.487 1.95-.487.752 0 1.306.2 1.683.576.376.377.554.864.554 1.55v3.479h-.62v-.731c-.267.31-.909.863-1.972.863zm-1.418-1.772c0 .687.62 1.196 1.462 1.196.953 0 1.927-.553 1.927-1.75v-.664h-1.484c-1.373-.022-1.905.332-1.905 1.218Zm-11.83 1.662h-.642v-2.947c0-.642 0-2.126-1.617-2.126-1.152 0-1.838.886-1.838 2.348v2.703h-.62V32.51h.62v.93a2.244 2.244 0 0 1 1.927-1.02c1.418 0 2.193.865 2.193 2.415v3.235zm21.333 0h-.642v-2.947c0-.642 0-2.126-1.617-2.126-1.152 0-1.839.886-1.839 2.348v2.703h-.62V32.51h.62v.93a2.244 2.244 0 0 1 1.927-1.02c1.418 0 2.193.865 2.193 2.415v3.235zm-30.88 1.572c-1.44 0-2.348-.753-2.459-.841l-.022-.045.355-.51.044.023c.554.377 1.174.753 2.104.753 1.285 0 1.994-.775 1.994-2.17v-.289c-.377.576-1.152 1.086-2.127 1.086a2.634 2.634 0 0 1-1.772-.71 2.576 2.576 0 0 1-.797-1.882v-.022c0-.731.288-1.418.797-1.905a2.572 2.572 0 0 1 1.772-.71c.975 0 1.773.488 2.127 1.042v-.953h.62v4.32c0 .93-.2 1.573-.686 2.038-.466.51-1.152.776-1.95.776zm-.066-6.6c-1.152 0-1.972.84-1.972 1.993v.022c0 1.13.864 2.016 1.972 2.016.997 0 2.082-.775 2.082-1.994v-.022c-.022-1.263-1.063-2.016-2.082-2.016zm38.19 5.072c-1.55 0-2.769-1.24-2.769-2.835v-.023c0-1.617 1.218-2.857 2.769-2.857 1.263 0 1.994.753 2.193.974l.022.045-.398.42-.045-.044c-.554-.531-1.13-.797-1.794-.797-1.174 0-2.105.997-2.105 2.237v.022c0 1.263.93 2.26 2.15 2.26.885 0 1.483-.51 1.75-.82l.044-.044.42.377-.022.044c-.243.376-1.04 1.041-2.215 1.041ZM8.285 38.07h-.643v-5.538h.643v1.329c.487-.886 1.351-1.418 2.348-1.374h.067v.665h-.111c-1.13 0-2.282.82-2.282 2.636v2.282z" fill="#5b056a"/></svg>