<svg role="img" viewBox="0 0 64 64" xmlns="http://www.w3.org/2000/svg"><title>Virgin Australia</title><path d="M.5676 22.4219c-.4175 0-.6915.4367-.5117.8125l8.3281 17.412h.002c.3365.6558.7737.9317 1.3945.9317h8.5567c.5268 0 .7548-.3105 1.0918-.7402l5.287-7.5606c.9152-1.2369.8942-1.171.2403-1.7226l-9.9375-8.4297c-.657-.5525-1.179-.7031-2.0488-.7031Zm11.045 2.8574c.2532-.0102.5194.1409.5703.4043.0305.0684.0151.171.0273.2246a1.1887 1.1887 0 0 1-.0527.1758c-.0257.0174-.0262.0577-.0528.0781 0 .0017-.002.0041-.002.006-.0057.0082-.0114.0236-.0214.0253-.0022.023-.0333.0316-.0137.0547-.0488-.0166-.0336.0457-.041.0762-.0122-.0044.0028.0265-.0137.0117-.0113.0122-.0039.0375-.0195.0449 0 .0009-.006.002-.006.002-.0016.0017 0 .005 0 .0059-.0043.0035-.0132.0009-.0097-.0039-.0026-.0004-.0091-.0039-.0117-.0039-.0205.0065-.0294.015-.0254.0332-.0279.023-.0095-.0143-.0235-.0117-.0017.0113-.0017.018-.0156.0215.0083.0213-.0008.0642-.0273.0586-.01-.0017.0185-.0437-.0137-.0215-.0026.0296-.0194.0614-.0547.0566-.0017.0109-.0113.0189-.0195.0254 0 .0009-.0013.0022-.004.0039-.0095.0279-.0616.052-.0663.086-.092.0922-.1724.2201-.2442.3242.0013.0017.0013.003.004.0039-.011.0065-.0314.0184-.0157.0293-.014.0074-.0235.0175-.0235.0332-.0195-.0091-.0138.0349-.0156.0449-.0692.0435-.0854.1417-.125.207-.0017.0009 0 .0063 0 .0098-.0357.0631-.0602.1279-.0898.1914.0022.0013.002.003.0039.004-.048.0635-.0628.1597-.1055.2206v.0098c-.02.0296-.0144.057-.041.0918-.004.0061-.0065.0104-.004.0196-.0082.0044-.0014.022-.0136.0195-.0222.0718-.067.148-.0918.2246-.0039.0252.0041.0665-.0059.0996-.0065.0057-.0083.017-.0156.0234-.023.0231-.0182.0649-.0469.084.0144.0396-.0405.08-.0527.1153-.01.0452-.046.088-.0508.1367.0017.0013.0017.0042 0 .0059-.0196.016-.0117.049-.0273.0664.006.0675-.0278.047-.0196.084-.0083.0057-.0025.0227-.0117.0293-.0457.0487-.0631.131-.0722.2011-.014.024-.0224.0434-.0372.0664.0157.0183-.0195.06-.0195.088-.0474.09-.0629.187-.082.2636.014.0261-.0372.0667-.0176.1055-.0174.061-.098.1528-.041.209-.0536.094-.1024.1962-.1172.3125-.0544.1319-.102.243-.1055.3789-.0265.0857.0071.1592-.0351.2402-.0235.0753-.1018.1058-.1036.1973 0 .0004-.0039.0013-.0039.0039-.0204.0997-.0793.1741-.0976.2773-.0166.003-.0176.025-.0137.0371-.05.0497-.055.1478-.0742.2188a.4838.4838 0 0 0-.0312.127c-.0018.0025-.006.0021-.006.0038-.0108.0527-.0305.094-.0331.1485-.0074.0035-.0029.0063.002.0098-.0192.0065-.0046.014-.002.0214-.0514.1124-.0654.2735-.0977.3946-.0109.0792-.0519.1625-.037.2344-.0397.0666.0244.0366-.0274.1132.034.0017.0085.0647-.0137.0703-.024-.0083-.0215.0195-.0215.0352-.0527.1071.0376.2289-.039.3203l.002.002c-.0027.003-.006.0011-.006.006-.0004.0016.0018.005-.0039.0077-.0043 0-.0097-.0037-.0097.002.0082.0035.0028.006-.002.0078 0 .0004-.0002.003-.002.004 0 .0012-.0012.0021-.0038.0038-.001.0218-.0146.0564.0058.0664.0005.0745-.0625.1426-.0508.211-.0091.0287.0068.047-.0097.084-.0157.0287.0244.075-.0078.1054-.0066-.0009-.013.0041-.0157.0098-.0374.0165-.0043.0594-.0117.086-.024.0121.0152.0208.0078.0273-.0287-.0148-.0325.1496-.0508.1875.011.0165-.008.0349-.0136.0488.0008.0065-.0011.0158-.002.0215-.0026.0035.0007.0072-.002.0098-.0051.0422-.0411.1783.0255.1504.0017.014.0097.022.0097.0351-.0156.0188 0 .0325.004.0508-.0149.0296.0013.0894-.0274.1016-.0026.0022-.0013.0022-.004.0039 0 .0009-.0038.0002-.0038.002-.0035.0379.0034.0878-.0371.1035 0 .0004-.0002.0021-.002.004 0 0-.0058-.001-.0058 0-.0048.0117-.0078.024-.0118.0331h-.0039c0 .0205-.0195.027-.0195.0566.0083.0958-.0293.2116-.0293.3086.0083.0427.0704.0415.0352.0977 0 .0026-.002.006-.002.0078-.0022.0017-.0091.0085-.0117.0059.003-.0074-.0313.0062-.0195-.0078-.004-.0039-.0157.0061-.0118.0078 0 .0022-.002.0033-.002.0059.0027.0065-.016.0139-.0038.0156.0074.0327 0 .0746-.0156.0977-.0305.0662-.0413.1538-.043.2266-.0222.1345-.0501.316-.0567.457-.0017.0009-.004.0002-.0058.002-.0074.0361-.0006.0754-.0137.1094.0039.0474-.0183.12-.0195.1718v.002a3.1461 3.1461 0 0 0-.0293.2325.2351.2351 0 0 1-.004.0488c-.0112.0422-.012.1062-.0195.1523-.0082.0675-.03.1463-.0273.213-.0296.1802-.0729.4143-.082.5859-.0362.0857-.04.1967-.088.2851-.0065.0074-.0064.0208-.0155.0274 0 .0017-.0022.004-.004.0059-.0056.0039-.011.0158-.0136.0214-.0279.0397-.1005.0707-.1153.0899v.002c-.0914.0252-.2043.0499-.2949-.002-.0056-.0074-.0097-.0102-.0137-.0176-.0191-.0057-.0396-.018-.0488-.0371 0-.0026-.0041-.003-.0058-.004-.0074-.0156-.0187-.034-.0352-.0448-.0483-.1115-.0648-.243-.0918-.3575-.0022-.0404-.0213-.0677-.0195-.1113-.0022-.0017-.004-.001-.004-.002-.0134-.0196-.007-.0325-.0097-.0547-.0057-.0174-.012-.0633-.0137-.0781-.0387-.1733-.0513-.3174-.08-.4824 0 .0008-.0042-.006-.006-.0078.0084-.0627-.0482-.0986-.0234-.1504.0092-.0483-.0412-.1263-.0273-.1446.003-.0148-.0002-.03-.002-.0449-.0239-.0496.0035-.18-.0722-.166-.0018.0044-.0041.0078-.0098.0078.0018-.0213.0273-.0222.039-.0527.01-.0296-.0087-.074-.0448-.084-.0148-.0405.0321-.0995.0117-.1348.0008-.0348-.0093-.078-.0176-.1093 0-.0074.0017-.0141 0-.0215-.0213-.0379-.0145-.1025-.0254-.1504-.0196-.098-.044-.2217-.045-.3223v-.0059h-.0075c-.027-.2213-.0663-.4356-.1016-.6802-.0322-.2012-.056-.431-.0996-.6348.0009-.061-.0088-.1422-.0293-.1992-.0165.009-.0093-.0295-.0215-.0313 0-.0065.0098-.0063.0059-.0136-.004-.0963-.0075-.2241-.0371-.332-.01-.1237-.042-.2616-.0586-.3887-.0035.0017-.0098.0182-.0137.0117.0335-.0632-.0068-.1067-.043-.1446-.0213-.0239.0029-.0472-.002-.0703-.037-.0074.0019-.052-.0155-.0586-.0074-.0117 0-.015.0117-.0175.0113-.014.0048-.0208-.0117-.0274-.0057-.0065.0158-.0275.002-.0488.0212-.0061.0278-.0265 0-.0313-.025-.0065-.0217.0431-.0392.0118-.0143-.0083.007-.0595.0118-.0703-.0218.0052-.0263-.0178-.041-.0352-.0314-.0013-.055-.0354-.082-.0059-.0018.0035.0028.0083-.002.0117.0039.02-.0133.0286-.0098.0469-.0022.0013-.004.004-.004.0059.001.0074-.0019.0102-.0058.0176-.0043-.0009-.0071.0033-.0097.0059 0 .0017-.002.004-.002.0059-.0013.0013-.0056.0004-.0039.0039.0057.0013.004.0083 0 .0117.0057.0039.004.0078 0 .0117.0009.0057-.008.005-.0098.006-.0035.0064.0061.0175-.0078.0214-.0009.0244-.0223-.0046-.0332-.002 0 .0048-.002.0117.002.0156-.0022.0013-.004.0004-.004.004.0022.009-.0084.018-.0019.0253.0017-.0017.0002-.005.002-.0078.0074.0017.016.0021.0078.0078-.0026.0035.0317.013.0078.0156-.01-.0217-.029-.0026-.039.004-.0075-.0092-.0257-.0156-.0157.0058.0022.0114.007.0353.0117.0157-.0074.0883-.0021.0379-.0195.0527-.0009.0165.0267.0242.002.039-.0297-.0016-.0098.0218-.0255.0235-.01-.0009-.0023.01-.0097.0156-.0074.0074.011.003.0136.0078.0026.014-.0134.016-.0234.0235-.0017.0035-.0002.0078-.0059.0078.0018.0265-.0335.05-.0078.0722-.0013.0214-.0412.0301-.0273.0606-.0214-.0035-.0263.0392-.0059.045-.034.0247-.0088.1164-.041.0741-.0457.034.0244.0213.004.0313-.0162.0174-.0249.0279-.0118.0527.01.0166-.0326.031-.0195.045.0026.0047-.0059.006-.0098.0077-.0017.0017-.003.0122-.0078.0157-.0083.009.0085.0147.002.0195-.0014 0-.0116.004-.006.0098.0023.013-.0092-.0008-.0175.0371-.0444.0322.054.0397-.0078.0488-.0479.0344-.0394.1-.0625.1426-.047.04-.052.1262-.086.1758 0 .0405-.0578.0893-.0312.1328-.0627.0109-.1323.1315-.2246.125-.442.0836-.387-.3996-.2559-.666.0288-.0553.0482-.119.0664-.1817-.0043.001-.0039 0-.0078 0 .0518-.1153.1006-.2564.1367-.3613-.0187-.0257 0-.0312.0118-.0469.0483-.1419.1427-.3523.1757-.5195.1363-.3692.238-.7436.3672-1.1172.0662-.1641.1022-.4331.3125-.5097.321-.1414.5489.188.5489.4843.0313.1154.0357.2603.0644.3692.0331.1706.0339.361.0957.5078-.0422.0078.0281.0438-.0098.0586-.0026.0313.0352-.0083.0352.0156-.0353.0022-.0072.0447.002.0586-.0283.0431-.0119.0531.0234.0723-.0222.0252 0 .048 0 .0976.023.024-.0396.0312 0 .0664-.0083.0026-.0137.0017-.0098.0118.0092-.004-.0041.0151.0059.0234.0248.1354.0396.2345.0644.3887.0423.0126-.0173.1312.0332.1504.0562.0126-.0293.055.0391.1054.0618.1742.0267.214.086.295.0056.0174-.0137.0234-.0255.0234-.01.0144.0261.0518.0079.0723.0561.1014.0291.2305.0761.332.0009.0353.0694.1127.0332.168-.0213.0039-.0515.2325-.0136.1972.0108.0017.0249-.0158.0332-.0059-.0188.0057-.0477.0803-.0137.0703.0035-.0204.0279.0087 0 .004.0566.111.0469.0828.0351.2304-.0174.0849.0479.1955.0118.2813.087.0104.0187.1421.0527.1992.0218-.01.0193-.0088.0332.0078-.0074.04.0184.0218.0293-.004 0-.009 0-.019.004-.0273.0043 0 .0058-.0059.0097-.0059.1023-.7667.2156-1.5471.3789-2.3047.1846-1.0044.4883-2.0236.7539-2.9902.3818-1.115.7665-2.3044 1.2637-3.3789.02-.0849.1003-.1513.1425-.2148.0044 0 .0081.0008.0098 0a.0437.0437 0 0 1 .0235-.0215c.0937-.1328.2406-.197.3926-.2031zm5.3808 2.6289c.1086-.0031.2035.0383.2188.1582.0156.178-.172.3588-.3086.4824-.1328.0923-.4062.0923-.4219-.121v-.002c-.033-.0453.0104-.1134.0195-.1622.0148-.0413.0455-.1068.086-.1465 0-.0008.0039-.005.0039-.0059.0017-.0026.0002-.005.002-.0059.034-.024.0626-.062.0996-.0859.0705-.0594.1921-.1082.3008-.1113zm2.2774.2266a.4737.4737 0 0 1 .246.0449c.0266.0148.043.0516.0665.0664.0304-.047.0065.0069.0195.0234.023.0205.0243.0431.0273.0723.047-.0205-.0322.0203.0645.1152-.004.0091-.021.004-.0293.004-.0266.0592.0466.1.045.1074-.0119.0204-.0232.0605.0038.0722.0287.0048-.0238.0222-.0352.0157-.0204.0257-.0243.0839-.0078.1113-.0195.0849-.0028.0395.0352.0195.0017.0248-.0226.0583-.0078.088.0122 0 .004.0207.0195.0077.0057.0405-.0578-.023-.0273.0371.0148.023-.0135.014-.0156.0254.0083.0074.0354.0065.0098.0156.0065.028-.0006.067.0273.0918-.0048.0035-.0037.0126-.0059.0157a.4355.4355 0 0 1-.045-.002c-.0347.0857.0776.0554-.0038.1054-.0183.027.0665.063.0195.0547-.047-.0109-.0404.3094-.0117.3399.023.0165.0122.0415-.0156.0332-.0083.0109.015.0097.002.0254-.0118.0304.0468.0444-.002.0527.0035.0117.0083.0119 0 .0254-.0166.0422.0543.0281.0351.0586-.0461.0117.024.0576 0 .086-.0174-.0684-.0138.0723-.0156.0937-.0453-.0192-.0067.0168-.0215.043.013.0295.027-.0488.0313 0 .0204.0313-.0429.011-.0215.0331.0435.0048-.0628.026.0273.0547-.01.058-.0413-.0516-.0273.0977-.0205.0222.0206.0095.0332.0195.0026.0048-.0294.032-.0098.0293-.0192.0436.0515.0142.037.0547-.0016.0279-.0564.0245-.0234.045-.0017.0025-.0072.0046-.0098.0038.0017.0109.02.0248.0274.004.01-.0036.0036.0132.0137.0136.0017.0074 0 .0139 0 .0195-.0231.0362.0319.0127.0136.041-.0156.0297.0269.0067.039.0215.0066.013.0137.0462.045.0489v.0078c.0701.0265.1628-.019.2207-.047.0527-.013.093-.047.1426-.0644 0 0 .0002-.0039.002-.0039.0048-.0035.0243-.0015.0234-.0098.0296-.0156.07-.03.1114-.0566.0017.0026.0052.003.0078 0-.004-.0083.0158-.0074.0175-.0156.0601-.027.1322-.069.1914-.1055 0 .0009.0017.0022.004.0039.0509-.0287.1085-.0627.1738-.084.1328-.0653.2853-.0274.4238-.0117-.0057-.0048-.012-.0065-.0098-.0156.0083.0008.0115.0108.0176 0 .0148.0083.01.036.037.0312 0-.0065-.0077-.0056-.0077-.0117.0618.024.0806.0995.125.1465-.004.0313.0357.0479.0117.0683.0192.0174.027.0121.0195.0352l.0078-.002c-.0196.0017-.0073.0152-.0117.0234-.023.011-.0222.0315.004.0176-.0027.0166-.0027.027.0155.0313 0 .0039-.0112.0145-.0156.0136-.0248-.0074-.0297.0455-.0332.0664-.0039.0166-.0345-.0225-.0293.0254h.004c0 .0074-.0083.0126-.0157.0118-.0009.0195-.0063.0314.002.0488-.0496-.0183-.0677.1223-.1387.1406.0109.0213-.0354.0203-.0332.043-.3043.2342-.7146.2669-1.0586.4258-.0905.0304-.2129.073-.2812.1191-.0997.034-.2143.09-.3145.1387a.01.01 0 0 1-.002.0059c-.118.0461-.2375.1174-.3437.1758v-.004c-.0444.0257-.0856.0517-.1309.0665-.013.0257-.0724.0331-.0898.0527-.0249.0118-.0531.0182-.0723.039-.1354.051-.2546.1518-.3848.1915-.0313.0413-.0938.048-.1308.0859-.0192.0057-.0443.003-.0508.0234-.074.0362-.1493.0741-.2168.1211-.0353.0148-.0726.0417-.1113.0586-.502.287-1.0213.5802-1.5137.8985-.0065-.004-.0258.013-.0332.0156-.0166.0248-.0505.0386-.08.0586-.0388.0322-.1052.0541-.1388.0937.028.0222-.0422.0084-.0527.0254-.0505.047-.1571.0993-.2207.1446-.0109.0083-.023.0136-.0312.0253-.038.0122-.1002.0731-.129.088-.0165.0034-.0264.0247-.043.0312v-.002c-.0073 0-.012.0095-.0194.0117 0 .0009-.002.004-.002.004-.0083.0034-.0148.0044-.0196.0136-.0008.0191-.0347.0125-.0273.0273-.0192 0-.038.0178-.0488.0274.0065.0526-.0757.055-.0957.0898-.0083.0026-.008-.0011-.0137-.0059-.004.0057-.0055.0108-.0098.0156.0017 0 .0017.002.0039.002-.0026.0222-.046.0247-.0313.0469.0157.0183.0031.0507-.0117.0742 0 .014.01.0065.0195.0117.0065.013-.0056.03-.0195.0235-.0039.0008-.002.0063-.002.0098.0196 0 .0068.0967.002.1132.014.034.0534-.002-.0176.0782v.0195c-.0139.0222.0339 0 .0274.0156-.0166.0305-.0112.0714-.0352.0918.0479.0214.0387.08.0117.127.0157.0183-.0078.0183-.0078.08.004.004.0115.0043.0176.006 0 0 .0037.001.006.002h.002c.0025.0122-.0092.0678-.0196.0273-.0379-.0065-.0055.0575.0059.0723.027.0278-.03.0659-.0117.0976.024.0057.0136.0147.0098.0352.0174.014.0002.0377-.0098.0508-.0048.0057-.0046.0223.0059.0215.0117.0165-.0266.0305 0 .0488.0017.0026 0 .005 0 .0078-.0091.0248-.0242.1471.002.1562.0035.0192-.012.0284-.0137.045-.0213.0196.0089.0047.0137.0117.0196.0213-.001.0199 0 .0469.0435.0121-.0191.0125-.0196.0234.0118.0035.0076.0167-.002.0176-.0026.0074.0001.0226-.0117.0195.013.0222.0428-.0325.0254.0293.004 0 .0041-.0017.006 0 0 .0157.0073.0282 0 .043 0 .0008-.0047.0026-.006.0039.0009.0057.0109.0005.0117.0098.0205.0048-.0241-.0077-.0059.0449-.0122.013-.0109.041-.0039.0566l.002.002c.0026.0017-.0002.0037-.002.006 0 .0016-.002.0041-.002.0058-.0278.0196.0041.0012.002.0235.0057 0 .004.0054.004.0098-.0175.0165-.0042.0604-.006.0879.0035.0109.0033.0362-.0136.037.0057.0123.0296.0623 0 .0762.0017.0157-.0006.0198-.0137.0215-.0035.013.0089.006.0137.002.0156.004.0139.0224 0 .0254-.0057.0196.0067.03.0214.039 0 .0075 0 .018-.0039.0255-.0026.0057-.0017.0169-.0039.0234-.0057.0157-.0086.0251-.0195.039.0017.0092.0213-.003.0156.0079-.0065.0039-.0067.0089.002.0098.014.0083-.0409.0947 0 .0468.0314-.0313-.0422.0768.004.0371.0034.0122-.0281.0172-.0099.0254.0323.011-.0224.0204.0137.043.0436.0074-.0343.0119-.039.0293.0017.0174-.0054.0284-.0137.041.0109.0074.0015.02.0098.0274.037-.0026-.01.0158-.004.0214-.01.01 0 .0172.004.0254.0048-.0265.0326-.0005.0078.0078.0257-.0165.0438-.0057.039.0313 0 .0074-.0046.0156-.0098.0039-.0213-.013-.0578.0043-.0273.0234.0875.075-.0467.0105.0273.0723.0074.0453.0074.0638-.0527.0547.0009.013.0776.0019.0332.0176-.01 0-.011.0152-.002.0117.0305.0387-.057.0515-.0156.0937.0313 0-.0212.0687.0371.0274-.0109.0183.0007.0336-.0176.041.0248.0205.001.0411.0332.0098-.0108.0193-.0199.0497-.0137.0508-.0175.012-.041.0175-.0468.0468-.0205.0118.0217.0214.0039.0489.0139.0083.0306.002.0214.0273-.0035.0148.0352.01.0235.0313-.0536.0017-.0589-.0162-.045.0918.0288.0074.0274-.008.0274-.0254.0257-.004-.001.0407.0098.0547.0048.0057.0221-.0011.0273.0098-.0387.0265-.0713.0083-.0273.0644.0183.0322-.0525.0662.002.08 0 .0084-.0039.0142-.0039.0216.0083.0039.013.0057.0195 0 .014.009-.0072.0217.006.0234.0108-.0122.0412-.0159.0273.0098a.039.039 0 0 1-.0117.0078c-.0331.0257.0032.0207-.0274.0703.011 0 .0806-.002.041.0098-.0213.004-.0187.035-.0117.0489.013.013.0343-.0092.0273.0156-.0544.047.0416.0176-.0098.0664.004.0017.0196 0 .0196.0039-.0148.0183.0004.044-.0078.0605.0065.0222-.0224.0161-.002.004-.0035-.0453-.062.0086-.0176.0195.0148.0196-.0148.032-.0117.0508 0 .0017-.004.0026-.004.0039-.0173.0204.002.0136.006.0293.0039.0035.0039.007.0039.0098.0422.0618.0231.0204.0527.0039.0196.0148-.0231.0199.0195.039 0 .0166-.0224.032-.002.043-.0008.0157-.0126-.013-.0117.002.0017.0048.0056.0056.004.0117h.0038c.0057.0148.0043.0388.0117.0527 0 .0035.011.0021.006.0078.0117.0118.0036.01-.002.0274.0038.0008.008-.0021.0097-.004-.0048.0197.0074.0118.0157.0157-.0157.0083.0015.0148.0098 0 .0057.0122-.0233.0145.002.0254-.0057.0222-.058.0518-.0254.0684-.0118.01-.097.0042-.0586.0273.0026.0048.0034.006.0078.0078.0039-.023.0225-.0207.039-.002a.0262.0262 0 0 0 .006-.004l.002.002c-.0092.0297-.0704.0014-.0508.0274.0117.0057-.0144.0115.0078.0137-.0305.0414.01.0379-.004.0645.0027.0509.0713.0554.0548.0059.027.0065-.0025.032.0136.0507 0-.023.0082-.012.0196-.002 0 .01.014.0113.0214.0235-.0191.0313-.0342-.0277-.0546.0136.0248.0017.0194-.007.0468.0235.0196.0109.0563.021.0176.041.0331-.0322-.0365-.0217-.0078-.0078-.0065.0174-.0173.003-.0273.0078.0039.0035.008.003.0098.0039 0 .0148.0304.0267-.004.0254 0 .0479-.0366.004-.0449-.004 0 .0058.0054.0116-.002.0138.0148.0074-.0022.0371.0274.0214.0204-.0182.0076.0252.0215.0235-.0118.01-.053.0127-.0235.041 0 .0035 0 .0041-.0039.0059.0249-.0009.0202.021.0293.0137.001.0008.0026.002.004.002 0 .0057-.0035.0063-.0079.0098.0057.0057.0137-.0028.0137-.0098.01.0139-.0205.028.004.037-.0092.0066-.0132.0235.0038.0196 0-.0026.0012-.005.004-.0078.0082.01.0194.01.0312.0117-.004.0122.006.0214.0117 0 .0057.004.0037.0152-.002.0235-.0527.0139-.0132.0547-.0489.0586.0065.0039.0133.0119.0215.0136-.0422.0257-.0701.0696.0196.088-.0183.0165-.0486.0196-.0625.037-.1246.395-.7866.3486-.8301-.0742-.0017.0009-.0041 0-.006 0-.0165-.0892-.0427-.1742-.041-.2617.0018-.0388.0073-.092-.0058-.1211.0083-.1493.023-.2962.0117-.4395.0461-.4789.0172-1.0342.0469-1.4687.0057-.0435.008-.088-.002-.125-.0017-.0048-.002-.0091.002-.0117v-.002l-.002-.002c.0048-.1328.0114-.2652.002-.3946.0139-.0592-.0037-.1363.0059-.2011 0-.213.0027-.4449-.004-.6582.0084-.1245.0053-.266.0079-.3887-.2055.0932-.371.2594-.5508.3848-.0505.0518-.1591.1235-.2188.1797-.071.047-.1614.1198-.2324.1816l-.002-.002c-.0039 0-.0059.002-.0059.0078a.0659.0659 0 0 0-.0332.0215c-.4393.3579-.873.7156-1.3184 1.084-.0026-.001-.0039-.003-.0039-.004-.1872.1468-.3443.316-.5058.4844-.095.0627-.1912.1408-.254.2305-.1436.1293-.2675.2869-.4042.4297-.0017-.0017-.006-.003-.006-.004-.047.0663-.1308.1288-.1796.1915-.0427.0322-.0776.0787-.1172.1074 0 0-.0002.005-.002.006-.1846.2233-.4147.45-.6289.6464-.2538.215-.7275-.0506-.6387-.3984.0018-.0057.014-.0176.004-.0215.4075-.6095 1.0232-1.0628 1.5566-1.5469.0213-.0196.057-.0538.084-.0703.1253-.108.2713-.2465.4023-.33.0496-.0784.163-.1179.207-.1993.0414-.0118.0972-.0598.1211-.0977.01-.0039.0056.0067.0157.006-.0057-.0214.049-.0219.039-.045.2878-.2185.5656-.4622.8477-.6816v-.0102c.0505-.0279.1103-.061.1465-.1016 0 .0026.002.0051.002.0078.0248-.0165.052-.052.0859-.0586.0266-.0487.0993-.061.125-.1015.0453-.023.079-.0579.1191-.084v-.0039c.094-.0692.2001-.1348.2793-.2031.0314-.0222.0868-.0457.1055-.0762a.9538.9538 0 0 0 .1836-.1348c.1798-.1136.3332-.2752.5195-.3789-.0026-.0008-.0026-.0002-.0039-.002.004-.0026.0034-.003.0078-.0039.0767-.06.1584-.129.248-.1738v-.0059h-.002c-.0016-.0026-.0016-.0063 0-.0098.01-.0057-.0023-.0208.002-.0351.004-.0091.001-.0326.004-.0352.0148-.0083.005-.023.0098-.0469-.0279-.047.0223-.2238-.0274-.2773 0-.0009-.0098.0009-.0098 0-.0165-.004-.0381.0114-.039.0254-.0823.0361-.125.0971-.1973.125-.0204.0387-.1008.0181-.1348.043 0 .0047.0028.0094.006.0117-.0118.0057-.1348.0251-.0586.0351-.0166.0122-.0686.008-.086-.0078-.0057-.0035-.0075-.0076-.0176-.002.0026.0057-.0054.0113-.0098.0117-.0074.0026-.0175-.0027-.0215.004-.057.0165-.1285.0212-.1777.0312-.0157.0065-.0377-.0063-.0508.002v.0039s-.0072.0037-.0098.002v-.006c-.071.0075-.1371-.0135-.205-.0292.0039.0039 0 .0026 0 .0078-.0288-.0379-.0967-.0446-.1368-.086-.0017.0026-.0039.006-.0039.0078-.0509-.0592-.1127-.1106-.1367-.1855-.0305-.0897-.051-.208-.0605-.3086a.0159.0159 0 0 0 .0059-.002c-.014-.2011.013-.4163-.0157-.6035.0205-.1485.042-.318.045-.459.009-.0527.0203-.1187.0312-.1797.0048-.1123.0522-.2587.0879-.3789.0348-.0966.0864-.2165.1426-.3105.0017.0008.0033.001.0059.002.0035-.038.0449-.066.0566-.0938.0065-.0122.0278-.0412.0352-.0469.0775-.1197.1634-.2347.291-.3105.0083-.0192.0358-.0256.045-.0312.0082.009.048-.0373.0663-.0508.0057 0 .0137-.0037.0137-.0098.121-.0488.3952-.1686.4414.0078.0017-.0009.0039.0008.0039 0 .0065.0265.0207.0594.0059.086-.013.0047-.0047.0335-.0156.041.0352.0322-.039.0988-.0215.1366-.0118.0175-.033.0304-.0352.047-.0026.0056-.0057.014 0 .0175-.0026.0091-.0115.006-.0176.006-.0083.0173-.0149.0513-.0332.0605-.0039.01-.0132.004-.0175.0136-.013.01-.0189.0193-.0371.0254 0 .0026.0002.0061.002.0078-.0017.0009-.006 0-.006 0-.0016.0017.0003.003-.002.004-.0213.0082-.0479.0562-.0488.0859-.0017-.001-.008-.0011-.0098-.002-.0017.023-.0134.0197-.0273.0332-.0017-.001-.0002-.003-.002-.004-.004.0131-.0422.033-.0274.047-.0017.0082-.0085.0199-.0059.0312.0035.0035-.0098.0201-.0136.0254-.0279-.0314-.0091.0464-.0313.039 0 .0074.0015.015-.002.0215-.01-.0026-.0156.014-.0156.0215-.061.1598-.2177.4852-.1523.6289.0108.0287.0211.0748-.006.0957-.0748.33-.1217 1.1832.4395.75.0026.0017.0041.0022.006.0039.221-.1872.2001-.5177.2362-.7754.004.0009.006 0 .006 0 .013-.1437.0353-.3075.041-.4394 0-.014.0038-.0334 0-.047.0774-.3156.0042-.9064.1562-1.2577-.004-.0035-.002-.0024-.002-.006.0017 0 .004-.002.0059-.002a.3269.3269 0 0 1 .1113-.0976c0-.0039.0034-.0059.0078-.0059.0017.0091.0152-.0046.0235-.0059.178-.1219.4144-.0248.4902.1328-.0039.014-.0237-.0022-.0254.0117.0257.0305-.0242.1058.0098.1446-.0396.0296.0197.0737.006.0976-.0206.0026-.0249.0088-.0157.0293.01.004.0203.0643-.002.0625-.0257.0249.0077.0794-.0098.1055.037.033-.0207.0485-.002.0742.0213.0527.0002.0925.002.1387-.037-.0205-.0063.0184-.0098.0371a.02.02 0 0 1-.0117-.0059c-.01.0091-.0057.0906.0117.0488.0222.0122-.0139.0237-.0196.0254-.0174.213-.0218.4218-.0449.6543-.0074.0362-.0137.1295-.0098.166-.0156.0675-.0278.1976-.0195.252-.0035.0435-.0457.1501-.0039.164a.0117.0117 0 0 1-.0117.0118c-.0148.1088-.0372.2135-.002.3027.0026.085-.0355.0867-.006.1172-.0056.0017-.008 0-.0136 0-.0026.0083-.008.0425.006.043 0 .0048-.0197.0238 0 .0195-.0193.081.0148.0414-.004.1328-.0322.1115-.0002.2267-.0215.3281.0074.011.0072.0297.0098.0371.2991-.1772.6143-.3935.9356-.578 0-.001-.0017-.004-.004-.004.1973-.1502.4778-.2595.6563-.4023.371-.1576.775-.4501 1.17-.6504.0552-.0296.1204-.0753.1835-.0957 0-.0009-.002-.0046-.002-.006.142-.1153.7785-.3646.7637-.4882-.2286-.1032-.187-.438-.1621-.627.0183-.154-.0247-.2944.0215-.4394-.0331-.0906-.012-.0636-.002-.1328-.004 0-.0055-.003-.0098-.002.027-.094.0258-.2645.0254-.3438-.0017-.1584.0638-.4316-.1621-.4316-.094-.0196-.1914.0658-.2676.1133-.0444.0222-.0235.065-.0723.0781-.0017.0527-.1108.1379-.1348.123.0619.0584-.0557.0774-.0566.1153.0057.0287-.0087.0724-.0234.0937.0117.0305-.0174.0032-.0196.0254.0065.0527.0034.1088-.0254.1524.0414-.0017.0199.0436-.0098.037.0183-.0182-.015-.0247-.0175-.0156.0108.0183.003.0182-.0078.0313-.0249.0353.0787.0082.0234.0352-.0122.024.0166.0444-.0313.0488.0157.0039.0328-.0007.041.0176-.0931.0074-.0407.047-.0507.1054.0636.0553.009.0829-.006.0938.0158.0213-.021.0132-.0292.0215.0065.009.0156.0103.0156.0234.0174.0118-.019.0048-.0273 0-.0017.0057 0 .015 0 .0215h.0039c-.004.0122-.0118.0271.0039.0293.0048.0191.0225.024.039.0332a.019.019 0 0 0 .002.0254c-.024.01.006.043-.0098.0644.048.011-.0005.0332-.0254.0332-.0008-.0692-.0176-.0157-.0059.0117 0 .0017-.0322.0176-.0117.0215-.013.0192-.0092.0301.0117.045-.0039.01.0085.0108.006.0195-.061.0057-.0167.14-.0333.1953-.0108.0222-.0018.0278.0118.0352-.0288.0296-.0038.0293.0136.0098 0 .0017.002.0026.002.0039l.002-.002c.004 0 .0063.001.0098.002.0091.0435-.0539.0278-.0234.0644-.0388.024.0115.042.0137.0664-.0388-.0048-.0444.0235-.004.0195.0122.0166.0295.0349-.002.0606a.0806.0806 0 0 1-.0175.0586c.014.0257.043.1027-.0098.0234 0 .047.0384.08.0293.127-.0362-.004-.0014.0151-.0293.0273-.0314.0157.002.0389-.0293.0371-.034.0814.0123.036-.0274.0782-.0039 0-.0052.0026-.0078.0039.0192.063-.0249.0564-.0293.08-.0022.0054-.0144.0113-.0175.004h-.004c-.121.1393-.4896.3175-.5937.0663 0-.0017.0017-.006 0-.0078-.0461-.1567.0063-.3521-.002-.502.0026-.019.0073-.037.004-.0566-.0018-.0008-.0034-.003-.006-.0039.0148-.013.0096-.0565.0078-.0761.0026-.0017.0026-.0026.004-.004.0117-.1614.0012-.3488.0272-.5-.0026-.0073-.0094-.013-.002-.0195-.009-.0422-.0035-.0988.004-.1367.0064-.6861.0003-1.3797.871-1.2422.1354.0314.2567-.0926.336-.1718-.0017-.0017-.0002-.0037-.002-.006.1515-.177.3811-.3698.625-.3886zm-2.5293 1.1347c.0435.01.074.0156.1054.0469.0017.0017-.0026.0026 0 .0039 0 .0017.004.0017.004.0039.0034.0048.0018.0317.0058.0273.004-.0017.004.006.004.0078.0016.0057-.002.013-.002.0196-.0018 0-.0057.0012-.004.0039.0122.0026.0085.0138.002.0195-.0035.0026-.0037.0154.002.0098.0017 0-.0002.003-.002.0039.004.0048.0037.0178.0098.0078 0-.0074.0139-.0017.0157 0 .0017.0017 0 .0046 0 .0059.01.0039-.0047.0054-.004.0098.0027 0 .004-.0029.004-.002.0017.0009.0017.0039 0 .0039 0 .0035-.0057.0184 0 .0215.009-.0017.0004.0191.0078.0117 0-.0017.0017-.0059.0039-.0059l.002.002c.0039.013.0054.0208.0136.0313a.0369.0369 0 0 1-.0078.0214c0 .0083-.0024.0254.006.0293.0108.0166-.0144.0195-.0079.0352-.0048.01-.0302.0123-.0098.0215-.0048.01.012.0008.006.0117-.0066 0-.0009.005-.0118.0059 0 .0009-.0039.0009-.0039 0-.01.0065.0041.0178.0098.0234.0057.0148-.032.0258-.0254.0371.0026.0026.0026.005.004.006 0 .0008.002.005.002.0058-.0018.0026-.0018.0037 0 .006.0016-.0049.021.0001.0136.002-.0083-.0036-.0176.0206-.006.0214v.004s.0042.0001.006.002c0 .0025-.0002.01-.002.0116-.0057 0-.0042.0038-.002.0078.0065.0353-.0167.0152-.0176.0391.0009.0109.0283.0108 0 .0195-.0017 0-.0042.0054-.002.006a.039.039 0 0 1 .0039.0156c.0026.0008.0059.0002.0059.002 0 .009-.0158.016-.0215.0273-.0008.0083-.0126.0043-.0117.0156 0 .01.0154.0078.0254.0078.0026.0057.0055 0 .0098 0-.0109.0065-.0073.0159-.0156.0215 0 0 .0017.0041.0039.006 0 0 .0042.0011.002.0038 0 .0009-.0042.0009-.006 0v-.0059s-.0058.0048-.0058 0c-.0035 0-.0082.0057-.0118 0-.0039.0017.0017.0037 0 .006.0074.013.0091.0077.0157.0234.0039.027-.0368.004-.0137.0332 0 .0017.0095.006.0078.0078-.0026.0057.0011.0052.0059.0078 0 .0017-.0026.0026-.0039.0039.0017.0065-.0124.0082-.0137.0039-.0074.0117-.002.0283-.0078.041 0 .0035.0046.01-.002.0117.01.0248-.012.0926.0098.1035.0026-.0009.0026-.003.004-.0039.0016-.0035.0067.0004.002.004 0 .0025-.004.0016-.004.0038a.024.024 0 0 0-.0059.0098c-.0083.0026-.0024.004.002.004 0 .0016-.0039.002-.0039.002-.0065.0034.0022.0067.004.002l.002.002c.0025 0 .004 0 .0058.002 0 .0034-.0039.0025-.0039.0038-.0057.004.0054.0034-.002.0078 0 .0026.0033.0017.002.004-.0065.0016.0017.0072.004.0116.0038.0035.0075.009.0058.0137-.0017.0009-.0017 0-.0039 0 .0017.0305-.0378.0668-.0039.0898 0 .0017.0017.002.004.002h.0038c0 .0026-.0039.0043-.0039.0078.0166.0074-.0276.016-.0136.0274.0296.0083-.0269.0624.0136.0781.0174.0057-.01.0134-.0117.0234 0 .0196-.0059.0483.0137.0196.014.014-.0078.0188-.0117.0293 0 .009-.0103.033-.002.0468.047.051-.024.0281.0156.0704-.024.0592.021.0779-.0078.0722-.0257-.0017-.0063.0189-.0137.0293-.0653.0231.0094.0468-.0254.0625-.0048.0288-.0088.0853.0274.0918.0017.0009.0072.006.0098.0078.0165.0183.0017.0306 0 .0489-.0118 0-.013-.0174-.0274-.0196-.0165.013.0094-.0139-.0098-.0156-.013 0-.0087.0247-.0078.0312.0048.0026.0224-.0049.0176.004-.0009.0025-.01.0068 0 .0077.0065.0048-.0102.0178-.002.0235.0091.0148.0339-.0085.0274.0098.013.051-.0212.0037-.043.002-.0157.0653-.0156.1924-.0195.289-.011.0083.0098.0102-.002.0215-.0065.0627-.0092.1741.0156.2285-.0009.0131-.0294.0273-.0137.043.0192.0091-.0273.0334.002.0274-.0662.229-.3679.4667-.6348.414-.0378-.0313-.0778-.0656-.0879-.123l-.002-.002c-.0287-.1938.025-.3961.0332-.5899v-.002c.0148-.0579.0113-.1616.0274-.2383.0039-.0775.0069-.1645.0234-.2285-.0017-.0017-.004-.0013-.0059-.0039v-.0078c.0091-.0017.0057-.0117 0-.0156.0074-.0313.0165-.0811.0157-.0977 0-.0017-.0017-.0002-.004-.002v-.0059s.0042-.0052.006-.0078c.0008-.0195-.0044-.0804.0117-.1113.0083-.0048-.005-.0123-.006-.0176a.0232.0232 0 0 1 .006-.0039c.0008-.013.0067-.0449.0059-.0566-.0048-.0296.0232-.0733.002-.0977.023-.0048.0015-.051.0098-.0488.0191.0057-.009-.0056.002-.0156.0017-.0035.0113-.0028 0-.006-.004-.0025.0046-.006.0059-.0077-.0009-.0388.0055-.0865.0098-.1153 0-.0304.0037-.0739.0098-.1035.0065-.0017.0085-.0087.002-.0117v-.0156c.0065-.0083.0012-.0191.0078-.0274 0-.0035.009-.003.0039-.0078 0-.0017-.004-.0002-.004-.002 0-.0083-.0034-.0243.004-.0234.0017-.0017-.002-.0034-.002-.004.0074-.0304.016-.1163.0234-.1698.0118-.0026-.0048-.0043 0-.0078 0-.0017.004-.0022.004-.004.0064-.0064-.0057-.0106-.004-.0136.0065-.0109.0104-.0403.0078-.0469.0035-.0122.01-.062.0195-.0664-.0017-.0174.013-.0305.0157-.0488 0-.0026.002-.0037.002-.006.0026-.0025-.0002-.0025-.002-.0038.0117 0 .0063-.011.0136-.0176 0 0 .0076-.0037.006-.0059 0-.0017-.004-.003-.004-.0039.0118-.0322.0286-.0715.0508-.0976l.002-.002c.0083-.034.0516-.057.0664-.084.0148-.0065.0174-.0189.0313-.0254.0039-.0074.0343-.0286.039-.0352.051-.0461.137-.0764.1875-.0742.0192-.0074.0525-.0008.0665-.0117zm-5.4395.9942c.0083.0057.0147.0139.0274.0117 0 .0017.002.0033.002.0059.0304.0035.0368.08.0507.1113.0257.0057.0064.0469.0313.0508-.0048.0257.0159.0503.002.0742v.002a.0296.0296 0 0 0-.0078.0293c.0039.0009.0059.0028.0059.006-.0192.009-.0015.0227.002.0292h-.0098c-.0065.0562-.0497.0797-.0645.1328-.0426.0545-.041.012-.0566.0703-.0057.0353-.056.026-.0625.0586-.004-.0017-.012.003-.006.0078-.0212.0065-.033.0221-.0526.0352-.01.0048-.0104.0217-.0274.0195 0 .0026-.0039.0037-.0039.006-.0257.0156-.0487.0202-.0722.0468-.0157.0065-.033.0162-.043.0293 0 .013-.0367.0011-.0293.0176-.0083.0017-.0158.0072-.0215.0098-.0017.0074-.0135.0054-.0117.0137-.004.0026-.0091-.0003-.0156-.002.0026-.001.0026-.003.0039-.004-.0323.0149-.051.039-.088.0176v-.0059c-.013.0065-.0235.006-.041.002-.0039-.01-.0177.0022-.0234.004-.0017-.0036-.0081-.0062-.0098-.0079.0017-.0026.0072-.0052.0098-.0078-.034-.0108-.0768-.0124-.0742-.0586-.0157-.0008-.0193-.0155-.0215-.0273-.0048.0048-.0057.0128-.0117.0059-.0017-.0017-.0002-.01-.002-.0117-.011-.0436-.0222-.087-.0157-.1192.0331-.283.3572-.5897.6368-.5527zm1.5781.8027c.0738-.0093.1565.0063.1856.0781.0287.0331.0414.0768.0527.1055.0017.0035.0034.0052.0078.0078 0 .0065.0128.02.0137.0313.0017-.001.0039 0 .0039 0-.0035.0117-.0066.026.0039.0351-.0017.027-.028.0903-.006.1016-.0016.0583-.0506.0812-.0663.1347-.024.0118-.0414.0506-.0684.0645-.0666.0422-.1206.1038-.1894.1426-.0065.0183-.029.024-.043.037 0 0 .002.003.002.004-.0118.0026-.0152.0139-.0234.0156-.0222.0118-.0397.0373-.0645.0547 0 .0009.003.0026.002.0039-.0109 0-.0158.0056-.0215.0117-.0387.0653-.113.128-.1425.2012-.0231.0183-.0522.0728-.0274.1016-.014.0139-.0585.039-.0176.0546-.037.0057-.004.0508-.0527.1426.0065.0736.0273.0609-.0293.0957.01.0026.0205.0178.0039.0235-.0026.013-.0213.036-.0039.0468a.3032.3032 0 0 1-.0098.0489c0-.001-.0017-.003-.0039-.004-.0039.004-.0018.0116.0039.0099a.016.016 0 0 1-.0039.0098.0126.0126 0 0 0 .0098.0039c-.0205.08.0029.1786-.0215.2422 0 .0083-.0005.019.0078.0234-.0165.0683-.0097.1506-.0136.2207-.0074.0444-.0086.1513-.0078.2148.0222 0-.0017.013-.004.0196.0036.027.0247.0702-.002.0898-.0121.0967-.0057.2-.0331.295-.0701.1863-.2102.3016-.381.369a.0417.0417 0 0 1-.0175.004c-.0487.0313-.1346.0336-.1855.0293-.0166-.0057-.0321-.013-.047-.0196v-.0117s-.005-.0017-.0077 0c-.0057 0-.011-.009-.0176-.0117-.1541-.1964-.055-.4945-.0625-.7187h.002c-.0057-.0823-.0279-.1582.0117-.2383.0009-.0396-.0361-.0824-.0039-.1172.0026-.0213-.007-.0561.002-.084-.0122-.0017.0063-.0186-.002-.0234.0057-.0048.0042-.015.002-.0215-.0122-.0017-.0154-.0397.002-.041.0083-.0353.036-.0685.0274-.1016.0017-.0174-.0053-.0527.0078-.0644.0065-.1955.043-.4283.0273-.6172.024-.1189.0042-.2527.0586-.3633.0239-.212.2355-.349.4316-.4004l.002-.002c.0062-.0021.0151-.0026.0078.0059.004-.0006.0078-.0013.0078-.006a.75.75 0 0 1 .1446-.0194c.0905-.0175.1644-.0692.2558-.084.0035-.0174-.0138-.0013-.0195-.004-.0017-.0182.013-.0127.0273-.0136v-.0039c.0057 0 .008.001.0098-.0039.0314.014.0336-.013.0528-.0195.023-.0248.0583-.0086.08-.0274-.0038-.0039-.0117-.004-.0117-.0098.01 0 .017-.0063.0196-.0136h.002c0 .0174.0182.0176.0195.002-.0157-.0214.041.0044.045-.0196a.315.315 0 0 1 .0683-.0175zm-2.0136.8555c.1021-.0084.1898.0351.2129.1836-.029.0234-.0004.0839.037.0918-.0719.0185-.0646.1043-.0136.1699.014.0148-.035.069.002.0977-.0932.3008-.0899.7454-.1543 1.082h-.0059c-.0057.1358-.0451.2769-.0469.418h.004c-.011.0535.0002.1035-.0137.1562.0182.0174.0034.0498.0117.0703.0122.0174-.0115.0865-.0215.1113.0083.0906-.0314.1808-.0488.2696.0083.033.08-.028.043.0586.0016.0174-.0142.0117-.0216.0156a.0311.0311 0 0 1-.0273-.0215c-.105.1197-.4152.405-.6055.2305-.0265-.0427-.0412-.1056-.0468-.1504-.0048-.2464.0199-.5114.0273-.7578-.0039 0-.0052-.003-.0078-.004.0322-.1014.0105-.2888.041-.3437.0083-.0204.0002-.049.006-.0703-.0158-.0296.011-.0867-.002-.1172.0352-.121.0074-.2774.0331-.3867-.0196-.1493.034-.3441.0332-.496.0462-.1237.0856-.3073.1992-.4005.014-.0257.043-.0577.0743-.0625a.0207.0207 0 0 1-.0098-.0059c.0812-.0688.1986-.1303.3007-.1386zm46.6093.7265v.6973h.6075v-.6973zm-1.7187.004v7.289h.6074v-7.289zm-12.2813.0195v7.2695h.5391v-5.3047h1.289v-.541h-1.289v-1.4238zm-3.1015 1.3066c-.5647 0-1.0901.0899-1.4297.3594-.4493.357-.6984.8057-.6875 1.2597.0152.6414.218.998 1.252 1.4317l1.2246.3144c.6909.29.994.7188.994 1.1485 0 .3322-.177.6606-.5331.8496-.3009.1593-.668.2282-1.2871.1777-.512-.0422-1.0727-.3474-1.6426-.707l-.289.4512c.5093.3792 1.3819.7197 1.9492.7675.7196.061 1.1653.0104 1.6054-.2343.5573-.31.836-.7491.836-1.3164 0-.8486-.375-1.2975-1.6407-1.7403l-.9218-.2656c-.86-.2695-.9677-.5416-.9825-.9004-.0296-.7297.6162-1.0781 1.5118-1.0781.4946 0 .9596.1308 1.5195.5l.3086-.4492c-.48-.3194-1.2997-.5684-1.7871-.5684zm-11.6778.039c-.5712 0-1.5248.064-2.252.506l.1427.4784c.6-.336 1.6664-.414 2.1562-.414.779 0 1.298.4686 1.4317 1.1504.0287.1458.0434.2735.0468.6035 0 0-.8651.002-1.0332.002-2.081 0-3.2324.2142-3.2324 2.0176 0 .5137.3377 1.0618.7656 1.3496.4476.3008.9099.3027 1.4336.3027.8756 0 1.639-.2745 2.0957-1.039l-.0039.957h.5117s.0065-1.005 0-1.789l-.0136-1.5528c-.0061-.6927-.075-1.1954-.2051-1.5098-.276-.6652-.9203-1.0625-1.8438-1.0625zm23.8848 0c-.5712 0-1.5249.064-2.252.506l.1426.4784c.6009-.336 1.6665-.414 2.1563-.414.7789 0 1.298.4686 1.4316 1.1504.0288.1458.0434.2735.0469.6035 0 0-.8643.002-1.0332.002-2.0811 0-3.2324.2142-3.2324 2.0176 0 .5137.3376 1.0618.7656 1.3496.4476.3008.9098.3027 1.4336.3027.8755 0 1.639-.2745 2.0957-1.039l-.004.957h.5118s.0065-1.005 0-1.789l-.0137-1.5528c-.006-.6927-.0748-1.1954-.205-1.5098-.276-.6652-.9203-1.0625-1.8438-1.0625zm9.3535 0c-.5712 0-1.5248.064-2.252.506l.1426.4784c.6009-.336 1.6645-.414 2.1543-.414.779 0 1.298.4686 1.4317 1.1504.0287.1458.0453.2735.0488.6035 0 0-.8651.002-1.0332.002-2.081 0-3.2324.2142-3.2324 2.0176 0 .5137.3376 1.0618.7656 1.3496.4476.3008.9099.3027 1.4336.3027.8756 0 1.639-.2745 2.0957-1.039l-.0039.957h.5117s.0065-1.005 0-1.789l-.0136-1.5528c-.0061-.6927-.075-1.1954-.2051-1.5098-.276-.6652-.9203-1.0625-1.8438-1.0625zm-12.5566.0723c-.3922-.0033-1.5144.1217-2.3418 1.5547v-1.5449h-.5996v5.8418h.5996v-3.2441c.2582-.7585.9244-2.0528 2.4844-2.0528v-.5468s-.0521-.007-.1426-.0078zm8.0976 0v5.8516h.6075v-5.8516zm-25.6035.002v2.8496c.0022.7615.1057 1.3018.1914 1.6192.2539.92 1.1066 1.3808 2.088 1.3808.9203 0 1.7225-.3636 2.1679-1.2226l.0059 1.1406h.541v-5.7676h-.5664v2.797c.0065.7327-.1813 1.4252-.5078 1.7831-.5944.6519-1.0313.8045-1.5547.8047-1.1509-.0004-1.4737-.7287-1.627-1.0352-.1532-.306-.1718-1.5-.1718-1.5l-.0196-2.8496zm-2.623 2.7559c.1763 0 .7534.0076.9902.0215h.002v.414c0 .6152-.0781 1.101-.3594 1.457-.4044.5147-.9969.7716-1.7754.7716-.437 0-.7977-.101-1.082-.3047-.3052-.2203-.457-.5167-.457-.8868 0-1.2234.6493-1.4726 2.6816-1.4726zm23.8867 0c.1763 0 .7534.0076.9902.0215h.002v.414c0 .6152-.081 1.101-.3613 1.457-.4045.5147-.995.7716-1.7734.7716-.4372 0-.7978-.101-1.082-.3047-.3053-.2203-.459-.5167-.459-.8868 0-1.2234.6512-1.4726 2.6835-1.4726zm9.3516 0c.1763 0 .7533.0076.9902.0215h.002v.414c0 .6152-.079 1.101-.3594 1.457-.4053.5147-.995.7716-1.7734.7716-.4371 0-.7997-.101-1.084-.3047-.3052-.2203-.457-.5167-.457-.8868 0-1.2234.6493-1.4726 2.6816-1.4726z"/></svg>