<svg role="img" viewBox="0 0 64 64" xmlns="http://www.w3.org/2000/svg"><title>Turkish Airlines</title><path id="path1" d="M5.018 26.98a5.02 5.02 0 0 0 .005 10.04 5.019 5.019 0 0 0 5.016-5.022 5.022 5.022 0 0 0-5.021-5.018zm-.137.284c.214-.007.426 0 .635.021a4.747 4.747 0 0 1 4.175 3.93 4.737 4.737 0 0 1-3.886 5.457v-.006a4.691 4.691 0 0 1-1.282.043 4.735 4.735 0 0 1-3.337-1.93l7.67-2.197c.107-.027.079-.134-.012-.129l-3.215.225c.45-.44.799-.975.756-1.715-.086-1.2-1.31-2.375-3.582-3.147.44-.235.917-.402 1.431-.488.217-.037.433-.058.647-.064zm-2.395.734c1.147.874 1.625 2.53 1.207 4.111-.386 1.437-1.457 2.086-2.68 2.424a4.725 4.725 0 0 1-.665-1.748 4.733 4.733 0 0 1 2.138-4.787zm29.018 1.984c-.81 0-1.393.359-1.393 1.125 0 .66.392.945.805 1.127.606.258.904.294.904.637 0 .295-.225.445-.67.445-.386 0-.755-.133-1.045-.267v.756c.306.128.704.218 1.207.218.815 0 1.426-.419 1.426-1.185 0-.885-.605-1-1.125-1.258-.402-.15-.627-.232-.627-.5 0-.252.188-.396.584-.396.365 0 .734.112.938.209v-.735a3.02 3.02 0 0 0-1.004-.176zm31.264 0c-.81 0-1.395.359-1.395 1.125 0 .66.392.945.805 1.127.605.258.904.294.904.637 0 .295-.225.445-.67.445-.386 0-.755-.133-1.045-.267v.756c.306.128.703.218 1.207.218.815 0 1.426-.419 1.426-1.185 0-.885-.607-1-1.127-1.258-.402-.15-.627-.232-.627-.5 0-.252.19-.396.586-.396.365 0 .734.112.938.209v-.735a3.007 3.007 0 0 0-1.002-.176zm-38.252.047v3.936h.91v-1.822l.027.03 1.164 1.497a.76.76 0 0 0 .61.299h.724l-1.662-2.115-.027-.034.027-.03 1.367-1.76h-.943l-1.254 1.695-.033.043v-1.739h-.91zm-11.735.006v.735h1.067v3.199h.912v-3.2h.691a.38.38 0 0 0 .38-.38v-.354h-3.05zm3.684 0 .004.006v2.461c0 .273.037.508.117.695.08.188.195.35.34.473.15.123.325.214.53.267.203.06.439.086.69.086.252 0 .484-.027.688-.086a1.2 1.2 0 0 0 .504-.267c.134-.123.241-.28.316-.473.075-.193.112-.428.112-.7v-2.462h-.852v2.434c0 .246-.06.45-.184.595-.123.15-.32.225-.584.225-.262 0-.455-.074-.584-.225-.123-.144-.187-.349-.187-.595v-2.434h-.91zm4.137 0v3.93h.906v-1.54h.451l.707 1.169c.14.23.396.375.664.375h.602l-1.106-1.719.055-.027c.241-.113.405-.258.502-.44.096-.187.146-.376.146-.558 0-.365-.112-.653-.338-.868-.23-.214-.552-.322-.97-.322H20.6zm24.7 0v3.93h.907v-1.54h.45l.706 1.17c.14.231.398.374.666.374h.6l-1.104-1.719.053-.027c.241-.113.407-.258.504-.44.096-.187.146-.376.146-.558 0-.365-.112-.653-.337-.868-.23-.214-.553-.322-.971-.322h-1.62zm3.887 0v3.93h2.358v-.71h-1.453v-2.753a.466.466 0 0 0-.465-.467h-.44zm8.983 0v3.934l.006-.004h2.46v-.735h-1.554v-.96h1.318v-.653h-1.318v-.847h1.174a.376.376 0 0 0 .375-.375v-.36h-2.461zm-29.723.006v3.936h.912V30.04h-.912zm5.035 0v3.928h.91v-1.65h1.657v1.65h.91V30.04h-.91v1.566h-1.656v-1.566h-.91zm7.037 0-1.484 3.936h.652a.388.388 0 0 0 .366-.264l.15-.461h1.598l.236.725h.984l-1.457-3.936h-1.045zm3.045 0v3.928h.91V30.04h-.91zm8.565 0v3.928h.912V30.04h-.912zm1.748 0v3.936h.799v-2.172c0-.193-.016-.391-.022-.563h.012c.096.177.224.413.348.606l1.334 2.129h.998V30.04h-.8v2.166c0 .177.012.423.022.6h-.021a7.091 7.091 0 0 0-.354-.639l-1.1-1.762a.784.784 0 0 0-.657-.365h-.56zm-32.36.691h.53c.193 0 .342.053.433.155.092.107.141.247.141.402 0 .156-.048.29-.144.393-.097.101-.243.156-.436.156h-.523v-1.106zm24.7 0h.531c.193 0 .342.053.434.155a.611.611 0 0 1 .138.402c0 .156-.048.29-.144.393-.097.101-.24.156-.434.156h-.525v-1.106zm-5.21.182h.01c.049.182.123.402.204.633l.343.992h-1.125l.358-.992c.08-.225.163-.461.21-.633z"/></svg>