<svg role="img" viewBox="0 0 64 64" xmlns="http://www.w3.org/2000/svg"><title>Riyadh Air</title><path d="M6.736 21.174c-.156.002-.312.01-.467.022-2.536.217-4.329 2.076-5.33 4.284l-.035.077h2.271c2.071.117 4.788.72 4.788 3.834 0 3.123-2.752 3.742-4.817 3.864H1.752v.069h1.413c.424.017 2.295.243 4.602 2.777 1.778 1.955 4.225 2.943 6.784 1.961-2.575.708-3.266-.798-5.112-2.69-1.271-1.305-2.405-1.846-3.348-2.084l.025-.002c1.844-.273 3.376-2.004 3.376-3.894 0-2.06-1.733-3.901-3.793-3.901v-.002H1.05c.12-.232.648-.844 1.07-1.178.83-.657 1.796-1.07 2.81-1.298 1.917-.44 3.985-.137 5.607 1 1.27.878 2.217 2.272 2.458 3.815.124.746.101 1.702.128 2.463.006.803.015 1.696.014 2.495-.004 1.106.06 2.212.028 3.317-.014.356-.04.713-.103 1.063l.053.024c.104-.346.165-.705.209-1.061.116-1.108.138-2.231.157-3.343.005-1.073.1-4.522.058-5.02-.147-2.4-1.488-4.693-3.658-5.836a6.535 6.535 0 0 0-3.144-.756Zm12.26 3.603v5.833h.868v-5.548h1.35c.866 0 1.424.552 1.424 1.408 0 .802-.488 1.35-1.34 1.46-.336.045-.674.042-.898.04H20.229v.081h.152c.4 0 .642 0 .821.063.195.068.358.267.513.524.102.169.84 1.455.849 1.468.12.205.272.37.453.493l.015.01H24.1l-.158-.11a1.98 1.98 0 0 1-.517-.6l-.729-1.216c-.152-.267-.378-.453-.718-.585.945-.196 1.563-.83 1.563-1.636 0-.96-.939-1.685-2.184-1.685zm39.9 0v5.833h.868v-5.548h1.35c.865 0 1.424.552 1.424 1.408 0 .802-.489 1.35-1.34 1.46-.336.045-.675.042-.898.04h-.172v.081h.153c.4 0 .642 0 .821.063.195.068.358.267.513.524.102.169.84 1.455.848 1.468.12.205.272.37.452.493l.017.01H64l-.16-.11a1.974 1.974 0 0 1-.517-.6l-.728-1.216c-.152-.267-.377-.453-.717-.585.945-.196 1.562-.83 1.562-1.636 0-.96-.939-1.685-2.185-1.685zm-34.479.001v5.833h.87v-5.833zm1.355 0 2.268 3.343v2.49h.868v-2.49l2.27-3.343h-.393l-2.014 2.985-2.022-2.985zm7.085 0-2.62 5.833h.371l1.086-2.417h2.192l1.077 2.417h.915l-2.613-5.833Zm3.547 0v5.833h2.235c1.817 0 3.188-1.254 3.188-2.917 0-1.663-1.37-2.916-3.188-2.916zm6.244 0v5.833h.87v-2.788h3.325v2.788h.868v-5.833h-.868v2.703h-3.326v-2.703zm10.66 0-2.62 5.833h.37l1.086-2.417h2.192l1.077 2.417h.915l-2.613-5.833zm3.542 0v5.833h.87v-5.833zm-19.577.285h1.257c.708 0 1.31.248 1.737.717.43.472.658 1.133.658 1.914 0 .781-.227 1.443-.658 1.915-.428.469-1.029.716-1.737.716h-1.257zm-4.482.678.94 2.112h-1.888zm20.449 0 .942 2.112h-1.89ZM.435 26.753a6.558 6.558 0 0 0-.231 1.086c-.14.93-.114 2.308-.136 3.254 0 .958-.076 4.331-.067 4.892.056 2.026.975 4.04 2.556 5.34 1.621 1.348 3.969 1.89 5.99 1.204 1.514-.543 2.709-1.736 3.48-3.107l-.05-.023c-.963 1.055-2.416 1.542-3.785 1.698a9.915 9.915 0 0 1-1.43.077c-2.177-.016-4.367-1.154-5.494-3.053a5.722 5.722 0 0 1-.784-2.566c-.02-.402-.033-.812-.043-1.214-.03-.95-.012-2.281-.026-3.248-.003-.942-.055-2.317-.045-3.24.017-.365.031-.74.108-1.1Zm25.383 6.913v4.325h2.497v-2.42h-.575v2.164h-1.353v-4.069zm5.532 0v4.07h-.001l-1.043-.002c-.119 0-.397-.059-.407-.613l-.001-.258V35.57h-.574v2.311c.002.458-.066.731-.216.885-.107.11-.266.146-.55.123l-.05-.004v.11l.03.011c.147.06.305.091.46.091.175 0 .494-.043.664-.329.17-.286.221-.667.234-1.036a.49.49 0 0 0 .44.258h1.588v-4.324zm1.24 0v4.324h.57v-4.324zm5.91 0v4.324h.57v-4.324zm5.441 0-.002 4.07h-.891l-.015-.002c-.155-.019-.257-.113-.31-.287a.94.94 0 0 1-.04-.283l.001-.142V35.57h-.57v1.811c-.01.246-.015.348-.285.355h-.762c-.357 0-.403-.43-.406-.615l-.002-.258V35.57h-.575v2.311c.002.458-.064.73-.214.885-.107.11-.266.146-.55.123l-.05-.003v.109l.03.011c.147.06.305.091.46.091.175 0 .493-.043.664-.329.17-.286.221-.667.233-1.036a.493.493 0 0 0 .441.26h.859c.317 0 .559-.133.666-.357.086.225.267.36.488.356h4.22v-1.144a2.153 2.153 0 0 0-.086-.614 1.49 1.49 0 0 0-.243-.482 1.093 1.093 0 0 0-.902-.424c-.152 0-.307.029-.463.087a1.455 1.455 0 0 0-.443.268c-.138.12-.267.274-.383.458-.115.184-.21.405-.28.657l-.037.122v-3.253zm-20.068.56a.337.337 0 0 0-.238.108.367.367 0 0 0-.103.26c0 .101.035.189.103.26a.34.34 0 0 0 .257.11.334.334 0 0 0 .252-.11.367.367 0 0 0 .102-.26c0-.1-.035-.188-.102-.26a.333.333 0 0 0-.252-.107h-.02zm12.512 0a.337.337 0 0 0-.238.108.367.367 0 0 0-.102.26c0 .102.034.189.102.26a.342.342 0 0 0 .258.11.335.335 0 0 0 .252-.11.367.367 0 0 0 .102-.26c0-.1-.034-.188-.102-.26a.333.333 0 0 0-.252-.107h-.02zm-12.472 1.101c-.152 0-.307.029-.463.087a1.455 1.455 0 0 0-.443.268c-.139.12-.267.274-.383.458a2.531 2.531 0 0 0-.282.657l-.035.122v-1.301l-.001-.048h-.552v1.834c0 .181-.02.35-.057.503a1.06 1.06 0 0 1-.19.4.904.904 0 0 1-.342.265 1.242 1.242 0 0 1-.515.095c-.163 0-.32-.024-.465-.073-.107-.036-.432-.143-.648-.64-.185-.426-.147-.798-.13-.956l.002-.037c.01-.111.07-.443.155-.709l.012-.041-.096-.043-.021.033c-.012.02-.293.464-.38.813-.228.906.065 1.427.26 1.657.467.552 1.05.552 1.3.552.188 0 .37-.028.54-.085a1.61 1.61 0 0 0 .831-.627c.098-.144.175-.323.225-.52h2.909v-1.144c0-.222-.03-.428-.086-.614a1.493 1.493 0 0 0-.243-.482 1.093 1.093 0 0 0-.902-.424zm13.368.243v1.834h-.001c0 .181-.02.35-.058.502a1.062 1.062 0 0 1-.189.4.908.908 0 0 1-.341.266 1.241 1.241 0 0 1-.515.095c-.163 0-.32-.025-.465-.073-.107-.036-.433-.144-.65-.64a1.832 1.832 0 0 1-.13-.956c0-.015.003-.027.004-.037.01-.111.068-.443.153-.709l.014-.041-.096-.043-.022.033c-.011.02-.292.464-.38.813-.228.905.065 1.427.26 1.657.467.552 1.051.552 1.3.552.188 0 .37-.03.54-.086a1.61 1.61 0 0 0 .831-.626c.136-.199.296-.554.296-1.114V35.57zm8.603.273c.128 0 .245.021.35.062a.726.726 0 0 1 .274.194.894.894 0 0 1 .179.333c.042.134.063.296.063.481v.821h-2.283c.022-.097.065-.288.082-.355l.017-.069c.027-.108.067-.27.12-.414.104-.287.233-.51.382-.666.31-.322.542-.387.816-.387zm-22.187.001c.128 0 .246.02.35.061a.722.722 0 0 1 .274.194.896.896 0 0 1 .18.333c.042.134.062.296.062.481v.823H22.29c.018-.097.056-.29.073-.356l.017-.07c.027-.108.067-.271.118-.414.105-.287.234-.51.383-.665.31-.322.542-.387.816-.387zm3.443 2.527a.348.348 0 0 0-.254.105.352.352 0 0 0-.106.259.357.357 0 0 0 .36.368.36.36 0 0 0 .36-.369.35.35 0 0 0-.107-.258.35.35 0 0 0-.253-.105zm.88 0a.358.358 0 0 0-.257.105.347.347 0 0 0-.108.259c0 .105.036.194.108.264.072.07.158.104.256.104a.357.357 0 0 0 .36-.368.353.353 0 0 0-.105-.26.351.351 0 0 0-.255-.104zm13.829 0a.348.348 0 0 0-.254.105.352.352 0 0 0-.106.259.357.357 0 0 0 .36.368.36.36 0 0 0 .36-.369.35.35 0 0 0-.106-.258.35.35 0 0 0-.254-.105zm.88 0a.357.357 0 0 0-.256.105.348.348 0 0 0-.11.259c0 .105.037.194.11.264.071.07.157.104.256.104a.358.358 0 0 0 .36-.368.354.354 0 0 0-.107-.26.348.348 0 0 0-.253-.104z"/></svg>