<svg role="img" viewBox="0 0 64 64" xmlns="http://www.w3.org/2000/svg"><title>XiamenAir</title><path d="M10.234 33.649c-1.043.047-1.96-.35-1.45-1.351.508-1.002 3.002-2.154 3.821-2.52H8.01c-.157 0-.352-.027-.472.33-.088.265-.5 1.294-1.418 1.616-1.135.399-2.082-.253-3.524-1.396-.538-.427-.626-.465-1.146-.38-.267.044-.846-.098-1.016-.138A1.471 1.471 0 0 0 0 29.787c0 .019 1.045.17 3.064 1.614.767.55 2.136 1.62 3.56 2.238 1.538.668 3.772 1.026 5.818-.398l.006-.084c0 .038-1.17.466-2.214.492" fill="#008CD5"/><path d="M25.155 29.776a1.561 1.561 0 0 1-.106.303h-.144c-.187 0-.317.14-.317.35v1.085h-.216v.317h.216c-.008.556-.039 1.147-.217 1.705h.406c.114-.489.168-1.057.173-1.705h.647v1.311c0 .05-.04.084-.092.084h-.345l.13.31h.35c.242 0 .332-.15.332-.312v-2.809c0-.221-.15-.336-.332-.336h-.178c.047-.1.077-.203.105-.303zm1.485 0c.067.224.13.359.183.499h-.743v.315h2.02v-.315h-.83a5.36 5.36 0 0 1-.218-.5Zm4.513 0c.029.096.071.194.124.299h-1.246c-.357 0-.476.24-.476.455v.418h.375v-.431c0-.083.038-.124.123-.124h.712c-.25.745-1.142 1.18-1.142 1.18h.73c.426-.325.733-.761.854-1.18h.364v.672c0 .092.03.2.088.267a.4.4 0 0 0 .293.133h1l.131-.321h-1.01c-.04 0-.085-.038-.085-.101v-.65h.726c.082 0 .12.05.12.124v.431h.375v-.418c0-.221-.135-.455-.486-.455h-.977a1.599 1.599 0 0 1-.138-.299zm-12.664 0v3.773h.139v-3.772zm5.13 0v3.773h.139v-3.772zm5.13 0v3.773h.139v-3.772zm-7.865.033v.31h1.579c.061 0 .102.052.102.103v2.897c0 .065-.035.104-.094.104h-.565l.15.311h.518c.218 0 .376-.093.376-.336v-3.022a.346.346 0 0 0-.137-.289.402.402 0 0 0-.239-.078zm-1.556 0v.231c0 .164.095.35.376.35h.916v-.287h-.805c-.05 0-.102-.034-.102-.084v-.21zm-4.646.077c-.27 0-.399.139-.399.395v1.798c0 .539-.045.943-.168 1.468h.415c.086-.38.134-.838.134-1.224v-2.07c0-.05.033-.08.09-.08h3.044v-.287zm19.592.076 1.156 1.647-1.362 1.94h.82l.952-1.356.952 1.356h.82l-1.362-1.94 1.157-1.647h-.821l-.746 1.064-.746-1.064zm3.932 0v3.587h.731v-3.587zm2.726 0-1.41 3.587h.73l.287-.728h1.545l.286.728h.732l-1.438-3.587zm2.952 0-.343 3.587h.73l.24-2.493 1.224 2.493h.045l1.206-2.492.238 2.492h.732l-.343-3.587h-.794l-1.071 2.226-1.07-2.226H43.98zm4.835 0v3.587h2.393v-.482H49.45v-1.116h1.315v-.48H49.45v-1.027h1.541v-.481h-2.076zm3.131 0v3.587h.732v-2.5l2.171 2.5h.46v-3.587h-.731v2.25l-1.945-2.25zm5.44 0-1.447 3.587h.411l.397-.984h1.71l.397.984h.411l-1.468-3.587zm2.58 0v3.587h.412v-3.587zm1.423 0v3.587h.412v-1.726h.843l1.041 1.726H64l-1.061-1.761c.433-.11.716-.467.717-.894-.002-.515-.414-.932-1.008-.932h-.943zm.412.31h.897c.396 0 .676.278.677.622 0 .346-.28.62-.677.62h-.897zm-46.897.05v.253h1.358c-.024.058-.05.112-.08.176h-.72c-.217 0-.34.17-.34.34v.8c0 .179.15.334.33.334h.171a4.001 4.001 0 0 1-.794.761h.538c.063-.052.119-.1.167-.145.168.089.344.18.529.272 0 0-.892.337-1.226.43 1.028 0 1.032.004 1.032.004l.595-.238s.44.21.535.237h.894c-.28-.094-.998-.411-.998-.411.159-.066.535-.215.68-.283.101-.048.16-.135.16-.229a.205.205 0 0 0-.008-.062c-.028-.1-.13-.163-.248-.163h-1.525c.07-.082.107-.125.142-.173h1.254c.166 0 .326-.139.326-.338v-.806a.334.334 0 0 0-.337-.33h-.745l.084-.176h1.216v-.253zm10.216.078h.497c.053 0 .075.04.075.075l.001 1.04h-.647v-1.041c0-.056.048-.074.074-.074zm32.483.046.73 1.81h-1.46zm-38.179.14v2.948h.384v-2.948zm5.713.072c.031.205.07.399.143.647h.325c-.064-.206-.13-.417-.161-.647zm16.27.2.584 1.482h-1.167zm-14.652.125c-.192 0-.35.154-.35.367v.756c0 .614-.08 1.078-.34 1.43h.461c.188-.375.266-.837.266-1.24v-.919c0-.04.028-.074.08-.074h.487c.06 0 .078.045.078.07V33.1c0 .135.026.236.08.308.06.087.164.129.313.129h.3l.139-.328h-.364c-.05 0-.086-.035-.086-.08V31.35c0-.154-.094-.367-.376-.367zm-11.181.006h1.645c.05 0 .08.028.08.077v.101h-1.797v-.106c0-.037.032-.072.072-.072zm-.072.408h1.798v.178h-1.798Zm14.435.372v.316h1.352V33.2h-1.665v.31h3.709v-.31H31.57v-1.116h1.355v-.316Zm-14.435.04h1.798v.107a.073.073 0 0 1-.072.07h-1.645c-.05 0-.08-.027-.08-.076zm9.614.232c.03.273.07.49.147.737h.329a3.688 3.688 0 0 1-.155-.737zm-9.392.612h1.49c-.247.11-.482.204-.724.297a14.65 14.65 0 0 1-.322-.157h-.583l.139-.14z" fill="#004384"/></svg>