<svg role="img" viewBox="0 0 64 64" xmlns="http://www.w3.org/2000/svg"><title>XiamenAir</title><path d="M25.154 29.775a1.57 1.57 0 0 1-.105.305h-.145c-.187 0-.316.14-.316.35v1.084h-.215v.318h.215c-.008.556-.038 1.146-.217 1.703h.406c.115-.488.17-1.055.174-1.703h.647v1.31c0 .05-.042.085-.094.085h-.344l.131.308h.35c.241 0 .33-.15.33-.31v-2.809c0-.222-.148-.336-.33-.336h-.18c.047-.1.078-.204.105-.305h-.412zm1.487 0c.067.225.128.36.181.5h-.742v.315h2.022v-.315h-.832a5.279 5.279 0 0 1-.217-.5h-.412zm4.511 0c.03.097.072.195.125.3h-1.246c-.357 0-.476.241-.476.456v.416h.375v-.43c0-.082.038-.124.123-.124h.713c-.25.745-1.143 1.181-1.143 1.181h.73c.426-.325.733-.762.854-1.181h.363v.671c0 .092.03.201.088.268.07.085.194.133.295.133h.998l.133-.32h-1.01c-.04 0-.086-.039-.086-.102v-.65h.725c.082 0 .121.05.121.125v.43h.375v-.417c0-.221-.135-.457-.486-.457h-.977a1.611 1.611 0 0 1-.139-.299h-.455zm-23.142.002c-.157 0-.353-.026-.473.33-.089.266-.501 1.296-1.418 1.618-1.135.399-2.082-.255-3.525-1.397-.538-.427-.624-.464-1.145-.379-.266.044-.845-.098-1.015-.138A1.47 1.47 0 0 0 0 29.787c0 .02 1.046.17 3.064 1.613.768.55 2.135 1.62 3.559 2.239 1.539.668 3.773 1.026 5.818-.397.003-.028.004-.058.006-.086 0 .038-1.168.466-2.213.492-1.042.047-1.96-.35-1.45-1.351.507-1.002 3.002-2.152 3.821-2.518l-4.595-.002zm10.478 0v3.772h.139v-3.772h-.139zm5.131 0v3.772h.139v-3.772h-.139zm5.129 0v3.772h.14v-3.772h-.14zm-7.865.032v.31h1.58c.061 0 .101.053.101.104v2.896c0 .065-.034.104-.093.104h-.565l.15.31h.518c.218 0 .375-.092.375-.336v-3.021a.346.346 0 0 0-.137-.29.402.402 0 0 0-.238-.077h-1.691zm-1.555.002v.23c0 .164.096.348.377.348h.916v-.285h-.807c-.05 0-.101-.034-.101-.084v-.21h-.385zm-4.646.076c-.27 0-.399.138-.399.394v1.797c0 .54-.045.944-.168 1.469h.414c.086-.38.135-.837.135-1.223v-2.07c0-.05.034-.082.09-.082h3.045v-.285h-3.117zm19.591.076 1.157 1.646-1.362 1.94h.82l.952-1.356.953 1.356h.82l-1.363-1.94 1.156-1.646h-.82l-.746 1.062-.746-1.062h-.82zm3.932 0v3.586h.733v-3.586h-.733zm2.727 0-1.41 3.586h.73l.287-.729h1.545l.287.729h.73l-1.437-3.586h-.732zm2.953 0-.344 3.586h.73l.239-2.492 1.226 2.492h.043l1.207-2.492.239 2.492h.73l-.342-3.586H46.818l-1.07 2.224-1.07-2.224H43.885zm4.834 0v3.586h2.392v-.483h-1.66v-1.115h1.313v-.48H49.45v-1.028h1.54v-.48h-2.272zm3.13 0v3.586h.733v-2.5l2.172 2.5h.459v-3.586h-.73v2.25l-1.946-2.25h-.687zm5.44 0-1.445 3.586h.41l.396-.985h1.711l.397.985h.412L57.7 29.963h-.412zm2.58 0v3.586h.412v-3.586h-.412zm1.424 0V33.549h.412v-1.725h.844l1.04 1.725H64l-1.06-1.762c.433-.11.715-.465.716-.892-.001-.516-.414-.932-1.008-.932h-1.355zm.412.308h.897c.396 0 .676.28.677.624 0 .345-.281.619-.677.619h-.897V30.27zm-46.896.051v.252h1.357a2.998 2.998 0 0 1-.08.176h-.719a.335.335 0 0 0-.342.342v.799c0 .178.15.334.33.334h.172a4.011 4.011 0 0 1-.795.761h.54c.063-.052.117-.102.165-.146.169.089.345.181.53.273 0 0-.892.337-1.227.43 1.029 0 1.033.004 1.033.004l.594-.238s.44.21.535.238h.895c-.28-.095-.998-.412-.998-.412.159-.066.536-.215.681-.283.101-.048.159-.135.159-.229a.205.205 0 0 0-.008-.062c-.028-.1-.13-.163-.248-.163h-1.524a3.47 3.47 0 0 0 .141-.173h1.254a.333.333 0 0 0 .326-.338v-.805a.336.336 0 0 0-.338-.332h-.744l.084-.176h1.217v-.252h-2.99zm10.216.078h.496c.054 0 .075.04.075.075l.002 1.039h-.647v-1.041c0-.056.048-.073.074-.073zm32.48.047.731 1.809h-1.46l.73-1.809zm-38.177.139v2.947h.385v-2.947h-.385zm5.713.072c.031.205.07.399.143.647h.326c-.064-.207-.13-.417-.162-.647h-.307zm16.271.2.583 1.482h-1.166l.584-1.483zm-14.654.124c-.192 0-.347.155-.347.368v.755c0 .615-.082 1.079-.342 1.43h.46c.188-.375.266-.837.266-1.24v-.918c0-.04.03-.074.082-.074h.487c.059 0 .078.045.078.07v1.725c0 .135.025.237.078.308.061.087.165.13.314.13h.3l.14-.327h-.365c-.051 0-.086-.035-.086-.08v-1.78c0-.154-.093-.367-.375-.367h-.69zm-11.18.006h1.645c.05 0 .08.029.08.078v.1h-1.797v-.105c0-.037.033-.073.073-.073zm-.072.408h1.797v.18h-1.797v-.18zm14.434.374v.314h1.353v1.117H29.53v.309h3.707V33.2H31.57v-1.117h1.356v-.314H29.84zm-14.434.039h1.797v.107c0 .037-.03.07-.07.07h-1.647c-.05 0-.08-.027-.08-.076v-.101zm9.614.232c.03.274.07.49.146.736h.33a3.675 3.675 0 0 1-.154-.736h-.322zm-9.393.611h1.49c-.246.11-.482.204-.724.297-.073-.032-.32-.156-.32-.156h-.585l.139-.14z"/></svg>