<svg role="img" viewBox="0 0 64 64" xmlns="http://www.w3.org/2000/svg"><title>Bamboo Airways</title><path d="M34.9355 28.9785c-.8421 0-1.5631.202-2.166.6055-.6434.4315-.9668.9534-.9668 1.5664v1.7812c0 .6232.3228 1.148.9668 1.5723.5987.4005 1.3203.6016 2.166.6016.832 0 1.555-.2011 2.168-.6016.6434-.4244.9649-.9491.9649-1.5723v-1.7812c0-.613-.3209-1.1349-.9649-1.5664a3.3818 3.3818 0 0 0-1-.457c-.361-.0991-.7507-.1485-1.168-.1485zm7.6368 0c-.8422 0-1.5652.202-2.168.6055-.6434.4315-.9648.9534-.9648 1.5664v1.7812c0 .6232.3208 1.148.9648 1.5723.5987.4005 1.3222.6016 2.168.6016.832 0 1.555-.2011 2.168-.6016.6434-.4244.9648-.9491.9648-1.5723v-1.7812c0-.613-.3209-1.1349-.9649-1.5664a3.3819 3.3819 0 0 0-1-.457c-.361-.0991-.7507-.1485-1.168-.1485zm-32.4961.1113c-.092 0-.8966.013-1.1348.5508-.1904.4292-1.573 3.5633-2.1328 4.8125-.1397.311.0851.5274.4277.5274h.754l.709-1.5957h2.7538s.3832.8626.5235 1.1777c.1402.3157.3925.418.664.418h.9375s-2.129-4.8021-2.3672-5.3399c-.2381-.5377-1.0428-.5508-1.1347-.5508zm-9.3516.0274c-.4829 0-.7246.1852-.7246.5547v4.7558c0 .3695.2417.5547.7246.5547h2.9629c1.183 0 1.9311-.7263 2.0332-1.4765.0865-.6315-.143-1.1276-.5195-1.457.3473-.2896.5789-.7574.537-1.3614-.0477-.6942-.7555-1.5703-2.0507-1.5703Zm14.5078 0c-.465 0-.668.2085-.668.5547v4.7539c0 .5139.4711.5566.7188.5566h.6152V30.461h5.5118v3.9649c0 .5139.469.5566.7168.5566h.6171v-5.8652zm9.9863 0c-.4828 0-.7246.1852-.7246.5547v4.7558c0 .3695.2418.5547.7246.5547h2.963c1.183 0 1.933-.7263 2.0351-1.4765.0865-.6315-.1435-1.1276-.5195-1.457.3473-.2896.5769-.7574.5351-1.3614-.0477-.6942-.755-1.5703-2.0508-1.5703zm9.7168.9297c.807 0 1.4049.3198 1.6543.6797.1331.1916.1426.3226.1426.4628v1.7208c0 .1408-.0095.2693-.1426.4609-.2494.3599-.8467.6816-1.6543.6816-.807 0-1.4048-.3217-1.6542-.6816-.1332-.1916-.1426-.3207-.1426-.461v-1.7207c0-.1408.01-.2712.1425-.4628.2495-.36.8468-.6797 1.6543-.6797zm7.6368 0c.807 0 1.4048.3198 1.6543.6797.133.1916.1425.3226.1425.4628v1.7208c0 .1408-.0095.2693-.1425.4609-.2495.3599-.8468.6816-1.6543.6816-.807 0-1.4048-.3217-1.6543-.6816-.1331-.1916-.1426-.3207-.1426-.461v-1.7207c0-.1408.0095-.2712.1426-.4628.2495-.36.8467-.6797 1.6543-.6797zm-41.2325.1386h2.3477c.6004 0 .7129.4682.7129.6622 0 .1945-.1119.662-.7129.662H1.3398Zm24.4961 0h2.3457c.6005 0 .7149.4682.7149.6622 0 .1945-.1144.662-.7149.662H25.836zm-15.7617.0977.9102 2.039H9.1719Zm-8.7344 2.295h2.3477c.6004 0 .7129.468.7129.662s-.1119.6621-.7129.6621H1.3398Zm24.4961 0h2.3457c.6005 0 .7149.468.7149.662s-.1144.6621-.7149.6621H25.836zm33.375 1.4882c-.2785-.0015-.7811.0086-1.5332.0762-.8547.077-1.7018.2175-1.7949.2324a32.62 32.62 0 0 0-.664.1152c-.6536.1188-1.4602.3055-1.588.336-.1277.0304-.2695.0675-.4062.1015-.3062.0776-.96.254-1.8672.5567-.8284.2763-1.5968.6115-1.6523.6347-.1134.0484-.258.1117-.6406.2871-.1916.0878-1.1688.5509-2.1817 1.211-.5927.3862-1.1946.8701-1.6465 1.2539-.3181.2704-.5612.4897-.6758.5918 0 0 .0809.0113.1036.0137.022.0024.1346.0105.1836.0117.0489.0006.5199-.004.7109-.0117.191-.0078.939-.042 1.5078-.1094.5688-.0675 2.3522-.2986 3.1484-.461.7963-.1617 2.774-.5553 4.4805-1.1074 1.7064-.5515 3.195-1.4061 3.795-2.1582.2793-.3503.4415-.6284.5722-.8672.1498-.274.2526-.4954.3535-.703-.0439-.0013-.1122-.0035-.205-.004zm-43.3105 2.504c-.434 0-.8535.1404-.9824.5116-.0955.2752.0934.538.3047.6407.2256.1092.5114.1249.6738.1171.2166-.0107.617-.0192.6367.2207.0203.2525-.4005.3125-.6602.291-.2178-.0178-.3402-.0654-.4453-.162-.0167-.0156-.058-.086-.1601-.1075-.0764-.0167-.1513-.007-.1895.0078-.0609.0245-.1933.0684-.1933.0684s.1626.5703 1.0859.5703c.9233 0 1.0332-.524 1.0332-.6738 0-.1498-.0953-.3878-.4355-.5137-.3403-.126-.514-.0522-.797-.082-.2822-.0299-.4042-.0815-.4042-.2403 0-.1587.2253-.2652.5273-.2754.302-.0095.4514.0903.504.123.053.033.0722.0746.123.1134.0507.0388.168.0649.248.041.0794-.0245.2227-.08.2227-.08-.0746-.2161-.2834-.3822-.5293-.4747-.1832-.071-.3882-.0957-.5625-.0957zm-14.5156.037c-.0323 0-.3163.0055-.4004.1953-.0669.151-.5544 1.2555-.752 1.6953-.049.1099.0298.1856.1504.1856h.2656l.25-.5625h.9707s.136.3044.1856.416c.0495.111.1389.1465.2344.1465h.33s-.7523-1.691-.8359-1.8809c-.0842-.1892-.3662-.1953-.3984-.1953zm9.9765 0c-.0322 0-.3162.0055-.4004.1953-.0668.151-.5544 1.2555-.752 1.6953-.0489.1099.03.1856.1505.1856h.2656l.25-.5625h.9707s.136.3044.1855.416c.0496.111.139.1465.2344.1465h.3301s-.7524-1.691-.836-1.8809c-.0841-.1892-.3661-.1953-.3984-.1953zm-3.125.0078c-.1641 0-.2343.0736-.2343.1953v1.2325c0 .1313-.0546.1676-.1172.2148-.043.0328-.1853.0918-.3399.0918s-.282-.0493-.3398-.0898c-.0573-.0406-.1172-.0843-.1172-.2168V36.6172h-.2363c-.1642 0-.2344.0735-.2344.1953v1.2305c0 .2465.1153.3834.3027.5117.1874.1283.4413.1719.5977.1719.1564 0 .4543-.0185.7187-.2149.2352.1982.5497.2149.666.2149.1164 0 .4888-.015.7383-.2364.1982-.176.213-.323.213-.4472V36.6172H9.619c-.1641 0-.2363.0735-.2363.1953v1.2305c0 .1313-.0526.1677-.1152.2148-.043.0328-.1853.0918-.3399.0918s-.2839-.0492-.3418-.0898c-.0573-.0406-.1152-.0843-.1152-.2168v-1.4278Zm-5.0332.002c-.1635 0-.2344.0736-.2344.1953v1.6739c0 .1808.1649.1953.252.1953h.2188V36.6172zm1.086 0c-.1636 0-.2344.0736-.2344.1953v1.6739c0 .1808.1668.1953.2539.1953h.2168v-.7227h.5469c.0632 0 .1185.0209.1543.086.0358.065.2697.4854.293.5332.0232.0477.1247.1054.244.1054h.3243s-.3442-.6374-.3711-.6738c-.0269-.0364-.062-.0847-.0918-.1074.0788-.0358.3711-.1531.4434-.5059.0722-.3533-.2132-.6698-.5098-.748-.0868-.0278-.1708-.031-.2246-.0313h-.043zm8.3886 0c-.0567 0-.118.0169-.1406.0664-.0227.0496-.0054.104.0137.1309.019.0269.8242 1.082.8242 1.082v.5938c0 .1808.1668.1933.2539.1933h.2168v-.787l.9766-1.2794h-.3907c-.1086 0-.1946.0471-.252.1211-.0572.074-.5526.7227-.5526.7227h-.0372l-.6445-.8438zm-8.1523.377h.7695c.262 0 .3106.2056.3106.291 0 .0865-.0492.295-.3106.295h-.7695Zm-3.1406.0332.3203.7187h-.6406zm9.9746 0 .3203.7187h-.6387z" fill="#00558E"/><path d="M59.4146 34.0702c-.1003.2077-.2024.4291-.3528.7037-.1307.2387-.2942.5169-.5736.8672-.5998.752-2.0878 1.6056-3.7942 2.1571-1.7065.5515-3.685.9466-4.4813 1.109-.7962.1617-2.579.3927-3.1478.4602-.5688.0674-1.3173.102-1.5083.1098-.191.0078-.6613.0131-.7103.012-.049-.0007-.1617-.0096-.1844-.0114-.022-.0024-.1039-.0137-.1039-.0137s.0335.0173.0812.0328c.0478.0155.1206.034.1671.043.0466.009.16.0292.256.0417.0962.012.5128.058.5784.0645.0657.0066.9646.0955 1.6486.1116.684.0161 2.086.0782 4.2126-.1886 2.0168-.2525 4.6633-.8684 6.6467-1.688 1.9834-.8194 3.118-1.4855 3.7728-1.904.6548-.4183 2.0789-1.3757 2.0789-1.3757-1.9088-.5258-4.2175-.5217-4.5857-.5312z" fill="#4EBCEC"/><path d="M61.1016 24.2246c-.5037.0028-1.1055.0352-1.1055.0352l-.2715 8.627c.0137-.055.2976-.9682.5703-1.965.317-1.1578.6313-2.426.664-2.5585.0616-.2471.503-2.0212.5645-2.2617.0615-.2412.2603-.9885.295-1.3418.0495-.5098-.2142-.5212-.2715-.5254-.1201-.0082-.2774-.0107-.4453-.0098zm-1.8575.0996c-.3008.0376-.5992.091-.8964.168-.5987.1558-1.0015.5244-1.4473.9297-.37.3366-.736.6784-1.0977 1.0234-.0185.018-.0361.0348-.0547.0527l.1329 7.877c.093-.015.9402-.1554 1.7949-.2324 1.0027-.0902 1.5628-.077 1.7383-.0723zm-3.9726 2.6367c-.5533.5402-1.0989 1.094-1.5996 1.627l-.041 6.2383c.1277-.0305.9323-.2172 1.5859-.336zm-1.6094 1.6368a34.2541 34.2541 0 0 0-.7031.7695c-1.0051 1.1382-2.0452 2.3153-3.0528 3.4941l-.2011 3.2578c.0555-.0232.8239-.3584 1.6523-.6347.9073-.3026 1.561-.479 1.8672-.5567zm-35.5586 2.7187V35.1641c0 .4345.3973.4688.6074.4688h.5215v-4.3164zm30.7422 2.8926s-.6753.8256-.957 1.1777c-.0758.095-.278.3554-.543.6778-.7162.8708-1.8673 2.2524-2.0547 2.4804-.2566.3122-.634.7833-.7324.92.1146-.1027.3602-.324.6777-.5938.4519-.3838 1.0519-.8677 1.6446-1.254 1.0128-.66 1.992-1.1212 2.1836-1.2089z" fill="#64AE53"/></svg>