<svg role="img" viewBox="0 0 64 64" xmlns="http://www.w3.org/2000/svg"><title>Brussels Airlines</title><path d="M62.306 24.8535c-.856 0-1.5505.6948-1.5505 1.5518 0 .857.6944 1.5518 1.5505 1.5518.8563 0 1.5505-.6948 1.5505-1.5518 0-.857-.6942-1.5518-1.5505-1.5518zm-5.5134.4226c-.6228 0-1.1278.5058-1.1278 1.1292s.505 1.1284 1.1278 1.1284c.6228 0 1.1285-.505 1.1285-1.1284 0-.6234-.5057-1.1292-1.1285-1.1292zm-5.5127.1165c-.5588 0-1.012.4534-1.012 1.0127 0 .5595.4532 1.0127 1.012 1.0127.5589 0 1.012-.4532 1.012-1.0127 0-.5593-.4531-1.0127-1.012-1.0127zm5.5127 4.5773c-1.0778 0-1.9513.8741-1.9513 1.9527 0 1.0785.8735 1.9533 1.9513 1.9533 1.0777 0 1.952-.8748 1.952-1.9533 0-1.0786-.8743-1.9527-1.952-1.9527zm5.5134.2574c-.9355 0-1.694.759-1.694 1.6953s.7585 1.6954 1.694 1.6954c.9356 0 1.694-.7591 1.694-1.6954s-.7584-1.6953-1.694-1.6953zm-11.026.2467c-.7996 0-1.448.6484-1.448 1.4486 0 .8003.6484 1.4493 1.448 1.4493.7995 0 1.4479-.649 1.4479-1.4493 0-.8002-.6484-1.4486-1.448-1.4486zm5.5126 5.26c-.9415 0-1.7046.7642-1.7046 1.7066 0 .9424.7631 1.706 1.7046 1.706.9418 0 1.7053-.7636 1.7053-1.706s-.7635-1.7066-1.7053-1.7066zm-5.5127.6714c-.5712 0-1.0345.4636-1.0345 1.0352 0 .5717.4633 1.0345 1.0345 1.0345.5713 0 1.0339-.4628 1.0339-1.0345 0-.5716-.4626-1.0352-1.0339-1.0352zm11.026.0225c-.5588 0-1.012.4534-1.012 1.0127 0 .5593.4532 1.0127 1.012 1.0127.559 0 1.0121-.4534 1.0121-1.0127 0-.5593-.4532-1.0127-1.012-1.0127z" fill="#E5002B"/><path d="M37.4796 25.0658v8.3345h1.3117v-8.3345ZM0 25.0744v4.9359c0 2.2926 1.4557 3.4886 3.2525 3.4886 1.8777 0 3.2425-1.2854 3.2425-3.1195 0-1.8432-1.3475-3.1473-3.1083-3.1473-.8534 0-1.617.2967-2.075.7911v-2.9488zm33.778 2.1313c-1.9225 0-3.1625 1.3212-3.1625 3.1823 0 1.6812 1.15 3.1202 3.396 3.1202.7636 0 1.4108-.1443 1.9587-.387v-1.1867c-.6557.2428-1.374.3506-1.8145.3506-1.2036 0-1.9405-.4948-2.1471-1.3937h2.6591c1.195 0 1.7694-.5302 1.7694-1.4473 0-1.3217-1.2127-2.2384-2.659-2.2384zm-12.2266.0086c-1.635 0-2.587.6205-2.587 1.8342 0 1.079.7455 1.5104 1.9136 1.7622 1.3745.2967 1.6438.4947 1.6438.8453 0 .4587-.503.7012-1.3025.7012-.8176 0-1.752-.1798-2.2192-.3777v1.151c.6199.2426 1.5095.3863 2.327.3863 1.5362 0 2.542-.701 2.542-1.915 0-1.0249-.7095-1.5464-1.9764-1.8071-1.2037-.2518-1.5809-.4226-1.5809-.7733 0-.5125.5571-.6654 1.2846-.6654.602 0 1.4106.1262 1.9765.2612V27.475c-.6557-.1887-1.4735-.2606-2.0215-.2606zm5.8937 0c-1.635 0-2.5877.6205-2.5877 1.8342 0 1.079.7456 1.5104 1.9137 1.7622 1.3743.2967 1.6437.4947 1.6437.8453 0 .4587-.5029.7012-1.3024.7012-.8175 0-1.752-.1798-2.2192-.3777v1.151c.6199.2426 1.5095.3863 2.327.3863 1.5362 0 2.542-.701 2.542-1.915 0-1.0249-.7096-1.5464-1.9764-1.8071-1.2037-.2518-1.581-.4226-1.581-.7733 0-.5125.5571-.6654 1.2846-.6654.602 0 1.4107.1262 1.9765.2612V27.475c-.6557-.1887-1.4728-.2606-2.0208-.2606zm15.1007 0c-1.635 0-2.587.6205-2.587 1.8342 0 1.079.7456 1.5104 1.9137 1.7622 1.3743.2967 1.6437.4947 1.6437.8453 0 .4587-.5028.7012-1.3024.7012-.8175 0-1.752-.1798-2.2193-.3777v1.151c.62.2426 1.5096.3863 2.3271.3863 1.5362 0 2.542-.701 2.542-1.915 0-1.0249-.7098-1.5464-1.9764-1.8071-1.2037-.2518-1.581-.4226-1.581-.7733 0-.5125.557-.6654 1.2846-.6654.602 0 1.4105.1262 1.9765.2612V27.475c-.6557-.1887-1.4735-.2606-2.0215-.2606zm-32.43.0807c-1.9135 0-2.5876 1.1692-2.5876 2.1762v3.947H8.84v-3.3358c0-1.061.3324-1.5736 1.4824-1.5736.2335 0 .656.0182.9975.0542v-1.2045c-.3865-.045-.8805-.0635-1.204-.0635zm2.0573.0006v3.5422c0 1.3846.8264 2.6525 2.8119 2.6525 1.9764 0 2.8119-1.2679 2.8119-2.6525v-3.5422h-1.3117v3.308c0 .7373-.1617 1.6187-1.5002 1.6187-1.4105 0-1.5002-.9174-1.5002-1.6187v-3.308zm21.6228 1.0875c.8623 0 1.3838.5123 1.3838.9889 0 .2607-.1975.4498-.512.4498h-2.6684c.1888-1.007.934-1.4387 1.7966-1.4387zM3.2882 28.5c1.123 0 1.8686.7818 1.8686 1.8608 0 1.1059-.7908 1.8706-1.9407 1.8706-1.105 0-1.8594-.7105-1.8594-1.8164 0-1.1509.8175-1.915 1.9315-1.915zm40.6494 7.6321c-.5464 0-.9949.2814-.9949.7885 0 .4692.373.6463.7481.6985l.1965.0271c.3694.0505.5682.1421.5682.3407 0 .2328-.2599.3737-.59.3737-.3504 0-.7263-.1587-.901-.2428v.4095c.2765.1475.5916.2196.903.2196.5463 0 1.0113-.2814 1.0113-.7957 0-.469-.4036-.6393-.8129-.6952l-.1753-.0232c-.328-.047-.5245-.128-.5245-.3374 0-.2309.2309-.377.5682-.377.2242 0 .5757.0685.8202.1442v-.3922s-.3873-.1383-.817-.1383zm-20.0949.043-.9955 2.5268h.4234l.2487-.6442h1.1437l.2487.6442h.4385l-.9975-2.5268zm2.6234 0v2.5268h.4075v-2.5268zm1.8131 0v2.5268h.4075v-1.063h.2057l.8044 1.063h.5047l-.8315-1.063c.514-.0181.8427-.3032.8427-.7329 0-.471-.3144-.7309-.895-.7309zm3.263 0v2.5268h1.8046v-.3863h-1.397v-2.1405zm2.9357 0v2.5268h.4074v-2.5268zm1.7436 0v2.5268h.4075l.002-1.8283 1.4082 1.8283h.3678v-2.5268h-.4074v1.8283L36.59 36.1752zm3.6692 0v2.5268h1.8415v-.383h-1.434v-.6978h1.3613v-.383h-1.3613v-.68h1.4102v-.383Zm-11.204.383h.6205c.3191 0 .4815.1081.4815.348 0 .2437-.1534.3624-.4815.3624h-.6205zm-4.5953.0232.422 1.09h-.844Z" fill="#051446"/></svg>