<svg role="img" viewBox="0 0 64 64" xmlns="http://www.w3.org/2000/svg"><title>Brussels Airlines</title><path d="M62.3066 24.8535c-.856 0-1.5507.6958-1.5507 1.5527 0 .857.6947 1.5508 1.5507 1.5508.8564 0 1.5508-.6938 1.5508-1.5508s-.6944-1.5527-1.5508-1.5527zm-24.8261.213v8.3339h1.3105v-8.334h-1.3105zM0 25.0741v4.9356c0 2.2925 1.4552 3.4882 3.252 3.4882 1.8777 0 3.2421-1.285 3.2421-3.119 0-1.8432-1.3466-3.1466-3.1074-3.1466-.8534 0-1.6161.2966-2.0742.791v-2.9492H0zm56.793.2012c-.6228 0-1.129.5074-1.129 1.1308 0 .6235.5062 1.127 1.129 1.127s1.1289-.5035 1.1289-1.127c0-.6234-.5061-1.1308-1.129-1.1308zm-5.5137.1172c-.5589 0-1.0117.4543-1.0117 1.0136 0 .5595.4528 1.0118 1.0117 1.0118a1.0112 1.0112 0 0 0 1.0117-1.0117c0-.5594-.4529-1.0137-1.0117-1.0137zm-17.502 1.8125c-1.9225 0-3.162 1.3224-3.162 3.1836 0 1.6811 1.1504 3.1191 3.3964 3.1191.7636 0 1.4112-.144 1.959-.3867v-1.1875c-.6557.2427-1.374.3516-1.8145.3516-1.2036 0-1.9418-.4956-2.1484-1.3946h2.6602c1.195 0 1.7695-.5301 1.7695-1.4472 0-1.3217-1.2137-2.2383-2.6602-2.2383zm-12.2265.0097c-1.635 0-2.586.6203-2.586 1.834 0 1.079.746 1.51 1.9141 1.7617 1.3745.2968 1.6426.495 1.6426.8457 0 .4587-.5033.7012-1.3027.7012-.8177 0-1.7516-.179-2.2188-.377v1.1505c.6199.2426 1.5106.3867 2.3281.3867 1.5362 0 2.541-.7021 2.541-1.916 0-1.025-.7097-1.546-1.9765-1.8067-1.2037-.2517-1.5801-.4227-1.5801-.7734 0-.5125.5557-.666 1.2832-.666.6021 0 1.4108.1266 1.9766.2617v-1.1426c-.6557-.1887-1.4735-.2598-2.0215-.2598zm5.8945 0c-1.635 0-2.5879.6203-2.5879 1.834 0 1.079.746 1.51 1.914 1.7617 1.3744.2968 1.6427.495 1.6427.8457 0 .4587-.5013.7012-1.3008.7012-.8175 0-1.7535-.179-2.2207-.377v1.1505c.6199.2426 1.5106.3867 2.3281.3867 1.5362 0 2.541-.7021 2.541-1.916 0-1.025-.7097-1.546-1.9765-1.8067-1.2037-.2517-1.5801-.4227-1.5801-.7734 0-.5125.5577-.666 1.2851-.666.602 0 1.4108.1266 1.9766.2617v-1.1426c-.6557-.1887-1.4735-.2598-2.0215-.2598zm15.0996 0c-1.635 0-2.586.6203-2.586 1.834 0 1.079.746 1.51 1.9141 1.7617 1.3744.2968 1.6426.495 1.6426.8457 0 .4587-.503.7012-1.3027.7012-.8174 0-1.7515-.179-2.2188-.377v1.1505c.62.2426 1.5106.3867 2.3282.3867 1.5362 0 2.541-.7021 2.541-1.916 0-1.025-.71-1.546-1.9766-1.8067-1.2037-.2517-1.58-.4227-1.58-.7734 0-.5125.5556-.666 1.2831-.666.602 0 1.4106.1266 1.9766.2617v-1.1426c-.6557-.1887-1.4735-.2598-2.0215-.2598zm-32.4297.0801c-1.9135 0-2.5879 1.1688-2.5879 2.1758v3.9473h1.3125v-3.336c0-1.061.3325-1.5742 1.4825-1.5742.2335 0 .6565.0187.998.0547v-1.2031c-.3864-.045-.8816-.0645-1.205-.0645zm2.0586 0v3.543c0 1.3846.8251 2.6523 2.8106 2.6523 1.9764 0 2.8125-1.2677 2.8125-2.6523v-3.543h-1.3125v3.3086c0 .7373-.1615 1.6192-1.5 1.6192-1.4105 0-1.5-.918-1.5-1.6192V27.295h-1.3106zm21.6211 1.088c.8623 0 1.3848.5116 1.3848.9882 0 .2607-.1973.4512-.5117.4512H32c.1888-1.007.9323-1.4395 1.795-1.4395zM3.2891 28.5c1.123 0 1.8672.7824 1.8672 1.8613 0 1.106-.7896 1.8711-1.9395 1.8711-1.105 0-1.8594-.7105-1.8594-1.8164 0-1.1509.8177-1.916 1.9317-1.916zm53.5039 1.4707c-1.0778 0-1.9512.8726-1.9512 1.9512 0 1.0785.8734 1.9531 1.9512 1.9531 1.0777 0 1.9511-.8746 1.9511-1.9531 0-1.0786-.8734-1.9512-1.9511-1.9512zm5.5136.2559c-.9355 0-1.6953.759-1.6953 1.6953 0 .9362.7598 1.6953 1.6953 1.6953.9357 0 1.6934-.759 1.6934-1.6953 0-.9364-.7577-1.6953-1.6934-1.6953zm-11.0273.248c-.7995 0-1.4473.647-1.4473 1.4473s.6478 1.4492 1.4473 1.4492 1.4492-.649 1.4492-1.4492-.6497-1.4473-1.4492-1.4473zm5.5137 5.2598c-.9415 0-1.7051.7646-1.7051 1.707 0 .9424.7636 1.705 1.705 1.705.9418 0 1.7051-.7626 1.7051-1.705 0-.9424-.7633-1.707-1.705-1.707zm-12.8555.3984c-.5464 0-.9941.28-.9941.7871 0 .4692.3729.647.748.6992l.1953.0274c.3694.0505.5684.1413.5684.3398 0 .2328-.2597.375-.5899.375-.3504 0-.7257-.16-.9004-.2441v.4101c.2765.1476.591.2188.9024.2188.5463 0 1.0117-.2806 1.0117-.795 0-.469-.4032-.6392-.8125-.6952l-.1758-.0235c-.328-.047-.5254-.1265-.5254-.336 0-.2308.2311-.3788.5684-.3788.2242 0 .5758.0688.8203.1445v-.3926s-.3868-.1367-.8164-.1367zm-20.0957.043-.9941 2.5254h.4238l.248-.6426h1.1426l.25.6426h.4375l-.996-2.5254h-.5118zm2.625 0v2.5254h.4062v-2.5254h-.4062zm1.8125 0v2.5254h.4082v-1.0625h.205l.8048 1.0625h.5039l-.832-1.0625c.514-.0182.8437-.3028.8437-.7325 0-.471-.314-.7304-.8945-.7304h-1.0391zm3.2637 0v2.5254h1.8047v-.3848h-1.3985v-2.1406h-.4062zm2.9355 0v2.5254h.4063v-2.5254h-.4063zm1.7422 0v2.5254h.4082l.002-1.8282 1.4082 1.8282h.3672v-2.5254H38v1.8281l-1.4102-1.8281h-.3691zm3.67 0v2.5254h1.8417v-.3828h-1.4336v-.6973h1.3614v-.3828h-1.3614v-.6797h1.4102v-.3828h-1.8184zm11.3886.2304c-.5712 0-1.0332.4636-1.0332 1.0352 0 .5717.462 1.0332 1.0332 1.0332.5713 0 1.0352-.4615 1.0352-1.0332 0-.5716-.464-1.0352-1.0352-1.0352zm11.0273.0215c-.5588 0-1.0136.4544-1.0136 1.0137s.4548 1.0117 1.0136 1.0117a1.0113 1.0113 0 0 0 1.0118-1.0117c0-.5593-.453-1.0137-1.0118-1.0137zm-33.6191.1309h.6191c.3192 0 .4825.1078.4825.3477 0 .2437-.1543.3632-.4825.3632h-.6191v-.711zm-4.5957.0234.4219 1.0899h-.8438l.4219-1.0899z"/></svg>