<svg role="img" viewBox="0 0 24 24" xmlns="http://www.w3.org/2000/svg"><title>Azerbaijan Airlines</title><path d="m23.755 0-1.6498.0434a72.2466 72.2466 0 0 1-6.1648 6.6205c-2.2402 2.1347-4.492 4.049-6.746 5.934 4.9377-3.331 9.836-7.0616 14.5607-12.5956Zm-.3339 2.3307A100.8345 100.8345 0 0 1 8.4831 13.574 63.4003 63.4003 0 0 0 22.9829 4.29ZM8.4831 13.574l-.041.021v.006zm1.425-9.3251c-7.7574.1453-12.4206 8.9762-7.8744 15.5121 4.6928 6.7467 15.0923 5.143 17.5346-2.7045l-.4523.0223c-2.7527 8.374-14.451 8.762-17.755.5917C-1.943 9.5002 6.737 1.648 14.5367 5.7546l.3375-.2976a9.8747 9.8747 0 0 0-4.2056-1.1952 10.5193 10.5193 0 0 0-.7604-.0129Zm12.7654 1.4272a109.5565 109.5565 0 0 1-15.0961 8.8564c4.895-1.501 9.8107-4.106 14.7364-7.2498Zm-.6046 2.6963a78.978 78.978 0 0 1-15.6164 6.9112c3.9159-.4356 9.1333-2.3956 15.2894-5.4523zm-.5145 2.3037a120.2339 120.2339 0 0 1-15.969 5.3211c4.6946-.4103 9.9867-1.8872 15.703-4.1329Zm-.4148 1.8573A99.1522 99.1522 0 0 1 4.716 16.5995v.0012c4.6172-.0552 9.9314-.926 16.1589-2.886Zm-.4113 1.8304A110.6136 110.6136 0 0 1 3.809 17.1655a62.072 62.072 0 0 0 16.6616-1.6475Z"/></svg>