<svg role="img" viewBox="0 0 64 64" xmlns="http://www.w3.org/2000/svg"><title>Azerbaijan Airlines</title><path d="m17.26 23.1835-1.2129.032a53.0982 53.0982 0 0 1-4.5298 4.8648c-1.646 1.569-3.2999 2.975-4.9558 4.3599 3.6278-2.447 7.2267-5.1878 10.6986-9.2547zm-.2459 1.713a74.0884 74.0884 0 0 1-10.9756 8.2617 46.5844 46.5844 0 0 0 10.6536-6.8218ZM6.0385 33.1581a46.5844 46.5844 0 0 1-.03.015v.004a74.0884 74.0884 0 0 0 .03-.02zm1.606-6.8428a7.2557 7.2557 0 1 0 6.5397 9.4017l-.333.016a6.9498 6.9498 0 1 1-3.3649-8.3207l.248-.219a7.2557 7.2557 0 0 0-3.0899-.878zm8.8206 1.04A80.5002 80.5002 0 0 1 5.3725 33.862c3.5979-1.103 7.2098-3.0169 10.8286-5.3268Zm5.0558 1.363a.262.262 0 0 0-.244.1399l-2.2289 4.3929c-.133.293.354.487.487.213l.598-1.166h2.7759l.575 1.145c.14.288.687.103.495-.215l-2.222-4.3699a.258.258 0 0 0-.236-.14zm3.418 0a.253.253 0 0 0 0 .5059h2.9898l-3.3069 3.9289c-.162.206-.073.443.214.443h3.646a.265.265 0 1 0 0-.528h-3.152l3.3379-3.89c.17-.2219.088-.4599-.215-.4599zm4.9098 0a.326.326 0 0 0-.34.3299v4.2099a.328.328 0 0 0 .34.338h3.1079a.253.253 0 1 0 0-.505h-2.916v-1.665h2.775c.31 0 .295-.491 0-.491h-2.775v-1.726h2.916a.246.246 0 1 0 .007-.4899zm4.6508 0a.255.255 0 0 0-.273.2649v4.3428a.27.27 0 0 0 .538-.008v-1.4679h1.435l1.4909 1.657a.26.26 0 1 0 .369-.363l-1.196-1.324a1.404 1.404 0 0 0 1.314-1.475c0-.886-.65-1.6269-1.927-1.6269zm4.8568 0a.276.276 0 0 0-.274.2759v4.3258a.276.276 0 0 0 .274.277h1.92l.001-.001c.93 0 1.9189-.307 1.9179-1.45a1.2 1.2 0 0 0-.909-1.1879.938.938 0 0 0 .57-.913c0-1.0899-1.064-1.3269-1.75-1.3269zm6.7198 0a.261.261 0 0 0-.244.1399l-2.23 4.3929c-.132.293.354.487.487.213l.599-1.166h2.775l.576 1.145c.14.288.6859.103.495-.215l-2.222-4.3699a.26.26 0 0 0-.236-.14zm5.9498 0a.25.25 0 1 0 0 .4969h1.417v2.6339a1.346 1.346 0 0 1-1.395 1.25 1.144 1.144 0 0 1-.443-.064 1.143 1.143 0 0 1-.76-1.02.273.273 0 0 0-.277-.28.268.268 0 0 0-.196.087.272.272 0 0 0-.074.2 1.701 1.701 0 0 0 1.75 1.58 1.847 1.847 0 0 0 1.904-1.753v-2.8829a.28.28 0 0 0-.266-.248zm4.8648 0a.264.264 0 0 0-.244.1399l-2.2299 4.3929c-.132.293.355.487.488.213l.598-1.166h2.7749l.576 1.145c.14.288.686.103.495-.215l-2.222-4.3699a.257.257 0 0 0-.236-.14zm6.8278.02c-.14.002-.28.084-.28.2399v2.638l.073 1.1249-2.84-3.8369a.316.316 0 0 0-.1519-.148.314.314 0 0 0-.446.305v4.2679a.28.28 0 0 0 .28.28.279.279 0 0 0 .28-.28v-2.63l-.06-1.028 2.7609 3.733c.155.26.665.223.665-.149v-4.2769c0-.164-.14-.242-.28-.24zm-14.3375.01a.277.277 0 0 0-.138.2399v4.3568a.276.276 0 0 0 .087.182.279.279 0 0 0 .466-.182v-4.3568a.277.277 0 0 0-.415-.24zm-9.7577.4689h1.484c.457 0 1.21.17 1.21.829 0 .56-.554.736-1.189.736h-1.505v-1.564zm-4.8588.008h1.493c.856 0 1.3649.499 1.3719 1.12.015.567-.406 1.029-1.372 1.029h-1.493Zm-18.7434.11A58.03 58.03 0 0 1 4.5465 34.414c2.877-.32 6.7108-1.76 11.2336-4.0058Zm30.055.173 1.159 2.3249h-2.326zm10.8146 0 1.16 2.3249h-2.327zm-35.3698 0 1.159 2.3239h-2.325zm-5.8778 1.52A88.345 88.345 0 0 1 3.9097 34.938c3.4488-.301 7.3377-1.387 11.5376-3.0369Zm23.9802.252h1.876c.642 0 1.144.26 1.144.8669 0 .774-.716.95-1.366.95h-1.653zm-24.2851 1.1129A72.8525 72.8525 0 0 1 3.2706 35.381c3.3919-.04 7.2967-.68 11.8726-2.12zm-.301 1.345A81.2772 81.2772 0 0 1 2.6036 35.797a45.6094 45.6094 0 0 0 12.2436-1.21Zm35.9247 1.2339c-.624 0-1.4.303-1.4.98 0 .765.756.832 1.461.888.562.047 1.098.083 1.098.53 0 .5179-.674.6519-1.108.6519-.409 0-.976-.094-1.108-.52v.001c-.041-.21-.44-.134-.378.092.168.616.967.796 1.487.796.628 0 1.501-.24 1.501-1.026 0-.77-.75-.807-1.45-.868-.593-.046-1.104-.093-1.104-.54 0-.467.664-.605 1.006-.605.367 0 .915.066 1.068.457.077.174.424.082.347-.123-.215-.586-.884-.714-1.42-.714zm-4.1888.002a.228.228 0 0 0-.09.015.224.224 0 0 0-.145.216v2.9499a.227.227 0 0 0 .235.236h2.1509c.245 0 .214-.355 0-.355h-2.018l-.002-1.165h1.921c.214 0 .204-.344 0-.344h-1.92v-1.209h2.017a.173.173 0 0 0 .005-.344zm-3.5299 0a.218.218 0 0 0-.26.229v2.9999a.194.194 0 1 0 .387 0v-1.847l-.04-.723 1.911 2.623c.108.183.46.156.46-.105v-3.004c0-.23-.388-.22-.388 0l-.001 1.852.05.79-1.966-2.696a.218.218 0 0 0-.152-.119zm-7.4667.005a.177.177 0 0 0-.188.185V38.2a.186.186 0 0 0 .372-.005V37.17h.99l1.0339 1.16a.18.18 0 0 0 .305-.05.18.18 0 0 0-.05-.205l-.828-.925a.979.979 0 0 0 .91-1.033c0-.617-.45-1.137-1.334-1.137zm-3.538 0a.18.18 0 0 0-.168.098l-1.5429 3.0719c-.092.207.245.341.337.15l.414-.816h1.92l.4.801c.097.201.475.072.341-.15l-1.537-3.057a.179.179 0 0 0-.164-.097zm9.7047.015a.192.192 0 0 0-.093.174h-.001v3.0549a.192.192 0 0 0 .384 0v-3.055a.192.192 0 0 0-.29-.174zM39.0393 35a.19.19 0 0 0-.095.163v3.0339a.17.17 0 0 0 .194.194v.001h2.094a.176.176 0 1 0 0-.349h-1.91v-2.88a.19.19 0 0 0-.283-.163zm-4.5138.003a.192.192 0 0 0-.096.166v3.0549a.192.192 0 0 0 .384 0v-3.055a.192.192 0 0 0-.288-.166zm1.435.331h1.033a.84.84 0 0 1 .9499.783c.01.397-.281.72-.95.72h-1.034zm-3.722.198.802 1.627h-1.6089zM19.021 36.87v.26h9.8777v-.26zm35.1038 0v.26h9.8607v-.26z"/></svg>