<svg role="img" viewBox="0 0 64 64" xmlns="http://www.w3.org/2000/svg"><title>Azerbaijan Airlines</title><path d="M7.6445 26.3145a7.2558 7.2558 0 1 0 6.539 9.4023l-.332.0156a6.9507 6.9507 0 1 1-3.3652-8.3203l.248-.2187a7.2558 7.2558 0 0 0-3.0898-.879zm13.877 2.4043a.2619.2619 0 0 0-.2442.1406L19.0488 33.25c-.1331.2936.3537.4882.4864.2148l.5976-1.166h2.7754l.5762 1.1426c.1406.2883.6878.1045.496-.2129l-2.2226-4.3691a.2588.2588 0 0 0-.2363-.1407zm3.418 0a.253.253 0 1 0 0 .5039h2.9902l-3.3067 3.9296c-.1626.2068-.0745.4434.213.4434h3.6464a.2645.2645 0 0 0 0-.5273h-3.1523l3.3379-3.8907c.1697-.2217.0875-.459-.2149-.459h-3.5136zm4.9101 0a.3262.3262 0 0 0-.3398.33v4.209a.3284.3284 0 0 0 .3398.3379h3.1074a.2535.2535 0 0 0 0-.5059h-2.916v-1.664h2.7754c.3104 0 .2954-.4903 0-.4903H30.041V29.209h2.916a.2456.2456 0 1 0 .0078-.4902h-3.1152zm4.6504 0a.2548.2548 0 0 0-.2734.2636v4.3418a.2695.2695 0 0 0 .539-.0058v-1.4688h1.4336l1.4903 1.6563a.2601.2601 0 1 0 .369-.3614l-1.1952-1.3242a1.4036 1.4036 0 0 0 1.3144-1.4765c0-.8857-.6506-1.625-1.9277-1.625H34.5zm4.8574 0a.2764.2764 0 0 0-.2734.2753v4.3262a.276.276 0 0 0 .2734.2754h1.92c.9297 0 1.9192-.307 1.918-1.4492a1.2004 1.2004 0 0 0-.9083-1.1895.9381.9381 0 0 0 .5684-.912c0-1.0894-1.0617-1.3263-1.748-1.3263h-1.75zm6.7188 0a.2605.2605 0 0 0-.2442.1406L43.6035 33.25c-.1327.2936.3532.4882.4863.2148l.5997-1.166h2.7753l.5743 1.1426c.1406.2883.6874.1045.496-.2129l-2.2226-4.3691a.2592.2592 0 0 0-.2363-.1407zm5.9511 0a.25.25 0 1 0 0 .496h1.416v2.6348a1.3463 1.3463 0 0 1-1.3945 1.248 1.1449 1.1449 0 0 1-1.2031-1.084.272.272 0 0 0-.08-.1972.2746.2746 0 0 0-.3927.0059.2724.2724 0 0 0-.0742.1992 1.7008 1.7008 0 0 0 1.75 1.582 1.8471 1.8471 0 0 0 1.9043-1.7539v-2.8828a.2808.2808 0 0 0-.2656-.248h-1.6602zm4.8653 0a.2605.2605 0 0 0-.2442.1406L54.418 33.25c-.1327.2936.3556.4882.4883.2148l.5976-1.166h2.7754l.5762 1.1426c.1402.2883.6859.1045.4941-.2129l-2.2226-4.3691a.2583.2583 0 0 0-.2344-.1407zm6.8281.0195c-.14.0019-.2812.0837-.2812.2402v2.6367l.0722 1.125-2.8398-3.8359a.3156.3156 0 0 0-.1504-.1484.3143.3143 0 0 0-.4473.3046v4.2676a.2803.2803 0 0 0 .5606 0v-2.6289l-.0586-1.0273 2.7597 3.7324c.1552.261.6641.2221.6641-.1504v-4.2754c0-.164-.1392-.242-.2793-.2402zm-14.3379.0097a.2768.2768 0 0 0-.1387.2403v4.3555a.2764.2764 0 0 0 .088.1835.2786.2786 0 0 0 .4648-.1835v-4.3555a.2768.2768 0 0 0-.414-.2403zm-9.7578.4688h1.4824c.4576 0 1.211.169 1.211.8281 0 .5599-.5547.7364-1.1895.7364H39.625v-1.5645zm-4.8594.0078h1.4922c.8561 0 1.366.4984 1.373 1.1192.015.5673-.4062 1.0292-1.373 1.0292h-1.4922v-2.1484zm-13.2441.2832 1.1601 2.3242h-2.3261l1.166-2.3242zm24.5547 0 1.1582 2.3262h-2.3242l1.166-2.3262zm10.8164 0 1.1582 2.3262h-2.3242l1.166-2.3262zM39.625 31.2793h1.873c.6423 0 1.1446.261 1.1446.8672 0 .7741-.7155.9512-1.3653.9512H39.625v-1.8184zm11.3379 3.6914c-.6238 0-1.4004.3029-1.4004.9805 0 .7648.756.8322 1.461.8886.5616.0463 1.0976.0828 1.0976.5293 0 .519-.6732.6524-1.1074.6524-.4087 0-.9748-.0933-1.1075-.5195-.041-.2108-.4401-.1324-.3789.0937.1684.6159.9662.795 1.4864.795.6282 0 1.502-.2418 1.502-1.0274 0-.7706-.7512-.8055-1.4512-.8672-.5925-.0459-1.1036-.0925-1.1036-.539 0-.4674.6662-.6055 1.0078-.6055.3677 0 .9135.0664 1.0665.457.0767.1741.4243.082.3476-.123-.2147-.586-.8838-.7149-1.42-.7149zm-7.7188.004a.2178.2178 0 0 0-.2597.2284v3a.194.194 0 0 0 .3867 0v-1.8476l-.039-.7227 1.91 2.623c.1072.1834.459.156.459-.1054v-3.004c0-.23-.3866-.2195-.3866 0l-.002 1.8516.0508.791-1.9668-2.6953a.2178.2178 0 0 0-.1524-.119zm3.5293 0a.2266.2266 0 0 0-.0898.0136.224.224 0 0 0-.1445.2168v2.9492a.2284.2284 0 0 0 .2343.2363h2.1504c.2456 0 .2147-.3535 0-.3535h-2.0175v-1.166h1.9199c.2147 0 .2045-.3438 0-.3438h-1.92v-1.209h2.0176a.1728.1728 0 0 0 .004-.3437h-2.1544zm-14.5332.0038a.1807.1807 0 0 0-.1699.0977l-1.543 3.0722c-.0925.2068.2458.3418.338.1504l.414-.8144h1.92l.4003.7988c.097.201.475.0718.3418-.1504l-1.539-3.0566a.179.179 0 0 0-.1622-.0977zm3.5371 0a.1768.1768 0 0 0-.1875.1856v3.037a.187.187 0 0 0 .3711-.0058V37.17l.9922-.002 1.0313 1.1602a.1807.1807 0 1 0 .2558-.2539l-.828-.9258a.9778.9778 0 0 0 .91-1.0332c0-.6171-.4505-1.1367-1.334-1.1367h-1.2109zm6.166.0156a.1918.1918 0 0 0-.0917.1739h-.002v3.0547a.1924.1924 0 0 0 .3848 0V35.168a.1918.1918 0 0 0-.291-.1739zm-2.9042.004a.1891.1891 0 0 0-.0938.164v3.0332a.1706.1706 0 0 0 .1934.1953h2.0957a.1759.1759 0 1 0 0-.3476h-1.9121V35.162a.1891.1891 0 0 0-.2832-.164zm-4.5137.0039a.1918.1918 0 0 0-.0957.166v3.0547a.1924.1924 0 0 0 .3848 0V35.168a.1918.1918 0 0 0-.2891-.166zm1.4375.332h1.0312a.8402.8402 0 0 1 .9493.7812c.0101.3972-.2816.7207-.9512.7207h-1.0293v-1.502zm-3.7246.1972.8027 1.627h-1.6094l.8067-1.627z" fill="#082E6A"/><path d="m17.2598 23.1836-1.211.0312a53.086 53.086 0 0 1-4.5312 4.8653c-1.6461 1.5685-3.3008 2.9742-4.957 4.3594 3.628-2.4476 7.2276-5.1877 10.6992-9.254v-.002zm-.2442 1.7129a74.092 74.092 0 0 1-10.9804 8.2637 46.5857 46.5857 0 0 0 10.6582-6.8243l.3222-1.4394zM6.0352 33.1602a46.5857 46.5857 0 0 1-.0274.0136v.004a74.092 74.092 0 0 0 .0274-.0176zm9.3027-.7676a72.8558 72.8558 0 0 1-12.0684 2.9883c3.3927-.0406 7.2991-.681 11.875-2.1211l.1934-.8672zm-.3008 1.3457a81.2776 81.2776 0 0 1-12.4336 2.0586 45.6097 45.6097 0 0 0 12.2442-1.211l.1894-.8476zm3.9844 3.1308v.2598h9.877v-.2598h-9.877zm35.1035 0v.2598h9.8613v-.2598H54.125z" fill="#0098DA"/><path d="M16.4668 27.3535A80.5008 80.5008 0 0 1 5.373 33.8613c3.5969-1.103 7.2089-3.0161 10.8282-5.3261l.2656-1.1817zm-.8223 3.6738a88.3465 88.3465 0 0 1-11.7343 3.9122c3.4495-.3016 7.3368-1.389 11.537-3.0391l.1973-.873z" fill="#51C2E1"/><path d="M4.5469 34.4139a58.0321 58.0321 0 0 0 11.4741-5.078l-.2398 1.0716c-4.5234 2.2461-8.357 3.6863-11.2343 4.0064Z" fill="#9FD7E0"/></svg>