<svg role="img" viewBox="0 0 64 64" xmlns="http://www.w3.org/2000/svg"><title>Asiana Airlines</title><path d="M62.861 25.986c-.146 0-.267.027-.449.086-.109.034-5.936 2.204-6.433 2.39-.5.186-.774.584-.772 1.02 0 .123.02.248.066.366.216.533.762.858 1.452.58l4.757-1.914s-1.809 4.58-1.875 4.752c-.263.656.052 1.251.592 1.45.12.044.242.065.365.063.437-.004.825-.26 1.014-.777.03-.078 2.288-6.284 2.34-6.434.028-.087.082-.297.082-.44 0-.306-.115-.596-.334-.814a1.114 1.114 0 0 0-.805-.328zM6.596 32.641c-.906 0-1.77.52-1.77 1.513 0 .44.176.823.526 1.094.374.283.93.48 1.369.666.212.087.616.24.724.459.038.08.065.137.065.227 0 .41-.493.548-.824.548-.434 0-.811-.176-.979-.591a1.43 1.43 0 0 1-.09-.403h-.959c.016.205.023.404.082.602.255.898 1.06 1.258 1.934 1.258.656 0 1.315-.207 1.65-.813l.002-.004c.132-.233.2-.504.2-.777 0-.458-.154-.848-.534-1.117-.381-.271-.997-.468-1.437-.643-.278-.109-.73-.226-.73-.607 0-.382.427-.557.75-.557.454 0 .85.28.843.76h.957c-.014-.253-.042-.476-.152-.71-.284-.626-.975-.905-1.627-.905zm47.974.002c-.905 0-1.77.517-1.77 1.513 0 .439.175.82.528 1.09.373.285.93.483 1.367.666.214.086.614.24.725.461.036.08.066.137.066.227 0 .41-.496.546-.826.546-.431 0-.81-.174-.978-.591a1.578 1.578 0 0 1-.09-.405h-.96c.015.205.022.406.083.602.256.9 1.062 1.26 1.93 1.26.656 0 1.315-.207 1.654-.81l.002-.003c.13-.233.195-.505.195-.773 0-.462-.152-.85-.533-1.121-.38-.271-.995-.468-1.436-.643-.276-.11-.732-.228-.732-.61 0-.38.433-.556.756-.556.454 0 .85.279.842.762h.959c-.018-.255-.044-.478-.155-.711-.287-.63-.974-.904-1.627-.904zm-25.906.1-1.75 5.165h1.025l.323-1.076h1.824l.32 1.076h1.026l-1.756-5.166h-1.012zm3.3 0v5.165h.997v-5.166h-.996zm1.89 0v5.165h.996v-1.976h.716l1.055 1.976h1.156l-1.187-2.144c.602-.278.916-.75.916-1.432 0-.683-.352-1.225-1.002-1.459-.398-.146-.839-.13-1.252-.13h-1.398zm4.421 0v5.165h3.262v-.847h-2.246v-4.319h-1.016zm3.848 0v5.165h.996v-5.166h-.996zm1.889 0v5.165h.945v-3.635l2.164 3.635h.996v-5.166h-.943v3.635l-2.102-3.635h-1.06zm4.992 0v5.165h3.336v-.847h-2.342v-1.409h2.057v-.847h-2.057V33.59h2.262v-.848h-3.256zm-47.254.001L0 37.91h1.025l.323-1.074H3.17l.32 1.074h1.022l-1.754-5.166H1.75zm7.453 0v5.166h.994v-5.166h-.994zm3.26 0-1.748 5.166h1.021l.323-1.074h1.824l.32 1.074h1.027l-1.757-5.166h-1.01zm3.133 0v5.166h.943v-3.637l2.166 3.637h.998v-5.166h-.943v3.637l-2.102-3.637h-1.062zm6.222 0L20.07 37.91h1.026l.32-1.074h1.822l.325 1.074h1.021l-1.756-5.166h-1.01zm13.03.848h.476c.24 0 .55-.008.77.096l-.002.001c.264.118.394.344.394.63 0 .623-.458.767-.986.767h-.652v-1.494zm-21.88.287.665 2.107h-1.324l.66-2.107zm16.202 0 .666 2.105h-1.324l.658-2.105zm-26.914.004.666 2.103H1.598l.658-2.103zm20.068 0 .666 2.103h-1.324l.658-2.103z"/></svg>