<svg role="img" viewBox="0 0 64 64" xmlns="http://www.w3.org/2000/svg"><title>Asiana Airlines</title><path d="M55.208 29.482c0 .123.02.247.066.365.215.533.76.859 1.45.581l4.758-1.914s-1.81 4.58-1.875 4.751c-.264.656.051 1.252.591 1.451.12.043.243.064.366.063.436-.004.825-.26 1.014-.777a3656.8 3656.8 0 0 0 2.34-6.435c.028-.087.082-.295.082-.438 0-.307-.114-.597-.333-.815a1.116 1.116 0 0 0-.806-.327c-.146 0-.267.026-.449.085-.109.034-5.937 2.203-6.434 2.39-.5.186-.774.583-.772 1.02" fill="#E60013"/><path d="M6.596 32.64c-.905 0-1.77.522-1.77 1.515 0 .44.177.822.526 1.092.374.284.93.482 1.369.667.212.087.615.24.724.46.037.08.065.137.065.226 0 .41-.493.55-.825.55-.433 0-.81-.177-.978-.593a1.432 1.432 0 0 1-.09-.402H4.66c.016.205.023.402.082.6.255.898 1.059 1.259 1.932 1.259.656 0 1.317-.207 1.652-.813l.002-.003c.132-.234.198-.505.198-.777 0-.458-.153-.849-.533-1.118-.381-.271-.996-.469-1.436-.643-.279-.11-.731-.225-.731-.606 0-.382.427-.558.75-.558.454 0 .85.28.843.76h.957c-.014-.254-.043-.475-.153-.709-.284-.627-.973-.907-1.625-.907Zm47.974.002c-.905 0-1.77.518-1.77 1.515 0 .438.175.818.528 1.089.373.285.93.483 1.367.666.214.086.615.24.725.46.036.08.066.138.066.227 0 .41-.497.547-.826.547-.432 0-.811-.175-.979-.592a1.568 1.568 0 0 1-.09-.403h-.958c.014.205.021.405.082.6.257.9 1.062 1.261 1.93 1.261.658 0 1.317-.207 1.656-.813l-.002.002c.132-.233.198-.506.198-.775 0-.462-.154-.85-.535-1.121-.38-.271-.994-.469-1.435-.644-.276-.11-.732-.226-.732-.607 0-.382.433-.558.755-.558.455 0 .85.278.842.76h.96c-.017-.254-.044-.475-.155-.709-.287-.629-.974-.905-1.627-.905Zm-25.906.1-1.75 5.167h1.025l.323-1.077h1.823l.321 1.077h1.025l-1.756-5.167Zm3.301 0v5.167h.995v-5.167Zm1.888 0v5.167h.996v-1.977h.717l1.055 1.977h1.156l-1.187-2.145c.603-.278.915-.75.915-1.433 0-.682-.351-1.224-1.002-1.457-.397-.147-.838-.132-1.251-.132zm4.422 0v5.167h3.263v-.849h-2.247v-4.318Zm3.848 0v5.167h.996v-5.167Zm1.889 0v5.167h.944v-3.636l2.166 3.636h.995v-5.167h-.943v3.636l-2.102-3.636zm4.992 0v5.167h3.337v-.849h-2.342v-1.408h2.056v-.846H50V33.59h2.261v-.848Zm-47.254.002L0 37.91h1.025l.322-1.075h1.824l.318 1.075h1.023L2.76 32.744Zm7.454 0v5.167h.994v-5.167Zm3.26 0-1.749 5.167h1.021l.323-1.075h1.823l.321 1.075h1.027l-1.758-5.167Zm3.131 0v5.167h.945v-3.638l2.165 3.638h.998v-5.167h-.943v3.637l-2.101-3.637zm6.224 0L20.07 37.91h1.025l.32-1.075h1.824l.323 1.075h1.023l-1.758-5.167Zm13.028.848h.476c.24 0 .551-.009.77.095l-.002.002c.264.117.396.344.396.629 0 .624-.46.768-.987.768h-.653zm-21.879.287.665 2.107h-1.325zm16.202 0 .665 2.105h-1.324zm-26.915.003.666 2.104H1.597Zm20.07 0 .665 2.104h-1.325z" fill="#4A4F54"/></svg>