<svg role="img" viewBox="0 0 64 64" xmlns="http://www.w3.org/2000/svg"><title>HK Express</title><path fill="#702b91" d="M13.51 23.563c-2.022-.013-4.662 1.064-6.78 4.202-1.467 1.953-3.782 8.712 2.706 11.952 5.834 2.55 11.049-2.489 11.049-2.489l-2.134-2.722s-2.649 2.462-5.369 2.462c-3.212 0-4.123-2.287-4.28-2.746-.925-2.692 1.516-5.86 3.14-6.719.662-.35 1.598-.703 2.307-.326.024.013.305.18-.137.976-.283.51-1.73 2.453-4.195 2.848-.819 1.749-.42 2.924-.088 3.488 1.771-.13 3.447-.806 4.991-2.017l.036-.03c1.36-1.13 3.534-3.418 2.829-6.036-.395-1.46-1.609-2.497-3.249-2.773a5.212 5.212 0 0 0-.825-.07zm20.092 2.341c-.511.004-1.204.176-1.843.887 0 0-1.107 1.191-.65 2.703.5 1.657 1.998 2.05 3.409 1.93 1.416-.12 2.68-1.052 3.53-1.781l1.098 1.638h1.469l-1.695-2.493c.754-.871 1.33-1.805 1.624-2.633l.012-.031H39.15l-.007.013a8.418 8.418 0 0 1-1.004 1.535l-1.08-1.548H35.59l1.726 2.472c-.46.408-1.786 1.437-2.927 1.635-.85.148-1.529-.16-1.918-.654a1.071 1.071 0 0 1-.24-.65c-.005-.606.43-1.16.512-1.262.285-.313.587-.466.853-.517a.93.93 0 0 1 .464.02c.164.056.503.176.01.649-.468.368-.808.387-1.155.422-.483.773-.104 1.156.124 1.202.835.091 1.566-.33 1.959-.694.298-.276.758-.853.5-1.63-.174-.52-.632-.939-1.225-1.12a2.28 2.28 0 0 0-.672-.093zm9.455.085c-1.098.02-1.92.706-1.92.706l-.002 6.628h1.325V27.29a1.99 1.99 0 0 1 .648-.123c1.048 0 1.48.837 1.48 1.628 0 .979-.864 1.514-1.668 1.34l-.002 1.27c2.72.174 3.04-2.06 3.042-2.716.03-1.474-.972-2.63-2.68-2.694a2.662 2.662 0 0 0-.223-.005zm9.784.004a2.554 2.554 0 0 0-1.978.877c-.885 1.05-1.028 2.466-.289 3.475 1.249 1.712 3.366 1.011 4.133.493l-.748-1.072c-.464.343-1.502.717-2.183.179a1.16 1.16 0 0 1-.442-.849c-.04-.66.42-1.236.512-1.353.472-.52.99-.597 1.32-.497.442.136.224.437.027.63-.455.448-1.161.441-1.161.441-.288.475-.358.899-.03 1.192.652.108 1.463-.1 2.1-.683.694-.641.611-1.296.5-1.63-.173-.52-.631-.938-1.224-1.12a1.8 1.8 0 0 0-.537-.083zm4.751.002c-1.356 0-2.239.663-2.248 1.689-.008.777.39 1.262 1.214 1.483l.898.237c.37.096.703.205.7.486-.004.422-.463.476-.863.476-.647 0-1.28-.27-1.642-.459l-.24 1.085c.294.146.988.43 1.93.43 1.281 0 2.05-.611 2.06-1.635.008-.79-.36-1.238-1.193-1.454l-.989-.256c-.382-.101-.613-.186-.61-.506.003-.325.317-.51.863-.51.49 0 1.109.157 1.6.403l.339-1.11c-.392-.178-1.172-.359-1.819-.359zm4.589 0c-1.357 0-2.239.663-2.248 1.689-.008.777.39 1.262 1.214 1.483l.898.237c.37.096.703.205.7.486-.004.422-.464.476-.863.476-.647 0-1.28-.27-1.643-.459L60 30.992c.294.146.987.43 1.93.43 1.28 0 2.05-.611 2.06-1.635.008-.791-.36-1.24-1.195-1.456l-.988-.256c-.382-.101-.613-.186-.61-.506.003-.322.318-.507.863-.507.49 0 1.11.156 1.601.402l.339-1.11c-.393-.178-1.172-.359-1.819-.359zm-12.962.021c-.99-.017-1.735.338-1.967.48-.496.283-.531.655-.533.85l.001 3.909h1.332l-.001-3.738s.686-.478 1.849-.351l.01-1.039c-.17-.074-.4-.106-.69-.11zm-28.149.102v5.15h.781v-2.253h2.754v2.253h.781v-5.15h-.781v2.213h-2.754v-2.213zm5.345 0v5.15h.78v-2.215l1.132-.001 1.565 2.222h.824v-.122l-1.749-2.423 1.752-2.492v-.12h-.812l-1.54 2.252h-1.171v-2.251Zm-24.119.996L0 29.724c1.23 1.557 3.471 3.006 4.256 3.432-.011-1.345.3-2.632.707-3.662-.889-.648-2.143-1.842-2.667-2.38Z"/><path fill="#21b9da" d="m20.964 32.344-1.983 1.658 2.167 2.707 1.984-1.658z"/></svg>