<svg role="img" viewBox="0 0 64 64" xmlns="http://www.w3.org/2000/svg"><title>Jetstar Airways</title><path d="m56.355 23.213-4.203 5.295h-7.336l4.534 4.719-4.78 6.55 8.016-4.16 5.955 5.17-1.547-7.644L64 28.508h-7.314l-.33-5.295zM4.482 27.619v6.793c0 .986-.342 1.326-.957 1.326-.656 0-1.027-.37-1.027-1.04v-.942H0v.441c0 2.271.87 3.824 3.566 3.824 2.398 0 3.569-1.153 3.569-3.437l.002-6.965H4.482zm12.143.041v2.453h-1.293v1.715h1.293v3.326c0 2.123.558 2.754 2.74 2.754.466 0 .933-.06 1.399-.076v-1.88c-.226 0-.451.028-.662.028-.558 0-.918-.136-.918-.751v-3.4h1.58v-1.716h-1.58V27.66h-2.559zm12.879 0v2.453h-1.295v1.715h1.295v3.326c0 2.123.556 2.754 2.738 2.754.466 0 .933-.06 1.4-.076v-1.88c-.225 0-.452.028-.663.028-.557 0-.918-.136-.918-.751v-3.4h1.582v-1.716H32.06V27.66h-2.557zM11.59 29.832c-2.282 0-4.176 1.7-4.176 4.072 0 2.597 1.716 4.117 4.236 4.117 1.731 0 3.386-.775 3.848-2.564h-2.37c-.238.566-.837.85-1.448.85-1.075 0-1.686-.7-1.73-1.76h5.683c.12-2.625-1.268-4.715-4.043-4.715zm12.916.022c-1.518 0-3.527.507-3.527 2.367 0 2.084 1.994 2.127 3.585 2.529.447.105 1.237.223 1.237.816 0 .61-.7.819-1.192.819-.356 0-.698-.088-.935-.268a1.035 1.035 0 0 1-.418-.861h-2.412c.074 2.157 1.949 2.77 3.779 2.77 1.742 0 3.705-.687 3.705-2.755 0-.64-.4-1.77-1.963-2.082-1.162-.253-2.857-.389-2.857-1.117 0-.537.67-.58 1.088-.58.313 0 .595.059.802.192.208.135.327.344.327.671h2.336c-.09-2.01-1.86-2.501-3.555-2.501zm13.25.019c-.876 0-1.768.149-2.451.535-.683.4-1.157 1.055-1.201 2.065h2.359c.12-.653.565-.967 1.262-.967.52 0 1.218.223 1.218.803 0 .475-.237.624-.668.712-1.75.357-4.48.161-4.48 2.67 0 1.59 1.155 2.33 2.625 2.33.919 0 1.883-.264 2.537-.947.03.252.06.49.148.727h2.54c-.298-.61-.3-1.322-.3-1.975v-3.369c0-2.181-1.764-2.584-3.59-2.584zm4.125.213v7.723h2.53v-3.823c0-.965.654-1.832 1.903-1.832.29 0 .55.045.82.114l-1.9-1.93a2.23 2.23 0 0 0-.869 1.103h-.03v-1.355h-2.454zm-30.291 1.46c.85 0 1.463.719 1.508 1.583H9.949c.149-.94.746-1.582 1.64-1.582zm27.322 2.647c.06 1.588-.34 2.272-1.543 2.272-.564 0-1.053-.25-1.053-.875 0-.609.474-.847 1.038-.98.548-.149 1.202-.194 1.558-.417z"/></svg>