<svg role="img" viewBox="0 0 64 64" xmlns="http://www.w3.org/2000/svg" fill="#0080be"><title>Aerolíneas Argentinas</title><path d="M55.598 27.155c-.02 0-.04.015-.037.022.002.002.005.004.01.004 1.135.612 2.152.665 3.287 1.082.64.234.522.574-.248.703l.025.04c-1.42.249-3.363.43-4.824.862-.026 0-.013.025 0 .025h10.183c.008 0 .008-.008 0-.025-.066-.34-.327-.718-1.122-.718h-.457c.13.326-.234.535-.47.34-.104-.079-.195-.287.053-.457.183-.13.47-.314.64-.43.6-.379.522-.939-.287-.991-1.917-.13-5.307-.365-6.753-.457zm-38.49 3.22c-.053 0-.091 0-.13.039-.027.013-.053.04-.092.078l-.612.6c-.04.04-.066.065-.066.118 0 .065.079.104.131.104l-.014.013h.391c.053 0 .091 0 .13-.04.026-.012.053-.052.092-.077l.73-.613a.251.251 0 0 0 .065-.118c0-.078-.09-.105-.143-.105zm-1.984.157c-.118 0-.208.065-.221.183l-.861 4.589v.04c0 .052 0 .09.04.13.025.04.077.052.117.052h.379a.264.264 0 0 0 .143-.052.266.266 0 0 0 .078-.13l.874-4.59v-.04l-.013-.025c0-.04 0-.09-.04-.118-.026-.04-.078-.04-.118-.04zm-12.072.3a.77.77 0 0 0-.234.026.971.971 0 0 0-.248.09.654.654 0 0 0-.222.17c-.065.066-.13.157-.195.274L.026 35.265a.244.244 0 0 0-.026.091c0 .04.013.091.053.118.04.026.078.04.117.04h.444c.052 0 .09-.013.13-.04.04-.026.066-.065.091-.105l.73-1.499h1.773l.17 1.486c0 .04.026.078.04.105.026.04.078.053.118.053h.444a.192.192 0 0 0 .143-.053c.04-.04.052-.09.052-.143v-.026l-.547-3.873a.756.756 0 0 0-.091-.273l-.002-.027a.54.54 0 0 0-.17-.17c-.066-.04-.144-.066-.222-.091-.078-.013-.143-.026-.221-.026Zm30.758 0a.73.73 0 0 0-.234.026.97.97 0 0 0-.248.09.654.654 0 0 0-.222.17c-.065.066-.13.157-.195.274l-2.126 3.873a.244.244 0 0 0-.026.091c0 .04.013.091.053.118.04.026.078.04.117.04h.444a.246.246 0 0 0 .221-.145l.73-1.499h1.774l.17 1.486c0 .04.025.078.04.105.025.04.077.053.117.053h.444a.193.193 0 0 0 .143-.053c.04-.04.052-.09.052-.143v-.026l-.547-3.873a.679.679 0 0 0-.09-.273l-.004-.027a.54.54 0 0 0-.17-.17c-.066-.04-.144-.066-.222-.091-.078-.013-.143-.026-.221-.026zm17.772.013a.166.166 0 0 0-.13.052.186.186 0 0 0-.078.118l-.04.287v.025c0 .091.066.144.144.144h.364a.167.167 0 0 0 .13-.053.186.186 0 0 0 .079-.117l.04-.287v-.026c0-.09-.066-.143-.144-.143zm-1.707.157-.391.053a.174.174 0 0 0-.183.156l-.091.495h-.482c-.04 0-.091.026-.118.052-.04.026-.065.066-.065.105l-.04.183v.026c0 .078.065.13.143.13l.457.052-.43 2.308a.468.468 0 0 1-.025.143v.13c0 .235.09.418.26.523.17.104.38.143.626.143h.221c.078 0 .156 0 .234-.026a.195.195 0 0 0 .13-.052.212.212 0 0 0 .053-.091l.04-.248v-.026c0-.04 0-.078-.053-.09h-.521c-.118 0-.196 0-.235-.026-.04-.013-.065-.053-.065-.144 0-.09 0-.104.026-.182l.441-2.31h.745a.167.167 0 0 0 .13-.053.186.186 0 0 0 .078-.117l.04-.234v-.04c0-.09-.065-.143-.143-.143h-.744l.105-.56v-.026c0-.078-.052-.13-.117-.13zm-46.901.494c.118 0 .13.078.13.078l.196 1.657H1.878l.926-1.657c.04-.065.117-.078.17-.078zm30.772 0c.117 0 .13.078.13.078l.196 1.657H32.637l.926-1.657c.04-.065.118-.078.183-.078zm-7.212.13a2.6 2.6 0 0 0-.639.077 1.775 1.775 0 0 0-.574.261c-.17.13-.326.287-.444.483a2.08 2.08 0 0 0-.274.756l-.13.665c-.026.143-.04.273-.04.417 0 .208.026.404.091.56.065.156.143.287.261.391.105.105.234.183.379.234.143.053.299.078.456.078.118 0 .234 0 .34-.025a1.04 1.04 0 0 0 .286-.078c.09-.04.182-.078.273-.13.053-.026.105-.066.17-.091v.105c0 .04 0 .078.04.117.04.053.09.052.143.052h.287a.264.264 0 0 0 .143-.052.266.266 0 0 0 .078-.13l.626-3.286v-.066l-.011-.011c0-.105-.09-.156-.183-.17-.183-.053-.391-.078-.613-.118a5.789 5.789 0 0 0-.665-.04zm-19.819.014c-.522 0-.964.143-1.303.443-.34.3-.56.718-.678 1.265l-.09.47c-.027.156-.04.299-.04.43 0 .234.039.443.13.6.09.17.196.299.339.404.143.104.3.183.482.221.17.04.352.065.535.065.248 0 .47 0 .665-.025.195-.026.391-.053.612-.078a.274.274 0 0 0 .17-.066c.04-.04.053-.078.066-.143l.04-.221v-.04a.119.119 0 0 0-.053-.105c-.026-.026-.065-.025-.105-.025h-.04c-.182.025-.378.039-.6.065-.22.012-.443.025-.652.025-.208 0-.482-.052-.625-.156-.143-.105-.209-.248-.209-.495v-.183c0-.065.026-.13.04-.195v-.04h2.385c.066 0 .131-.013.17-.065a.619.619 0 0 0 .066-.13l.052-.287a1.855 1.855 0 0 0-.038-.926 1.08 1.08 0 0 0-.261-.417l-.015-.013a1.22 1.22 0 0 0-.43-.274 1.718 1.718 0 0 0-.613-.104Zm3.768 0c-.17 0-.351.025-.534.065-.144.04-.287.09-.444.195v-.04c0-.052 0-.09-.053-.13a.166.166 0 0 0-.13-.052h-.339a.193.193 0 0 0-.143.052.266.266 0 0 0-.078.13l-.652 3.43v.04c0 .052 0 .09.052.13.04.04.078.053.13.053h.352a.193.193 0 0 0 .144-.053c.04-.04.077-.078.09-.13l.522-2.777c.17-.091.313-.156.457-.196.143-.04.313-.052.521-.052h.026c.118 0 .221-.053.234-.17l.001-.012.053-.287v-.04c0-.039-.013-.09-.065-.117a.256.256 0 0 0-.13-.04zm2.047 0c-1.095 0-1.787.574-1.981 1.694l-.091.51c0 .065-.026.13-.026.182v.196c0 .196.026.378.09.535.066.156.144.299.275.417.117.117.26.208.443.273.17.065.379.091.6.091.222 0 .548-.04.783-.118a1.88 1.88 0 0 0 .587-.339c.156-.143.3-.326.404-.534.105-.209.183-.444.222-.704l.09-.509c0-.065.013-.13.026-.195v-.196c0-.196-.026-.365-.09-.535a1.11 1.11 0 0 0-.274-.417l-.014.027a1.27 1.27 0 0 0-.444-.274 1.756 1.756 0 0 0-.6-.104zm10.367 0c-.522 0-.965.143-1.304.443-.339.3-.56.718-.678 1.265l-.09.47c-.026.156-.053.299-.053.43 0 .234.04.443.13.612.092.17.196.3.34.404.143.105.299.183.482.222.17.052.351.065.534.065.183 0 .47 0 .666-.026.195-.025.39-.052.612-.078a.274.274 0 0 0 .17-.065c.04-.04.053-.078.065-.143l.04-.234v-.04a.119.119 0 0 0-.052-.105c-.04-.026-.066-.025-.105-.025h-.04c-.183.025-.378.039-.6.065-.221.012-.443.025-.652.025-.208 0-.482-.052-.625-.156-.144-.105-.209-.248-.209-.495v-.183c0-.065.026-.13.04-.195v-.04h2.385a.216.216 0 0 0 .17-.065.62.62 0 0 0 .065-.13l.053-.287a1.855 1.855 0 0 0-.038-.926 1.08 1.08 0 0 0-.261-.417l-.003-.013a1.22 1.22 0 0 0-.43-.274 1.718 1.718 0 0 0-.612-.104Zm6.937.013c-.143 0-.364.013-.547.053-.183.04-.352.09-.495.17-.144.09-.274.196-.365.339a.993.993 0 0 0-.143.535c0 .326.221.612.626.873l.665.391c.17.091.273.183.326.235a.263.263 0 0 1 .065.182c0 .105-.026.17-.052.235a.445.445 0 0 1-.156.156.944.944 0 0 1-.235.09c-.09.013-.195.026-.299.026h-.234c-.09 0-.196 0-.3-.013-.104 0-.208-.013-.299-.025a1.97 1.97 0 0 1-.286-.026h-.053a.208.208 0 0 0-.208.156l-.04.234v.026c0 .052.026.105.065.13.026.026.066.04.105.053.091.013.183.04.274.052.105.013.208.026.3.026.104 0 .195 0 .299.013h.26c.196 0 .392-.026.587-.066.196-.04.365-.104.522-.195a1.07 1.07 0 0 0 .365-.365c.09-.156.143-.352.143-.574a.86.86 0 0 0-.143-.457c-.105-.143-.274-.286-.522-.443l-.652-.392c-.118-.078-.221-.143-.287-.208-.065-.053-.078-.118-.078-.183s.026-.156.053-.196a.53.53 0 0 1 .156-.13c.065-.04.143-.053.221-.065.078 0 .17-.013.248-.013.196 0 .392 0 .587.013.183 0 .352.025.47.04h.025c.105 0 .196-.066.209-.171l.04-.221v-.04c0-.08-.06-.15-.137-.167h.001c-.078-.012-.156-.025-.221-.04-.065 0-.143-.025-.221-.025-.078 0-.17 0-.274-.013zm-10.432.002c-.195 0-.469.025-.665.09-.143.053-.286.105-.417.17v-.04a.206.206 0 0 0-.04-.117c-.025-.04-.09-.065-.13-.065h-.352a.265.265 0 0 0-.143.053.266.266 0 0 0-.078.13l-.652 3.429v.04c0 .04.013.078.04.117a.16.16 0 0 0 .13.066h.364a.245.245 0 0 0 .156-.053c.04-.04.078-.078.091-.13l.535-2.804c.208-.091.391-.156.535-.183a1.66 1.66 0 0 1 .43-.052c.26 0 .417.052.482.117a.435.435 0 0 1 .117.326v.17c0 .066-.012.13-.025.183l-.379 2.204v.026c0 .052.013.09.052.13.04.04.079.04.131.04h.352a.265.265 0 0 0 .143-.052c.04-.04.078-.078.09-.13l.38-2.205a1.9 1.9 0 0 0 .039-.378c0-.143-.025-.287-.065-.417a.977.977 0 0 0-.209-.352l-.025-.001a.865.865 0 0 0-.365-.234 1.563 1.563 0 0 0-.522-.078zm-3.025.024a.245.245 0 0 0-.156.052c-.04.04-.078.079-.09.131l-.653 3.43v.039c0 .052.013.09.052.13.04.026.079.04.131.04h.352a.245.245 0 0 0 .156-.053c.04-.04.078-.078.09-.13l.64-3.43v-.039a.166.166 0 0 0-.052-.13c-.04-.04-.078-.04-.13-.04zm23.274.013c-.221 0-.521.025-.73.09a1.704 1.704 0 0 0-.574.287c-.17.13-.3.3-.404.522-.105.209-.196.47-.248.783l-.091.482c-.026.156-.053.313-.053.457 0 .208.04.404.105.56.065.156.17.286.287.391.117.105.273.17.443.222.17.052.352.065.548.065h.195c.078 0 .157 0 .235-.026.078 0 .156-.025.22-.025.053 0 .092-.013.131-.026v.026c-.04.156-.065.273-.117.378a.542.542 0 0 1-.17.234.876.876 0 0 1-.274.13c-.105.026-.248.04-.404.04h-.314c-.117 0-.22 0-.339-.025-.117 0-.22-.013-.313-.026-.09 0-.17-.013-.234-.026h-.026c-.04 0-.078 0-.117.04-.04.026-.053.053-.065.105 0 0-.04.221-.04.234 0 .065.065.118.143.143.105.026.261.053.47.078.22.026.47.04.743.04.274 0 .495-.026.69-.065a1.31 1.31 0 0 0 .51-.222c.143-.104.26-.248.351-.417.091-.183.156-.391.209-.652l.652-3.416v-.053c0-.078-.065-.117-.156-.143l.015-.028c-.17-.04-.364-.065-.6-.105a4.01 4.01 0 0 0-.678-.052zm3.547 0c-.522 0-.951.143-1.29.43-.34.286-.548.703-.666 1.252l-.09.47a2.41 2.41 0 0 0-.04.416c0 .234.04.43.13.587.091.158.196.287.327.392.13.104.286.17.47.221.17.04.35.065.534.065.248 0 .47 0 .652-.025.196-.026.391-.053.613-.078a.204.204 0 0 0 .143-.053.167.167 0 0 0 .052-.117l.04-.235v-.04c0-.064-.065-.104-.13-.104h-.04c-.17.026-.365.04-.6.065a5.66 5.66 0 0 1-.652.026c-.209 0-.495-.053-.64-.156-.156-.105-.22-.274-.22-.522v-.196c0-.065.025-.13.039-.208v-.053h2.412a.193.193 0 0 0 .143-.052.474.474 0 0 0 .053-.118l.052-.286c.026-.144.04-.274.04-.404 0-.183-.026-.34-.078-.495a1.034 1.034 0 0 0-.261-.405l.024.001a1.29 1.29 0 0 0-.417-.273 1.644 1.644 0 0 0-.6-.105Zm-5.49 0c-.17 0-.351.027-.521.066-.157.04-.327.118-.495.234v-.078h.013v-.025a.145.145 0 0 0-.144-.144h-.339a.185.185 0 0 0-.13.053c-.04.025-.065.065-.065.105l-.64 3.416v.026c0 .078.053.143.143.143h.352c.053 0 .09-.013.13-.052a.186.186 0 0 0 .078-.118l.522-2.791c.17-.09.326-.17.47-.208.143-.04.326-.053.535-.053h.025l-.013.013h.001c.105 0 .196-.052.209-.143l.052-.287v-.025c0-.079-.078-.131-.17-.131zm9.362 0c-.196 0-.47.026-.652.092a3.65 3.65 0 0 0-.47.196v-.118c0-.04 0-.065-.025-.091-.026-.04-.066-.052-.105-.052h-.352a.166.166 0 0 0-.13.052.186.186 0 0 0-.078.118l-.64 3.416v.026c0 .04 0 .065.04.09.025.04.065.053.105.053h.351c.053 0 .091-.013.13-.053a.186.186 0 0 0 .079-.117l.535-2.817c.22-.104.404-.17.56-.195.156-.026.3-.053.43-.053.26 0 .43.053.509.13.079.079.13.196.13.352v.17c0 .066-.013.13-.026.183l-.417 2.204v.026c0 .078.066.143.144.143h.352c.052 0 .09-.013.13-.052a.186.186 0 0 0 .078-.118l.417-2.204c.026-.13.04-.248.04-.364 0-.144-.026-.287-.066-.417a.808.808 0 0 0-.195-.34l-.013.053a.955.955 0 0 0-.352-.234 1.485 1.485 0 0 0-.509-.078zm7.367 0c-.195 0-.469.026-.652.092a3.65 3.65 0 0 0-.47.196v-.105c0-.04 0-.066-.039-.091-.025-.04-.065-.053-.105-.053h-.351a.185.185 0 0 0-.131.053.136.136 0 0 0-.065.118l-.653 3.416v.025c0 .04 0 .066.04.091.026.04.065.053.105.053h.352c.052 0 .09-.013.13-.053a.186.186 0 0 0 .078-.117l.535-2.817a4.33 4.33 0 0 1 .56-.196c.156-.025.3-.052.43-.052.26 0 .43.052.51.13.09.079.13.196.13.352v.17c0 .066-.013.13-.026.183l-.417 2.204v.026c0 .09.065.143.143.143h.352a.167.167 0 0 0 .13-.052.186.186 0 0 0 .078-.118l.417-2.204c.026-.13.04-.248.04-.365 0-.116-.026-.286-.065-.417a.807.807 0 0 0-.196-.339l.001.04a.955.955 0 0 0-.352-.234 1.485 1.485 0 0 0-.509-.078zm3.391.013a2.6 2.6 0 0 0-.64.078c-.209.052-.39.143-.56.26a1.778 1.778 0 0 0-.443.483 2.46 2.46 0 0 0-.274.743l-.13.665a2.27 2.27 0 0 0-.04.404c0 .209.026.392.09.548.066.156.144.286.249.378.105.105.234.17.364.222.144.052.287.078.444.078.158 0 .234 0 .326-.026a1.04 1.04 0 0 0 .287-.078c.09-.04.183-.078.274-.13.078-.04.143-.091.234-.144l-.026.13v.053c0 .04 0 .065.026.09.025.04.065.04.118.04h.286c.052 0 .09-.012.13-.052.04-.025.066-.065.066-.105l.625-3.286v-.065l.028.001c0-.078-.065-.117-.156-.13a17.85 17.85 0 0 0-.613-.118 5.787 5.787 0 0 0-.665-.04zm3.3 0c-.184 0-.366.014-.549.053-.182.026-.351.09-.495.17a1.05 1.05 0 0 0-.351.326.948.948 0 0 0-.144.522c0 .314.209.587.613.834l.665.392c.17.09.287.183.326.248.053.065.079.13.079.195a.46.46 0 0 1-.066.248.486.486 0 0 1-.17.156c-.065.04-.156.066-.248.091-.092.026-.196.026-.3.026h-.233c-.091 0-.196 0-.3-.013-.105 0-.208-.013-.313-.025-.105 0-.196-.013-.287-.026h-.052c-.09 0-.156.052-.17.13l-.04.235v.025c0 .04.013.078.053.105.025.013.065.026.09.04.079.012.17.04.274.052.104.013.196.026.3.026.103 0 .195 0 .299.012h.26c.197 0 .392-.012.588-.052.196-.04.365-.105.51-.196.142-.09.26-.208.35-.351.092-.157.131-.34.131-.56 0-.222-.052-.3-.143-.43-.091-.131-.261-.274-.51-.43l-.651-.392a1.476 1.476 0 0 1-.287-.208.277.277 0 0 1-.09-.209c0-.078.025-.17.065-.221a.422.422 0 0 1 .17-.13.445.445 0 0 1 .234-.066c.09 0 .17-.012.248-.012.195 0 .391 0 .587.012.195 0 .352.026.47.04h.025c.09 0 .156-.053.183-.143l.04-.222v-.04l.052.014-.003-.004c0-.078-.052-.13-.13-.143-.078 0-.143-.026-.221-.04-.066 0-.144-.025-.222-.025-.078 0-.17 0-.273-.013zm-9.728.144a.167.167 0 0 0-.13.053.186.186 0 0 0-.079.117l-.613 3.324v.026c0 .078.066.143.144.143h.352c.04 0 .09-.013.13-.052a.186.186 0 0 0 .078-.118l.626-3.324v-.026c0-.09-.066-.143-.144-.143h-.013zm-11.84.376c.156 0 .299 0 .443.026.118.013.234.026.314.04l-.483 2.58v.041c-.052 0-.117.026-.17.026-.078 0-.143.013-.221.026h-.404c-.274 0-.47-.053-.587-.144-.118-.09-.183-.248-.183-.509v-.22c0-.079.025-.157.04-.249l.09-.495c.078-.391.209-.665.392-.848.183-.183.443-.274.768-.274zm18.267.017c.365 0 .287 0 .391.025.091 0 .183.026.274.04l-.43 2.282v.011a4.185 4.185 0 0 1-.534.274 1.285 1.285 0 0 1-.483.105c-.17 0-.299-.053-.43-.143-.117-.091-.17-.261-.17-.522v-.156c0-.052 0-.105.026-.156l.13-.691c.066-.352.196-.613.392-.796.196-.183.47-.273.834-.273zm-31.28.024c.156 0 .287 0 .392.026.078 0 .156.025.234.04l-.417 2.229h-.013a5.047 5.047 0 0 1-.509.273c-.156.066-.313.091-.47.091a.641.641 0 0 1-.404-.143c-.104-.078-.156-.234-.156-.495v-.143c0-.053 0-.105.026-.144l.13-.69c.066-.352.196-.6.379-.783.183-.17.444-.261.808-.261zm16.546.001c.51 0 .743.221.743.678 0 .105-.012.234-.04.365l.002.012h-1.852c.04-.156.078-.286.143-.417.065-.13.144-.234.248-.339a1.077 1.077 0 0 1 .756-.3zm-30.678.025c.273 0 .456.065.56.17.104.104.17.273.17.509v.17l-.001-.014c0 .065-.013.117-.026.195l-.09.51c-.026.155-.079.299-.144.43-.065.13-.143.234-.248.338a1.012 1.012 0 0 1-.73.3c-.274 0-.457-.066-.56-.157-.105-.104-.17-.26-.17-.495 0-.117.012-.234.039-.378l.09-.51c.066-.338.184-.586.38-.782.195-.183.43-.286.73-.286zm-5.805 0c.495 0 .704.196.718.64 0 .105 0 .209-.04.34v-.002H5.515c.026-.13.079-.248.13-.365a1.51 1.51 0 0 1 .235-.326c.09-.09.196-.17.326-.208.118-.053.261-.078.404-.078zm16.182 0c.495 0 .703.196.717.64 0 .105 0 .209-.04.34v-.002h-1.772c.026-.13.078-.248.13-.365a1.51 1.51 0 0 1 .235-.326.764.764 0 0 1 .326-.208c.117-.053.26-.078.404-.078zm27.004.013h.002l-.001.002z"/></svg>