<svg role="img" viewBox="0 0 64 64" xmlns="http://www.w3.org/2000/svg" fill="#c20831"><title>Royal Air Maroc</title><path d="m32.2993 10.2271-.357 1.097H30.793l.9317.6817-.353 1.087.9277-.6736.9317.6796-.357-1.097.9338-.6776h-1.1535zm-.9276 2.8657-.004.002v.0082zm-.8611-.4155a.4853.4853 0 0 0-.482.482.4853.4853 0 0 0 .4497.476c-.2468.3768-.6198.508-1.1051.4718a.4894.4894 0 0 0 .0887-.2783.478.478 0 0 0-.4739-.4759c-.2406 0-.478.2232-.478.5102 0 .539.5035 1.0247 1.2806 1.0265h.0021c.8132-.0024 1.3149-.681 1.3149-1.3108 0-.6299-.2944-.9015-.597-.9015zm3.5815.004c-.3035 0-.599.2613-.599.9015h.0022c0 .6298.5053 1.3108 1.3169 1.3108.8125 0 1.2825-.4885 1.2825-1.0285 0-.286-.2394-.5102-.4759-.5102-.253 0-.48.2074-.48.478 0 .1104.0381.1957.0908.2762-.4822.0372-.8583-.093-1.1051-.4699a.4884.4884 0 0 0 .4497-.4759.4832.4832 0 0 0-.482-.482Zm-1.7887.5385a.7548.7548 0 1 0 .7562.7522.7506.7506 0 0 0-.7562-.7522zm-5.816.5969c-1.3144 0-2.3534 1.043-2.3534 2.535 0 1.4898 1.1624 2.7345 2.7607 2.7345l.0021.002h.0545c-.0393-.413-.1805-.657-.4396-.7541-.9324-.35-1.4359-1.1203-1.4359-1.9804 0-.9809.626-1.5891 1.4117-1.5891 1.115 0 1.523 1.2987 2.797 1.2987.4595 0 .8309-.271.8309-.4981v-.1351h-.238c-1.6004 0-1.8494-1.6133-3.39-1.6133zm11.6239.002c-1.5405 0-1.7855 1.6134-3.388 1.6134h-.236l-.004-.002v.137c0 .2293.3766.4961.833.4961 1.2751 0 1.68-1.3007 2.795-1.3007.7858 0 1.4117.6113 1.4117 1.5911 0 .8611-.5005 1.6313-1.4339 1.9824-.258.096-.4034.3382-.4396.7522h.0565c1.6004 0 2.7628-1.2302 2.7628-2.7346 0-1.5033-1.039-2.5349-2.3575-2.5349zm-5.812 1.4279c-.1961.194-.4958.6674-.5929.9276.2602.2995.4146.5328.5808.9035a.0681.0681 0 0 0 .0121.0201.0681.0681 0 0 1 .0141-.0201c.1663-.3728.3197-.603.5788-.9035-.1001-.2602-.3957-.7335-.5929-.9276zm1.9199.9962c-.4688 0-.9447.5752-1.1213 1.4157.2933.0196.5792.0494.8652.0927.1858-.73.5139-1.0677.7865-1.1152-.096-.223-.2795-.3892-.5304-.3892zm-3.8377.004c-.2457 0-.4292.1693-.5283.3892.2725.0506.5986.3883.7844 1.1152v.004a9.8031 9.8031 0 0 1 .8652-.0948c-.1766-.8363-.6515-1.4136-1.1213-1.4136zm-1.45.6312v.0021a.5607.5607 0 0 0-.5061.3751c.2065.03.4783.1954.6776.849a10.76 10.76 0 0 1 .8026-.2097c-.1931-.6474-.5414-1.0164-.974-1.0164zm6.7477.0061c-.4336 0-.783.367-.976 1.0164.2726.0599.5393.1312.8026.2117.2034-.6566.4762-.825.6796-.855a.5607.5607 0 0 0-.5062-.373zm-8.0807.6796c-.2168 0-.3814.1748-.4557.3751.2003.0702.3658.243.5021.72h.004c.2406-.1136.4862-.2176.7361-.3146-.1239-.3666-.3539-.7805-.7865-.7805zm9.3976.0141c-.4326 0-.6607.4128-.7804.7825.2498.097.4945.2011.734.3105.1404-.476.308-.6507.5042-.7199-.0723-.1993-.244-.373-.4578-.373zm-4.7048.5526c-1.843 0-3.7102.5952-5.1082 1.3995v.97a10.0175 10.0175 0 0 1 5.1102-1.4217 10.0258 10.0258 0 0 1 5.1102 1.4197v-.97c-1.398-.8034-3.2671-1.3976-5.1122-1.3976zm0 1.8916-2.8616 8.8248.8026.5828 2.061-6.3524.9075 2.8011h.9922l-1.5871-4.9024a8.2085 8.2085 0 0 1 7.1953 4.9024h1.0205c-1.3289-3.4217-4.6483-5.8563-8.5264-5.8563zm-.5022.0262c-3.8379.2106-7.0485 2.7973-8.1936 6.3161l7.4918 5.453.8027-.5828h.004l-5.3965-3.9264h2.9382l.3065-.9438h-5.1485c1.0646-2.8951 3.7079-5.028 6.8808-5.346zm9.7041 6.31c.093.3067.173.6238.236.9439h14.5803v.004c-1.0656 1.1502-1.697 1.3511-3.8478 1.3511H48.237c-.4802.4368-.9394.718-1.5145.8914v.0524h5.7434c2.9024 0 3.5414-.4354 5.2533-2.4663l.6514-.7764zm-9.7605.0022-.3046.9458h6.667l-2.3776 1.7303.3066.9438 4.1664-3.031a8.2044 8.2044 0 0 1-2.4321 8.373l.3166.97a9.1523 9.1523 0 0 0 2.9261-9.932zm-25.5005.004.6514.7784c1.7109 2.031 2.35 2.4643 5.2493 2.4643l.004-.004h5.7414v-.0504c-.5761-.1734-1.0354-.4566-1.5145-.8933h-4.2269c-2.1507 0-2.7832-.201-3.8477-1.3512h14.5783a8.9107 8.9107 0 0 1 .24-.9438zm17.2221.482a9.1585 9.1585 0 0 0 3.4667 9.7545v.008l7.4938-5.457-.3065-.9438-5.3966 3.9244.9095-2.801-.8026-.5829-1.5891 4.8984a8.2096 8.2096 0 0 1-2.9483-8.1996zm10.3656.9216 2.061 6.3544-2.3796-1.7303-.8027.5828 4.1604 3.027a8.127 8.127 0 0 1-4.5597 1.3976 8.1342 8.1342 0 0 1-4.13-1.1213l-.8228.599a9.0717 9.0717 0 0 0 4.9549 1.466c2.004 0 3.8628-.6507 5.3703-1.7544h.004L34.812 27.768Zm-5.6506 8.5102.002-.0021h-.006a8.1342 8.1342 0 0 0 .004.0021zM9.3439 29.9559c1.3939 1.5808 2.1687 1.942 4.8016 1.942h5.7414V31.8435c-.5761-.1735-1.0385-.4566-1.5145-.8934h-4.2269c-1.904 0-2.6202-.16-3.4988-.9942zm45.9048.0061c-.0013.0015-.0027.0025-.004.004h.004zm-.004.004H53.948c-.8787.8364-1.5939.9942-3.4989.9942h-4.2268c-.4791.4378-.9414.72-1.5165.8934v.0504h5.7433c2.6304 0 3.4022-.36 4.7956-1.938zM11.3545 32.255c1.394 1.5798 2.1687 1.94 4.8016 1.94h5.7414v-.0524c-.575-.1765-1.0343-.4586-1.5145-.8954h-4.2268c-1.904 0-2.6202-.159-3.499-.9922zm41.8837.0021c-.0013.0015-.0027.0025-.004.004h.004zm-.004.004h-1.2988c-.8797.8363-1.5949.9942-3.4988.9942h-4.227c-.48.4368-.9393.72-1.5144.8934v.0504h5.7414c2.6303 0 3.4042-.3621 4.7976-1.938zm-2.0005 2.2889-.004.002h-1.3008c-.8797.8364-1.596.9943-3.4969.9943h-6.913c-.2963.3376-.6142.6495-.9539.9438h7.867c2.6329 0 3.4056-.3603 4.8016-1.94zm-37.8645.002c1.3939 1.5798 2.1646 1.9421 4.7976 1.9421h7.871a9.813 9.813 0 0 1-.956-.9438l-.002-.004h-6.9151c-1.904 0-2.6162-.161-3.4949-.9942zm41.2322 8.6838c-.3159.5503-.5583 1.0236-.5283 1.2301.031.2034.1832.2842.1956.5042l.0303 1.1676c-.2107.127-.6644.3796-.7543.4437-.4997.126-1.1368-.3-1.333-.5828-.2127-.5845-.635-1.3726-1.0748-1.4056-.2386-.0166-.6348.7112-.7845.9942-.1497.2839-.436.6942-.3771.8853.0599.189.7555.5371 1.6476.5061-.3759.4265-2.5399.9623-2.9322.9922 1.2679.2674 2.253.1915 2.539.111.289-.0806.742-.71.742-.71.7693.22 1.2844.49 2.6297.5365 1.3444.0465 3.0393-.0129 3.7651-.1089.7259-.097 2.4041-.332 2.7366-.365.3335-.033 1.0885-.1255 1.1939-.0625l.7441-.8853s-1.4391-.2824-1.5589-.4094c.319-.4264.2891-.8199.3025-1.0729.0165-.2498-.0434-.297.0464-.4416.094-.1425.3812-.5062.3812-.5062-.35-.19-.5007-.2193-.351-.7562 0 0-.6524.5198-.605.8833.0465.3634.107.3956.107.5525l-.0162.601s-.001.2198-.3045.2198l-2.3252.0303s-.3608.696-.4537.726c0 0 1.3154.255 1.3753.3004-.7857.188-2.3014.3302-2.7547.2682.6959-.5544.8515-1.1206.4416-1.4035-.4058-.287-.7862-.4158-2.6902.5021-.03-.664-.0188-1.324.0121-1.4036.03-.0774.2878-.1861.2279-.5041-.0599-.316-.3507-.5995-.2743-.837zm9.3633.1109c-.1497.2695-.482.883-.6493.98 0 .4564.073 3.3782-.0303 3.5816.2571-.474.744-1.0574.7099-1.5004-.03-.4409.0461-2.8578-.0303-3.0612zm-23.1833.0221c-.1167.1312-.6252.9835-.6252 1.1838 0 .2003.2582.2604.2582.4235 0 0 .0469.915.0242 1.0688-.3769.283-1.9177 1.0517-2.7003.9216-.3531-.0464-.3859-.5415-.3993-.8389l.0464-2.535s-.3057.5712-.4296.6414l-.0464 1.573c-.0103.226-.0007.534-.486.724-.4894.19-1.3508.5678-2.4401 0l-2.416-1.694s-.0901-.1306.0565-.1533c0 0 2.6884-.2499 2.8918-.2602.2035-.0134.2775.0728.228.2824-.0476.19-.591.591-.8067.7118.7124-.2137 1.4717-.738 1.4056-1.5185-.031-.3407-.4213-.2843-.8168-.2843 0 0-3.6844-.189-3.6844 1.0789-.0609.6763.113.6753.3731.8994l.7583.6856c-.1704.475-.6448.368-.9277.1553-.284-.2137-.3066-.6165-.2601-.7703-1.8245.7805-2.5633.9937-3.7187.97-1.1554-.0228-1.815-.0455-2.2446-.6857-.2292-.316-.9322-.4142-1.2946.1795-.41.5803-.7065.8044-.8954.7703-.2736-.0464-.1135-1.0029-.0464-1.1474.0692-.1435.0133-.2841-.123-.0363-.443.733-.5898 2.2606.2258 2.2606.3304 0 .5869-.5862.7603-.9559.1694-.3675.2351-.4414.486-.4517.5989-.0124.079 1.1483 2.902 1.1152 1.555-.0206 3.5264-.8657 3.6864-.972.1828.5194.5575 1.0545.9075 1.0184.352-.0372.8842-.2017.974-.8893l.127-.0343c.5091.4398 1.305 1.1461 2.4604 1.1595 1.1554.0104 1.792-.9823 1.8714-1.2301.16.5534.377 1.1804 1.0688 1.1938.6929.0104 2.1424-.5328 2.416-.7703.1022.5576.2403.8425.613.8631.2396.0103.6026-.6402.7059-1.0305.1001-.3903.3863-1.1777-.0928-1.3511-.2932-.1074-.4626.1545-.6453.0584-.0775-.0805-.0686-.3549-.0686-.3549l.0343-.5788c.193-.2374.2728-.3787.25-.5687-.0236-.188-.3376-.2608-.3408-.3307v-.002c-.0007-.071-.0787-.3646-.0221-.4942zm2.2365.0807a61.1562 61.1562 0 0 1-.5667 1.0164c.0464.7672.1461 2.9014-.0666 3.398.475-.6401.7038-1.17.7038-1.4096 0 0-.0138-2.8778-.0705-3.0048zm3.5008.0867c-.3386.06-.5312.5663-.5787.97-.0465.4037.1134.4271.1371.6171l.1351 1.6113c-.2034.1673-.4516.4273-.498.5667-.6124-.093-1.1548-.0241-1.3613-.0706 1.0913.4967 1.6342.7605 2.7224.6635 1.0893-.093 2.3803-1.3926 2.2667-2.0328-.1125-.637-1.0418-.7577-2.9261.6393 0 0 .1236-.6725.0565-1.7505.2736-.1528.353-.4134.3065-.4134-.0434-.03-.1892-.1537-.2924-.1774v-.0061c-.0465-.1198-.0142-.5242.0323-.6171zm-25.9138.0605c-.06.1223-.5667 1.0144-.5667 1.0144.159.9468.4205 2.98.2037 3.4807.476-.6401.6594-1.3012.6594-1.5387 0 0-.2376-2.8263-.2964-2.9564zm-2.1457.0182c-.1136.1311-.6252.9855-.6252 1.1858 0 .2003.2904.1987.2904.365 0 0 .0227.8585 0 1.0123-.3768.283-1.7888.8657-2.301.2824a1.9783 1.9783 0 0 1 .8309-.4094l.1976-.9821c-.4987-.126-2.4199-.442-3.3254-.2521l-.4094.8369s.3965.0463.5163.0928a.7475.7475 0 0 1 .3166.3004c-.8322.0166-2.0409.317-2.5571.6474-.5132.3304-1.5712 1.2476-1.7364 1.1051-.1672-.1404-.1686-.0494.0585-.8692-.2736.22-.6323 1.067-.242 1.2302.665.284 1.933-.9917 2.7043-1.0547l.0121.002c.7094-.2994 2.0084-.2673 2.1458-.4335.5658.5194.966.7458 1.5185.849 1.3588.254 2.0799-.6128 2.3494-.496.1001.5533.0471.9208.5303.9941.315.0465.4393-.4396.5425-.8288.1033-.3903.4791-1.2523 0-1.4258-.2963-.1063-.4656.1534-.6453.0605-.0805-.0836-.0706-.357-.0706-.357l.0162-.4597c.189-.2375.2234-.3979.1996-.5889-.0237-.189-.2924-.2383-.2924-.3085 0-.0692-.081-.368-.0242-.4982zm-2.9383.0948-.8147.4557.4517.3005.6655-.4558zm44.4367.2662-.7562.5404.4396.4114.6796-.617zm-57.561.0504.0021.004c-.1827 0-.3961.3925-.486.4235-.0898.033-.3912-.1403-.6937-.2662-.0774.0795-.4578.5018-.7139.6453.1064.03.5889.2037.5889.2037s.3665-.3972.5162-.4437c.1497-.0475.5716.19.6191.1735.0424-.0166.6796-.5365.6796-.5365s-.4657-.1871-.5122-.2037zm22.2476.0161s-.5655.4054-.7018.4054c-.1363 0-.5445-.238-.5445-.238v-.004l-.7501.595.5.26s.4743-.4029.6777-.377c.2034.0237.5001.2823.5001.2823s.6552-.566.7482-.593c-.159-.2126-.4296-.3306-.4296-.3306zm-13.7797.4235s-.3468.601-.3468.728.0902.2994-.0162.3469c-.1063.0464-.9395.2706-.8631-.5203-.8322.3304-2.9907 1.2927-4.9247 1.2927-1.1584 0-1.7412.142-2.2183-.365-.226-.3201-.8216-.7843-1.214.0665-.4099.5803-.4245 1.1193-.6836 1.0729-.2736-.0506-.3925-.6143-.4699-1.2947-.286.9643-.0492 2.2095.2864 2.196.3304 0 .5323-.6043.7058-.974.1693-.3675.2402-.53.49-.5404.9386.0475-.0467 1.0237 2.9786.8833 1.4042-.1394 3.22-.4274 4.4487-1.2947.2262-.19.285-.2374.3449.127.0764.3934.2442.5534.6675.5203.4233-.031 1.1936-.7743.8147-2.2404zm3.876.9801c.313.0019.8197.025.9095.0847l-.7845.3467-.3509-.4275c.0385-.0034.1216-.0046.2259-.004zm36.0112.0021c.3155.0114.5663.3327.5283.5667v.002c-.0475.093-.2737.0774-.4235.0465-.1528-.03-.242-.2996-.242-.599a.476.476 0 0 1 .1372-.0161zm5.344.7905c.2338-.0182.4343-.0002.5668.0746-.0124.568-1.9349.6482-2.6297.5687.3616-.2013 1.3619-.5886 2.063-.6433zm-8.502.0363c.5358-.0268.6923.2505.7057.4497-.4812.3895-1.8363.4632-2.0529.4497.2261-.3107.8143-.8767 1.3471-.8994zm-6.7498.2622c.4523-.0743.6755.4761.5062.597-.5782.1197-.5392-.3936-.5062-.597zm-22.1326.0403c.3896-.001.5121.4776.3408.6393-.4998.097-.4556-.433-.4215-.6332a.5433.5433 0 0 1 .0807-.0061zm-10.0711.4638c-.1198-.0175-.606.3933-.6958.3933v.004c-.1063-.03-.4825-.2847-.5888-.2682-.1033.0165-.7845.601-.7845.601l.6352.2843s.5932-.411.6655-.4275c.0764-.0166.4227.2658.5001.2823.0734.0165.7845-.5364.7845-.5364s-.3965-.3173-.5162-.3328zm21.7696.3126s-.5887.318-.726.3005c-.1358-.0165-.4635-.2804-.4658-.2823h-.0021c-.1082.0937-.678.4217-.7986.4557l.482.3005s.5598-.3298.6796-.2823c.1197.0465.4235.252.4235.252l.7723-.4093zm-18.4724.0988-.603.3167.2985.377.6352-.4113zm17.9945 2.4624v.375h1.3047v-.375zm-9.091.0705v3.3456h1.3087v-3.3456zm36.1402.367s-1.4369-.0232-1.4802 1.571c0 0 .0005 1.3425 1.6113 1.4097 0 0 1.049.001 1.3753-.476v-.6614s-.327.2057-.9599.2057c0 0-.7421.0462-.7421-.5909 0 0 .0422-.548.5646-.5243 0 0 .548-.1143 1.1334.1593v-.8631l.004-.004s-.4812-.2052-1.5064-.2259zm-39.2358.0464s-1.2412-.0705-1.2846 1.4339c0 0-.1541 1.363 1.1737 1.5004 0 0 .7677.0682 1.1374-.5224v.5224h1.2604v-2.8436h-1.2665l.0061.0021v.365s-.4813-.4804-1.0265-.4577zm9.0709 0s-1.2423-.0705-1.2846 1.4339c0 0-.1542 1.363 1.1736 1.5004 0 0 .7658.0682 1.1354-.5224v.5224h1.2624v-2.8436h-1.2644l.002.0021v.365s-.4782-.4804-1.0244-.4577zm18.418 0s-1.2413-.0705-1.2847 1.4339c0 0-.154 1.363 1.1737 1.5004 0 0 .7658.0682 1.1354-.5224v.5224h1.2624v-2.8436h-1.2645l.0021.0021v.365s-.4782-.4804-1.0244-.4577zm-3.1783.0242c-.493.0456-.8954.5849-.8954.5849-.3262-.6402-.9599-.5707-.9599-.5707-.828 0-1.1152.6856-1.1152.6856v-.6372H37.821v2.8454l.002-.006h1.2464v-1.5004c.066-.41.3932-.363.3932-.363.3696-.0671.3025.4335.3025.4335v1.4319h1.331v-1.5468c.0423-.3407.369-.3408.369-.3408.3036-.0465.371.3872.371.3872v1.4802h1.3512v-2.0953c-.1724-.8209-.9155-.7744-.9155-.7744a.6833.6833 0 0 0-.2158-.0141zm-31.7843.0162s-1.7015-.0463-1.811 1.4116c0 0-.0232 1.6377 1.8312 1.5468 0 0 1.6107.1356 1.6778-1.4782l.0021-.004s.0646-1.4762-1.7-1.4762zm42.8718 0s-1.6974-.0463-1.8069 1.4116c0 0-.0192 1.6377 1.8311 1.5468 0 0 1.6138.1356 1.6799-1.4782l-.0021-.004s.0635-1.4762-1.702-1.4762zm-47.627.0464v2.8454h1.2402V52.24c.1528-.4574 1.1132-.3207 1.1132-.3207V50.552c-.8952-.0691-1.0688.5465-1.0688.5465v-.613zm6.7114 0 1.1797 2.4583h-.9156v.8207h1.4621c.6763.1136 1.089-.98 1.089-.98l1.0245-2.299h-1.3956l-.4356 1.4116-.482-1.4116zm19.8982 0v2.8454h1.2402V52.24c.1508-.4574 1.1132-.3207 1.1132-.3207V50.552c-.8952-.0691-1.0688.5465-1.0688.5465v-.613zm16.248 0v2.8454h1.2403V52.24c.1528-.4574 1.1132-.3207 1.1132-.3207V50.552c-.8962-.0691-1.0688.5465-1.0688.5465v-.613zm-18.4421.004v2.8434h1.3047v-2.8434zm-19.634.7159c.4997.0237.4799.6856.4799.6856-.0475.6164-.5263.5687-.5263.5687-.5018-.0196-.5224-.5888-.5224-.5888.063-.7042.5647-.6615.5647-.6615zm42.8657 0c.4997.0237.48.6856.48.6856-.0434.6164-.5224.5687-.5224.5687-.4997-.0196-.5223-.5888-.5223-.5888.0661-.7042.5647-.6615.5647-.6615zm-34.9222.0322a.5161.5161 0 0 1 .0928.0021h.002c.5463 0 .482.6837.482.6837-.0433.6133-.5465.5888-.5465.5888-.5462 0-.5465-.611-.5465-.611.0155-.5638.3498-.6538.5163-.6635zm9.0688 0a.4855.4855 0 0 1 .0908.0021c.5462 0 .48.6837.48.6837-.0434.6133-.5446.5888-.5446.5888-.543 0-.5444-.611-.5444-.611.0154-.5638.3517-.6538.5182-.6635zm18.418 0a.5155.5155 0 0 1 .0928.0021h.002c.5463 0 .48.6837.48.6837-.0433.6133-.5465.5888-.5465.5888-.5451 0-.5445-.611-.5445-.611.0148-.5638.3496-.6538.5163-.6635z"/></svg>