<svg role="img" viewBox="0 0 24 24" xmlns="http://www.w3.org/2000/svg"><title>Royal Air Maroc</title><path fill="#f7f7f7" stroke="#999896" stroke-width=".294" d="m23.79 2.742-6.75 18.516H.336l15.39-16.642a23.8 23.8 0 0 0 .554-.583l.19-.204c.22-.233.415-.43.62-.59.402-.315.846-.497 1.576-.497h5.123z"/><path fill="#00875d" d="M12.293 15.959h-1.487l-.46-1.42-.223-.688-.224.688-.047.146-.382 1.184-.03.09H7.231l.584.426.124.09 1.003.731.076.056-.03.09-.382 1.184-.047.146-.223.689.583-.426.124-.09 1.003-.732.077-.056.36-.262.077-.056.23-.168.076-.056.238.732-.125-.09-.419-.306-.024.017-.337.245 1.003.732.124.09.584.426-.223-.688-.46-1.42.077-.057 1.002-.73.124-.091.584-.426zm-2.608 1.902-.419.305-.124.09.047-.145.16-.496.03-.09.076.056.23.168.077.056zm.967-.706-.452.331-.077.056-.077-.056-.452-.33-.077-.056-.361-.263-.077-.056-.419-.306-.124-.09h.767l-.03.09-.088.272.36.262.174-.534.03-.09.137-.426.03-.09.16-.495.047-.147.237.732h-.38l-.008.028-.13.398h.655l.232.715-.077.056zm.934-.68-.42.306-.076.056-.147-.452h.767z"/><path fill="#c20831" d="M12.787 9.682c-1.162 1.148-2.17 2.928-2.542 3.855l.71 2.174c.142-.33.468-1.1.644-1.545.22-.555.892-1.9 2.03-3.296 1.137-1.397 2.754-2.25 3.659-1.85.905.401 1.115 2.025.999 3.06-.117 1.034-.78 2.63-1 3.095-.276.585-1.165 1.943-1.398 2.24-.186.237-1.2 1.578-1.601 2.066.556-.514 1.971-1.867 2.499-2.54.528-.672 1.205-1.675 1.5-2.286.649-1.344 1.223-3.058.798-5.043-.53-2.483-2.96-1.988-3.362-1.859-.4.13-1.59.582-2.936 1.93Z"/></svg>