<svg role="img" viewBox="0 0 64 64" xmlns="http://www.w3.org/2000/svg"><title>Air Canada</title><path d="M4.25 27.83C1.924 27.83 0 29.633 0 31.88c0 1.965 1.484 3.61 3.45 3.97.32.08.52.12.72.32.2-.4.24-1.202.24-1.644v-.761c0-.281.122-.32.402-.16.482.28.963.521.963.521 0-.16.16-.28.44-.2.28.081.562.12.562.12s-.16-.361-.24-.522c-.12-.28-.001-.44.12-.48 0 0-.16-.121-.28-.201-.24-.16-.202-.361.039-.442.32-.16.762-.32.762-.32a.398.398 0 0 1-.12-.56c.161-.241.44-.602.44-.602h-.762c-.28 0-.359-.242-.359-.402 0 0-.443.32-.764.521-.28.2-.52 0-.48-.32.08-.481.12-1.043.12-1.043-.16.16-.44.121-.6-.12-.201-.4-.403-.882-.403-.882s-.2.482-.4.883c-.12.24-.4.28-.56.16 0 0 .038.562.118 1.043.04.28-.2.48-.48.28-.321-.201-.803-.522-.803-.522 0 .16-.08.362-.361.402h-.762s.281.36.441.602c.16.24.002.48-.119.56 0 0 .401.2.762.32.24.12.32.281.039.442-.08.08-.281.201-.281.201.16.04.282.2.162.48-.08.16-.242.522-.242.522s.281-.08.562-.12c.28-.08.401.08.442.2 0 0 .48-.28.96-.521.241-.16.403-.08.403.16v.681c0 .401-.081.803-.201 1.043-1.805-.2-3.328-1.643-3.328-3.568 0-1.965 1.644-3.568 3.689-3.568s3.69 1.603 3.69 3.568c0 1.845-1.445 3.368-3.29 3.568v.483c2.166-.2 3.85-1.926 3.85-4.051 0-2.286-1.925-4.09-4.291-4.09zm27.389 1.764c-.923 0-1.605.2-2.086.601-.481.361-.721.962-.721 1.684s.24 1.284.72 1.685c.482.401 1.164.602 2.007.602.721 0 1.323-.08 1.804-.281v-.643c-.521.2-1.082.322-1.603.322-.562 0-1.004-.16-1.324-.441-.321-.32-.48-.723-.48-1.244s.158-.962.439-1.242c.32-.281.721-.442 1.283-.442.44 0 1.044.081 1.685.282v-.723a8.632 8.632 0 0 0-1.724-.16zm-17.645.12-1.885 4.33h.723l.52-1.161h2.005l.522 1.162h1.162l-1.885-4.33h-1.162zm4.371 0v4.33h1.002v-4.33h-1.002zm3.248 0v4.33h.963V32.24h.963l1.443 1.846h1.163L24.54 32.04c.36-.2.44-.282.64-.482.201-.2.243-.481.243-.762-.04-.602-.563-1.082-1.686-1.082h-2.125zm14.877 0-1.885 4.33h.723l.522-1.161h2.004l.521 1.162h1.164l-1.885-4.33H36.49zm4.492 0v4.33h.842v-3.247l2.807 3.248h1.084v-4.33h-.844v3.088l-2.726-3.088h-1.163zm8.061 0-1.885 4.33h.72l.522-1.161h2.006l.522 1.162h1.162l-1.885-4.33h-1.162zm4.451 0v4.292h2.004c.762 0 1.325-.2 1.766-.602.44-.36.64-.922.64-1.644 0-.642-.2-1.163-.601-1.524-.401-.32-.963-.521-1.725-.521h-2.084zm7.46 0-1.886 4.33h.721l.522-1.161h2.005l.522 1.162H64l-1.885-4.33h-1.162zm-38.378.561h.56c.763 0 1.284.082 1.284.643s-.24.762-1.402.762h-.442v-1.405zm31.961 0h.6c.4 0 .682.041.883.121.2.08.36.2.521.4.2.282.32.643.32 1.044 0 .561-.12.922-.4 1.203-.28.28-.682.4-1.203.4h-.72v-3.168zm-40.223.32.762 1.725h-1.482l.72-1.724zm22.579 0 .72 1.725H36.13l.764-1.724zm12.47 0 .762 1.725h-1.484l.722-1.724zm11.91 0 .762 1.725h-1.484l.722-1.724z"/></svg>