<svg role="img" viewBox="0 0 24 24" xmlns="http://www.w3.org/2000/svg"><title>Eurowings</title><path d="M9.03 4.964C7.303 4.942 6.31 5.984 4.99 6.95L0 10.876l.953.504h.01c1.252.616 2.99.411 4.168-.467l2.111-1.684.805-.635 4.02-3.195-2.477-.393a4.648 4.648 0 0 0-.56-.042zm5.519 1.904c-.686.005-1.661.16-2.54.838 0 0-1.149.86-2 1.523l-1.888 1.496-4.363 3.467-.04.03 1.32.7c1.251.617 2.99.41 4.177-.468l3.906-3.094 4.99-3.924v-.01L15.44 6.95s-.357-.087-.89-.082zm5.666 2.205c-1.18 0-1.979.572-3.346 1.642l-4.308 3.477-4.672 3.775 1.308.702c1.253.616 3.112.448 4.3-.43l4.138-3.29L24 9.69l-2.896-.524a4.76 4.76 0 0 0-.89-.092z"/></svg>