<svg role="img" viewBox="0 0 64 64" xmlns="http://www.w3.org/2000/svg"><title>Eurowings</title><path d="M55.197 23.758c-.94.028-1.503.612-2.244 1.154l-2.9 2.281.554.293h.006c.728.359 1.738.24 2.422-.271l1.227-.979.467-.369 2.335-1.857-1.439-.229a2.613 2.613 0 0 0-.428-.023zm3.31 1.107c-.398.003-.966.092-1.476.487 0 0-.668.499-1.162.884l-1.096.87-2.537 2.015-.021.016.765.408c.728.358 1.739.239 2.428-.272l2.27-1.798 2.9-2.282v-.004l-1.553-.277s-.207-.05-.517-.047zm3.292 1.281c-.685.001-1.15.331-1.944.954l-2.503 2.021-2.715 2.193.76.409c.727.358 1.808.26 2.498-.25L60.3 29.56 64 26.502l-1.684-.303a2.773 2.773 0 0 0-.517-.053zm-30.285 3.745c-.299 0-.533.066-.668.197-.136.12-.201.315-.201.543 0 .228.065.418.2.543.136.13.37.183.669.183.298 0 .526-.058.662-.183s.201-.316.201-.55c0-.222-.065-.417-.201-.542-.136-.125-.364-.191-.662-.191zM0 30.07v7.624h4.773l.26-1.271H1.521v-1.932h2.91l.26-1.375h-3.17v-1.781h3.231l.281-1.266zm36.39 1.939a2.373 2.373 0 0 0-.966.183 1.703 1.703 0 0 0-.69.54l-.088-.598H33.29v5.56h1.531v-2.873c0-.483.029-1.021.22-1.293.19-.255.503-.47.92-.47.392 0 .637.09.8.28.163.19.244.511.244.962v3.394h1.476v-3.748c0-.331-.043-.613-.152-.857a1.64 1.64 0 0 0-1.053-.967 3.233 3.233 0 0 0-.884-.113zm5.936 0c-.44 0-.967.055-1.314.158a2.085 2.085 0 0 0-1.434 1.303 3.318 3.318 0 0 0-.195 1.195v.379c0 .901.183 1.57.553 1.994a2.39 2.39 0 0 0 1.771.7c.76 0 1.232-.212 1.617-.58v.243c0 .592-.101.944-.345 1.248-.25.294-.692.43-1.262.403a7.098 7.098 0 0 1-1.781-.287l-.248 1.14c.347.114.704.205 1.074.254.364.054.771.071 1.217.082.923.022 1.618-.25 2.107-.75.489-.5.7-1.205.7-2.117v-4.79a5.544 5.544 0 0 0-1.194-.444 4.996 4.996 0 0 0-1.266-.131zm-23.336.006c-.489 0-1.041.08-1.367.216a1.988 1.988 0 0 0-1.21 1.407 3.924 3.924 0 0 0-.16 1.043v.45c0 .386.066.74.147 1.065a1.955 1.955 0 0 0 1.205 1.412c.326.136.891.217 1.391.217s1.042-.07 1.373-.217a1.977 1.977 0 0 0 1.195-1.43 4.24 4.24 0 0 0 .147-1.042v-.446a4.399 4.399 0 0 0-.162-1.074h.006a2.142 2.142 0 0 0-.418-.848 1.993 1.993 0 0 0-.79-.552 3.948 3.948 0 0 0-1.357-.201zm29.272.021a3.812 3.812 0 0 0-1.955.461c-.419.282-.631.706-.631 1.266v.109a1.417 1.417 0 0 0 .396 1.047c.266.271.837.418 1.397.488l.793.11c.266.038.434.102.515.21.087.11.131.224.131.387a.692.692 0 0 1-.027.229.46.46 0 0 1-.19.232.847.847 0 0 1-.359.12 6.055 6.055 0 0 1-.586.017 7.255 7.255 0 0 1-1.726-.25l-.24 1.047a7.375 7.375 0 0 0 1.993.299c.359 0 .684-.033.977-.098.299-.065.702-.173.908-.315a1.412 1.412 0 0 0 .488-.543c.12-.228.174-.493.174-.808v-.11c0-.179-.022-.357-.076-.53a1.324 1.324 0 0 0-.244-.468 1.493 1.493 0 0 0-.467-.38c-.195-.098-.581-.152-.869-.19v.004l-.89-.107c-.272-.038-.44-.104-.55-.186-.103-.081-.167-.189-.167-.379 0-.228.076-.327.25-.435.173-.098.494-.131.988-.131a6.137 6.137 0 0 1 1.504.197l.254-1.016a5.81 5.81 0 0 0-1.791-.277zm-33.03.022a2.216 2.216 0 0 0-.955.189c-.26.125-.483.31-.662.555l-.088-.668H12.1v5.56H13.7v-3.02c0-.51.049-.776.266-1.02.206-.25.549-.37 1.021-.37a2.172 2.172 0 0 1 .375.033 5.186 5.186 0 0 1 .309.06l.289-1.2a2.433 2.433 0 0 0-.729-.12zm-9.312.076v3.746a2.237 2.237 0 0 0 .152.86 1.645 1.645 0 0 0 1.053.966 3.15 3.15 0 0 0 .885.113c.364 0 .684-.06.967-.185.282-.125.516-.304.695-.537l.082.597h1.357v-5.56h-1.53v2.873c0 .478-.022 1.02-.218 1.29-.19.256-.505.473-.924.473-.385 0-.635-.09-.798-.28-.163-.19-.245-.513-.245-.958v-3.398zm16.074 0 1.684 5.56h1.406l.955-3.367.967 3.367h1.357l1.635-5.56H28.51l-.815 3.416h-.004l-.908-3.178h-1.476l-.912 3.215-.827-3.453zm8.781 0v5.56h1.504v-5.56zm-11.767.89c.456 0 .77.119.949.358.18.239.272.646.272 1.217v.619h-.006c0 .58-.087.99-.272 1.228-.18.24-.498.358-.943.358-.223 0-.413-.028-.57-.077a.84.84 0 0 1-.393-.255c-.109-.12-.18-.282-.223-.489a3.492 3.492 0 0 1-.07-.76V34.6c0-.57.093-.978.283-1.217.19-.24.511-.358.973-.358zm23.285 0c.19 0 .376.022.56.055.185.038.34.092.471.174v1.916c0 .5-.097.87-.287 1.103-.195.234-.5.352-.924.352a1.412 1.412 0 0 1-.595-.107.815.815 0 0 1-.354-.317 1.358 1.358 0 0 1-.18-.51 4.399 4.399 0 0 1-.048-.695v-.38c0-.576.108-.983.326-1.227.217-.24.564-.364 1.031-.364z"/></svg>