<svg role="img" viewBox="0 0 64 64" xmlns="http://www.w3.org/2000/svg"><title>Southwest Airlines</title><defs><linearGradient id="a" gradientUnits="userSpaceOnUse" x1="190.944" y1="10.52" x2="206.401" y2="10.52" gradientTransform="matrix(.30012 0 0 -.30012 -.132 37.223)"><stop offset="0" style="stop-color:#3656cc"/><stop offset=".35" style="stop-color:#304cb2"/><stop offset=".72" style="stop-color:#283b80"/></linearGradient><linearGradient id="b" gradientUnits="userSpaceOnUse" x1="193.141" y1="22.73" x2="210.602" y2="10.504" gradientTransform="matrix(.30012 0 0 -.30012 -.132 37.223)"><stop offset=".3" style="stop-color:#e61c23"/><stop offset=".8" style="stop-color:#c3161c"/></linearGradient><linearGradient id="c" gradientUnits="userSpaceOnUse" x1="203.964" y1="24.31" x2="213.947" y2="17.319" gradientTransform="matrix(.30012 0 0 -.30012 -.132 37.223)"><stop offset="0" style="stop-color:#fdbc11"/><stop offset=".25" style="stop-color:#fcb415"/><stop offset=".8" style="stop-color:#f89e1c"/></linearGradient></defs><path d="M17.572 34.824a5.083 5.083 0 0 1-.934.096c-.958-.001-1.17-.331-1.169-.951v-3.65h-1.803l-.003 3.83c-.002 1.699.95 2.477 2.888 2.48.94 0 1.814-.173 2.84-.435v-5.875h-1.819zm5.852.167c-.656 0-.746-.309-.746-.803l.002-2.355 1.495.002v-1.516H22.68v-1.803h-1.805v1.803h-.911v1.512h.91l-.001 2.473c-.001 1.089.22 2.33 2.013 2.33.548.001.996-.13 1.486-.27l-.18-1.5a2.652 2.652 0 0 1-.768.127zM4.5 31.616a12.241 12.241 0 0 0-1.106-.358c-1.052-.297-1.376-.463-1.376-.925 0-.546.405-.796 1.349-.795.775 0 1.464.2 2.164.464l.379-1.768c-.807-.3-1.574-.569-2.504-.57-2.172-.001-3.37 1.233-3.371 2.713-.001 1.097.494 1.842 1.563 2.274.314.126.676.252 1.077.37 1.18.362 1.522.531 1.522.985 0 .55-.45.843-1.373.842-.85-.001-1.63-.235-2.446-.61L0 36.02c.891.352 1.779.613 2.846.614 2.21.002 3.356-1.235 3.357-2.72.001-1.214-.684-1.909-1.703-2.299zm23.645-1.61c-.592 0-1.158.138-1.559.277v-2.971h-1.803v9.308h1.797l.004-4.666c.325-.125.7-.248 1.144-.247.702 0 .956.27.955.925l-.003 3.988h1.797l.004-4.184c.001-1.644-.741-2.428-2.336-2.43zm-18.25-.029c-1.823-.001-3.294 1.279-3.296 3.301-.002 2.024 1.462 3.355 3.29 3.357 1.826.002 3.293-1.323 3.295-3.35.002-2.028-1.468-3.306-3.29-3.308zm-.005 4.887c-.783 0-1.41-.563-1.41-1.583.001-1.02.61-1.557 1.413-1.556.803 0 1.398.531 1.397 1.558 0 1.028-.617 1.582-1.4 1.581zm40.43-2.08c-.256-.09-.545-.182-.859-.272-.631-.167-.876-.273-.876-.533 0-.274.245-.457.8-.457.596 0 1.145.123 1.734.294l.286-1.557c-.649-.142-1.291-.267-2.02-.268-1.706-.001-2.625.872-2.627 2.064 0 .846.41 1.38 1.262 1.74.24.103.523.207.844.307.665.192.99.27.99.57-.001.287-.395.417-.923.416a5.01 5.01 0 0 1-1.884-.353l-.28 1.546c.776.221 1.503.366 2.31.367 1.795.002 2.6-.939 2.602-2.1 0-.794-.342-1.407-1.359-1.765zm-6.77-2.8c-1.906-.002-3.227 1.326-3.23 3.418 0 1.951 1.178 3.238 3.261 3.24.931 0 1.69-.26 2.47-.592l-.27-1.491c-.588.265-1.197.47-1.907.47-1.074-.001-1.516-.462-1.586-1.114l4.047.004s.059-.735.059-.877c.002-1.699-.94-3.056-2.844-3.058zm-1.236 2.728c.115-.553.403-1.238 1.16-1.237.78 0 1.016.792 1.036 1.239zm12.92 2.28c-.655-.001-.742-.31-.741-.804l.002-2.34 1.512.001v-1.53h-1.513v-1.803h-1.809v1.803h-.919v1.526l.92.001-.003 2.458c-.001 1.089.263 2.33 2.056 2.33.549.001 1-.13 1.49-.27l-.222-1.5a2.675 2.675 0 0 1-.773.127zm1.2-7.307a.797.797 0 1 0 .003 1.595.797.797 0 0 0-.002-1.595zm-.001 1.454c-.37 0-.645-.268-.645-.657 0-.386.277-.656.646-.655.372 0 .646.27.645.656 0 .39-.274.656-.646.656zm.099-.62c.137-.02.23-.102.23-.241 0-.152-.107-.268-.31-.268h-.315v.925h.17v-.395c.062 0 .086.02.129.088l.198.308h.197l-.19-.287a.512.512 0 0 0-.11-.13zm-.134-.103h-.09v-.27l.118.001c.115 0 .156.054.156.135 0 .113-.088.134-.184.134zM38.649 30.32l-1.126 3.466-1.167-3.466h-1.572l-1.166 3.466-1.127-3.466h-1.96l2.238 6.3h1.662l1.148-3.41 1.13 3.41h1.663l2.236-6.3z" fill="#304CB2"/><path d="M61.979 29.956c-.61 0-1.1.212-1.492.435-.392-.223-.881-.435-1.49-.435-1.218 0-2.022.795-2.022 2.154 0 1.658 1.583 3.278 3.512 4.578 1.93-1.3 3.513-2.92 3.513-4.578 0-1.359-.803-2.154-2.021-2.154Z" fill="#CCCCCC"/><path d="M57.174 32.14c0 1.694 1.787 3.271 3.313 4.315.44-.3.894-.646 1.325-1.025a250.05 250.05 0 0 0-4.6-3.752c-.025.145-.038.3-.038.461z" fill="url(#a)"/><path d="M63.666 32.925c-1.466-1.208-2.353-1.823-3.305-2.395a2.758 2.758 0 0 0-1.348-.38c-.553 0-1.017.171-1.337.507-.208.217-.35.49-.43.822.759.53 2.82 2.004 4.896 3.648.693-.66 1.274-1.41 1.524-2.202z" fill="url(#b)"/><path d="M63.296 30.657c-.316-.328-.777-.505-1.309-.505-.57 0-1.005.185-1.308.35a29.968 29.968 0 0 1 3.083 1.974c.02-.128.031-.256.031-.384 0-.597-.174-1.097-.497-1.435z" fill="url(#c)"/></svg>