<svg role="img" viewBox="0 0 64 64" xmlns="http://www.w3.org/2000/svg"><title>Aer Lingus</title><path fill="#82c341" d="M63.931 32.31c-.23.74-.998 1.435-1.919 1.58.15.23.217.515.18.83-.098.859-.92 1.55-1.8 1.559-.597.004-1.405-.253-1.974-1.152-.51-.8-.583-2.068-.547-2.452-.623.637-1.011 1.255-1.196 1.684-.416.971-.574 2.154-.565 2.71 0 0-.077.072-.149.086a1.174 1.174 0 0 1-.578-.258c-.18-.162-.221-.316-.221-.316.275-1.377.713-2.235 1.368-3.215.88-1.323 2.24-2.14 3.852-2.633 1.165-.356 2.375-.433 3.206.271.447.37.474.903.343 1.305zm-6.863-.732c-.276.46-1.03 1.2-1.626 1.585-1.242.795-2.136.849-2.583.564a.697.697 0 0 1-.14-.113c-.348-.365-.29-1.016.117-1.549.199-.261.456-.447.705-.532-.194-.09-.325-.28-.352-.547-.055-.533.347-1.233.903-1.517.487-.248 1.54-.497 2.312.655.302.447.573 1.083.664 1.454zm5.102-4.841c-.067-.664-.776-.908-1.558-.574-.37.159-.695.425-.925.727.036-.302-.05-.568-.267-.727-.429-.311-1.21-.08-1.743.497-.185.203-.79.935-.822 2.01-.013.519.217 1.67.976 2.465 2.023-.763 3.111-1.932 3.526-2.416.48-.56.682-1.052.768-1.413.063-.285.054-.488.045-.57z"/><path fill="#3cb14a" d="M62.139 27.247c-.1.402-.949 1.44-2.123 2.326-1.219.917-1.914 1.377-2.18 1.558 2.018-.759 3.106-1.928 3.521-2.412.48-.56.682-1.052.768-1.413.005-.018.01-.036.014-.059zm-5.071 4.326c-.533.506-1.32 1.26-2.67 1.856-.668.285-1.322.393-1.54.29.448.288 1.342.234 2.584-.56.596-.385 1.35-1.125 1.626-1.586zm.934.285c-.009 0-.013.004-.013.004-1.45 1.039-1.942 2.908-2.023 5.288a.373.373 0 0 0 .149-.086c-.01-.555.149-1.734.564-2.71.185-.428.574-1.047 1.197-1.683.045-.425.095-.673.126-.813zm5.993.14a1.84 1.84 0 0 1-.813 1.233c-.407.252-.876.42-1.41.374a1.4 1.4 0 0 1 .24.28c.921-.14 1.69-.835 1.92-1.576.031-.099.054-.203.063-.311z"/><path fill="#006472" d="M24.516 28.114c-.38 0-.6.24-.6.574-.001.352.216.587.6.591.37 0 .591-.24.591-.591 0-.334-.221-.574-.591-.574zm-21.603.343L0 35.267h1.147l.74-1.73h3.157l.74 1.73h1.148l-2.913-6.81Zm15.809 0v6.81h4.606v-.94h-3.486v-5.87zm17.422.773-.461.772a3.406 3.406 0 0 0-1.061-.172c-.673 0-1.346.24-1.843.66a2.4 2.4 0 0 0-.862 1.887c0 1.662 1.25 2.068 2.46 2.466l.674.212c.718.212 1.151.343 1.151.908 0 .257-.09.478-.27.645-.28.267-.773.411-1.315.38-.474-.028-1.48-.122-1.607-1.156H31.97c0 1.318 1.179 2.153 2.642 2.153.939 0 1.634-.266 2.1-.718.365-.352.56-.808.56-1.318.008-.723-.384-1.287-1.107-1.594.84-.425 1.143-1.287 1.143-1.978 0-.772-.235-1.382-.691-1.829a1.503 1.503 0 0 0-.127-.113l.723-1.205zm-32.685.587 1.188 2.781H2.27Zm42.65.022c-.478.01-.928.092-1.29.253-.57.253-.881.709-.904 1.237-.059 1.233.885 1.522 2.15 1.698 1.006.14 1.584.29 1.557.795-.009.154-.135.348-.32.438-.678.339-2.398.158-3.206-.343l-.222.899c.488.316 1.22.5 1.915.532.754.036 1.517-.018 2.068-.28a1.43 1.43 0 0 0 .84-1.246c.054-1.21-1.075-1.472-2.131-1.657-1.201-.208-1.64-.33-1.608-.85.014-.243.24-.401.42-.455.655-.203 2.032-.068 2.84.375l.213-.908c-.658-.33-1.527-.507-2.323-.488zm-30.607.068c-.704 0-1.291.135-1.684.415-.587.416-.817 1.044-.817 1.856v3.09h1.065v-3.14c0-.383.077-.659.213-.853.243-.357.69-.447 1.26-.447.266 0 .568.032.867.09l.212-.898a5.579 5.579 0 0 0-1.116-.113zm13.082 0c-1.17 0-1.955.167-2.32.27l-.041.014v5.076h1.079v-4.33c.366-.086.655-.113 1.228-.113.88 0 1.472.22 1.472 1.3v3.139h1.066v-3.09c-.005-1.498-.84-2.266-2.484-2.266zm-19.029.005c-1.657 0-2.538.894-2.538 2.591v.267c0 1.698.971 2.592 2.805 2.592.745 0 1.454-.108 2.059-.316l-.226-.894-.05.018c-.347.13-.998.275-1.783.275-.768 0-1.68-.244-1.703-1.382h3.97v-.555c0-.14-.005-.266-.014-.388-.126-1.45-.989-2.208-2.52-2.208zm14.423.09v5.265h1.066v-5.265zm14.107.004v3.098c0 1.5.836 2.262 2.48 2.262 1.101 0 1.788-.135 2.316-.27l.045-.01v-5.08h-1.08v4.335h.005c-.347.077-.663.104-1.228.104-.908 0-1.472-.217-1.472-1.291v-3.148zm-3.459.818c.79 0 1.64.496 1.64 1.549 0 .429-.104.745-.267 1.016-.176.293-.488.582-.876.668 0 0-.732-.208-1.206-.37-.64-.222-.939-.637-.939-1.31 0-1.066.854-1.553 1.648-1.553zm-25.07.004c.636 0 1.39.23 1.444 1.292H8.124c.04-.845.533-1.292 1.431-1.292Z"/></svg>