<svg role="img" viewBox="0 0 64 64" xmlns="http://www.w3.org/2000/svg" fill="currentColor"><title>Myanmar National Airlines</title><path d="m8.045 30.453.017.029a.163.163 0 0 1 .021.104.092.092 0 0 1-.043.07.103.103 0 0 1-.101-.01l-2.79-2.856a.472.472 0 0 1-.139-.343c.014-.144.127-.29.337-.434a.64.64 0 0 1 .453-.153c.122.027.218.153.331.352zm-4.696.214a.393.393 0 0 0-.234.066c-.118.085-.189.255-.207.508a.635.635 0 0 0 .089.47c.085.094.243.113.47.113l3.814.035a.123.123 0 0 0 .126-.103.104.104 0 0 0-.07-.09l-3.86-.985a.744.744 0 0 0-.128-.014zm.322 4.14a.251.251 0 0 0 .074.012.9.9 0 0 0 .39-.154l3.321-1.878a.123.123 0 0 0 .057-.154.1.1 0 0 0-.09-.043h-.018l-3.833 1.074a.47.47 0 0 0-.289.228c-.06.132-.035.315.075.543.11.229.204.335.313.37zm-.556-1.533a.477.477 0 0 0 .361.045l3.868-.99a.101.101 0 0 0 .058-.084c0-.056-.063-.104-.138-.104H7.23l-3.765.034c-.227 0-.385.018-.47.112a.632.632 0 0 0-.09.47c.022.254.093.425.21.508zm4.318-6.804a.474.474 0 0 0-.229-.29.383.383 0 0 0-.153-.03.92.92 0 0 0-.385.105c-.207.1-.33.204-.363.307-.034.103.026.267.14.46l1.872 3.331a.124.124 0 0 0 .153.057.106.106 0 0 0 .042-.106zm-3.299 2.865c-.165-.095-.337-.178-.46-.138-.122.04-.214.153-.306.362-.092.208-.135.412-.076.542a.472.472 0 0 0 .292.23l3.843 1.074a.1.1 0 0 0 .089-.043.09.09 0 0 0 0-.08.163.163 0 0 0-.07-.08l-.031-.016zm4.377 4.352a.103.103 0 0 0-.044-.092.129.129 0 0 0-.154.069l-.018.03-1.857 3.275c-.114.196-.177.343-.14.46.037.116.154.214.364.306a.928.928 0 0 0 .385.106.385.385 0 0 0 .153-.03.475.475 0 0 0 .23-.292zm6.787-2.443c-.02-.253-.089-.423-.207-.508a.478.478 0 0 0-.368-.053l-3.866.987a.1.1 0 0 0-.056.085c0 .056.06.104.138.104h.036l3.764-.034c.227 0 .385-.018.47-.112a.633.633 0 0 0 .09-.47zm-1.226 3.423a.893.893 0 0 0 .39.153.258.258 0 0 0 .073-.01c.109-.034.213-.154.306-.362.094-.21.135-.411.076-.545a.472.472 0 0 0-.292-.228L10.782 32.6a.101.101 0 0 0-.093.043.127.127 0 0 0 .069.153l.03.019zm-4.969-4.08A1.41 1.41 0 1 0 10.513 32a1.412 1.412 0 0 0-1.41-1.412zM5.01 36.554c.014.144.127.29.337.434a.64.64 0 0 0 .453.153c.122-.027.218-.153.331-.352l1.946-3.284a.121.121 0 0 0-.026-.153.077.077 0 0 0-.04-.01.126.126 0 0 0-.073.025l-2.79 2.845a.47.47 0 0 0-.138.342zm4.683-6.24a.101.101 0 0 0 .043.092.129.129 0 0 0 .154-.069l.027-.023 1.851-3.282c.114-.196.177-.343.14-.46-.037-.116-.154-.214-.362-.306-.209-.092-.413-.135-.543-.076a.474.474 0 0 0-.23.292zm5.898 8.181v-.015a7.54 7.54 0 0 0 .272-.856 1.587 1.587 0 0 1-1.015.13c.076.277.033.614-.13 1.016a7.776 7.776 0 0 0 .855-.27zm-8.587 1.368c-.201.206-.519.338-.945.394a7.557 7.557 0 0 0 .662.614l.013.01h.015a7.755 7.755 0 0 0 .868-.203c-.342-.264-.55-.537-.613-.815Zm-4.782-2.697c.613.307 1.057.359 1.273.153l.92-.897a1.063 1.063 0 0 1-.589-.47c-.196-.27-.26-.514-.211-.73a.515.515 0 0 1 .018-.068l-.068-.017c-.21-.064-.381-.244-.526-.547a1.06 1.06 0 0 1-.112-.744l-1.236.346c-.361.11-.469.707-.501 1.183a7.287 7.287 0 0 0 .028 1.16v.014l.095.07a7.152 7.152 0 0 0 .91.547zm8.683 2.35-.318-1.244a1.054 1.054 0 0 1-.7.274c-.336.026-.575-.032-.736-.182a.613.613 0 0 1-.048-.051.49.49 0 0 1-.048.05c-.153.154-.4.21-.737.183a1.055 1.055 0 0 1-.701-.273L7.3 39.514c-.086.365.375.767.776 1.03l.076.05a7.385 7.385 0 0 0 .844.46l.107.049.037-.017a7.287 7.287 0 0 0 .994-.544c.397-.261.857-.661.77-1.028zm3.63-10.318a.24.24 0 0 0-.074-.011.896.896 0 0 0-.39.153l-3.321 1.874a.121.121 0 0 0-.057.154.104.104 0 0 0 .108.043l3.833-1.074a.47.47 0 0 0 .289-.228c.06-.132.035-.315-.075-.543-.11-.229-.204-.336-.313-.368Zm-2.382 11.06a1.583 1.583 0 0 1-.944-.395c-.073.278-.281.55-.622.813a7.697 7.697 0 0 0 .876.193h.015l.013-.009a7.568 7.568 0 0 0 .662-.603ZM6.051 23.743c.427.056.744.188.945.394.07-.278.279-.55.613-.813a7.668 7.668 0 0 0-.875-.193h-.016l-.012.01a7.61 7.61 0 0 0-.655.602zm6.81.33c-.131 0-.259 0-.378.013-.48.03-1.074.144-1.184.503l-.347 1.236a1.061 1.061 0 0 1 .744.112c.307.146.482.317.546.526a.48.48 0 0 1 .017.067.547.547 0 0 1 .067-.02.603.603 0 0 1 .135-.015 1.073 1.073 0 0 1 .594.226 1.058 1.058 0 0 1 .47.587l.896-.92c.256-.273.059-.844-.153-1.273a7.307 7.307 0 0 0-.604-.99l-.01-.013h-.04a7.357 7.357 0 0 0-.752-.038zm-1.651.062c.2-.205.518-.337.945-.394a7.836 7.836 0 0 0-.663-.613l-.012-.01h-.015a7.692 7.692 0 0 0-.876.194c.34.273.555.547.621.825zm-8.603 1.37v.015a7.675 7.675 0 0 0-.271.856c.397-.165.739-.209 1.015-.132-.077-.276-.032-.614.132-1.015a7.628 7.628 0 0 0-.856.27zm8.164 12.024a.47.47 0 0 0 .23.297.382.382 0 0 0 .154.031.928.928 0 0 0 .386-.106c.207-.1.328-.204.362-.306.034-.103-.026-.267-.14-.46L9.89 33.646a.141.141 0 0 0-.11-.066.08.08 0 0 0-.04.01.104.104 0 0 0-.044.108zM7.3 24.486l.317 1.242a1.058 1.058 0 0 1 .7-.275c.337-.026.576.034.737.183a.632.632 0 0 1 .047.05l.048-.05c.161-.153.4-.209.736-.183a1.06 1.06 0 0 1 .7.275l.32-1.242c.086-.365-.374-.767-.77-1.028a7.071 7.071 0 0 0-.92-.512l-.107-.049-.037.017a7.36 7.36 0 0 0-.994.543c-.405.262-.863.662-.777 1.029Zm10.665 9.905.01-.013v-.015a7.606 7.606 0 0 0-.194-.875c-.262.34-.535.549-.813.613.206.2.338.518.395.945a7.615 7.615 0 0 0 .602-.657zM5.726 24.087c-.12 0-.25-.012-.383-.012a7.603 7.603 0 0 0-.778.04H4.55l-.023.032a7.301 7.301 0 0 0-.59.97c-.212.431-.411 1.002-.154 1.275l.897.92a1.057 1.057 0 0 1 .47-.587c.277-.19.515-.26.73-.21a.547.547 0 0 1 .067.02.478.478 0 0 1 .017-.068c.064-.209.244-.38.546-.526a1.058 1.058 0 0 1 .744-.112l-.347-1.236c-.109-.36-.702-.474-1.18-.506ZM18.198 32v-.014a7.269 7.269 0 0 0-.555-1.018c-.382-.57-.736-.839-1.024-.767l-1.244.318a1.057 1.057 0 0 1 .275.7c.026.336-.034.577-.183.737a.53.53 0 0 1-.05.047.528.528 0 0 1 .05.05c.153.152.209.4.183.735a1.057 1.057 0 0 1-.275.7l1.244.317a.416.416 0 0 0 .09.01c.27 0 .592-.27.936-.78a7.24 7.24 0 0 0 .53-.964zM1.221 27.449v.015a7.221 7.221 0 0 0-.031 1.162c.032.479.144 1.074.503 1.181l1.236.347a1.061 1.061 0 0 1 .112-.744c.146-.307.317-.482.526-.548l.067-.016a.592.592 0 0 1-.02-.066c-.049-.214.02-.453.21-.729a1.057 1.057 0 0 1 .59-.47l-.92-.896c-.217-.203-.659-.154-1.275.153a7.261 7.261 0 0 0-.99.604zm15.764 0-.012-.01-.048-.04a7.257 7.257 0 0 0-.941-.57c-.614-.307-1.057-.359-1.274-.153l-.92.897a1.055 1.055 0 0 1 .588.469c.192.278.261.521.213.738a.506.506 0 0 1-.02.066l.068.016c.21.065.382.244.526.548a1.058 1.058 0 0 1 .112.744l1.234-.35c.36-.109.471-.7.503-1.18a7.25 7.25 0 0 0-.029-1.159zm.374 1.5a1.581 1.581 0 0 1-.388.944c.278.072.551.28.813.613a7.514 7.514 0 0 0 .193-.875v-.016l-.009-.012a7.539 7.539 0 0 0-.609-.653zM.241 29.61l-.01.012v.015a7.514 7.514 0 0 0 .194.878c.262-.34.535-.55.813-.622-.203-.194-.335-.52-.391-.946a7.714 7.714 0 0 0-.606.663Zm15.35-4.105h-.013a7.692 7.692 0 0 0-.856-.27c.164.397.208.737.13 1.013a1.073 1.073 0 0 1 .284-.037 1.952 1.952 0 0 1 .731.17 7.579 7.579 0 0 0-.27-.857zm1.388 11.04v-.014a7.295 7.295 0 0 0 .03-1.154c-.033-.481-.145-1.073-.504-1.185l-1.22-.344a1.063 1.063 0 0 1-.112.744c-.146.307-.318.482-.526.546a.52.52 0 0 1-.068.017.549.549 0 0 1 .02.067c.048.214-.02.453-.21.73a1.058 1.058 0 0 1-.589.47l.92.897c.217.202.66.153 1.278-.154a7.244 7.244 0 0 0 .973-.605zm-4.5 3.367c.12.008.25.012.383.012a7.577 7.577 0 0 0 .776-.04h.015l.008-.012.035-.047a7.4 7.4 0 0 0 .569-.94c.213-.431.412-1.003.153-1.276l-.897-.92a1.061 1.061 0 0 1-.47.588c-.277.19-.514.26-.73.21a.521.521 0 0 1-.067-.02.613.613 0 0 1-.016.068c-.065.21-.244.382-.548.526a1.058 1.058 0 0 1-.744.112l.351 1.236c.11.359.704.472 1.183.503zm2.608-6.646c.116-.085.187-.256.207-.508.017-.228-.012-.386-.09-.47-.079-.085-.244-.113-.471-.113l-3.816-.033a.121.121 0 0 0-.124.102.106.106 0 0 0 .07.09l3.863.984a.486.486 0 0 0 .365-.054zm-12.48 5.227h.014a7.92 7.92 0 0 0 .855.276c-.164-.397-.208-.737-.131-1.015-.276.077-.614.033-1.016-.132a7.654 7.654 0 0 0 .27.856zM.847 35.05c.056-.426.188-.744.394-.944-.278-.073-.55-.281-.813-.614a7.533 7.533 0 0 0-.195.87v.015l.01.012a7.642 7.642 0 0 0 .604.661zm3.68 4.788.032.043h.015a7.586 7.586 0 0 0 .778.04c.132 0 .26 0 .377-.013.482-.03 1.074-.144 1.186-.503l.346-1.236a1.058 1.058 0 0 1-.744-.112c-.306-.145-.481-.317-.545-.526a.477.477 0 0 1-.017-.067.534.534 0 0 1-.068.02c-.213.049-.45-.02-.73-.21a1.058 1.058 0 0 1-.469-.59l-.897.921c-.256.273-.057.843.153 1.273a7.237 7.237 0 0 0 .575.961zm4.82-9.534a.104.104 0 0 0 .09-.07l.986-3.857a.47.47 0 0 0-.053-.365c-.085-.118-.255-.187-.508-.207h-.118a.518.518 0 0 0-.351.095c-.094.086-.112.243-.112.47l-.034 3.816a.121.121 0 0 0 .1.118zm4.309-2.394a.46.46 0 0 0-.345.138l-2.854 2.788a.103.103 0 0 0-.008.101.13.13 0 0 0 .172.02l.03-.018 3.244-1.91c.197-.113.325-.208.353-.33a.635.635 0 0 0-.153-.453c-.15-.21-.295-.322-.439-.337Zm-4.841-2.016a.64.64 0 0 0-.471-.09c-.253.02-.425.09-.508.208a.472.472 0 0 0-.053.368l.989 3.867a.101.101 0 0 0 .084.058c.057 0 .104-.062.104-.138v-.038l-.033-3.765c0-.227-.019-.385-.112-.47zm3.258 10.898c.114.198.209.325.332.353a.28.28 0 0 0 .056 0 .758.758 0 0 0 .396-.164c.21-.144.322-.29.337-.433a.47.47 0 0 0-.138-.345l-2.79-2.849a.1.1 0 0 0-.102-.008.089.089 0 0 0-.043.068.163.163 0 0 0 .022.104l.017.03zM0 32l.017.037a7.3 7.3 0 0 0 .546.995c.342.51.664.78.934.78a.388.388 0 0 0 .092-.01l1.243-.318a1.055 1.055 0 0 1-.276-.699c-.026-.336.034-.576.183-.736a.613.613 0 0 1 .05-.049.53.53 0 0 1-.05-.048c-.153-.153-.209-.401-.183-.736a1.058 1.058 0 0 1 .275-.7l-1.244-.318a.414.414 0 0 0-.09-.01c-.27 0-.594.27-.936.781a7.318 7.318 0 0 0-.543.994Zm13.188-4.553c-.014-.144-.127-.29-.337-.434a.767.767 0 0 0-.396-.164.253.253 0 0 0-.056 0c-.123.027-.218.153-.332.353l-1.932 3.292a.121.121 0 0 0 .028.153.106.106 0 0 0 .113-.016l2.782-2.842a.47.47 0 0 0 .135-.342zm.46 8.644c.144-.013.29-.127.433-.335a.635.635 0 0 0 .153-.453c-.027-.122-.153-.218-.351-.331l-3.274-1.94a.173.173 0 0 0-.07-.017.097.097 0 0 0-.088.045.103.103 0 0 0 .017.113l2.846 2.782a.46.46 0 0 0 .342.135zM9.39 38.106a.515.515 0 0 0 .35.096h.12c.254-.02.425-.09.508-.207a.47.47 0 0 0 .052-.369l-.987-3.872a.101.101 0 0 0-.085-.056c-.056 0-.104.062-.104.138v.035l.034 3.763c.001.229.026.387.112.472zM4.55 27.91c-.144.013-.29.127-.432.337a.635.635 0 0 0-.154.452c.028.123.154.218.353.332l3.28 1.938a.172.172 0 0 0 .07.015.095.095 0 0 0 .088-.043.104.104 0 0 0-.017-.113l-2.846-2.782a.497.497 0 0 0-.307-.136Zm0 8.18a.47.47 0 0 0 .345-.137l2.854-2.79a.101.101 0 0 0 .008-.1.13.13 0 0 0-.172-.02l-.03.018-3.244 1.91c-.197.114-.325.209-.353.332a.633.633 0 0 0 .153.452c.15.209.295.322.439.336zm4.31-2.393a.106.106 0 0 0-.091.07l-.986 3.857a.47.47 0 0 0 .053.365c.085.118.255.187.508.207a.641.641 0 0 0 .47-.09c.093-.086.111-.244.111-.47l.035-3.816a.121.121 0 0 0-.102-.123zm34.358 4.706c-.55 0-.907-.421-.828-1.038.087-.685.516-1.107 1.1-1.107.551 0 .878.414.8 1.03-.09.694-.511 1.115-1.072 1.115zm.18-1.812c-.334 0-.59.271-.643.7-.06.478.133.778.54.778.347 0 .574-.294.627-.7.066-.51-.114-.777-.523-.777zm-6.541-.338c-.53 0-.92.34-.996.92l-.153 1.189h.348l.154-1.18c.053-.422.253-.597.564-.597.368 0 .504.167.45.596l-.153 1.181h.348l.154-1.193c.078-.617-.198-.914-.716-.914zm1.993 0a.92.92 0 0 0-.65.23l-.038.3a.939.939 0 0 1 .613-.203c.337 0 .472.124.434.426l-.012.097h-.28c-.613 0-.995.244-1.051.689-.046.368.29.613.711.613.581 0 .844-.307.897-.72l.083-.651c.06-.505-.184-.779-.71-.779zm.28 1.402c-.039.298-.182.422-.496.422-.267 0-.428-.143-.403-.325.029-.229.234-.356.648-.356h.283zm6.518-1.4c-.53 0-.92.34-.996.92l-.154 1.189h.348L45 37.182c.053-.422.253-.597.562-.597.369 0 .507.167.451.597l-.153 1.18h.348l.153-1.193c.082-.618-.194-.915-.713-.915zm13.035 0c-.53 0-.92.34-.995.92l-.153 1.189h.348l.153-1.181c.054-.422.253-.597.564-.597.369 0 .505.167.451.597l-.153 1.18h.348l.153-1.193c.073-.618-.204-.915-.716-.915zm-11.084 0a.92.92 0 0 0-.65.23l-.039.3a.939.939 0 0 1 .614-.203c.337 0 .472.124.434.426l-.012.097h-.28c-.613 0-.995.243-1.052.688-.046.368.29.614.712.614.581 0 .843-.307.897-.721l.083-.65c.057-.507-.187-.781-.713-.781zm.28 1.402c-.04.297-.182.421-.496.421-.267 0-.428-.142-.404-.325.03-.228.235-.356.65-.356h.281zm7.207-1.285a.446.446 0 0 0-.283-.074c-.403 0-.72.307-.792.879l-.154 1.188h.353l.153-1.16c.057-.442.178-.577.46-.577a.49.49 0 0 1 .235.053zm.983 1.686h-.117c-.193 0-.316-.073-.284-.332l.238-1.874c.023-.183-.07-.272-.213-.272h-.109l-.278 2.187c-.053.419.143.613.55.613a.68.68 0 0 0 .173-.02zm-6.699 0h-.116c-.194 0-.316-.073-.284-.332l.238-1.874c.023-.183-.07-.272-.214-.272h-.108l-.278 2.187c-.054.419.143.613.549.613a.676.676 0 0 0 .173-.02zm2.346-1.8a.92.92 0 0 0-.65.23l-.05.296a.939.939 0 0 1 .613-.202c.337 0 .472.124.434.426l-.012.097h-.28c-.613 0-.995.243-1.051.688-.046.368.29.614.711.614.581 0 .844-.307.897-.721l.083-.65c.066-.507-.178-.781-.705-.781zm.28 1.402c-.039.297-.181.421-.496.421-.267 0-.428-.142-.403-.325.03-.228.235-.355.649-.355h.282zm4.666-1.89a.287.287 0 0 1 .26-.242.207.207 0 0 1 .206.244.278.278 0 0 1-.267.24.207.207 0 0 1-.21-.245zm.535 2.293H57.1c-.193 0-.307-.081-.277-.34l.153-1.15a.218.218 0 0 0-.227-.278h-.109l-.187 1.475c-.048.38.106.581.446.614a.543.543 0 0 0 .092 0 .28.28 0 0 0 .163-.057zm-4.218-2.296a.287.287 0 0 1 .271-.239.209.209 0 0 1 .206.244.28.28 0 0 1-.267.24.209.209 0 0 1-.21-.245zm.536 2.293h-.1c-.193 0-.306-.081-.277-.34l.153-1.15a.218.218 0 0 0-.216-.275h-.109l-.187 1.475c-.049.38.106.581.446.614a.547.547 0 0 0 .094 0 .28.28 0 0 0 .163-.057zm-11.918-2.293a.285.285 0 0 1 .271-.239.209.209 0 0 1 .206.244.28.28 0 0 1-.26.235.207.207 0 0 1-.217-.24zm.535 2.293h-.1c-.193 0-.306-.081-.277-.34l.153-1.15a.218.218 0 0 0-.215-.275h-.108l-.188 1.475c-.047.38.106.581.447.614a.547.547 0 0 0 .093 0 .28.28 0 0 0 .163-.057zm19.13-.127a1.023 1.023 0 0 1-.562.153.538.538 0 0 1-.587-.589h.51c.709 0 .899-.153.945-.515a.655.655 0 0 0-.69-.72c-.55 0-1.025.444-1.109 1.114-.075.597.271 1.034.84 1.034a.978.978 0 0 0 .614-.165zm-1.103-.807a.676.676 0 0 1 .639-.554c.325 0 .46.198.426.422-.02.153-.11.201-.613.209h-.47zm2.53.046c-.417-.092-.488-.153-.471-.29.022-.173.176-.294.53-.294a.754.754 0 0 1 .48.153l.039-.307a.63.63 0 0 0-.505-.193c-.515 0-.86.307-.903.65-.04.307.126.442.503.523.46.102.523.174.502.345-.026.206-.174.307-.48.307a.758.758 0 0 1-.586-.233h-.02l-.018.153c-.033.249.226.411.575.411.472 0 .838-.233.894-.665.038-.28-.138-.47-.539-.56zm-21.807 1.097.032-.249a.767.767 0 0 1-.316.05c-.225 0-.325-.124-.288-.418l.13-1.026h.657l.043-.331h-.66l.054-.426h-.043a.46.46 0 0 0-.236.153.65.65 0 0 0-.13.32l-.172 1.348c-.06.477.11.717.57.717a.425.425 0 0 0 .36-.138zM29.807 31.57l-.39 3.067h-.92l.388-3.041c.143-1.124-.222-1.566-.955-1.566-.883 0-1.313.452-1.45 1.533l-.39 3.068h-.92l.388-3.041c.122-.974-.233-1.566-1.006-1.566s-1.265.472-1.403 1.566l-.387 3.042h-.92l.402-3.162c.153-1.227 1.073-2.31 2.481-2.31.793 0 1.291.352 1.543.974a2.3 2.3 0 0 1 1.81-.974c1.315.011 1.928.815 1.73 2.41zm23.38-2.399a2.3 2.3 0 0 0-1.811.974c-.251-.623-.75-.974-1.543-.974-1.406 0-2.324 1.074-2.482 2.31l-.402 3.162h.92l.386-3.043c.14-1.093.614-1.565 1.404-1.565.79 0 1.128.591 1.005 1.565l-.387 3.043h.92l.39-3.067c.137-1.084.567-1.534 1.45-1.534.733 0 1.098.442.955 1.566l-.37 3.035h.92l.39-3.067c.201-1.601-.41-2.405-1.745-2.405zm-8.894 0c-1.38 0-2.391.883-2.583 2.39l-.39 3.082h.902l.39-3.067c.138-1.095.658-1.546 1.461-1.546.954 0 1.312.432 1.17 1.546l-.389 3.067h.903l.393-3.092c.2-1.607-.514-2.38-1.859-2.38zM40.69 31.19l-.214 1.687c-.138 1.084-.82 1.868-2.325 1.868-1.093 0-1.968-.632-1.84-1.586.153-1.154 1.12-1.786 2.726-1.786h.723l.032-.25c.1-.784-.252-1.104-1.126-1.104a2.434 2.434 0 0 0-1.587.526l.098-.775c.328-.323.905-.595 1.687-.595 1.36-.003 1.992.71 1.826 2.015zm-1.022.943h-.733c-1.074 0-1.61.332-1.687.92-.06.471.354.844 1.047.844.813 0 1.186-.322 1.284-1.095zm20.425-.944-.215 1.687c-.138 1.084-.819 1.867-2.325 1.867-1.093 0-1.967-.631-1.84-1.585.153-1.155 1.12-1.787 2.726-1.787h.723l.032-.25c.1-.783-.252-1.104-1.126-1.104a2.437 2.437 0 0 0-1.587.526l.098-.774c.327-.324.905-.595 1.687-.595 1.359-.002 1.992.711 1.827 2.016zm-1.025.944h-.733c-1.073 0-1.608.332-1.687.92-.06.471.355.844 1.048.844.812 0 1.185-.322 1.283-1.095zM64 29.473a1.155 1.155 0 0 0-.731-.19c-1.045 0-1.868.792-2.057 2.278l-.391 3.083h.92l.382-3.012c.146-1.144.46-1.495 1.173-1.495a1.268 1.268 0 0 1 .614.14zm-28.873-.197h-.26l-.392 3.083c-.129 1.014-.906 1.533-1.533 1.533-.835 0-1.227-.401-1.098-1.476l.322-2.54c.05-.402-.115-.592-.597-.592h-.24l-.402 3.155c-.204 1.605.5 2.31 1.775 2.31.493 0 1.081-.222 1.566-.944l-.087.69c-.183.928-.893 1.38-1.722 1.38-.732 0-1.152-.153-1.462-.414l-.098.767c.273.307.79.485 1.342.485 1.366 0 2.607-.734 2.874-2.3l.576-4.54c.054-.406-.112-.597-.564-.597z"/></svg>