<svg role="img" viewBox="0 0 24 24" xmlns="http://www.w3.org/2000/svg"><title>British Airways</title><path d="M18.043 8.998a74.69 74.69 0 0 0-1.857.033C14.004 9.09 2.05 9.584 0 9.658a31.707 31.707 0 0 0 3.612.899c2.731.547 5.184.668 10.82.642.546 0 2.63-.005 4.333-.04a136.3 136.3 0 0 1 2.105-.015 11.254 11.254 0 0 1 1.41.07 3.003 3.003 0 0 1 1.216.418 1.685 1.685 0 0 1 .227.177 1.348 1.348 0 0 1 .197.23.662.662 0 0 1 .08.158 1.024 1.024 0 0 0-.037-.17 1.674 1.674 0 0 0-.075-.21 5.77 5.77 0 0 0-.145-.315 7.96 7.96 0 0 0-.484-.828 7.308 7.308 0 0 0-.234-.34 1.676 1.676 0 0 0-.14-.17 2.526 2.526 0 0 0-1.095-.707 6.2 6.2 0 0 0-1.064-.287 11.128 11.128 0 0 0-1.288-.14 23.342 23.342 0 0 0-1.395-.032zm3.952 2.578c-.026.022-.054.046-.084.068a9.258 9.258 0 0 1-2.18 1.089c-.84.315-1.255.453-1.958.681-.623.203-1.93.581-1.93.581a32.768 32.768 0 0 0 4.208 1.007 13.962 13.962 0 0 0 2.197-.983 6.337 6.337 0 0 0 1.242-.768l.112-.102a.579.579 0 0 0 .146-.313.58.58 0 0 0 .004-.177.68.68 0 0 0-.071-.226 1.136 1.136 0 0 0-.307-.358 2.538 2.538 0 0 0-.786-.385 4.333 4.333 0 0 0-.593-.114z"/></svg>