<svg role="img" viewBox="0 0 64 64" xmlns="http://www.w3.org/2000/svg"><title>British Airways</title><path d="M57.557 27.052c-.577 0-1.237.014-2.008.035-2.36.064-15.287.598-17.504.678a34.29 34.29 0 0 0 3.906.972c2.954.592 5.606.722 11.701.694.591 0 2.845-.004 4.686-.041.414-.008 2.03-.023 2.277-.018a12.171 12.171 0 0 1 1.526.076 3.248 3.248 0 0 1 1.314.451 1.822 1.822 0 0 1 .244.192 1.457 1.457 0 0 1 .215.248.716.716 0 0 1 .086.172 1.107 1.107 0 0 0-.04-.184 1.81 1.81 0 0 0-.081-.226c-.05-.115-.1-.229-.156-.34a8.608 8.608 0 0 0-.524-.897 8.125 8.125 0 0 0-.254-.367 1.813 1.813 0 0 0-.15-.183 2.732 2.732 0 0 0-1.186-.766 6.705 6.705 0 0 0-1.15-.31 12.034 12.034 0 0 0-1.393-.151 25.27 25.27 0 0 0-1.51-.035zm4.275 2.789a1.442 1.442 0 0 1-.092.072 10.012 10.012 0 0 1-2.357 1.178c-.907.34-1.357.489-2.117.736-.674.22-2.086.63-2.086.63a35.437 35.437 0 0 0 4.549 1.087 15.099 15.099 0 0 0 2.376-1.063 6.853 6.853 0 0 0 1.344-.83l.12-.11a.626.626 0 0 0 .16-.339.627.627 0 0 0 .003-.191.736.736 0 0 0-.078-.244 1.229 1.229 0 0 0-.332-.387 2.745 2.745 0 0 0-.85-.418 4.686 4.686 0 0 0-.64-.121zm-47.703 2.601a3.806 3.806 0 0 1-.775.059h-3.196l-.3.643c.19-.114.456-.143.68-.143h.962v3.477c0 .153-.07.324-.213.39h1.33c-.14-.066-.217-.238-.217-.39V32.99c.361 0 .782.017 1.036.024.208 0 .572-.243.693-.573zm3.625 0c-.686 0-1.469.268-1.469 1.09 0 1.328 1.957 1.517 1.957 2.348 0 .473-.323.663-.756.662-.572 0-1.03-.396-1.252-.9a3.449 3.449 0 0 0-.043.533 3.154 3.154 0 0 0 .032.45c.353.242.927.323 1.347.323.804 0 1.6-.378 1.6-1.29 0-1.259-1.988-1.469-1.988-2.33 0-.364.33-.52.646-.52.401 0 .832.26 1.004.62l-.049-.814c-.28-.129-.723-.172-1.03-.172zm31.935 0c-.686 0-1.464.268-1.464 1.09 0 1.328 1.955 1.517 1.955 2.348 0 .473-.324.663-.76.662-.571 0-1.03-.396-1.252-.9a3.642 3.642 0 0 0-.043.533 2.977 2.977 0 0 0 .033.45c.355.242.93.323 1.35.323.808 0 1.6-.378 1.6-1.29 0-1.259-1.989-1.469-1.989-2.33 0-.364.327-.52.645-.52.4 0 .83.26 1.004.62l-.05-.814c-.282-.129-.721-.172-1.029-.172zm-4.91.004c-.253 0-.63.073-.754.12.457 0 .83.626.91.761l.899 1.44v1.71c0 .136-.06.32-.191.391h1.283c-.138-.066-.194-.251-.194-.39v-1.704l1.032-1.814c.098-.173.249-.371.431-.459h-.925c.063.043.091.084.091.146 0 .05-.053.149-.132.288 0 0-.659 1.144-.729 1.273l-.83-1.318c-.259-.406-.468-.444-.89-.444ZM0 32.501c.141.075.203.243.203.395v3.582c0 .146-.063.319-.203.39h1.85c.722 0 1.746-.252 1.746-1.23 0-.686-.597-1.065-1.217-1.059.431-.081.828-.442.828-.9 0-.865-.74-1.178-1.502-1.178zm3.955 0c.138.075.205.243.205.395v3.582c0 .153-.067.319-.205.39h1.31c-.14-.066-.204-.244-.204-.39V34.81c.567.006.787.594 1.04 1.021.164.263.574.932.87 1.02.16.047.342.043.51.043.28 0 .56-.034.828-.112-1.001-.006-1.535-2.14-2.442-2.144.637 0 1.21-.355 1.21-1.047 0-.825-.86-1.09-1.546-1.09zm4.422 0a.44.44 0 0 1 .22.395v3.582c0 .196-.111.341-.22.39h1.342c-.115-.05-.221-.194-.221-.39v-3.582c0-.198.106-.341.22-.395zm5.91 0a.44.44 0 0 1 .22.395v3.582c0 .196-.11.341-.218.39h1.34c-.115-.05-.225-.194-.225-.39v-3.582c0-.198.111-.341.225-.395zm5.379 0c.095.048.197.196.197.395v3.582c0 .196-.1.348-.197.39h1.293c-.096-.05-.195-.194-.195-.39v-1.623c.238-.027.566-.04.937-.04.365 0 .692.013.926.04v1.623c0 .196-.103.348-.197.39h1.29c-.095-.05-.193-.194-.193-.39v-3.582c0-.198.097-.347.194-.395H22.43c.094.048.197.196.197.395v1.466c-.234.022-.56.04-.926.04a9.38 9.38 0 0 1-.937-.04v-1.466c0-.198.098-.347.195-.395zm10.313 0a.44.44 0 0 1 .22.395v3.582c0 .196-.112.341-.22.39h1.341c-.113-.05-.22-.194-.22-.39v-3.582c0-.198.107-.341.22-.395zm2.054 0c.141.075.207.243.207.395v3.582c0 .153-.066.319-.207.39h1.309c-.138-.066-.201-.244-.201-.39V34.81c.563 0 .892.594 1.144 1.021.163.263.572.932.87 1.02.163.047.342.043.51.043.282 0 .562-.034.831-.112-.933 0-1.5-2.09-2.441-2.144.473 0 1.1-.355 1.1-1.047 0-.825-.858-1.09-1.542-1.09zm8.545 0c.054.043.076.077.076.13 0 .045-.012.071-.033.142l-.857 2.572-1.133-2.842-1.027 2.947-.965-2.613a.539.539 0 0 1-.037-.152c0-.092.036-.14.09-.182h-1.288c.161.088.27.248.334.416l1.48 3.95h.41l.864-2.444.598 1.514c.075.193.28.723.412.85.061.042.167.08.277.08l1.325-3.942c.054-.163.167-.343.326-.426zm-13.713.002c.092.048.16.145.16.248a.14.14 0 0 1-.007.055l-1.444 3.726a.688.688 0 0 1-.297.336h.877c-.046-.022-.103-.054-.103-.119 0-.029.019-.073.07-.205a211.45 211.45 0 0 0 .42-1.068 7.78 7.78 0 0 1 .783-.034c.274 0 .556.001.824.034.043.112.399 1.09.399 1.09a.478.478 0 0 1 .04.15c0 .076-.038.11-.08.152h1.25a.671.671 0 0 1-.294-.338l-1.467-4.027Zm15.315 0a.292.292 0 0 1 .164.248c0 .021-.006.04-.01.055l-1.447 3.726a.678.678 0 0 1-.295.336h.877c-.047-.022-.1-.054-.1-.119 0-.029.013-.073.068-.205 0 0 .383-.97.42-1.068.26-.027.524-.034.782-.034.274 0 .555.001.826.034.042.112.398 1.09.398 1.09a.622.622 0 0 1 .041.15c0 .076-.035.11-.08.152h1.252a.673.673 0 0 1-.297-.338l-1.467-4.027Zm-40.8.375c.517 0 .923.175.923.777 0 .607-.507.768-1.03.768h-.171v-1.527c.146-.018.2-.018.279-.018zm3.903 0c.48 0 .837.193.836.74 0 .533-.362.805-.853.805-.07 0-.134-.007-.205-.012v-1.51c.077-.01.145-.023.222-.023zm28.074 0c.48 0 .84.193.838.74 0 .533-.36.805-.853.805-.068 0-.131-.007-.201-.012v-1.51c.075-.01.144-.023.216-.023zm-5.988.453.615 1.701c-.22.027-.447.026-.675.026-.2 0-.405-.004-.602-.026zm15.318 0 .618 1.701c-.221.027-.45.026-.676.026-.199 0-.402-.004-.602-.026zM1.49 34.815c.55 0 1.076.15 1.076.81 0 .669-.445.864-.882.864a3.04 3.04 0 0 1-.582-.049v-1.613c.152-.011.263-.012.388-.012z"/></svg>