<svg role="img" viewBox="0 0 64 64" xmlns="http://www.w3.org/2000/svg"><title>Aeroméxico</title><path d="M7.5861 26.7685c-2.3228 0-3.6005 1.153-5.2883 1.1811-.197.0031-.7428 0-.7428 0 0 1.0324.3858 1.6343.5563 1.7985C1.6905 29.9906 0 32.1115 0 33.1016l.0736.1849 1.3627.1748-.2644 1.3953.0728.1848 1.3409.1757-.4852 1.6562.0736.184s.4633.174 1.1218.174c.5912 0 3.1428.0704 3.5291-3.2004.0016-.014.0027-.0268.0042-.0393.4505 1.7644 1.632 2.0904 4.0612 2.0904.6867 0 .4-.9108.4751-1.2096.0751-.0454.1341-.1718.0904-.3203.0437-.0376.102-.1317.102-.2083 0-.1768-.092-.4113-.092-.793.2033-.0579.5705-.13.5705-.4099 0-.1674-.375-1.0903-.6081-1.6972-.036-.0955-.1141-.1707-.2142-.1707-.158-.0015-.224.2117-.6558.2117-.7946.0015-.5022-.7555-2.9001-.6006-.294.0187-.3764.1047-.4124.3847-.0876.682-.0709 2.5263.3296 3.6338-.5053-.549-.6679-1.5956-.7445-2.4075-.1611 1.5048-.2488 3.5666-2.154 4.2486-.8196.2815-1.7267.2265-2.5713.128.5114.0078 1.023-.0081 1.5282-.077.3316-.0438.6588-.119.9653-.2551 2.2102-.9307 1.5202-3.9005 2.0536-5.3552-.9776.9839-1.1703 3.6462-3.576 3.7776-.6382.0375-1.2717-.0125-1.9005-.108.6272.0173 1.2627.0092 1.8821-.077 2.1586-.2924 2.1911-2.6203 3.2063-3.7934-.4145.0891-.8196.2208-1.1903.4241-.5475.2862-.9386.7381-1.3953 1.1636-.5897.5506-1.2447.7167-2.0377.6666-.546-.0266-1.0918-.0699-1.6362-.1371.022 0 .9352-.0251.9352-.0251.5975-.0298 1.243.0079 1.7968-.2393.4176-.1783.7228-.5115 1.0247-.8432.5631-.6397 1.1891-1.0831 2.0134-1.3225.6148-.1877 2.617-.3924 3.8605-.3454.7336.0281 2.2379.211 3.2046.5989-.0157-.0031-.0296-.0077-.0452-.0109-.4083-.0829-.888-.0345-1.279.1188.4066.011.8488.0379 1.1945.1255.305.0766.8998.2063.9795.5395.0032-.0219.0168-.1061.0168-.3095 0-1.2904-1.0742-2.4919-2.205-2.4919-.1267 0-.2477.0192-.3321.0427-1.0433-.0563-1.5424.1715-1.9616.1715-.2518 0-1.2076-.4491-1.9616-.7479 0 0 .9547-.2417 1.8604-.2417.9057 0 1.7983.5114 2.0611.8164-.5725-1.3655-2.4807-2.1682-3.5819-2.1682zM17.661 29.401c0 .366.1679.6926.429.91l-1.7532 4.2896h1.0883l.4818-1.2313h2.1289l.4768 1.2313h1.089l-1.9398-4.7538c-.1173-.2722-.3155-.4223-.5955-.4442l.0017-.0017zm15.6223 0c-.804 0-1.4238.2253-1.8587.6742-.4348.4505-.6525 1.084-.6525 1.9022 0 .818.2177 1.4591.6525 1.9205.4349.4615 1.0547.6935 1.8587.6935s1.4185-.232 1.8503-.6935c.4333-.463.6491-1.1025.6491-1.9205 0-.8181-.2158-1.4533-.6491-1.9022-.4333-.4505-1.0495-.6742-1.8503-.6742zm2.7387 0c0 .366.167.6934.4282.9092v4.2887h1.0105V31.12l1.0891 2.0511c.1596.3035.361.455.6082.455h.3187c.2455 0 .4494-.1515.609-.455l1.0882-2.051v3.479h1.0105v-5.198H41.091l-1.7081 2.952c-.0172.0297-.0387.0451-.0653.0451s-.0489-.0154-.066-.0452l-1.5066-2.6081a.697.697 0 0 0-.6006-.3438Zm11.0366 0 1.816 2.4735-2.0033 2.7244h1.1961l1.3125-1.7892a.1105.1105 0 0 1 .1773 0l1.315 1.7909h1.1937l-1.9976-2.7253 1.8127-2.4727h-.0017v-.0017H50.683l-1.1167 1.5233a.1218.1218 0 0 1-.1974 0l-1.1133-1.5233zm5.4448 0v5.198h1.0171V30.418c0-.5615-.4552-1.0171-1.0171-1.0171zm8.9956 0c-.8022 0-1.4231.2254-1.8579.6758-.435.4505-.6524 1.0843-.6524 1.9039 0 .8197.2173 1.4592.6524 1.9223.4348.463 1.054.6926 1.8579.6926.8043 0 1.4194-.2312 1.8528-.6926.433-.463.6483-1.1026.6483-1.9223 0-.8196-.2153-1.4534-.6483-1.9039-.4334-.4504-1.0502-.6758-1.8528-.6758Zm-39.4707.0017v4.0795c0 .366.1115.6423.332.8332.2222.1908.513.2852.8759.2852h2.4024v-.8858h-2.2552c-.2253 0-.338-.0777-.338-.2326v-1.0406h2.481v-.885h-2.481v-1.269h2.5932v-.885zm20.9558 0v4.0795c0 .366.1107.6423.3312.8332.2223.1908.5135.2852.8767.2852h2.4024v-.8858h-2.256c-.2253 0-.338-.0777-.338-.2326v-1.0406h2.481v-.885h-2.481v-1.269h2.594v-.885zm13.977 0c-.873 0-1.5589.2302-2.0578.69-.499.46-.7479 1.0904-.7479 1.8897 0 .7993.249 1.4324.7462 1.9064.4976.4739 1.1716.7101 2.0226.7101.5114 0 1.042-.064 1.5927-.1923v-.8917c-.6227.1439-1.1549.2141-1.596.2141-.535 0-.9633-.1534-1.2824-.4584-.3195-.3066-.4784-.7363-.4784-1.2915 0-.5554.159-.9716.4768-1.2657.3173-.294.7584-.4408 1.3216-.4408.4176 0 .9374.0729 1.5584.2183v-.9067c-.5525-.1205-1.0723-.1815-1.5559-.1815zm-30.6918.0017v5.1962h1.0163V32.691h.9043l1.223 1.9098h1.2262L29.233 32.47c.5928-.2393.8883-.7067.8883-1.4028h.0017v-.0017c0-.538-.1778-.95-.5345-1.2347-.3566-.2846-.8387-.4266-1.4471-.4266zm7.0106.829c.4834 0 .8537.1456 1.1134.4366.2596.291.3881.7253.3881 1.304 0 .5788-.1301 1.025-.3898 1.3284h-.0017c-.2596.3035-.6298.455-1.11.455-.4802 0-.8554-.1515-1.115-.455-.2597-.3034-.3898-.7465-.3898-1.3283 0-.5819.1301-1.0132.3898-1.3041.2596-.291.6316-.4367 1.115-.4367zm28.2166.0016c.4835 0 .8534.1449 1.1134.4358.2595.291.388.7263.388 1.3066 0 .5804-.1302 1.0241-.3897 1.3275-.2596.3035-.6299.456-1.1117.456-.4818 0-.8564-.1525-1.1159-.456-.2595-.3034-.3906-.7456-.3906-1.3275 0-.5818.1293-1.0156.3906-1.3066.2595-.2909.6328-.4358 1.1159-.4358zm-34.2075.0544h.8507c.3723 0 .6276.0642.7637.194.136.1283.205.3225.205.5806 0 .258-.0805.4425-.2385.563l-.0008-.0018c-.1595.1205-.4025.1799-.7294.1799h-.8507zm-8.3156.2911c.0157 0 .0303.0222.046.0644l.7002 1.8863h-1.4948l.7001-1.8863c.0172-.0422.0329-.0644.0485-.0644z" fill="#020C41"/></svg>