<svg role="img" viewBox="0 0 64 64" xmlns="http://www.w3.org/2000/svg"><title>Air Albania</title><path d="M6.135 25.828C2.747 25.828 0 28.591 0 32a6.17 6.17 0 0 0 .832 3.107c.814-1.12 3.315-1.56 4.637-1.84l.412-.085a5.69 5.69 0 0 0 2.146-.938c-.457.805-1.7 2.535-4.158 3.06-1.036.223-1.94.316-2.633.41.116.155.238.305.368.448.052-.007.104-.015.158-.021a26.356 26.356 0 0 0 2.234-.36 6.737 6.737 0 0 0 2.076-.816c-.687 1.017-2.247 1.843-3.527 2.04a6.087 6.087 0 0 0 3.59 1.167c3.388 0 6.133-2.763 6.133-6.172s-2.745-6.172-6.133-6.172zm3.908 1.867s-.43 4.187-4.29 5.01c-2.689.574-4.488.914-5.054 1.816.173-.72.484-1.382.77-1.722.906-1.08 1.797-1.387 3.949-2.125.414-.142.88-.302 1.396-.485 2.1-.744 2.914-1.769 3.229-2.494zm6.459 1.649.139.338-2.348 4.974h.908l.229-.363c.108-.207.605-.516 1.533-.516h1.553l.41.856.013.023h.938l-2.426-5.289-.01-.023h-.939zm15.154 0 .139.338-2.348 4.974h.908l.229-.363c.109-.207.605-.516 1.533-.516h1.553l.41.856.014.023h.937l-2.426-5.289-.01-.023h-.939zm15.33 0 .139.338-2.348 4.974h.909l.228-.363c.109-.207.606-.516 1.533-.516H49l.422.88h.937l-2.423-5.29-.012-.023h-.938zm7.875 0v3.779l-2.84-3.754-.011-.017h-.98l.128.289v5.015h.826v-3.904l2.912 3.904h.813v-5.312h-.848zm6.696.01-.928.011.135.317-2.348 4.974h.91l.227-.363c.109-.207.608-.516 1.535-.516h1.55l.413.856.011.023H64l-2.432-5.279-.011-.023zm-41.036.003v5.3h.827v-5.3h-.827zm2.133 0v5.3h.84v-1.973c.318-.165.654-.188.94-.188h.578l.62 1.313c.409.848 1.04.847 1.651.847h.041v-.86l-.209.009h-.076c-.308 0-.413-.08-.742-.565l-.381-.787c.76-.209 1.178-.745 1.178-1.516 0-.96-.657-1.58-1.674-1.58h-2.766zm12.94 0v5.3h3.717v-.846h-2.877v-4.454h-.84zm4.396 0v5.3h2.67c.84 0 1.82-.386 1.82-1.47 0-.714-.34-1.152-.677-1.34.272-.206.426-.574.426-1.02 0-.893-.615-1.47-1.569-1.47h-2.67zm17.026 0v5.3h.826v-5.3h-.826zm-33.522.846h1.926c.558 0 .842.232.842.692 0 .624-.458.755-.842.755h-.986c-.305 0-.628.016-.94.176v-1.623zm17.332.006h1.834c.491 0 .73.204.73.623 0 .438-.259.68-.73.68h-.89c-.31 0-.636.023-.944.181V30.21zm-23.676.537.987 2.15h-.895c-.664 0-1.025.117-1.217.225l1.125-2.375zm15.153 0 .988 2.15h-.895c-.663 0-1.025.117-1.216.225l1.123-2.375zm15.33 0 .986 2.15h-.894c-.664 0-1.026.117-1.217.225l1.125-2.375zm13.64 0 .987 2.15h-.895c-.664 0-1.024.117-1.217.225l1.125-2.375zM41.77 32.37h.89c.45 0 .986.127.986.723 0 .525-.558.719-.91.719h-1.91v-1.247c.256-.131.555-.195.944-.195z"/></svg>