<svg role="img" viewBox="0 0 64 64" xmlns="http://www.w3.org/2000/svg"><title>Air Europa</title><path d="M14.182 25.604c-2.192.1-2.988.399-4.184 1.495a4.484 4.484 0 0 0-1.595-1.146c-4.135-1.295-6.974 1.843-7.97 5.032-.947 3.188-.4 6.975 2.241 7.373 2.092.3 3.388-.847 4.733-1.893.598 1.444 1.943 1.943 3.736 1.943 2.391.05 4.086-1.495 5.83-2.99l-.649-.996c-1.594 1.047-2.49 1.594-4.483 2.043-1.196.05-1.794-1.395-1.943-2.54a9.167 9.167 0 0 1 1.694-5.88c.498-.647 1.245-1.095 2.092-1.095 1.295.05 1.445 1.195 1.296 2.042-.399 1.495-2.441 2.59-3.737 3.587v1.345a30.34 30.34 0 0 0 4.235-2.59c1.245-.997 2.141-1.246 2.191-2.99.05-1.744-1.245-2.89-3.487-2.74zm-7.247 1.273c.77-.033 1.219.508 1.219 1.666-.498 2.093-1.345 3.987-.996 6.328-.947.648-2.242 1.594-3.089 1.096-1.096-1.047-1.046-2.99-.797-4.484a5.978 5.978 0 0 1 2.79-4.384 2.56 2.56 0 0 1 .873-.222zm22.243.67a.797.797 0 0 0-.798.797.797.797 0 0 0 .798.798.797.797 0 0 0 .797-.798.797.797 0 0 0-.797-.797zm-5.63.4-1.843 6.924h1.644l.298-1.196h1.943l.3 1.196h1.743l-1.893-6.925Zm11.16.049v6.875h4.035v-1.245H36.35V31.98h1.993v-1.146H36.35v-1.643h2.342v-1.196zm22.608 1.195a1.594 1.594 0 0 0-1.536.698l-.149-.598h-1.096v7.223h1.395v-1.892c.249.15.598.249.947.249a1.993 1.993 0 0 0 1.892-1.495c.2-.946.2-1.893-.05-2.84a1.993 1.993 0 0 0-.597-.996 1.594 1.594 0 0 0-.806-.35zm-6.318 0c-1.296-.05-2.391.947-2.391 2.84 0 1.893 1.046 2.84 2.39 2.84 1.346 0 2.343-1.146 2.343-2.84s-1.047-2.84-2.342-2.84zm10.81 0c-.647.05-1.096.15-1.893.548l.349.997c.448-.2.847-.349 1.345-.349.449 0 .847.35.847.997l-.698.05c-1.195.05-1.843.497-2.042 1.344-.1.399-.1.797.15 1.245.249.449.598.898 1.445.848.548-.05 1.045-.299 1.344-.747l.299.597H64v-3.687c0-.597-.15-1.046-.747-1.494-.449-.25-.946-.348-1.444-.348zm-37.164.398.598 2.592h-1.245zm3.787 0v5.282h1.544v-5.282zm14.297 0v3.29c0 .597-.3.895-.648.895-.349 0-.747-.298-.747-.896V29.64h-1.444v2.042c0 1.894.049 2.192.198 2.491.2.35.498.598.997.698a1.793 1.793 0 0 0 1.794-.648l.198.648h1.147v-5.282zm-9.06.02a1.3 1.3 0 0 0-1.252.878l-.2-.797h-.996l-.05 5.181h1.395v-3.588l1.346-.099V29.64a1.231 1.231 0 0 0-.243-.031zm14.248 0a1.3 1.3 0 0 0-1.252.878l-.2-.797h-.996v5.181h1.345v-3.588l1.345-.099V29.64a1.231 1.231 0 0 0-.242-.031zm8.662.778c.598.1.896.498.896 1.594.05.797.05 1.594-.947 1.793-.249.05-.448-.099-.597-.298v-2.79c.15-.2.399-.299.648-.299zm-5.58.1c.548 0 .946.647.946 1.544-.05.896-.398 1.494-.946 1.494-.548 0-.947-.598-.947-1.494-.05-.897.399-1.544.947-1.544zm11.507 1.893v.946c-.398.398-.896.697-1.344.2-.15-.2-.25-.4-.05-.698.2-.3.597-.498 1.394-.448z" fill="#006FDE"/></svg>