<svg role="img" viewBox="0 0 64 64" xmlns="http://www.w3.org/2000/svg"><title>Air New Zealand</title><path d="M55.158 35.405c.554 1.26 1.472 2.02 2.595 2.02 1.057 0 1.774-.877 1.774-1.71 0-.95-.667-1.57-1.451-1.57-.84 0-1.018.688-1.018.862 0 .397.305.767.695.767.613 0 .659-.531.659-.531s.189.127.189.47c0 .326-.257.74-.848.74-.472 0-1.168-.269-1.647-1.372-.565-1.29-.603-1.673-.603-1.673h7.429l.423-1.027H54.01c0 .001.494 1.546 1.148 3.024zm1.247-4.59s.578-.847 1.812-2.114c.309-.315 1.121-1.113 1.947-1.113.542 0 .963.369.963.87 0 .498-.388.642-.388.642.04-.213-.083-.793-.596-.793a.74.74 0 0 0-.755.738c0 .61.506 1.048 1.098 1.048 1.136 0 1.665-.88 1.665-1.732 0-.86-.76-1.786-1.987-1.786-1.128 0-2.173.869-2.768 1.503-2.112 2.246-3.227 3.761-3.227 3.761h9.41L64 30.814h-7.597ZM22.978 35.23l-.304-2.67c-.013-.125-.116-.175-.23-.175h-.62l.122.963-.98 1.88-.364-2.67c-.014-.125-.116-.175-.23-.175h-.649l.575 4.069h.433l1.297-2.426.302 2.426h.433l2.242-4.068h-.473zM4.426 36.453h.907l.836-4.068h-.906Zm25.814-4.068h-3.316c.055.28.168.398.5.398H29.1l-2.654 2.907c-.229.252-.379.423-.394.762h3.45c-.054-.276-.166-.392-.492-.398H27.26l2.552-2.864c.326-.378.398-.576.428-.805zm-21.641 0H6.882l.177.354-.762 3.714h.905l.755-3.69h.277c.52 0 .744.33.702.818-.034.438-.33.912-1.242 1.017l.729 1.407c.191.36.277.447.777.447h.48l-1.013-1.726c.54-.091 1.133-.462 1.202-1.12.08-.752-.426-1.221-1.27-1.221zm-7.121 2.567L2.57 33.26l.243 1.692zm1.336-2.925L0 36.453h.508l.701-1.085h1.66l.076.505c.051.399.147.58.573.58h.431l-.682-4.425Zm12.05 3.174-1.274-2.383c-.183-.342-.278-.433-.67-.433h-.561l.236.477-.734 3.592h.472l.613-2.99 1.405 2.543c.155.286.298.447.728.447l.839-4.068h-.475zm1.054 1.252h2.875c-.054-.279-.17-.397-.498-.397H16.91l.313-1.498h1.423l.077-.405h-1.429l.283-1.37h1.318c.33 0 .446-.119.498-.398h-2.639zm31.61-1.252-1.276-2.384c-.184-.342-.277-.432-.668-.432h-.56l.237.476-.736 3.592h.474l.612-2.99 1.404 2.544c.156.286.298.446.73.446l.837-4.068h-.473Zm-14.446-2.417c.33 0 .446-.12.5-.398h-2.64l-.837 4.067h2.874c-.055-.279-.166-.397-.499-.397h-1.384l.312-1.497h1.423l.08-.405h-1.43l.285-1.37zm1.556 2.168.877-1.42.29 1.42zm1.086-2.567-2.517 4.068h.506l.67-1.085h1.51l.101.505c.082.395.17.58.594.58h.434l-.846-4.068zm5.932 2.567.877-1.42.289 1.42zm1.085-2.567-2.519 4.068h.508l.668-1.085h1.511l.103.505c.08.395.168.58.594.58h.432l-.844-4.068zm-3.244 3.67h-1.012l.756-3.67h-.904l-.84 4.068h2.5c-.054-.279-.167-.397-.5-.397zM51.72 34.42c-.15 1.05-.927 1.658-1.784 1.658h-.25l.681-3.308h.252c.857 0 1.247.616 1.1 1.65zm-.9-2.034H49.3l.175.352-.766 3.715h1.372c1.227 0 2.375-.745 2.57-2.033.194-1.27-.641-2.034-1.83-2.034z"/></svg>