<svg role="img" viewBox="0 0 64 64" xmlns="http://www.w3.org/2000/svg"><title>Air France</title><path d="m60.572 29.203-2.875 4.223c-.378.555-.99 1.091-1.732 1.148v.13h3.197c.849 0 1.468-.56 1.887-1.179L64 29.203h-3.428zm-14.445.371c-1.948 0-3.54 1.012-3.54 2.59 0 1.605 1.56 2.633 3.544 2.633.972 0 1.837-.243 2.486-.57v-1.248c-.736.43-1.482.675-2.424.675-1.14 0-2.025-.618-2.025-1.49 0-.851.869-1.463 2.035-1.463.977 0 1.713.265 2.367.592v-1.258a6.408 6.408 0 0 0-2.443-.46zm-38.498.094v5.035h1.447v-5.035H7.63zm2.803 0v5.035h1.447v-1.666h.926a.163.163 0 0 1 .117.041l1.361 1.34c.179.177.404.285.746.285h1.545l-2-1.889c.466-.172 1.305-.628 1.305-1.584 0-.82-.687-1.562-2.313-1.562h-3.134zm6.699 0v5.035h1.447v-1.625h3.315v-1.08h-3.315v-1.25h3.39v-1.08h-4.837zm5.723 0v5.035H24.3v-1.666h.926a.163.163 0 0 1 .117.041l1.36 1.34c.178.177.405.285.747.285h1.543l-1.998-1.889c.465-.172 1.305-.628 1.305-1.584 0-.82-.687-1.562-2.313-1.562h-3.134zm13.455 0v5.035h1.22v-2.99l3.479 2.99H42v-5.035h-1.223v2.943l-3.431-2.943h-1.037zm13.136 0v5.035h5.006v-1.08h-3.558v-.924h3.517v-1.08h-3.517v-.871h3.574v-1.08h-5.022zm-46.683.004L0 34.703h1.38l.579-1.105H4.73l.633 1.105H7.15l-3.13-5.031H2.762zm28.968 0-2.689 5.031h1.346l.556-1.105h2.7l.619 1.105h1.734l-3.043-5.031H31.73zM11.88 30.748h1.539c.604 0 .85.275.85.607 0 .333-.277.627-.85.627h-1.54v-1.234zm12.422 0h1.539c.603 0 .85.275.85.607 0 .333-.278.627-.85.627H24.3v-1.234zm-21.012.264.838 1.537H2.512l.777-1.537zm28.953 0 .819 1.537h-1.575l.756-1.537z"/></svg>