<svg role="img" viewBox="0 0 64 64" xmlns="http://www.w3.org/2000/svg"><title>Air Transat</title><path d="M9.848 24.873c-1.741.544-3.374 2.04-5.034 3.645-2.121.108-4.432.951-4.677 1.087 2.448 1.279 3.047 1.85 3.047 1.85s-.818 2.34-.98 3.836c.543-1.333 1.604-3.155 2.257-4.025-.898-.735-2.584-1.524-2.584-1.524s1.332-.57 3.998-.707c0 0 1.117-2.15 3.973-4.162zm-1.334 1.986c-.245.517-.68 1.66-.762 2.502 1.877.136 3.154.573 3.154.573s-1.902.705-2.963 1.548c.19.463.625 1.824.87 2.885-.409-.38-1.632-1.387-2.53-1.931-1.197.462-4.46 3.699-6.283 6.691.789-.816 3.128-3.455 6.283-5.36.653.381 3.645 2.34 3.645 2.34s-.652-3.482-.897-4.298c.925-.626 2.502-1.495 3.998-1.957-2.094-.844-4.652-1.061-4.652-1.061s-.054-.653.137-1.932zm13.789.952c-.544 0-.953.436-.953.98 0 .517.409.951.953.951s.978-.434.978-.951a.959.959 0 0 0-.978-.98zm-6.448.109-3.181 8.16h1.795l.652-1.605h3.156l.653 1.605h1.795l-3.184-8.16h-1.686zm45.997.625s-1.034 1.768-1.061 1.85c-.109 0-.762.027-.762.027v.98h.68v2.774c0 .625.162 1.115.488 1.469.327.353.763.517 1.307.517.245 0 .49-.027.734-.055.245-.027.462-.082.653-.164l.054-.027v-1.033l-.11.027-.325.082a1.673 1.673 0 0 1-.381.028c-.245 0-.434-.056-.516-.165-.081-.108-.136-.325-.136-.597v-2.856H64v-1.007h-1.523v-1.85h-.625zm-29.92.027s-1.036 1.768-1.063 1.85c-.081 0-.76.027-.76.027v.953h.68v2.774c0 .625.162 1.115.488 1.469.327.353.763.517 1.307.517.245 0 .49-.027.762-.055.245-.027.462-.082.652-.164l.055-.027v-1.033l-.11.027-.326.082a1.673 1.673 0 0 1-.38.028c-.273 0-.435-.056-.516-.165-.082-.108-.137-.325-.137-.597v-2.856h1.523v-1.007h-1.523v-1.823h-.652zm19.964 1.688c-.761 0-1.306.162-1.66.488-.353.326-.543.708-.543 1.17 0 .462.109.816.3 1.115.19.3.57.517 1.114.68.68.19.925.326 1.006.408a.58.58 0 0 1 .192.408c0 .163-.083.3-.274.408-.19.11-.488.165-.842.165-.299 0-.571-.056-.87-.137a4.197 4.197 0 0 1-.653-.244l-.082-.055-.027.027v1.116l.027.027c.136.082.38.162.68.217.299.054.652.082 1.033.082.897 0 1.578-.192 1.986-.545a1.7 1.7 0 0 0 .598-1.332c0-.463-.136-.844-.381-1.143-.245-.272-.68-.516-1.332-.68-.49-.135-.79-.244-.926-.326-.109-.054-.162-.163-.162-.326 0-.136.08-.246.217-.328.163-.082.408-.135.68-.135.244 0 .517.028.789.082l.328.08.406-.896-.055-.027a2.838 2.838 0 0 0-.68-.22 4.113 4.113 0 0 0-.869-.08zm-35.224.027 1.006 2.664h-2.014l1.008-2.664zm24.182 0c-.463 0-.871.026-1.225.108-.136.027-.245.054-.354.082l-.6 1.252.028.027.082-.055c.19-.109.435-.192.707-.273.272-.082.572-.108.926-.108.3 0 .544.054.734.19a.49.49 0 0 1 .244.435v.409a2.663 2.663 0 0 0-.38-.163 2.951 2.951 0 0 0-.68-.109c-.762 0-1.36.162-1.822.516-.463.353-.707.843-.707 1.496v.11c0 .652.162 1.141.515 1.44.354.327.844.49 1.524.49.272 0 .517-.027.761-.109l.518-1.17-.027-.027a1.03 1.03 0 0 1-.573.192c-.272 0-.489-.056-.68-.165-.162-.108-.243-.326-.243-.68v-.163c0-.327.08-.57.244-.733a.992.992 0 0 1 .652-.218c.3 0 .518.08.682.244.136.163.216.408.216.707v2.095h1.713v-3.699c0-.734-.19-1.279-.57-1.605-.354-.354-.924-.516-1.685-.516zm6.609 0c-.408 0-.763.08-1.063.19l-.625 1.332.028.027c.054-.054.135-.08.19-.107.19-.082.409-.11.626-.11.163 0 .3.055.408.137.11.081.162.27.162.515v3.81h1.77v-3.946c0-.68-.136-1.168-.408-1.44-.245-.272-.626-.408-1.088-.408zm9.9 0c-.462 0-.87.026-1.224.108-.11.027-.245.054-.354.082l-.597 1.252.027.027.082-.055c.19-.109.435-.192.707-.273.272-.082.57-.108.924-.108.326 0 .57.054.734.19a.49.49 0 0 1 .244.435v.409a2.663 2.663 0 0 0-.38-.163 2.951 2.951 0 0 0-.68-.109c-.762 0-1.36.162-1.823.516-.462.353-.68.843-.68 1.496v.11c0 .652.165 1.141.518 1.44.354.327.844.49 1.524.49.272 0 .515-.027.76-.109l.517-1.17-.027-.027a1.024 1.024 0 0 1-.57.192c-.273 0-.49-.056-.68-.165-.163-.108-.246-.326-.246-.68v-.163c0-.327.083-.57.246-.733a.992.992 0 0 1 .652-.218c.3 0 .517.08.68.244.136.163.217.408.217.707v2.095h1.714v-3.699c0-.734-.191-1.279-.572-1.605-.353-.354-.924-.516-1.713-.516zm-29.867.027c-.571 0-1.115.217-1.414.598v-.517h-1.63v5.712h1.657v-2.394c0-1.197.654-1.795 1.578-1.795h.247v-1.604h-.438zm10.201 0c-.353 0-.651.082-.896.272l-.028.027a1.872 1.872 0 0 0-.435.489c0-.272-.027-.653-.027-.653h-1.713v5.686h1.767v-3.617c0-.354.19-.654.489-.844h.027c.163-.082.327-.137.517-.137h.028c.217 0 .434.083.625.219l.054.08.57-1.223c-.244-.217-.57-.299-.978-.299zm-16.21.053v5.713h1.658v-5.713h-1.659zm22.304.028v5.685h1.768v-5.685H43.79z"/></svg>