<svg role="img" viewBox="0 0 64 64" xmlns="http://www.w3.org/2000/svg"><title>Air Mauritius</title><path d="M35.742 25.02a10.952 10.952 0 0 0-3.384.458 8.264 8.264 0 0 1 5.509 1.265c2.792 1.76 3.559 1.806 4.695 2.175-5.45 2.346-18.106 1.945-18.106 1.945 6.873.954 15.456-.099 15.456-.099a12.085 12.085 0 0 1 3.589.13 13.766 13.766 0 0 0 2.23.162c3.092 0 4.34-1.435 6.618-1.435a4.342 4.342 0 0 1 2.315.761s-1.49-2.57-5.122-2.427c-3.586.144-6.022-.093-8.131-1.264-1.45-.806-3.362-1.614-5.67-1.67zm18.133.644c-2.83 0-6.56 1.913-6.56 1.913s2.785-.276 4.098.12c0 .003 3.591-2.293 6.906-.856 0 0-1.63-1.241-4.444-1.177zm7.018 8.98s-1.405-.071-1.579 1.124c0 0-.257 1.129 1.652 1.337l1.414.19s.548.096.507.517c-.041.42-.579.438-.63.438h-3.073l-.152.717h3.241c.194 0 1.655-.1 1.725-1.215 0 .014.116-.925-1.588-1.167l-1.546-.221s-.63-.07-.59-.524a.487.487 0 0 1 .159-.348.504.504 0 0 1 .363-.13h2.715l.158-.717zm-53.869.006-.932 4.327h.91s.265-.002.343-.334L8.2 34.65Zm11.625 0-.933 4.327h1.175l.777-3.606h1.193a.31.31 0 0 1 .224.133.302.302 0 0 1 .038.256l-.688 3.217h1.175l.777-3.606h1.128a.314.314 0 0 1 .272.107.304.304 0 0 1 .06.281l-.694 3.218h1.174l.726-3.346c.206-.976-.685-.98-.685-.98zm7.747 0-.155.717h2.82s.642 0 .51.615l-.063.285-2.576.297h-.04c-.421.028-.827.168-1.173.406a1.301 1.301 0 0 0-.516.803.87.87 0 0 0 .03.478c.275.717 1.693.717 1.693.717h3.164l.726-3.347c.204-.964-.685-.97-.685-.97zm5.813 0-.726 3.348c-.213.98.676.985.676.985h3.44s.653-.007.834-.849l.75-3.481h-1.174l-.715 3.306a.377.377 0 0 1-.136.215.386.386 0 0 1-.243.082H32.88c-.274 0-.216-.292-.216-.299l.711-3.307zm12.314 0-.932 4.327h.908s.267-.002.342-.334l.857-3.993zm1.922 0c-.012 0-.266 0-.339.345l-.08.376h1.786l-.775 3.606h.913s.263 0 .338-.342l.702-3.263h1.601s.264 0 .339-.341l.08-.376zm7.45 0-.726 3.348c-.21.98.678.985.678.985h3.444s.656-.007.83-.849l.746-3.481h-1.175l-.711 3.306a.38.38 0 0 1-.14.215.389.389 0 0 1-.243.082h-2.034c-.271 0-.219-.292-.219-.299l.724-3.307zm-52.683.003-.156.717h2.82s.641 0 .51.614l-.06.286-2.583.297h-.039c-.419.03-.823.17-1.168.405a1.303 1.303 0 0 0-.516.803.86.86 0 0 0 .032.479c.27.716 1.695.717 1.695.717H4.91l.726-3.348c.203-.961-.68-.97-.684-.97H4.95zm8.18 0-.946 4.328h1.173l.31-1.399 1.6-.175 1.108 1.57h1.294l-1.212-1.704a2.215 2.215 0 0 0 1.085-.41 1.413 1.413 0 0 0 .61-1.068c0-1.151-1.631-1.142-1.631-1.142zm28.977 0-.934 4.328h1.175l.302-1.397 1.599-.175 1.103 1.572h1.297L41.7 37.275a2.208 2.208 0 0 0 1.094-.411 1.431 1.431 0 0 0 .6-1.068c0-1.152-1.634-1.143-1.634-1.143zm13.174.009-.93 4.318h.911s.265-.002.337-.334l.857-3.984zm-41.14.71h2.382c.032 0 .762.036.632.643a.717.717 0 0 1-.251.374.733.733 0 0 1-.426.152l-2.66.299zm28.986.012h2.381c.024-.011.755.024.624.631l-.002.02a.708.708 0 0 1-.25.371.733.733 0 0 1-.425.154l-2.65.293zm-10.055 1.624-.269 1.246-2.244.002c-.035 0-.64 0-.584-.479.046-.387.506-.478.576-.478zm-25.181.002-.267 1.246-2.244.002H1.64c-.037 0-.64-.001-.585-.478.047-.388.509-.479.576-.479z" fill="#BE2239"/></svg>