<svg role="img" viewBox="0 0 64 64" xmlns="http://www.w3.org/2000/svg"><title>Air Serbia</title><path d="m5.766 25.51-.145.21c-.161.153-.203.093-.418.126-.17.024-.23.034-.371.142-.182.148-.209.342-.209.342v.365l.012.25.205-.254c.348-.014.836.198.836.198l-.059.144c-.05.113-.05.211-.05.211s-.025.413-.075.66c-.014.073-.023.194-.066.315-.072.21-.444.622-.528.717l-.468.503c-.357-.288-.976-.673-1.766-.703-.844-.035-1.66.328-2.428 1.078L0 30.05l.176.277c.026.044.657 1.017 1.79 1.236.734.142 1.533-.08 2.29-.623l-.553-.625c-.562.406-1.072.54-1.574.446-.47-.09-.832-.384-1.043-.61.51-.413 1.025-.618 1.535-.597.895.032 1.53.734 1.533.74l1.326 1.533.543-.627-1.017-1.174 1.19-1.48.484-.604c.113.6.656 1.63.888 1.989l-1.32 1.533-.527.613-.006.01-.006.008-.56.65c-.294.31-1.319 1.32-2.522 1.965 0 0 .378.259.871.254.297-.006.64-.11.965-.42.134-.125.33-.303.525-.484 0 0-.091.216.121.615.167.304.451.488.844.502.612.023 1.05-.297 1.354-.666l-.436-.48s-.394.562-.877.218c-.177-.166-.162-.447-.162-.447s-.01-.097.084-.295c.329-.555 1.23-1.725 1.762-2.408l.41-.52.588.676.002-.002.228.266-.002.003.016.016-1.025 1.266.462.525 1.088-1.185v.003l.004-.003 1.326 1.472.551.621.194.203.138.153c.3.33.72.602 1.281.582.393-.014.68-.196.846-.5.214-.399.123-.615.123-.615l.524.484c.871.826 1.834.166 1.834.166-1.199-.644-2.223-1.655-2.514-1.965l-.322-.371-.67.75c.322.444.308.676.308.676s.01.283-.166.449c-.477.347-.904-.25-.904-.25l-1.332-1.615-.004-.01-.687-.842.013-.013.506-.584h-.002l.307-.354.137.168.869 1.176.611-.725-.996-1.162v.004l-.096-.111c.233-.36.773-1.39.885-1.989l.486.604 1.188 1.48-.242.282-1 1.156-.864.992-.257.303.54.625.426-.496v-.002l.051-.051.645-.746.379-.438 1.175-1.359c.006-.006.635-.706 1.534-.738.512-.02 1.023.184 1.533.597-.212.226-.57.52-1.04.61-.504.095-1.019-.044-1.581-.446l-.54.62c.758.543 1.549.77 2.286.628 1.13-.219 1.757-1.192 1.785-1.236l.178-.277-.235-.235c-.77-.75-1.586-1.113-2.43-1.078-.67.026-1.213.302-1.583.563l-.041.03c-.004 0-.01.009-.01.009-.05.036-.097.068-.135.1l-.586-.631c-.138-.167-.356-.438-.41-.59-.045-.12-.056-.24-.066-.313a6.222 6.222 0 0 1-.077-.662s0-.098-.047-.21l-.056-.143s.485-.214.828-.2l.213.256.004-.25v-.367s-.022-.194-.21-.342c-.139-.108-.2-.116-.368-.14-.217-.033-.254.027-.414-.125l-.149-.211-.904.002-.358.133s-.198.047-.328.378l-.27.85s-.074.282-.093.711c-.015.43-.006.014-.006.014s-.02.637-.094.83l-.144.508c-.212.5-.43.742-.434.75l-.812.939v.004l-.229.258-.226-.258.004-.004-.502-.57-.069-.082H8.65l-.252-.285c-.002-.008-.23-.27-.445-.795l-.135-.463c-.073-.193-.093-.83-.093-.83s.008.414-.008-.016-.09-.711-.09-.711l-.273-.85c-.133-.331-.327-.378-.327-.378l-.355-.133-.906-.002zm30.763 3.023c-.763-.002-1.387.157-1.875.467-.487.327-.812.77-.967 1.34-.089.323-.103.593-.042.799a.74.74 0 0 0 .341.558c.162.139.525.272 1.09.4l.133.034.027.017c.994.235 1.443.537 1.342.909a.9.9 0 0 1-.44.554c-.221.126-.515.192-.878.19-.411 0-.712-.079-.903-.24-.187-.14-.256-.386-.205-.735h-1.236c-.146.659-.047 1.16.293 1.496.308.337.866.502 1.664.502.798 0 1.416-.156 1.932-.48a2.506 2.506 0 0 0 1.037-1.463c.08-.289.091-.556.025-.799a.987.987 0 0 0-.402-.537c-.141-.073-.288-.14-.432-.213a20.328 20.328 0 0 1-.353-.092c-.15-.04-.316-.1-.51-.166a2.97 2.97 0 0 1-.414-.107c-.639-.15-.916-.384-.83-.7a.881.881 0 0 1 .412-.537c.185-.126.456-.189.81-.189.365.002.632.074.803.227.082.08.14.18.164.296.051.243.215.367.483.368h.709c.132-.583.05-1.051-.256-1.409-.295-.327-.802-.488-1.522-.488v-.002zm-13.054.182c-.293 0-.545.149-.723.412l-3.547 5.576h1.328l.735-1.226h2.355l.06 1.226h1.33l-.224-2.371c-.876.157-1.353.129-1.353.129H21.87l1.543-2.531.125 2.111a7.362 7.362 0 0 0 1.2-.271l-.29-3.055h-.974zm17.199 0a.772.772 0 0 0-.498.183.787.787 0 0 0-.305.44l-1.473 5.355h4.41l.305-1.107-3.174-.004.42-1.53v-.001h1.725c.177 0 .346-.06.502-.178a.874.874 0 0 0 .31-.445l.11-.403-2.37.002.358-1.285h3.176l.28-1.027h-3.776zm5.553 0c-.18 0-.348.059-.506.183a.819.819 0 0 0-.307.442l-1.473 5.363h1.252l.643-2.338 1.322.002c.327 0 .54.065.635.194.077.153.076.401.006.746l-.158.646c-.018.07-.042.196-.073.377a.957.957 0 0 0 .008.373h1.38c-.088-.059-.128-.194-.106-.402.006-.071.021-.142.045-.227.02-.08.044-.156.064-.226l.16-.713c.089-.417.108-.714.05-.887-.058-.186-.206-.324-.452-.42a1.69 1.69 0 0 0 .808-.504c.23-.241.4-.55.502-.918.154-.56.104-.98-.142-1.273h-.002c-.244-.275-.694-.412-1.352-.412l-2.304-.006zm6.003 0a.79.79 0 0 0-.498.185.822.822 0 0 0-.31.444l-1.47 5.357h2.77c.7.002 1.293-.153 1.768-.465.466-.324.778-.775.936-1.355.1-.358.104-.648.011-.871-.103-.23-.288-.412-.558-.537.265-.115.494-.274.678-.47.187-.21.322-.465.406-.767.128-.475.068-.85-.188-1.13-.258-.254-.7-.391-1.324-.391h-2.22zm6.122 0a.848.848 0 0 0-.508.191.845.845 0 0 0-.309.442l-1.47 5.355h1.253l1.649-5.988h-.615zm4.109 0c-.29 0-.543.149-.723.412l-3.545 5.576h1.33l.727-1.226h2.355l.067 1.226H64l-.225-2.371-.34-3.617h-.974zm-35.152.416-.291 1.383a25.76 25.76 0 0 0 1.511-.733.552.552 0 0 0-.097-.441.516.516 0 0 0-.426-.203l-.697-.006zm5.341.306a3.928 3.928 0 0 0-1.043.135 2.972 2.972 0 0 0-.955.426c-.304.21-.565.489-.785.838-.219.35-.387.779-.498 1.295l-.539 2.572 1.356-.002.576-2.717c.08-.393.232-.684.449-.869.22-.18.517-.273.93-.27l.554.003s.004-.545.108-.813c.135-.354.338-.598.338-.598h-.491zm13.905.305h1.535c.279 0 .477.07.58.21.118.127.138.324.064.591-.072.266-.203.463-.39.592-.188.126-.44.19-.76.19h-1.463l.434-1.583zm5.953.024h1.412c.341.001.556.045.648.14.113.101.142.262.078.489a.797.797 0 0 1-.347.486c-.17.104-.408.152-.713.152l-1.428-.002.35-1.265zm9.892.164.157 2.533c-.093 0-.141-.002-.141-.002h-1.557L62.4 29.93zm-34.09.884-.01.034c-.533.235-1.023.426-1.478.584l-.691 3.271h1.361l.819-3.889zm23.567 1.247 1.463.002c.366 0 .607.054.728.17.132.128.159.333.08.609-.077.279-.215.476-.408.594-.212.128-.482.191-.81.191l-1.483-.002.43-1.564zm-44.78.375-.497.662.566.658.66.78.846.976.545-.625-1.078-1.239-.54-.628-.501-.584zm3.444 1.449-.76.883-.877 1.01c-.88.819-.949 1.124-.949 1.124-.367.925.12 1.588.12 1.588.069-.577.561-1.136.736-1.353l.34-.39 1.206-1.4.717-.824-.533-.638zm-.322 2.133-.557.654.065.072-.002.002.338.39c.177.218.666.777.738 1.354 0 0 .483-.663.119-1.588 0 0-.058-.246-.701-.884z"/></svg>