<svg role="img" viewBox="0 0 64 64" xmlns="http://www.w3.org/2000/svg"><title>Air France</title><path d="m60.573 29.203-2.875 4.223c-.378.555-.992 1.09-1.734 1.148v.13h3.197c.85 0 1.468-.561 1.887-1.18L64 29.205h-3.427z" fill="red"/><path d="M7.63 34.704v-5.037h1.447v5.037H7.629Zm33.378 0-3.478-2.991v2.99h-1.222v-5.036h1.038l3.431 2.944v-2.944H42v5.037zm7.563-3.412c-.654-.327-1.391-.592-2.368-.592-1.166 0-2.035.613-2.035 1.464 0 .873.885 1.49 2.025 1.49.941 0 1.687-.243 2.424-.675v1.247c-.65.327-1.514.57-2.485.57-1.984 0-3.545-1.027-3.545-2.632 0-1.578 1.59-2.59 3.54-2.59.92 0 1.753.176 2.444.462zm-31.44 3.412v-5.037h4.838v1.08h-3.39v1.251h3.313v1.08h-3.314v1.626zm32.314 0v-5.037h5.022v1.08h-3.575v.873h3.519v1.08h-3.519v.924h3.56v1.08zm-22.45-1.89 2 1.89h-1.544c-.343 0-.568-.11-.747-.286l-1.36-1.34a.163.163 0 0 0-.117-.041H24.3v1.667h-1.447v-5.037h3.134c1.627 0 2.312.743 2.312 1.563 0 .955-.84 1.412-1.304 1.584zm-1.155-.831c.573 0 .849-.296.849-.628 0-.333-.245-.608-.849-.608H24.3v1.236Zm-11.266.83 2 1.89h-1.545c-.342 0-.567-.108-.746-.285l-1.36-1.34a.163.163 0 0 0-.118-.041h-.926v1.667h-1.447v-5.037h3.135c1.626 0 2.311.743 2.311 1.563 0 .955-.838 1.412-1.304 1.584m-1.155-.831c.573 0 .849-.296.849-.628 0-.333-.246-.608-.85-.608H11.88v1.236Zm-8.055 2.72-.634-1.105H1.96l-.578 1.106H0l2.762-5.031H4.02l3.13 5.03zM2.511 32.55h1.616l-.839-1.537zm31.751 2.155-.619-1.106h-2.699l-.557 1.106H29.04l2.69-5.031h1.222l3.043 5.03zm-2.776-2.155h1.575l-.818-1.537z" fill="#051039"/></svg>