<svg role="img" viewBox="0 0 64 64" xmlns="http://www.w3.org/2000/svg"><title>Air Canada</title><path d="M4.411 33.764c0-.28.12-.32.401-.16.481.28.963.521.963.521 0-.16.16-.28.44-.2.281.08.562.12.562.12s-.16-.36-.24-.521c-.12-.28 0-.441.12-.481 0 0-.16-.12-.28-.2-.242-.161-.201-.362.04-.442.32-.16.761-.32.761-.32-.12-.081-.28-.282-.12-.562.16-.24.44-.602.44-.602h-.761c-.28 0-.36-.24-.36-.4 0 0-.442.32-.763.52-.28.201-.521 0-.481-.32.08-.481.12-1.043.12-1.043-.16.16-.44.12-.601-.12-.2-.401-.401-.882-.401-.882s-.2.48-.401.882c-.12.24-.401.28-.562.16 0 0 .04.562.12 1.043.04.28-.2.481-.48.28-.321-.2-.803-.52-.803-.52 0 .16-.08.36-.36.4h-.762s.28.361.44.602c.161.24 0 .481-.12.561 0 0 .401.2.762.321.24.12.321.28.04.441-.08.08-.28.2-.28.2.16.04.28.201.16.482-.08.16-.24.521-.24.521s.28-.08.56-.12c.282-.08.402.08.442.2 0 0 .481-.28.962-.521.241-.16.401-.08.401.16v.682c0 .401-.08.802-.2 1.043-1.805-.2-3.328-1.644-3.328-3.57 0-1.964 1.644-3.568 3.689-3.568s3.69 1.604 3.69 3.569c0 1.844-1.445 3.368-3.29 3.569v.481c2.166-.2 3.85-1.925 3.85-4.05 0-2.286-1.924-4.09-4.29-4.09C1.925 27.83 0 29.633 0 31.88c0 1.965 1.484 3.609 3.449 3.97.32.08.521.12.722.32.2-.4.24-1.203.24-1.644z" fill="#F01428"/><path d="M31.639 29.594c-.923 0-1.605.2-2.086.601-.48.361-.722.963-.722 1.685 0 .722.241 1.283.722 1.684.481.4 1.163.601 2.005.601.722 0 1.324-.08 1.805-.28v-.642c-.521.2-1.083.32-1.604.32-.562 0-1.003-.16-1.324-.44-.32-.321-.48-.722-.48-1.243 0-.522.16-.963.44-1.243.321-.281.722-.442 1.284-.442.44 0 1.042.08 1.684.281v-.722a8.63 8.63 0 0 0-1.724-.16Zm-17.645.12-1.885 4.331h.722l.521-1.163h2.006l.52 1.163h1.164l-1.885-4.33zm4.371 0v4.331h1.003v-4.33zm3.248 0v4.331h.963v-1.804h.962l1.444 1.844h1.163L24.54 32.04c.36-.2.44-.28.641-.481.2-.2.24-.481.24-.762-.04-.602-.56-1.083-1.683-1.083zm14.878 0-1.885 4.331h.722l.521-1.163h2.005l.521 1.163h1.163l-1.884-4.33zm4.491 0v4.331h.842v-3.248l2.807 3.248h1.083v-4.33h-.842v3.087l-2.727-3.088zm8.06 0-1.884 4.331h.721l.522-1.163h2.005l.521 1.163h1.163l-1.885-4.33zm4.452 0v4.291h2.005c.762 0 1.323-.2 1.764-.601.441-.361.642-.923.642-1.645 0-.641-.2-1.163-.602-1.523-.4-.321-.962-.522-1.724-.522zm7.458 0-1.884 4.331h.721l.522-1.163h2.005l.521 1.163H64l-1.885-4.33zm-38.376.562h.561c.762 0 1.283.08 1.283.641 0 .562-.24.762-1.403.762h-.441zm31.96 0h.602c.4 0 .681.04.882.12.2.08.36.2.521.401.2.28.321.642.321 1.043 0 .561-.12.922-.401 1.203-.28.28-.682.4-1.203.4h-.722zm-40.221.32.762 1.725h-1.484Zm22.577 0 .722 1.725H36.13zm12.471 0 .762 1.725h-1.484zm11.91 0 .762 1.725h-1.484z"/></svg>