<svg role="img" viewBox="0 0 64 64" xmlns="http://www.w3.org/2000/svg"><title>Akasa Air</title><path d="M45.9097 35.9532a.1421.1421 0 0 0 .162.1618h1.212v-5.3934h-.3694a.933.933 0 0 0-.6578.23.9337.9337 0 0 0-.3158.6216c-.3545-.65-1.0473-.9623-1.8677-.9623-1.405 0-2.637 1.1355-2.637 2.8954 0 1.6861.8856 2.7477 2.464 2.7477 1.1355 0 1.6092-.5194 1.6092-1.0275a.6732.6732 0 0 0-.0495-.3017.6725.6725 0 0 0-.1772-.249 1.3688 1.3688 0 0 1-1.005.3548c-.7125 0-1.3513-.4002-1.3513-1.5243 0-1.0673.7353-1.5982 1.5017-1.5982.985 0 1.4818.6388 1.4818 1.567zm8.6236-6.4749 2.5546 6.6367h-1.4591a.2084.2084 0 0 1-.1471-.042.209.209 0 0 1-.0797-.1312l-2.021-5.5239-1.0816 2.9408h.7037c.6474 0 .8971.247 1.0478.6472l.1845.4882c.0423.1079 0 .1817-.1107.1817H51.814l-.5196 1.4392h-1.3399a.1257.1257 0 0 1-.0675-.0096.1284.1284 0 0 1-.0765-.1078.128.128 0 0 1 .0135-.0671l2.3905-6.245c.2465-.6472.5673-.8516 1.1351-.8516h1.1864c.0882 0 .1193.0455.1193.0994 0 .1192-.1728.1504-.1728.335a.6889.6889 0 0 0 .0508.21zm-20.577 6.4749a.1421.1421 0 0 0 .1618.1618h1.2092v-5.3934h-.3662a.934.934 0 0 0-.9737.8516c-.3548-.65-1.0474-.9623-1.8677-.9623-1.4194 0-2.6371 1.1355-2.6371 2.8954 0 1.6861.8857 2.7477 2.464 2.7477 1.1353 0 1.6094-.5194 1.6094-1.0275a.6762.6762 0 0 0-.227-.5507 1.3688 1.3688 0 0 1-1.005.3548c-.7124 0-1.3511-.4002-1.3511-1.5243 0-1.0673.7352-1.5982 1.5016-1.5982.985 0 1.4818.6388 1.4818 1.567zm-6.3585-5.0499a.386.386 0 0 1 .3889-.193h1.567L27.24 33.2934l2.3674 2.8216H28.001a.3887.3887 0 0 1-.3889-.1959l-1.7741-2.1715v2.3674h-1.2093a.142.142 0 0 1-.1618-.1618v-6.4436a1.0106 1.0106 0 0 1 1.0049-1.005h.3662v4.3886zm-6.4833-1.4193 2.5547 6.6366h-1.4506a.2096.2096 0 0 1-.227-.173l-2.0211-5.5297-1.0815 2.9408h.704c.6472 0 .897.247 1.0474.6472l.1845.4882c.0426.1079 0 .1817-.1079.1817h-2.3134l-.5195 1.4392h-1.3398a.127.127 0 0 1-.121-.0529.1273.1273 0 0 1-.0096-.1316l2.3901-6.245c.247-.6472.5678-.8516 1.1355-.8516h1.1893c.0852 0 .1164.0455.1164.0994 0 .1192-.1703.1504-.1703.335a.6192.6192 0 0 0 .0426.21zm39.2974 2.2368v4.2324a.1476.1476 0 0 0 .0054.0657.1424.1424 0 0 0 .1566.0961h1.2094v-2.691a1.392 1.392 0 0 1 .3757-1.043 1.3929 1.3929 0 0 1 1.0177-.4387 1.517 1.517 0 0 1 .6163.0965 1.9382 1.9382 0 0 0 .207-.7665c0-.3236-.1732-.6273-.7577-.6273-.5849 0-1.1356.369-1.459 1.1354v-1.0701h-.3663a.9465.9465 0 0 0-.3932.0605.9445.9445 0 0 0-.3339.2165.9424.9424 0 0 0-.2155.3344.9386.9386 0 0 0-.0594.3934zm-2.529 0a1.01 1.01 0 0 1 .296-.7089 1.01 1.01 0 0 1 .7087-.296h.3662v5.3934h-1.209a.1403.1403 0 0 1-.122-.04.1421.1421 0 0 1-.04-.1218zm-21.7693 3.4319c0 .7125 1.2547 1.0815 2.2709 1.0815 1.3285 0 2.4213-.6273 2.4213-1.7514 0-.8317-.4201-1.32-1.4363-1.567l-1.1355-.2838c-.2838-.0766-.4541-.1959-.4541-.4655 0-.2697.2696-.423.7891-.423a3.1231 3.1231 0 0 1 1.7032.5308c.2-.1922.3264-.4482.3576-.7238 0-.6046-.9935-.9623-2.0863-.9623-1.1667 0-2.2369.5848-2.2369 1.7032 0 .8516.423 1.371 1.374 1.5868l1.1666.2838c.3009.0625.474.193.474.4428 0 .3123-.2583.4741-.8856.4741a3.7043 3.7043 0 0 1-1.987-.6586 1.0814 1.0814 0 0 0-.335.7324zm22.4734-6.9404a.8513.8513 0 0 0-.8517.8516.8514.8514 0 0 0 .8517.8516.8504.8504 0 0 0 .3334-.0574.85.85 0 0 0 .4765-.4623.8577.8577 0 0 0 .067-.332.8577.8577 0 0 0-.067-.3318.85.85 0 0 0-.4765-.4623.85.85 0 0 0-.3334-.0574z" fill="#5C0FD9"/><path d="M7.9004 26.5293c-1.232 0-1.7546.3917-2.2343 1.2773l-.338.5997a1.7282 1.7282 0 0 0-.2831.7949 1.292 1.292 0 0 0 .2187.6445l2.6816 4.7969c.9595 1.7145 2.1465 2.6738 4.7012 2.6738.2186 0 .2716-.13.1836-.2832l-3.4785-6.2168c-.6954-1.2547-.9375-2.1596-.9375-2.8125a1.8956 1.8956 0 0 1 .4375-1.3008c.0653-.0738.0544-.1738-.0762-.1738zm-3.711 3.7852c-.0652 0-.1085.0444-.1737.1523L.041 37.209a.2095.2095 0 0 0-.041.1308c0 .1306.2058.1309.2597.1309 2.8613 0 4.8496-1.7462 4.8496-4.2754a5.3973 5.3973 0 0 0-.7558-2.7402c-.054-.0852-.0988-.1406-.1641-.1406z" fill="#FF6300"/></svg>