<svg role="img" viewBox="0 0 64 64" xmlns="http://www.w3.org/2000/svg"><title>avianca</title><path d="M52.012 24.387s-1.477 1.301-1.594 4.039c-.13 2.991 1.477 6.008 6.762 6.392l.049.006c-2.685-3.12-4.492-7.112-5.217-10.437zm-35.744 1.677c-.636 0-1.153.508-1.153 1.127 0 .62.505 1.137 1.153 1.137.647 0 1.168-.508 1.168-1.137 0-.628-.513-1.127-1.168-1.127zM3.42 28.988c-1.128 0-2.155.319-2.969.858l.688 1.318c.659-.398 1.252-.58 1.863-.58.61 0 1.348.197 1.348 1.143v.1l-1.211.042C1.145 31.937 0 32.84 0 34.348c0 1.508 1.022 2.431 2.48 2.431.81 0 1.49-.244 2.088-.75.15.398.345.596.844.596H6.58c-.114-.386-.172-.828-.172-1.484v-3.414c0-1.843-.977-2.739-2.988-2.739zm18.283 0c-1.127 0-2.155.319-2.969.858l.688 1.318c.659-.398 1.252-.58 1.863-.58.61 0 1.348.197 1.348 1.143v.1l-1.21.042c-1.994.068-3.14.97-3.14 2.479 0 1.508 1.02 2.431 2.479 2.431.81 0 1.492-.244 2.09-.75.15.398.344.596.843.596h1.17c-.114-.386-.172-.828-.172-1.484v-3.414c0-1.843-.979-2.739-2.99-2.739zm8.752 0c-.87 0-1.647.278-2.508.897l-.01-.04c-.17-.461-.537-.689-1.128-.689h-.776v7.471h2.026v-5.148c.654-.489 1.23-.725 1.765-.725.684 0 .99.46.99 1.498v4.373h2.03v-4.928c0-1.998-1.235-2.709-2.389-2.709zm7.158 0c-1.075 0-2.059.399-2.765 1.121-.712.723-1.102 1.724-1.102 2.82 0 1.097.332 2.027.93 2.708.654.748 1.609 1.14 2.752 1.14 1.072 0 2.143-.396 2.683-.765l-.533-1.444c-.425.247-1.041.541-1.766.541-1.504 0-2.037-1.226-2.037-2.273 0-1.306.864-2.254 2.053-2.254.692 0 1.364.228 1.89.625l.067-1.67c-.648-.362-1.329-.549-2.172-.549zm6.352 0c-1.13 0-2.159.319-2.97.858l.687 1.318c.657-.398 1.252-.58 1.865-.58s1.346.197 1.346 1.143v.1l-1.21.042c-1.995.068-3.142.97-3.142 2.479 0 1.508 1.022 2.431 2.48 2.431.809 0 1.494-.244 2.09-.75.148.398.342.596.84.596h1.17c-.114-.386-.17-.828-.17-1.484v-3.414c0-1.843-.977-2.739-2.986-2.739zm-36.973.168 2.727 6.657c.207.514.52.812 1.111.812h.703l3.11-7.469h-2.03l-1.804 4.84-1.776-4.84h-2.04zm8.262 0v7.469h2.03v-7.469h-2.03zM4.352 33.281v1.442c-.33.275-.744.416-1.225.416-.688 0-1.098-.346-1.098-.93 0-.367.14-.86 1.364-.898l.959-.03zm18.283 0v1.442c-.33.275-.742.416-1.223.416-.688 0-1.098-.346-1.098-.93 0-.367.139-.86 1.362-.898l.959-.03zm22.26 0v1.442c-.331.275-.742.416-1.227.416-.686 0-1.096-.346-1.096-.93 0-.367.14-.86 1.362-.898l.96-.03zm12.335 1.543a19.44 19.44 0 0 0 1.395 1.461h1.404c.582 0 .838.048 1 .121-.249-.773-1.032-1.375-3.799-1.582zm1.395 1.461h-5.682c.076.177.336.3.928.334 3.546.21 4.05 2.994 9.125 2.994.445 0 .723-.027 1.004-.08-2.005-.616-3.807-1.775-5.375-3.248z" fill="#FF0000"/></svg>