<svg role="img" viewBox="0 0 64 64" xmlns="http://www.w3.org/2000/svg"><title>Bangkok Airways</title><path d="M21.991 3.63c-.134.072-.27.153-.288.343a2.173 2.173 0 0 0 .078.68c.057.315.115.61.179.926a16.354 16.354 0 0 1 .159 2.773 23.707 23.707 0 0 1-1.947 8.663 18.276 18.276 0 0 1-1.059 2.116c-.527.863-1.05 1.745-1.628 2.601a42.915 42.915 0 0 1-3.227 4.063c-.972 1.085-2.052 2.04-3.103 3.03-.358.304-.715.621-1.073.93-.771.66-1.537 1.313-2.31 1.928-.463.385-.916.758-1.377 1.148a20.35 20.35 0 0 0-5.08 6.342 14.684 14.684 0 0 0-1.238 4.774 11.736 11.736 0 0 0 3.212 9.49 12.139 12.139 0 0 0 1.034.923 13.821 13.821 0 0 0 6.71 2.66c0-.003.005-.023 0-.023a2.084 2.084 0 0 1-.583-.232 10.24 10.24 0 0 1-2.087-1.295 9.1 9.1 0 0 1-3.51-6.715 7.258 7.258 0 0 1 .378-3.342 11.272 11.272 0 0 1 2.78-4.253c.417-.42.784-.873 1.223-1.269.41-.375.815-.77 1.222-1.128.651-.582 1.336-1.098 2.021-1.61.964-.802 1.928-1.61 2.895-2.407.932-.73 1.856-1.46 2.731-2.28.449-.417.855-.878 1.262-1.332a10.978 10.978 0 0 0 1.298-2.103 13.445 13.445 0 0 0 1.845-6.427c.022-.898-.022-1.805-.036-2.692V17.48c0-2.82.019-5.578.019-8.387 0-.33.022-.649.022-.973 0-1.144.032-2.258.032-3.38a2.383 2.383 0 0 0-.073-.957c-.098-.158-.28-.152-.48-.152Zm4.693 30.033c-.007 4.504-.007 8.994-.007 13.5a2.893 2.893 0 0 0 .65-.269 2.1 2.1 0 0 1 .688-.162c.58-.037 1.16.05 1.723.07a3.684 3.684 0 0 0 2.652-.895 4.003 4.003 0 0 0 .764-.984 3.866 3.866 0 0 0-.746-4.633 3.744 3.744 0 0 0-.99-.853v-.002s.144-.224.177-.29a2.02 2.02 0 0 0 .131-.395 2.915 2.915 0 0 0-.677-2.385 3.93 3.93 0 0 0-1.804-1.151l-.968-.315a2.439 2.439 0 0 1-.692-.25 2.093 2.093 0 0 1-.592-.546 1.65 1.65 0 0 1-.267-.44zm2.015 3.272c.602.31 1.415.857 1.261 1.7a1.19 1.19 0 0 1-.318.617 1.528 1.528 0 0 1-.56.334c-.09.03-.18.061-.26.083-.04 0-.016.067-.006.098a1.328 1.328 0 0 0 .32.746 2.886 2.886 0 0 0 .506.325 4.388 4.388 0 0 1 1.522 1.148 1.952 1.952 0 0 1-.397 2.536l.002.001a1.832 1.832 0 0 1-.552.276c-.117.037-.228.064-.327.09a.924.924 0 0 1-.2.024c-.315 0-.639-.01-.957-.024v.003c-.049-.004-.035-.165-.035-.217zm22.55.564a9.194 9.194 0 0 1-.722.643c-.314.27-.774.654-.863.734a.5.5 0 0 0-.117.131c.137.015.211.181.24.282a1.933 1.933 0 0 1 .024.447v5.467a7.028 7.028 0 0 1-.09 1.644l-.024.074h1.646s-.04-.088-.058-.118a.716.716 0 0 1-.057-.28c-.032-.66 0-1.283 0-1.956a2.567 2.567 0 0 1 .316.178 2.095 2.095 0 0 1 .984 1.57 1.342 1.342 0 0 1-.055.604h1.653a3.647 3.647 0 0 0-.082-.662 3.722 3.722 0 0 0-1.146-2.163 2.726 2.726 0 0 0-.302-.247 2.553 2.553 0 0 0 .274-.204 2.725 2.725 0 0 0 .975-2.057h-1.506c-.005.005-.004 0-.004 0 .005.03.014.14.026.215a1.822 1.822 0 0 1 .013.318 2.083 2.083 0 0 1-1.031 1.197c0 .013-.042.014-.042.014v-4.31a8.172 8.172 0 0 0-.052-1.52zm9.898 0c-.566.48-1.566 1.357-1.634 1.421-.068.064-.068.096-.068.096.114 0 .227.2.222.318.01.173.01.301.017.467.007.333 0 .677 0 1.013.007 1.472 0 2.943.007 4.413a5.741 5.741 0 0 1-.097 1.659c0 .004-.02.017-.03.017v.021h1.656a1.968 1.968 0 0 1-.122-.447v-1.908h.012s.111.065.143.08a2.204 2.204 0 0 1 1.159 1.801 1.006 1.006 0 0 1-.067.448v.022H64a4.186 4.186 0 0 0-1.102-2.716 2.898 2.898 0 0 0-.435-.376 1.074 1.074 0 0 0 .333-.224 2.752 2.752 0 0 0 .921-2.014c-.203 0-1.465-.016-1.497.02a1.376 1.376 0 0 1 .024.565 2.147 2.147 0 0 1-1.027 1.144c0 .013-.031.014-.046.014v-5.44a1.095 1.095 0 0 0-.024-.394zm-4.669 4.052a2.684 2.684 0 0 0-.323.037c.02 0-.306.047-.306.047a1.543 1.543 0 0 0-1.282 1.13 8.293 8.293 0 0 0-.179 1.302 5.514 5.514 0 0 0-.064 1.367 1.758 1.758 0 0 0 .905 1.244 3.458 3.458 0 0 0 2.292.124 1.798 1.798 0 0 0 1.153-1.043 5.734 5.734 0 0 0-.052-2.328v-.002a4.426 4.426 0 0 0-.135-.733 1.718 1.718 0 0 0-.454-.745 2.684 2.684 0 0 0-1.555-.4Zm-20.694.016a2.386 2.386 0 0 0-.603.105 1.288 1.288 0 0 0-.528.403 6.312 6.312 0 0 0-.582 2.316c-.024.229-.051.447-.083.67a1.592 1.592 0 0 0-.03.561 1.37 1.37 0 0 0 .442.795 2.291 2.291 0 0 0 1.852.476.756.756 0 0 0 .267-.082c.067-.05.144-.146.236-.146s.13.096.201.152a.494.494 0 0 0 .222.098c.476 0 .947.004 1.417.004v-.021c-.246 0-.278-.895-.253-1.108.034-.35.019-.743.019-1.114v-1.7a5.09 5.09 0 0 1 .016-.965 1.293 1.293 0 0 1 .218-.404v-.02H37.44a1.342 1.342 0 0 0-.402.017.43.43 0 0 0-.192.236c-.042 0-.122-.09-.164-.116a.812.812 0 0 0-.29-.106 2.386 2.386 0 0 0-.608-.05zm1.254.037a.43.43 0 0 1 .013-.01l-.037.013a1.342 1.342 0 0 1 .024-.004zm4.948-.037a1.244 1.244 0 0 0-.505.126c-.109.062-.223.115-.326.178-.003.005-.03.01-.03.017a.523.523 0 0 0-.2-.277s-.304-.023-.43-.023h-.811c-.114.004-.239-.005-.359 0a.284.284 0 0 0-.064.014c-.024.07.116.275.126.358.002.184.002.363.012.542v4.419h1.536v-2.593a3.105 3.105 0 0 1 .026-.846.716.716 0 0 1 .776-.372.626.626 0 0 1 .424.372 2.731 2.731 0 0 1 .026.727c-.004.597 0 1.19 0 1.8a2.249 2.249 0 0 0 .023.667.385.385 0 0 0 .27.236 2.216 2.216 0 0 0 .459.007c.334 0 .678 0 1.017-.005v-.018c-.132 0-.188-.237-.205-.327-.007-.221-.007-.432-.007-.643V43.88a3.227 3.227 0 0 0-.248-1.604 1.909 1.909 0 0 0-.358-.394 1.26 1.26 0 0 0-.505-.278 2.947 2.947 0 0 0-.647-.037zm4.391.002a3.143 3.143 0 0 0-.463.02.895.895 0 0 0-.297.083 1.23 1.23 0 0 0-.55.433 6.273 6.273 0 0 0-.558 2.224 4.62 4.62 0 0 0-.122 1.35 1.163 1.163 0 0 0 .227.492 2.112 2.112 0 0 0 1.866.744 8.291 8.291 0 0 0 .827-.153v1.11a1.529 1.529 0 0 1-.018.446c-.038.108-.09.423-.615.455-.224.012-1.445.055-1.749-.31-.007 0 0 .002-.019-.02-.054 0-.03.146-.03.185v1.801h.014c.034-.307.887-.247 1.113-.269.437-.048.903-.015 1.325-.1a1.69 1.69 0 0 0 1.18-.941 6.645 6.645 0 0 0 .263-2.543v-4a2.816 2.816 0 0 1 .02-.537.903.903 0 0 1 .191-.402c.027-.047.028-.018.028-.047h-1.083v-.002a2.9 2.9 0 0 0-.47.023.289.289 0 0 0-.168.229s-.159-.1-.202-.117c-.098-.044-.098-.044-.247-.105a3.143 3.143 0 0 0-.463-.05zm.45 1.197c.192-.008.397.04.443.202a13.932 13.932 0 0 1 .004 2.368v.002a.648.648 0 0 1-.512.505.595.595 0 0 1-.572-.224 3.874 3.874 0 0 1 .25-2.684c.062-.083.131-.09.205-.147a.985.985 0 0 1 .181-.022zm-10.589.017c.239 0 .473.007.61.198a12.293 12.293 0 0 1 .024 2.274.614.614 0 0 1-.265.43.665.665 0 0 1-.318.102.605.605 0 0 1-.612-.357 1.183 1.183 0 0 1-.05-.547 4.257 4.257 0 0 1 .4-1.958.315.315 0 0 1 .211-.142zm20.237.07c.212 0 .338 0 .477.159.25.261.207.906.246 1.309a2.78 2.78 0 0 1 .023.548 1.895 1.895 0 0 1-.152.663.537.537 0 0 1-.392.305.639.639 0 0 1-.522-.153c-.358-.352-.28-1.122-.255-1.646a1.994 1.994 0 0 1 .208-1.005.537.537 0 0 1 .367-.18zm-30.942.69a1.69 1.69 0 0 1-.266.458 3.952 3.952 0 0 1-1.945 1.125 5.748 5.748 0 0 0-1.317.697 6.113 6.113 0 0 0-2.135 4.195 9.008 9.008 0 0 0-.16 1.536h-.024a3.668 3.668 0 0 1-1.915-.05c-.244-.085-.446-.238-.684-.327.001-.005.001-.006-.013-.02h-.019a1.871 1.871 0 0 0 .994 1.774 1.693 1.693 0 0 0 .715.27 4.604 4.604 0 0 0 .692-.02 2.819 2.819 0 0 1-.213.667 4.546 4.546 0 0 1-2.218 2.436 4.26 4.26 0 0 1-.739.35v.048l.217.105c.097.034.198.07.295.102a5.334 5.334 0 0 0 1.501.12c2.052-.158 2.92-2.061 3.035-3.94.418 0 .83-.108 1.253-.071a2.748 2.748 0 0 1 .522.103 3.025 3.025 0 0 0 .329.132 1.888 1.888 0 0 0-1.887-1.679c.059-.378.123-.759.173-1.132.188-1.002.544-3.481 1.834-3.528v9.01a3.677 3.677 0 0 1-.017.679.66.66 0 0 1-.288.407c0 .044.205.02.251.02h2.317c.005 0 .005-.02 0-.02-.105 0-.205-.156-.222-.24a3.121 3.121 0 0 1-.037-.894V44.467a3.741 3.741 0 0 0-.03-.924zm1.565 5.368.002.01a.82.82 0 0 0-.467.21 1.086 1.086 0 1 0 1.002-.166 1.79 1.79 0 0 0-.537-.054zm25.281 2.647a.57.57 0 0 1-.421.145c-.33 0-1.072 0-1.394.024a1.5 1.5 0 0 0-1.192.601c-.548.731-.057 1.564.55 2.074.399.327.84.484.991 1.033a.358.358 0 0 1-.084.358c-.226.232-.907-.087-1.11-.234a.948.948 0 0 1-.308-.285c-.054 0-.055.088-.055.136-.005.595 0 1.183 0 1.77.02 0 .061-.033.08-.033a1.278 1.278 0 0 1 .728-.13h.919a2.216 2.216 0 0 0 .337-.024 1.511 1.511 0 0 0 .936-.595c.763-1.093-.189-1.997-.95-2.696-.174-.163-.503-.316-.503-.584a.193.193 0 0 1 .094-.187.349.349 0 0 1 .28-.06c.276.081.367.247.735.242a.51.51 0 0 0 .243-.039.313.313 0 0 0 .157-.202 5.263 5.263 0 0 0-.033-1.314zm-3.978.09a6.293 6.293 0 0 0-1.164.116c-.166.158-.12.513-.12.755v1.922a4.6 4.6 0 0 1-.099 1.177c-.093.249-.18.401-.468.435-.358 0-.567-.388-.667-.678a5.689 5.689 0 0 1-.112-1.1 252.19 252.19 0 0 0-.201-2.247.377.377 0 0 1 .203-.33v-.023h-1.555a.5.5 0 0 0-.245.265 1.283 1.283 0 0 0 .007.561c.051.397.107.795.158 1.202.165.895.156 2.401.826 2.999a1.71 1.71 0 0 0 .407.25 1.61 1.61 0 0 0 .666.204 2.265 2.265 0 0 0 1.04-.094c.012 0-.002 0 .04-.03v.837c0 .387-.003.68-.318.907a.895.895 0 0 1-.462.173c-.453 0-1.05.013-1.319-.38-.004 0-.024-.006-.024-.02-.042 0-.013.129-.013.167 0 .55 0 1.102.004 1.653h.033c0-.025.043-.026.063-.05a1.644 1.644 0 0 1 .51-.04c.271 0 .574-.01.863-.032a3.757 3.757 0 0 0 .706-.105 2.337 2.337 0 0 0 1.478-1.192 5.953 5.953 0 0 0 .18-2.19v-4.33a2.04 2.04 0 0 1 .023-.554.32.32 0 0 1 .145-.18v-.023a6.293 6.293 0 0 0-.585-.024zm-7.508.01a2.334 2.334 0 0 0-.315.017c-.102.024-.226.067-.323.098a1.314 1.314 0 0 0-.49.358 1.806 1.806 0 0 0-.305.636 20.316 20.316 0 0 0-.358 2.05 2.684 2.684 0 0 0-.05 1.013 1.659 1.659 0 0 0 .565.797 2.442 2.442 0 0 0 1.765.347.66.66 0 0 0 .246-.096c.064-.038.11-.113.194-.119.11-.004.131.089.198.15a.343.343 0 0 0 .211.081c.179.02.366.02.543.023h.895v-.023c-.034 0-.065-.044-.082-.073a2.223 2.223 0 0 1-.143-1.162V53.35c0-.403 0-.805.007-1.21a.83.83 0 0 1 .218-.447v-.023h-1.053a1.342 1.342 0 0 0-.523.037v.006a.38.38 0 0 0-.166.202.024.024 0 0 0-.007.021h-.02c0-.046-.065-.075-.088-.082a2.334 2.334 0 0 0-.92-.197Zm-13.94.019c-.13.078-.244.125-.244.347-.003.134-.014.224-.014.359v3.375a4.748 4.748 0 0 1-.037 1.068.568.568 0 0 1-.131.168.179.179 0 0 0-.023.022h1.915v-.022c-.372 0-.286-.825-.281-1.11v-2.666a6.799 6.799 0 0 1-.012-1.26.331.331 0 0 1 .152-.259v-.022zm1.934 0a3.782 3.782 0 0 1 .095 1.4v3.662a.472.472 0 0 1-.096.242s-.02.016-.025.016v.025h1.695v-.023c-.154 0-.107-.93-.107-1.11v-1.104a3.31 3.31 0 0 1 .014-.716 1.183 1.183 0 0 1 .853-.844 1.217 1.217 0 0 1 .88.202h.03c-.058-.397-.12-.795-.166-1.202a.85.85 0 0 0-.068-.332.537.537 0 0 0-.304-.18c-.495-.142-.823.16-1.148.46-.219 0-.166-.317-.166-.496zm3.703 0a.457.457 0 0 1 .157.204 2.624 2.624 0 0 1 .039.673c.028.427.055.853.075 1.275a3.54 3.54 0 0 0 1.373 2.789 2.236 2.236 0 0 0 .494.38c0 .041.017.022.044.022.064-.161.127-.33.19-.488.146-.36.285-.708.432-1.065.073-.163.14-.326.215-.497a.194.194 0 0 1 .197-.098.208.208 0 0 1 .142.098 5.293 5.293 0 0 1 .302.725 13.16 13.16 0 0 1 .53 1.325h.047c-.005-.037.022-.037.049-.05a5.537 5.537 0 0 0 .625-.516c.122-.108.234-.21.346-.317a4.587 4.587 0 0 0 .498-.796 7.492 7.492 0 0 0 .407-2.785 3.085 3.085 0 0 1 .05-.663.31.31 0 0 1 .143-.19v-.021h-1.996c-.01.024.035.097.079.156a3.676 3.676 0 0 1 .071 1.5c-.034.164-.074.346-.108.516-.012 0-.011-.005-.02 0-.055-.115-.124-.224-.18-.344a9.557 9.557 0 0 0-.61-1.002c-.115-.142-.254-.275-.366-.426-.334 0-1.044 1.484-1.235 1.747 0 .015-.024.02-.03.02a9.719 9.719 0 0 0-.105-.547 5.081 5.081 0 0 1-.008-1.153c.01-.067.011-.132.026-.203a.397.397 0 0 1 .19-.27zm8.72 1.197c.208 0 .467-.008.587.157a.3.3 0 0 1 .058.18c.014.49.012.974.014 1.464a2.078 2.078 0 0 1-.033.722.895.895 0 0 1-.376.391c-.058.031-.115.062-.18.09a.647.647 0 0 1-.54-.204 3.877 3.877 0 0 1 .25-2.643.487.487 0 0 1 .22-.157z" fill="#000F8F"/><path d="M22.165 31.47a1.41 1.41 0 0 1 .027.372v.648c.01.978.017 2.01.017 3.02v2.3c.007.15.017.31.027.46a13.564 13.564 0 0 1-.075 1.521 6.53 6.53 0 0 1-2.18 4.095 8.051 8.051 0 0 1-1.356.966c-.148.075-.302.155-.456.229a.058.058 0 0 1-.042.014h-.065c-.245-.164-.493-.32-.744-.473a4.867 4.867 0 0 0-1.743-.626 3.34 3.34 0 0 0-.967-.047 6.832 6.832 0 0 0-4.823 3.52 5.701 5.701 0 0 0-.602 1.678 5.305 5.305 0 0 0-.037 1.431 6.66 6.66 0 0 0 1.936 4.241 12.844 12.844 0 0 0 1.956 1.59c.258.16.514.32.765.478.029.02.051.02.051.056h.016a.029.029 0 0 1 .004.017 5.982 5.982 0 0 1-2.975-1.178 9.823 9.823 0 0 1-1.632-1.293 6.063 6.063 0 0 1-.727-.934 7.246 7.246 0 0 1-.7-1.131 8.03 8.03 0 0 1-.76-3.97 8.772 8.772 0 0 1 .508-2.388 6.6 6.6 0 0 1 .61-1.169c1.148-1.885 3.17-3.074 4.92-4.272 1.139-.766 2.26-1.532 3.392-2.295a17.825 17.825 0 0 0 3.093-2.446 11.487 11.487 0 0 0 1.953-3.05c.205-.447.434-.893.609-1.364z" fill="#E1001E"/><path d="M22.307 25.942a1.565 1.565 0 0 1 .027.473v1.017a14.474 14.474 0 0 1-.065 1.934 9.38 9.38 0 0 1-1.537 3.698c-.23.383-.5.736-.752 1.109a7.052 7.052 0 0 1-.75.951 12.56 12.56 0 0 1-1.476 1.3c-.82.602-1.597 1.202-2.458 1.724-.875.53-1.705 1.129-2.548 1.7a17.385 17.385 0 0 0-4.907 4.46 8.443 8.443 0 0 0-.827 1.7 7.658 7.658 0 0 0-.485 3.13 8.542 8.542 0 0 0 .751 2.824 8.364 8.364 0 0 0 .87 1.616 8.726 8.726 0 0 0 1.54 1.642 18.076 18.076 0 0 0 1.788 1.378c.09.05.325.251.415.251a.033.033 0 0 1 0 .022 5.918 5.918 0 0 1-3.048-1.466 9.461 9.461 0 0 1-3.612-6.899 6.757 6.757 0 0 1 .32-2.744c1.275-3.321 4.383-5.879 7.194-8 .984-.75 1.963-1.498 2.952-2.247.626-.485 1.276-.96 1.907-1.45.188-.187.386-.377.571-.558a17.657 17.657 0 0 0 2.626-3.292c.208-.333.417-.672.6-1.024a8.556 8.556 0 0 0 .689-2.075 10.561 10.561 0 0 0 .215-1.174z" fill="#74613C"/></svg>