<svg role="img" viewBox="0 0 64 64" xmlns="http://www.w3.org/2000/svg"><title>British Airways</title><path d="M0 36.868c.14-.071.204-.243.204-.39v-3.583c0-.151-.063-.318-.204-.393h1.706c.76 0 1.502.312 1.502 1.177 0 .458-.399.82-.83.9.62-.006 1.218.374 1.218 1.06 0 .978-1.024 1.229-1.747 1.229zm1.38-3.99c-.078 0-.133 0-.28.017v1.528h.173c.523 0 1.029-.161 1.029-.768 0-.602-.405-.777-.921-.777zm.11 1.938c-.125 0-.237 0-.39.012v1.613c.19.038.394.049.583.049.437 0 .883-.195.883-.865 0-.66-.527-.809-1.077-.809zm3.793-1.938c-.077 0-.146.012-.223.023v1.51c.07.005.136.012.206.012.491 0 .853-.271.853-.804.002-.547-.356-.741-.836-.741zm2.198 4.015c-.167 0-.35.006-.51-.041-.297-.088-.707-.758-.87-1.02-.254-.427-.474-1.016-1.041-1.022v1.669c0 .146.066.323.206.389h-1.31c.137-.071.204-.235.204-.39v-3.583c0-.151-.067-.318-.204-.393h1.576c.686 0 1.544.264 1.544 1.089 0 .692-.572 1.048-1.21 1.048.908.005 1.441 2.137 2.442 2.144-.267.077-.547.11-.827.11zm.895-.025c.109-.049.221-.193.221-.39v-3.583a.437.437 0 0 0-.221-.393h1.342c-.115.054-.22.195-.22.393v3.584c0 .196.105.339.22.389H8.376Zm2.91 0c.144-.066.214-.235.214-.39v-3.477h-.963c-.223 0-.488.028-.679.142l.3-.642h3.195c.259 0 .524-.006.775-.06-.121.33-.484.573-.692.573-.254-.006-.674-.022-1.035-.022v3.487c0 .152.075.323.216.389h-1.33zm3.002 0c.107-.049.22-.193.22-.39v-3.583a.436.436 0 0 0-.22-.393h1.34a.429.429 0 0 0-.223.393v3.584c0 .196.109.339.224.389h-1.341zm3.954-.988c0-.83-1.956-1.019-1.956-2.347 0-.822.781-1.091 1.467-1.091.306 0 .75.042 1.03.172l.049.815c-.173-.36-.603-.621-1.004-.621-.316 0-.647.156-.647.52 0 .861 1.988 1.072 1.988 2.33 0 .912-.796 1.29-1.6 1.29-.42 0-.992-.081-1.345-.324a3.154 3.154 0 0 1-.032-.448c0-.178.015-.357.043-.534.221.505.679.9 1.25.9.433.002.757-.188.757-.662zm4.189.988c.094-.043.196-.193.196-.39v-1.624a8.89 8.89 0 0 0-.925-.038c-.371 0-.7.012-.938.038v1.625c0 .196.098.339.195.389h-1.293c.097-.043.198-.193.198-.39v-3.583c0-.199-.103-.345-.198-.393h1.293c-.097.048-.195.195-.195.393v1.468c.238.025.562.038.938.038.366 0 .69-.017.925-.038v-1.468c0-.199-.102-.345-.196-.393h1.289c-.096.048-.192.195-.192.393v3.584c0 .196.096.339.192.389zm6.077 0c.042-.043.08-.075.08-.152 0-.026-.01-.07-.04-.151l-.4-1.089c-.27-.032-.55-.032-.824-.032-.261 0-.525.006-.782.032a211.45 211.45 0 0 1-.42 1.069c-.051.131-.07.175-.07.204 0 .065.056.097.102.119h-.877a.688.688 0 0 0 .298-.336l1.442-3.727a.14.14 0 0 0 .008-.054c0-.103-.069-.2-.16-.248h1.131l1.467 4.027c.06.161.188.279.295.34h-1.25Zm-1.14-3.536-.66 1.7c.197.02.4.026.601.026.229 0 .455 0 .676-.026zm2.611 3.536c.11-.049.22-.193.22-.39v-3.583a.436.436 0 0 0-.22-.393h1.341c-.114.054-.22.195-.22.393v3.584c0 .196.106.339.22.389zm3.38-3.99c-.073 0-.143.012-.218.023v1.51c.07.005.134.012.201.012.492 0 .853-.271.853-.804.002-.547-.357-.741-.837-.741zm2.306 4.015c-.168 0-.347.006-.511-.041-.298-.088-.706-.758-.869-1.02-.252-.427-.58-1.022-1.144-1.022v1.669c0 .146.064.323.201.389h-1.308c.14-.071.206-.235.206-.39v-3.583c0-.151-.065-.318-.206-.393h1.58c.683 0 1.54.264 1.54 1.089 0 .692-.625 1.048-1.098 1.048.94.053 1.507 2.144 2.44 2.144-.269.077-.548.11-.831.11zm5.438-3.965-1.324 3.94a.517.517 0 0 1-.278-.08c-.13-.126-.336-.655-.41-.849l-.6-1.514-.862 2.444h-.41l-1.482-3.949a.777.777 0 0 0-.333-.417h1.288a.21.21 0 0 0-.091.182c0 .044.021.105.038.151l.965 2.614 1.028-2.947 1.132 2.842.857-2.573c.021-.07.034-.096.034-.14 0-.054-.024-.087-.078-.13h.854c-.159.083-.273.263-.328.425zm1.585.404-.661 1.7c.2.02.403.026.602.026.226 0 .455 0 .676-.026zm1.137 3.536c.045-.043.079-.075.079-.152a.596.596 0 0 0-.04-.151s-.356-.976-.399-1.089c-.271-.032-.55-.032-.826-.032-.257 0-.522.006-.782.032a696.58 696.58 0 0 1-.419 1.069c-.055.131-.07.175-.07.204 0 .065.054.097.1.119h-.877a.68.68 0 0 0 .296-.336l1.447-3.727c.004-.015.009-.033.009-.054a.29.29 0 0 0-.163-.248h1.133l1.465 4.027c.06.161.19.279.298.34h-1.251zm3.939-3.908-1.032 1.814v1.704c0 .14.057.324.195.39h-1.285c.131-.071.191-.254.191-.39v-1.71l-.897-1.441c-.08-.135-.455-.762-.911-.762.124-.047.501-.12.755-.12.422 0 .63.04.89.445l.83 1.318c.07-.129.728-1.274.728-1.274.08-.14.133-.238.133-.287 0-.062-.027-.104-.09-.146h.925c-.182.087-.333.286-.432.46zm2.416 2.92c0-.83-1.955-1.019-1.955-2.347 0-.822.778-1.091 1.464-1.091.308 0 .748.042 1.03.172l.049.815c-.174-.36-.604-.621-1.004-.621-.317 0-.646.156-.646.52 0 .861 1.988 1.072 1.988 2.33 0 .912-.79 1.29-1.599 1.29-.42 0-.994-.081-1.348-.324a2.977 2.977 0 0 1-.034-.448c0-.178.017-.357.044-.534.22.505.68.9 1.252.9.436.002.76-.188.76-.662z" fill="#2E5C99"/><path d="M62.213 29.446c-.732.73-2.32 1.355-3.102 1.65-1.067.401-1.54.542-2.138.738-.676.219-2.028.63-2.028.63 2.802.837 4.775 1.09 4.775 1.09s.92-.285 2.377-1.066c.788-.401 1.177-.672 1.454-.93.103-.094.366-.369.433-.722.003-.026.016-.093.016-.159 0 0 0-.046-.004-.087-.001-.047-.01-.078-.01-.078s-.015-.084-.036-.143a.942.942 0 0 0-.258-.358c-.097-.079-.266-.276-.877-.492-.207-.072-.543-.139-.543-.139z" fill="url(#a)"/><path d="M64 30.657s-.004-.078-.024-.144a.57.57 0 0 0-.08-.174 1.51 1.51 0 0 0-.207-.244 2.008 2.008 0 0 0-.245-.191c-.383-.25-.876-.392-1.312-.452-.676-.09-1.452-.074-1.526-.077-.25-.003-1.862.01-2.277.018-1.84.037-4.094.042-4.683.042-6.093.028-8.745-.103-11.697-.695-2.51-.5-3.904-.974-3.904-.974 2.215-.077 15.138-.614 17.496-.677 1.544-.044 2.64-.053 3.517-.003.45.025.868.064 1.393.153.471.081.9.217 1.148.31.525.195.968.477 1.186.765 0 0 .065.067.153.184.098.136.212.305.25.368.32.484.472.79.525.896.057.111.107.228.156.34.047.113.067.18.084.228.033.12.042.228.043.252z" fill="#CE210F"/><defs><linearGradient id="a" x1="247.692" y1="6.093" x2="234.438" y2="29.012" gradientUnits="userSpaceOnUse" gradientTransform="translate(0 27.052) scale(.2474)"><stop stop-color="#E9EAF6"/><stop offset=".07" stop-color="#C7CBE8"/><stop offset=".181" stop-color="#96A0D1"/><stop offset=".277" stop-color="#7183C0"/><stop offset=".353" stop-color="#5972B6"/><stop offset=".4" stop-color="#506CB3"/><stop offset=".9" stop-color="#2E5C99"/></linearGradient></defs></svg>