<svg role="img" viewBox="0 0 64 64" xmlns="http://www.w3.org/2000/svg"><title>Cathay Pacific</title><path d="M.195 24.258c-.016.002-.023.015-.015.048.01.036.012.064.022.102.008.02.007.067.009.084 0 .027.001.031.005.056 0 .01.004.035.006.046.004.017.01.04.01.053v.057c0 .013 0 .017.003.04.007.02.008.022.011.041v.044c0 .016.003.03.007.048.01.031.031.076.023.121-.01.05.004.097.016.138.005.03 0 .06.006.084l.027.114c.008.034.004.062.012.09.01.043.04.1.041.117.005.02.002.07.009.103.005.032.013.069.015.09.002.018 0 .03.002.043.001.015.023.087.026.107.004.02.003.03.007.048.004.02.02.097.023.123.004.025.001.041.005.065.01.04.026.072.032.109.007.028.004.045.009.068.008.034.019.066.025.098.006.026.006.053.01.077.01.056.019.113.034.17.01.032.03.063.039.095.008.029.01.059.018.087.006.026.024.05.03.078.006.02.003.044.007.068.008.026.02.051.023.081.007.02.003.038.007.06.007.023.019.044.024.066.006.03.006.061.014.087.008.034.022.067.032.098.011.029.007.06.012.092.02.068.042.143.065.206.011.033.008.07.018.107.01.023.022.04.031.062.008.022.003.047.008.07.011.044.018.098.032.138.014.045.041.085.059.127.015.046.017.094.03.14.016.042.035.083.05.117.014.035.01.079.024.113.01.04.038.069.054.108.019.044.028.089.042.134l.012.059c.018.056.047.105.068.16l.016.07c.013.041.03.08.048.122.017.033.037.066.053.101.015.031.016.064.033.097.01.031.024.067.037.098.009.02.009.039.018.06.037.088.085.175.126.262.023.047.032.099.054.147.018.04.038.074.055.114.01.026.014.05.026.075.02.047.051.095.073.144.005.01.022.06.014.08 0 .002-.003.006-.005.006-.013.004-.044-.02-.06-.036-.056-.056-.065-.16-.102-.233-.01-.02-.024-.043-.036-.064-.006-.015-.008-.03-.015-.043-.026-.047-.054-.087-.076-.139-.015-.034-.019-.075-.032-.108-.067-.14-.14-.273-.2-.41-.027-.064-.034-.137-.057-.206-.015-.04-.04-.073-.056-.11-.013-.03-.016-.063-.03-.092-.02-.04-.045-.076-.059-.122-.01-.027-.013-.055-.024-.081-.012-.033-.034-.058-.046-.085-.018-.045-.022-.089-.038-.14a.588.588 0 0 0-.027-.079c-.007-.022-.01-.045-.016-.068-.018-.053-.049-.1-.07-.151-.014-.037-.01-.082-.024-.118-.013-.028-.036-.052-.05-.082-.01-.031 0-.07-.01-.106-.009-.036-.022-.069-.034-.101-.006-.024-.007-.044-.015-.063l-.046-.129c-.007-.023-.007-.042-.016-.064-.011-.023-.031-.046-.04-.076-.012-.041-.014-.085-.024-.129-.017-.052-.036-.097-.051-.15-.007-.016-.007-.032-.01-.05-.013-.048-.02-.101-.03-.146-.008-.024-.005-.044-.01-.066l-.043-.13c-.007-.03-.01-.057-.015-.083-.02-.071-.041-.153-.063-.22-.004-.02 0-.037-.009-.057-.013-.053-.037-.12-.049-.172-.005-.033-.005-.065-.013-.093-.007-.039-.02-.073-.028-.11-.002-.017 0-.03 0-.043-.005-.025-.006-.05-.01-.071-.023-.099-.062-.214-.081-.311-.01-.036-.01-.072-.014-.104-.004-.026-.005-.054-.013-.078-.008-.026-.02-.05-.023-.078-.004-.041-.006-.082-.012-.122l-.002-.01c-.005-.047-.03-.15-.036-.189a2.443 2.443 0 0 1-.02-.143c0-.03-.006-.062-.008-.095-.009-.049-.02-.094-.025-.144-.003-.036-.001-.066-.005-.093-.002-.02-.004-.05-.027-.05s-.02.025-.022.047c-.001.05.008.119.012.15.008.059.002.118.008.178.004.034.015.068.02.098l.018.17v.002c.003.028.004.05.01.075 0 .003 0 .004.002.007v.008c.004.011.006.024.01.033.005.02.004.038.01.062.017.067.013.139.03.203.025.096.038.198.068.295.007.026 0 .055.007.085.01.029.017.059.024.087.007.037.001.074.01.11l.028.1c.012.037.012.078.023.12.012.044.026.09.032.132.011.05.014.106.025.155.006.046.032.096.041.144 0 .013 0 .03.002.048l.024.098c.003.016.002.027.007.045.016.063.035.14.053.2.005.017.006.036.01.054.014.043.026.075.032.097l.012.07c.01.033.02.06.024.091l.016.067c.007.027.02.052.03.08.018.054.022.114.04.169.01.031.026.062.037.095.008.033.012.07.022.105.016.054.036.115.055.168.025.065.038.137.058.194.01.026.008.05.016.077.02.058.038.127.057.187.011.033.011.064.025.095.02.05.05.096.069.147.015.046.019.088.036.132.022.056.046.11.069.17.014.042.02.083.035.122.014.03.033.066.049.097.01.029.023.059.03.088.008.022.03.06.048.09.018.04.022.083.035.125.025.067.056.136.083.196.012.023.014.045.023.072.016.042.045.075.062.115.018.038.023.08.038.116.026.055.045.086.043.164 0 .005-.002.012-.01.013-.013.006-.029-.017-.038-.024-.042-.044-.046-.08-.073-.14-.04-.087-.091-.166-.132-.25-.017-.043-.027-.092-.048-.136-.011-.027-.029-.057-.04-.085-.021-.038-.03-.079-.05-.114-.028-.055-.052-.115-.075-.171-.011-.025-.01-.045-.02-.064-.011-.025-.025-.045-.037-.069-.013-.035-.023-.08-.038-.117-.031-.068-.066-.142-.094-.214-.022-.069-.036-.13-.06-.202-.01-.026-.023-.06-.031-.086-.01-.028-.01-.048-.018-.073a3.213 3.213 0 0 0-.077-.186c-.013-.03-.017-.058-.028-.09-.014-.037-.03-.08-.043-.119-.018-.046-.02-.103-.038-.158-.04-.108-.09-.225-.124-.344-.006-.027-.003-.055-.011-.082a3.298 3.298 0 0 1-.056-.187c-.021-.068-.017-.142-.04-.212-.027-.087-.057-.177-.086-.263-.008-.03-.004-.055-.012-.082a2.719 2.719 0 0 0-.065-.21c-.012-.03-.012-.065-.023-.094-.013-.037-.048-.023-.047.018.003.036.016.082.02.1.005.027.004.052.01.078.01.046.024.087.038.128.013.047.013.085.027.133a.42.42 0 0 1 .021.07c.015.044.015.093.031.133.011.034.022.072.031.108.007.024.006.045.014.065.01.041.023.085.037.123.006.026.004.047.009.069.01.033.018.067.027.095.008.032.008.073.015.104.02.057.04.117.06.17.02.06.021.124.044.184.04.109.073.233.114.341.01.029.006.057.016.088.01.046.02.092.036.137l.033.068c.012.025.013.051.027.08.01.022.023.045.03.067.015.036.01.078.024.11.01.026.023.054.032.081.013.03.013.062.023.089.012.026.03.05.04.072.01.025.013.05.023.074.009.026.022.053.035.078.01.026.013.056.024.086.01.023.027.049.037.074.009.027.01.058.021.087.015.044.04.078.06.122.012.027.013.061.027.091.016.037.036.072.052.105.02.047.041.096.057.138.035.08.049.165.081.243.03.055.063.112.09.165.013.032.017.065.032.096.018.036.043.063.058.098.014.035.023.067.037.101.019.043.048.084.067.123.011.025.018.05.027.071.022.05.058.086.077.136.012.028.023.06.033.091.025.048.06.092.085.14.018.039.028.076.049.111a3.398 3.398 0 0 1 .154.262c.016.04.046.069.063.106.015.035.038.073.057.109.024.04.045.067.068.101.04.06.063.124.102.186.028.04.056.083.087.122.077.107.186.301.235.367.04.05.072.114.107.166.028.044.065.086.093.123.026.036.045.07.068.105l.022.026c.992 1.273 2.013 2.118 2.876 2.672h-.002c.458.288.704.37.704.37.057.027.015.068-.012.087l-5.123 3.31c-.015.009-.055.037-.04.071.013.025.066.01.08.006 4.11-1.457 7.092-2.655 8.916-3.53 1.848-.887 2.468-1.394 2.403-1.645-.065-.237-.75-.136-1.316-.188a7.948 7.948 0 0 1-1.966-.417c-.741-.26-1.457-.56-2.082-.9l-.283-.15-.144-.086a.77.77 0 0 0-.11-.061c-.044-.02-.073-.044-.112-.067-.038-.025-.092-.05-.128-.074a1.697 1.697 0 0 1-.15-.104c-.032-.024-.05-.033-.094-.057-.027-.018-.074-.045-.1-.062-.05-.032-.081-.061-.131-.094-.033-.024-.054-.038-.09-.061-.039-.02-.074-.05-.106-.074-.018-.014-.04-.029-.058-.047a1.084 1.084 0 0 0-.112-.096c-.034-.028-.068-.062-.104-.087-.02-.017-.06-.05-.082-.066-.055-.04-.09-.071-.147-.11-.035-.028-.066-.065-.101-.094-.042-.03-.079-.064-.122-.091-.026-.022-.057-.045-.077-.068-.029-.032-.051-.054-.083-.085-.021-.024-.059-.05-.082-.074a1.016 1.016 0 0 0-.13-.126c-.028-.027-.036-.04-.047-.053a.385.385 0 0 0-.04-.046l-.04-.041c-.01-.01-.022-.02-.051-.05-.01-.009-.027-.034-.044-.055l-.033-.047c-.03-.031-.049-.049-.067-.07-.013-.016-.028-.032-.047-.049a.184.184 0 0 1-.027-.04.27.27 0 0 0-.027-.038c-.017-.02-.03-.012-.034-.01-.01.01-.013.027-.001.051a.5.5 0 0 0 .048.076l.007.01.014.026a.382.382 0 0 1 .023.04c.023.029.047.05.066.074l.023.023a.6.6 0 0 1 .038.05c.012.018.024.037.04.055.009.006.014.014.022.023.005.01.014.02.022.03l.038.039c.02.022.043.042.062.06.015.013.032.031.05.049.04.049.086.1.123.147.022.028.06.048.085.067.031.022.05.055.072.082.017.02.054.052.069.075a.523.523 0 0 0 .127.123c.032.026.058.047.085.082.015.02.062.067.08.087.045.06.066.115.06.115-.032.008-.108-.06-.152-.087-.038-.025-.044-.034-.077-.062-.01-.008-.064-.047-.083-.07a1.202 1.202 0 0 1-.069-.076c-.062-.08-.085-.086-.158-.155-.054-.053-.118-.1-.17-.15-.015-.013-.031-.03-.046-.047-.015-.018-.037-.034-.052-.05-.025-.03-.056-.09-.085-.113a1.316 1.316 0 0 1-.082-.068c-.013-.005-.022-.019-.031-.028a.137.137 0 0 1-.045-.04c-.035-.043-.069-.089-.104-.134-.015-.023-.04-.041-.056-.063-.035-.048-.063-.098-.098-.146-.049-.064-.118-.11-.168-.175-.046-.065-.077-.143-.121-.211-.02-.032-.05-.055-.072-.08-.014-.019-.02-.038-.031-.057a4.23 4.23 0 0 0-.079-.11c-.03-.046-.052-.1-.085-.15-.005-.008-.017-.038-.034-.065a.71.71 0 0 1-.06-.089l-.048-.083c-.017-.025-.027-.048-.039-.066-.01-.016-.033-.047-.04-.061-.032-.044-.039-.067-.07-.11-.019-.024-.039-.046-.054-.039-.013.01-.01.025-.005.037.01.037.01.031.027.059.024.043.033.065.06.105.01.02.032.065.05.092.017.024.032.051.044.073.01.023.03.08.05.102a.422.422 0 0 1 .042.078c.027.05.058.092.085.132.018.032.035.068.052.1.035.054.077.101.112.156l.062.115c.02.031.05.057.069.09.026.037.04.08.064.116.017.031.044.058.063.089l.1.146c.02.027.045.048.064.075.025.037.047.078.075.11.033.03.041.05.068.079.04.048.132.184.119.184-.057.007-.164-.116-.212-.16-.034-.035-.073-.061-.098-.094-.035-.05-.062-.105-.097-.152-.013-.017-.037-.031-.047-.049-.026-.031-.049-.065-.077-.095-.013-.011-.026-.02-.036-.033-.044-.059-.08-.12-.125-.18-.017-.022-.04-.044-.057-.069-.014-.017-.022-.037-.035-.058-.015-.028-.04-.054-.056-.081-.013-.02-.021-.04-.035-.057-.021-.037-.054-.067-.077-.104-.017-.029-.021-.066-.04-.097-.05-.073-.103-.15-.15-.224-.01-.02-.017-.04-.028-.061-.036-.06-.073-.125-.112-.186-.013-.022-.019-.048-.035-.069-.016-.03-.043-.049-.06-.076-.014-.022-.021-.042-.032-.066a.828.828 0 0 0-.048-.091c-.01-.02-.015-.04-.028-.057a2.15 2.15 0 0 1-.119-.229c-.021-.042-.05-.079-.069-.121l-.063-.14a.596.596 0 0 1-.031-.091c-.023-.05-.058-.091-.08-.142-.015-.031-.023-.064-.036-.093-.01-.016-.025-.031-.038-.023-.01.007-.012.02-.004.048.013.053.04.109.054.139.027.057.038.119.065.176.013.032.035.063.048.096l.075.164c.013.028.025.06.043.087.007.018.022.036.028.05.017.04.022.077.037.114.02.037.049.068.062.105.09.185.177.366.284.531.028.047.043.104.073.15.032.05.073.084.104.133.023.04.031.093.052.134.036.063.08.117.117.174.01.017.012.035.023.05.014.023.034.048.047.071.02.031.029.065.05.093.023.031.055.057.075.087.03.04.049.085.077.122.02.027.05.046.07.074.033.042.145.188.177.232.048.061.135.155.177.237.012.028.056.085.046.097-.023.018-.132-.104-.151-.123-.045-.045-.085-.105-.125-.155-.01-.013-.117-.115-.127-.127a.645.645 0 0 1-.028-.045c-.031-.043-.049-.095-.08-.138-.013-.015-.032-.029-.046-.047-.023-.032-.04-.07-.063-.103-.038-.051-.087-.095-.123-.15-.044-.054-.072-.12-.112-.18-.022-.027-.047-.05-.065-.08-.011-.014-.014-.028-.022-.041-.016-.022-.037-.05-.046-.075-.012-.024-.02-.044-.034-.066l-.128-.21c-.019-.029-.031-.064-.05-.096-.031-.049-.076-.093-.107-.146-.04-.06-.06-.132-.097-.194-.026-.04-.057-.076-.08-.116-.028-.044-.042-.094-.065-.14-.023-.039-.054-.077-.073-.117-.02-.045-.034-.087-.054-.132-.012-.023-.03-.048-.04-.073-.013-.03-.017-.06-.03-.09-.037-.084-.095-.163-.133-.245a1.556 1.556 0 0 1-.076-.186c-.01-.034-.017-.069-.034-.1-.033-.075-.075-.157-.11-.235l-.042-.12a.108.108 0 0 0-.01-.035c-.016-.036-.035-.07-.048-.106a3.503 3.503 0 0 1-.042-.127c-.053-.133-.103-.285-.153-.426-.005-.026-.008-.056-.018-.083-.024-.072-.05-.146-.077-.218-.014-.037-.05-.024-.04.013.01.05.017.063.023.101l.012.059c.005.024.019.05.026.072.013.044.014.085.03.129l.06.173c.006.027.011.057.016.089.011.027.02.057.03.082.029.074.058.142.083.216l.032.125c.012.023.03.047.037.07.01.018.012.038.02.06.019.045.036.094.055.14.018.039.041.079.056.12.007.019.007.036.013.056.044.124.094.254.145.37.014.03.018.058.03.09.01.024.027.047.036.073.006.015.01.032.018.05.016.032.042.061.06.094.045.095.084.187.14.269.054.074.076.177.115.269.02.04.043.078.067.115.013.019.02.043.03.063.024.046.038.087.072.128.023.035.02.045.04.091.006.014.03.104.025.104-.009.006-.052-.022-.065-.04-.022-.021-.053-.05-.075-.1-.01-.027-.032-.068-.043-.09-.027-.06-.076-.11-.108-.165-.022-.03-.031-.068-.049-.102-.028-.063-.062-.127-.092-.193-.012-.026-.03-.05-.047-.076-.015-.023-.023-.052-.04-.078-.033-.054-.073-.115-.1-.175-.02-.045-.032-.09-.052-.132-.005-.014-.017-.028-.026-.041-.013-.022-.019-.045-.032-.071-.015-.034-.037-.066-.054-.101-.031-.068-.05-.138-.081-.204-.015-.034-.04-.061-.054-.091-.02-.048-.025-.108-.05-.159-.056-.132-.123-.269-.176-.41-.007-.024-.01-.051-.016-.075-.022-.062-.05-.118-.075-.177-.01-.027-.01-.05-.018-.078-.015-.042-.036-.086-.05-.125-.005-.014-.006-.03-.011-.044-.017-.037-.027-.083-.045-.123-.01-.02-.026-.042-.033-.064-.016-.041-.012-.09-.024-.13a5.128 5.128 0 0 0-.065-.173c-.01-.033-.012-.065-.025-.097l-.041-.116c-.015-.041-.014-.08-.027-.122a.457.457 0 0 0-.033-.092c-.018-.057-.027-.116-.045-.166a.18.18 0 0 0-.01-.027c-.005-.016-.016-.03-.03-.025-.015.005-.015.027-.015.041.004.038.02.075.032.11.01.032.019.069.027.102.005.023.004.045.01.068.007.033.018.063.027.096.009.028.004.062.011.086.02.068.042.146.065.21.01.034.012.074.022.101l.036.105c.011.032.014.056.025.083.013.032.03.06.039.095.01.04.01.083.024.121.026.067.054.127.076.191.008.022.01.047.017.07.02.053.034.112.052.167.03.075.066.151.09.228.03.075.034.165.064.235.016.035.049.057.064.09.012.023.008.046.016.073.008.03.021.056.03.084l.021.072c.012.029.034.056.043.084.02.045.033.094.057.132.018.03.043.059.06.094.019.037.024.078.039.116.025.058.058.11.077.172.02.052.027.11.054.157.023.05.057.092.084.138l.046.107c.013.024.038.052.055.08.018.034.04.073.054.108.014.029.018.055.031.08.025.035.042.066.065.103.02.032.044.074.058.11.013.032.023.061.04.087.019.025.042.05.056.074.017.027.037.117.027.12-.016.006-.07-.044-.086-.062-.04-.054-.064-.123-.1-.177-.042-.06-.068-.093-.099-.161-.019-.04-.05-.11-.074-.146-.022-.033-.05-.063-.066-.1-.014-.029-.022-.067-.034-.097-.02-.044-.061-.072-.081-.115-.026-.05-.035-.103-.061-.153-.01-.02-.029-.046-.038-.07-.014-.03-.022-.06-.035-.09-.029-.061-.072-.112-.098-.174-.03-.063-.047-.129-.08-.194-.014-.032-.041-.063-.057-.099-.023-.045-.033-.091-.056-.137-.012-.028-.03-.055-.044-.082-.018-.039-.025-.084-.042-.125-.044-.094-.084-.188-.126-.282-.015-.037-.02-.073-.037-.111-.013-.031-.03-.06-.046-.094-.035-.082-.048-.18-.085-.261-.019-.043-.04-.082-.058-.126-.024-.072-.036-.145-.06-.217-.04-.11-.072-.228-.112-.334-.01-.036-.013-.066-.024-.1l-.035-.097c-.008-.025-.014-.064-.022-.097a11.257 11.257 0 0 0-.088-.281c-.005-.024-.008-.062-.016-.093-.002-.015-.013-.036-.016-.05-.008-.02-.008-.038-.014-.06-.025-.07-.043-.15-.066-.218-.004-.02-.005-.052-.013-.078-.031-.095-.046-.216-.083-.306-.008-.016-.019-.034-.036-.03-.018.004-.014.023-.012.038.005.047.021.084.03.122.002.015.002.038.002.057.004.018.007.04.012.055l.054.186c.006.027.002.07.008.1.025.092.042.203.077.287.033.074.038.166.057.248.008.034.011.07.014.106.006.033.025.059.036.087.008.022.008.04.015.06.016.06.03.12.053.178.013.041.035.08.048.122.008.016.005.033.01.052.01.04.018.082.031.123.027.079.054.167.082.247.017.046.02.09.037.134l.19.519c.011.037.02.075.03.112.014.04.037.075.054.107.022.047.025.093.042.141.02.053.048.097.067.156.01.027.02.057.032.085.01.021.029.04.04.058.013.036.016.08.033.113.016.036.045.062.064.096.02.029.021.066.036.101.026.052.054.1.077.157.011.024.016.045.026.067.01.025.031.05.042.077l.002.001c.002.006.002.01.005.015a.138.138 0 0 0 .009.036c.005.014.023.04.028.05l.026.031c.005.006.01.011.013.018.023.034.025.088.044.126.018.04.05.07.07.11.014.03.02.107.004.108-.077 0-.084-.109-.108-.165-.023-.046-.053-.083-.077-.127a.28.28 0 0 1-.017-.042l-.018-.044-.015-.033c-.008-.013-.03-.04-.037-.056v-.002c-.03-.047-.05-.115-.074-.148-.01-.02-.027-.037-.038-.056-.019-.03-.03-.067-.044-.104-.015-.028-.038-.06-.052-.091-.017-.038-.02-.087-.038-.127-.01-.02-.027-.043-.036-.062-.02-.046-.034-.094-.057-.137-.01-.022-.026-.042-.038-.063-.016-.037-.027-.077-.046-.114a2.627 2.627 0 0 1-.117-.23c-.02-.048-.027-.095-.047-.14-.017-.038-.04-.078-.057-.113-.011-.025-.015-.05-.025-.075-.016-.045-.035-.09-.053-.134-.009-.027-.017-.096-.024-.123l-.043-.098c-.02-.048-.028-.099-.05-.148l-.047-.113c-.013-.033-.014-.062-.027-.093-.01-.022-.025-.05-.032-.072-.012-.028-.017-.074-.027-.111-.013-.041-.03-.08-.043-.122-.01-.03-.01-.1-.019-.118-.042-.126-.08-.263-.121-.39-.015-.056-.025-.116-.042-.173-.006-.023-.006-.052-.012-.075-.011-.036-.028-.075-.037-.11-.007-.027-.01-.053-.016-.077-.007-.026-.02-.055-.03-.08-.024-.076-.036-.158-.058-.23-.01-.033-.01-.073-.016-.101-.03-.092-.038-.197-.062-.297-.006-.027-.013-.054-.018-.082-.046-.178-.068-.38-.12-.554-.009-.033.002-.074-.003-.11l-.035-.113c-.006-.019-.006-.033-.01-.05-.01-.032-.023-.055-.036-.05-.02.008-.017.025-.017.05.003.04.007.072.017.105.004.03.001.05.008.076.016.055.023.134.03.185.004.022.002.049.006.075.006.024.025.061.031.087.006.038.006.088.01.126a.819.819 0 0 0 .027.1c.007.027 0 .054.01.08.006.028.022.052.026.08.006.035 0 .081.007.109.04.16.05.344.098.498.005.024.005.045.01.066.04.132.068.277.108.41.005.018.005.04.01.064.014.046.023.096.032.144.007.02.007.04.011.06.014.051.033.098.048.147.006.023.008.043.012.068.004.019.013.04.019.056.008.029.005.056.013.079.006.016.02.031.023.05.006.026.01.054.018.083.01.034.027.067.042.1.01.027.01.054.02.081.02.05.04.102.057.152.016.04.017.082.033.124l.03.082.018.064c.008.02.03.053.043.078.01.03.006.068.015.1.01.033.027.057.04.086.009.031.009.06.015.091.009.025.025.047.034.069l.029.075c.005.017.021.035.028.053.012.028.024.06.035.091.019.041.022.097.035.146.004.014.002.05-.008.052-.019.003-.042-.028-.055-.048a.716.716 0 0 1-.062-.11 1.44 1.44 0 0 0-.051-.149c-.009-.02-.023-.042-.03-.064-.011-.031-.006-.07-.018-.097-.01-.023-.028-.041-.04-.064-.007-.022-.01-.045-.02-.064a.386.386 0 0 0-.04-.073c-.01-.023-.01-.046-.018-.076-.01-.032-.019-.064-.032-.093-.014-.031-.032-.06-.046-.094l-.015-.05a.657.657 0 0 0-.03-.07.37.37 0 0 0-.015-.055c-.012-.026-.025-.054-.035-.082-.008-.023-.01-.047-.019-.07-.013-.04-.025-.085-.039-.124-.01-.032-.01-.061-.02-.091-.012-.036-.027-.072-.04-.107-.01-.029-.013-.061-.021-.089-.014-.04-.033-.074-.046-.115-.008-.032-.008-.064-.014-.094l-.071-.233c-.025-.086-.029-.185-.054-.27-.016-.06-.037-.12-.056-.18-.008-.032-.008-.063-.015-.094-.017-.065-.04-.157-.063-.226-.012-.039-.01-.077-.02-.118-.011-.04-.014-.087-.025-.131-.01-.027-.017-.044-.023-.08-.008-.032-.007-.073-.012-.1-.005-.026-.05-.176-.054-.204-.004-.026-.004-.08-.007-.094-.002-.014-.025-.08-.027-.094-.004-.018-.004-.037-.012-.073-.005-.034-.024-.106-.028-.128-.004-.02-.004-.066-.009-.085-.003-.024-.017-.072-.026-.107-.013-.043-.002-.09-.015-.13-.008-.032-.02-.06-.031-.09-.006-.024-.014-.056-.014-.073-.004-.02-.004-.07-.005-.087 0-.025-.011-.065-.014-.101a.68.68 0 0 0-.022-.129c-.004-.017-.002-.04-.005-.054-.013-.047-.025-.092-.051-.088zm1.392 4.93c.001-.005.014-.001.018 0 .01.013.019.018.028.03.008.01.01.02.016.033.015.025.037.05.05.076.027.06.033.125.06.184.017.037.046.07.065.107.008.021.013.042.021.065.004.017.003.038.005.051 0 .02-.002.033-.01.033-.049-.003-.064-.067-.085-.103a1.242 1.242 0 0 1-.027-.06c-.01-.024-.01-.047-.02-.066a5.767 5.767 0 0 0-.102-.227c-.014-.028-.031-.086-.019-.123zm1.508 1.28c.046.004.09.086.112.119l.054.068c.019.035.031.078.054.11.028.042.063.077.095.118.016.022.038.041.047.07.007.016.022.07.01.076-.034.011-.115-.083-.138-.121-.045-.064-.087-.136-.134-.199-.042-.06-.088-.1-.1-.197 0-.013-.008-.044 0-.044zm-1.532.014c.04.008.082.11.101.146.023.04.058.072.08.114.015.04.02.086.042.123.015.028.04.051.058.078.023.033.038.08.057.118.018.043.047.077.065.12.007.019.01.05.005.07-.002.006-.005.012-.016.012-.054-.003-.07-.084-.093-.123-.022-.029-.038-.066-.057-.096-.015-.023-.034-.046-.046-.07-.015-.032-.019-.066-.04-.094-.009-.015-.026-.028-.036-.043a.689.689 0 0 1-.077-.133c-.004-.02-.006-.037-.013-.057l-.034-.097a.158.158 0 0 1-.004-.06c.001-.006.004-.01.008-.008zm1.433.334c.051 0 .104.078.124.116.004.014.018.043.015.062 0 .013-.005.019-.013.021-.025-.004-.038-.019-.054-.031a.194.194 0 0 1-.079-.156c0-.01.002-.012.007-.012zm1.524.712c.01-.01.065.01.08.021.037.03.068.072.087.144 0 .01-.008.012-.012.012-.047.006-.105-.067-.128-.102-.008-.01-.035-.067-.027-.075zm24.474.03-3.321 7.022c-.495.96-1.045.982-1.045.982l-.048.051h2.272l-.054-.051s-.635-.127-.232-.982l.595-1.239h2.846l.576 1.239c.403.855-.231.982-.231.982l-.05.051h3.128l-.054-.051s-.576-.005-1.042-.982zm23.923 0-3.322 7.022c-.494.96-1.042.982-1.042.982l-.053.051h2.269l-.048-.051s-.634-.127-.233-.982l.597-1.239h2.846l.575 1.239c.407.855-.23.982-.23.982l-.051.051h3.128l-.054-.051s-.576-.005-1.043-.982zm-31.283.266c-2.755 0-4.485 1.718-4.485 4.02 0 1.852 1.427 3.898 4.376 3.898 1.11 0 2.405-.444 2.405-.444l.596-2.058-.066.045s-.965 1.605-2.762 1.605c-1.635 0-2.76-1.083-2.76-3.057s1.094-3.26 2.82-3.26c1.788 0 2.433 1.404 2.433 1.404l.045.037v-1.662s-1.073-.528-2.601-.528zm10.766.035-.004 1.528.054-.04s.408-.66 1.3-.66h1.277v5.897c0 .905-.506.983-.506.983l-.055.05h2.719l-.053-.05s-.507-.078-.507-.983l.008-5.897h1.244c.896 0 1.326.66 1.326.66l.051.04.003-1.528s-.127.088-1.022.088h-4.814c-.894 0-1.021-.088-1.021-.088zm13.118.086.048.05s.509.065.509.97.004 2.207.004 2.207h-3.735v-2.206c0-.906.51-.969.51-.969l.048-.05h-2.715l.054.05s.507.063.507.969v5.618c0 .905-.507.983-.507.983l-.054.05h2.715l-.047-.05s-.511-.078-.511-.983v-2.66h3.735v2.66c0 .905-.504.983-.504.983l-.053.05h2.716l-.051-.05s-.51-.078-.51-.983l-.001-5.618c0-.906.507-.97.507-.97l.05-.05zm10.064.002.05.05s.453.078 1.046.98c.25.383 1.52 2.175 2.204 3.222v2.385c0 .905-.507.983-.507.983l-.053.05h2.718l-.055-.05s-.505-.078-.505-.983c0-.383-.004-1.34-.004-2.385.684-1.047 1.955-2.832 2.208-3.216.588-.903 1.262-.986 1.262-.986l.054-.05h-2.383l.054.05s.67.191.164.986c-.246.388-.994 1.468-1.675 2.514-.686-1.046-1.421-2.133-1.67-2.52-.503-.797.17-.98.17-.98l.051-.05zM28.646 34.2l1.068 2.488h-2.24zm23.922 0 1.07 2.488h-2.242z" fill="#005D63"/></svg>