<svg role="img" viewBox="0 0 64 64" xmlns="http://www.w3.org/2000/svg"><title>Copa Airlines</title><path d="M50.8691 26.6445v2.9063c.3092-.0091.6622.094 1.045.1445l-.672.086a6.9527 6.9527 0 0 0-.373.0273v.1523c.4876-.0909 1.0196-.15 1.5137-.1543 4.332-1.034 7.9219-.0605 7.9219-.0605-.77-.1757-5.0604-.7625-9.4356.957v.2617c.6496-.2196 1.3358-.3889 1.9922-.4668.9737-.12 1.8787-.0673 2.6407.1485 3.2018-.2293 5.5214.457 5.5214.457-.871-.1422-5.545-.783-10.1543 1.3262v.209c1.276-.6103 2.6152-.9619 3.7559-1.0371 1.1567-.0622 2.1909.1016 2.9688.5644 1.8338-.0283 3.2305.2103 4.0117.4004v-5.9219H50.869zM2.8398 28.963c-1.0737-.0009-1.7947.2954-2.2363.7812-.4006.435-.6048 1.0171-.6035 1.6465v.045c-.0013.6437.2035 1.2245.6055 1.662.4416.4872 1.161.7696 2.2343.7696h.0059c1.2076 0 1.9762-.3663 2.4004-.9649l-1.1055-.4218c-.238.3227-.6323.5377-1.287.539h-.0274c-.6531-.0013-1.0424-.2113-1.2813-.5293-.2036-.2692-.3194-.6436-.3242-1.0312v-.0684c0-.4062.1154-.763.3242-1.041.239-.3206.6282-.5258 1.2813-.5293h.0273c.6675.004 1.063.2226 1.2988.5567l1.0938-.4239c-.422-.6068-1.1825-.992-2.4063-.9902zm19.6329.1367-2.1875 4.6914h1.2402l.4941-1.0996h2.2403l.5078 1.0977h1.2344s-1.9452-4.181-2.1797-4.6895h-1.3496zm4.5761.002c-.2297 0-.382.0326-.4648.0957-.0815.0635-.123.176-.123.3379 0 .157.0382.2622.1171.3222.0798.0592.2349.088.463.088.2257 0 .3782-.0286.4628-.09.082-.063.127-.1723.127-.3359 0-.1544-.045-.2648-.123-.3261-.082-.061-.2345-.0918-.459-.0918zm5.039 0v4.123c0 .2501.0892.505.1114.5664h1.043c-.0153-.0604-.1113-.3045-.1113-.5664v-4.123h-1.043zm2.6134 0c-.2294 0-.3831.0326-.4668.0957-.0824.0635-.1211.176-.1211.3379 0 .157.0367.2622.1152.3222.082.0592.2349.088.463.088.2249 0 .3815-.0286.4648-.09.0823-.063.125-.1723.125-.3359 0-.1544-.0403-.2648-.1192-.3261-.0828-.061-.2351-.0918-.461-.0918zm19.418.873c.2323.0635.539.173.832.3535l-.3301-.0508c-.282-.1061-.616-.1776-.9473-.2246a4.5828 4.5828 0 0 1 .4453-.078zm-6.75.1719c-.535 0-.9473.0924-1.2442.2851-.2954.187-.4434.4502-.4434.793 0 .2862.0994.511.293.6836.1929.17.5015.2989.9238.375l.3086.0586c.3545.0726.5832.1344.6778.1992.0928.0653.1425.1569.1425.2735 0 .1222-.0685.2125-.2011.2773-.1341.063-.333.0977-.5918.0977-.2378 0-.4833-.0307-.7364-.0938a3.7285 3.7285 0 0 1-.748-.2695v.8144c.274.0748.5472.1269.8125.166.2682.0353.5326.0528.7871.0528.5753 0 1.0084-.0912 1.293-.2735.2867-.1805.4297-.4547.4297-.8222 0-.3015-.092-.5417-.2813-.7227-.187-.177-.4846-.3043-.8906-.3847l-.3184-.0626-.041-.0097c-.539-.1057-.8105-.2394-.8105-.4082 0-.1179.065-.2108.1894-.2695.1276-.0605.3134-.0899.5606-.0899.2214 0 .4446.0279.668.084.2207.0552.4333.1384.6367.248v-.8066a4.8233 4.8233 0 0 0-.6934-.1484 5.6324 5.6324 0 0 0-.7227-.047zm-29.7715.0039c-.586 0-1.307.2292-1.5547.3144-.0236.1497-.0985.62-.1133.7188.2263-.05 1.1156-.3184 1.668-.3184.5697 0 .8671.194.8671.4746v.3047s-.7026-.0703-.955-.0703c-1.1357 0-1.8243.406-1.8243 1.1445 0 .9357 1.0346 1.1387 1.5625 1.1387.712 0 1.085-.1889 1.2598-.3476l.0606.2812h1.0449c-.0122-.0557-.1074-.3055-.1074-.6387v-1.8535c0-.7181-.7704-1.1484-1.9082-1.1484zm13.1796 0c-.6112 0-.9544.2249-1.1445.3945l-.0879-.3222h-1.0488c.0192.0722.1096.315.1113.5625v3.0039h1.043v-2.084c.0043-.549.4093-.8399 1.127-.8399.1194 0 .5895.0614.791.088-.0092-.0919-.0813-.5342-.1114-.7169-.1486-.0278-.4826-.086-.6797-.086zm7.6504 0c-.7822 0-1.164.4101-1.164.4101l-.0625-.3398h-1.0567c.0419.1275.1114.3635.1114.5723v2.998h1.0449v-2.08c0-.5564.3447-.8458 1.127-.8458.4295 0 .6913.142.6913.8457v2.0801h1.041v-2.08c0-1.0605-.3426-1.5606-1.7324-1.5606zm-25.3925.0039c-.65 0-1.1524.3809-1.1524.3809s-.057-.2112-.08-.3086h-1.047c.0375.1287.1114.3779.1114.6445v4.0547h1.041v-1.4121c.2097.1527.5977.3515 1.127.3515 1.7469 0 2-.8317 2-1.8574 0-1.0157-.2531-1.8535-2-1.8535zm-5.1172.0039c-1.3036 0-2.1739.5727-2.1739 1.8516 0 1.294.8703 1.8574 2.1739 1.8574 1.3018 0 2.166-.5634 2.166-1.8574 0-1.2789-.8642-1.8516-2.166-1.8516zm35.1933.004c-1.7732 0-2.168.828-2.168 1.8437 0 1.0265.3864 1.8593 2.254 1.8593.6836 0 1.3234-.1282 1.4687-.1582.028-.1818.0879-.5756.1074-.711-.1.01-.9092.1583-1.5761.1583-.8682 0-1.1009-.3302-1.172-.789h3.002v-.3594c0-1.2793-.6843-1.8438-1.916-1.8438zm-16.5898.0585v3.004c0 .2648.1008.529.1152.5663h1.039c-.0187-.0661-.1112-.3115-.1112-.5664v-3.0039h-1.043zm7.6523 0v3.004c0 .2648.099.529.1133.5663h1.039c-.0187-.0661-.1113-.3115-.1113-.5664v-3.0039h-1.041zm-11.0273.0137.7265 1.6015h-1.457l.7305-1.6015zm30.9453.5547c-.9804-.0013-2.1084.1735-3.2227.543v.3398c1.1477-.4468 2.305-.72 3.416-.8809a7.7239 7.7239 0 0 0-.1933-.002zm-10.9805.08c.6047 0 .8203.3876.8555.7774h-1.9414c.0613-.4398.2624-.7774 1.086-.7774zm-30.0761.002c.8004 0 .957.503.957 1.1367 0 .643-.1566 1.1465-.957 1.1465-.8841 0-1.127-.5036-1.127-1.1465.0187-.6838.2429-1.1367 1.127-1.1367zm-5.1172.0039c.8667 0 1.127.4305 1.127 1.1348 0 .7172-.2603 1.1504-1.127 1.1504-.872 0-1.1309-.4332-1.1309-1.1504 0-.7043.259-1.1348 1.1309-1.1348zm48.6992.252c.229.1513.5364.3918.7187.621l-.1914-.0625c-.2707-.1957-.5554-.3733-.9218-.5234.1225-.0078.251-.0278.3945-.0351zm-1.4863 1c-1.2905.0034-2.7679.317-4.2618.9433v.6543c1.8857-.9174 3.8074-1.3517 5.4825-1.496-.3825-.0677-.7906-.1028-1.2207-.1016zm-37.6211.162h.955v.1426c0 .6616-.6352.7207-1.2168.7207-.201 0-.5175-.0434-.5175-.4335 0-.2576.352-.4297.7793-.4297zm41.6933.2286c-2.2425.0044-5.3789.3792-8.334 2.0703v.2715c.1294-.074.2591-.1433.3809-.209.965-.519 1.929-.8815 2.8926-1.1016.912-.2175 1.8048-.2933 2.621-.2207 1.5439.1388 2.6533.8117 3.1876 1.9766.0047.0087.3852.865.4218 1.6719l-.1835-.463c-.0486-.2305-.1137-.4673-.2344-.6796-.3955-.769-1.1651-1.321-2.2051-1.6445-.9443-.2984-2.1842-.3105-3.4707-.0586-1.1418.2166-2.3042.6472-3.4102 1.1953v2.0293h.1075c.6633-.4937 1.3788-.855 2.123-1.1504 1.9505-.8395 3.8477-1.0929 5.2715-.7149 1.0454.2993 1.7298.9157 2.0078 1.8653h1.2266v-4.7032a20.8283 20.8283 0 0 0-2.4024-.1347zm-.8554.1777a.8934.8934 0 0 1 .164.1582c.0196.0283.6557.656.8692 1.295l-.2696-.2989c-.3251-.4802-.7373-.8412-1.3086-1.1191.1708-.0205.3844-.0278.545-.0352zm-1.8829 3.3516c-.4733.0066-.9723.058-1.4921.1543-1.0603.194-2.1717.5544-3.2403 1.1543h8.1563c-.38-.5542-.9863-.9082-1.7246-1.1114-.524-.139-1.0907-.2057-1.6993-.1972zm6.9024.121c-.318.0153-.5703.264-.5703.5919 0 .3345.2691.5957.6015.5957.3357 0 .6016-.2612.6016-.5957 0-.3384-.2659-.5918-.6016-.5918-.0104 0-.021-.0005-.0312 0zm.0312.0821c.2734 0 .5098.224.5098.5098 0 .2818-.2364.502-.5098.502-.27 0-.5097-.2202-.5097-.502 0-.2858.2397-.5098.5097-.5098zm-.2187.1719v.6601h.0898v-.3008h.1055l.1973.3008h.1113l-.1992-.3008c.1167-.0043.207-.0528.207-.1855 0-.1418-.115-.1738-.2324-.1738h-.2793zm.0898.0918h.17c.072 0 .1601.0124.1601.082 0 .1044-.1427.0879-.2246.0879h-.1055v-.17z" fill="#0032A0"/></svg>