<svg role="img" viewBox="0 0 64 64" xmlns="http://www.w3.org/2000/svg"><title>Emirates</title><path d="m24.75 30.5-1.834 1.833c1.25 1.25 1.666 1.834 1.75 2.417.083-.083 1.75-1.5 1.75-2 0-.75-.5-1-1.667-2.25M6.25 41.75H0s1.084.916 1.084 2.833v7.5c0 1.916.75 1.916.75 1.916h6.083c1.416 0 1.833-1 1.833-1.5v-.75s-.417.916-2.25.916H4.584c-.917 0-.834-.75-.917-1.416v-4.167H5.75c.667 0 1.333.084 2 .417 0 0-.667-1.666-2.75-1.666H3.667v-1.334s0-1.166-.25-1.5h1.917c1.666 0 2.916 0 4.25.834.083.166-.167-2.084-3.334-2.084m9.666 2.417c-2 0-2.5 1.917-2.5 1.917s-.083-1.834-1.666-1.834h-1.583s.916.334.916 1.917v5.833c0 1.916.75 2 .75 2h2.583c-.083 0-1-.75-1-2v-5.167c0-.25.417-1 1.5-1 .667 0 1.334.667 1.334 1.417v4.833c0 2 .75 2 .75 2h2.583s-1-.667-1-2v-5.166c.083-.25.416-1 1.416-1 .75 0 1.417.666 1.417 1.416v4.833c0 1.917.75 1.917.75 1.917h2.583s-1-.667-1-2v-5.25c0-2.083-1.666-2.583-2.916-2.583-1.667 0-2.167 1.417-2.334 1.834-.25-1.334-1.5-1.917-2.583-1.917m10.833.083h-1.583s.916.417.916 1.917v5.833c0 1.916.75 1.916.75 1.916h2.583s-1-.666-1-2v-5.583c0-2.083-1.166-2.083-1.666-2.083m4.583 0h-1.583s.916.334.916 1.917v5.833c0 1.916.75 2 .75 2H34c-.084 0-1-.75-1-2v-4.833c.083-.417.333-.75.666-1 .334-.25.75-.333 1.167-.333.583 0 1.166.25 1.583.75v-1.667s-.25-.667-1.333-.667c-1.583 0-2 1.917-2 1.917-.167-1.5-.583-1.917-1.75-1.917M47.748 42s-.584 1-1.75 1.917c-.75.583-2.25 1.333-2.25 1.333h1.667v6.833c0 1.917.75 1.917.75 1.917h2.583s-1-.667-1-1.917v-6.75h.666c.834 0 1.5.417 1.5.417v-1.5h-2.166V42m6.416 2.25c-2.667 0-4.083 2.5-4.083 5.167 0 2.666 1.75 4.666 4.25 4.666 2.083 0 2.75-.75 2.75-.75V51.75c-.584 1-1.334 1.25-2 1.25a2.5 2.5 0 0 1-1.084-.25c-1.166-.5-1.333-2-1.333-2 .917-1.083 2.083-.833 3.5-2.417 2-2 .583-4.083-2-4.083m-1.583 5.417s-.334-4.5 1.333-4.667h.083c1.334 0 1 1.917.584 2.667-.584 1.25-1.417 1.333-2 2m-25.332-8.583c-.667 0-1.167.5-1.167 1.166 0 .667.5 1.167 1.167 1.167s1.167-.5 1.167-1.167c0-.666-.5-1.166-1.167-1.166m12.666 3.166c-1.5 0-2.417.75-2.417.75v1.667s.5-1.333 1.917-1.333c1.333 0 1.416.666 1.416 1 0 0 .167.416-.166 1-.584 1.083-5.25 1.25-4.583 4.916.25 1.416 1.25 1.833 2.416 1.833 1.167 0 1.833-.583 2.167-1.167.166 1.084.75 1.167.75 1.167h2.583s-1-.667-1-1.917v-5.5c-.083-1.416-1.5-2.416-3.083-2.416m-.833 8.666c-.584 0-1-.583-1-1.25 0-2.416 2-2.75 2.5-3.416v4.083c-.25.25-.5.583-1.5.583m21.998-8.749c-1.583 0-2.916 1-2.916 2.333 0 1.167.5 1.917 1.416 2.583l1.334.834c.75.416 1 .916 1 1.416 0 .667-.584 1.583-1.917 1.583-1.333 0-1.917-1.416-1.917-1.416v1.75s1 .666 2.417.666c1.75 0 3.583-1.333 3.5-3.166 0-.667-.25-1.25-.584-1.667-.583-.833-1.666-1.333-2.5-1.916-.5-.334-.75-.834-.75-1 0-.333.167-1 1.5-1 1.25 0 1.834 1.333 1.834 1.333v-1.666c0 .166-.917-.667-2.417-.667M20.583 27.25h-1s1 .584 1 1.917v4.5c0 2.916 2.416 5.666 5.333 5.666h2.416c1.5 0 2-.333 2.833-1.167l.917-.916c.5-.584 1.083-1 1.083-2.583v-1.5c0-1.25-.75-1.834-1.083-2.167l-.833-.833v3s.583.666.916.833c1.25 1 .25 2.75-.916 2.75h-5.417c-2.5-.084-4.5-2.167-4.583-4.667v-2.416c0-2.417-.666-2.417-.666-2.417m7.833 3.25-1.834 1.833c1.25 1.25 1.667 1.834 1.75 2.417.084-.083 1.75-1.5 1.75-2 0-.75-.5-1.083-1.666-2.25m3.75-20.582-1.25 1.25c-.5.5-.334 1.5.666 2.5v2.5c0 .25-.25.5-.25.5s-1.5-1.334-2.833-1.334h-2c-1.25 0-2.25 1.167-2.417 1.25-.666.667-.666 1.917-.166 2.5l1.416 1.417s-.333-2.25 0-3.75c.084-.333.5-.75.917-.75l3.25 2.5-3.75 3.916c-.167.167-.667.5-1.167.5-.583 0-.833-.333-1.083-.666v1.833c0 .583.833 1.25 1.583 1.25h5c.333 0 .75-.084 1.083-.417l1.667-1.666c.25-.25.333-.584.333-1v-1.917c0-1.833-1.416-3.25-1.416-3.25s.333-.25.333-1v-1.916s.583.583.667.833l1.083-1.083c.5-.5-.333-1.417-.667-1.834-1-1.083-1-2.166-1-2.166m-6.25 13.166c.5-.25.584-.417 1-.917l3.167-3.333s1.75 1.833 2.333 2.833c.25.5.584 1.417-.916 1.417h-5.583m-4.25-3.833h-.917c.584.333 1 1.333 1 1.916v3.667c0 1 .75 4.583 4 4.583h9.416v6c0 1-.333 1.583-.583 1.833l-1.417 1.333h.667l2.583-2.333c.5-.584 1.083-1.167 1.083-3v-3.833l1.084-1.083 1.833-1.75c0 1.5.75 2.166 1.416 2.166a1.667 1.667 0 0 0 1-.416l1.667-1.584c.75-.75 1.166-3.083-.667-3.083-1.166 0-2.5 1.667-2.583 1.833-.417-.25-.75-.833-.75-.833v1.417c-.167.25-.916.833-1.5.833h-1.5V25.5c0-.666.25-1.416.584-1.75l1.416-1.333h-.666L35.998 25c-.5.584-.833 1.667-.833 1.917H24.5c-1.333 0-2.166-1.333-2.166-2.417v-2.75c0-2.25-.584-2.5-.667-2.5m21.582 8c-.25 0-.5-.083-.833-.333-.334-.25-.917-1.083-.917-1.083.167-.167.667-.334 1.083-.334.334 0 .667.084.75.25.584.75.5 1.5-.083 1.5M38.832 9.918l-2.834 2.583c-.166.167-.833 1.167-.833 2.333v7.417c0 .5-.333 1.25-.583 1.5l-1.417 1.333h.667l2.666-2.417c.334-.333 1-1.166 1-2.583v-7.083c0-1.083.5-1.666.75-1.916l1.25-1.167h-.666m.416 18.999v2.916l1 1.084c.833.833.75 2.416-1.75 4.833a5 5 0 0 1-3.416 1.583h-4.5l2.667 2.333h1.833c1.833 0 3.5-.75 4.583-1.916 1-1.084 1.583-2.5 1.5-4v-3.833c0-1.334-.834-2.084-1-2.25-.167 0-.917-.75-.917-.75" fill="#D71921"/></svg>