<svg role="img" viewBox="0 0 64 64" xmlns="http://www.w3.org/2000/svg"><title>Eurowings</title><path d="M57.46 24.991a2.388 2.388 0 0 0-1.45.48s-.655.49-1.14.868l-1.078.854-2.491 1.978-.02.016.751.4c.715.352 1.706.235 2.384-.267l2.23-1.764 2.848-2.24v-.006l-1.526-.272s-.204-.05-.509-.047zm3.233 1.26c-.673 0-1.129.325-1.909.936l-2.459 1.984-2.667 2.156.747.4c.715.352 1.776.255 2.453-.246l2.363-1.877 3.632-3.003-1.653-.298a2.715 2.715 0 0 0-.507-.052zm-29.744 3.678c-.293 0-.522.063-.655.191-.134.118-.198.31-.198.534 0 .224.064.41.198.533.133.128.362.182.655.182.293 0 .518-.06.651-.182.133-.123.197-.31.197-.539 0-.218-.064-.41-.197-.533-.133-.123-.358-.186-.651-.186zM0 30.105v7.488h4.688l.256-1.249h-3.45v-1.898h2.858l.256-1.35H1.494v-1.749h3.173l.277-1.242zm35.739 1.904a2.33 2.33 0 0 0-.95.181 1.67 1.67 0 0 0-.677.528l-.085-.586h-1.333v5.461h1.503v-2.822c0-.474.027-1.002.213-1.268.187-.251.497-.465.908-.465.384 0 .623.09.783.277.16.187.24.502.24.945v3.333h1.45v-3.68c0-.325-.042-.603-.148-.843a1.61 1.61 0 0 0-1.035-.95 3.181 3.181 0 0 0-.87-.111zm5.829 0c-.432 0-.95.053-1.29.154a2.048 2.048 0 0 0-1.408 1.28 3.259 3.259 0 0 0-.193 1.174v.373c0 .885.181 1.541.544 1.957a2.347 2.347 0 0 0 1.74.689c.746 0 1.21-.208 1.588-.57v.239c0 .581-.1.928-.34 1.227-.246.288-.678.421-1.238.395a6.97 6.97 0 0 1-1.75-.284l-.245 1.12a5.86 5.86 0 0 0 1.056.251c.358.053.758.07 1.195.08.907.022 1.589-.246 2.069-.736s.688-1.184.688-2.08v-4.704a5.462 5.462 0 0 0-1.174-.437 4.907 4.907 0 0 0-1.242-.128zm-22.917.005c-.48 0-1.025.08-1.345.214a1.952 1.952 0 0 0-1.188 1.38c-.086.32-.155.646-.155 1.025v.443c0 .378.063.724.143 1.044a1.92 1.92 0 0 0 1.185 1.388c.32.133.875.212 1.365.212s1.024-.068 1.35-.212a1.941 1.941 0 0 0 1.173-1.403c.08-.32.144-.656.144-1.024v-.438a4.32 4.32 0 0 0-.16-1.056h.005a2.098 2.098 0 0 0-.41-.831 1.957 1.957 0 0 0-.774-.545 3.877 3.877 0 0 0-1.333-.197Zm28.746.022a3.744 3.744 0 0 0-1.92.453c-.41.277-.619.693-.619 1.243v.106a1.392 1.392 0 0 0 .39 1.03c.261.266.821.41 1.37.48l.779.106c.261.037.427.101.507.208.085.107.128.22.128.38 0 .106-.005.148-.027.223a.455.455 0 0 1-.186.23.828.828 0 0 1-.352.116c-.166.016-.331.017-.576.017a7.125 7.125 0 0 1-1.696-.246l-.235 1.029a7.243 7.243 0 0 0 1.958.294c.352 0 .671-.032.96-.096.292-.064.687-.17.89-.31a1.387 1.387 0 0 0 .48-.533c.117-.224.17-.485.17-.795v-.106c0-.176-.02-.352-.074-.523a1.3 1.3 0 0 0-.24-.458 1.466 1.466 0 0 0-.458-.374c-.192-.096-.572-.15-.854-.187v.006l-.874-.107c-.267-.037-.432-.1-.539-.18-.101-.08-.165-.188-.165-.375 0-.224.074-.32.244-.426.171-.096.486-.128.971-.128a6.027 6.027 0 0 1 1.477.192l.251-.997a5.707 5.707 0 0 0-1.76-.272zm-32.437.02a2.176 2.176 0 0 0-.94.187 1.72 1.72 0 0 0-.65.544l-.085-.655h-1.403v5.461h1.574v-2.965c0-.502.048-.764.262-1.004.202-.245.538-.362 1.002-.362a2.133 2.133 0 0 1 .367.032 5.093 5.093 0 0 1 .305.059l.283-1.179a2.39 2.39 0 0 0-.715-.117zm-9.146.076v3.679a2.197 2.197 0 0 0 .149.843 1.616 1.616 0 0 0 1.034.95 3.093 3.093 0 0 0 .87.111c.357 0 .671-.058.949-.181.277-.123.507-.299.683-.528l.08.587h1.333v-5.461H9.409v2.82c0 .47-.021 1.004-.213 1.27-.187.251-.497.464-.908.464-.378 0-.623-.09-.783-.277-.16-.187-.24-.501-.24-.939v-3.338zm15.786 0 1.653 5.461h1.381l.939-3.307.95 3.307h1.333l1.605-5.461H28l-.8 3.354h-.005l-.89-3.12h-1.452l-.896 3.157-.81-3.391zm8.624 0v5.461h1.477v-5.461zm-11.557.874c.448 0 .757.117.933.352.176.234.267.635.267 1.195v.608h-.006c0 .57-.085.97-.266 1.205-.176.235-.491.352-.928.352a1.9 1.9 0 0 1-.56-.075.817.817 0 0 1-.384-.25c-.107-.117-.176-.277-.219-.48a3.43 3.43 0 0 1-.07-.747v-.613c0-.56.092-.96.279-1.195.186-.235.5-.352.954-.352zm22.87 0c.186 0 .367.022.548.054.182.037.336.09.464.17v1.883c0 .49-.096.853-.282 1.082-.192.23-.49.347-.907.347a1.387 1.387 0 0 1-.587-.106.8.8 0 0 1-.346-.31 1.333 1.333 0 0 1-.176-.502 4.32 4.32 0 0 1-.048-.682v-.373c0-.565.107-.966.32-1.206.213-.235.555-.357 1.013-.357z" fill="#7C2045"/><path d="M54.63 23.929c-1.19-.16-1.793.501-2.625 1.11l-2.848 2.24.544.287h.006c.714.352 1.706.235 2.378-.267l1.206-.96.458-.362 2.294-1.824z" fill="#7CC5D3"/><path d="m49.157 27.273.544.293h.006c.714.352 1.706.235 2.378-.267l1.664-1.322z" fill="#2090B6"/><path d="M54.87 26.34a85.94 85.94 0 0 1 1.14-.87c.171-.128.342-.224.518-.293l-2.773.8-.464.368-1.2.954a2.41 2.41 0 0 1-2.384.267c.608.368 1.552.448 2.976.027l.97-.288.144-.112zm3.914.853a5.973 5.973 0 0 1 1.152-.779l-3.11.997-.18.144-2.23 1.76a2.41 2.41 0 0 1-2.384.272c1.099.603 2.79.16 4.208-.346l.085-.07 2.459-1.984m3.653 2c-1.242-.362-1.621-.133-3.088.31l-.122.106-2.374 1.878a2.523 2.523 0 0 1-2.442.245c.88.459 1.792.347 3.349-.139l6.24-1.92z" fill="#C1BEB9"/><path d="m53.653 27.305 5.28-1.552-2.106 1.658-5.547 1.776zm2.587 1.936 5.744-1.92-2.635 2.176-5.696 1.83 2.587-2.08" fill="#A22455"/></svg>