<svg role="img" viewBox="0 0 64 64" xmlns="http://www.w3.org/2000/svg"><title>Firefly</title><path d="M8.646 17.848c-.593-.026-1.24.097-1.945.392a.136.136 0 0 0-.03.014.3.3 0 0 0-.03.012c-9.062 3.68 8.607 20.779 8.607 20.779l.016-.008s.386-20.89-6.618-21.19zm-.35 1.129c5.67-.191 5.808 17.287 5.808 17.287l-.012.006S.242 22.156 7.04 19.28a.152.152 0 0 0 .023-.01l.024-.008c.429-.18.831-.273 1.209-.285zm.01 1.093a2.126 2.126 0 0 0-.837.19l.002.004-.018.007a.14.14 0 0 1-.016.006c-4.467 1.949 5.334 12.95 5.479 13.102l.012-.006s-.654-13.318-4.621-13.303zm17.66 7.565a1.172 1.172 0 0 0-.868.365 1.252 1.252 0 0 0 0 1.748 1.17 1.17 0 0 0 .869.363 1.107 1.107 0 0 0 .44-.095 1.449 1.449 0 0 0 .405-.276 1.346 1.346 0 0 0 .288-.396 1.067 1.067 0 0 0 .107-.469 1.246 1.246 0 0 0-1.238-1.24h-.002zm-2.298.394a5.561 5.561 0 0 0-3.932 1.305 4.593 4.593 0 0 0-1.365 3.508v8.306h2.12v-6.173h3.402v-.842H20.49v-1.858a3.589 3.589 0 0 1 .285-1.511 2.8 2.8 0 0 1 .737-.99 2.51 2.51 0 0 1 1.02-.524 4.58 4.58 0 0 1 1.136-.148h.209v-1.073h-.209zm25.217 0a5.566 5.566 0 0 0-3.932 1.305 4.588 4.588 0 0 0-1.363 3.508v8.306h2.115v-6.173h3.406v-.842h-3.406l-.002-1.858a3.562 3.562 0 0 1 .287-1.511 2.773 2.773 0 0 1 .737-.99 2.538 2.538 0 0 1 1.021-.524 4.59 4.59 0 0 1 1.135-.148h.213v-1.073h-.211zm1.191.028v8.185a4.662 4.662 0 0 0 1.319 3.492 5.23 5.23 0 0 0 3.687 1.34V40a3.687 3.687 0 0 1-1.01-.188 2.505 2.505 0 0 1-.931-.54 2.84 2.84 0 0 1-.682-.973 3.61 3.61 0 0 1-.266-1.48v-8.762h-2.117zm-25.115 3.798v9.295h2.115v-9.295h-2.115zm8.459 0a4.504 4.504 0 0 0-2.99 1.307 4.594 4.594 0 0 0-1.39 3.535v4.455h2.116V35.96a3.67 3.67 0 0 1 .285-1.537 2.692 2.692 0 0 1 .745-.98 2.867 2.867 0 0 1 1.029-.522 1.851 1.851 0 0 1 .777-.143l-.017-.91a4.504 4.504 0 0 0-.555-.012zm21.43 0v4.436a5.757 5.757 0 0 0 .761 3.092 4.218 4.218 0 0 0 3.639 1.773c1.904 0 2.62-.816 2.629-.816v1.556a3.557 3.557 0 0 1-.29 1.516 2.786 2.786 0 0 1-.732.986 2.537 2.537 0 0 1-1.021.524 4.504 4.504 0 0 1-1.137.15h-.207v1.074h.207a5.59 5.59 0 0 0 3.932-1.302 4.586 4.586 0 0 0 1.363-3.51v-5.41h-.012v-4.069h-2.117v5.473a2.528 2.528 0 0 1-2.422 2.707c-.376.013-2.476-.064-2.476-3.178v-5.002H54.85zm-16.86.159a4.377 4.377 0 0 0-1.812.408 4.569 4.569 0 0 0-1.416.992 4.415 4.415 0 0 0-.938 1.436 4.473 4.473 0 0 0-.334 1.742 5.06 5.06 0 0 0 .399 1.832 4.511 4.511 0 0 0 .974 1.437 4.41 4.41 0 0 0 1.436.938 4.798 4.798 0 0 0 1.808.334 5.035 5.035 0 0 0 3.645-1.576l.004-.649a5.064 5.064 0 0 1-3.242 1.262 2.916 2.916 0 0 1-1.391-.295 2.727 2.727 0 0 1-.894-.74 2.957 2.957 0 0 1-.502-.98 5.85 5.85 0 0 1-.213-1.044h6.888c0-.072.001-.167.008-.283a4.9 4.9 0 0 0 .01-.267 4.397 4.397 0 0 0-.277-1.737 4.323 4.323 0 0 0-.91-1.447 4.289 4.289 0 0 0-1.424-.98 4.377 4.377 0 0 0-1.819-.383zm-34.953.894c-1.17-.006-2.141.517-2.736 1.838-.005.008-.004.016-.008.024a.218.218 0 0 1-.01.023c-2.713 6.568 14.98 6.309 14.98 6.309l.005-.012s-7.643-8.16-12.23-8.182zm34.846.158h.039a2.17 2.17 0 0 1 1.662.69 3.688 3.688 0 0 1 .795 2.223l-4.85-.002a4.974 4.974 0 0 1 .225-1.086 3.436 3.436 0 0 1 .451-.924 2.395 2.395 0 0 1 .707-.65 1.81 1.81 0 0 1 .97-.25zm-34.815.914c3.444.045 9.76 6.096 9.76 6.096l-.004.012s-13.587-.512-11.582-5c0-.006.004-.009.006-.016a.041.041 0 0 1 .008-.015c.376-.778 1.018-1.087 1.812-1.077zm.198 1.012c-.417.016-.737.177-.91.535a.025.025 0 0 0-.002.01l-.004.008c-1.394 2.67 8.226 3.502 8.226 3.502v-.006s-5.062-4.135-7.31-4.049z"/></svg>