<svg role="img" viewBox="0 0 64 64" xmlns="http://www.w3.org/2000/svg"><title>flynas</title><path d="M6.04 18.197c-3.62 0-5.843 2.251-6.028 6.054a1.476 1.476 0 0 0-.012.186v8.68a1.373 1.373 0 0 0 1.374 1.375 1.373 1.373 0 0 0 1.373-1.374v-8.345c0-3.431 1.88-3.83 3.294-3.83.152 0 .311.01.481.02.142.009.28.017.421.021a1.372 1.372 0 0 0 1.414-1.331 1.373 1.373 0 0 0-1.33-1.414h-.003c-.11-.003-.224-.01-.335-.017-.193-.011-.413-.025-.648-.025zm5.043.076a1.374 1.374 0 0 0-1.373 1.374v13.469a1.373 1.373 0 0 0 1.373 1.373 1.373 1.373 0 0 0 1.373-1.373v-13.47a1.374 1.374 0 0 0-1.373-1.373zm4.083 3.348a1.374 1.374 0 0 0-.41.128 1.373 1.373 0 0 0-.623 1.84l4.533 9.162-1.924 3.9a1.374 1.374 0 0 0 .624 1.839 1.373 1.373 0 0 0 .605.142 1.373 1.373 0 0 0 1.232-.767l7.047-14.278a1.373 1.373 0 0 0-.624-1.839 1.374 1.374 0 0 0-1.839.624l-3.59 7.277-3.6-7.279a1.374 1.374 0 0 0-1.43-.75zm43.696.033c-2.636 0-4.476 1.581-4.476 3.847v.037c0 2.614 1.84 3.29 4.246 3.905 2.069.53 2.636.892 2.636 1.685v.037c0 .792-.713 1.264-1.909 1.264a5.487 5.487 0 0 1-3.33-1.171 1.313 1.313 0 0 0-.784-.25 1.259 1.259 0 0 0-1.283 1.265 1.276 1.276 0 0 0 .515 1.033 8.341 8.341 0 0 0 4.827 1.54C62.2 34.847 64 33.33 64 30.888V30.851c0-2.3-1.623-3.194-4.06-3.83-2.22-.568-2.821-.849-2.821-1.742v-.036c0-.712.669-1.173 1.705-1.173a5.434 5.434 0 0 1 2.737.874 1.306 1.306 0 0 0 .696.197 1.26 1.26 0 0 0 1.282-1.265 1.258 1.258 0 0 0-.605-1.086 7.475 7.475 0 0 0-4.072-1.136zm-26.221.03c-3.441.014-6.036 2.854-6.036 6.604v5.153a1.374 1.374 0 0 0 1.375 1.373 1.374 1.374 0 0 0 1.373-1.373v-5.153c0-2.263 1.358-3.848 3.29-3.856 1.942.008 3.299 1.593 3.299 3.856v5.153a1.374 1.374 0 0 0 1.373 1.373 1.374 1.374 0 0 0 1.374-1.373v-5.153c0-3.75-2.595-6.59-6.046-6.603h-.002zm13.697.002c-3.576.012-6.283 2.784-6.346 6.469v.19c.064 3.697 2.772 6.47 6.351 6.47a7.682 7.682 0 0 0 1.265-.09 1.377 1.377 0 0 0 1.097-1.609 1.37 1.37 0 0 0-1.604-1.091 5.823 5.823 0 0 1-.758.043c-2.111 0-3.589-1.568-3.605-3.818.016-2.241 1.495-3.81 3.6-3.817 2.126.008 3.611 1.593 3.611 3.855v5.154a1.373 1.373 0 0 0 1.373 1.373 1.373 1.373 0 0 0 1.373-1.373v-5.154c0-3.751-2.729-6.59-6.357-6.602zM4.955 24.454a1.37 1.37 0 0 0-1.372 1.37 1.37 1.37 0 0 0 1.372 1.372 1.371 1.371 0 0 0 1.372-1.371 1.371 1.371 0 0 0-1.372-1.371Zm37.577 13.551a.442.442 0 0 0-.308.13.44.44 0 0 0-.128.308.44.44 0 0 0 .13.31.438.438 0 0 0 .307.126v-.002a.443.443 0 0 0 .31-.127.442.442 0 0 0 .127-.307.441.441 0 0 0-.13-.31.448.448 0 0 0-.308-.128zm5.13.001a.439.439 0 0 0-.308.127.445.445 0 0 0-.128.31.44.44 0 0 0 .128.308.44.44 0 0 0 .308.125.446.446 0 0 0 .31-.126.441.441 0 0 0 .125-.307.445.445 0 0 0-.127-.31.442.442 0 0 0-.308-.127zm-9.197.033a.437.437 0 0 0-.437.437v2.628c0 1.763.922 2.774 2.532 2.774h1.893a.33.33 0 0 0 .043-.003h.024a.292.292 0 0 0 .043.003.432.432 0 0 0 .432-.435V40.5a.432.432 0 0 0-.432-.434l-.002.002a.438.438 0 0 0-.438.435v2.506H40.56c-.41 0-1.662 0-1.662-1.901v-2.631a.435.435 0 0 0-.432-.437zm12.748.013a.436.436 0 0 0-.437.432v4.969a.438.438 0 0 0 .437.439.437.437 0 0 0 .432-.44v-4.968a.435.435 0 0 0-.432-.432Zm6.7 0a.436.436 0 0 0-.436.432v3.525l.002.025a.137.137 0 0 1-.002.029.446.446 0 0 0 .129.313.439.439 0 0 0 .306.13.454.454 0 0 0 .31-.13.469.469 0 0 0 .105-.184l.028-.093a1.488 1.488 0 0 1 .14-.336 3.424 3.424 0 0 1 .362-.522 3.337 3.337 0 0 1 .398-.385l.034-.031a2.794 2.794 0 0 1 1.957-.624c1.27.047 1.524.562 1.524 1.378v1.44h-7.21l.052-.118a2.376 2.376 0 0 0 .193-.923v-1.494a.435.435 0 0 0-.435-.435.436.436 0 0 0-.436.435v1.492c0 .043-.01 1.042-.786 1.042h-.889v-2.534a.435.435 0 0 0-.435-.435.436.436 0 0 0-.435.435v3.014a1.699 1.699 0 0 1-.985 1.464.438.438 0 0 0-.255.562.444.444 0 0 0 .565.252 2.57 2.57 0 0 0 1.499-1.814l.015-.07h9.991a.438.438 0 0 0 .436-.438v-1.875c0-1.443-.799-2.203-2.377-2.26l.003-.001a3.686 3.686 0 0 0-2.571.841l-.035.03a8.26 8.26 0 0 0-.185.165l-.143.132v-2.002a.435.435 0 0 0-.435-.432zM31.226 40.06a.435.435 0 0 0-.435.432v3.919h-1.64c-.41 0-1.662 0-1.662-1.902v-2.017a.435.435 0 0 0-.435-.432.435.435 0 0 0-.436.432v2.017c0 1.763.924 2.773 2.533 2.773h2.045a.247.247 0 0 1 .027 0h.003a.437.437 0 0 0 .435-.436v-.964h3.87a.424.424 0 0 0 .054-.003c1.13-.077 1.538-1.185 1.538-1.91v-1.472a.436.436 0 0 0-.435-.436h-.001a.435.435 0 0 0-.434.435v1.473c0 .043-.009 1.042-.788 1.042H34.14l.052-.12a2.362 2.362 0 0 0 .193-.922v-1.473a.436.436 0 0 0-.435-.435.436.436 0 0 0-.436.435v1.473c0 .043-.01 1.042-.787 1.042h-1.065v-2.52a.435.435 0 0 0-.435-.432Zm18.386.009a.436.436 0 0 0-.437.435v3.918H47.5c-.41 0-1.661.001-1.661-1.9v-2.016a.436.436 0 0 0-.436-.435.435.435 0 0 0-.435.435v2.016c0 1.763.923 2.773 2.532 2.773h2.12a.432.432 0 0 0 .427-.438v-4.353a.436.436 0 0 0-.434-.435zm4.723 4.552.002.001a.447.447 0 0 0-.31.13.436.436 0 0 0-.13.308.45.45 0 0 0 .13.31.446.446 0 0 0 .308.127.441.441 0 0 0 .309-.13.439.439 0 0 0 .129-.308.436.436 0 0 0-.13-.31.438.438 0 0 0-.308-.128zm1.28 0v.001a.436.436 0 0 0-.307.13.432.432 0 0 0-.13.31.445.445 0 0 0 .13.308.439.439 0 0 0 .307.128.446.446 0 0 0 .308-.13.44.44 0 0 0 .127-.308.436.436 0 0 0-.128-.31.44.44 0 0 0-.307-.128z" fill="#00B7AC"/></svg>