<svg role="img" viewBox="0 0 64 64" xmlns="http://www.w3.org/2000/svg"><title>Iberia</title><path d="M64 24.95c-5.207 0-5.916 1.137-7.717 2.93l-3.728 3.778c3.54-2.543 7.07-4.076 10.588-4.472L64 24.949zM4.629 26.354a35.722 35.722 0 0 0-.172 3.526c0 1.146.053 2.268.172 3.525h4.156c1.471 0 2.377-.17 2.94-.554.433-.298.7-.889.7-1.543 0-.77-.438-1.387-1.21-1.702.513-.288.84-.844.84-1.445 0-.556-.161-.942-.522-1.248-.606-.516-1.717-.559-2.898-.559H4.629zm9.601 0a39.525 39.525 0 0 0-.171 3.53c0 1.141.076 2.395.171 3.521h6.727c-.035-.47-.061-.9-.086-1.406h-4.58a22.664 22.664 0 0 1-.053-1.488h4.225v-1.33h-4.225c0-.387.014-.951.053-1.42h4.574c.023-.495.05-.91.094-1.407H14.23zm8.715 0a35.86 35.86 0 0 0-.17 3.526c0 1.146.058 2.3.172 3.525h2.18a36.166 36.166 0 0 1-.17-2.617h2.193c.16.177.422.512.698.947.32.504.568 1 .843 1.67h2.438c-.32-.61-.667-1.161-1.188-1.896-.298-.42-.58-.76-.837-1.016.914-.321 1.48-1.093 1.48-2.031 0-.537-.193-1.046-.527-1.397-.476-.491-1.214-.71-2.397-.71h-4.715zm16.492 0c-.566.843-1.189 1.896-1.873 3.245-.69 1.357-1.311 2.748-1.697 3.806h2.301c.14-.44.31-.888.492-1.306h3.781c.183.417.344.837.495 1.306h2.3a42.806 42.806 0 0 0-1.691-3.799c-.686-1.35-1.301-2.407-1.879-3.252h-2.228zm-39.265.002A34.16 34.16 0 0 0 0 29.941c.003 1.194.05 2.343.172 3.465H2.05c.126-1.117.166-2.268.17-3.465a36.543 36.543 0 0 0-.17-3.584H.17zm32.555 0a34.16 34.16 0 0 0-.172 3.584c.002 1.194.05 2.343.172 3.465h1.877c.127-1.117.168-2.268.171-3.465a36.557 36.557 0 0 0-.17-3.584h-1.878zm-7.706 1.319h1.918c.707 0 1.05.086 1.27.32.13.131.209.34.209.56 0 .38-.197.718-.541.928h-2.922c.001-.52.023-1.115.066-1.808zm-18.318.013H8.55c.745 0 .993.057 1.207.272.11.11.174.305.174.521a.889.889 0 0 1-.338.725H6.639a24.94 24.94 0 0 1 .064-1.518zm33.846.332c.474.85.9 1.713 1.375 2.774h-2.746c.462-1.04.889-1.902 1.37-2.774zm21.82 1.178c-3.876.112-9.725 2.396-13.814 6.506l-3.315 3.346c11.505 0 14.218-2.703 15.801-6.385l1.328-3.467zM6.637 30.484h2.656c.384 0 .58.051.752.198a.657.657 0 0 1 .234.539c0 .242-.068.432-.213.576-.206.194-.499.277-1.007.277H6.703a20.976 20.976 0 0 1-.066-1.59z"/></svg>