<svg role="img" viewBox="0 0 64 64" xmlns="http://www.w3.org/2000/svg"><title>IndiGo</title><path d="M61.6127 30.005c0 .2939-.2376.532-.5304.532a.5313.5313 0 0 1-.5306-.532c0-.2937.2376-.532.5306-.532.2928 0 .5304.2383.5304.532zm-1.5915-1.596c0 .2937-.2376.532-.5306.532-.293 0-.5304-.2383-.5304-.532s.2374-.532.5304-.532.5306.2383.5306.532zm1.5915 0c0 .2937-.2376.532-.5304.532-.293 0-.5306-.2383-.5306-.532s.2376-.532.5306-.532c.2928 0 .5304.2383.5304.532zm-3.183 0c0 .2937-.2376.532-.5304.532-.293 0-.5306-.2383-.5306-.532s.2376-.532.5306-.532c.2928 0 .5304.2383.5304.532zm4.0886-1.7062a.5332.5332 0 0 1 0 .7525.53.53 0 0 1-.7503 0 .5335.5335 0 0 1 0-.7525.5296.5296 0 0 1 .7503 0zm1.3263-1.064a.5332.5332 0 0 1 0 .7525.53.53 0 0 1-.7504 0 .5335.5335 0 0 1 0-.7525.5296.5296 0 0 1 .7504 0zM56.573 28.409c0 .2938-.2376.5321-.5306.5321-.293 0-.5304-.2383-.5304-.532s.2375-.532.5304-.532c.293 0 .5306.2383.5306.532zm-1.5915 0c0 .2938-.2375.5321-.5304.5321-.293 0-.5306-.2383-.5306-.532s.2376-.532.5306-.532c.293 0 .5304.2383.5304.532zm6.101 2.6601c.2927 0 .5303.2383.5303.532s-.2376.532-.5304.532c-.293 0-.5306-.2383-.5306-.532s.2376-.532.5306-.532zm-5.8357 5.32c0 .2937-.2377.532-.5306.532-.2928 0-.5305-.2383-.5305-.532 0-.2939.2377-.532.5305-.532.293 0 .5306.2381.5306.532zm-1.5916-1.596c0 .2937-.2374.532-.5304.532s-.5306-.2383-.5306-.532.2377-.532.5306-.532c.293 0 .5304.2383.5304.532zm1.5916 0c0 .2937-.2377.532-.5306.532-.2928 0-.5305-.2383-.5305-.532s.2377-.532.5305-.532c.293 0 .5306.2383.5306.532zm-3.183 0c0 .2937-.2377.532-.5307.532-.2928 0-.5304-.2383-.5304-.532s.2376-.532.5304-.532c.293 0 .5306.2383.5306.532zm2.6524 2.66c.293 0 .5306.2383.5306.532s-.2377.532-.5306.532c-.2928 0-.5305-.2383-.5305-.532s.2377-.532.5305-.532zm6.3662-4.788c.2928 0 .5304.2383.5304.532 0 .2939-.2376.532-.5304.532a.5313.5313 0 0 1-.5306-.532c0-.2937.2376-.532.5306-.532zm0 1.862c.2928 0 .5304.2381.5304.532 0 .2937-.2376.532-.5304.532-.293 0-.5306-.2383-.5306-.532 0-.2939.2376-.532.5306-.532zm-3.4484-2.128a.5313.5313 0 0 1-.5306.532c-.293 0-.5304-.2381-.5304-.532 0-.2937.2375-.532.5304-.532.293 0 .5306.2383.5306.532zm.9057-1.7062a.5331.5331 0 0 1 0 .7524.5295.5295 0 0 1-.7503 0 .5331.5331 0 0 1 0-.7524.5295.5295 0 0 1 .7503 0zm1.3262-1.064a.5331.5331 0 0 1 0 .7524.5295.5295 0 0 1-.7502 0 .5331.5331 0 0 1 0-.7524.5295.5295 0 0 1 .7502 0zm-3.4483 3.458a.5332.5332 0 0 1 0 .7525.53.53 0 0 1-.7503 0 .5335.5335 0 0 1 0-.7525.5296.5296 0 0 1 .7503 0zM35.4428 36.943c-1.2329 1.0496-2.6842 1.574-4.3506 1.574-1.7882 0-3.3369-.628-4.6412-1.8815-1.293-1.2665-1.9408-2.8074-1.9408-4.6168 0-1.8096.6474-3.3512 1.9405-4.6176 1.304-1.2774 2.8527-1.9181 4.6412-1.9181 1.0591 0 1.989.1738 2.7902.5255.8008.3385 1.6085.9177 2.4241 1.7325l.0667.0666-1.253 1.3498-.0716-.0598c-.7968-.6649-1.4091-1.1106-1.8408-1.3436-.64-.3367-1.3442-.5058-2.1153-.5055-1.3311-.0003-2.4368.4651-3.3221 1.3957-.8874.9327-1.3306 2.055-1.3309 3.3745.0003 1.3065.443 2.4233 1.3309 3.3556.8853.9312 1.9907 1.3958 3.3218 1.3958 1.2306.0003 2.267-.3556 3.1171-1.0643.8812-.733 1.333-1.6718 1.3569-2.8225h-4.34v-1.7478l6.2882-.0003.0003 1.1504c-.0003 1.9287-.6897 3.4844-2.0716 4.6574zm10.8255.2637c-.8876.8493-1.9544 1.275-3.1944 1.275-1.2276 0-2.2881-.426-3.1758-1.275-.8897-.852-1.3344-1.936-1.3344-3.2452 0-1.2962.4385-2.374 1.3161-3.2257.8877-.8623 1.9544-1.2941 3.1941-1.2941 1.2288 0 2.2888.4315 3.1764 1.2935.9018.8513 1.3521 1.9292 1.3521 3.2266 0 1.3089-.4438 2.3926-1.334 3.2449zm-1.2648-5.2988c-.5037-.526-1.1443-.79-1.9296-.79-.7967 0-1.4433.264-1.947.79-.4916.513-.741 1.1946-.741 2.0539 0 .847.255 1.5283.7587 2.0545.5043.526 1.1447.7897 1.9293.7897.7853 0 1.4256-.2636 1.9296-.7897.504-.5262.759-1.2079.759-2.0545 0-.846-.255-1.528-.759-2.0539zm-21.82-3.371c-.1789.204-.4412.2988-.7688.2985-.3078.0003-.5683-.0993-.7678-.2984-.1836-.2089-.2771-.4608-.2771-.7447 0-.2843.0918-.5291.2768-.7265.1891-.203.4497-.299.7684-.299.3087 0 .5628.1034.7507.3164.1948.1962.2942.434.2942.709 0 .2947-.0909.5453-.2765.7448zm-1.6526 9.7668V29.62h1.7682v8.6838zm-2.452-1.1368c-.818.8773-1.8746 1.3148-3.1618 1.3148-1.3595 0-2.4647-.4673-3.3066-1.4055-.7923-.888-1.1862-2-1.1862-3.3289 0-1.2007.4087-2.2188 1.2252-3.0457.8277-.8387 1.8169-1.26 2.9636-1.26.908 0 1.7287.1998 2.4587.6004l.051.0283v1.8836l-.1534-.1043c-.2898-.1962-.6347-.3659-1.0328-.5067-.3848-.1505-.7371-.225-1.0555-.225-.823 0-1.4743.2595-1.965.772-.4917.5138-.7408 1.1943-.7408 2.0542 0 .8464.2541 1.5345.759 2.0724.5156.5259 1.1736.7895 1.9825.7895.7572 0 1.3795-.2854 1.8732-.8578.5023-.5703.7614-1.4058.7614-2.5214v-7.73h1.7682v8.0152c0 1.4108-.4111 2.5661-1.2406 3.455zM8.606 38.3034v-5.0548c0-.6192-.1954-1.1238-.5811-1.5198-.3736-.4074-.8366-.611-1.3929-.611-.5311 0-.9944.2019-1.3943.6122-.385.3956-.5793.8994-.5793 1.5186v5.0548H2.908v-5.0548c0-1.1156.347-2.033 1.0458-2.7435.6996-.7105 1.595-1.0634 2.6782-1.0634 1.0721 0 1.9671.3535 2.6774 1.0631.7115.71 1.0647 1.628 1.065 2.7438l-.0003 5.0548zm-8.6059 0V25.697h1.8573l.0003 12.6065z"/></svg>