<svg role="img" viewBox="0 0 64 64" xmlns="http://www.w3.org/2000/svg"><title>Japan Airlines</title><path d="M32.303 15.12c-4.088 0-7.71 1.98-9.968 5.03a9.649 9.649 0 0 0 1.396 8.078c.01.015-.01.034-.021.02-1.967-2.173-2.447-4.85-2.147-6.877.002-.015-.012-.02-.019-.006-.544.943-.98 2.01-1.257 3.117.137 2.005 1.02 3.953 2.501 5.534.015.015-.004.036-.02.023-1.687-1.335-2.47-2.97-2.723-4.175-.003-.015-.022-.015-.022 0a12.473 12.473 0 0 0-.062 2.742c.427 1.335 1.336 2.453 2.266 3.26.017.015 0 .036-.017.025-1.041-.646-1.624-1.28-2.018-1.839-.009-.013-.022-.006-.02.006 1.142 5.564 6.132 9.849 12.13 9.849 5.996 0 10.986-4.285 12.13-9.849.004-.012-.01-.019-.017-.006-.397.56-.98 1.193-2.02 1.839-.017.01-.032-.01-.015-.025.932-.807 1.84-1.927 2.267-3.26l-.002-.003c.081-.785.06-1.91-.06-2.741-.002-.015-.019-.015-.02 0-.255 1.207-1.036 2.842-2.725 4.175-.015.013-.032-.008-.02-.023 1.479-1.581 2.362-3.53 2.499-5.535a12.234 12.234 0 0 0-1.257-3.117c-.006-.012-.021-.008-.019.007.3 2.027-.18 4.704-2.146 6.876-.013.015-.034-.002-.024-.02a9.657 9.657 0 0 0 1.398-8.076 12.374 12.374 0 0 0-9.968-5.029Zm.002.305c4.41 0 7.98 3.601 7.98 7.98a7.975 7.975 0 0 1-2.373 5.676l-.004.002c-2.533 2.467-6.322.892-5.936-2.135.297-2.336 3.16-4.66 5.328-5.923.01-.006.01-.019 0-.025a18.742 18.742 0 0 1-1.252-1.34c-1.05-1.265-2.887-1.316-3.984.068l-6.232.58c-.023.003-.025.039 0 .039l6.682.386c1.185.069 1.57 1.142.43 2.008-4.244 3.213-5.002 6.615-4.052 9.312.006.017-.022.032-.032.015a5.46 5.46 0 0 1-.84-1.935 7.97 7.97 0 0 1-3.692-6.729c0-4.378 3.567-7.979 7.977-7.979zM29.333 33.02h1.69l-.905 2.357c-.463 1.205-1.604 1.306-2.415 1.306v.002a5.32 5.32 0 0 1-1.175-.12l.288-.752c.774.09 1.436.023 1.696-.653zm3.992.004h1.51l.34 3.544h-1.688l-.028-.698h-1.525l-.563.698h-1.395l2.83-3.281c.135-.156.336-.263.52-.263zm3.668 0h1.69l-1.076 2.793h2.148l-.288.75h-3.836zm-3.6 1.033-.91 1.133h.953z" fill="#E50012"/><path d="M62.065 45.112c-1.32 0-2.494.363-2.79 1.14-.534 1.384 2.807.793 2.575 1.4-.094.242-.419.405-.916.405-.497 0-.646-.158-.604-.406h-1.687c-.198.926.655 1.214 1.982 1.214s2.558-.286 2.914-1.214h-.002c.531-1.382-2.846-.78-2.607-1.4.085-.226.354-.403.851-.403s.565.175.54.403h1.658c.158-.853-.593-1.139-1.914-1.139zm-23.041.105v.002h-2.627l-1.359 3.54h1.688l.495-1.285h.51l.333 1.284h1.843l-.45-1.414c.748-.175 1.19-.519 1.374-.999.273-.71-.246-1.128-1.807-1.128zm-36.222.002-.82 2.138c-.258.676-.92.742-1.694.653L0 48.76c.325.073.72.12 1.174.12.81 0 1.95-.1 2.413-1.306l.904-2.355zm4.092 0c-.184 0-.384.107-.519.262l-2.829 3.277h1.395l.562-.697h1.523l.028.697H8.74l-.337-3.54zm3.635 0-1.359 3.54h1.688l.493-1.285h.938c1.56 0 2.4-.416 2.674-1.127.273-.71-.248-1.128-1.81-1.128zm6.605 0c-.183 0-.384.107-.518.262l-2.829 3.277h1.395l.563-.697h1.524l.027.697h1.688l-.34-3.54zm3.638 0-1.36 3.54h1.364l.802-2.092 1.146 2.091h1.365l1.36-3.54h-1.366l-.715 1.861-1.01-1.86zm9.255 0c-.184 0-.384.107-.52.262l-2.828 3.277h1.396l.56-.697h1.524l.028.697h1.687l-.339-3.54zm3.633 0-1.359 3.54h1.688l1.359-3.54zm8.446 0-1.359 3.54h3.832l.29-.75h-2.148l1.075-2.79zm4.327 0-1.359 3.54h1.688l1.359-3.54zm2.735 0-1.359 3.54h1.364l.802-2.092 1.145 2.091h1.366l1.361-3.54h-1.366l-.714 1.861-1.011-1.86zm5.727 0-1.358 3.54h4.103l-.002-.003.288-.749h-2.415l.275-.717h2.01l.26-.678h-2.01l.276-.715h2.417l.26-.678zm-42.941.68h.939c.307 0 .478.192.38.448-.098.258-.418.449-.726.449h-.936zm25.87 0h.942c.307 0 .477.192.377.448-.098.258-.418.449-.725.449h-.937zm-30.864.35.042 1.133h-.951Zm10.243 0 .042 1.133h-.951zm12.89 0 .043 1.133h-.952z"/></svg>