<svg role="img" viewBox="0 0 64 64" xmlns="http://www.w3.org/2000/svg"><title>Kenya Airways</title><path d="M6.835 26.002c-1.456.015-2.979.545-4.269 1.598-2.752 2.248-3.388 6.063-1.43 8.486 1.754 2.171 5 2.509 7.633.933 1.982 1.11 3.353.41 3.908-.16.602-.616.604-1.861.604-1.861s-1.273 1.028-2.75.55c1.989-2.276 2.288-5.487.558-7.628-1.04-1.29-2.604-1.935-4.254-1.918zm.974.967c1.261.015 2.396.479 3.141 1.398 1.453 1.793.903 4.708-1.167 6.807-1.202-.83-2.857-2.297-3.492-2.852.107-.045 2.46-.298 3.589-1.862l.016.003c.66-.92.297-3.057-.12-2.41-.364.56-2.18 1.763-3.782 2.74 0 0 .39-1.03.725-1.863.334-.832-1.171-.481-2.043-.034-.083.042-.779.476-.837.75.366-.064.577-.09.535 0-.043.09-.054.13-.086.202-.267.639-.626 1.503-.99 2.362-.837 2.344-.417 3.403-.417 3.403l2.239.093s-.562-.24-.324-1.53c.238-1.29.578-1.458.653-1.487.125.508.875 2.542 2.567 3.836-2.354 1.316-5.019 1.163-6.375-.516-1.583-1.96-.786-5.264 1.784-7.376 1.365-1.122 2.955-1.681 4.384-1.664Zm34.422 2.842-.158.72h1.31l.153-.72zm-26.828.021-.974 4.889h1.308l.452-2.32h.013l1.241 2.32h1.487l-1.54-2.72 1.682-2.169h-1.027l-1.803 2.322h-.015l.483-2.322zm23.287 0-2.631 4.889h.928l.653-1.223h1.807l.236 1.223h1.249l-.945-4.878zm-17.222 1.13c-1.69 0-2.613 1.546-2.613 2.608 0 .85.802 1.223 1.543 1.223a5.57 5.57 0 0 0 1.917-.407l.19-.896a4.33 4.33 0 0 1-1.676.532c-.364 0-.661-.165-.666-.554.925.027 2.3-.622 2.3-1.684 0-.569-.535-.821-.995-.821zm41.507.006c-1.39 0-1.69.702-1.69 1.136 0 .798 1.049 1.111 1.049 1.612a.37.37 0 0 1-.129.259.378.378 0 0 1-.275.092 3.475 3.475 0 0 1-1.171-.33l-.166.856c.435.125.884.194 1.337.205 1.39 0 1.714-.73 1.714-1.218 0-.798-1.128-1.11-1.128-1.543 0-.266.296-.337.513-.337l-.003.005c.28.01.557.068.819.17l.155-.798a8.729 8.729 0 0 0-1.025-.109zm-36.811.01c-.751 0-1.441 1.009-1.711 1.628h-.083l.385-1.548h-1.29l-.732 3.663h1.316l.227-1.14c.131-.267.928-1.45 1.16-1.45.065 0 .078.069.078.109a1.01 1.01 0 0 1-.035.183l-.454 2.298h1.3l.495-2.455c.045-.174.072-.352.08-.532l-.006.005a.704.704 0 0 0-.39-.687.713.713 0 0 0-.267-.074zm20.46.006c-.75 0-1.44 1.01-1.714 1.63v-.01h-.08l.386-1.546h-1.292l-.733 3.663h1.307l.23-1.14c.268-.429.824-1.485 1.482-1.485.1.008.198.038.286.088l.46-1.126a.747.747 0 0 0-.331-.074zm-13.461.01c-1.282 0-2.445 1.658-2.445 2.842 0 .489.31.968.837.968.755 0 1.44-1.011 1.715-1.631h.08l-.383 1.548h1.297l.722-3.663h-1.222a5.769 5.769 0 0 0-.61-.06zm21.61.003c-1.275 0-2.439 1.657-2.439 2.841 0 .49.31.968.837.968.752 0 1.442-1.01 1.712-1.63h.083l-.388 1.548h1.297l.73-3.666h-1.22a5.816 5.816 0 0 0-.612-.06zm-15.807.024.318 1.705h-1.225zm-11.716.035.698 3.665-1.249 1.306h1.353l3.38-4.971h-.994l-1.45 2.146-.41-2.146zm14.719 0-.736 3.665h1.308l.733-3.665zm5.274 0 .142 3.665h1.246l1.088-2.21h.016l.091 2.21h1.246l1.832-3.665h-.911l-1.162 2.332h-.01l-.099-2.332h-1.094l-1.147 2.327h-.016l-.078-2.327zm9.806 0 .7 3.665-1.243 1.306h1.35l3.379-4.971h-.988l-1.454 2.146-.407-2.146zm-2.321.67a.917.917 0 0 1 .42.122l-.075.373c-.29.417-.926 1.487-1.287 1.487-.115 0-.147-.117-.147-.21 0-.346.303-1.772 1.089-1.772zm-21.621.01c.147.006.29.048.417.123l-.073.362c-.288.433-.927 1.498-1.286 1.498-.117 0-.15-.118-.15-.211 0-.346.306-1.771 1.092-1.771zm-12.091.038.003.01a.268.268 0 0 1 .267.266c0 .482-.42.703-1.035.684.056-.351.34-.96.765-.96z" fill="#ED1C24"/></svg>