<svg role="img" viewBox="0 0 64 64" xmlns="http://www.w3.org/2000/svg"><title>KLM</title><path d="M7.0059 27.2598v.4511h-.4532v.4532h.4532v.453h.453v-.453h.4474v-.4532H7.459v-.4511h-.4531zM4.5195 28.502a.7908.7908 0 0 0-.791.7949.7908.7908 0 0 0 .791.7949.7908.7908 0 0 0 .789-.795c0-.4387-.3545-.7948-.789-.7948zm1.8067 0a.7908.7908 0 0 0-.791.7949.7908.7908 0 0 0 .791.7949c.4342 0 .789-.3557.789-.795 0-.4387-.3545-.7948-.789-.7948zm1.8066 0c-.4343 0-.791.3559-.791.7949 0 .439.3565.7949.791.7949.4343 0 .789-.3557.789-.795a.7908.7908 0 0 0-.789-.7948zm1.8067 0a.7908.7908 0 0 0-.791.7949.7908.7908 0 0 0 .791.7949c.4342 0 .791-.3557.791-.795a.7908.7908 0 0 0-.791-.7948zm-5.42 1.8164v.9101h5.42v-.9101h-5.42zm45.9746 1.6074a.3745.3745 0 0 0-.3242.1855.3793.3793 0 0 0-.0508.1895.3745.3745 0 0 0 .1856.3222.376.376 0 0 0 .1894.0508.376.376 0 0 0 .1895-.0508.3659.3659 0 0 0 .1328-.1328.361.361 0 0 0 .0508-.1894.3736.3736 0 0 0-.373-.375zm4.4727.0097a.3734.3734 0 0 0-.375.375.3715.3715 0 0 0 .375.373.3556.3556 0 0 0 .1895-.0507.3793.3793 0 0 0 .1328-.1328.3638.3638 0 0 0 .0507-.1895.3758.3758 0 0 0-.0507-.1894.3745.3745 0 0 0-.3223-.1856zm-42.7676.1993v.0039l-.6797 2.0468-.6797-2.0468H8.5801v3.6328h1.3554v-2.7266l.9004 2.7266h1.3575l.9023-2.7266v2.7266h1.3535v-3.6367h-2.25zM0 32.1387v3.6328h1.3535v-1.3633l1.3594 1.3633h1.8066l-2.0332-2.0469 1.5801-1.586H2.713L1.3535 33.502v-1.3633H0zm4.5234 0v3.6328h3.6133v-.916H5.877v-2.7168H4.5234zm13.5352.0175v3.6153h.666v-1.4297h.5684c.134 0 .2398.0197.3183.0566a.4148.4148 0 0 1 .1895.166 1.612 1.612 0 0 1 .1308.3184l.2676.8887h.6797l-.2969-.9903c-.0417-.1479-.0866-.2727-.1328-.3652-.0462-.097-.0974-.1702-.162-.2305a.536.536 0 0 0-.2227-.125v-.0097c.1384-.0415.2585-.1012.3554-.1797a.7917.7917 0 0 0 .2266-.295 1.0193 1.0193 0 0 0 .08-.4023c0-.2079-.0423-.3847-.1347-.537-.0925-.1525-.221-.2723-.3965-.3556-.1754-.0831-.3899-.125-.6348-.125h-1.502zm11.2441 0v3.6094h.6328v-3.6093h-.6328zm2.3692 0v3.6094h1.1836c.379 0 .7065-.0747.9746-.2226a1.4579 1.4579 0 0 0 .6113-.627c.1384-.2726.207-.5928.207-.9531 0-.365-.0684-.6825-.207-.955a1.4816 1.4816 0 0 0-.6113-.629c-.2681-.1477-.591-.2227-.9746-.2227h-1.1836zm10.9062 0v3.6153h.6328v-1.586c0-.1339.0274-.2498.0782-.3515.051-.1065.1254-.1842.2226-.2442.0925-.0602.2085-.0878.338-.0878.1753 0 .3092.055.4062.166.097.111.1425.2679.1425.4668v1.6367h.6328v-1.711c0-.2403-.0404-.443-.119-.6093-.0786-.1664-.19-.286-.338-.3692-.1479-.083-.319-.125-.5176-.125-.1894 0-.3548.0368-.498.1153-.1434.074-.2547.185-.3379.328h-.0098v-1.244h-.6328zm5.1895 0-1.2852 3.6094h.707l.2813-.8418h1.4102l.2812.8418h.707l-1.2851-3.6093h-.8164zm5.6601.0098v3.6094h.6328V32.166h-.6328zm-15.1972.1563v.6933h-.4453v.5176h.4453v1.4648c0 .1615.0213.3059.0722.4258.0508.1202.1396.2118.2598.2813.1247.0692.2868.1015.4902.1015.1247 0 .2534-.0224.3828-.0546v-.4942a1.2564 1.2564 0 0 1-.2167.0176c-.1202 0-.2133-.0272-.2735-.0781-.06-.0508-.0879-.1288-.0879-.2305v-1.4336h.588v-.5176h-.588v-.6933h-.627zm-19.5098.3808h.7305a.8534.8534 0 0 1 .3222.0586.4812.4812 0 0 1 .213.1817c.0507.0784.078.1786.078.2988 0 .1247-.0273.2276-.078.3105-.0508.0835-.1205.1421-.213.1836-.0924.0417-.1975.0606-.3222.0606h-.7305V32.703zm13.5996 0h.5254c.2358 0 .4403.0508.6113.1524a.9838.9838 0 0 1 .3926.4375c.0877.1896.1328.4171.1328.6758 0 .2586-.045.4802-.1328.6699-.088.1894-.2178.3377-.3887.4394-.171.1015-.3737.1522-.6093.1524v.0039h-.5313V32.703zm15.8399.0684h.0136a7.3485 7.3485 0 0 0 .1348.4433l.4004 1.2012h-1.08l.3964-1.2012a7.3485 7.3485 0 0 0 .1348-.4433zm-25.7852.1797c-.2679 0-.5035.0615-.707.1816a1.2208 1.2208 0 0 0-.4746.502c-.1157.2171-.172.4731-.172.7597 0 .2864.0563.5346.172.752a1.1947 1.1947 0 0 0 .4746.5039c.2034.1157.4358.1758.6992.1758.2588 0 .4933-.0595.7012-.1797.2033-.1155.3608-.2829.4765-.5.1155-.2126.17-.4656.17-.752 0-.291-.0551-.5463-.166-.7636a1.209 1.209 0 0 0-.4708-.504c-.1986-.1154-.435-.1757-.7031-.1757zm18.6816 0c-.2633 0-.4989.0603-.707.1758a1.2943 1.2943 0 0 0-.4922.5039c-.1202.2173-.1816.4725-.1816.7636 0 .2864.0614.5388.1816.7559.12.2171.2798.3843.4922.5.2126.1154.4534.1758.7168.1758a1.4223 1.4223 0 0 0 .5176-.0938 1.1615 1.1615 0 0 0 .3887-.2617c.1062-.111.1906-.2324.246-.371l-.4726-.2774c-.0462.0924-.1015.1766-.166.246a.6244.6244 0 0 1-.2168.1622c-.083.037-.1718.0547-.2735.0547a.7586.7586 0 0 1-.4062-.1114.7586.7586 0 0 1-.2734-.3144c-.0648-.134-.0957-.2906-.0957-.4707 0-.1802.0309-.3367.0957-.4707a.7586.7586 0 0 1 .2734-.3145c.1155-.074.2498-.1113.4023-.1113a.6163.6163 0 0 1 .2774.0605.7586.7586 0 0 1 .2168.166c.0645.0695.1159.1568.162.254l.4766-.2774a1.2564 1.2564 0 0 0-.2636-.3887c-.111-.1154-.246-.1972-.3985-.2617a1.3531 1.3531 0 0 0-.5-.0937zm21.8848.0097c-.2081 0-.3928.0324-.5547.1016-.1616.0695-.285.1674-.373.2969-.0877.1294-.1348.2777-.1348.4531 0 .1572.028.2814.0879.3828.0602.102.1518.1847.2812.254.1293.0695.3055.129.5274.1796.1524.0417.2683.0752.3516.1074.0787.0278.1394.0696.1718.1114.0323.0462.0489.1007.0489.1699 0 .0972-.036.171-.1192.2265-.0832.0555-.1933.082-.3457.082a.6874.6874 0 0 1-.3789-.1093c-.1157-.074-.2187-.185-.3066-.3281l-.4239.3379a1.0904 1.0904 0 0 0 .4473.4511c.194.1062.417.1582.6758.1582.2356 0 .4345-.0382.6055-.1074.1664-.074.2898-.1744.373-.3086.0832-.134.125-.2911.125-.4668 0-.1616-.0318-.2948-.0918-.3965-.0602-.1019-.163-.1913-.2969-.2558-.1339-.0695-.3182-.1281-.5586-.1836l-.0507-.0137c-.1195-.0308-.2166-.0555-.2813-.084-.0787-.0322-.1299-.0657-.1621-.1074-.0325-.0415-.0469-.0915-.0469-.1562 0-.06.0197-.1108.0567-.1524.037-.0415.0877-.0744.1523-.0976.0647-.023.142-.0371.2344-.0371.1202 0 .2317.034.3379.1035a.7751.7751 0 0 1 .2597.2851l.4239-.3281a.889.889 0 0 0-.2305-.3047c-.097-.0832-.2176-.1471-.3516-.1934a1.4223 1.4223 0 0 0-.453-.0703zm-35.2617.004c-.171 0-.3312.0234-.4746.0742a1.1141 1.1141 0 0 0-.3848.209c-.1107.0877-.1975.1986-.2715.328l.4239.3419c.06-.0877.12-.1627.1894-.2227a.7642.7642 0 0 1 .2324-.1484c.0877-.037.1796-.0547.2813-.0547.1062 0 .2025.0177.2812.0547.0785.037.144.0887.1856.1582a.4304.4304 0 0 1 .0644.2304v.1446l-.6191.0547c-.2586.0277-.4667.074-.6328.1386-.162.0645-.286.157-.3692.2774-.083.1153-.125.2632-.125.4433 0 .1757.0374.3226.1114.4473a.7192.7192 0 0 0 .3086.2773c.1294.06.2813.0938.457.0938.2079 0 .3886-.0421.541-.1113.148-.0877.2548-.1942.3242-.3282h.0098v.4063h.6094v-1.834c0-.1896-.0463-.3596-.1387-.5078-.0925-.1477-.2275-.2642-.3984-.3477-.1712-.083-.3744-.125-.6055-.125zm29.6758 0c-.1895 0-.3549.0373-.498.1113a.8534.8534 0 0 0-.338.3144h-.0097v-.3691h-.6328v2.7597h.6328v-1.5859c0-.134.0274-.2499.078-.3516a.569.569 0 0 1 .2227-.244c.0925-.0603.2066-.088.336-.088.1756 0 .3112.055.4082.166.097.111.1426.268.1426.4668v1.6348h.6328v-1.709c0-.2404-.0407-.443-.1192-.6094-.0787-.1664-.1902-.2879-.3379-.371-.1479-.083-.3186-.125-.5175-.125zm2.7949.0019c-.2681 0-.4986.0556-.6973.1758a1.1995 1.1995 0 0 0-.4531.502c-.1062.217-.1563.4725-.1563.7636 0 .2911.0495.5446.1602.7617a1.1852 1.1852 0 0 0 .4727.4942c.2031.1152.4433.1718.7207.1718a2.1334 2.1334 0 0 0 .4941-.0605c.148-.0462.2777-.1065.3887-.1895a.9719.9719 0 0 0 .2734-.291l-.3847-.3515a1.043 1.043 0 0 1-.1856.1894.6637.6637 0 0 1-.2305.125c-.088.0323-.1887.0469-.2949.0469-.1524 0-.2816-.0227-.3926-.0781a.6567.6567 0 0 1-.2695-.2461c-.0695-.1062-.1096-.2405-.1328-.4024h1.918a6.907 6.907 0 0 1 .0136-.1386c.0047-.0415.004-.0783.004-.1153 0-.268-.0515-.5075-.1485-.711-.1017-.2033-.2448-.3655-.4297-.4765-.1894-.1154-.4113-.1699-.67-.1699zm-7.3418.0312c-.185 0-.3413.0412-.4707.129-.1342.0879-.2358.217-.3145.3789h-.0058v-.4942h-.6328v2.7578h.6328v-1.3808c0-.162.033-.3059.0976-.4258a.6543.6543 0 0 1 .2774-.2813c.12-.0647.2588-.0976.416-.0976a.4996.4996 0 0 1 .082.0058.3319.3319 0 0 1 .0742.0098v-.5918a1.0807 1.0807 0 0 0-.1562-.0098zm-17.7715.0098v1.709c0 .2401.0407.443.1191.6094.0785.1664.19.2881.338.371.1479.0833.3189.1231.5175.1231.1895 0 .3567-.0354.5-.1094a.8534.8534 0 0 0 .336-.3144h.0097v.3691h.6328V33.0078h-.6367v1.584c0 .134-.0232.2499-.0742.3516-.0507.1062-.1255.1858-.2227.246-.0922.06-.2084.086-.3379.086-.1754 0-.3092-.055-.4062-.166-.097-.111-.1426-.2682-.1426-.4668v-1.6348h-.6328zm15.1426.004v2.7538h.6328v-2.7539h-.6328zm-26.4453.0038 1.0449 2.7637-.0664.1484c-.0415.1065-.0999.1843-.1738.2305-.074.0462-.1767.0703-.3106.0703h-.2305v.5117h.2344c.2774 0 .4957-.054.6621-.1601.1617-.1065.286-.2742.3692-.4961l1.1406-3.0684h-.6465l-.5215 1.5723-.0957.3184-.002.0039-.0253.0859-.0293.0996h-.0137c-.0273-.0847-.0536-.1653-.0781-.2441a15.7468 15.7468 0 0 0-.084-.2637l-.5273-1.5723h-.6465zm30.918.0059v2.7539h.6328v-2.754h-.6329zm5.4902.4062c.1294 0 .2397.0285.332.084.0925.0555.162.133.2129.2344.0503.1007.0765.2248.086.3613H59.459c.0185-.1569.059-.2811.1191-.3828.0645-.0972.1392-.1762.2364-.2226.0969-.0508.2032-.0743.328-.0743zm-37.7813.0508c.1432 0 .2688.0363.375.1055.1062.0692.1881.1719.248.3105.06.1387.088.3061.088.5 0 .1944-.028.3555-.088.4942-.0599.1341-.1415.2393-.248.3086a.6637.6637 0 0 1-.3691.1074.6709.6709 0 0 1-.375-.1074c-.1062-.0693-.19-.1745-.25-.3086-.06-.134-.0879-.2961-.0879-.4903 0-.1941.0324-.3613.0879-.5.0555-.1386.1377-.245.2441-.3144a.6709.6709 0 0 1 .375-.1055zm5.8516 1.0156v.1075c0 .1384-.0285.258-.084.3691a.64.64 0 0 1-.2363.2598c-.1065.0647-.2266.0957-.3653.0957-.0924 0-.1755-.0127-.2402-.045-.0692-.0322-.1251-.0734-.1621-.1289a.346.346 0 0 1-.0547-.1992c0-.12.0462-.2125.1387-.2773.0924-.0645.226-.1065.4062-.125l.5977-.0567z" fill="#009FD9"/></svg>