<svg role="img" viewBox="0 0 64 64" xmlns="http://www.w3.org/2000/svg"><title>Korean Air</title><path d="M4.629 27.115C2.074 27.115 0 29.304 0 32c0 .742.308 1.368.672 1.842.481.63 1.171.93 1.857.937.567.008 1.154-.185 1.567-.558.471-.428.577-.978.699-1.87.134-.976.923-1.65 1.932-1.65 1.311 0 2.122.806 2.068 2.04-.005.085-.013.17-.027.253-.252 1.456-1.81 2.958-4.168 2.953-1.58 0-2.769-.354-3.955-1.549l-.04.028c.797 1.468 2.305 2.459 4.024 2.459 2.557 0 4.627-2.189 4.627-4.885 0-.743-.308-1.368-.672-1.842a2.34 2.34 0 0 0-1.857-.937c-.567-.005-1.154.185-1.567.558-.471.428-.575.978-.697 1.87-.134.976-.923 1.65-1.934 1.65-1.309 0-2.118-.806-2.064-2.04.005-.085.01-.17.025-.253.247-1.456 1.814-2.958 4.168-2.953 1.58 0 2.766.354 3.953 1.549l.04-.028c-.797-1.468-2.3-2.459-4.022-2.459zM21.28 29.14c-.558 0-1.063.119-1.513.359-.45.24-.803.577-1.059 1.012-.256.434-.383.931-.383 1.49 0 .559.127 1.056.383 1.49.256.435.609.772 1.059 1.012.45.24.955.361 1.513.361.554 0 1.054-.12 1.504-.361.45-.24.805-.579 1.06-1.016.257-.437.384-.933.384-1.486 0-.553-.127-1.05-.383-1.486a2.656 2.656 0 0 0-1.06-1.016c-.45-.24-.951-.36-1.505-.36zm-8.076.091v5.54h1.102v-5.54h-1.102zm3.678 0-2.412 2.584 1.869 2.334c.186.228.377.388.574.48.197.094.426.142.69.142h.753a3.122 3.122 0 0 1-.396-.362c-.145-.152-.336-.37-.574-.654l-1.684-1.986 2.42-2.538h-1.24zm8.517 0v5.54h1.102v-4.686h.69c.434 0 .757.072.966.217.21.145.315.368.315.668 0 .305-.107.535-.319.693-.212.158-.525.236-.94.236h-.503l1.676 2.25c.165.218.346.375.543.473.196.098.436.149.72.149h.7c-.3-.243-.625-.582-.971-1.016l-1.016-1.274c.388-.134.69-.34.905-.617.214-.276.32-.6.32-.972 0-.337-.086-.63-.262-.881a1.67 1.67 0 0 0-.758-.578c-.328-.135-.712-.202-1.152-.202H25.4zm5.631 0v5.54h3.647v-.87h-2.545v-1.566h2.072v-.854h-2.072V30.1H34.6v-.87H31.03zm6.813 0-2.545 5.54h1.039l.488-1.125h2.498l.186.433c.113.259.244.438.388.54.145.1.326.152.543.152h.66c-.17-.223-.396-.638-.675-1.243l-1.979-4.297h-.603zm4.002 0v5.54h.945v-3.647l3.383 3.647h.605v-5.54h-.947v3.647l-3.38-3.647h-.606zm10.441 0-2.545 5.54h1.04l.488-1.125h2.498l.187.433c.114.259.242.438.387.54.145.1.326.152.543.152h.66c-.17-.223-.397-.638-.676-1.243l-1.976-4.297h-.606zm4.002 0v5.54h1.102v-5.54h-1.102zm2.762 0v5.54h1.101v-4.686h.69c.434 0 .757.072.967.217.21.145.314.368.314.668 0 .305-.106.535-.318.693-.212.158-.526.236-.94.236h-.504l1.676 2.25c.165.218.346.375.543.473.196.098.438.149.723.149H64c-.3-.243-.622-.582-.969-1.016l-1.017-1.274c.388-.134.69-.34.904-.617.215-.276.322-.6.322-.972 0-.337-.088-.63-.263-.881a1.664 1.664 0 0 0-.756-.578c-.329-.135-.713-.202-1.153-.202h-2.017zm-37.77.776c.352 0 .664.077.938.232.274.155.49.384.644.684.155.3.233.66.233 1.078 0 .419-.078.778-.233 1.078-.155.3-.37.529-.644.684a1.868 1.868 0 0 1-.938.232c-.357 0-.673-.077-.947-.232a1.612 1.612 0 0 1-.643-.684c-.155-.3-.234-.66-.234-1.078 0-.419.08-.778.234-1.078.156-.3.369-.529.643-.684.274-.155.59-.232.947-.232zm16.795.76.883 2.04h-1.768l.885-2.04zm14.444 0 .884 2.04h-1.77l.886-2.04z" fill="#051766"/></svg>