<svg role="img" viewBox="0 0 64 64" xmlns="http://www.w3.org/2000/svg"><title>Kuwait Airways</title><path d="M62.71 19.481c-.05.01-.112.07-.167.137-.021.023-2.036 2.63-2.552 3.623-.439.859-.125 3.857-.278 4.226-.293.67-1.109 1.047-1.109 1.047-.027-.196-.125-.61-.508-1.092-.383-.482-.99-.143-1.227.264-.237.4-.67 1.152-.565 1.664.098.512.6.7.907.7.293 0 .606-.135.682-.067.133.113-.313.369-.53.542-.564.422-1.289.844-1.498.98-.174.113-.543.27-.488.421.035.098.154.053.23.038.182-.03.69-.158.99-.21 1.2-.242 1.429-.852 1.715-1.665.237-.686 1.247-1.756 1.387-1.756.146 0 .035 1.145.788 1.145 2.16 0 2.112-4.602 2.09-5.536-.048-.934.189-1.356.349-1.77.16-.415.049-.49 0-.49-.112 0-.418.603-.753 1.386a3.89 3.89 0 0 0-.32 1.778c.007.4-.028 1.785-.05 1.936-.139.866-.585 1.453-1.205 1.235-.467-.264-.453-3.585-.348-3.714.488-.58 2.118-2.945 2.174-3.005.425-.572.37-.926.37-1.65 0-.135-.036-.176-.084-.167zM63.9 23.43c-.16-.038-.34.436-.397.542-.418.858-.341 1.168-.271 2.508.07 1.341-.098 2.11-.147 2.358-.049.248-.181.64-.021.655.153.015.244-.143.53-.896.285-.754.348-1.86.355-2.546.007-.625-.083-1.25-.028-1.868.015-.121.028-.249.056-.384.021-.098.056-.339-.077-.37zm-27.134.045c-.097.03-.195.18-.258.256-.167.196-.327.4-.48.61l-.007.008a1.131 1.131 0 0 0-.265-.316 3.327 3.327 0 0 0-.544-.415c-.105-.067-.258-.195-.377-.113-.104.076-.194.211-.278.31-.14.173-.306.345-.425.534-.202.339-.05.384.083.43.446.15.767.55.823.677.049.128.014.21.077.226.048.007.153-.12.188-.15.223-.212.446-.445.641-.693.021-.03.05-.06.07-.091a.381.381 0 0 0 .084.03c.446.151.766.55.822.678.049.128.014.21.076.226.049.007.154-.12.189-.15.23-.212.446-.445.64-.693.105-.136.176-.249.106-.422a1.094 1.094 0 0 0-.293-.384 3.87 3.87 0 0 0-.516-.4c-.09-.06-.244-.196-.356-.158zm15.425 0c-.097.03-.195.18-.258.256-.167.196-.327.4-.481.61l-.007.008c-.07-.12-.16-.234-.265-.316a3.337 3.337 0 0 0-.543-.415c-.104-.067-.258-.195-.377-.113-.104.076-.194.211-.278.31-.14.173-.307.345-.425.534-.202.339-.056.384.083.43.446.15.767.55.822.677.049.128.015.21.077.226.049.007.154-.12.189-.15.23-.212.445-.445.641-.693.02-.03.049-.06.07-.091a.375.375 0 0 0 .083.03c.446.151.767.55.823.678.048.128.013.21.076.226.049.007.154-.12.188-.15.23-.212.446-.445.642-.693.104-.136.174-.249.104-.422a1.103 1.103 0 0 0-.292-.384 3.916 3.916 0 0 0-.516-.4c-.091-.06-.244-.196-.356-.158zm2.307 1.943c-.133.015-.265.241-.328.362-.083.15-.132.316-.188.482-.07.226-.118.46-.181.693l-.083.301c-1.973 1.356-6.33 1.974-8.246 2.041-1.917.06-4.106-.391-5.228-.911-1.122-.52-1.261-.98-1.31-.95-.05.038-.37.626-.648.972-.279.347-.99.964-1.415.347-.426-.618-.704-.715-.858-.745-.927-.159-2.118 1.4-2.348 2.168-.175.46-.398 1.213-.307 1.213.09 0 .098-.052.516-.768.53-.904 1.17-1.205 1.631-1.1.46.105.404.829 1.031.859.997.052 1.743-1.25 1.847-1.379.105-.128.076-.127.23-.03.153.099 2.837 1.537 5.82 1.635 4.364.143 9.285-2.607 9.285-2.607s.013.814.662.746c.99-.06 1.686-1.747 1.874-2.177.181-.414.119-.617.056-.647-.105-.053-.279.339-.53.745-.25.4-.523.754-1.031.708-.509-.045-.32-.708-.272-.949.042-.196.077-.384.105-.587.014-.105.035-.226.02-.332-.006-.068-.041-.097-.104-.09zM.07 26.42l-.07.083c3.033 1.74 10.943 8.074 19.363 10.65.404.128.809.24 1.2.339a29.713 29.713 0 0 0 10.106.896c-12.274-2.237-16.157-6.01-16.715-6.831-.062-.09-.09-.144-.09-.144-.035-.015 1.986-2.139 5.896-2.086 4.88.068 8.183 1.672 8.183 1.672a20.34 20.34 0 0 0-4.906-2.297 18.419 18.419 0 0 0-2.356-.61 14.272 14.272 0 0 0-1.506-.234c-2.523-.286-4.405.31-5.973.904-1.471.558-3.366 1.605-5.883.437-1.08-.504-1.833-.67-3.074-.52C2.287 27.798.81 26.766.07 26.42Zm37.67 3.77a.147.147 0 0 0-.094.026c-.105.068-.195.211-.28.309-.139.173-.306.347-.417.535-.202.332-.056.377.083.422.447.15.767.55.823.678.049.128.014.21.083.226.05.007.154-.12.189-.15.223-.212.446-.446.641-.694.02-.03.049-.06.07-.09.028.008.056.022.083.03.447.15.767.55.823.678.049.128.013.21.076.226.049.007.161-.12.189-.15.23-.22.439-.446.64-.694.105-.136.175-.248.106-.422a1.523 1.523 0 0 0-.307-.369 3.91 3.91 0 0 0-.516-.399c-.09-.06-.237-.196-.356-.158-.097.03-.195.18-.257.256-.168.196-.328.4-.481.61l-.008.008a1.27 1.27 0 0 0-.264-.324 3.344 3.344 0 0 0-.544-.414c-.078-.051-.184-.136-.282-.14zm13.982 0a.15.15 0 0 0-.095.026c-.104.068-.194.211-.278.309-.14.173-.307.347-.418.535-.202.332-.056.377.076.422.446.15.767.55.822.678.05.128.015.21.084.226.049.007.154-.12.189-.15.223-.212.446-.446.64-.694.022-.03.05-.06.07-.09.028.008.056.022.084.03.447.15.766.55.823.678.048.128.014.21.083.226.05.007.154-.12.188-.15.23-.22.44-.446.642-.694.104-.136.174-.248.104-.422a1.54 1.54 0 0 0-.313-.369 3.887 3.887 0 0 0-.516-.399c-.09-.06-.237-.196-.355-.158-.098.03-.196.18-.258.256a10.1 10.1 0 0 0-.482.61l-.006.008c-.07-.121-.16-.234-.258-.324a3.344 3.344 0 0 0-.544-.414c-.079-.051-.184-.136-.282-.14zm-8.563 5.223v3.631c0 1.326-.425 1.951-1.331 1.951-.879 0-1.262-.572-1.262-1.845v-3.728H38.86v.33h.083c.544.008.663.128.663.678v2.675c0 1.657.676 2.455 2.077 2.455 1.393 0 2.048-.806 2.048-2.531v-3.616zm1.24.009v.33h.091c.321 0 .55.264.697.776l1.366 5.002h.453l1.29-4 1.29 4h.424l1.646-6.108-.614.007-1.115 4.112-1.297-4.112h-1.554v.331h.09c.37 0 .67.279.802.746l-.975 3.005-1.13-4.09zm12.665 0v.33h.084c.564.023.67.128.67.678v5.032h.954v-6.04zm-19.794.007-2.238 2.538v-2.53h-1.714v.33h.083c.558.023.67.137.67.679v5.032h.961v-2.9l2.286 2.9h1.534v-.325l-.084-.007c-.425-.045-.718-.256-1.24-.927l-1.73-2.206 2.273-2.584zm15.717 0v.331h.084c.543.008.543.18.543.249 0 .045-.035.18-.125.421l-1.868 5.04h.599l.711-1.936h1.994l.717 1.935h1.422v-.33h-.083c-.363-.008-.523-.189-.76-.822l-1.798-4.888zm6.433 0v1.529h.258l.014-.076c.09-.504.188-.7.39-.805.16-.083.348-.106.857-.106h.307v5.498h.962v-5.498h.3c.969 0 1.094.09 1.248.911l.014.076H64v-1.53zm-5.485 1.408.788 2.147H53.14zm-11.23 5.988v.038c.168.008.217.053.217.219v1.393h.216v-.761h.14l.474.769h.355v-.045c-.084 0-.181-.068-.258-.196l-.328-.558a.485.485 0 0 0 .202-.06c.12-.068.182-.196.182-.354 0-.301-.188-.445-.571-.445zm15.175 0v.038c.14.008.202.068.341.302l.328.557v.753h.432v-.037c-.167-.008-.21-.046-.21-.227v-.497l.524-.889h-.133l-.439.754-.453-.754zm5.736 0c-.209.008-.313.03-.418.091a.384.384 0 0 0-.167.331c0 .083.027.166.07.234.048.083.16.173.334.263.25.136.341.242.341.385 0 .166-.14.293-.32.293-.203 0-.356-.128-.425-.361h-.035l.035.384c.048 0 .097.015.097.015.195.045.265.06.348.06.3 0 .517-.196.517-.467 0-.218-.112-.361-.433-.534-.244-.136-.334-.234-.334-.362 0-.158.139-.249.397-.264zm-29.915.008v.045c.125 0 .18.03.18.098a.389.389 0 0 1-.041.128l-.516 1.379h.119l.202-.543h.592l.203.543h.362v-.038c-.119 0-.168-.06-.237-.249l-.502-1.363zm4.698 0v.038c.167.007.208.045.208.218v1.394h.223v-1.65zm9.144 0v.038c.105 0 .181.083.223.24l.376 1.394h.092l.383-1.182.383 1.182h.083l.447-1.672h-.119l-.334 1.22-.383-1.22h-.398v.038c.118 0 .21.09.251.24l-.3.935-.334-1.213zm5.938 0v.045c.119 0 .175.03.175.098a.376.376 0 0 1-.035.128l-.516 1.379h.119l.202-.543h.593l.202.543h.362v-.038c-.119 0-.167-.06-.237-.249l-.502-1.363zm-10.239.098c.293 0 .419.105.419.346 0 .189-.077.286-.244.324-.056.015-.105.016-.285.016v-.55c0-.128.006-.136.11-.136zm-9.297.203.258.708h-.516zm19.774 0 .258.708h-.517z"/></svg>