<svg role="img" viewBox="0 0 64 64" xmlns="http://www.w3.org/2000/svg"><title>LOT Polish Airlines</title><path d="M6.117 21.164 0 42.832l29.563.004h.195A10.837 10.837 0 0 0 40.594 32a7.725 7.725 0 0 0-1.102-3.988h7.393l-4.2 14.82h7.88l4.2-14.82h7.32L64 21.164H26.898A10.837 10.837 0 0 0 16.061 32a7.724 7.724 0 0 0 1.101 3.988H9.793l4.203-14.824H6.117zm22.211 6.334a4.502 4.502 0 0 1 1.39.22 4.502 4.502 0 0 1 .07.034l-2.503 5.02v.003l-3.256.5A4.5 4.5 0 0 1 23.826 32a4.502 4.502 0 0 1 4.502-4.502zm1.598.322a4.502 4.502 0 0 1 2.678 5.446.705.705 0 0 1-.524-.332h-1.078l.082.11h.371l.184.231h-2.034a.739.739 0 0 0-.736-.738.78.78 0 0 0-.115.008l-.73.113 2.158-3.596a.93.93 0 0 0 .13-.476.944.944 0 0 0-.386-.766zm-1.883 5.569h4.521a4.502 4.502 0 0 1-2.486 2.71.894.894 0 0 0 .195-.558.88.88 0 0 0-.341-.701l-1.889-1.451zm-3.996.002h3.133l2.806 2.752a4.502 4.502 0 0 1-1.658.359 4.5 4.5 0 0 1-4.281-3.111z" fill="#252668"/></svg>