<svg role="img" viewBox="0 0 64 64" xmlns="http://www.w3.org/2000/svg"><title>Lufthansa</title><path d="M5.486 26.514A5.482 5.482 0 0 0 0 32a5.489 5.489 0 0 0 5.486 5.486A5.48 5.48 0 0 0 10.971 32a5.473 5.473 0 0 0-5.485-5.486zm0 .396a5.093 5.093 0 0 1 5.09 5.09 5.1 5.1 0 0 1-5.09 5.09C2.69 37.09.395 34.798.395 32c0-2.809 2.294-5.09 5.091-5.09zm26.301 1.324c-1.264 0-2.068.68-2.068 1.955v.198h-.795v1.285h.795v3.982h1.576v-3.982h1.16v-1.285h-1.16v-.21c0-.459.263-.626.754-.626.188 0 .406.021.406.021v-1.275s-.26-.063-.668-.063zm-13.5.106v7.314h4.838V34.18H19.98v-5.84h-1.693zm18.611.01v7.304h1.579v-3.01c0-.7.355-1.013.95-1.013.659 0 .962.314.962 1.014v3.009h1.578V32.57c0-1.734-.7-2.34-2.037-2.34-.742 0-1.17.282-1.442.668V28.35h-1.59zm-3.242.502v1.535h-.793v1.285h.793v2.226c0 1.275.764 1.848 2.028 1.848.386 0 .752-.082.752-.082v-1.266s-.262.034-.45.034c-.46 0-.752-.147-.752-.711v-2.05h1.202v-1.284h-1.202v-1.535h-1.578zm11.455 1.378c-1.556 0-2.308.595-2.37 1.713h1.534c.021-.292.189-.511.836-.511.575 0 .848.188.848.47 0 .251-.158.345-.545.387l-1.002.104c-1.358.146-1.974.71-1.974 1.734 0 .95.584 1.684 1.828 1.684.846 0 1.348-.273 1.787-.817v.66h1.441v-3.459c0-1.452-.847-1.965-2.383-1.965zm6.032 0c-.846 0-1.297.356-1.516.764v-.607h-1.484v5.265h1.578v-3.007c0-.7.355-1.014.95-1.014.66 0 .964.314.964 1.014v3.01h1.576V32.57c0-1.734-.7-2.34-2.068-2.34zm4.99 0c-1.557 0-2.299.742-2.299 1.745 0 1.045.668 1.495 1.828 1.652l.553.072c.543.074.752.2.752.47 0 .294-.251.44-.867.44-.607 0-.876-.19-.918-.576h-1.557c.031 1.055.667 1.778 2.475 1.778 1.66 0 2.445-.658 2.445-1.766 0-1.097-.669-1.516-2.006-1.693l-.553-.073c-.449-.063-.576-.188-.576-.418 0-.23.2-.408.723-.408.532 0 .7.187.752.49h1.535c-.073-1.139-.845-1.713-2.287-1.713zm5.484 0c-1.557 0-2.308.595-2.37 1.713h1.534c.021-.292.189-.511.836-.511.575 0 .848.188.848.47 0 .251-.158.345-.545.387l-1.002.104c-1.358.146-1.975.71-1.975 1.734 0 .95.585 1.684 1.828 1.684.846 0 1.347-.273 1.786-.817v.66H64v-3.459c0-1.452-.847-1.965-2.383-1.965zm-38.137.157v3.082c0 1.734.7 2.342 2.047 2.342.826 0 1.275-.356 1.494-.764v.607h1.485v-5.267h-1.578v3.01c0 .7-.355 1.013-.93 1.013-.637 0-.941-.314-.941-1.014v-3.01H23.48zm-22.515.242.012.318c1.03.472 1.458.735 2.544 1.514 1.416 1.01 2.677 1.557 4.432 1.908l.461-.437h-.11c-1.162 0-2.205-.384-2.808-1.032.505-.307 1.131-.45 1.998-.45.23 0 .558.021.865.054l.264-.252a10.45 10.45 0 0 0-1.24-.076 10.171 10.171 0 0 0-.834.033l.199-.242a12.54 12.54 0 0 1 .701-.022c.582 0 .966.022 1.405.088l.251-.242a11.083 11.083 0 0 0-2.15-.11l.143-.24h.23c.823 0 1.439.044 1.998.143l.252-.242a12.823 12.823 0 0 0-2.15-.176H7.24l.121-.23h.21c.8 0 1.524.065 2.226.197l.264-.252c-.79-.154-1.635-.23-2.545-.23a13.252 13.252 0 0 0-1.164.054c-.44.943-1.14 1.493-1.93 1.483-.307-.012-.692-.143-1.186-.407l-.46-.263.142-.133 1.064.46.23-.175-2.15-.975-.328.252-.77-.318zM45.99 33.28v.324c0 .575-.545 1.004-1.38 1.004-.408 0-.647-.19-.647-.545 0-.27.166-.5.7-.574l.91-.125c.156-.02.323-.052.417-.084zm16.504 0v.324c0 .575-.543 1.004-1.379 1.004-.407 0-.646-.19-.646-.545 0-.27.166-.5.699-.574l.908-.125c.157-.02.324-.052.418-.084z" fill="#05164D"/></svg>