<svg role="img" viewBox="0 0 64 64" xmlns="http://www.w3.org/2000/svg"><title>Malaysia Airlines</title><path d="m51.653 24.118-.084.308h5.153a.709.709 0 0 1 .755.793 1.155 1.155 0 0 1-.041.222l-.924 3.357a1.745 1.745 0 0 1-.072.176 1.316 1.316 0 0 1-1.18.777h-.023a.689.689 0 0 1-.706-.836l.008-.058a.746.746 0 0 1 .018-.082l.423-1.538a.588.588 0 0 0-.157-.627.65.65 0 0 0-.344-.149.607.607 0 0 0-.062-.006l-3.409.004-.084.303h1.46a.793.793 0 0 1 .258.045.564.564 0 0 1 .298.733s-.182.638-.397 1.439a1.083 1.083 0 0 1-.272.492 1.113 1.113 0 0 1-.758.306h-1.42l-.041.145-.012.04-.046.174h1.342c.151 0 .838.028.684.735a101.566 101.566 0 0 0-.414 1.508 1.04 1.04 0 0 1-.051.136 1.134 1.134 0 0 1-.218.326 1.014 1.014 0 0 1-.717.313h-1.465l-.081.308 3.413.003a1.113 1.113 0 0 0 .57-.203 1.082 1.082 0 0 0 .425-.58l.423-1.535A1.232 1.232 0 0 1 54 30.91a1.337 1.337 0 0 1 1.121-.742h.023a.703.703 0 0 1 .725.954l-.92 3.356a1.394 1.394 0 0 1-.652.835 1.299 1.299 0 0 1-.622.178h-5.16l-.087.312h6.154a7.797 7.797 0 0 0 3.658-1.073 8.52 8.52 0 0 0 3.11-3.169 2.81 2.81 0 0 1 2.162-1.39l.366-.024a.033.033 0 0 0 .032-.022l.007-.027a.004.004 0 0 1 0-.004c.01-.034.025-.081.038-.13v-.002l.002-.004.042-.163a.015.015 0 0 0 0-.009c0-.007-.007-.01-.017-.012l-.123-.009-.239-.015a1.377 1.377 0 0 1-1.388-1.306c0-.021-.003-.04-.004-.053v-.032c.028-1.578-.88-4.094-4.43-4.241zM17.534 28.11 15.438 35.8h1.617l2.1-7.689zm17.286 1.64a2.377 2.377 0 0 0-2.37 1.817 1.302 1.302 0 0 0 1.397 1.83h1.668c.196 0 .469.017.586.164a.443.443 0 0 1 .032.394c-.14.512-.56.58-.952.58H31.64l-.342 1.26h4.175a2.378 2.378 0 0 0 2.371-1.817 1.502 1.502 0 0 0-.163-1.361h.002a1.51 1.51 0 0 0-1.233-.478H34.78c-.197 0-.472-.016-.587-.166a.42.42 0 0 1-.034-.382c.139-.512.56-.58.951-.58h3.22l.343-1.261zm-33.169 0L0 35.797h1.618l1.29-4.723h1.444l-1.288 4.723h1.618l1.288-4.723h.62a.647.647 0 0 1 .54.196.736.736 0 0 1 .063.622l-1.067 3.905h1.618l1.146-4.195a1.478 1.478 0 0 0-.223-1.32h-.002a1.505 1.505 0 0 0-1.253-.532Zm8.868 0-.344 1.261h3.06a.801.801 0 0 1 .655.223.742.742 0 0 1 .056.668l-.065.237h-2.56a2.378 2.378 0 0 0-2.368 1.82 1.306 1.306 0 0 0 1.394 1.838h4.156l1.06-3.883a1.734 1.734 0 0 0-.187-1.588h-.004a1.718 1.718 0 0 0-1.353-.576zm9.342 0-.343 1.261h3.06a.796.796 0 0 1 .654.223.736.736 0 0 1 .056.668l-.063.237h-2.559a2.376 2.376 0 0 0-2.37 1.82 1.305 1.305 0 0 0 1.395 1.838h4.153l1.06-3.883a1.726 1.726 0 0 0-.188-1.59 1.715 1.715 0 0 0-1.355-.574zm6.535 0-1.108 4.044a1.6 1.6 0 0 0 .153 1.462 1.848 1.848 0 0 0 1.465.54h1.87l-.165.598a1.146 1.146 0 0 1-1.119.752h-2.97l-.346 1.261h3.458a2.963 2.963 0 0 0 2.604-2.034l1.81-6.621H30.43v-.002l-1.29 4.722h-1.592a.655.655 0 0 1-.54-.194.75.75 0 0 1-.059-.632l1.064-3.896zm13.35 0-1.65 6.047h1.62l1.65-6.047zm2.719 0-.344 1.261h3.058a.804.804 0 0 1 .657.223.747.747 0 0 1 .055.668l-.063.237h-2.562a2.374 2.374 0 0 0-2.37 1.82 1.304 1.304 0 0 0 1.395 1.838h4.153l1.06-3.883a1.732 1.732 0 0 0-.189-1.59h.003a1.716 1.716 0 0 0-1.355-.574zm-30.87 3.65h1.942l-.31 1.138H11.26a.758.758 0 0 1-.564-.158.447.447 0 0 1-.033-.4c.14-.513.548-.58.932-.58zm9.342 0h1.944l-.311 1.138h-1.967a.763.763 0 0 1-.565-.158.447.447 0 0 1-.034-.4c.141-.513.55-.58.933-.58zm22.601 0h1.944l-.312 1.138h-1.967c-.187 0-.45-.016-.563-.158a.441.441 0 0 1-.033-.4c.138-.513.548-.58.931-.58zm-6.745 3-.942 3.466h.47l.943-3.466zm3.218.74a.779.779 0 0 0-.143.003v.001h-1.416l-.738 2.721h.47l.635-2.334h.876a.434.434 0 0 1 .39.14c.08.123.049.282-.01.5l-.461 1.694h.478l.493-1.824a.746.746 0 0 0-.066-.666.779.779 0 0 0-.508-.236zm-3.783.003-.579.001a1.004 1.004 0 0 0-.99.814l-.522 1.924h.47s.487-1.797.504-1.854a.643.643 0 0 1 .614-.493h.395zm-5.236.001-.105.387h1.6a.352.352 0 0 1 .293.111.317.317 0 0 1 .026.247c-.017.082-.09.334-.09.334h-1.218a1.052 1.052 0 0 0-1.11.837.665.665 0 0 0 .1.583.744.744 0 0 0 .617.223h1.638l.522-1.93a.653.653 0 0 0-.053-.59l-.001-.002a.607.607 0 0 0-.47-.2zm2.95 0-.737 2.721h.47l.738-2.72zm3.577 0-.737 2.721h.47l.739-2.72zm4.831.002c-.804 0-1.351.688-1.534 1.369a1.24 1.24 0 0 0 .103 1.064.805.805 0 0 0 .681.289h1.128l.102-.382h-.967a.633.633 0 0 1-.508-.168.715.715 0 0 1-.06-.628l.007-.019h1.69l.101-.375h-1.69l.01-.03v-.002a1.098 1.098 0 0 1 .999-.731h.95l.105-.387zm2.175.016a1.026 1.026 0 0 0-.907.786.587.587 0 0 0 .068.507.65.65 0 0 0 .572.215h.734c.448 0 .373.333.339.44-.111.345-.477.375-.857.375h-1.28l-.102.38h1.802a.95.95 0 0 0 .95-.777.646.646 0 0 0-.105-.57.705.705 0 0 0-.589-.223h-.63c-.061 0-.27.006-.342-.104a.296.296 0 0 1-.017-.265.542.542 0 0 1 .55-.38h1.382l.106-.384h-1.491a1.026 1.026 0 0 0-.183 0zm-13.118 1.44a.594.594 0 0 1 .124.003h1.08l-.244.88h-1.064a.469.469 0 0 1-.39-.123.341.341 0 0 1-.037-.312.594.594 0 0 1 .53-.448z" fill="#174887"/></svg>