<svg role="img" viewBox="0 0 64 64" xmlns="http://www.w3.org/2000/svg"><title>Qantas</title><path d="m0 25.682.158.412.147.38c1.455 3.236 4.08 1.75 7.56 4.926h.033c.506.443.82.032.663-.22-.158-.253-.125-.38-.125-.412.726.19 1.388.537 1.925 1.011l-.03.094c-.285.569-2.938.316-2.97 1.453 0 .316.157.6.442.695l.537.221a12.74 12.74 0 0 1 4.517 3.065c.032.031.032.064 0 .095 0 .032 0 .032-.03.032h-.032a13.092 13.092 0 0 0-6.066-2.686c-.158-.032-.252-.158-.284-.316-.41-3.76-4.139-4.011-5.56-6.444l3.918 10.33h12.95L7.394 27.893c-1.39-1.39-3.286-2.211-5.245-2.211H0zm19.143 4.328c-2.528 0-4.266 1.294-4.266 3 0 1.674 1.644 3.002 4.203 3.002v.031h3.443c.6 0 .885-.252 1.106-.63l.348-.634h-1.518c.632-.505.947-1.105.947-1.832 0-1.642-1.736-2.937-4.263-2.937zm40.591.441c-1.074 0-2.083.19-2.683.633-.316.253-.537.601-.537 1.012 0 .568.315.947.82 1.168.505.22 1.202.347 2.75.6 1.39.22 1.864.315 2.021.378.127.032.19.095.19.19 0 .22-.411.412-2.117.412-1.043 0-2.18-.127-3.254-.475l-.38 1.201.128.032c.916.284 2.337.474 3.695.505.853 0 1.611-.096 2.18-.253.916-.285 1.453-.79 1.453-1.485 0-.537-.378-.98-.979-1.201-.442-.158-.98-.284-2.623-.537-1.484-.253-1.769-.314-1.959-.377-.157-.063-.22-.128-.22-.223s.063-.157.22-.22c.285-.064.822-.127 1.612-.127 1.137 0 1.927.096 3.412.412l.316-1.17-.127-.031c-1.326-.316-2.496-.444-3.918-.444zm-31.779.033c-.632 0-.947.283-1.168.662l-2.81 4.834h1.705l.568-1.011h4.012l.601 1.011h1.705l-2.81-4.834c-.221-.379-.538-.662-1.17-.662h-.633zm5.182 0v5.528h1.484v-3.664l4.39 3.664h1.487v-5.528h-1.486v3.633l-3.948-3.285c-.252-.221-.506-.348-.98-.348h-.947zm8.119 0v1.23h3.064v4.298h1.516v-4.297H48.9v-1.23h-7.644zm10.299 0c-.632 0-.95.283-1.17.662l-2.813 4.834h1.676l.568-1.011h4.043l.602 1.011h1.705l-2.812-4.834c-.222-.379-.537-.662-1.168-.662h-.631zm-32.412.852c1.421 0 2.59.695 2.59 1.643 0 .947-1.2 1.644-2.59 1.644s-2.559-.665-2.59-1.644c0-.948 1.2-1.643 2.59-1.643zm9.097.158c.032 0 .064 0 .096.063l1.23 2.213h-2.652l1.23-2.213c.032-.064.065-.063.096-.063zm23.598 0c.031 0 .064 0 .096.063l1.23 2.213h-2.652l1.232-2.213c.032-.064.062-.063.094-.063z"/></svg>