<svg role="img" viewBox="0 0 64 64" xmlns="http://www.w3.org/2000/svg"><title>Qatar Airways</title><path d="M49.776 25.513c-.247 0-.444.094-.444.21 0 .116.197.211.444.211 1.26 0 5.097-.096 5.097-.211 0-.116-3.837-.21-5.097-.21zm-1.762 1.066c-.43 0-.779.133-.779.296 0 .163.349.296.779.296 1.523 0 5.182-.063 7.322-.154.132-.09.264-.178.394-.265-2.053-.102-6.097-.173-7.716-.173zM46.9 27.943c-.546 0-.99.17-.99.377 0 .208.442.377.99.377 1.31 0 3.863-.036 6.22-.096.114-.088.23-.174.347-.26.129-.097.257-.188.384-.28a295.761 295.761 0 0 0-6.95-.118zm9.587.208c-.221.121-.435.242-.641.363 1.438-.056 2.444-.123 2.444-.195 0-.059-.716-.118-1.803-.168zm-10.255 1.185c-.618 0-1.118.191-1.118.427 0 .233.5.424 1.118.424 1.12 0 3.042-.024 5.067-.066a29.575 29.575 0 0 1 .802-.704c-2.304-.05-4.602-.08-5.87-.08zm11.34.264c-.003.01-.054.164-.288.34 1.094-.055 1.802-.113 1.802-.178 0-.059-.584-.113-1.514-.162zm-11.706 1.157c-.656 0-1.187.203-1.187.453s.53.453 1.187.453c.915 0 2.338-.016 3.923-.043a24.576 24.576 0 0 1 .78-.807 282.21 282.21 0 0 0-4.703-.056zm10.04.192a4.152 4.152 0 0 0 .701.494c1.714-.068 2.915-.148 2.915-.233 0-.095-1.537-.187-3.615-.26zm-10.161 1.245c-.668 0-1.212.206-1.212.46s.544.46 1.212.46c.697 0 1.683-.008 2.811-.024a22.03 22.03 0 0 1 .698-.863 251.08 251.08 0 0 0-3.51-.033Zm.123 1.452c-.656 0-1.188.202-1.188.451 0 .25.532.453 1.188.453.457 0 1.04-.004 1.705-.011l.036-.05c.015-.018.182-.322.53-.826-.903-.012-1.69-.017-2.271-.017zm.364 1.473c-.618 0-1.118.192-1.118.428 0 .234.5.425 1.118.425.642 0 1.577-.01 2.615-.024-.148.003-.203-.072-.203-.072a5.898 5.898 0 0 1-.712-.732.028.028 0 0 1-.002-.014c-.667-.006-1.246-.01-1.698-.01zm2.615.83h.027-.027zm.027 0c1.352-.02 2.898-.047 4.398-.086-.198-.292-.358-.53-.436-.643-.956-.022-1.928-.042-2.844-.058-.314.42-.593.602-.92.735a.69.69 0 0 1-.198.051zm-1.975.664c-.547 0-.99.169-.99.377 0 .207.442.376.99.376 1.519 0 4.707-.05 7.326-.126-.116-.161-.238-.335-.361-.511a295.247 295.247 0 0 0-6.965-.116zm1.113 1.523c-.43 0-.778.132-.778.296 0 .162.348.296.778.296 1.527 0 5.201-.063 7.338-.156a9.009 9.009 0 0 1-.285-.292 230.056 230.056 0 0 0-7.053-.144zm1.764 1.239c-.247 0-.444.095-.444.21 0 .117.197.21.444.21 1.26 0 5.097-.093 5.097-.21 0-.115-3.837-.21-5.097-.21z" fill="#818A8F"/><path d="M11.33 37.161c-.105.361-.362.936-.808 1.935l-.512 1.139c.06-.008.123-.026.198-.026.07 0 .154.018.212.026a9.72 9.72 0 0 1 .353-.958c.177-.009.354-.017.53-.017.19 0 .376.008.567.017l.185.47.187.488c.08-.004.203-.026.327-.026s.28.022.346.026a75.325 75.325 0 0 1-.659-1.48c-.16-.371-.424-.99-.637-1.594a.548.548 0 0 1-.142.021.568.568 0 0 1-.147-.02zm10.95 0c-.105.361-.36.936-.809 1.935l-.512 1.139c.062-.008.124-.026.199-.026.072 0 .154.018.212.026.07-.252.212-.617.354-.958.176-.009.354-.017.53-.017.19 0 .376.008.565.017l.187.47.187.488c.08-.004.203-.026.327-.026.123 0 .28.022.345.026-.2-.428-.492-1.095-.66-1.48-.159-.371-.424-.99-.636-1.594a.54.54 0 0 1-.141.021.555.555 0 0 1-.147-.02zm5.072.006c-.8 0-1.03.495-1.03.883 0 .367.13.593.559.782.123.053.332.133.455.185.085.036.362.159.362.51 0 .317-.23.55-.578.55-.262 0-.483-.066-.686-.506h-.06v.001c-.023.212-.026.271-.104.5.16.08.448.224.828.224.809 0 1.122-.516 1.122-.966a.881.881 0 0 0-.217-.584c-.127-.141-.26-.19-.6-.322-.389-.15-.616-.239-.616-.562 0-.26.172-.477.522-.477.278 0 .513.132.579.384h.061a2.16 2.16 0 0 1 .137-.42c-.216-.097-.41-.182-.734-.182zm-14.093.037c.043.428.043.743.043 1.021 0 .756 0 1.485-.049 2.01.1-.004.22-.026.32-.026s.206.022.31.026c-.037-.357-.045-.835-.045-1.493 0-.446 0-1.21.05-1.538-.107.013-.217.028-.315.028a3.798 3.798 0 0 1-.314-.028zm3.688 0c.18.477.335.902.455 1.237.203.575.336.972.495 1.458l.111.336a1.024 1.024 0 0 1 .182-.026c.049 0 .092.01.166.026.071-.229.155-.511.218-.693.171-.503.194-.574.42-1.201l.132-.367c.049.142.133.367.18.509.05.137.274.814.327.964.072.198.089.256.253.79.04-.005.123-.027.188-.027.063 0 .111.015.178.027.169-.525.187-.579.433-1.287.244-.689.394-1.08.658-1.743a.76.76 0 0 1-.401 0c-.16.574-.24.852-.368 1.232-.208.618-.234.689-.362 1.026a31.306 31.306 0 0 1-.407-1.153c-.07-.212-.34-1.095-.344-1.104-.062.013-.107.026-.196.026-.078 0-.137-.016-.194-.026-.133.538-.601 1.837-.646 1.956l-.11.288-.083-.25c-.207-.614-.495-1.476-.632-1.998-.11.018-.207.028-.309.028a3.36 3.36 0 0 1-.344-.028zm-2.315.002c.031.57.032.631.032 1.21 0 .852-.006.948-.041 1.819a2.359 2.359 0 0 1 .304-.026c.11 0 .208.018.296.026 0-.115-.018-.684-.018-.812v-.628h.106a29.791 29.791 0 0 1 .737 1.073c.067.102.166.265.231.367.134-.017.186-.026.359-.026.16 0 .27.014.393.026a17.469 17.469 0 0 1-.748-.994c-.066-.092-.164-.237-.23-.33l-.123-.177c.402-.075.77-.327.77-.817a.686.686 0 0 0-.203-.495c-.191-.181-.408-.216-.694-.216-.103 0-.615.022-.729.022-.225 0-.343-.013-.442-.022zm8.778 0c.23.385.607.994.832 1.382l.26.451c0 .275-.012.853-.026 1.196.083-.008.207-.026.297-.026.101 0 .203.018.305.026-.018-.41-.031-.648-.031-1.02v-.162c0-.04.028-.09.058-.142.187-.318.357-.65.557-.968.066-.106.388-.619.455-.737a.496.496 0 0 1-.187.028c-.098 0-.185-.014-.256-.028-.318.698-.389.847-.765 1.492a18.71 18.71 0 0 1-.773-1.492 2.109 2.109 0 0 1-.362.027c-.097 0-.2-.009-.364-.027zm-7.89.216c.145 0 .292.022.411.112.155.114.186.273.186.459 0 .287-.164.61-.606.61-.115 0-.22-.009-.305-.014v-1.145c.066-.005.23-.022.314-.022zm-4.193.493.415 1.087a6.087 6.087 0 0 1-.406.018c-.154 0-.304-.013-.46-.018zm10.95 0 .415 1.087a6.087 6.087 0 0 1-.406.018c-.154 0-.305-.013-.459-.018z" fill="#5E6A71"/><path d="M63.061 22.98c-.088 0-.237.049-.337.088-.202.08-3.732 1.184-9.26 5.274-4.218 3.121-5.812 6.091-5.858 6.15-.05.065-.125.17-.048.254.102.105.24.237.542.047.303-.19.362-.292.396-.287.037.008.043.106-.027.233-.062.11-.34.379-.498.378-.059-.002-.042.03-.042.03a5.79 5.79 0 0 0 .713.73s.105.153.428.023c.38-.154.696-.376 1.077-.964.382-.588.906-1.698 1.271-3.064 0 0-.286.24-.524.143 0 0 .084-.37.386-.625.302-.253.425-.248.425-.248l.195-.896c.351.45.49 1.093.361 1.8 0 0 .399-.284.572-1.047 0 0 .458 1.426-.061 2.459-.464.917-1.405 1.362-1.643 1.457-.238.095-.16.15-.019.15.143 0 .608-.072 1.005-.212.299-.107.466.002.72.367.255.366 1.334 2 1.843 2.62a11.851 11.851 0 0 0 1.261 1.29 7.521 7.521 0 0 0 1.508-1.146c-.774-.068-1.275-.143-1.275-.225 0-.095.701-.181 1.72-.26.122-.146.238-.295.344-.446.1-.137.195-.285.287-.434-1.631-.083-2.926-.19-2.926-.308 0-.126 1.48-.24 3.273-.326a7.97 7.97 0 0 0 .327-.773c-2.088-.09-3.973-.218-3.973-.359 0-.148 2.02-.277 4.195-.367.06-.245.112-.495.15-.75-2.206-.087-4.275-.221-4.275-.369 0-.152 2.115-.287 4.349-.374.011-.224.013-.45.004-.68-3.215-.325-4.1-1.75-4.14-1.795-.074-.1.005-.193.098-.192.415-.003.836.03 1.29-.164.59-.251.676-.562.676-.562a90.438 90.438 0 0 0-2.87-.11s-.106-.007-.106-.06c.002-.138.202-.259.202-.259 1.928-1.295 4.926-2.7 8.994-4.21.155-.06.214-.096.209-.166a.28.28 0 0 0-.055-.15c-.03-.04-.13-.04-.31.01-3.786 1.086-7.214 2.41-10.137 4.352-.08.05-.18-.071-.045-.154.06-.028 1.712-1.232 3.443-2.074 1.408-.906 3.885-2.464 6.008-3.399.255-.112.29-.147.297-.213.007-.067-.018-.112-.075-.17-.012-.013-.035-.018-.065-.017zM14.85 26.466c-.32 1.088-1.09 2.81-2.428 5.804l-1.54 3.42c.056-.008.11-.018.167-.029.133-.025.273-.05.431-.05.16 0 .347.031.502.057l.135.023c.21-.756.637-1.857 1.061-2.876.53-.027 1.06-.053 1.59-.053.533 0 1.055.023 1.587.048l.112.004.557 1.406.555 1.47c.087-.004.192-.017.309-.03.2-.023.436-.05.67-.05.255 0 .555.033.782.056.103.012.191.02.254.024a248.172 248.172 0 0 1-1.976-4.44c-.477-1.113-1.273-2.968-1.91-4.784a1.562 1.562 0 0 1-.422.067 1.57 1.57 0 0 1-.436-.067zm14.76 0c-.319 1.088-1.087 2.81-2.428 5.804l-1.539 3.42c.056-.008.111-.018.168-.029a2.27 2.27 0 0 1 .43-.05c.16 0 .343.03.498.057.05.009.096.016.138.022.212-.756.636-1.856 1.06-2.875.53-.027 1.061-.053 1.593-.053.533 0 1.055.023 1.588.048l.108.004.557 1.406.56 1.47c.088-.004.193-.017.31-.03.2-.023.435-.05.67-.05.255 0 .555.032.782.056.103.011.191.02.253.024a251.69 251.69 0 0 1-1.977-4.44l-.01-.024c-.478-1.116-1.267-2.958-1.899-4.76a1.579 1.579 0 0 1-.424.067c-.16 0-.292-.027-.439-.067zm-24.622.027C2.309 26.493 0 27.977 0 31.343c0 .716.16 2.068 1.274 3.194 1.153 1.166 2.52 1.339 3.673 1.339.145 0 .29 0 .437-.013l3.036 2.372a9.992 9.992 0 0 1 1.473-.822l-2.998-1.856c1.844-.648 2.998-2.293 2.998-4.532 0-3.18-2.427-4.532-4.906-4.532zm30.811.106c.093 1.71.094 1.895.094 3.631 0 2.53-.013 2.842-.116 5.376l-.003.084c.29-.04.61-.08.913-.08.233 0 .447.027.645.052.084.01.166.02.246.028 0-.168-.012-.66-.026-1.164-.013-.531-.028-1.077-.028-1.274v-1.883h.319a91.086 91.086 0 0 1 2.215 3.22 31.237 31.237 0 0 1 .325.521 28.368 28.368 0 0 0 .363.58l.09-.012c.336-.045.509-.067.985-.067.444 0 .762.034 1.103.071l.077.008a54.494 54.494 0 0 1-2.24-2.98c-.102-.142-.226-.324-.35-.506-.122-.176-.241-.351-.34-.489l-.371-.53c1.206-.226 2.306-.982 2.306-2.452a2.06 2.06 0 0 0-.61-1.484c-.57-.543-1.22-.65-2.083-.65-.147 0-.583.016-1.034.032-.48.017-.976.034-1.154.034-.587 0-.923-.03-1.2-.054zm-16.752.002c.042.16.068.33.068.49 0 .158-.026.332-.068.49.677-.067 1.951-.094 2.07-.094h.662l.006.235c.01.426.021.822.021 1.237l.012 3.696c0 .766-.045 1.54-.091 2.31-.015.242-.03.484-.042.725l.208-.023h.001c.334-.037.503-.056.693-.056.158 0 .584.04.969.08l-.006-.055c-.039-.36-.087-.803-.087-1.761V28.97a55 55 0 0 1 .026-1.484c.915 0 1.856.014 2.64.094l-.01-.045-.005-.034a2.037 2.037 0 0 1-.052-.398c0-.106.027-.28.067-.503-1.274.065-2.441.078-3.542.078-1.02 0-2.493-.013-3.54-.078zm-14.087.568c2.174 0 3.115 1.803 3.115 3.724 0 1.1-.132 2.134-.676 2.968A2.892 2.892 0 0 1 4.972 35.2c-2.453 0-3.156-2.332-3.156-3.79 0-3.339 1.79-4.24 3.143-4.24zm33.504.08c.437 0 .875.065 1.236.331.463.345.556.823.556 1.38 0 .86-.491 1.827-1.818 1.827-.245 0-.476-.014-.68-.026l-.234-.013v-3.434c.062-.004.154-.01.256-.02.227-.02.512-.045.684-.045zm-23.63 1.484 1.245 3.26-.04.003a17.81 17.81 0 0 1-1.18.05 15.682 15.682 0 0 1-.834-.028c-.18-.01-.36-.02-.544-.025zm14.762 0 1.248 3.26-.033.002c-.399.026-.787.052-1.186.052a15.696 15.696 0 0 1-.835-.03c-.18-.008-.362-.018-.546-.024zm10.18 8.473c-.197 0-.249.086-.249.245 0 .158.07.213.25.213s.31-.07.31-.213c0-.144-.084-.245-.31-.245zm.7 0c-.196 0-.25.086-.25.245 0 .158.068.213.25.213s.308-.07.308-.213c0-.144-.083-.245-.307-.245zm-10.997.042c-.2 0-.252.085-.252.244 0 .157.07.215.252.215.18 0 .307-.072.307-.215 0-.145-.085-.244-.307-.244zm.674 0c-.2 0-.25.085-.25.244 0 .157.068.215.25.215.183 0 .306-.072.306-.215 0-.145-.084-.244-.306-.244zm5.014.015s-.305.214-.531.385c-.224.172 0 .287 0 .287v1.82h-.643l-.015-1.563s-.448.327-.577.427c-.124.1-.054.188.086.188 0 0-.026 1.154-.026 1.425 0 .275-.226.587-.704.445 0 0-.152.029-.026.144.125.114.278.2.446.2.168 0 .786-.117.786-.788h8.094v-2.916s-.477.315-.573.4c-.098.088-.07.19.058.175v1.864h-.699v-1.693s-.143.056-.34.142c-.194.088-.896.375-.896.759v.446h.717v.347h-1.699c.002-.082.003-.202.003-.379 0-.555-.474-.858-.896-.858h-1.962c-.345 0-.51.084-.603.178zm7.82.06c-.002 0-.48.314-.576.4-.098.085-.069.187.056.172v2.342h.52zm-12.314.251s-.576.53-.63.601c-.056.075.137.143.137.143l-.032.207s-.23.118-.508.306c-.278.186-.483.423-.483.588 0 .165-.07.811-.07.811h3.668v-1.729h-.002v.001s-.33.19-.54.377c-.21.185.042.255.042.255v.622h-1.582zm9.65 1.175v.287h-.335c0-.184.336-.287.336-.287zm-4.75.27h2.146c.463 0 .39.245.39.404 0 .084-.004.222-.007.333h-2.936v-.515c.077-.198.207-.221.408-.221zm-5.407.045v.692h-.545s-.074-.333.124-.462c.198-.13.42-.23.42-.23zm1.008 1.357c-.197 0-.251.085-.251.244 0 .156.068.215.251.215.18 0 .31-.073.31-.215 0-.145-.084-.244-.31-.244zm.702 0c-.199 0-.251.085-.251.244 0 .156.07.215.25.215.185 0 .31-.073.31-.215 0-.145-.084-.244-.31-.244z" fill="#662046"/></svg>