<svg role="img" viewBox="0 0 64 64" xmlns="http://www.w3.org/2000/svg"><title>Singapore Airlines</title><path d="m52.586 20.2637-1.166 1.75c-.462.7122-.0606 1.4765-.0606 1.4765l5.3515 8.8516c1.2346 2.1213-.5234 4.4316-.5234 4.4316l-3.2285 5.0098h2.6758c1.3553 0 1.9687-1.1074 1.9687-1.1074l1.6895-2.6133c.6136-.9559 1.418-.9863 1.418-.9863h1.539c-.9548.4015-1.3867 1.3867-1.3867 1.3867l-1.9024 2.9258c-.7422 1.1066-1.6074.9472-1.6074.9472h-7.6523l3.6308-5.6601c.8553-1.2883 0-2.3653 0-2.3653l-4.836-7.834-1.0155 1.5372c-.8867 1.4178-.0313 2.2441-.0313 2.2441l3.4785 5.5918c.7722 1.1665.2207 1.8711.2207 1.8711l-3.9101 6h10.2754c1.902 0 2.6152-1.5371 2.6152-1.5371l2.1816-3.289c.5234-.8331 1.6895-.711 1.6895-.711l-1.4785-2.334h-2.1211c-1.5081 0-2.0899 1.2578-2.0899 1.2578l-2 3.045h-.0039c-.1827.2198-.3939.4944-.6132.3437-.2122-.1523.0918-.5547.0918-.5547l2.6816-4.1836c.3943-.6513 1.1055-1.9407 1.1055-3.0762 0-1.1365-.8926-2.6054-.8926-2.6054l-6.0938-9.8125zm-1.9297 3.0742-1.3555 2.0312c-.401.6746 0 1.3809 0 1.3809l4.584 7.5918c.644 1.1365.1504 2.2129.1504 2.2129L50.748 41.744h1.629l3.537-5.4941c1.5082-2.2803.1212-4.121.1212-4.121l-5.379-8.7911zm-20.1036 6.1543c-1.3708 0-2.4863 1.113-2.4863 2.4844 0 1.364 1.115 2.4785 2.4863 2.4785 1.3709 0 2.4766-1.1144 2.4766-2.4785 0-1.3709-1.1057-2.4844-2.4766-2.4844zm-29.371.2793s-1.1602-.0066-1.1602 1.373c0 1.3719 1.1758 1.2871 1.1758 1.2871h1.5234c.144 0 .5371-.0655.5371.5704 0 .6358-.5215.5351-.5215.5351H.0977v.7734l.002.002h2.9316s1.1738.0077 1.1738-1.3574c0-1.3559-1.1446-1.2344-1.1446-1.2344H1.7051c-.3412 0-.7207-.0977-.7207-.621 0-.5234.5527-.5235.5527-.5235h2.539v-.8047H1.1817zm4.0234 0v4.539h.9336v-4.539H5.205zm2.2441 0v4.539h.9473v-3.7343h1.6289c.6519 0 .6894.621.6894.621v3.1133h.963v-2.9687c0-1.6516-1.5548-1.5703-1.5548-1.5703H8.9941l-.5976.6973v-.6973h-.9473zm7.252 0c-.6065 0-2.1757.531-2.1602 2.3262.015 1.8105 1.7357 2.2128 2.0918 2.2128h2.3867v-2.871h-.9101v2.082H14.83v.002c-.144 0-1.3184-.296-1.3184-1.4551 0-1.4927 1.416-1.4922 1.416-1.4922h2.1153v-.8047h-2.3418zm5.084 0-2.1602 4.539h1.0156l.5899-1.3261h2.1015l.5664 1.3261h1.0547l-2.1308-4.539h-1.0371zm3.7578 0v4.539h.9629v-2.205l.5078.6894h1.0683c.4774 0 1.4395-.3023 1.4395-1.6133 0-1.3181-1.3262-1.4101-1.3262-1.4101H23.543zm10.246 0v4.539h.9473v-3.8027h1.332c.1745 0 .7422.0453.7422.7266 0 .7122-.705.7285-.705.7285h-.9844l1.8965 2.3476h1.166l-1.3711-1.6972c1.0978-.4398.9844-1.5156.9844-1.5156 0-1.3038-1.3047-1.3262-1.3047-1.3262H33.789zm5.1895 0v4.539h3.5703v-.75h-2.623v-1.1054h2.2344v-.8262h-2.2344v-1.1055h2.623v-.752h-3.5703zm-8.4258.6289c.864 0 1.5762.7044 1.5762 1.5762 0 .8567-.7122 1.5703-1.5762 1.5703-.8712 0-1.5761-.7136-1.5761-1.5703 0-.8713.705-1.5762 1.5761-1.5762zm-6.0625.0683h1.2657s.8496-.0452.8496.7657c0 .7122-.6902.7285-.8496.7285h-1.2657v-1.4942zm-4.1972.1211.705 1.6153h-1.4257l.7207-1.6153zm-9.373 5.3047-2.168 4.5547h1.0156l.5918-1.334h2.0976l.5762 1.334h1.045l-2.129-4.5547H10.92zm3.8417 0v4.5547h.9317v-4.5547h-.9317zm2.379 0v4.5547h.9452V36.629h1.334c.1745 0 .7422.054.7422.7285 0 .7123-.7031.7266-.7031.7266h-.9844l1.8945 2.3652h1.166l-1.371-1.707c1.1065-.4387.9843-1.5215.9843-1.5215 0-1.3032-1.3027-1.3262-1.3027-1.3262h-2.705zm5.1679 0v4.5547h3.2578v-.8047H23.256v-3.75h-.9473zm3.9863 0v4.5547h.9395v-4.5547h-.9395zm2.1739 0V40.4492h.955v-3.75h1.629c.6503 0 .6816.6211.6816.6211v3.129h.9629v-2.9864c0-1.6521-1.545-1.5684-1.545-1.5684h-1.1308l-.5977.7051v-.705h-.955zm5.4843 0v4.5547h3.5703v-.7597h-2.621v-1.1036h2.2265v-.828h-2.2266v-1.1134h2.6211v-.75H33.9531zm5.6934 0s-1.1602-.0002-1.1602 1.3711c0 1.3791 1.1758 1.2969 1.1758 1.2969h1.5215c.144 0 .539-.0675.539.5684 0 .6358-.5234.537-.5234.537h-2.6367v.7735h2.9336s1.1738.0067 1.1738-1.3574c0-1.3641-1.1445-1.2422-1.1445-1.2422h-1.3555c-.3489 0-.7207-.0983-.7207-.6211 0-.5228.5528-.5234.5528-.5234h2.539v-.8028h-2.8945zm-28.2188.8184.6953 1.6289h-1.416l.7207-1.629zM0 42.3652v1.3711h43.4277l.879-1.371H0z"/></svg>