<svg role="img" viewBox="0 0 64 64" xmlns="http://www.w3.org/2000/svg"><title>Starlux Airlines</title><path d="M7.53 26.092c-.124 0-.249.042-.374.042h-.083c-.416.125-.749.29-1.082.54-.083.083-.166.125-.25.209L.708 32h3.454c.79 0 1.54-.292 2.08-.833l4.16-4.16a4.273 4.273 0 0 1 1.582-.915zm4.952.416s-.083 1.29-.25 1.997c0 0 0 .042-.041.042l-.707-.5s.416.541.5.708c0 0-.001.041-.043.041-.457.125-1.789.25-1.789.25s1.332.125 1.79.291l.041.041c-.041.167-.458.666-.458.666l.708-.416s.04 0 .04.042c.126.707.25 1.998.25 1.998s.084-1.29.25-1.998c0 0 0-.042.042-.042l.708.416c0-.041-.416-.54-.5-.707 0-.041 0-.041.041-.041.458-.125 1.79-.292 1.79-.292s-1.332-.083-1.79-.208l-.04-.041c.041-.167.457-.707.457-.707l-.707.499s-.042 0-.042-.042c-.125-.707-.25-1.997-.25-1.997zm6.617 5.098c-1.663 0-2.539.22-2.539 1.663 0 1.663.875 1.794 3.326 1.794h1.094c1.007 0 1.27.132 1.27.832 0 .832-.35.963-1.489.963h-4.157a.189.189 0 0 0-.175.175v.656c0 .088.087.175.175.175h4.508c1.225 0 2.45-.131 2.45-1.62v-.524c0-1.05-.744-1.532-2.32-1.532h-1.969c-1.313 0-1.4-.175-1.4-.788 0-.841.366-.838 1.536-.832l.346.001h3.413a.189.189 0 0 0 .176-.175v-.613a.189.189 0 0 0-.176-.175zm31.421 0a.282.282 0 0 0-.262.262v3.852c0 1.225 1.357 2.144 3.238 2.144 1.882 0 3.239-.875 3.239-2.144v-3.852c0-.13-.132-.262-.263-.262h-.831c-.131 0-.263.131-.263.262v3.72c0 .788-.744 1.313-1.882 1.313-1.181 0-1.882-.481-1.882-1.313v-3.72a.282.282 0 0 0-.262-.262zm-26.564.044a.189.189 0 0 0-.175.175v.481c0 .088.088.175.175.175h2.189c.087 0 .175.088.175.175v5.077c0 .087.087.175.174.175h1.007a.189.189 0 0 0 .175-.175v-5.077c0-.087.088-.175.175-.175h2.189c.087 0 .174-.087.174-.175v-.481c0-.088-.087-.175-.174-.175zm8.227 0c-.13 0-.218.044-.262.131l-3.239 6.083h1.139c.175 0 .305-.13.393-.262.394-.7 2.276-4.552 2.276-4.552.044-.043.044-.043.087-.043 0 0 .044 0 .044.043l2.276 4.596a.46.46 0 0 0 .394.218h1.181l-3.238-6.083c-.088-.087-.175-.131-.263-.131zm25.252 0a.189.189 0 0 0-.175.175c0 .044 0 .088.043.131l2.277 2.67c.043.044.043.088 0 .131l-2.714 3.107h1.226c.262 0 .393-.087.48-.175l1.751-2.056c0-.044.044-.045.087-.045.019 0 .03 0 .04.004.012.004.023.016.048.04l1.795 2.057c.087.088.218.175.48.175H64l-2.714-3.107c0-.043 0-.087.044-.131l2.275-2.67c.044-.043.044-.087.044-.131a.189.189 0 0 0-.175-.175h-.831c-.175 0-.395.087-.482.175l-1.619 1.838c0 .044-.043.044-.087.044-.018 0-.03 0-.04-.003-.012-.005-.023-.015-.048-.04l-1.619-1.84c-.088-.087-.306-.174-.481-.174zm-20.263.044c-.087 0-.175.087-.175.174v5.865c0 .087.088.175.175.175h1.051a.189.189 0 0 0 .175-.175V32.7c0-.175.131-.219.219-.219h1.662c.061 0 .15.01.247.02.11.012.23.024.323.024.175 0 .525.088.743.175.35.131.482.394.482.7-.043.744-.831.963-1.269.963h-1.138l2.32 3.326a.562.562 0 0 0 .437.175h1.313s-.131-.175-1.97-2.582c-.087-.044-.087-.088-.087-.131 0 0 0-.044.131-.088.044 0 1.532-.394 1.532-1.663 0-.481-.35-.963-.919-1.313-.656-.394-1.488-.393-1.575-.393zm7.265 0a.282.282 0 0 0-.262.262v5.69c0 .13.13.262.262.262h5.383a.189.189 0 0 0 .175-.175v-.569a.189.189 0 0 0-.175-.175s-4.114 0-4.114.044a.189.189 0 0 1-.175-.175v-4.902a.282.282 0 0 0-.262-.262zM7.864 32c-.79 0-1.54.333-2.122.874l-4.12 4.119A3.46 3.46 0 0 1 0 37.908h4.411c.125 0 .25-.042.374-.042h.083c.375-.125.75-.29 1.082-.54.084-.083.167-.125.25-.209L11.317 32Z"/></svg>