<svg role="img" viewBox="0 0 64 64" xmlns="http://www.w3.org/2000/svg"><title>Starlux Airlines</title><path d="M21.244 34.188c1.575 0 2.319.482 2.319 1.532v.525c0 1.488-1.225 1.62-2.45 1.62h-4.508a.188.188 0 0 1-.175-.176v-.656c0-.088.087-.175.175-.175h4.157c1.138 0 1.488-.132 1.488-.963 0-.7-.262-.832-1.269-.832h-1.094c-2.45 0-3.326-.13-3.326-1.794 0-1.444.875-1.663 2.538-1.663h4.07c.088 0 .175.088.175.175v.613a.188.188 0 0 1-.175.175h-3.413l-.346-.001c-1.17-.007-1.536-.009-1.536.832 0 .613.087.788 1.4.788zm20.524 1.094c1.838 2.407 1.97 2.582 1.97 2.582h-1.313a.562.562 0 0 1-.438-.175l-2.32-3.326h1.139c.437 0 1.225-.219 1.269-.963 0-.306-.132-.569-.482-.7-.218-.087-.569-.175-.744-.175a3.31 3.31 0 0 1-.323-.024c-.095-.01-.185-.02-.246-.02h-1.663c-.087 0-.218.044-.218.22v5.032a.188.188 0 0 1-.175.175h-1.05a.188.188 0 0 1-.176-.175v-5.864c0-.088.088-.175.175-.175h3.676c.088 0 .92 0 1.576.394.569.35.919.831.919 1.312 0 1.27-1.488 1.663-1.532 1.663-.131.044-.131.088-.131.088 0 .044 0 .087.087.131zm8.228 1.882a.188.188 0 0 0-.175-.175s-4.114 0-4.114.044a.188.188 0 0 1-.175-.175v-4.902a.282.282 0 0 0-.263-.262h-.831a.282.282 0 0 0-.263.262v5.69c0 .13.132.262.263.262h5.383a.188.188 0 0 0 .175-.175zm6.477-5.558c.131 0 .262.131.262.263v3.85c0 1.27-1.356 2.145-3.238 2.145s-3.239-.919-3.239-2.144v-3.851c0-.132.132-.263.263-.263h.832c.13 0 .262.131.262.263v3.72c0 .831.7 1.312 1.882 1.312 1.138 0 1.882-.525 1.882-1.312v-3.72c0-.132.131-.263.262-.263zM64 37.864l-2.713-3.107c0-.044 0-.087.043-.131l2.276-2.67c.044-.044.044-.087.044-.131a.188.188 0 0 0-.175-.175h-.832c-.175 0-.394.087-.481.175l-1.62 1.838c0 .044-.043.044-.087.044-.018 0-.03 0-.039-.003-.012-.005-.023-.016-.048-.041l-1.62-1.838c-.087-.088-.306-.175-.48-.175h-.832a.188.188 0 0 0-.175.175c0 .044 0 .087.043.131l2.276 2.67c.044.043.044.087 0 .131l-2.713 3.107h1.225c.263 0 .394-.087.481-.175l1.75-2.057c0-.043.045-.043.088-.043.019 0 .03 0 .04.003.012.004.023.015.048.04l1.794 2.057c.088.088.22.175.482.175zm-28.709 0a.46.46 0 0 1-.393-.219l-2.276-4.595c0-.043-.044-.043-.044-.043-.044 0-.044 0-.087.043 0 0-1.882 3.851-2.276 4.552-.088.13-.219.262-.394.262h-1.138l3.239-6.083c.044-.087.131-.131.262-.131h.788c.088 0 .175.044.263.131l3.238 6.083zm-5.076-6.04a.188.188 0 0 0-.175-.174h-6.083a.188.188 0 0 0-.175.175v.481c0 .088.087.175.175.175h2.188c.088 0 .175.088.175.175v5.077c0 .087.088.175.175.175h1.007a.188.188 0 0 0 .175-.175v-5.077c0-.087.087-.175.175-.175h2.188a.188.188 0 0 0 .175-.175z" fill="#3F464A"/><path d="m5.742 32.874-4.12 4.119A3.46 3.46 0 0 1 0 37.908h4.41c.125 0 .25-.042.375-.042h.083a3.767 3.767 0 0 0 1.082-.54c.083-.084.166-.125.25-.209L11.316 32H7.863c-.79 0-1.539.333-2.121.874z" fill="#84754E"/><path d="M7.53 26.092c-.125 0-.25.042-.374.042h-.083c-.416.125-.75.29-1.082.54-.083.083-.166.125-.25.209L.707 32H4.16c.79 0 1.539-.292 2.08-.833l4.16-4.16a4.273 4.273 0 0 1 1.582-.915zm4.952.416s-.083 1.29-.25 1.997c0 0 0 .042-.042.042l-.706-.5s.415.541.499.708c0 0 0 .041-.042.041-.458.125-1.79.25-1.79.25s1.332.125 1.79.291l.042.041c-.042.167-.458.666-.458.666l.707-.416s.041 0 .041.042c.125.707.25 1.997.25 1.997s.084-1.29.25-1.997c0 0 0-.042.041-.042l.708.416c0-.041-.416-.54-.5-.707 0-.041 0-.041.042-.041.458-.125 1.789-.292 1.789-.292s-1.331-.083-1.79-.208l-.04-.041c.042-.167.457-.707.457-.707l-.707.499s-.042 0-.042-.042c-.124-.707-.25-1.997-.25-1.997z" fill="#996A4E"/></svg>