<svg role="img" viewBox="0 0 64 64" xmlns="http://www.w3.org/2000/svg"><title>SWISS</title><path d="M11.894 24.586 0 39.414h16.228l3.654-14.828zm48.283 2.418c-1.23.015-2.266.368-2.914 1.007a2.535 2.535 0 0 0-.727 1.78c0 1.767 1.178 2.475 2.514 2.88 1.499.457 2.49.73 2.49 1.555 0 .55-.436 1.1-1.296 1.1-1.098 0-1.496-.648-1.522-1.296h-2.366c0 2.187 1.84 2.993 3.887 2.993 2.6 0 3.757-1.48 3.757-2.972l-.01-.016c0-2.092-1.53-2.645-3.369-3.196-.89-.259-1.684-.495-1.684-1.268 0-.678.685-.907 1.202-.907.435 0 1.258.092 1.324 1.099h2.332c-.04-1.922-1.61-2.759-3.618-2.759zm-8.472.004c-1.245 0-2.279.354-2.924.993a2.53 2.53 0 0 0-.728 1.78c0 1.767 1.178 2.474 2.515 2.88 1.497.457 2.491.73 2.491 1.554 0 .55-.436 1.1-1.295 1.1-1.099 0-1.498-.647-1.521-1.295h-2.358c0 2.187 1.842 2.987 3.879 2.987 2.59 0 3.748-1.48 3.748-2.972v.004c0-2.092-1.521-2.645-3.367-3.196-.888-.259-1.685-.495-1.685-1.268 0-.678.69-.907 1.207-.907.439 0 1.256.092 1.322 1.098h2.332c-.04-1.92-1.601-2.758-3.616-2.758zm-26.378.004c-1.247 0-2.277.354-2.926.993a2.525 2.525 0 0 0-.728 1.78c0 1.767 1.18 2.474 2.513 2.88 1.5.457 2.49.73 2.49 1.554 0 .55-.437 1.1-1.295 1.1-1.096 0-1.494-.648-1.52-1.296h-2.357c0 2.187 1.843 2.988 3.877 2.988 2.591 0 3.703-1.48 3.703-2.972l-.006.004c0-1.814-.965-2.43-3.075-3.117-.995-.324-1.924-.574-1.924-1.348 0-.677.69-.906 1.206-.906.437 0 1.258.092 1.324 1.098h2.332c-.04-1.921-1.602-2.758-3.614-2.758zm3.952.227 2.62 9.49h2.55l1.877-6.508 1.88 6.508h2.543l2.627-9.49h-2.41l-1.59 6.36-1.857-6.36h-2.381l-1.855 6.36-1.59-6.36zm15.055 0v9.49h2.461v-9.49Zm-33.326.2h2.736v3.193h3.194v2.736h-3.194v3.193h-2.738v-3.193h-3.19v-2.736h3.192Z"/></svg>