<svg role="img" viewBox="0 0 64 64" xmlns="http://www.w3.org/2000/svg"><title>SWISS</title><path d="M11.895 24.586 0 39.414h16.229l3.652-14.828h-7.986zm48.283 2.418c-1.23.014-2.267.369-2.914 1.008a2.535 2.535 0 0 0-.727 1.779c0 1.767 1.176 2.475 2.512 2.88 1.499.458 2.49.732 2.49 1.556 0 .55-.435 1.1-1.295 1.1-1.098 0-1.495-.65-1.521-1.298h-2.368c0 2.187 1.84 2.994 3.887 2.994 2.6 0 3.758-1.48 3.758-2.972l-.01-.016c0-2.092-1.53-2.645-3.369-3.195-.89-.26-1.684-.496-1.684-1.27 0-.677.685-.906 1.202-.906.435 0 1.258.091 1.324 1.098h2.332c-.04-1.922-1.61-2.758-3.617-2.758zm-8.473.004c-1.245 0-2.279.353-2.924.992a2.53 2.53 0 0 0-.728 1.781c0 1.767 1.178 2.474 2.515 2.88 1.498.456 2.49.73 2.49 1.554 0 .55-.435 1.1-1.294 1.1-1.099 0-1.498-.648-1.522-1.295h-2.357c0 2.186 1.842 2.988 3.879 2.988 2.59 0 3.748-1.48 3.748-2.973l.002.004c0-2.092-1.523-2.645-3.37-3.195-.887-.26-1.683-.496-1.683-1.27 0-.677.688-.906 1.205-.906.44 0 1.256.091 1.322 1.098h2.332c-.04-1.922-1.6-2.758-3.615-2.758zm-26.379.004c-1.246 0-2.277.353-2.926.992a2.525 2.525 0 0 0-.728 1.781c0 1.767 1.18 2.474 2.514 2.88 1.499.456 2.49.73 2.49 1.554 0 .55-.437 1.1-1.295 1.1-1.096 0-1.494-.648-1.52-1.296h-2.357c0 2.187 1.843 2.989 3.877 2.989 2.591 0 3.703-1.48 3.703-2.973l-.006.004c0-1.814-.966-2.43-3.076-3.117-.995-.324-1.924-.574-1.924-1.348 0-.677.692-.906 1.207-.906.437 0 1.258.09 1.324 1.098h2.332c-.04-1.922-1.603-2.758-3.615-2.758zm3.953.226 2.62 9.49h2.548l1.88-6.507 1.878 6.508h2.543l2.627-9.49h-2.41l-1.59 6.36-1.855-6.36h-2.383l-1.854 6.36-1.59-6.36H29.28zm15.055 0v9.49h2.46v-9.49h-2.46z" fill="#CF0A2C"/><path d="M16.938 33.368v-2.736h-3.193V27.44h-2.737v3.192H7.816v2.736h3.19v3.194h2.737v-3.194h.002z" fill="#FFFFFF"/></svg>