<svg role="img" viewBox="0 0 64 64" xmlns="http://www.w3.org/2000/svg"><title>TAP Air Portugal</title><path d="m7.066 28.191 2.176 7.618V33.63h1.633a2.72 2.72 0 1 0 0-5.44zm2.176 2.176h1.633a.544.544 0 0 1 0 1.09H9.242Z" fill="#ED1C24"/><path d="M7.066 28.191v7.618h2.176z" fill="#B82025"/><path id="path15" d="M0 28.191v2.176h1.627v5.442l2.176-7.618H0zm5.434 0v2.176l.572 1.904H4.863l.57-1.904h-1.63v5.442l.408-1.362h2.44v-.023l.415 1.385V28.19H5.434z" fill="#BFD730"/><path d="M3.803 28.191 1.627 35.81h2.176v-5.442h1.63v-2.176Z" fill="#72BF44"/><path d="M34.453 29.369c-1.515 0-2.641 1.108-2.641 2.693 0 1.477 1.06 2.569 2.575 2.569h.009c1.446 0 2.645-.996 2.645-2.686 0-1.472-1.03-2.576-2.588-2.576zm19.287.039c-1.973 0-3.026 1.254-3.026 2.614 0 .744.278 1.41.74 1.841.545.512 1.253.73 2.133.73.807 0 1.462-.196 1.783-.314v-2.41H53.54v.54h1.152v1.466c-.187.094-.536.162-1.044.162-1.379 0-2.212-.848-2.212-2.044 0-1.17.849-2.025 2.28-2.025.595 0 .987.107 1.302.248l.177-.546c-.24-.112-.778-.262-1.454-.262zm-24.396.006c-.598 0-1.059.046-1.405.103v5.024h.683v-2.022c.177.048.389.059.622.059.705 0 1.295-.186 1.67-.555.28-.264.425-.645.425-1.102 0-.457-.184-.825-.47-1.069-.32-.277-.823-.438-1.525-.438zm9.62 0c-.503 0-1.04.046-1.402.112v5.015h.679v-2.199h.755c.627.028.92.3 1.084.995.151.64.272 1.059.355 1.204h.709c-.112-.212-.24-.716-.424-1.432-.126-.48-.373-.848-.765-.992V32.1c.54-.167 1.006-.616 1.006-1.292 0-.396-.163-.743-.415-.956-.332-.296-.819-.437-1.582-.437zm-14.777 0c-.496 0-1.043.044-1.428.115l-.11.02v4.992h.95v-1.93h.613c.566.024.808.25.96.891.133.563.22.865.282 1.039h.998c-.093-.22-.204-.65-.352-1.222l-.029-.11c-.114-.436-.317-.76-.594-.952.442-.219.84-.649.84-1.315 0-.425-.168-.811-.459-1.057-.366-.325-.88-.47-1.671-.47zm-7.319.044-1.797 5.083h1.02l.486-1.474h1.815l.524 1.474h1.067l-1.851-5.083zm3.745 0v5.083h.972v-5.083zm20.688 0v.566h1.754v4.517h.687v-4.517h1.762v-.566zm4.606 0v2.864c0 1.686.88 2.309 2.009 2.309 1.22 0 2.13-.68 2.13-2.324v-2.85h-.686v2.883c0 1.19-.557 1.745-1.41 1.745-.787 0-1.355-.54-1.355-1.745v-2.882zm11.808 0-1.918 5.083h.72l.589-1.622h2.026l.615 1.622h.744l-1.938-5.083zm3.176 0v5.083H64v-.573h-2.423v-4.51zm-26.466.452c1.238 0 1.884 1.034 1.884 2.068 0 1.206-.724 2.113-1.897 2.113h-.007c-1.157 0-1.877-.95-1.877-2.05 0-1.14.658-2.131 1.897-2.131zm4.582.029c.715 0 1.27.258 1.27.941 0 .576-.47.95-1.223.95h-.813v-1.825a3.48 3.48 0 0 1 .766-.066zm-9.664.008c.744 0 1.312.285 1.312 1.007 0 .686-.512 1.083-1.384 1.083-.255 0-.475-.019-.649-.07v-1.962c.13-.026.38-.058.72-.058zm28.761.075h.014c.08.262.16.526.281.849l.582 1.52h-1.726l.582-1.534c.107-.299.188-.568.267-.835zm-40.65.15h.016c.084.276.174.58.282.889l.464 1.28h-1.467l.45-1.286c.098-.295.178-.604.255-.884zm6.775.035c.518 0 1.135.14 1.135.807 0 .504-.417.817-1.088.817h-.678v-1.582c.115-.019.319-.042.63-.042z" fill="#1D1D1B"/></svg>