<svg role="img" viewBox="0 0 64 64" xmlns="http://www.w3.org/2000/svg"><title>TAROM</title><path d="m18.326 22.176-.127.01-.129.043-.126.074-.118.095-.234.215-.225.233L.117 41.109l-.074.118-.043.119.01.117.055.105.086.096.105.086.117.055.15.01h15.8l.16-.01.136-.033.14-.075.138-.086.129-.095.107-.118.096-.128 7.703-18.4.04-.14.013-.117-.012-.117-.031-.107c0-.011-.075-.086-.075-.086l-.095-.063-.108-.054-.138-.01zm8.108.01s-.01.01-.01.03h.021S18.21 41.815 18.2 41.825h1.131c.022-.01 8.278-19.607 8.278-19.607zM14.36 29.023c2.57 0 4.65 2.102 4.65 4.663 0 2.581-2.08 4.683-4.65 4.683-2.582 0-4.696-2.102-4.696-4.683.01-2.571 2.114-4.663 4.696-4.663zm0 .342a4.323 4.323 0 0 0-4.323 4.31c0 .662.14 1.28.397 1.835.298-.33.779-.64 1.13-.672.22-.023.39.003.604.035.088.013.183.027.291.04l4.62-4.565a4.328 4.328 0 0 0-2.72-.983Zm34.703.608c-.252 0-.546.073-.694.256a.43.43 0 0 0-.052.085l-2.05 4.866c-.067.172-.046.394.03.605.025.07.057.14.094.205.11.197.265.362.431.432a.44.44 0 0 0 .17.037h4.342c.168 0 .351-.05.524-.133a1.6 1.6 0 0 0 .322-.207c.146-.12.264-.266.328-.418l2.006-4.78c.128-.287-.16-.938-.524-.948zm-21.9.011c-.086 0-.193.096-.225.192l-.246.586c-.086.192.086.363.267.363h1.526c.02 0 .138.086.117.129l-2.102 4.94c-.053.138.087.277.215.277h2.623c.128 0 .31-.183.342-.29l1.994-4.822c.032-.096.193-.234.268-.234h1.312c.181-.021.276-.118.34-.268l.268-.638c.042-.096-.032-.235-.17-.235zm7.925 0c-.117 0-.267.074-.32.17l-4.065 5.985c-.064.106.033.32.225.32h2.25c.33 0 .45-.043.674-.32l2.12-3.274-.2 1.323h-.237l-.715 1.066h.737l-.149.875c-.032.235-.022.33.192.33h1.877c.181 0 .405-.149.437-.33l1.004-5.91c.021-.16-.075-.235-.203-.235zm6.176 0c-.118 0-.286-.011-.393.245l-2.486 5.888c-.064.192.16.342.342.342h2.635l2.207-5.248h.48c.085 0 .16.14.117.225l-.767 1.812c-.043.117-.182.234-.3.234h-.128l-.502 1.174.076.012c.064 0 .255.213.149.469l-.393.918c-.075.17.095.404.266.404h2.154c.17 0 .416-.17.48-.33l.235-.588c.138-.33.033-1.077-.244-1.3.394 0 .798-.3.916-.62l1.1-2.57c.223-.566-.172-1.067-.684-1.067Zm14.67 0c-.16 0-.3-.001-.406.223l-2.475 5.857c-.117.267.075.407.267.407h2.272c.224 0 .469-.161.564-.385l.971-2.314.193 2.367c.011.362.416.192.565 0l1.889-2.496-.971 2.443c-.117.32.213.385.394.385h2.08c.192 0 .406-.172.481-.364l2.229-5.783c.053-.17-.063-.34-.202-.34H60.83a.59.59 0 0 0-.449.235l-1.92 2.57-.064-2.57c0-.118-.182-.235-.278-.235zm-38.705.5-3.168 4.717 3.978.725c.406-.662.62-1.408.62-2.24a4.34 4.34 0 0 0-1.43-3.202zm33.818.758h.256c.085 0 .181.214.139.3l-1.418 3.38a.485.485 0 0 1-.407.267h-.224c-.097 0-.225-.202-.182-.298l1.42-3.35c.064-.15.235-.299.416-.299zm-39.617 4.3a5.893 5.893 0 0 0-.934.106 4.364 4.364 0 0 0 3.873 2.358 4.295 4.295 0 0 0 3.575-1.932l-3.692-.213 2.006 1.643-3.713-1.834a4.064 4.064 0 0 0-.98-.129h-.135zm18.824 1.644-.32 1.587.14.034.223-1.174.48 1.174.47-1.174.234 1.174.129-.034-.311-1.587-.521 1.279zm2.572.01-.8 1.556.128.043.32-.64h.682l.32.63.128-.043zm4.715 0-.8 1.556.128.043.32-.64h.682l.32.63.128-.043zm4.906 0-.798 1.556.127.043.31-.64h.682l.32.63.139-.043zm8.194 0-.801 1.556.129.043.32-.64h.684l.318.63.139-.043zm-22.04.011a.876.876 0 0 0-.298.053.648.648 0 0 0-.256.16.818.818 0 0 0-.246.586c0 .107.022.213.064.309a.792.792 0 0 0 .182.267c.075.075.16.128.256.16a.708.708 0 0 0 .299.053c.106 0 .213-.02.299-.053a.544.544 0 0 0 .244-.16.818.818 0 0 0 .182-.906.654.654 0 0 0-.182-.256.69.69 0 0 0-.244-.16.707.707 0 0 0-.3-.053zm5.548 0v1.588l.127-.031v-1.205l1.035 1.236v-1.588l-.127.031v1.205zm4.714 0v1.588l.127-.031v-1.205l1.036 1.236v-1.588l-.14.031v1.205zm13.1 0v1.588l.127-.031v-1.205l1.035 1.236v-1.588l-.127.031v1.205zm5.633 0a.877.877 0 0 0-.299.053.544.544 0 0 0-.244.16.57.57 0 0 0-.182.266.838.838 0 0 0-.076.32c.022.107.043.213.086.309a.793.793 0 0 0 .428.427.708.708 0 0 0 .299.053c.106 0 .2-.02.296-.053a.55.55 0 0 0 .247-.16.659.659 0 0 0 .181-.267.67.67 0 0 0 .074-.32.635.635 0 0 0-.074-.32.65.65 0 0 0-.181-.255.646.646 0 0 0-.256-.16.707.707 0 0 0-.3-.053zm-21.41.01-.139.021v1.547l.139-.021zm7.713 0-.14.021v1.547l.14-.021zm10.39 0a.426.426 0 0 0-.32.117.342.342 0 0 0-.139.287c0 .107.032.192.096.256s.15.118.277.15c.011 0 .033.01.055.01.245.075.373.183.373.332 0 .086-.031.16-.096.213a.383.383 0 0 1-.246.086.353.353 0 0 1-.213-.055.489.489 0 0 1-.16-.17l-.117.084c.054.086.116.161.201.225a.558.558 0 0 0 .268.076.51.51 0 0 0 .351-.129.443.443 0 0 0 .139-.32.4.4 0 0 0-.084-.244c-.054-.075-.139-.118-.256-.16a.589.589 0 0 0-.119-.033c-.085-.032-.149-.053-.191-.075a.19.19 0 0 1-.108-.095.222.222 0 0 1-.031-.127c0-.086.032-.152.096-.205a.297.297 0 0 1 .213-.084.447.447 0 0 1 .341.148l.096-.105c-.075-.064-.126-.118-.201-.14a.496.496 0 0 0-.225-.042zm-27.844.01v1.558l.13-.021v-1.377h.107c.117 0 .192.022.256.086.064.053.095.127.095.234a.297.297 0 0 1-.095.235c-.054.053-.139.085-.256.085h-.108l.598.78.117-.086-.469-.586a.473.473 0 0 0 .266-.15.477.477 0 0 0 .096-.3.448.448 0 0 0-.139-.33.475.475 0 0 0-.351-.128zm18.19 0v1.558l.139-.021v-1.377h.107c.117 0 .202.022.266.086.064.053.095.127.095.234a.297.297 0 0 1-.095.235.417.417 0 0 1-.266.085h-.107l.586.78.128-.086-.468-.586a.473.473 0 0 0 .265-.15.478.478 0 0 0 .098-.3.45.45 0 0 0-.14-.33.475.475 0 0 0-.352-.128zm3.926 0v1.558l.138-.021h-.011v-1.377h.107c.107 0 .192.022.256.086.064.053.098.127.098.234a.298.298 0 0 1-.098.235.37.37 0 0 1-.256.085h-.107l.597.78.118-.086-.47-.586a.444.444 0 0 0 .374-.45.44.44 0 0 0-.127-.33.522.522 0 0 0-.363-.128zm10.517 0v1.558l.139-.021v-1.377h.107c.118 0 .203.022.256.086.064.053.096.127.096.234a.297.297 0 0 1-.096.235.369.369 0 0 1-.256.085h-.107l.586.78.129-.086-.48-.586a.476.476 0 0 0 .267-.15.475.475 0 0 0 .096-.3.44.44 0 0 0-.127-.33.48.48 0 0 0-.354-.128zm-12.052.011-.034.13h.416v1.417l.14-.021v-1.397h.394v-.129zm8.404 0v1.557l.139-.021v-.512h.119c.16 0 .296-.043.392-.139a.514.514 0 0 0 .15-.373.514.514 0 0 0-.15-.373c-.096-.096-.232-.139-.392-.139zm4.973 0-.034.13h.416v1.417l.139-.021v-1.397h.395v-.129zm-31.801.096c.192 0 .34.064.468.192a.653.653 0 0 1 .194.48.67.67 0 0 1-.194.48.625.625 0 0 1-.468.192.652.652 0 0 1-.662-.672c0-.192.064-.352.181-.48a.669.669 0 0 1 .48-.192zm29.015 0c.182 0 .34.064.47.192a.653.653 0 0 1 .192.48.67.67 0 0 1-.193.48.643.643 0 0 1-.469.192.626.626 0 0 1-.468-.192.653.653 0 0 1-.194-.48c0-.192.065-.352.194-.48a.642.642 0 0 1 .468-.192zm-2.048.033h.119c.117 0 .222.031.297.106.074.074.107.16.107.277 0 .117-.033.213-.107.277a.437.437 0 0 1-.297.108h-.12zm-22.754.106.277.554h-.555zm4.714 0 .278.554h-.555Zm4.897 0 .277.554h-.554zm8.215 0 .267.554h-.545z" fill="#003366"/></svg>