<svg role="img" viewBox="0 0 64 64" xmlns="http://www.w3.org/2000/svg"><title>Transavia</title><path d="M5.729 26.26C2.53 26.26 0 28.804 0 32.002c0 3.197 2.531 5.738 5.729 5.738 3.197.001 5.728-2.54 5.728-5.738V32c0-3.197-2.53-5.74-5.728-5.74zm50.726 1.238c-.392 0-.793.263-.793.785 0 .529.401.785.793.785.4 0 .8-.256.8-.785 0-.52-.398-.785-.8-.785zm-39.6.514-1.345.144v1.426h-1.008v1.16h1.008v2.442c0 1.313.754 1.923 1.883 1.923.48 0 .89-.112 1.177-.273l-.361-1.09a1.634 1.634 0 0 1-.656.154c-.449 0-.698-.257-.698-.777v-2.377h1.506v-1.162h-1.506Zm-11.609.33h.23c.322 0 .506.184.506.506v1.037h.954c.322 0 .505.183.505.506v.15c0 .321-.183.506-.505.506h-1.69a.602.602 0 0 1-.248-.049c.018.058.03.124.03.197v1.84c0 .783.47 1.322 1.206 1.322.633 0 1.116-.413 1.198-1.023.046-.333.183-.504.506-.504h.322v-.002c.288 0 .506.172.46.506-.172 1.334-1.092 2.219-2.484 2.219-1.495 0-2.45-1.034-2.45-2.518v-1.183H2.83c-.322 0-.506-.184-.506-.506v-.15c0-.323.184-.507.506-.507h1.691a.608.608 0 0 1 .249.047.611.611 0 0 1-.03-.195v-1.693c0-.321.185-.506.506-.506zM39.5 29.467c-1.169 0-2.467.4-2.467 1.713 0 1.209 1.088 1.528 2.082 1.656.567.073 1.362.128 1.362.65 0 .383-.433.56-.995.56-.633 0-1.465-.231-1.97-.76l-.68.898c.688.763 1.723.97 2.604.97 1.69 0 2.402-.767 2.402-1.736 0-1.226-1.153-1.53-2.082-1.65-.536-.073-1.361-.12-1.361-.649 0-.393.464-.562 1.04-.562.52 0 1.041.136 1.465.504l.682-.897c-.6-.52-1.296-.697-2.082-.697Zm-13.273.002c-1.499 0-2.795.937-2.795 2.844 0 1.907 1.296 2.841 2.795 2.841.936 0 1.538-.366 1.843-.87l.088.761h1.207v-5.463h-1.207l-.09.76c-.304-.505-.905-.873-1.841-.873zm-4.061.002c-.641 0-1.265.294-1.586.87l-.088-.759h-1.178v5.461h1.346v-2.922c0-1.057.577-1.426 1.266-1.426.4 0 .696.12.969.352l.609-1.074a1.987 1.987 0 0 0-1.338-.502Zm11.574 0c-.857 0-1.49.36-1.793.873l-.09-.762h-1.209v5.461h1.346v-2.93c0-.92.593-1.443 1.377-1.443.785 0 1.322.522 1.322 1.443v2.93h1.346v-3.13c0-1.627-1.01-2.442-2.299-2.442zm11.51 0c-1.498 0-2.795.935-2.795 2.842s1.297 2.841 2.795 2.841c.936 0 1.538-.366 1.842-.87l.09.761h1.209v-5.463H47.18l-.088.762c-.304-.505-.904-.873-1.842-.873Zm15.611 0c-1.498 0-2.797.935-2.797 2.842s1.3 2.841 2.797 2.841c.937 0 1.537-.366 1.84-.87l.09.761H64v-5.463h-1.209l-.09.762c-.304-.505-.903-.873-1.84-.873Zm-11.816.111 2.33 5.461h1.42l2.332-5.46h-1.402l-1.594 4.026-1.596-4.027zm6.736 0v5.461h1.348v-5.46zM26.412 30.64c.922 0 1.61.615 1.61 1.674 0 1.057-.688 1.673-1.61 1.673-.92 0-1.611-.616-1.611-1.673 0-1.058.69-1.674 1.611-1.674zm19.022 0c.922 0 1.61.615 1.61 1.674 0 1.057-.689 1.673-1.61 1.673-.92 0-1.61-.616-1.61-1.673 0-1.058.687-1.674 1.61-1.674zm15.61 0c.922 0 1.612.615 1.612 1.674 0 1.057-.69 1.673-1.611 1.673-.92 0-1.611-.616-1.611-1.673 0-1.058.689-1.674 1.61-1.674z"/></svg>