<svg role="img" viewBox="0 0 64 64" xmlns="http://www.w3.org/2000/svg"><title>Transavia</title><path d="M5.729 26.26C2.53 26.26 0 28.804 0 32.002c0 3.197 2.531 5.738 5.729 5.738 3.197.001 5.728-2.541 5.728-5.738V32c0-3.197-2.53-5.74-5.728-5.74zm50.724 1.238c-.392 0-.79.263-.79.785 0 .529.398.785.79.785.4 0 .803-.256.803-.785 0-.52-.401-.785-.803-.785zm-39.598.514-1.345.144v1.426h-1.008v1.16h1.008v2.442c0 1.313.754 1.923 1.883 1.923.48 0 .89-.112 1.177-.273l-.361-1.09a1.635 1.635 0 0 1-.656.154c-.449 0-.698-.257-.698-.777v-2.377h1.506v-1.162h-1.506v-1.57zM39.5 29.467c-1.169 0-2.467.4-2.467 1.713 0 1.209 1.088 1.528 2.082 1.656.567.073 1.362.128 1.362.65 0 .383-.433.56-.995.56-.633 0-1.465-.231-1.97-.76l-.68.898c.688.762 1.723.97 2.604.97 1.689 0 2.402-.767 2.402-1.736 0-1.226-1.155-1.53-2.084-1.65-.536-.073-1.36-.12-1.36-.649 0-.393.465-.562 1.042-.562.52 0 1.04.136 1.464.504l.682-.897c-.6-.52-1.296-.697-2.082-.697zm-13.273.002c-1.499 0-2.795.936-2.795 2.843 0 1.908 1.296 2.842 2.795 2.842.936 0 1.538-.366 1.843-.87l.088.76h1.207v-5.462h-1.207l-.09.76c-.304-.505-.905-.873-1.841-.873zm-4.061.002c-.641 0-1.265.294-1.586.87l-.088-.759h-1.178v5.461h1.346v-2.922c0-1.057.577-1.426 1.266-1.426.4 0 .696.12.969.352l.609-1.074a1.987 1.987 0 0 0-1.338-.502zm11.572 0c-.857 0-1.49.36-1.793.873l-.088-.762h-1.209v5.461h1.346v-2.93c0-.92.593-1.443 1.377-1.443.785 0 1.322.522 1.322 1.443v2.93h1.346v-3.13c0-1.627-1.011-2.442-2.3-2.442zm11.512 0c-1.498 0-2.795.934-2.795 2.841 0 1.908 1.297 2.842 2.795 2.842.936 0 1.536-.366 1.84-.87l.09.76h1.21v-5.462h-1.21l-.09.762c-.304-.505-.902-.873-1.84-.873zm15.611 0c-1.498 0-2.797.934-2.797 2.841 0 1.908 1.3 2.842 2.797 2.842.937 0 1.537-.366 1.84-.87l.09.76H64v-5.462h-1.209l-.09.762c-.304-.505-.903-.873-1.84-.873zm-11.816.111 2.33 5.461h1.42l2.33-5.461h-1.4l-1.596 4.027-1.596-4.027h-1.488zm6.736 0v5.461h1.346v-5.461h-1.346zm-29.369 1.057c.922 0 1.61.615 1.61 1.674 0 1.057-.688 1.673-1.61 1.673-.92 0-1.611-.616-1.611-1.673 0-1.058.69-1.674 1.611-1.674zm19.022 0c.922 0 1.61.615 1.61 1.674 0 1.057-.689 1.673-1.61 1.673-.92 0-1.61-.616-1.61-1.673 0-1.058.687-1.674 1.61-1.674zm15.61 0c.922 0 1.612.615 1.612 1.674 0 1.057-.69 1.673-1.611 1.673-.92 0-1.611-.616-1.611-1.673 0-1.058.689-1.674 1.61-1.674z" fill="#00D66C"/><path d="M8.259 32.83h-.322c-.322 0-.46.171-.506.504-.082.61-.564 1.024-1.197 1.024-.736 0-1.207-.54-1.207-1.323v-1.84A.656.656 0 0 0 5 31a.595.595 0 0 0 .246.047h1.69c.324 0 .507-.184.507-.506v-.149c0-.322-.183-.506-.506-.506h-.954v-1.037c0-.321-.184-.506-.506-.506h-.23c-.322 0-.506.185-.506.506v1.692c0 .073.01.138.029.196a.608.608 0 0 0-.248-.047h-1.69c-.322 0-.507.184-.507.506v.15c0 .322.185.506.507.506h.955v1.183c0 1.484.954 2.52 2.45 2.52 1.392 0 2.311-.887 2.484-2.22.045-.334-.173-.505-.461-.505z" fill="#FFFFFF"/></svg>