<svg role="img" viewBox="0 0 64 64" xmlns="http://www.w3.org/2000/svg"><title>Turkish Airlines</title><path d="M5.543 27.007a5.021 5.021 0 0 1-.52 10.013A5.021 5.021 0 0 1 0 32.003a5.021 5.021 0 0 1 5.543-4.996zm.262 9.665a4.736 4.736 0 0 0 3.887-5.457 4.746 4.746 0 0 0-4.176-3.93 4.69 4.69 0 0 0-1.281.043 4.614 4.614 0 0 0-1.432.488c2.273.772 3.495 1.946 3.581 3.147.043.74-.305 1.276-.756 1.715l3.217-.225c.09-.005.118.102.01.129l-7.67 2.197a4.738 4.738 0 0 0 3.34 1.93 4.69 4.69 0 0 0 1.28-.043zM3.693 32.11c.418-1.581-.059-3.238-1.206-4.112a4.733 4.733 0 0 0-2.139 4.787 4.72 4.72 0 0 0 .665 1.748c1.222-.338 2.294-.987 2.68-2.423z" fill="#FFFFFF"/><path d="M9.692 31.22a4.74 4.74 0 0 1-3.887 5.457 4.69 4.69 0 0 1-1.28.043 4.757 4.757 0 0 1-3.34-1.93l7.67-2.198c.113-.032.08-.139-.01-.128l-3.217.225c.456-.44.8-.976.756-1.716-.086-1.2-1.308-2.374-3.58-3.146a4.91 4.91 0 0 1 1.43-.488 4.69 4.69 0 0 1 1.282-.043 4.74 4.74 0 0 1 4.176 3.93zM.348 32.785a4.72 4.72 0 0 0 .665 1.748c1.222-.338 2.294-.987 2.68-2.423.418-1.581-.059-3.238-1.206-4.112a4.733 4.733 0 0 0-2.139 4.787z" fill="#C90019"/><path d="M31.505 29.982c-.81 0-1.394.359-1.394 1.125 0 .66.392.944.804 1.127.606.257.906.294.906.637 0 .295-.225.445-.67.445-.386 0-.755-.134-1.045-.268v.756c.306.129.702.22 1.206.22.815 0 1.426-.419 1.426-1.185 0-.885-.605-1.002-1.125-1.26-.402-.15-.628-.23-.628-.498 0-.252.188-.397.585-.397.364 0 .734.113.938.21v-.735a3.01 3.01 0 0 0-1.003-.177zm31.262 0c-.81 0-1.394.359-1.394 1.125 0 .66.392.944.804 1.127.606.257.906.294.906.637 0 .295-.225.445-.67.445-.386 0-.756-.134-1.045-.268v.756c.306.129.702.22 1.206.22.815 0 1.426-.419 1.426-1.185 0-.885-.607-1.002-1.127-1.26-.402-.15-.627-.23-.627-.498 0-.252.189-.397.586-.397.364 0 .734.113.938.21v-.735a3.01 3.01 0 0 0-1.003-.177zm-38.252.048v3.934h.911v-1.821l.027.031 1.164 1.496c.15.193.369.3.61.3h.724l-1.662-2.117-.026-.033.026-.031 1.367-1.76h-.943l-1.254 1.695-.033.043V30.03zm-11.734.005v.735h1.067v3.2h.91v-3.2h.693c.209 0 .38-.172.38-.381v-.354zm3.683 0 .006.005v2.462c0 .273.036.508.117.696.08.188.193.349.338.472.15.123.327.215.53.268.205.06.44.086.692.086.252 0 .483-.027.687-.086.198-.053.37-.145.503-.268.134-.123.241-.279.316-.472a1.95 1.95 0 0 0 .112-.702v-2.46h-.852v2.433c0 .247-.059.45-.182.595-.123.15-.322.225-.584.225-.263 0-.456-.075-.584-.225-.124-.145-.188-.348-.188-.595v-2.434Zm4.138 0v3.93h.905v-1.539h.452l.706 1.169c.14.23.397.374.665.374h.601l-1.104-1.72.053-.027c.241-.112.407-.257.504-.44.096-.187.145-.374.145-.557 0-.364-.113-.653-.338-.867-.23-.215-.552-.323-.97-.323zm24.7 0v3.93h.906v-1.539h.45l.708 1.169c.14.23.397.375.665.375h.6l-1.104-1.72.054-.028c.24-.112.407-.257.503-.44.097-.187.146-.374.146-.557 0-.364-.113-.653-.338-.867-.23-.215-.553-.323-.97-.323zm3.887 0v3.93h2.359v-.708h-1.454v-2.755a.467.467 0 0 0-.465-.467zm8.984 0v3.935l.005-.006h2.46v-.734h-1.553v-.96h1.318v-.653h-1.318v-.847h1.173a.377.377 0 0 0 .375-.376v-.359zm-29.723.005v3.936h.91V30.04zm5.034 0v3.93h.91v-1.652h1.657v1.651h.91V30.04h-.91v1.567h-1.657V30.04zm7.037 0-1.484 3.936h.653a.388.388 0 0 0 .365-.263l.15-.462h1.598l.235.725h.986l-1.458-3.936zm3.045 0v3.93h.912v-3.93zm8.566 0v3.93h.91v-3.93zm1.747 0v3.936h.799v-2.171c0-.193-.016-.392-.021-.564h.01c.097.177.226.413.35.606l1.333 2.129h.998V30.04h-.8v2.167c0 .176.011.423.022.6h-.021a7.086 7.086 0 0 0-.354-.638l-1.1-1.763a.785.785 0 0 0-.658-.366zm-32.36.692h.53c.194 0 .343.054.434.155a.61.61 0 0 1 .14.402c0 .156-.049.29-.145.392-.097.102-.242.156-.435.156h-.524zm24.7 0h.531c.193 0 .343.054.434.155a.61.61 0 0 1 .14.402c0 .156-.049.29-.145.392-.097.102-.242.156-.435.156h-.524zm-5.21.183h.01c.049.182.124.401.205.632l.342.991H40.44l.36-.991c.08-.225.16-.46.209-.632z" fill="#1A171B"/></svg>