<svg role="img" viewBox="0 0 64 64" xmlns="http://www.w3.org/2000/svg"><title>United Airlines</title><path d="M51.046 26.199v1.935h.01a7.59 7.59 0 0 1 2.571-.45c4.178 0 7.588 3.41 7.588 7.608 0 .85-.144 1.7-.42 2.499h1.864V26.199Zm2.668 1.738a3.677 3.677 0 0 0-.62.044c-.45.061-.788.164-.788.164.102.01.235.03.338.05.071-.02.706-.163 1.157-.102a4.923 4.923 0 0 0-.84.195c.02 0 .154.041.318.143.051-.01.676-.174 1.27-.194 0 0 .215.102.43.246a6.44 6.44 0 0 0-1.424.153c.092.082.185.174.256.287.84-.123 1.567-.072 1.567-.072s.102.123.143.185c.052.082.113.184.154.276-.86-.102-1.68-.03-1.68-.03.062.143.093.307.113.47.092 0 .82 0 1.751.164.03.215.03.44.01.676a12.117 12.117 0 0 0-1.75-.317c-.021.204-.052.42-.113.645.092.02 1.116.266 1.69.501-.01.041-.021.072-.031.113a5.63 5.63 0 0 1-.308.737c-.46-.225-1.597-.675-1.597-.675a6.992 6.992 0 0 1-.41.768s.973.553 1.444.86c-.215.307-.46.614-.727.9a26.06 26.06 0 0 0-1.26-1.013c-.276.328-.624.666-.726.768l1.024 1.167-.031.031c-.225.185-.46.358-.655.492a7.18 7.18 0 0 1-.369.245c-.01-.02-.676-1.085-.778-1.259a4.3 4.3 0 0 1-.226.154v2.19c.123-.06.236-.122.359-.183a9.371 9.371 0 0 0 1.648-1.055 9.376 9.376 0 0 0 1.024-.932c.41-.42.768-.86 1.065-1.31 1.137-1.629 1.434-3.37.605-4.486-.606-.81-1.439-.985-2.033-.996zm1.377.187c.123.072.236.133.236.133.01 0 .543.133 1.024.369 0 0-.43-.102-.717-.133.113.102.225.215.317.338 0 0 .891.164 1.28.379 0 0 .185.194.338.532a7.978 7.978 0 0 0-1.3-.379c.092.205.153.42.194.656 0 0 .758.184 1.321.46.052.267.072.553.062.83-.676-.338-1.342-.553-1.342-.553-.01.287-.061.594-.143.901 0 0 .922.41 1.331.655a6.55 6.55 0 0 1-.368 1.065c-.625-.41-1.29-.768-1.29-.768-.164.4-.574 1.055-.574 1.055.01.01.696.471 1.218.891-.256.4-.553.778-.87 1.137l-1.116-1.004c-.307.348-.645.696-1.014 1.024l.973 1.096c-.625.522-1.26.911-1.26.911l-.809-1.147s-.573.43-1.536.891v.338H54.2c3.533-2.673 4.782-6.482 3.339-8.468a2.05 2.05 0 0 0-.195-.226 1.497 1.497 0 0 0-.195-.164c-.727-.542-2.058-.819-2.058-.819zm-3.085.166a3.294 3.294 0 0 0-.437.039c-.02 0-.041.01-.062.01a1.19 1.19 0 0 0-.184.041c-.123.03-.205.062-.256.072v.235c.082-.061.164-.122.246-.174.163-.03.317-.061.47-.061a5.716 5.716 0 0 0-.706.481v.184h.01s.594-.47 1.065-.665c.113.01.226.02.328.051a6.706 6.706 0 0 0-1.26.696.883.883 0 0 1 .144.103c.01-.01.686-.43 1.433-.686.103.051.205.102.287.174-.819.225-1.597.635-1.597.635a.93.93 0 0 1 .112.164c.01 0 .01 0 .01-.01.83-.36 1.721-.543 1.721-.543.072.092.123.204.174.317 0 0-.799.092-1.823.42.041.143.062.246.062.246s.962-.216 1.853-.236c.01.143.01.307-.01.471-.522-.03-1.782.041-1.833.041 0 0 0 .184-.051.348 0 0 .921.031 1.75.185-.06.204-.143.399-.245.593a37.576 37.576 0 0 0-1.618-.42 4.211 4.211 0 0 1-.215.43s1.034.451 1.423.666a6.487 6.487 0 0 1-.512.615c-.102-.072-.194-.144-.276-.205-.276-.195-.676-.471-.922-.645v.85l.533.624c-.174.144-.359.267-.533.39v.511c.01 0 .01-.01.02-.01.247-.164.482-.348.718-.553 1.812-1.628 2.57-3.778 1.659-4.823-.342-.39-.865-.572-1.478-.56zM0 29.107v3.246c0 .891.287 1.567.85 2.007.563.44 1.372.656 2.437.656 1.065 0 1.874-.215 2.417-.656.543-.44.819-1.105.819-2.007v-3.246h-1.69v3.267c0 .44-.123.758-.368.973-.246.215-.645.317-1.188.317-.553 0-.952-.102-1.208-.317-.256-.215-.39-.543-.39-.973v-3.267zm9.493 0v5.786h1.525v-3.041l-.01-.625.02-.01.44.44 3.41 3.236h1.107v-5.786h-1.536v2.878l.02.614-.02.02-.44-.45-3.134-3.062Zm9.717 0v5.786h1.71v-5.786zm4.322 0-.052 1.362h2.222v4.424h1.69v-4.424h2.212l-.041-1.362zm8.54 0v5.786h5.57l.031-1.3h-3.922v-1.076h3.174v-1.136h-3.174v-.953h3.768l-.03-1.32zm8.325 0v5.786h3.123c1.116 0 1.976-.236 2.58-.717.615-.481.912-1.208.912-2.17 0-.43-.072-.83-.205-1.189a2.154 2.154 0 0 0-.614-.921 2.826 2.826 0 0 0-1.086-.584c-.44-.143-.973-.205-1.587-.205Zm17.326.133c.072.093.133.185.194.287 0 0 .594.44.943.891-.44-.317-.697-.44-.727-.46.163.419.215.757.215.757s.522.276 1.003.686c.061.307.092.614.092.922a8.33 8.33 0 0 0-1.024-.748c-.01.358-.061.717-.133 1.065 0 0 .522.328 1.024.789 0 0-.143.655-.379 1.167-.491-.45-.962-.81-1.003-.83 0 0-.246.635-.635 1.26.491.42.942.86.942.86-.276.44-.594.85-.942 1.24l-.88-.861c-.36.44-.748.85-1.158 1.229.02.02.195.215.266.297h1.792v.01c.82-.922 1.526-2.007 1.946-3.164.369-1.004.563-2.233.246-3.328a2.72 2.72 0 0 0-.45-.901c-.39-.44-.84-.83-1.332-1.168zm-6.677.144v1.904c.471-.675.543-1.444.123-1.812zm-8.97 1.085h1.362c.338 0 .614.03.85.082.225.061.41.144.553.266.143.123.246.287.307.471.062.195.092.43.092.697.01.307-.02.542-.092.737a.945.945 0 0 1-.317.471 1.248 1.248 0 0 1-.563.256 3.777 3.777 0 0 1-.83.082h-1.362zm17.613.748c.041.133.123.4.174.635 0 .02.01.03.01.04.082.134.43.758.482 1.455 0 0-.256-.349-.44-.574-.011.38-.052.758-.134 1.127 0 0 .369.43.543.706 0 0-.113.604-.359 1.188-.245-.358-.563-.707-.563-.707-.184.461-.42.922-.676 1.342 0 0 .471.553.574.706-.144.246-.277.451-.43.666h.44c1.24-1.833 1.3-3.461 1.3-3.768 0-.584-.102-1.127-.266-1.557 0 0-.256-.665-.655-1.26zm1.137 3.051a7.94 7.94 0 0 1-.113.901c.02.062.051.164.072.236a8.186 8.186 0 0 1-.277 1.444c-.061-.236-.153-.461-.153-.471-.174.45-.43.993-.656 1.423h.748a9.1 9.1 0 0 0 .246-.799 7.477 7.477 0 0 0 .204-1.73c0-.338-.02-.676-.071-1.004zm2.693 2.57a.48.48 0 1 0 .481.482.474.474 0 0 0-.481-.482zm0 .072c.215 0 .41.174.41.4a.41.41 0 0 1-.41.409.41.41 0 0 1-.41-.41c0-.225.185-.399.41-.399zm-.174.133v.522h.071v-.245h.093l.153.245h.092l-.153-.245c.082.01.153-.031.153-.133 0-.113-.092-.144-.184-.144zm.061.082h.143c.062 0 .123.01.123.062.01.082-.102.071-.174.071h-.092z" fill="#1414D2"/></svg>