<svg role="img" viewBox="0 0 64 64" xmlns="http://www.w3.org/2000/svg"><title>Vietnam Airlines</title><path d="M6.511 35.167c-.113.064-.926.754-2.543.754-1.363 0-2.818-.698-3.274-.684a.866.866 0 0 0-.391.07c-.191.08-.377-.037-.273-.233a2.615 2.615 0 0 1 1.542-1.268c.42-.127.805-.17 1.003.051.438.486 1.23 1.086 1.998 1.165.062.006.341.03.345-.05.003-.048-.093-.08-.19-.086-.784-.057-2.2-.898-2.978-2.525-.292-.611-.523-1.204-1.032-1.462-.113-.054-.117-.262.12-.318.166-.04 1.21-.14 2.406.489.548.289.625.548.627.774-.005 1.705.858 2.383 1.192 2.583.186.11.36.158.378.1.015-.049-.034-.082-.077-.108-1.035-.628-1.308-1.594-1.316-2.578-.008-.974.353-1.816.609-2.506.037-.098.158-.509.055-.89-.076-.283-.014-.366.136-.366.163 0 .381.265.455.356.059.069.25.301.537.87.57 1.127.575 2.305.575 2.45 0 .809-.209.902-.55 1.07-.339.168-.5.384-.5.635-.001.258.178.526.5.62.251.074.41.046.396-.019-.01-.051-.121-.064-.153-.073-.34-.092-.566-.266-.566-.528 0-.326.403-.566.969-.566s.968.24.968.566c0 .262-.225.436-.565.528-.032.01-.143.022-.154.073-.013.065.146.093.396.02.322-.095.502-.363.501-.62 0-.252-.162-.468-.501-.636-.34-.168-.55-.261-.55-1.07 0-.145.005-1.323.575-2.45.288-.569.479-.801.537-.87.074-.09.292-.356.456-.356.15 0 .212.083.135.367-.103.38.018.792.056.89.255.69.617 1.532.608 2.505-.008.984-.281 1.95-1.315 2.579-.043.025-.093.059-.077.107.018.058.192.011.378-.1.334-.2 1.196-.877 1.191-2.583.002-.226.08-.485.628-.774 1.195-.629 2.24-.528 2.405-.489.237.056.233.265.121.318-.51.258-.74.85-1.032 1.462-.778 1.627-2.194 2.468-2.98 2.525-.096.007-.191.039-.188.087.003.079.282.055.345.049.768-.079 1.56-.679 1.997-1.165.2-.22.583-.178 1.003-.051.576.173 1.184.59 1.543 1.269.103.195-.082.312-.273.232a.874.874 0 0 0-.391-.07c-.457-.014-1.912.684-3.274.684-1.618 0-2.43-.69-2.543-.754" fill="#D99E09"/><path d="M24.072 31.917c-.17.003-.401 0-.401 0-.115 0-.115.064-.115.193 0 .123 0 .188.115.188h.401c.083 0 .086.009.085.095-.003.181 0 2.37 0 2.37 0 .862.461.965.917.972.452.006.748-.127.743-.287-.004-.092-.065-.134-.17-.122-.073.009-.125.031-.224.031-.24 0-.54-.064-.54-.589V32.4c-.001-.091 0-.103.09-.102h.654c.115 0 .119-.065.119-.188 0-.127-.004-.193-.119-.193h-.657c-.088 0-.087-.008-.087-.085v-.797c0-.127-.097-.173-.175-.166-.058.005-.126.042-.286.147-.21.138-.265.226-.265.477v.333c0 .092-.004.09-.085.091m-8.863 3.502c.099.238.122.256.5.256.364 0 .372-.015.478-.258.106-.243 1.488-3.717 1.854-4.625.082-.202.047-.22-.28-.22-.284 0-.31.017-.365.14 0 0-1.548 3.96-1.581 4.05-.008.026-.042.028-.056-.003-.05-.112-1.62-4.058-1.62-4.058-.039-.101-.048-.138-.473-.138-.463 0-.432.045-.34.273.022.054 1.783 4.346 1.883 4.583m45.29-.865c0-.065-.05-.131-.141-.131-.084 0-.126.03-.176.116a1.555 1.555 0 0 1-1.291.715c-.848.008-1.337-.602-1.315-1.543 0-.032.013-.06.062-.06.049-.002 1.326-.003 2.614 0 .247 0 .251-.164.251-.299 0-.78-.726-1.499-1.767-1.499-1.08 0-1.91.59-1.91 1.946 0 1.443 1.078 1.955 1.997 1.955 1.111 0 1.676-.86 1.676-1.2m-2.914-1.365c.064-.452.41-.954 1.092-.96.573-.004 1.074.344 1.1.855.008.147-.03.165-.205.165H57.64c-.053 0-.06-.024-.055-.06M23.37 34.554c0-.065-.05-.131-.142-.131-.084 0-.126.03-.176.116a1.554 1.554 0 0 1-1.29.715c-.848.008-1.337-.602-1.316-1.543 0-.032.013-.06.062-.06.049-.002 1.327-.003 2.615 0 .246 0 .25-.164.25-.299 0-.78-.726-1.499-1.767-1.499-1.08 0-1.91.59-1.91 1.946 0 1.443 1.078 1.955 1.997 1.955 1.111 0 1.677-.86 1.677-1.2m-2.915-1.365c.064-.452.41-.954 1.093-.96.572-.004 1.074.344 1.1.855.008.147-.031.165-.206.165h-1.931c-.054 0-.061-.024-.056-.06m18.25 2.327c0 .159.078.157.363.158.284 0 .362 0 .362-.158v-2.462c0-.978-.918-1.181-1.462-1.181-.635 0-.997.182-1.244.455-.264-.287-.617-.455-1.235-.455-.426 0-.841.102-1.213.267-.269.119-.269.277-.269.43v2.946c0 .159.08.159.363.159.284 0 .362 0 .362-.16l.001-2.742c0-.41.328-.522.758-.522.536 0 .864.252.864.884v2.38c0 .16.079.16.363.16.285 0 .362 0 .362-.16v-2.427c0-.481.252-.84.83-.84.56 0 .799.366.799.851zm-19.585-4.679c-.04-.189-.252-.304-.494-.253-.243.051-.389.241-.348.43.04.19.252.305.494.254.243-.051.388-.241.348-.43m13.48 4.038c0 .384-.498.485-.867.485-.652 0-.976-.279-.976-.646 0-.67.864-.911 1.766-1.101.048-.01.077-.015.077.053zm-.83.881c.606.004.913-.104 1.276-.27.272-.13.272-.273.272-.44v-2.075c0-.791-.657-1.12-1.41-1.118-1.23.003-1.72.53-1.738.872-.01.182.098.315.31.32.206.004.33-.131.377-.244.152-.354.412-.572.949-.572.42 0 .796.192.794.692v.22c0 .068 0 .082-.059.09-1.107.176-2.545.524-2.545 1.541 0 .633.76.983 1.775.984m-13.435-.248c0 .16.078.16.361.16.285 0 .364 0 .364-.16l.003-3.443c.003-.253-.346-.19-.524-.073-.199.13-.205.194-.205.445zM64 34.656c-.029-1.272-2.401-1.038-2.402-1.924 0-.347.356-.506.742-.506.555 0 .74.185.856.456a.381.381 0 0 0 .375.242c.16 0 .295-.102.295-.289 0-.28-.39-.776-1.458-.783-.884-.006-1.482.33-1.483 1.029-.001 1.308 2.374 1.03 2.37 1.936-.001.375-.35.548-.858.553-.506.006-.776-.2-.922-.554-.071-.144-.165-.274-.386-.27-.198.003-.316.13-.316.325 0 .266.464.886 1.59.886.924 0 1.613-.372 1.597-1.101m-7.65-1.458c.002-1.147-.997-1.328-1.723-1.328-.585 0-1.11.147-1.357.256-.244.108-.264.243-.264.466l.001 2.924c0 .159.079.159.363.159.286 0 .363 0 .363-.159v-2.7c0-.238.084-.567.912-.567.782 0 .978.463.978.95l.002 2.317c0 .159.078.159.361.159.287 0 .364 0 .364-.159zm-4.86 2.311c0 .16.079.16.362.16.285 0 .363 0 .363-.16l.003-3.443c.003-.253-.345-.19-.523-.073-.199.13-.206.194-.206.445zm.784-4.672c-.04-.189-.25-.304-.494-.253-.242.051-.388.241-.347.43.04.19.251.305.494.254.243-.051.388-.241.347-.43m-2.319 4.673c0 .16.079.16.362.16.285 0 .363 0 .363-.16l.003-4.935c.003-.253-.346-.19-.523-.073-.199.13-.206.194-.206.445zm-3.415-4.675c-.04-.19-.251-.305-.494-.253-.243.05-.388.24-.348.43.041.189.252.304.495.253.243-.051.388-.241.347-.43m-2.62 3.305c.247.587.587 1.404.587 1.404.043.104.004.13.433.13.455 0 .482-.015.392-.217-.023-.055-1.828-4.39-1.929-4.627-.1-.237-.143-.254-.519-.254-.371 0-.42.01-.523.254l-1.939 4.658c-.076.186-.008.186.3.186.288 0 .321-.01.376-.132l.559-1.398c.033-.085.044-.119.143-.119.383 0 1.472 0 1.975-.002.096 0 .107.028.145.117m-2.006-.665c.108-.274.797-2.077.833-2.178.01-.03.04-.03.052 0 .049.127.745 1.898.848 2.172.023.06.031.109-.048.109h-1.626c-.1 0-.076-.06-.059-.103m3.842 2.032c0 .159.079.159.361.159.286 0 .364 0 .364-.16l.003-3.442c.003-.254-.346-.19-.523-.074-.2.13-.206.195-.206.445zm-16.215-2.313c.002-1.147-.998-1.329-1.723-1.329-.585 0-1.11.148-1.357.257-.244.108-.265.243-.265.466l.002 2.924c0 .159.079.159.363.159.285 0 .363 0 .363-.16l-.001-2.699c0-.238.084-.568.912-.568.783 0 .979.464.979.95l.001 2.318c0 .159.079.159.362.159.286 0 .364 0 .364-.16zm18.363-.537c0-.279.299-.427.627-.427.56 0 .496.446.896.446.181 0 .292-.104.292-.282 0-.308-.409-.512-1.044-.533-.61-.02-.926.088-1.144.174-.245.095-.353.234-.353.452v3.021c0 .16.078.16.364.16.284 0 .362 0 .362-.16z" fill="#005E80"/></svg>