<svg role="img" viewBox="0 0 64 64" xmlns="http://www.w3.org/2000/svg"><title>Virgin Atlantic</title><path d="M58.572 24.357c-1.683 0-2.081.267-2.746 1.02l-4.851 5.316c3.876-.177 5.073 3.723 8.994 2.637L64 24.357h-5.428zm-1.343.862c.123-.008.214.068.214.068.111.089.088.223.088.223-.022.2-.22.332-.22.332-.178.155-.422.597-.422.597-.266.421-.576 1.241-.842 2.061-.355 1.24-.576 2.393-.598 2.504-.022.11-.067.242-.178.242-.155 0-.175-.198-.175-.22 0-.023-.201-2.438-.201-2.438s-.021-.11-.043-.11c0 0-.046-.022-.09.088l-.221.489c-.089.221-.244.133-.244.133-.133-.067-.043-.223-.043-.223l.486-1.219c.111-.266.29-.242.29-.242.154.022.154.176.154.242.022.067.177 1.861.177 1.861.022.2.043.133.043.133.377-2.149 1.508-4.275 1.508-4.275.107-.184.22-.24.317-.246zm2.601 1.515c.068-.005.094.037.094.037.066.111-.088.245-.088.245-.133.155-.244.045-.244.045-.111-.09.066-.245.066-.245a.337.337 0 0 1 .172-.082zm1.182.215h.02c.199 0 .177.266.177.266l-.066.73c-.045.31.199.201.199.201 0-.022.066-.046.265-.134.178-.067.267-.022.311.045.044.066.023.132-.022.199-.044.088-.245.155-.4.2a.885.885 0 0 0-.2.065c-.265.067-.575.2-.575.2a15.54 15.54 0 0 0-1.926.974.79.79 0 0 0-.024.201s-.087 1.196-.109 1.374c0 0 0 .22.022.353.022.133.11.42-.067.531a.214.214 0 0 1-.31-.043c0-.022-.066-.09-.022-.422 0 0 .087-.863.11-1.128l.044-.622c-1.462.909-2.26 1.729-2.26 1.729-.088.089-.286.244-.42.066-.132-.177.221-.443.221-.443.776-.665 1.685-1.24 2.483-1.705l.021-.2s.022-.067-.045-.023c0 0-.265.155-.464.067 0 0-.155-.065-.155-.309 0 0-.001-.754.309-1.064 0 0 .178-.178.355-.178.111 0 .088.157-.045.267-.132.133-.154.288-.199.465 0 0-.11.509.067.487 0 0 .177 0 .244-.31 0 0 .11-.71.133-.798 0-.088.022-.287.199-.287 0 0 .176 0 .154.133 0 0-.133.864-.2 1.484 1.086-.62 1.95-.974 1.95-.974.044-.022.024-.024.024-.024-.133-.044-.067-.332-.067-.332l.067-.597c0-.155-.178-.067-.178-.067-.133.089-.22.244-.22.244-.067.111-.112.62-.112.62-.022.265-.178.31-.178.31-.177.066-.2-.045-.2-.045-.021-.066.022-.309.022-.309l.09-.642c.022-.288.22-.334.22-.334.045-.022.112-.022.179 0 .066.022.11 0 .154 0 .066 0 .156-.088.156-.088.133-.116.228-.132.268-.133zm-1.35.487c.12.006.063.201.063.222-.023.022-.133.863-.133.863a.3.3 0 0 1-.22.266c-.178.044-.136-.133-.136-.133l.024-.175.154-.82c.022-.178.223-.221.223-.221a.13.13 0 0 1 .025-.002zm-2.842.287c.045-.005.089.01.114.068 0 0 .043.088-.112.22 0 0-.177.18-.265.024 0 0-.066-.111.111-.244 0 0 .078-.06.152-.068zm.852.449c.078.01.103.084.103.084.067.155-.177.265-.177.265-.222.133-.244.422-.244.422l-.043.399c-.023.288-.223.332-.223.332-.266.088-.154-.377-.154-.377.022-.11.087-.664.087-.664.023-.332.222-.332.2-.354.022 0 .177-.023.177-.023s.067-.022.178-.067a.185.185 0 0 1 .096-.017zm-1.084.369c.054.001.158.03.125.246l-.135.733-.043.265s-.022.133-.133.2c0 0-.266.132-.244-.067l.133-1.064s.044-.265.266-.31c0 0 .013-.003.03-.003zm-39.93 2.617v.73h.643v-.73h-.643zm13.58 0v6.912h.62v-4.963h1.085v-.597h-1.086v-1.352h-.619zm2.348 0v6.912h.643v-6.912h-.643zm12.338 0v6.912h.62v-4.963h1.087v-.597h-1.086v-1.352h-.621zm2.35 0v.73h.619v-.73h-.62zm-41.05.022v.732h.643v-.732h-.642zm45.169 1.218c-1.551 0-2.77 1.24-2.77 2.858v.023c0 1.595 1.219 2.834 2.77 2.834 1.174 0 1.97-.664 2.214-1.04l.024-.044-.422-.377-.043.043c-.266.31-.864.82-1.75.82-1.218 0-2.15-.996-2.15-2.26v-.02c0-1.241.931-2.239 2.105-2.239.665 0 1.241.267 1.795.799l.043.043.398-.42-.021-.045c-.2-.221-.93-.975-2.193-.975zm-38.235.022a2.57 2.57 0 0 0-1.771.709 2.63 2.63 0 0 0-.8 1.906v.022c0 .73.29 1.395.8 1.882.465.443 1.129.71 1.771.71.975 0 1.75-.51 2.127-1.087v.29c0 1.395-.71 2.17-1.994 2.17-.93 0-1.55-.376-2.104-.752l-.044-.024-.354.51.022.045c.11.088 1.019.842 2.459.842.797 0 1.484-.266 1.949-.776.487-.465.685-1.107.685-2.037v-4.32h-.619v.953c-.354-.554-1.152-1.043-2.127-1.043zm7.488 0c-1.13 0-1.706.687-1.927 1.02v-.93h-.621v5.537h.62v-2.701c0-1.462.687-2.35 1.839-2.35 1.617 0 1.617 1.485 1.617 2.127v2.947h.666v-3.234c0-1.55-.776-2.416-2.194-2.416zm21.333 0c-1.13 0-1.707.687-1.928 1.02v-.93h-.62v5.537h.62v-2.701c0-1.462.688-2.35 1.84-2.35 1.617 0 1.617 1.485 1.617 2.127v2.947h.664v-3.234c0-1.55-.776-2.416-2.193-2.416zm-14.731.023c-.642 0-1.33.177-1.951.487l-.043.023.244.531.043-.021c.576-.288 1.087-.422 1.64-.422 1.13 0 1.706.51 1.706 1.53v.02h-1.551c-1.64 0-2.48.621-2.48 1.817v.022c0 1.152 1.04 1.75 2.058 1.75 1.063 0 1.708-.553 1.951-.864v.73h.62V34.57c0-.686-.177-1.174-.553-1.55-.377-.377-.93-.577-1.684-.577zm9.17 0c-.642 0-1.329.177-1.95.487l-.044.023.222.531.043-.021c.576-.288 1.087-.422 1.641-.422 1.13 0 1.705.51 1.705 1.53v.02h-1.55c-1.64 0-2.481.621-2.481 1.817v.022c0 1.152 1.041 1.75 2.06 1.75 1.064 0 1.705-.553 1.971-.864v.73h.621V34.57c0-.686-.178-1.174-.554-1.55-.377-.377-.93-.577-1.684-.577zm-25.785.045c-.997-.044-1.86.487-2.348 1.373v-1.33h-.642v5.54h.664v-2.284c0-1.816 1.151-2.635 2.28-2.635h.112v-.664h-.066zM0 32.531l2.57 5.54h.553l2.504-5.54h-.709L2.836 37.25.73 32.531H0zm6.225 0v5.54h.642v-5.54h-.642zm10.433 0v5.54h.643v-5.54h-.643zm30.615 0v5.54h.62v-5.54h-.62zm-34.07.51c1.02 0 2.06.753 2.082 2.016v.023c0 1.218-1.085 1.992-2.082 1.992-1.107 0-1.973-.886-1.973-2.015v-.022c0-1.152.821-1.994 1.973-1.994zm14.2 2.148h1.484v.665c0 1.196-.975 1.751-1.928 1.751-.842 0-1.461-.51-1.461-1.197 0-.886.553-1.24 1.904-1.219zm9.148 0h1.484v.665c0 1.196-.975 1.751-1.928 1.751-.841 0-1.46-.51-1.46-1.197 0-.886.53-1.24 1.904-1.219z"/></svg>