<svg role="img" viewBox="0 0 64 64" xmlns="http://www.w3.org/2000/svg"><title>Virgin Australia</title><path d="M8.3862 40.6475c.3366.6557.7741.93 1.395.93h8.5578c.5268 0 .7537-.3091 1.0907-.7388l5.2877-7.5626c.9151-1.237.8938-1.1699.2398-1.7215l-9.937-8.429c-.657-.5525-1.18-.7031-2.0498-.7031H.568c-.4175 0-.6918.4363-.512.812l8.3293 17.4122Z" fill="#E10A0A"/><path d="M16.4826 28.426c-.0331-.0453.009-.1128.0183-.1616.0148-.0413.0461-.108.0866-.1476 0-.0008.0039-.0039.0039-.0048.0017-.0026 0-.0057.0017-.0065.034-.024.0636-.0626.1006-.0866.141-.1189.4898-.192.5203.0479.0156.178-.1725.3587-.3092.4824-.1328.0923-.4066.0914-.4223-.122m-.4306 3.4409c-.0287-.1937.0266-.3958.0348-.5895 0 0-.0039 0-.0017-.0026.0148-.058.0118-.1607.028-.2373.0038-.0775.0073-.1659.0239-.2299-.0017-.0017-.004-.0008-.0057-.0035v-.0074c.009-.0017.0057-.0117 0-.0156.0074-.0314.0165-.0815.0156-.098 0-.0017-.0017 0-.0039-.0017v-.0065s.004-.0039.0057-.0065c.0009-.0196-.0039-.0814.0122-.1123.0083-.0048-.0048-.013-.0057-.0183.0017-.0017.004-.0017.0057-.0026.0009-.013.0048-.0453.004-.057-.0049-.0297.0239-.0736.0025-.098.0231-.0048.0017-.051.01-.0488.0192.0057-.009-.0048.0017-.0148.0017-.0035.013-.0035.0017-.0065-.0039-.0026.0026-.0065.004-.0083-.001-.0387.0056-.0857.01-.1145a.5822.5822 0 0 1 .01-.1032c.0064-.0017.0082-.01.0016-.013v-.014c.0065-.0083.0017-.0195.0083-.0278 0-.0035.0091-.0035.004-.0083 0-.0017-.004 0-.004-.0017 0-.0083-.0035-.0248.004-.024.0016-.0017-.0018-.0035-.0018-.0039.0074-.0304.0148-.1153.0222-.1689.0118-.0026-.0048-.0048 0-.0083 0-.0017.004-.0017.004-.0035.0064-.0065-.0058-.0109-.004-.014.0065-.0108.011-.0413.0083-.0478.0035-.0122.011-.0601.0205-.0645-.0017-.0174.013-.0322.0157-.0505 0-.0026.0017-.0035.0017-.0057.0026-.0026 0-.0026-.0017-.0039.0117 0 .0048-.0108.0122-.0174 0 0 .0083-.0035.0065-.0057 0-.0017-.0026-.0017-.0026-.0026.0117-.0322.0265-.0718.0487-.098 0-.0008.0017 0 .004-.0025.0082-.034.0496-.0562.0644-.0832.0148-.0065.0182-.0191.0322-.0257.0039-.0074.034-.0296.0387-.0361.051-.0462.1367-.0758.1872-.0736.0192-.0074.0527 0 .0667-.0109.0435.01.0748.0148.1062.0462.0017.0017-.0026.0026 0 .0039 0 .0017.0039.0017.0039.0039.0035.0048.0017.0322.0057.0278.0039-.0017.0039.0057.0039.0074.0017.0057-.0017.014-.0017.0205-.0017 0-.0057 0-.004.0026.0123.0026.0084.0157.0018.0213-.0035.0026-.004.0148.0017.0091.0017 0 0 .0026-.0017.0035.0039.0048.0039.0174.01.0074 0-.0074.0148-.0017.0165 0 .0017.0017-.0017.0035-.0017.0048.01.004-.0035.0074-.0026.0118.0026 0 .004-.0026.004-.0017.0016.0008 0 .0026-.0018.0026 0 .0035-.0057.0191 0 .0222.0091-.0017.001.0191.0083.0117 0-.0017.0017-.0074.004-.0074 0 0 .0025.0026.0025.004.004.013.0057.019.014.0295a.0397.0397 0 0 1-.0083.0222c0 .0083-.0026.0249.0057.0288.0109.0165-.0148.0204-.0083.0361-.0048.01-.0288.0122-.0083.0214-.0048.01.01 0 .0039.0108-.0065 0 .0008.0057-.01.0065 0 .001-.004.001-.004 0-.01.0065.0027.0183.0084.024.0057.0148-.0314.0248-.0249.0361.0026.0026.0026.0057.004.0065 0 .0009.0016.0048.0016.0057-.0017.0026-.0017.0035 0 .0057.0017-.0048.0214.0009.014.0026-.0083-.0035-.0174.0205-.0057.0214v.0035s.0039 0 .0057.0017c0 .0026 0 .009-.0017.0108-.0057 0-.004.0035-.0017.0074.0065.0353-.0175.0157-.0183.0397 0 0 0 .0008.0017.0017.0008.0108.0265.0108-.0017.0195-.0017 0-.004.0035-.0017.004a.046.046 0 0 1 .0039.0174c.0026.0008.0065 0 .0065.0017 0 .009-.0166.0156-.0222.027-.0009.0082-.013.0034-.0122.0147 0 .01.0165.0074.0265.0074.0026.0057.0057 0 .01 0-.0108.0065-.0073.0175-.0156.0231 0 0 .0017.004.0039.0057 0 0 .0039 0 .0017.0026 0 .0009-.004.0009-.0057 0v-.0048s-.0057.0048-.0057 0c-.0035 0-.0083.0057-.0118 0-.0039.0017.0017.0026 0 .0048.0074.013.0074.0091.014.0248.0039.027-.0353.004-.0122.0331 0 .0017.0083.0057.0065.0074-.0026.0057.0008.004.0057.0065 0 .0017-.0026.0035-.004.0048.0018.0065-.0108.0083-.0121.004-.0017-.001-.0017-.0018-.0017-.001-.0074.0118 0 .0288-.0057.0414 0 .0035.0039.01-.0026.0118.01.0248-.0118.0923.01.1031.0026-.0008.0026-.0026.0039-.0035.0017-.0035.0065 0 .0017.0035 0 .0026-.004.0026-.004.0048-.0025.0017-.0056.0091-.0056.01-.0083.0027-.0026.0036.0017.0036 0 .0017-.004.0026-.004.0026-.0064.0035.001.0065.0027.0017.0017 0 .0039.0017.0039.0008.0026 0 .0039.0009.0057.0026 0 .0035-.004.0026-.004.004-.0056.0038.0049.0038-.0025.0082 0 .0026.0039.0017.0026.004-.0065.0016.0017.0073.0039.0117.0039.0035.0074.009.0057.014-.0017.0008-.0017-.001-.004-.001.0018.0305-.0378.0675-.0038.0906 0 .0017.0017.0017.0039.0017h.0039c0 .0026-.004.004-.004.0074.0166.0074-.0278.0165-.0138.0279.0296.0083-.0266.0618.0139.0775.0174.0057-.01.0139-.0118.024 0 .0195-.0057.047.014.0182.0139.014-.0083.0192-.0122.0296 0 .0091-.01.034-.0017.048.047.0508-.024.0278.0156.07-.0239.0592.0205.0775-.0083.0718-.0256-.0017-.0065.0192-.0139.0297-.0653.023.0091.0461-.0257.0618-.0048.0287-.0083.0857.0279.0923.0017.0008.0074.0057.01.0074.0165.0183.0017.0305 0 .0487-.0118 0-.0122-.0174-.0266-.0196-.0165.0131.0091-.013-.01-.0148-.013 0-.009.024-.0083.0305.0048.0026.0231-.0039.0183.0048-.0009.0026-.01.0065 0 .0074.0065.0048-.01.0174-.0017.0231.0091.0148.0322-.009.0257.0091.013.051-.0205.0035-.0422.0017-.0157.0653-.0166.1938-.0205.2904-.0109.0083.01.0091-.0017.0205-.0065.0627-.0083.1746.0165.229-.0008.013-.0296.0265-.0139.0422.0192.0091-.0265.0348.0026.0287-.0662.229-.3679.4659-.6348.4132-.0378-.0313-.0783-.0653-.0883-.1228m5.2885-1.5342c-.0196.0017-.0074.0156-.0117.024-.0231.0108-.0222.0313.0039.0173-.0026.0166-.0017.0279.0165.0322 0 .004-.0122.014-.0165.0131-.0249-.0074-.0305.0453-.034.0662-.0039.0165-.033-.023-.0279.0248h.004c0 .0074-.0084.013-.0157.0122-.0009.0196-.0065.0322.0017.0496-.0497-.0183-.0675.122-.1385.1402.011.0213-.0361.0196-.034.0422-.3043.2343-.714.2665-1.058.4254-.0905.0305-.2128.074-.2812.1202-.0997.034-.2142.0897-.3143.1384 0 .0009 0 .0035-.0017.0057-.118.0462-.239.1171-.3453.1755v-.004c-.0444.0258-.0857.0528-.131.0676-.013.0257-.071.0313-.0884.051-.0248.0117-.0535.0195-.0727.0404-.1354.051-.2556.1515-.3857.1911-.0314.0414-.0932.048-.1302.0858-.0192.0057-.0444.0026-.051.023-.074.0362-.1493.0758-.2168.1228-.0352.0148-.0718.0414-.1106.0584-.502.2869-1.0214.5786-1.5138.8969-.0065-.004-.0248.0148-.0322.0174-.0166.0248-.0527.0379-.0823.0579-.0388.0322-.105.0527-.1385.0923.028.0222-.0413.01-.0518.027-.0505.047-.1576.0997-.2211.145-.011.0083-.0222.0121-.0305.0239-.0379.0122-.0997.0727-.1285.0875-.0165.0035-.0278.0266-.0444.0331.0017-.0009 0-.0026 0-.0035-.0074 0-.0108.01-.0183.0122 0 .0009-.0017.0039-.0017.0039-.0083.0035-.0156.0039-.0204.013-.0009.0192-.0353.0122-.0279.027-.0191 0-.037.0192-.0479.0288.0065.0527-.0749.0544-.0949.0892-.0083.0026-.0083-.0017-.0139-.0065-.0039.0057-.0057.0118-.01.0166.0017 0 .0017.0017.0039.0017-.0026.0222-.047.0248-.0322.047.0156.0183.0026.0505-.0122.074 0 .014.01.0065.0196.0118.0065.013-.0057.0304-.0196.0239-.004.0009-.0017.0057-.0017.0091.0196 0 .0065.098.0017.1145.014.034.0544-.0035-.0166.0766v.0192c-.0139.0222.0331.0009.0266.0165-.0165.0305-.01.0719-.034.0923.048.0214.0388.0784.0118.1254.0157.0183-.0083.0192-.0083.081.0039.004.0122.004.0183.0057 0 0 .0017.0017.0039.0026 0 0 .0026-.0017.0026-.0009.0026.0122-.01.0684-.0205.0279-.0379-.0065-.0048.0562.0065.071.027.0278-.0305.0661-.0122.098.024.0056.014.0165.01.037.0174.0139 0 .0378-.01.0509-.0048.0057-.0048.0213.0057.0204.0118.0166-.0248.0296.0017.048.0017.0025-.0017.0056-.0017.0082-.009.0248-.0222.1468.004.1559.0034.0192-.0123.0296-.014.0461-.0213.0196.0091.0048.014.0118.0195.0213-.001.0192 0 .0461.0435.0122-.0192.0122-.0197.0231.0118.0035.0057.0174-.0039.0183-.0026.0074.0017.0222-.01.0192.013.0222.0414-.0331.024.0287.0039 0 .0039-.0017.0057 0 0 .0157.0074.0296 0 .0444 0 .0009-.0026.0026-.004.0039.001.0057.01 0 .011.0091.0204.0048-.0249-.0074-.0065.0453-.0122.013-.011.0413-.004.057 0 .0017.0018 0 .0018.0017.0026.0017 0 .0026-.0017.0048 0 .0017-.0017.004-.0017.0057-.0279.0196.0039.0017.0017.024.0057 0 .0039.0048.0039.009-.0175.0166-.004.061-.0057.0884.0035.011.0048.0353-.0122.0362.0057.0122.0278.0627-.0017.0766.0017.0157.0008.0205-.0122.0222-.0035.013.0074.0048.0122.0009a.0138.0138 0 0 1 0 .027c-.0057.0196.0074.0296.0222.0387 0 .0074 0 .0183-.004.0257-.0025.0057-.0016.0157-.0038.0222-.0057.0157-.0074.0257-.0183.0396.0017.0091.0196-.0026.014.0083-.0066.004-.0049.0083.0038.0091.014.0083-.0427.0958-.0017.048.0314-.0314-.0422.0765.004.037.0034.0121-.0267.0165-.0084.0248.0322.0108-.024.0195.0122.0422.0435.0074-.034.013-.0388.0305.0017.0174-.0057.0278-.0139.0405.0109.0074.0017.0204.01.0278.037-.0026-.01.0157-.0039.0213-.01.01 0 .0157.004.024.0047-.0266.033 0 .0082.0083.0257-.0166.0427-.0057.038.0313 0 .0074-.0049.0157-.0101.004-.0213-.0131-.057.0047-.0266.0239.0875.0749-.0461.0109.0279.0727.0074.0453.0057.0636-.0544.0544.0008.013.0783.0009.034.0166-.01 0-.011.0156-.0018.0121.0305.0388-.057.0527-.0156.095.0313 0-.0205.0683.0378.027-.0108.0182 0 .0339-.0182.0413.0248.0205.0017.0396.034.0083-.0158.0279-.0323.0814.0038.0314-.0083.036-.0561.0256-.0644.0674-.0205.0118.0213.0214.0035.0488.014.0083.0313.0026.0222.0279-.0035.0148.034.01.0222.0313-.0536.0017-.0584-.0165-.0444.0914.0287.0074.0278-.009.0278-.0265.0257-.004-.0008.0413.01.0553.0048.0057.0214 0 .0266.0109-.0387.0265-.0718.0065-.0279.0626.0183.0323-.0526.0662.0017.0802 0 .0083-.0039.0148-.0039.0222.0083.0039.014.0048.0205-.001.014.0092-.0074.0214.0057.0232.0109-.0122.0405-.014.0266.0117a.0284.0284 0 0 1-.01.0065c-.0331.0257.0026.0213-.0279.071.0109 0 .0801-.0017.0405.01-.0213.0039-.0192.033-.0122.047.013.013.0348-.0074.0279.0174-.0545.047.0413.0166-.01.0653.0038.0017.0204 0 .0204.004-.0148.0182 0 .0443-.0083.0609.0065.0222-.023.0157-.0026.0035-.0035-.0453-.0627.0083-.0183.0191.0148.0196-.013.0331-.01.0519 0 .0017-.0039.0035-.0039.0048-.0174.0204.0017.013.0057.0287.004.0035.004.0065.004.009.0421.0619.0221.0205.0517.004.0196.0148-.023.0204.0196.0396 0 .0165-.0222.0305-.0017.0414-.0009.0156-.013-.0122-.0122.0026.0017.0048.0057.0057.004.0117h.0056c.0057.0148.0026.0379.01.0518 0 .0035.011.0026.0057.0083.0118.0118.004.0091-.0017.0266.004.0009.0083 0 .01-.0017-.0048.0196.0083.01.0166.014-.0157.0082 0 .0156.0083.0008.0057.0122-.0214.014.0039.0248-.0057.0222-.0592.0527-.0266.0692-.0117.01-.0966.0035-.0583.0266.0026.0048.0039.0065.0083.0083.0039-.023.0222-.0205.0387-.0017.0017-.0009.004-.0017.0057-.0035l.0017.0017c-.009.0296-.07.0017-.0505.0279.0118.0057-.0139.0108.0083.013-.0305.0414.01.0388-.0039.0653.0026.051.071.0536.0544.004.027.0064-.0039.0321.0122.0509 0-.0231.0083-.011.0196-.001 0 .0101.0148.0101.0222.0223-.0191.0313-.034-.0266-.0544.0148.0248.0017.0205-.0074.0479.023.0196.011.0553.0205.0165.0406.0331-.0323-.037-.0214-.0083-.0074-.0065.0174-.0165.0026-.0265.0074.0039.0035.0083.0039.01.0048 0 .0148.0287.027-.0057.0256 0 .048-.0362.004-.0444-.0039 0 .0057.0057.011-.0017.0131.0148.0074-.0017.037.0278.0213.0205-.0183.0083.0249.0222.0231-.0117.01-.0535.013-.0239.0414 0 .0035 0 .0048-.0039.0065.0248-.0009.0205.0204.0296.013.0009.001.0026.001.004.001 0 .0056-.004.0082-.0084.0117.0057.0057.014-.0048.014-.0118.01.014-.0205.0296.0038.0388-.009.0065-.013.023.004.0191 0-.0026 0-.0048.0025-.0074.0083.01.0205.0091.0323.0109-.004.0122.0065.0213.0121 0 .0057.0039.004.0148-.0017.023-.0526.014-.0148.0545-.0505.0584.0065.004.014.013.0222.0148-.0422.0257-.07.0692.0196.0875-.0183.0166-.0487.0196-.0627.037-.1245.395-.7867.3488-.8302-.074-.0017.0009-.004 0-.0057 0-.0166-.0892-.0423-.1746-.0405-.262.0017-.0388.0074-.0906-.0057-.1198.0083-.1493.023-.297.0117-.4402.0462-.4789.0166-1.034.0462-1.4685.0057-.0436.0074-.0884-.0026-.1254-.0017-.0048 0-.0083.0039-.0109v-.0026s-.0017 0-.0039-.0009c.0048-.1328.0122-.2673.0026-.3966.014-.0592-.0039-.1345.0057-.1994 0-.2129.0026-.4463-.0039-.6596.0083-.1245.0057-.2647.0083-.3875-.2055.0932-.371.259-.5508.3845-.0505.0518-.1597.1227-.2194.1789-.071.047-.1606.1197-.2316.1815 0-.0008-.0017-.0017-.0017-.0017-.004 0-.0057.0026-.0057.0083-.0122.004-.0266.011-.034.0214a230.866 230.866 0 0 0-1.3192 1.0832c-.0026-.0009-.0026-.0026-.0026-.0035-.1872.1467-.3448.3165-.5063.485-.095.0627-.1903.141-.253.2308-.1437.1293-.2673.2851-.404.428-.0017-.0018-.0065-.0018-.0065-.0027-.047.0662-.1302.1294-.179.192-.0426.0323-.0792.0776-.1188.1063 0 0 0 .0048-.0017.0057-.1846.2233-.415.451-.6291.6474-.2539.215-.7263-.0505-.6374-.3984.0017-.0057.0139-.0174.0039-.0213.4075-.6095 1.0231-1.0645 1.5565-1.5487.0213-.0195.057-.0518.084-.0683.1254-.108.2712-.2464.4023-.33.0496-.0784.1615-.1189.2055-.2003.0414-.0118.0988-.0592.1228-.097.01-.004.0057.0064.0156.0056-.0057-.0213.0488-.0213.0388-.0444.2878-.2186.5647-.4632.8468-.6827v-.0083c.0505-.0278.1106-.0627.1467-.1032 0 .0026.0017.0048.0017.0074.0248-.0165.0527-.0518.0867-.0583.0265-.0488.0988-.061.1245-.1014.0453-.0231.0801-.057.1202-.0832v-.0039c.094-.0692.1985-.1345.2777-.2029.0314-.0222.0875-.047.1063-.0775a.9477.9477 0 0 0 .1828-.1345c.1798-.1137.333-.2747.5194-.3784-.0026-.0008-.0026 0-.0039-.0017.004-.0026.004-.0039.0083-.0048.0767-.06.1594-.1284.249-.1732v-.0048h-.0025c-.0017-.0026-.0017-.0074 0-.011.01-.0056-.0017-.0204.0026-.0348.0039-.009.0008-.0322.0039-.0348.0148-.0083.0035-.023.0083-.047-.0279-.047.023-.2242-.0266-.2778 0-.0009-.01 0-.01-.0009-.0165-.0039-.037.0131-.0379.027-.0823.0362-.1262.0958-.1985.1237-.0205.0387-.1006.0196-.1346.0444 0 .0048.0026.01.0057.0122-.0117.0057-.1345.024-.0583.034-.0165.0121-.0692.0082-.0866-.0075-.0057-.0035-.0057-.0083-.0157-.0026.0026.0057-.0057.0118-.01.0122-.0074.0026-.0183-.0017-.0222.0048-.057.0166-.128.0205-.1772.0305-.0157.0065-.0388-.0065-.0518.0017v.0048s-.0057.0026-.0083.0009v-.0048c-.071.0074-.1376-.0148-.2055-.0305.0039.004 0 .004 0 .0091-.0288-.0379-.0967-.0444-.1367-.0858-.0017.0026-.004.004-.004.0057-.0509-.0592-.1144-.1106-.1384-.1854-.0305-.0897-.0505-.2077-.06-.3083a.0155.0155 0 0 0 .0056-.0017c-.0139-.2011.0148-.4153-.0139-.6026.0205-.1484.0414-.3182.0444-.4593.0091-.0527.0213-.118.0322-.179.0048-.1122.051-.259.0867-.3791.0348-.0967.0866-.2169.1428-.3109.0017.0009.0039 0 .0065.0009.0035-.038.0444-.0662.0561-.094.0065-.0123.0266-.0414.034-.047.0775-.1198.1641-.2335.2917-.3092.0083-.0192.037-.0257.0462-.0314.0083.0091.0478-.037.0661-.0505.0057 0 .014-.0048.014-.0108.121-.0488.394-.1672.4401.009.0017-.0008.004-.0008.004-.0016.0064.0265.0204.0592.0056.0857-.013.0048-.0048.0353-.0156.0427.0352.0322-.038.098-.0205.1358-.0118.0175-.033.0305-.0353.047-.0026.0058-.0057.0131 0 .0166-.0026.0091-.0122.0065-.0183.0065-.0083.0174-.0139.0527-.0322.0618-.0039.01-.0139.0035-.0183.013-.013.01-.0196.0197-.0378.0258 0 .0026 0 .0048.0017.0065-.0017.0008-.004 0-.004 0-.0016.0017-.0016.0039-.0038.0048-.0214.0083-.047.0553-.048.0849-.0016-.0009-.0082 0-.01-.0009-.0016.023-.0139.0196-.0278.033-.0017-.0008 0-.0016-.0017-.0025-.0039.013-.0414.0322-.0266.0461-.0017.0083-.0083.0183-.0057.0297.0035.0035-.01.0204-.0139.0256-.0279-.0313-.01.047-.0322.0397 0 .0074.0017.0148-.0017.0213-.01-.0026-.014.0148-.014.0222-.0609.1598-.2185.4854-.1532.6291.0109.0288.0213.074-.0057.095-.0749.33-.1228 1.1833.4384.75.0026.0018.004.0018.0057.0036.2212-.1872.2012-.5164.2373-.7741.004.0009.0057 0 .0057 0 .013-.1437.0348-.3074.0405-.4393 0-.014.0039-.0353 0-.0488.0775-.3156.0048-.9051.1567-1.2565-.0039-.0035-.0017-.0039-.0017-.0074.0017 0 .004-.0017.0057-.0017a.3228.3228 0 0 1 .1106-.097c0-.004.004-.0058.0083-.0058.0017.0091.0157-.0035.024-.0048.178-.1219.4132-.0257.489.132-.004.0139-.0232-.0018-.025.0121.0258.0305-.023.1054.011.1441-.0397.0297.0196.0728.0057.0967-.0205.0026-.0257.0091-.0166.0296.01.004.0205.0645-.0017.0627-.0257.0248.0074.0801-.01.1062.037.0331-.0204.048-.0017.0736.0213.0527 0 .0932.0017.1393-.037-.0204-.0065.0175-.01.0362-.0039 0-.0083-.0017-.01-.004-.01.0092-.0057.0898.0117.048.0222.0122-.0139.023-.0195.0248-.0175.2129-.0231.4223-.0462.6548-.0074.0362-.014.1293-.01.1659-.0157.0675-.0279.1972-.0196.2516-.0035.0436-.0444.1502-.0026.1642a.0121.0121 0 0 1-.0122.0117c-.0148.1089-.037.2134-.0017.3026.0026.085-.0352.0867-.0057.1171-.0057.0017-.0083 0-.014 0-.0025.0083-.0082.0423.0058.0427 0 .0048-.0196.024 0 .0196-.0192.081.0148.0422-.004.1337-.0321.1114.001.2268-.0204.3282.0074.011.0057.0297.0083.037.2991-.1771.6152-.3948.9365-.5794 0-.001-.0017-.0026-.0039-.0026.1973-.1502.4772-.2604.6557-.4032.371-.1576.775-.4493 1.1699-.6496.0553-.0296.1197-.0766.1828-.097 0-.001-.0017-.0027-.0017-.004.142-.1154.7794-.3644.7646-.488-.2286-.1032-.1881-.4385-.1633-.6274.0183-.1541-.024-.2943.0222-.4393-.033-.0906-.0118-.0645-.0017-.1337-.0039 0-.0057-.0017-.01-.0009.027-.094.027-.2647.0266-.3439-.0017-.1585.0626-.4328-.1633-.4328-.094-.0196-.1911.0653-.2673.1128-.0444.0222-.0222.0653-.071.0784-.0017.0526-.1128.1393-.1367.1245.0618.0583-.0553.0766-.0562.1145.0057.0287-.0074.0727-.0222.094.0118.0305-.0183.0017-.0204.024.0065.0526.0039.1097-.0249.1532.0414-.0017.0196.0444-.01.0379.0183-.0183-.0156-.0248-.0183-.0157.011.0183.0026.0166-.0083.0296-.0248.0353.0793.01.024.037-.0122.024.0174.0427-.0305.047.0157.004.0322 0 .0405.0184-.0932.0074-.0405.0478-.0505.1062.0636.0553.009.0814-.0057.0923.0157.0213-.0222.013-.0305.0213.0065.0091.0157.0109.0157.024.0174.0117-.0183.0048-.0266 0-.0017.0057 0 .0148 0 .0213.0017 0 .0017.0009.004.0009-.004.0122-.0118.0265.0038.0287.0048.0192.0222.024.0388.033-.0057.0075-.0057.0206.0017.027-.024.01.0074.0414-.0083.0628.0479.0109-.0017.034-.0266.034-.0009-.0693-.0174-.0157-.0057.0117 0 .0017-.0322.0183-.0117.0222-.0131.0192-.0091.0296.0117.0444-.0039.01.0083.0109.0057.0196-.061.0057-.0157.1393-.0322.1946-.0109.0222-.0035.0279.01.0353-.0287.0296-.0035.0305.014.0109 0 .0017.0016.0026.0016.0039 0 0 .0026-.0017.0026-.0026.004 0 .0065 0 .01.0008.0091.0436-.0544.0288-.024.0653-.0387.024.0119.0423.014.0667-.0387-.0048-.0444.0222-.0039.0182.0122.0166.0296.0362-.0017.0619a.0823.0823 0 0 1-.0183.0592c.014.0257.0427.1023-.01.023 0 .047.0388.0784.0296.1254-.0361-.0039-.0017.0175-.0296.0297-.0313.0156.0035.037-.0278.0352-.034.0814.0117.0362-.0279.0784-.0039 0-.0057.0026-.0083.0039.0196.0644-.027.0544-.0296.0801l.0039-.0009c.0074.0083-.0165.014-.0205.0048l-.0039.001c-.121.1392-.4889.3164-.593.0652 0-.0017.0017-.0057 0-.0074-.0461-.1567.0057-.3513-.0026-.5011.0026-.0192.0074-.0388.004-.0583-.0018-.001-.004-.0026-.0066-.0035.0148-.0131.01-.0562.0083-.0758.0026-.0017.0026-.0026.004-.0039.0117-.1615.0016-.3479.0278-.499-.0026-.0074-.01-.0139-.0026-.0204-.009-.0422-.0035-.0988.004-.1367.0064-.6862 0-1.3793.8707-1.2417.1354.0313.2573-.0932.3365-.1724-.0017-.0017 0-.0035-.0017-.0057.202-.236.5416-.4999.8708-.3422.0265.0148.0426.0505.0662.0653.0304-.047.0065.0074.0195.024.0231.0204.0249.0426.028.0718.047-.0205-.0323.0213.0643.1162-.0039.0091-.0222.0026-.0304.0026-.0266.0592.0478.1006.0461.108-.0118.0204-.023.06.004.0718.0286.0048-.025.0222-.0362.0157-.0205.0257-.0249.0849-.0083.1123-.0196.085-.0017.0396.0361.0196.0017.0248-.023.057-.0083.0866.0122 0 .004.0222.0196.0091.0057.0405-.0583-.0248-.0279.0353.0148.023-.0117.0157-.0139.027.0083.0074.034.0065.0083.0157.0065.0278 0 .0675.0279.0923-.0048.0035-.0035.0117-.0057.0148-.013 0-.0257 0-.0444-.0017-.0349.0857.0775.0553-.004.1053-.0182.027.0667.0619.0196.0536-.047-.0109-.0404.3091-.0117.3396.023.0165.0122.0435-.0157.0353-.0083.0108.0148.009.0017.0248-.0117.0305.047.0435-.0017.0518.0035.0117.0083.0122 0 .0257-.0165.0422.0544.0278.0353.0583-.0462.0118.024.0584 0 .0867-.0174-.0684-.014.071-.0157.0923-.0453-.0192-.0074.0182-.0222.0444.013.0296.0279-.0497.0322-.001.0205.0314-.0435.0119-.0222.034.0436.0049-.0635.0249.0266.0536-.01.058-.0405-.0505-.0266.0988-.0204.0222.0196.0083.0323.0183.0026.0048-.0279.034-.0083.0314-.0192.0435.0505.0139.0361.0544-.0017.0279-.0553.024-.0222.0444-.0017.0026-.0083.0035-.0109.0026.0017.0109.0205.0266.0279.0057.01-.0035.0039.0118.014.0122.0016.0074 0 .0148 0 .0205-.0232.036.0321.013.0138.0413-.0156.0296.0257.0065.038.0213.0064.0131.013.0462.0443.0488v.0065c.0701.0266.1633-.0183.2212-.0461.0527-.0131.0932-.0462.1428-.0636 0 0 0-.004.0017-.004.0048-.0034.0248-.0025.024-.0108.0296-.0157.0692-.0305.1105-.057.0017.0026.0057.0039.0083.0008-.0039-.0083.0166-.0083.0183-.0165.0601-.027.132-.0675.1912-.104 0 .0008.0017.0016.0039.0034.0509-.0287.108-.0627.1732-.084.1328-.0653.2852-.0279.4237-.0122-.0057-.0048-.0122-.0057-.01-.0148.0083.0009.0122.0109.0183 0 .0148.0083.0108.0362.0378.0314 0-.0065-.0083-.0057-.0083-.0118.0619.024.0801.0988.1245.1459-.0039.0313.0362.0478.0122.0683.0192.0174.027.013.0196.0361m-9.1586.9696c.0057.001.01-.0026.01-.0083a.756.756 0 0 1 .145-.0191c.0905-.0174.164-.0684.2555-.0832.0035-.0174-.0139-.0008-.0196-.0035-.0017-.0183.0122-.013.0266-.014v-.0047c.0057 0 .01 0 .0118-.0048.0313.014.0313-.013.0505-.0196.023-.0248.0583-.0083.08-.027-.0038-.0039-.01-.0035-.01-.009.01 0 .0157-.0058.0183-.0131h.0017c0 .0174.0192.0174.0205.0017-.0157-.0214.0405.0035.0444-.0205.0832-.0305.2142-.034.253.0618.0287.0331.0413.0766.0527.1054a.0184.0184 0 0 0 .0083.0083c0 .0065.013.0183.0139.0296.0017-.0009.0039 0 .0039 0-.0035.0117-.0065.027.0039.0361-.0017.027-.0279.0893-.0057.1006-.0017.0583-.0505.0832-.0662.1367-.024.0118-.0414.0505-.0683.0644-.0667.0423-.1202.1032-.189.142-.0065.0183-.0305.024-.0444.037 0 0 .0017.0017.0017.0026-.0118.0026-.014.0157-.0222.0174-.0222.0118-.0396.0362-.0644.0536 0 .0008.0026.0026.0017.0039-.011 0-.0166.0057-.0222.0117-.0388.0653-.1115.128-.1411.2012-.023.0183-.0527.0735-.0279.1023-.0139.014-.0592.0387-.0183.0544-.037.0057-.0039.0518-.0526.1437.0065.0736.027.0592-.0296.094.01.0026.0222.0183.0057.024-.0026.013-.0231.0352-.0057.0461-.0017.014-.004.0353-.0083.0488 0-.0009-.0017-.0017-.004-.0026-.0038.0039-.0016.0108.004.009a.0167.0167 0 0 1-.004.01c.0027.0027.004.004.0084.004-.0205.08.0048.179-.0196.2425 0 .0083-.0026.0196.0057.024-.0166.0683-.0083.1501-.0122.2202-.0074.0444-.0091.1515-.0083.2151.0222 0-.0017.0118-.004.0183.0036.027.0249.07-.0016.0897-.0122.0966-.0048.2003-.0322.2952-.0701.1863-.2112.3017-.3819.3692a.0445.0445 0 0 1-.0183.0035c-.0487.0313-.1336.0348-.1846.0305-.0165-.0057-.0313-.014-.0461-.0205v-.0122s-.0057-.0017-.0083 0c-.0057 0-.0118-.0083-.0183-.0109-.1541-.1963-.0553-.4946-.0627-.7188h.0026c-.0057-.0823-.0279-.1589.0118-.239.0008-.0396-.0362-.0814-.004-.1163.0027-.0213-.0073-.0561.0018-.084-.0122-.0017.0065-.0183-.0017-.023.0057-.0049.0039-.0149.0017-.0214-.0122-.0017-.0157-.0413.0017-.0427.0083-.0352.0352-.0683.0265-.1014.0017-.0174-.0048-.0518.0083-.0636.0065-.1955.0436-.428.0279-.6169.024-.1189.0039-.2538.0583-.3644.024-.213.236-.3514.4328-.4023-.0017 0-.0017.0017-.0017.0017.0057-.0026.0183-.0048.01.0048m-1.0597.8882c-.0758.0165-.0675.1049-.0157.1715.014.0148-.0352.0692.0017.098-.0932.3008-.0905.7453-.155 1.0819h-.0057c-.0057.1358-.0444.2769-.0461.418.0026 0 .0026.0008.0039.0008-.011.0536 0 .1032-.014.1559.0183.0174.004.0496.0122.07.0122.0175-.0122.0867-.0222.1116.0083.0905-.0305.1815-.0479.2703.0083.0331.0793-.0287.0423.058.0017.0173-.0148.0117-.0222.0156-.014-.0017-.0222-.0083-.0266-.0205-.105.1198-.415.4032-.6052.2286-.0265-.0427-.0405-.1054-.0461-.1502-.0048-.2464.0191-.5111.0265-.7576-.0039 0-.0057-.0017-.0083-.0026.0323-.1014.01-.2904.0405-.3452.0083-.0205 0-.048.0057-.0692h.0017c-.0156-.0296.0091-.0875-.0039-.118.0353-.121.0083-.2756.034-.3849-.0196-.1493.0348-.3461.034-.498.0461-.1237.0848-.3066.1985-.3998.014-.0256.0427-.057.074-.0618-.004-.0008-.0057-.0039-.0083-.0065.1624-.1376.4667-.2508.5129.0462-.0296.024 0 .0849.0387.0905m.2978-1.678a.0306.0306 0 0 0-.0083.0297c.004.0009.0057.0026.0057.0057-.0191.009-.0017.0222.0017.0287h-.01c-.0065.0562-.0496.0814-.0644.1346-.0427.0544-.0405.01-.0562.0683-.0057.0353-.0561.0266-.0627.0592-.0039-.0017-.0117.0035-.0057.0083-.0213.0065-.033.0222-.0527.0353-.01.0048-.0108.0213-.0278.0192 0 .0026-.0026.0026-.0026.0048-.0257.0156-.0505.0222-.074.0487-.0157.0065-.0322.0148-.0423.0279 0 .013-.0378.0026-.0304.0191-.0083.0017-.014.0057-.0196.0083-.0017.0074-.014.0057-.0122.014-.004.0026-.01.0008-.0166-.001.0026-.0008.0026-.0038.004-.0047-.0323.0148-.0497.0387-.0867.0174v-.0048c-.013.0065-.0248.0057-.0422.0017-.004-.01-.0183.0017-.024.0035-.0017-.0035-.0065-.0065-.0083-.0083.0017-.0026.0057-.0057.0083-.0083-.034-.0109-.0766-.0122-.074-.0583-.0157-.0009-.0191-.014-.0213-.0257-.0048.0048-.0048.0109-.011.0039-.0016-.0017 0-.0091-.0016-.0109-.0109-.0435-.0222-.0866-.0157-.1189.0331-.283.3579-.5903.6374-.5533.0083.0057.014.0139.0266.0117 0 .0017.0017.004.0017.0065.0305.0035.0379.0793.0518.1106.0257.0057.0057.048.0305.0518-.0048.0257.0156.0488.0017.0727m-1.8184 2.2723c.0766-.0914-.0148-.2129.0379-.32 0-.0156-.0018-.0435.0222-.0352.0222-.0057.0479-.0693.014-.071.0517-.0766-.0118-.047.0278-.1137-.0148-.0718.027-.1532.0379-.2324.0322-.121.0452-.2835.0966-.3958-.0026-.0074-.0174-.0148.0017-.0213-.0047-.0035-.009-.0057-.0017-.0091.0026-.0545.0213-.0967.0322-.1494 0-.0017.004 0 .0057-.0026a.4871.4871 0 0 1 .0322-.1271c.0192-.071.024-.1698.074-.2194-.0039-.0122-.0026-.034.014-.037.0182-.1032.0775-.1772.098-.277 0-.0025.0025-.0034.0025-.0038.0017-.0915.0814-.122.105-.1973.0422-.081.0082-.1541.0348-.2399.0035-.1358.0505-.2473.1049-.3792.0148-.1162.0636-.2203.1171-.3143-.057-.0562.0248-.1459.0422-.2068-.0195-.0388.0305-.0801.0166-.1063.0191-.0766.0348-.1746.0823-.2647 0-.0278.0352-.0683.0196-.0866.0148-.023.0222-.0422.0361-.0662.0091-.0701.027-.1533.0727-.202.0091-.0065.004-.023.0122-.0287-.0083-.037.0257-.0175.0196-.085.0157-.0174.0083-.0504.0279-.0666.0017-.0017.0017-.0035 0-.0048.0048-.0487.0404-.0914.0505-.1367.0121-.0352.0661-.0766.0518-.1162.0287-.0192.0248-.061.0479-.084.0074-.0065.009-.0175.0156-.0231.01-.0331.0017-.0736.0057-.0988.0248-.0767.0701-.1533.0923-.2251.0122.0026.004-.0148.0122-.0192-.0026-.009 0-.013.004-.0192.0265-.0348.0221-.0618.0421-.0914v-.0109c.0427-.061.057-.1567.105-.2203-.0017-.0008-.0017-.0026-.004-.0039.0297-.0635.0536-.128.0893-.1911 0-.0035 0-.0083.0017-.0091.0396-.0653.0553-.165.1245-.2085.0017-.01-.0039-.0536.0157-.0445 0-.0156.0083-.0256.0222-.033-.0157-.011.0057-.0231.0166-.0297-.0026-.0008-.0026-.0017-.004-.0035.0719-.104.1516-.2324.2434-.3247.0048-.034.058-.058.0675-.0858.0026-.0017.004-.0026.004-.0035.0082-.0065.0165-.0157.0182-.0266.0353.0048.0518-.0265.0544-.0561.0322-.0222.004.0204.014.0222.0265.0057.036-.037.0278-.0584.014-.0035.014-.01.0157-.0213.014-.0026-.0057.034.0222.0109-.004-.0183.0074-.0266.0278-.0331.0026 0 .0083.0035.011.0039-.0036.0048.0038.0074.0082.0039 0-.0009 0-.004.0017-.0057 0 0 .004-.0026.004-.0035.0156-.0074.0082-.0305.0195-.0427.0166.0148.0035-.0174.0157-.013.0074-.0305-.0083-.0923.0405-.0758-.0196-.023.0117-.0314.0139-.0544.01-.0017.0148-.0174.0205-.0257 0-.0017.0017-.004.0017-.0057.0265-.0205.0287-.0618.0544-.0793.0222-.0552.037-.117.0505-.1763-.0122-.0535.0039-.1559-.0266-.2242-.0814-.4215-.7131-.5551-.963-.2012a.0443.0443 0 0 0-.024.0214.0166.0166 0 0 1-.0083.0017c-.0422.0635-.1228.1293-.1428.2142-.4972 1.0745-.8812 2.263-1.263 3.3781-.2654.9665-.5689 1.9862-.7535 2.9906-.1632.7576-.2778 1.5387-.38 2.3054-.004 0-.0057.0039-.01.0039-.004.0083-.004.0195-.004.0287-.0109.0257-.0353.0435-.0279.0035-.0139-.0166-.0122-.0183-.034-.0083-.0339-.057.0353-.1881-.0517-.1985.0361-.0858-.0296-.1964-.0122-.2813.0117-.1476.0204-.1197-.0362-.2308.0279.0048.0035-.0239 0-.0035-.034.01-.0048-.0644.014-.07-.0083-.01-.0214.0082-.0323.0064-.0378.0353-.009-.1946.0122-.1985.0362-.0553-.0313-.132-.0322-.1672-.047-.1014-.0204-.2307-.0766-.3322.0183-.0204-.0183-.0592-.0083-.0735.0118 0 .0322-.0048.0266-.0222-.0592-.081-.0248-.122-.0867-.2961-.0683-.0505.0183-.0914-.0378-.104-.0505-.0192.0082-.1385-.034-.1511-.0248-.1542-.0396-.2539-.0644-.3893-.01-.0083.0034-.0278-.0057-.024-.004-.01 0-.0082.0083-.0108-.0396-.0353.0248-.0422.0017-.0662 0-.0496-.024-.0718-.0017-.097-.0353-.0192-.0505-.0297-.0222-.0728-.0092-.014-.037-.0561-.0018-.0583 0-.024-.0387.0156-.0361-.0157.0379-.0148-.0314-.0505.0109-.0583-.0618-.1467-.0636-.3374-.0967-.508-.0287-.1089-.033-.2547-.0644-.3701 0-.297-.229-.6265-.5508-.4833h.0018c-.2103.0766-.2456.3453-.3118.5094-.1293.3736-.2316.7471-.3679 1.1163-.033.1672-.1262.3784-.1745.5203-.0118.0157-.0305.0205-.0118.0462-.0361.1049-.0866.2464-.1384.3618.0039 0 .0056.0017.01.0008-.0183.0627-.038.1263-.0666.1816-.131.2664-.1881.7488.2538.6652.0923.0065.1624-.1145.225-.1253-.0265-.0436.0323-.0915.0323-.132.034-.0496.0379-.1354.0849-.1754.023-.0427.0148-.1097.0627-.1441.0618-.0091-.0361-.0157.0083-.048.0082-.0378.0204-.0247.0182-.0378-.0056-.0057.0027-.0091.004-.0091.0065-.0048-.01-.01-.0018-.0192.0048-.0035.0083-.0139.01-.0156.004-.0017.011-.0026.0083-.0074-.013-.014.0296-.0279.0196-.0444-.013-.0249-.004-.0362.0122-.0536.0205-.01-.0496.0035-.004-.0305.0323.0423.0066-.051.0406-.0757-.0205-.0057-.0157-.048.0056-.0444-.014-.0305.0266-.0388.0279-.0601-.0257-.0222.01-.0462.0083-.0727.0056 0 .0039-.0048.0056-.0083.01-.0074.0266-.0083.024-.0222-.0026-.0048-.0214 0-.014-.0074.0074-.0057 0-.0174.01-.0166.0157-.0017-.0056-.0248.024-.023.0248-.0148-.0026-.0231-.0018-.0397.0175-.0148.0122.0349.0196-.0535-.0048.0196-.01-.0035-.0122-.0148-.01-.0213.0092-.0148.0166-.0057.01-.0065.0279-.0257.0379-.004.024-.0025-.0092-.0121-.0066-.0156.0083-.0057-.0008-.0057-.0082-.0074-.0018.0026 0 .0057-.0018.0074-.0065-.0074.004-.0157.0018-.0248 0-.0035.0017-.0035.0039-.0048-.004-.004-.0017-.0118-.0017-.0165.0108-.0026.0313.027.0322.0026.0139-.004.0048-.014.0082-.0205.0018-.0009.011 0 .01-.0057.004-.004.0057-.0083 0-.0122.004-.0035.0057-.0109 0-.0122-.0017-.0035.0027-.0026.004-.0039 0-.0017.0017-.0039.0017-.0057.0026-.0026.0065-.0074.0109-.0065.004-.0074.0065-.01.0057-.0174 0-.0017.0017-.0026.0039-.0039-.0035-.0183.014-.0279.01-.0479.0048-.0035 0-.0074.0017-.0109.027-.0296.0497.0026.081.004.0148.0173.0205.0413.0422.036-.0047.011-.0265.0619-.0121.0702.0174.0313.0139-.0196.0387-.013.0279.0047.0213.0269 0 .033.014.0213-.0074.0422-.0017.0488.0165.0065.023.013.0117.027-.0117.0026-.0191.0065-.0117.0182.0174.0065-.0214.051.0156.0584.0048.023-.0196.0453.0018.0692.0361.0379.0757.081.0422.1441.004.0065.0122-.01.0157-.0117.0165.127.047.2664.057.39.0296.108.034.236.0379.3323.004.0074-.0057.0074-.0057.0139.0122.0017.004.0405.0205.0313.0205.057.0313.1376.0305.1986.0435.2037.0666.4327.0988.6339.0353.2447.0736.4602.1006.681h.0082v.0056c.001.1006.0266.2242.0462.3222.0109.0479.0026.1115.024.1493.0017.0074 0 .0157 0 .0231.0082.0314.0191.0749.0182.1097.0205.0353-.027.0932-.0122.1337.0362.01.0562.0544.0462.084-.0118.0305-.0388.0305-.0405.0518.0057 0 .0083-.0039.01-.0083.0758-.0139.0488.1171.0727.1668.0018.0148.0048.0313.0018.0461-.014.0183.037.0958.0278.1441-.0248.0518.0305.0884.0222.1511.0018.0017.0057.0083.0057.0074.0287.165.0435.3083.0823.4815.0017.0148.0065.0619.0122.0793.0026.0222-.0026.0348.0108.0544 0 .0009.0018 0 .004.0017-.0018.0435.0174.071.0196.1115.027.1145.0422.2446.0905.3561.0166.0109.0288.0305.0362.0462.0017.0008.0056.0008.0056.0035.0092.0191.0296.0304.0488.0361.0039.0074.0083.0109.014.0183.0905.0518.202.0278.2934.0026v-.0026c.0148-.0192.0892-.0496.117-.0893.0027-.0057.0066-.0183.0123-.0222.0017-.0017.0039-.0048.0039-.0065.0091-.0065.01-.0191.0165-.0265.048-.0884.0505-.1986.0867-.2843.0091-.1716.0544-.4067.084-.587-.0026-.0665.0183-.1458.0266-.2133.0074-.0461.0082-.1088.0196-.151a.2435.2435 0 0 0 .0039-.0497c.0056-.061.0156-.155.0296-.2342v.0017c.0008-.0518.0222-.1263.0183-.1742.013-.034.0065-.0727.0139-.1088.0017-.0017.004-.0009.0057-.0017.0065-.141.0348-.3222.057-.4567.0017-.0727.013-.1615.0435-.2277.0157-.023.0231-.0653.0157-.098-.0122-.0017.0065-.0083.004-.0148 0-.0026.0017-.0035.0017-.0057-.004-.0017.0082-.0122.0122-.0083-.0118.014.0213 0 .0182.0074.0026.0026.01-.0039.0122-.0057 0-.0017.0018-.0048.0018-.0074.0352-.0561-.0279-.0544-.0362-.097 0-.0972.0388-.2143.0305-.31 0-.0297.0196-.0349.0196-.0553.0026 0 .0026-.001.0026-.001.004-.009.0091-.0204.014-.0321 0-.001.0039 0 .0039 0 .0017-.0017.0017-.0035.0017-.004.0405-.0156.0353-.0661.0387-.104 0-.0017.004 0 .004-.0009.0026-.0017 0-.0026.0026-.0048.0287-.0122.013-.0718.0278-.1014-.0039-.0183-.0195-.0322-.0039-.051 0-.013-.0065-.0213-.0082-.0352-.0667.0279-.0331-.108-.028-.1502.0027-.0026 0-.0065.0027-.01.0009-.0057.0026-.0148.0017-.0214.0057-.0139.0249-.033.014-.0496.0183-.0379.023-.2011.0518-.1863.0074-.0065-.0314-.0157-.0074-.0279.0074-.0265-.0257-.0683.0117-.0849.0026-.0057.0074-.0109.014-.01.0322-.0305-.0074-.0775.0082-.1062.0166-.037.001-.0553.01-.084-.0117-.0684.051-.1368.0506-.2112-.0205-.01-.0066-.0444-.0057-.0662.0026-.0017.004-.0026.004-.0039.0017-.0009.0017-.0035.0017-.0039.0047-.0017.01-.0039.0017-.0074 0-.0057.0057-.0017.01-.0017.0057-.0026.0035-.0057.004-.0074 0-.0048.0038-.0035.0065-.0065" fill="#FFFFFF"/><path d="M57.4759 32.6488v.6973h.6071v-.6973zm-1.7186.0043v7.2884h.608v-7.2884zm-12.2808.0196v7.2688h.54v-5.3054h1.2883v-.54h-1.2883v-1.4234zm-3.1012 1.3053c-.5647 0-1.0899.0902-1.4295.3597-.4493.357-.6996.8053-.6888 1.2594.0153.6413.2194.9983 1.2535 1.432l1.2245.3154c.691.29.9932.7174.9932 1.1472 0 .3322-.177.6614-.5332.8503-.3008.1594-.6683.229-1.2874.1786-.512-.0422-1.0721-.3487-1.642-.7084l-.2883.4507c.5094.3792 1.3808.7209 1.9481.7688.7197.0609 1.1653.01 1.6055-.2347.5573-.31.8359-.7482.8359-1.3155 0-.8486-.3738-1.298-1.6395-1.7407l-.9226-.267c-.8599-.2696-.9674-.541-.9822-.8997-.0296-.7297.6164-1.0783 1.512-1.0783.4945 0 .9588.1308 1.5187.5l.3095-.449v-.0008c-.48-.3194-1.3-.568-1.7874-.568zm-11.6788.04c-.5712 0-1.5246.064-2.2517.506l.1429.4787c.6-.3361 1.6658-.415 2.1556-.415.7789 0 1.2983.4696 1.432 1.1514.0287.1458.0441.2737.0476.6037 0 0-.8651.0017-1.0332.0017-2.081 0-3.233.2137-3.233 2.017 0 .5138.3382 1.061.7662 1.3487.4475.3009.909.3027 1.4328.3027.8756 0 1.6386-.2729 2.0953-1.0374h.0008l-.0034.9567h.5111s.0065-1.006 0-1.79l-.0136-1.552c-.006-.6926-.0747-1.1958-.205-1.5101-.276-.6653-.9209-1.0621-1.8443-1.0621Zm23.8847 0c-.5712 0-1.5246.064-2.2517.506l.1429.4787c.6008-.3361 1.6658-.415 2.1556-.415.7789 0 1.2983.4696 1.432 1.1514.0287.1458.0441.2737.0476.6037 0 0-.8642.0017-1.0332.0017-2.081 0-3.233.2137-3.233 2.017 0 .5138.3382 1.061.7662 1.3487.4475.3009.909.3027 1.4328.3027.8756 0 1.6394-.2729 2.0961-1.0374l-.0035.9567h.511s.0066-1.006 0-1.79l-.0135-1.552c-.0061-.6926-.0747-1.1958-.205-1.5101-.276-.6653-.9209-1.0621-1.8443-1.0621zm9.354 0c-.5713 0-1.5247.064-2.2518.506l.142.4787c.6008-.3361 1.6658-.415 2.1556-.415.779 0 1.2984.4696 1.432 1.1514.0287.1458.0442.2737.0476.6037 0 0-.865.0017-1.0331.0017-2.0812 0-3.233.2137-3.233 2.017 0 .5138.339 1.061.767 1.3487.4475.3009.909.3027 1.4328.3027.8755 0 1.6385-.2729 2.0952-1.0374l-.0035.9567h.5111s.0065-1.006 0-1.79l-.0136-1.552c-.006-.6926-.0747-1.1958-.2049-1.5101-.276-.6653-.9201-1.0621-1.8436-1.0621Zm-12.5555.0714c-.3923-.0033-1.5162.1223-2.3436 1.5553v-1.546h-.5995v5.8428h.5995v-3.2432c.2582-.7585.9256-2.0536 2.4856-2.0536v-.5468s-.0515-.0077-.142-.0085zm8.0962 0v5.8513h.6071v-5.8514zm-25.6033.0017v2.8512c.0022.7615.1056 1.3009.1913 1.6182.2539.92 1.1071 1.3802 2.0885 1.3802.9204 0 1.7221-.3621 2.1675-1.2211l.0068 1.1403h.54V34.091h-.5655v2.7985c.0065.7327-.182 1.4236-.5085 1.7815-.5944.6518-1.031.806-1.5544.8061h-.0009c-1.1509-.0003-1.4735-.7293-1.6267-1.0357-.1533-.306-.1718-1.4992-.1718-1.4992l-.0196-2.8512zm-2.6225 2.7568c.1763 0 .7538.0065.9907.0204h.0008v.415c0 .6152-.0784 1.1014-.3597 1.4575-.4044.5146-.9953.7713-1.7738.7713-.4371 0-.799-.1007-1.0833-.3044-.3052-.2203-.4575-.5169-.4575-.887 0-1.2234.6505-1.4728 2.6828-1.4728zm23.8864 0c.1763 0 .753.0065.9898.0204h.0018v.415c0 .6152-.0793 1.1014-.3597 1.4575-.4045.5146-.9954.7713-1.7739.7713-.437 0-.799-.1007-1.0833-.3044-.3052-.2203-.4575-.5169-.4575-.887 0-1.2234.6505-1.4728 2.6829-1.4728zm9.3522 0c.1763 0 .7538.0065.9906.0204h.001v.415c0 .6152-.0785 1.1014-.359 1.4575-.4053.5146-.9962.7713-1.7746.7713-.4371 0-.7982-.1007-1.0825-.3044-.3052-.2203-.4584-.5169-.4584-.887 0-1.2234.6506-1.4728 2.683-1.4728z" fill="#414042"/></svg>