<svg role="img" viewBox="0 0 64 64" xmlns="http://www.w3.org/2000/svg"><title>WestJet</title><path d="M23.082 27.238c-2.094 0-3.326 1.01-3.326 2.328 0 2.307 3.326 2.147 3.326 3.348 0 .489-.69.701-1.275.701-1.042 0-2.263-.435-2.635-.828l-.318 1.807c.828.361 1.56.615 2.9.615 1.52 0 3.762-.584 3.762-2.412 0-2.36-3.378-2.275-3.389-3.412 0-.574.86-.627 1.146-.627.447 0 1.01.065 1.616.299a.435.435 0 0 0 .596-.33l.181-1.02c-.51-.223-1.372-.469-2.584-.469zm-18.045.108.488 1.36-1.55 3.581-1.532-4.932H0l2.742 7.749h1.551a.541.541 0 0 0 .5-.319L6.451 31.3l1.36 3.793h1.584a.546.546 0 0 0 .51-.34l3.134-7.397-2.242-.01-1.902 4.93-1.668-4.93h-2.19zm8.78 0-1.35 7.736h4.93c.265 0 .5-.202.542-.457l.192-1.105h-3.094l.277-1.594h2.518c.266 0 .5-.202.543-.457l.191-1.106H15.58l.254-1.445h2.625c.266 0 .5-.202.543-.457l.191-1.106-5.377-.01zm23.794 0-1.351 7.736h4.931c.266 0 .5-.202.543-.457l.192-1.105h-3.094l.277-1.594h2.518c.266 0 .5-.202.543-.457l.191-1.106h-2.986l.254-1.445h2.625c.266 0 .5-.202.543-.457l.191-1.106-5.377-.01zm-11.222.01-.278 1.562h2.295l-1.084 6.164h1.84a.557.557 0 0 0 .541-.457l1-5.707h1.838c.266 0 .5-.202.543-.457l.19-1.106h-6.885zm10.043 0-2.297.011-1.211 6.928c-.33 1.838-1.361 2.477-2.498 2.637l1.265 1.488c1.595-.436 3.092-1.67 3.528-4.135l1.213-6.93zm7.13 0-.277 1.562h2.307l-1.084 6.164h1.838c.265 0 .5-.202.543-.457l.998-5.707h1.84a.557.557 0 0 0 .54-.457l.192-1.106h-6.897zm14.53 3.603-6.781.732-.479.053s1.542 1.817 1.605 1.902c.362.436.363.606-.01 1.063-.297.361-.478.596-.478.596s2.147-.361 2.434-.414c.276-.043.553.032.478.404-.042.255-.298 1.668-.298 1.668l1.275-2.168 2.254-3.836z" fill="#003C71"/><path d="M59.59 25.581c-.085.096-1.669 1.7-1.892 1.913-.234.223-.383.244-.574.106l-.797-.542-.754 3.656 4.612-1.041 1.445-2.625-1.264.552c-.309.138-.436.117-.49-.106a87.76 87.76 0 0 1-.286-1.913zm2.497 3.21-1.87.914-4.326 5.1 3.2.5s.01-.489.02-.85c.022-.361.224-.425.351-.5.117-.074 3.773-2.178 3.773-2.178l-.361-.202c-.245-.128-.117-.33-.022-.468.096-.138 1.148-1.54 1.148-1.54s-1.286.244-1.583.276c-.234.031-.266-.064-.277-.202a40.35 40.35 0 0 1-.053-.85zm-7.769.095s-.552.616-.669.755c-.127.138-.244.223-.446.202-.255-.043-1.403-.277-1.403-.277s-.085 1.403-.106 1.541c-.011.138-.064.32-.309.532l4.156-.936z" fill="#00AAA6"/><path d="m60.217 29.704-4.326 5.102-.053-.011 2.253-3.837-6.77.734.064-.053 4.156-.925.042-.01 4.602-1.031z" fill="#FFFFFF"/></svg>