<svg role="img" viewBox="0 0 64 64" xmlns="http://www.w3.org/2000/svg"><title>Akasa Air</title><path d="M7.9004 26.5293c-1.232 0-1.7547.3917-2.2344 1.2773l-.3379.5997a1.7282 1.7282 0 0 0-.2832.7949 1.292 1.292 0 0 0 .2188.6445l2.6816 4.7969c.9595 1.7145 2.1464 2.6738 4.7012 2.6738.2186 0 .2715-.13.1836-.2832l-3.4785-6.2168c-.6955-1.2547-.9375-2.1596-.9375-2.8125a1.8956 1.8956 0 0 1 .4375-1.3008c.0652-.0738.0544-.1738-.0762-.1738h-.875zm50.6875 1.6836a.8534.8534 0 0 0-.6035.248.8507.8507 0 0 0 0 1.205.8553.8553 0 0 0 .6035.2501.8448.8448 0 0 0 .332-.0586.8463.8463 0 0 0 .4766-.461.8597.8597 0 0 0 .0683-.332.8597.8597 0 0 0-.0683-.332.8525.8525 0 0 0-.1914-.2793.8428.8428 0 0 0-.6172-.2402zm-33.1152.291a1.0116 1.0116 0 0 0-.709.2969 1.0117 1.0117 0 0 0-.2969.709v6.4433a.1453.1453 0 0 0 .0059.0664.1336.1336 0 0 0 .0332.0547.1452.1452 0 0 0 .0566.0352.1452.1452 0 0 0 .0664.0058h1.209V33.748l1.7734 2.172a.3898.3898 0 0 0 .166.1562.3832.3832 0 0 0 .2227.039h1.6074l-2.3672-2.8222 2.3125-2.582h-1.5664a.3867.3867 0 0 0-.2246.035.3843.3843 0 0 0-.164.1563l-1.7598 1.9903v-4.3887h-.3652zm-5.5332.33c-.5678 0-.8879.2044-1.1348.8516l-2.3906 6.2442a.1276.1276 0 0 0 .0625.1758.129.129 0 0 0 .0683.0097h1.3399l.5195-1.4394h2.3125c.1078 0 .15-.0738.1074-.1817l-.1836-.4882c-.1504-.4003-.3996-.6465-1.0468-.6465h-.7051l1.082-2.9414 2.0215 5.5293a.2074.2074 0 0 0 .0781.1308.2127.2127 0 0 0 .1485.043h1.4511l-2.5547-6.6367.002-.0059a.6246.6246 0 0 1-.043-.211c0-.1844.17-.2147.17-.334 0-.0538-.0301-.0995-.1153-.0995h-1.1894zm33.4101 0c-.5678 0-.8882.2044-1.1348.8516l-2.3906 6.2442a.1284.1284 0 0 0 .0098.1328.129.129 0 0 0 .121.0527h1.34l.5195-1.4394h2.3105c.1107 0 .1536-.0738.1113-.1817l-.1855-.4882c-.1507-.4003-.3995-.6465-1.0469-.6465h-.705l1.082-2.9414 2.0214 5.5234a.209.209 0 0 0 .0801.1309.2075.2075 0 0 0 .1465.043h1.459l-2.5547-6.6368a.6943.6943 0 0 1-.0508-.211c0-.1844.1719-.2147.1719-.334 0-.0538-.031-.0995-.1191-.0995h-1.1856zM4.1895 30.3146c-.0653 0-.1086.0444-.1739.1523L.041 37.209a.2095.2095 0 0 0-.041.1308c0 .1306.2058.1309.2598.1309 2.8613 0 4.8496-1.7462 4.8496-4.2754a5.3973 5.3973 0 0 0-.7559-2.7402c-.054-.0852-.0988-.1406-.164-.1406zm34.3535.2734c-1.1667 0-2.2364.5847-2.2364 1.7031 0 .8516.4222 1.3722 1.373 1.588l1.168.2831c.301.0625.4727.1936.4727.4434 0 .3122-.2574.4726-.8848.4726a3.7016 3.7016 0 0 1-1.9863-.6582 1.0826 1.0826 0 0 0-.336.7324c0 .7125 1.2553 1.082 2.2716 1.082 1.3284 0 2.4218-.6278 2.4218-1.7519 0-.8317-.4213-1.3194-1.4375-1.5664l-1.1347-.2832c-.2839-.0767-.4551-.1971-.4551-.4668s.2696-.4219.789-.4219a3.1215 3.1215 0 0 1 1.7032.5293c.2-.1922.3262-.447.3574-.7226 0-.6046-.993-.963-2.086-.963zm-6.4239.0234c-1.4193 0-2.6367 1.1346-2.6367 2.8946 0 1.686.8866 2.748 2.4649 2.748 1.1354 0 1.6093-.5192 1.6093-1.0273a.6815.6815 0 0 0-.0507-.3028.672.672 0 0 0-.1778-.248 1.3619 1.3619 0 0 1-.4648.2793 1.3726 1.3726 0 0 1-.539.0761c-.7126 0-1.3516-.4013-1.3516-1.5253 0-1.0673.7355-1.5977 1.502-1.5977.9849 0 1.4823.6382 1.4823 1.5664v2.4785a.1447.1447 0 0 0 .004.0664.1376.1376 0 0 0 .035.0547.1452.1452 0 0 0 .0567.0352.137.137 0 0 0 .0645.0058h1.211v-5.3945h-.3673a.9346.9346 0 0 0-.6582.2305.9315.9315 0 0 0-.3144.621c-.3548-.65-1.0488-.9609-1.8692-.9609zm11.9532 0c-1.4051 0-2.6368 1.1346-2.6368 2.8946 0 1.686.8866 2.748 2.4649 2.748 1.1355 0 1.6094-.5192 1.6094-1.0273a.6785.6785 0 0 0-.0508-.3028.6656.6656 0 0 0-.1758-.248 1.3726 1.3726 0 0 1-1.0059.3555c-.7124 0-1.3515-.4014-1.3515-1.5254 0-1.0673.7355-1.5977 1.502-1.5977.985 0 1.4824.6382 1.4824 1.5664v2.4785a.1453.1453 0 0 0 .0058.0664.1313.1313 0 0 0 .0332.0547.142.142 0 0 0 .0567.0352.1452.1452 0 0 0 .0664.0058h1.2109v-5.3945h-.3691a.9345.9345 0 0 0-.6582.2305.9307.9307 0 0 0-.3145.621c-.3545-.65-1.0488-.9609-1.8691-.9609zm19.1699.0332c-.585 0-1.1355.3703-1.459 1.1367V30.711h-.3652a.9527.9527 0 0 0-.3946.0606.9408.9408 0 0 0-.334.2148.9466.9466 0 0 0-.2148.336.9356.9356 0 0 0-.0605.3925l-.002.0059v4.2324a.151.151 0 0 0 .0059.0664.1366.1366 0 0 0 .0332.0547.1453.1453 0 0 0 .0566.0352.1452.1452 0 0 0 .0664.0058h1.209v-2.6914a1.39 1.39 0 0 1 .08-.5605 1.3888 1.3888 0 0 1 .295-.4824 1.3965 1.3965 0 0 1 .4648-.3243 1.387 1.387 0 0 1 .5528-.1152 1.5216 1.5216 0 0 1 .6172.0977 1.9436 1.9436 0 0 0 .207-.7676c0-.3236-.1734-.627-.7578-.627zm-4.3555.0723a1.0053 1.0053 0 0 0-.707.295 1.0111 1.0111 0 0 0-.2969.7089v4.2266a.143.143 0 0 0 .041.123.1336.1336 0 0 0 .0547.0332.1458.1458 0 0 0 .0664.0059h1.209v-5.3926h-.3672z"/></svg>