<svg role="img" viewBox="0 0 64 64" xmlns="http://www.w3.org/2000/svg"><title>Paranair</title><path fill="#0037a2" d="M3.018 26.788h-.92C.639 26.788 0 27.325 0 28.72v6.229c0 .397.217.627.627.627h.652c.396 0 .627-.218.627-.627v-2.187h1.112c2.622 0 4.016-.614 4.016-2.993-.012-2.392-1.394-2.98-4.016-2.98zm.205 4.361H1.906v-2.135c0-.397.09-.64.55-.64h.767c1.394 0 1.893.32 1.893 1.381 0 1.062-.499 1.394-1.893 1.394zm7.43-2.34c-.587 0-1.304.077-2.045.23-.435.09-.653.333-.653.704v.255c0 .435.256.627.678.55.627-.128 1.253-.204 1.74-.204.984 0 1.573.32 1.573 1.061v.103h-1.74c-1.637 0-2.66.434-2.66 2.033 0 1.586 1.01 2.021 2.66 2.021h1.535c1.458 0 2.098-.537 2.098-1.944v-2.213c0-1.816-1.356-2.596-3.185-2.596zm1.305 4.732c0 .448-.09.69-.677.69h-.985c-.806 0-.985-.191-.985-.677 0-.499.166-.69.985-.69h1.65v.677zm6.843-4.054v.396c0 .397-.23.627-.678.627-1.42.026-1.484.14-1.484.652v3.799c0 .396-.217.627-.626.627h-.665c-.397 0-.627-.218-.627-.627v-4.08c0-1.548.55-1.97 3.415-2.008.435-.013.665.205.665.614zm3.453-.678c-.6 0-1.304.077-2.046.23-.435.09-.652.333-.652.704v.255c0 .435.255.627.677.55.627-.128 1.254-.204 1.74-.204.985 0 1.573.32 1.573 1.061v.103h-1.752c-1.637 0-2.66.434-2.66 2.033 0 1.586 1.01 2.021 2.66 2.021h1.535c1.458 0 2.097-.537 2.097-1.944v-2.213c.013-1.816-1.343-2.596-3.172-2.596zm1.305 4.732c0 .448-.09.69-.678.69h-.985c-.806 0-.985-.191-.985-.677 0-.499.167-.69.985-.69h1.65v.677zm9.54-1.611v3.018c0 .397-.217.627-.626.627h-.64c-.396 0-.626-.218-.626-.627v-3.044c0-1.19-.435-1.522-1.445-1.522s-1.445.333-1.445 1.522v3.044c0 .397-.218.627-.627.627h-.64c-.396 0-.626-.218-.626-.627V31.93c0-2.43 1.227-3.134 3.325-3.134 2.136.013 3.35.716 3.35 3.134zm3.915-3.121c-.589 0-1.305.077-2.047.23-.435.09-.652.333-.652.704v.255c0 .435.256.627.678.55.627-.128 1.253-.204 1.74-.204.984 0 1.572.32 1.572 1.061v.103H36.58c-1.637 0-2.66.434-2.66 2.033 0 1.586 1.01 2.021 2.66 2.021h1.535c1.458 0 2.097-.537 2.097-1.944v-2.213c-.013-1.816-1.356-2.596-3.197-2.596zm1.304 4.732c0 .448-.09.69-.678.69h-.985c-.805 0-.984-.191-.984-.677 0-.499.166-.69.984-.69h1.65v.677zm5.065-6.51c0 .652-.345 1.036-1.049 1.036-.69 0-1.049-.384-1.049-1.036s.346-1.049 1.05-1.049c.703 0 1.048.397 1.048 1.05zm-.09 2.52v5.397c0 .397-.217.627-.626.627h-.665c-.397 0-.627-.218-.627-.627v-5.397c0-.397.217-.627.627-.627h.665c.409 0 .626.23.626.627zm5.257-.064v.396c0 .397-.23.627-.678.627-1.42.026-1.484.14-1.484.652v3.799c0 .396-.217.627-.626.627h-.665c-.397 0-.627-.218-.627-.627v-4.08c0-1.548.55-1.97 3.415-2.008.435-.013.665.205.665.614z"/><path fill="#cd1025" d="m53.078 29.09 3.095.512-.115 1.778-3.889-.013c-.025.205-.038.41-.038.627 0 .857.218 1.662.614 2.366l-2.085.447a6.886 6.886 0 0 1-.588-2.813c0-3.633 2.788-6.613 6.33-6.945l-.178 2.11a4.845 4.845 0 0 0-3.146 1.931zm3.964 9.874a6.949 6.949 0 0 0 5.692-2.954l-3.466.345a4.845 4.845 0 0 1-2.226.537c-.805 0-1.56-.192-2.225-.537l-3.466-.345a6.964 6.964 0 0 0 5.691 2.954m.806-11.818-.179-2.11c3.543.333 6.331 3.313 6.331 6.945 0 .997-.217 1.957-.588 2.814l-2.085-.448a4.934 4.934 0 0 0 .575-2.993l-3.888.013-.128-1.778 3.096-.511a4.918 4.918 0 0 0-3.134-1.932Z"/></svg>