<svg role="img" viewBox="0 0 24 24" xmlns="http://www.w3.org/2000/svg"><title>Aegean Airlines</title><path d="m4.018 0 .115.34c3.34 1.358 5.717 3.51 7.02 6.51a12.31 12.31 0 0 0 4.357 5.093l.056.057-.056.057a12.31 12.31 0 0 0-4.358 5.093c-1.302 3-3.68 5.152-7.02 6.51l-.114.34c4.868-.51 8.604-2.717 10.529-6.566 1.189-2.378 3.115-4.245 5.435-5.434-2.32-1.189-4.246-3.056-5.435-5.434C12.622 2.717 8.886.51 4.017 0Zm0 3.904c.792 2.944 1.867 5.437 2.83 6.625A5.27 5.27 0 0 0 8.717 12a5.27 5.27 0 0 0-1.87 1.47c-.962 1.19-2.037 3.682-2.83 6.626C6 19.246 7.642 17.66 8.49 15.68A7.288 7.288 0 0 1 12.17 12a7.288 7.288 0 0 1-3.68-3.68C7.641 6.34 6 4.753 4.018 3.904Z"/></svg>