<svg role="img" viewBox="0 0 64 64" xmlns="http://www.w3.org/2000/svg"><title>Aegean Airlines</title><path d="m55.498 25.61.06.181c1.78.723 3.046 1.87 3.739 3.467a6.56 6.56 0 0 0 2.322 2.713l.03.029-.03.03a6.56 6.56 0 0 0-2.322 2.712c-.693 1.598-1.96 2.744-3.738 3.467l-.061.182c2.593-.272 4.583-1.447 5.607-3.496A6.555 6.555 0 0 1 64 32a6.555 6.555 0 0 1-2.895-2.895c-1.024-2.05-3.014-3.224-5.607-3.496zm0 2.08c.422 1.567.995 2.894 1.508 3.527.271.331.604.602.996.783-.392.18-.725.452-.996.783-.513.633-1.086 1.96-1.508 3.528 1.055-.453 1.93-1.297 2.383-2.352A3.879 3.879 0 0 1 59.84 32a3.879 3.879 0 0 1-1.96-1.959c-.451-1.055-1.327-1.9-2.382-2.352zm-34.246.933c-2.291 0-3.889 1.387-3.889 3.377 0 1.99 1.508 3.377 3.8 3.377 2.29 0 3.677-.996 3.677-.996v-2.803h-2.684v1.026c0 .12.09.21.211.21h1.057v.844c-.362.272-1.238.451-2.172.451-1.477 0-2.412-.783-2.412-2.08 0-1.266.935-2.08 2.412-2.08 1.477 0 1.93.241 2.773.694l.633-1.206a7.453 7.453 0 0 0-3.287-.814h-.119zm-17.936.182L0 35.195h1.568l.602-1.175a.42.42 0 0 1 .363-.211H5.97l.603 1.175c.06.121.18.211.33.211H8.29l-3.195-6.119c-.09-.15-.241-.271-.422-.271H3.316zm34.184 0-3.346 6.39h1.569l.601-1.175h.031c.06-.121.211-.211.362-.211h3.437l.602 1.175c.06.121.181.211.332.211h1.387l-3.196-6.119c-.09-.15-.24-.271-.422-.271H37.5zm6.3 0v6.39h1.417v-4.463l4.463 4.282c.12.12.27.181.422.181h1.023v-6.39h-1.174c-.12 0-.213.09-.213.21v4.1l-4.308-4.16a.636.636 0 0 0-.393-.15h-1.236zm-34.032.029c-.121 0-.211.09-.211.21v6.151h6.148c.09 0 .18-.06.211-.181l.211-1.055h-5.125v-1.326h4.07v-1.237h-4.07V30.07h4.584c.12 0 .21-.089.21-.18l.18-1.056H9.769zm17.181 0c-.12 0-.21.09-.21.21v6.151h6.15c.09 0 .18-.06.21-.181l.212-1.055h-5.125v-1.326h4.07v-1.237h-4.07V30.07h4.582c.12 0 .21-.089.21-.18l.182-1.056h-6.21zM4.146 30.311l1.19 2.261h-2.38l1.19-2.261zm34.184 0 1.19 2.261h-2.381l1.191-2.261z"/></svg>