<svg role="img" viewBox="0 0 64 64" xmlns="http://www.w3.org/2000/svg"><title>Aegean Airlines</title><path d="m55.499 25.61.06.18c1.779.724 3.045 1.87 3.738 3.467a6.557 6.557 0 0 0 2.321 2.713l.03.03H64a6.552 6.552 0 0 1-2.894-2.894c-1.025-2.05-3.015-3.225-5.607-3.497Zm0 2.079c.422 1.568.995 2.894 1.507 3.527.271.332.603.603.995.784h1.839a3.88 3.88 0 0 1-1.96-1.96c-.452-1.054-1.326-1.899-2.381-2.351z" fill="#93A5CF"/><path d="M58.001 32c-.392.18-.724.452-.995.784-.512.633-1.085 1.96-1.507 3.527 1.055-.452 1.93-1.297 2.381-2.352A3.88 3.88 0 0 1 59.84 32Zm3.647 0-.03.03a6.557 6.557 0 0 0-2.32 2.713c-.694 1.598-1.96 2.743-3.739 3.467l-.06.18c2.592-.27 4.582-1.446 5.607-3.496A6.552 6.552 0 0 1 64 32Z" fill="#002677"/><path d="m21.372 28.623-.12.001c-2.29 0-3.889 1.386-3.889 3.376s1.508 3.376 3.8 3.376c2.29 0 3.677-.994 3.677-.994v-2.804h-2.683v1.025c0 .12.09.21.21.21h1.056v.845c-.362.271-1.236.452-2.17.452-1.478 0-2.412-.784-2.412-2.08 0-1.266.934-2.08 2.411-2.08 1.477 0 1.93.241 2.774.693l.633-1.205a7.456 7.456 0 0 0-3.287-.815Zm-18.056.182L0 35.195h1.568l.603-1.176c.06-.12.21-.21.361-.21H5.97l.603 1.175c.06.121.18.211.331.211H8.29l-3.195-6.119c-.09-.15-.242-.271-.423-.271Zm34.184 0-3.346 6.39h1.568l.603-1.176h.03c.06-.12.211-.21.362-.21h3.436l.603 1.175c.06.121.181.211.332.211h1.386l-3.195-6.119c-.09-.15-.241-.271-.422-.271Zm6.3 0v6.39h1.417v-4.463l4.462 4.282c.12.121.272.181.422.181h1.025v-6.39H49.95c-.121 0-.212.09-.212.21v4.1l-4.31-4.16a.636.636 0 0 0-.392-.15zm-34.033.03c-.12 0-.21.09-.21.21v6.15h6.148c.09 0 .182-.06.212-.18l.21-1.056h-5.124v-1.326h4.07v-1.236h-4.07v-1.326h4.582c.12 0 .211-.09.211-.181l.18-1.055zm17.183 0c-.12 0-.211.09-.211.21v6.15h6.15c.09 0 .18-.06.21-.18l.211-1.056h-5.124v-1.326h4.07v-1.236h-4.07v-1.326h4.582c.12 0 .21-.09.21-.181l.181-1.055zM4.146 30.31l1.19 2.263H2.954Zm34.183 0 1.19 2.263h-2.38z" fill="#002677"/></svg>