<svg role="img" viewBox="0 0 64 64" xmlns="http://www.w3.org/2000/svg" fill="#e2231a"><title>Air Algérie</title><path d="M63.995 32c0 3.142-3.82 5.691-8.537 5.691-4.717 0-8.537-2.546-8.537-5.691s3.837-5.691 8.542-5.691S64 28.855 64 32m-6.977-3.854a5.9 5.9 0 0 0-3.344-1.33 12.476 12.476 0 0 1 1.784-.128c4.216 0 7.683 2.082 8.108 4.743a4.771 4.771 0 0 1-3.757-1.032zm2.791 5.436a4.762 4.762 0 0 1 3.75-1.032c-.425 2.67-3.892 4.743-8.108 4.743a12.476 12.476 0 0 1-1.784-.128 5.914 5.914 0 0 0 3.344-1.328zm3.795-1.776H49.785c.11-1.134 1.186-2.116 2.777-2.664l1.566 1.27a4.755 4.755 0 0 0 2.796 1.078 4.743 4.743 0 0 1-.897-.58l-2.796-2.268a5.929 5.929 0 0 0-2.148-1.124c-2.27.949-3.771 2.609-3.771 4.477 0 1.869 1.504 3.536 3.77 4.478a5.884 5.884 0 0 0 2.15-1.122l2.79-2.267a4.743 4.743 0 0 1 .902-.581 4.743 4.743 0 0 0-2.792 1.079l-1.57 1.264c-1.581-.548-2.667-1.53-2.777-2.666H63.61a3.375 3.375 0 0 0 0-.38M1.032 27.068l-.133.676h.277a.526.526 0 0 0 .491-.41l.055-.266zm.872 0-.123.676h.278a.529.529 0 0 0 .493-.41l.064-.266zm4.895 0a.268.268 0 0 0-.194.08l-.37.37h-.22l.144.146a.275.275 0 0 0 .194.08h.375a.178.178 0 0 0 .168-.135l.017-.09h-.36l.45-.45zm.78 0-.576 2.896h.277a.524.524 0 0 0 .494-.41l.493-2.486zm1.264 0-.135.676h.28a.526.526 0 0 0 .49-.41l.055-.266zm3.621 0-.44 2.22-1.108-1.11a.823.823 0 0 0-.584-.237h-.616l1.352 1.352H9.09l.27-1.352h-.69l-.576 2.89h.28a.524.524 0 0 0 .49-.41l.09-.457h3.214a.524.524 0 0 0 .49-.41l.496-2.486zm1.267 0-.577 2.896h.278a.524.524 0 0 0 .49-.41l.496-2.486zm2.31 0-.145.676h.28a.526.526 0 0 0 .49-.41l.055-.266zm.882 0-.135.676h.277a.526.526 0 0 0 .49-.41l.053-.266zm7.96 0-.45 2.22-1.1-1.11a.823.823 0 0 0-.583-.237h-.615l1.352 1.352h-1.978l.268-1.352h-1.185a1.3 1.3 0 0 0-1.217 1.015.809.809 0 0 0 .813 1.013h.498l-.173.868h.278a.524.524 0 0 0 .493-.41l.09-.458h3.213a.524.524 0 0 0 .491-.41l.494-2.49zm1.265 0-.576 2.896h.284a.524.524 0 0 0 .491-.41l.491-2.486zm2.046 0-.44 2.22h-.34l.055.273a.522.522 0 0 0 .498.403l2.364.005a.526.526 0 0 0 .488-.41l.32-1.618h-1.005a.823.823 0 0 0-.583.237l-1.11 1.11.443-2.22zm6.47 0-.442 2.22h-.576l.273-1.352h-1.186a1.297 1.297 0 0 0-1.214 1.013.806.806 0 0 0 .811 1.015h.5l-.173.868h.28a.526.526 0 0 0 .491-.41l.093-.458h3.286a.526.526 0 0 0 .489-.41l-.083.41h3.206a.529.529 0 0 0 .493-.41l.486-2.486h-.687l-.441 2.22-1.112-1.11a.813.813 0 0 0-.581-.237h-.614l1.351 1.352h-1.973l.27-1.352h-1.005a.832.832 0 0 0-.586.237l-1.107 1.11.44-2.22zm3.464 0-.135.676h.28a.526.526 0 0 0 .49-.41l.053-.266zm3.854 0-.576 2.896h.28a.526.526 0 0 0 .49-.41l.486-2.486zm-40.74.868a1.3 1.3 0 0 0-1.216 1.013.811.811 0 0 0 .813 1.015h.776a.526.526 0 0 0 .49-.41l-.08.41h1.16a.524.524 0 0 0 .491-.41l.322-1.618h-.692l-.268 1.352H2.16l.269-1.352zm3.326 0-.57 2.896h.278a.524.524 0 0 0 .49-.41l.09-.458h1.158a.524.524 0 0 0 .491-.41l.322-1.618H6.14l-.268 1.352h-.885l.268-1.352Zm11.681 0a1.297 1.297 0 0 0-1.214 1.013.809.809 0 0 0 .81 1.015h.777a.529.529 0 0 0 .493-.41l-.083.41h1.16a.526.526 0 0 0 .493-.41l.32-1.618h-.693l-.267 1.352h-.88l.27-1.352zm20.61.373-.194.98h-.785zm-6.48.004-.195.98h-.787Zm-29.271.3h.5l-.133.675h-.5a.27.27 0 0 1-.273-.337.436.436 0 0 1 .406-.339Zm15.008 0h.491l-.125.675h-.5a.268.268 0 0 1-.27-.337.434.434 0 0 1 .404-.339zm4.338 0h.5l-.135.675h-.498a.27.27 0 0 1-.273-.337.436.436 0 0 1 .406-.339zm12.151 0h.5l-.135.675h-.5a.27.27 0 0 1-.27-.337.434.434 0 0 1 .405-.339zm-30.62 1.543-.133.676h.29a.524.524 0 0 0 .474-.41l.052-.266zm.882 0-.133.676h.278a.52.52 0 0 0 .49-.41l.062-.264zm7.513 0-.135.676h.277a.524.524 0 0 0 .493-.41l.053-.266zm6.614 0-.135.676h.28a.524.524 0 0 0 .49-.41l.055-.266zm.882 0-.135.676h.29a.524.524 0 0 0 .474-.41l.052-.264zm4.923 0-.135.676h.278a.524.524 0 0 0 .493-.41l.05-.266zm8.483 1.024-1.157.005a.183.183 0 0 0-.174.147l-.177.885h.35a.296.296 0 0 0 .21-.088zm-3.624 1.314-2.189.017a2.832 2.832 0 0 0-2.649 2.208c-.237 1.219.55 2.207 1.77 2.207h2.215l.44-2.215h-.44a.8.8 0 0 0-.75.627l-.111.557h-1.167a.949.949 0 0 1-.949-1.186 1.506 1.506 0 0 1 1.412-1.186h1.574a.802.802 0 0 0 .761-.611zm.894.007-.88 4.425h2.972a.804.804 0 0 0 .761-.614l.08-.415H28.94l.133-.664h1.92a.806.806 0 0 0 .75-.623l.083-.418h-2.561l.133-.662h1.913a.804.804 0 0 0 .762-.611l.083-.418zm14.113 0-3.612.01-.88 4.415h2.974a.802.802 0 0 0 .759-.614l.083-.417H39.43l.133-.662h1.921a.806.806 0 0 0 .761-.623l.08-.418h-2.558l.133-.662h1.92a.804.804 0 0 0 .762-.614zm-36.186.005-1.534.005a1.255 1.255 0 0 0-.89.367L.007 36.925h1.198a.63.63 0 0 0 .443-.182l.847-.85h1.622a.804.804 0 0 0 .759-.609l-.327 1.641h.424a.802.802 0 0 0 .752-.625zm12.483 0-1.532.005a1.264 1.264 0 0 0-.891.367l-4.046 4.048h1.197a.621.621 0 0 0 .442-.182l.849-.85h1.626a.806.806 0 0 0 .762-.609l-.335 1.641h.425a.802.802 0 0 0 .751-.625zM7.36 32.51l-.878 4.415h.425a.8.8 0 0 0 .75-.625l.75-3.79zm1.928 0-.88 4.415h.436a.802.802 0 0 0 .752-.625l.135-.679 1.11 1.122a.626.626 0 0 0 .44.182h1.2l-1.3-1.299a2.101 2.101 0 0 0 1.28-1.492 1.288 1.288 0 0 0-1.307-1.624zm10.555 0-.88 4.415h2.972a.802.802 0 0 0 .76-.614l.08-.417h-2.555l.674-3.384zm13.209 0-.877 4.415h.424a.802.802 0 0 0 .75-.625l.135-.679 1.122 1.122a.63.63 0 0 0 .443.182h1.186l-1.3-1.299a2.11 2.11 0 0 0 1.28-1.492 1.288 1.288 0 0 0-1.285-1.624zm4.074 0-.88 4.415h.427a.802.802 0 0 0 .75-.625l.751-3.79zm-31.801.56-.365 1.79H3.536Zm12.47.004-.35 1.786h-1.423zm-7.663.472h.83a.474.474 0 0 1 .474.588.754.754 0 0 1-.711.59l-.83.008zm23.757 0h.825a.474.474 0 0 1 .475.588.752.752 0 0 1-.712.59l-.825.008z"/></svg>