<svg role="img" viewBox="0 0 64 64" xmlns="http://www.w3.org/2000/svg"><title>Singapore Airlines</title><path d="M0 42.3657h44.306l-.8789 1.3708H0Zm52.3768-.6214h-1.6294l3.2877-5.1902s.4934-1.0762-.1507-2.2127L49.3 26.7492s-.401-.705 0-1.3797l1.3564-2.0314 5.3796 8.7907s1.3869 1.841-.1213 4.1213zm3.9329-1.5913 2-3.0462s.5832-1.2573 2.0913-1.2573h2.1213L64 38.183s-1.1665-.1208-1.6898.7122L60.128 42.183s-.7123 1.538-2.6142 1.538H47.2377l3.9107-6.0005s.5522-.7045-.2199-1.871l-3.4787-5.5922s-.8557-.8258.031-2.2436l1.0157-1.538 4.8346 7.8348s.8552 1.0766 0 2.3649l-3.6305 5.6598h7.6532s.864.16 1.6062-.9466l1.9025-2.9254s.432-.9847 1.3868-1.3863h-1.538s-.8037.03-1.4174.9858l-1.6898 2.6127s-.6142 1.107-1.9695 1.107H52.959l3.2284-5.009s1.7579-2.3112.5233-4.4325L51.36 23.4903s-.4015-.7649.0604-1.4771l1.1664-1.7497 6.0924 9.8126s.894 1.47.894 2.6065c0 1.1355-.7123 2.4248-1.1066 3.0761l-2.6823 4.1832s-.303.401-.0909.5533c.2194.1507.4315-.1223.6142-.3422z" fill="#F99F1C"/><path d="M30.5527 29.4922c-1.3708 0-2.4863 1.113-2.4863 2.4844 0 1.364 1.115 2.4785 2.4863 2.4785 1.3709 0 2.4766-1.1144 2.4766-2.4785 0-1.3709-1.1057-2.4844-2.4766-2.4844zm-29.371.2793s-1.1602-.0066-1.1602 1.373c0 1.3719 1.1758 1.2871 1.1758 1.2871h1.5234c.144 0 .5371-.0655.5371.5704 0 .6358-.5215.5351-.5215.5351H.0977v.7734l.002.002h2.9315s1.1739.0077 1.1739-1.3574c0-1.3558-1.1446-1.2343-1.1446-1.2343H1.7051c-.3412 0-.7207-.0978-.7207-.6211 0-.5234.5527-.5235.5527-.5235h2.539v-.8047zm4.0234 0v4.539h.9336v-4.539zm2.2441 0v4.539h.9473v-3.7343h1.6289c.6519 0 .6894.6211.6894.6211v3.1133h.963v-2.9688c0-1.6516-1.5548-1.5703-1.5548-1.5703H8.9941l-.5976.6973v-.6973zm7.252 0c-.6065 0-2.1757.531-2.1602 2.3262.015 1.8105 1.7357 2.2128 2.0918 2.2128h2.3867v-2.871h-.9101v2.082H14.83v.002c-.144 0-1.3184-.2959-1.3184-1.455 0-1.4927 1.416-1.4923 1.416-1.4923h2.1153v-.8047zm5.084 0-2.1602 4.539h1.0156l.5899-1.3261h2.1015l.5664 1.3261h1.0547l-2.1308-4.539zm3.7578 0v4.539h.9629v-2.205l.5078.6894h1.0683c.4774 0 1.4395-.3023 1.4395-1.6133 0-1.3181-1.3262-1.4101-1.3262-1.4101zm10.246 0v4.539h.9473v-3.8027h1.332c.1745 0 .7422.0453.7422.7266 0 .7122-.705.7285-.705.7285h-.9844l1.8965 2.3476h1.166l-1.3711-1.6972c1.0978-.4398.9844-1.5156.9844-1.5156 0-1.3038-1.3047-1.3262-1.3047-1.3262zm5.1895 0v4.539h3.5703v-.75h-2.623v-1.1054h2.2344v-.8261h-2.2344v-1.1055h2.623v-.752zm-8.4258.6289c.864 0 1.5762.7044 1.5762 1.5762 0 .8567-.7122 1.5703-1.5762 1.5703-.8712 0-1.5761-.7136-1.5761-1.5703 0-.8713.705-1.5762 1.5761-1.5762zm-6.0625.0684h1.2657s.8496-.0453.8496.7656c0 .7122-.6902.7285-.8496.7285h-1.2657zm-4.1972.121.705 1.6153h-1.4257zm-9.373 5.3047-2.168 4.5547h1.0156l.5918-1.334h2.0976l.5762 1.334h1.045l-2.129-4.5547zm3.8417 0v4.5547h.9317v-4.5547zm2.379 0v4.5547h.9452V36.629h1.334c.1745 0 .7422.054.7422.7285 0 .7123-.7031.7266-.7031.7266h-.9844l1.8945 2.3652h1.166l-1.371-1.707c1.1065-.4387.9843-1.5215.9843-1.5215 0-1.3032-1.3027-1.3262-1.3027-1.3262zm5.1679 0v4.5547h3.2578v-.8047H23.256v-3.75zm3.9863 0v4.5547h.9395v-4.5547zm2.1739 0v4.5548h.955v-3.75h1.629c.6503 0 .6816.621.6816.621v3.129h.9629v-2.9864c0-1.652-1.545-1.5683-1.545-1.5683h-1.1308l-.5977.705v-.705zm5.4843 0v4.5547h3.5703v-.7597h-2.621v-1.1036h2.2265v-.828h-2.2266v-1.1134h2.6211v-.75h-3.5683zm5.6934 0s-1.1602-.0002-1.1602 1.3711c0 1.3791 1.1758 1.2969 1.1758 1.2969h1.5215c.144 0 .539-.0675.539.5684 0 .6358-.5234.537-.5234.537h-2.6367v.7735h2.9336s1.1738.0067 1.1738-1.3574c0-1.3641-1.1445-1.2422-1.1445-1.2422h-1.3555c-.3489 0-.7207-.0983-.7207-.6211 0-.5228.5528-.5234.5528-.5234h2.539v-.8028zm-28.2188.8184.6953 1.6289h-1.416z" fill="#232F67"/></svg>