<svg role="img" viewBox="0 0 24 24" xmlns="http://www.w3.org/2000/svg"><title>LATAM Airlines</title><path d="M8.193 0c-.135-.001-.164.097-.164.342V1.48c0 1.053.794 1.338 1.149 1.467l7.093 2.567-5.935 2.144-2.31.834-2.819-1.02c-.27-.097-.437-.16-.541-.161-.134-.003-.162.096-.162.343v1.54c0 .176-.001.652.353.777l2.735.99c.438.16.437.16.88 0l5.495-1.986 2.297.834-8.235 2.976v2.627l10.942-3.955c.527-.192.525-.6.525-1.828 0-1.285 0-1.287-.437-1.447l-1.454-.522 1.366-.494c.527-.192.525-.602.525-1.83 0-1.247-.003-1.284-.408-1.432-.01-.004-.018-.01-.03-.013L8.74.158C8.47.061 8.298.001 8.193 0Zm2.143 7.658 3.637-1.316-8.766-3.166c-.27-.098-.437-.158-.541-.158-.134-.001-.162.097-.162.345v1.139c0 1.047.792 1.338 1.146 1.463zm8.943.655c.09.093.074.207-.093.341.166-.134.182-.249.093-.341zm-.2.417c-.014.008-.022.016-.036.024l.035-.024zm-5.46 6.364a.517.517 0 0 0-.205.039L8.03 17.08h.006v2.629l5.207-1.883c.35-.13.615-.222.615-1.01v-.962c0-.43 0-.744-.238-.76zm-3.295 5.472a.569.569 0 0 0-.176.04l-2.119.767h.006V24l1.942-.7c.35-.129.615-.222.615-1.005v-.969c0-.446-.001-.767-.268-.76z"/></svg>