<svg role="img" viewBox="0 0 64 64" xmlns="http://www.w3.org/2000/svg"><title>LATAM Airlines</title><path d="M3.002 22.24c-.11 0-.133.078-.133.278v.927c0 .856.645 1.086.934 1.192l5.77 2.088-4.829 1.744-1.877.68-2.295-.83c-.219-.08-.354-.132-.44-.133-.108-.002-.132.077-.132.279v1.252c0 .143 0 .531.29.633l2.222.804c.356.131.356.131.717 0l4.468-1.615 1.87.68-6.698 2.42v2.136l8.897-3.216c.428-.156.43-.49.43-1.489 0-1.045-.002-1.045-.358-1.175l-1.182-.426 1.11-.4c.428-.157.43-.49.43-1.489 0-.962-.014-1.038-.296-1.146-.02-.01-.038-.021-.062-.03L3.445 22.37c-.22-.08-.358-.128-.443-.129zm1.742 6.229 2.957-1.07-7.129-2.577c-.219-.079-.354-.128-.44-.129-.108 0-.132.08-.132.282v.927c0 .852.645 1.087.934 1.188l3.81 1.379zm40.344-2.938-3.522 6.992h2.147l.623-1.289h3.943l.623 1.29h2.121l-3.343-6.545c-.174-.32-.347-.448-.746-.448h-1.846zm-28.522.004v6.988h5.936l.797-1.609h-4.713v-5.379h-2.02zm10.952 0L24 32.523h2.143l.623-1.289h3.943l.602 1.29h2.146l-3.344-6.542c-.174-.32-.347-.447-.75-.447h-1.845zm5.617 0v1.387l3.394.224v5.377h1.944v-5.377l3.394-.224v-1.387h-8.732zm20.61 0-1.821 6.988h1.922l1.396-5.404 1.22 3.697c.077.25.375.422.702.422h2.02l1.498-4.113 1.422 5.404H64l-1.57-6.197c-.149-.62-.502-.793-1.075-.793h-1.972l-1.422 4.09-1.123-3.475c-.149-.442-.426-.619-.875-.619h-2.219zm-25.026 1.488 1.293 2.8h-2.617l1.324-2.8zm17.566 0 1.299 2.8h-2.623l1.324-2.8zm-34.254 1.99.008.014c-.003-.004-.004-.009-.008-.013zm.026.053zm-.006.082zm-.055.08zm-4.582 5.288a.417.417 0 0 0-.166.03l-4.379 1.587h.004v2.137l4.234-1.53c.285-.105.5-.181.5-.822v-.785c0-.35 0-.604-.193-.617zm54.766 2.713c-1.197 0-1.983.505-1.983 1.28 0 .734.6 1.009 1.567 1.19l.463.092c.691.14 1.06.368 1.06.734 0 .367-.37.641-1.29.641-.828 0-1.477-.275-1.66-.414l-.18.64c.182.093.826.368 1.794.368 1.29 0 2.028-.502 2.028-1.281 0-.734-.645-1.1-1.659-1.282l-.463-.093c-.738-.14-.966-.274-.966-.641s.414-.64 1.242-.64c.691 0 1.196.14 1.43.228l.14-.549c-.28-.089-.785-.273-1.523-.273zm-33.772.05v4.438h.692v-1.6c.322.181.786.274 1.29.274.276 0 .463 0 .692-.047l.92 1.373h.738l-1.013-1.555c.644-.274 1.06-.822 1.06-1.463 0-.822-.692-1.42-1.935-1.42h-2.444zm-4.1.041v4.393H25V37.32h-.691zm17.186 0v4.393h.692V37.32h-.692zm4.1 0v4.393h.644v-3.611l3.043 3.431c.094.14.227.18.414.18h.416V37.32h-.644V40.8l-2.996-3.297c-.094-.14-.183-.182-.416-.182h-.461zm7.972 0v4.393h3.547v-.64h-2.855v-1.374h2.486v-.595h-2.486v-1.188h2.762v-.596h-3.454zm-35.2.006-2.165 4.39h.688l.55-1.14h2.58l.555 1.14h.694l-2.077-4.208c-.093-.14-.182-.182-.322-.182h-.504zm17.366 0v4.39h3.225v-.593h-2.533v-3.797h-.692zm-6.632.5h1.798c.875 0 1.198.46 1.198.87 0 .594-.464 1.099-1.66 1.099-.505 0-1.014-.14-1.336-.32v-1.649zm-10.366.09 1.014 2.06h-2.03l1.016-2.06zm-14 1.05a.46.46 0 0 0-.142.032l-1.723.625h.004v2.137l1.578-.569c.284-.105.5-.181.5-.818v-.787c0-.363 0-.625-.217-.62z"/></svg>