<svg role="img" viewBox="0 0 64 64" xmlns="http://www.w3.org/2000/svg"><title>LATAM Airlines</title><path d="M11.834 25.405c.361.13.361.37-.5.683L.429 30.028C0 30.186 0 29.718 0 29.718c0 .143 0 .531.289.632l2.223.805c.356.131.356.131.717 0l8.537-3.085c.429-.156.429-.49.429-1.488 0-1.046 0-1.045-.36-1.176zm33.254.126-3.522 6.993h2.147l.624-1.29h3.942l.623 1.29h2.122l-3.343-6.546c-.174-.32-.348-.447-.747-.447Zm-28.522.005v6.988h5.936l.797-1.61h-4.714v-5.378zm10.95 0L24 32.524h2.143l.624-1.29h3.942l.603 1.29h2.147l-3.344-6.542c-.174-.32-.348-.446-.75-.446zm5.619 0v1.386l3.394.224v5.378h1.944v-5.378l3.395-.224v-1.386zm20.61 0-1.821 6.988h1.922l1.396-5.404 1.222 3.697c.076.249.374.422.7.422h2.02l1.498-4.115 1.421 5.405H64l-1.57-6.197c-.148-.62-.501-.793-1.074-.793h-1.973l-1.421 4.09-1.124-3.474c-.149-.443-.425-.62-.874-.62Zm-25.027 1.487 1.294 2.8h-2.618Zm17.567 0 1.298 2.8h-2.622zm-34.446 1.872c.36.13.36.37-.5.683l-8.47 3.06v2.137l8.897-3.216c.429-.156.429-.489.429-1.488 0-1.045 0-1.045-.356-1.176zm-4.425 5.621a.42.42 0 0 0-.166.032l-4.38 1.585h.005v2.137l4.235-1.53c.284-.106.5-.182.5-.822v-.784c0-.35 0-.605-.194-.618zM62.18 37.23c-1.197 0-1.982.505-1.982 1.281 0 .733.598 1.008 1.566 1.189l.462.092c.692.14 1.06.367 1.06.734s-.368.64-1.29.64c-.826 0-1.475-.273-1.658-.412l-.182.64c.182.093.827.367 1.795.367 1.29 0 2.028-.501 2.028-1.281 0-.734-.646-1.1-1.66-1.282l-.461-.093c-.739-.139-.968-.274-.968-.64 0-.367.416-.64 1.243-.64.692 0 1.197.138 1.43.227l.14-.548c-.28-.089-.785-.274-1.523-.274zm-33.772.05v4.439h.692v-1.602c.322.182.785.274 1.29.274.276 0 .462 0 .691-.046l.921 1.374h.739l-1.015-1.555c.645-.274 1.062-.823 1.062-1.464 0-.822-.692-1.42-1.935-1.42zm-4.099.042v4.393h.692V37.32zm17.185 0v4.393h.692V37.32zm4.1 0v4.393h.644V38.1l3.043 3.432c.093.139.228.18.415.18h.416v-4.392h-.644V40.8l-2.997-3.296c-.093-.14-.182-.182-.415-.182zm7.972 0v4.393h3.547v-.64h-2.855v-1.375h2.486v-.595h-2.486v-1.188h2.762v-.595zm-35.202.005-2.163 4.392h.687l.551-1.142h2.58l.556 1.142h.692l-2.075-4.211c-.093-.14-.183-.181-.323-.181zm17.368 0v4.392h3.225v-.595h-2.533v-3.797zm-6.632.5h1.799c.874 0 1.197.46 1.197.87 0 .594-.463 1.1-1.66 1.1-.505 0-1.014-.14-1.336-.321zm-10.366.09 1.013 2.06H17.72ZM4.735 38.968a.466.466 0 0 0-.144.03l-1.722.625h.003v2.137l1.58-.569c.284-.105.5-.181.5-.818v-.788c0-.363 0-.623-.217-.617z" fill="#1B0088"/><path d="M3.001 22.24c-.11-.001-.132.078-.132.278v.926c0 .856.644 1.088.933 1.194l5.77 2.086 1.766-.636c.857-.312.857-.553.5-.684 0 0-7.892-2.853-8.392-3.035-.221-.079-.36-.128-.445-.129zm-2.87 2.454c-.108 0-.131.08-.131.281v.927c0 .851.645 1.087.934 1.189l3.81 1.378L7.7 27.4.573 24.823c-.219-.08-.356-.129-.441-.13Zm0 3.492c-.108-.002-.131.077-.131.279v1.252s0 .468.429.312l2.44-.88-2.296-.831c-.219-.08-.356-.13-.441-.132Zm10.524.283L7.698 29.54l1.87.679 1.766-.637c.861-.316.861-.556.505-.687z" fill="#ED1650"/></svg>