<svg role="img" viewBox="0 0 64 64" xmlns="http://www.w3.org/2000/svg"><title>Air Transat</title><path d="M22.302 27.811c-.544 0-.952.435-.952.98 0 .516.408.951.952.951s.979-.435.979-.952a.958.958 0 0 0-.98-.979zm-6.446.109-3.183 8.16h1.796l.652-1.605h3.156l.652 1.605h1.796l-3.183-8.16zm45.995.626s-1.034 1.768-1.06 1.85c-.11 0-.762.026-.762.026v.98h.68v2.774c0 .625.163 1.115.49 1.469.326.353.761.517 1.305.517.245 0 .49-.027.734-.055.245-.027.463-.082.653-.163l.054-.027v-1.034l-.108.027-.327.082a1.672 1.672 0 0 1-.38.027c-.246 0-.436-.054-.517-.163-.082-.11-.136-.326-.136-.598v-2.856H64v-1.007h-1.523v-1.85h-.082zm-29.92.027s-1.034 1.768-1.061 1.85c-.082 0-.761.027-.761.027v.952h.68v2.774c0 .625.163 1.115.489 1.469.326.353.762.517 1.306.517.245 0 .49-.027.761-.055.245-.027.463-.082.653-.163l.055-.027v-1.034l-.11.027-.326.082a1.668 1.668 0 0 1-.38.027c-.272 0-.436-.054-.517-.163-.082-.11-.136-.326-.136-.598v-2.856h1.523v-1.007h-1.523v-1.822h-.109zm19.965 1.686c-.762 0-1.306.163-1.66.49-.353.326-.543.707-.543 1.17 0 .462.109.815.299 1.115.19.299.571.516 1.115.68.68.19.925.326 1.006.408.109.108.19.244.19.408 0 .163-.08.299-.271.408-.19.108-.49.163-.843.163-.3 0-.572-.055-.87-.136a4.198 4.198 0 0 1-.654-.245l-.081-.054-.027.027v1.115l.027.027c.136.082.38.163.68.218.3.054.652.081 1.033.081.898 0 1.578-.19 1.986-.544.408-.353.598-.816.598-1.332 0-.463-.135-.843-.38-1.143-.245-.272-.68-.516-1.333-.68-.49-.136-.789-.245-.925-.326-.109-.055-.163-.163-.163-.327 0-.136.081-.245.217-.326.163-.082.408-.136.68-.136.245 0 .517.027.79.082l.326.081.408-.897-.055-.028a2.839 2.839 0 0 0-.68-.217 4.117 4.117 0 0 0-.87-.082Zm-35.224.027 1.006 2.666h-2.013zm24.18 0c-.462 0-.87.028-1.223.11a7.193 7.193 0 0 0-.354.08l-.598 1.252.027.027.081-.054c.19-.11.436-.19.708-.272.272-.082.57-.11.924-.11.3 0 .544.055.735.191a.49.49 0 0 1 .245.436v.408a2.655 2.655 0 0 0-.381-.164 2.953 2.953 0 0 0-.68-.108c-.762 0-1.36.163-1.823.516-.462.354-.707.844-.707 1.496v.11c0 .652.163 1.141.517 1.44.354.327.843.49 1.523.49.272 0 .517-.027.762-.108l.517-1.17-.028-.027c-.163.108-.353.19-.571.19-.272 0-.49-.054-.68-.163-.163-.11-.245-.327-.245-.68v-.163c0-.327.082-.571.245-.735a.993.993 0 0 1 .653-.217c.3 0 .517.081.68.245.136.163.218.407.218.707v2.094h1.713v-3.7c0-.734-.19-1.277-.571-1.604-.354-.353-.925-.517-1.686-.517zm6.61 0c-.408 0-.762.082-1.06.19l-.626 1.334.027.027c.054-.055.136-.082.19-.11.19-.08.408-.108.626-.108.163 0 .3.055.408.136.109.082.163.272.163.517v3.808h1.768v-3.944c0-.68-.136-1.17-.408-1.442-.245-.272-.626-.408-1.088-.408zm9.901 0c-.462 0-.87.028-1.224.11-.109.027-.245.053-.354.08l-.598 1.252.027.027.082-.054c.19-.11.435-.19.707-.272.272-.082.571-.11.925-.11.326 0 .57.055.734.191a.49.49 0 0 1 .245.436v.408a2.655 2.655 0 0 0-.38-.164 2.953 2.953 0 0 0-.68-.108c-.762 0-1.36.163-1.823.516-.462.354-.68.844-.68 1.496v.11c0 .652.163 1.141.517 1.44.353.327.843.49 1.523.49.272 0 .516-.027.761-.108l.517-1.17-.027-.027c-.163.108-.353.19-.571.19-.272 0-.49-.054-.68-.163-.163-.11-.245-.327-.245-.68v-.163c0-.327.082-.571.245-.735a.993.993 0 0 1 .653-.217c.3 0 .517.081.68.245.136.163.217.407.217.707v2.094h1.714v-3.7c0-.734-.19-1.277-.571-1.604-.354-.353-.925-.517-1.714-.517zm-29.866.028c-.571 0-1.115.217-1.414.598v-.517H24.45v5.712h1.659v-2.393c0-1.197.653-1.796 1.578-1.796h.245v-1.604zm10.2 0c-.353 0-.652.081-.897.272l-.027.027a1.88 1.88 0 0 0-.436.49c0-.273-.027-.653-.027-.653h-1.713v5.684h1.768v-3.617c0-.354.19-.653.489-.843h.027c.163-.082.327-.136.517-.136h.027c.218 0 .436.081.626.217l.054.082.572-1.224c-.245-.218-.572-.3-.98-.3zm-16.211.054v5.712h1.659v-5.712zm22.304.027v5.685h1.768v-5.685z" fill="#172B54"/><path d="M9.847 24.873c-1.741.545-3.373 2.04-5.032 3.645-2.122.11-4.434.952-4.679 1.088 2.448 1.279 3.047 1.85 3.047 1.85s-.817 2.34-.98 3.835c.544-1.332 1.605-3.155 2.258-4.025-.898-.735-2.584-1.524-2.584-1.524s1.333-.57 3.998-.707c0 0 1.116-2.149 3.972-4.161zM8.514 26.86c-.245.517-.68 1.66-.762 2.503 1.877.136 3.155.57 3.155.57s-1.903.708-2.964 1.551c.19.463.625 1.823.87 2.883-.408-.38-1.632-1.387-2.53-1.93-1.197.462-4.46 3.698-6.283 6.69.789-.816 3.128-3.454 6.283-5.358.653.38 3.645 2.34 3.645 2.34s-.652-3.482-.897-4.298c.925-.626 2.502-1.496 3.998-1.959-2.094-.843-4.651-1.06-4.651-1.06s-.055-.653.136-1.932z" fill="#00B3F0"/></svg>