<svg role="img" viewBox="0 0 24 24" xmlns="http://www.w3.org/2000/svg" fill="currentColor"><title>Ethiopian Airlines</title><path d="M23.065 2.255c-.268.003-.575.144-.896.428C20.292 4.506 11.478 13.755.194 20.257c-.169.099-.199.323.559.09 4.48-1.57 14.233-6.704 17.555-8.744 2.39-1.457 4.24-2.531 4.965-4.355 1.208-3.257.75-5.005-.208-4.993zm-2.254 8.772c-.203.008-.444.097-.68.244-1.906 1.226-14.754 8.132-19.89 9.439-.396.13-.27.277.13.244 5.388-.65 13.08-2.889 15.158-3.675 3.011-.914 3.792-1.88 4.918-3.543 1.245-2.028.975-2.732.364-2.709zm-2.994 6.18a1.43 1.43 0 0 0-.394.06c-1.745.521-8.111 2.69-15.623 3.736-.338.044-.255.224.141.248 5.018.473 6.912.512 9.213.49 2.203-.073 3.862.242 5.727-1.73 1.705-1.769 1.742-2.794.936-2.804z"/></svg>