<svg role="img" viewBox="0 0 64 64" xmlns="http://www.w3.org/2000/svg"><title>Ethiopian Airlines</title><path fill="#b71d20" d="M48.852 31.697c3.446.324 4.747.35 6.327.335 1.512-.05 2.652.166 3.932-1.188 1.338-1.387 1.18-2.11.372-1.884-1.198.358-5.57 1.847-10.727 2.566-.233.03-.176.154.096.17"/><path fill="#ffbe0b" d="M47.685 31.324c3.526-.897 12.35-5.64 13.658-6.481.647-.404 1.357-.165.217 1.692-.773 1.143-1.31 1.806-3.377 2.434-1.427.54-6.71 2.077-10.41 2.523-.274.023-.36-.078-.088-.168"/><path fill="#557c39" d="M48.036 31.075c3.076-1.078 9.774-4.603 12.055-6.005 1.642-1 2.912-1.737 3.41-2.99 1.061-2.863.25-4.027-.759-3.134-1.289 1.25-7.34 7.603-15.09 12.068-.115.067-.136.22.384.06"/><path fill="#b71d20" d="m12.401 29.894-1.867.55.77.55v6.255l-.77.55 2.636-.002-.769-.55v-3.293l.71-.5a2.53 2.53 0 0 1 1.597-.595c.67 0 .877.415.877.657v4.28h1.866l-.77-.55v-3.73c0-.742-.414-1.316-1.644-1.316a3.302 3.302 0 0 0-2.01.707l-.626.498zM0 30.114l.767.547v6.588L0 37.798h6.146v-1.43l-1.096.88H1.865v-3.293h2.196l.875.66v-1.866l-.875.656H1.865V30.66h3.07l.988.77v-1.316zm18.934.658c-.332 0-.605.197-.605.44s.273.44.605.44c.332 0 .604-.196.604-.44 0-.243-.272-.44-.604-.44zm16.575 0c-.334 0-.602.197-.602.44s.27.44.602.44c.332 0 .603-.196.603-.44 0-.243-.269-.44-.603-.44zm-26.947.44L6.366 32.75h1.096v4.06c0 .652.53 1.148 1.302 1.148.725 0 1.292-.403 1.444-.71l-.33-.22a1.051 1.051 0 0 1-.928.458.544.544 0 0 1-.39-.13V32.75h1.648v-.441H8.561Zm22.72.989c-.655 0-1.684.1-2.195.767v-.66l-1.868.552.77.546v6.037l-.77.549h2.526l-.658-.55v-2.304c.572.636 1.54.77 2.196.77 1.612-.002 2.633-1.53 2.633-2.853 0-1.428-1.02-2.857-2.633-2.854zm-7.574 0c-1.948 0-3.293 1.374-3.292 2.854 0 1.475 1.344 2.853 3.292 2.853 1.966-.002 3.294-1.378 3.294-2.853-.002-1.48-1.328-2.857-3.294-2.854Zm24.15 0c-.404 0-1.18.05-2.085.74l-.55.465v-1.097l-1.864.552.767.545v3.843l-.767.55h2.633l-.77-.55v-3.294l.66-.55a2.318 2.318 0 0 1 1.648-.544c.882 0 1.096.386 1.096.656v4.28h1.865l-.767-.55v-3.73c0-.504-.327-1.315-1.867-1.315zm-7.683 0c-.706 0-1.694.158-2.198.439v1.207l1.291-.943a1.404 1.404 0 0 1 .907-.264c.67 0 1.205.369 1.205.878v.988h-1.537c-1.41.002-2.635.904-2.634 1.976a1.383 1.383 0 0 0 1.428 1.427 2.002 2.002 0 0 0 .658-.11l2.085-.88v.88h1.865l-.765-.55v-3.731c0-.847-.787-1.315-2.305-1.315zm-20.636.108-1.869.55.77.547v3.842l-.77.55 2.637-.001-.768-.55zm16.573 0-1.867.55.768.547v3.842l-.768.55 2.636-.001-.77-.55zm-12.404.33c1.461 0 1.975 1.267 1.976 2.416.001 1.145-.514 2.414-1.976 2.414-1.444 0-1.972-1.268-1.974-2.414 0-1.148.53-2.415 1.974-2.416zm7.137.11c1.39-.003 1.754 1.285 1.754 2.306 0 1.018-.363 2.302-1.754 2.302-.742 0-1.404-.28-1.758-.877v-2.852c.352-.613 1.016-.877 1.758-.878zm9.33 2.194h1.205v1.427l-1.537.66c-.168.074-.507.219-.656.219-.336 0-.77-.188-.77-.88 0-.877.698-1.424 1.758-1.426zm-11.993 5.879-1.097.324.453.325v.258h.888l-.987 1.295a1.28 1.28 0 0 0-.29.77v1.23l-.46.322h1.56l-.454-.322v-1.23a.706.706 0 0 1 .138-.447c.054-.072.086-.12.106-.15a.2.2 0 0 1 .102-.065c.167-.043 1.53-.228 1.53.437v1.39c0 .26.127.388.257.388a.485.485 0 0 0 .258-.064 3.565 3.565 0 0 0 .387-.26v.324h1.1l-.453-.323v-.581h-.322l-.582.389v-1.314c-.02-.76-.957-.816-2-.686l.837-1.103v-.258h-.97zm15.577 0-1.099.325.453.324c-.665 0-1.356.279-1.384.908-.026.598.413.888 1.005.904l-.662.23c-.347.135-.572.282-.572.864v.647l-.456.323h1.552l-.453-.323v-.588c0-.186-.034-.33.258-.43 0 0 1.06-.376 1.11-.39.517.039.958.07.958.645v.763l-.452.323h1.553l-.454-.323v-.755c0-.737-.53-.85-.973-.897.06-.02.214-.08.27-.1.583-.214.727-.464.742-.884v-.013h.257v.712h1.098l-.45-.326v-.644h-.938c-.095-.327-.424-.63-1.363-.646zm-10.47 0-1.1.325.452.324v.258h.648v1.099H31.48v.646l-.455.322h1.098v-.71h1.165v1.939l-.453.322h1.55l-.449-.322v-1.938h1.16v.709h1.098l-.452-.322v-.646h-1.806v-1.035c0-.258-.13-.322-.325-.322h-.323zm4.908 0c-.71 0-1.48.24-1.713.779a1.155 1.155 0 0 0-.097.367c.004.37-.085.926.38 1.286l.655.52.587.454a.33.33 0 0 1 .192.31v.487l-.452.323H39.3l-.452-.323v-.517c0-.258-.033-.45-.277-.631l-.646-.52c-.235-.166-.235-.19-.367-.28 0 0 .525.03.773.023.993.017 1.45-.223 1.588-.513a1.008 1.008 0 0 0 .07-.21h.278v.71h1.101l-.452-.325v-.645h-.899c0-.067 0-.138-.004-.216-.015-.32-.039-.36-.122-.51-.23-.418-.917-.57-1.695-.57zm10.477 0c-.71 0-1.48.24-1.71.778a1.156 1.156 0 0 0-.1.368c.006.37-.085.926.38 1.286l1.427 1.142-2.069.178v.45l-.453.325h1.55l-.45-.324v-.253l2.327-.198v-.26l-1.54-1.238s.525.03.773.023c.994.017 1.452-.223 1.586-.513a1.43 1.43 0 0 0 .096-.685c-.016-.32-.037-.36-.12-.51-.228-.418-.92-.57-1.697-.57zm-24.18 0c-.712 0-1.48.24-1.713.78a1.076 1.076 0 0 0-.094.367c.004.37-.09.925.377 1.285l.655.52.587.453a.336.336 0 0 1 .194.31v.488l-.453.322h1.551l-.452-.322v-.518c0-.258-.035-.45-.277-.63l-.647-.52c-.236-.167-.233-.19-.366-.28 0 0 .524.03.772.023.992.016 1.45-.223 1.586-.514a1.404 1.404 0 0 0 .098-.684c-.016-.32-.043-.36-.122-.51-.229-.418-.92-.57-1.695-.57zm.001.262c.64-.007 1.123.139 1.113.78v.234c-.004.347-.14.632-.638.679a6.232 6.232 0 0 1-1.355.008c-.272-.054-.23-.508-.223-.663v-.21c.007-.542.44-.823 1.103-.828zm13.702 0c.638-.007 1.125.139 1.116.78v.234c-.007.347-.14.632-.638.679a6.296 6.296 0 0 1-1.359.008c-.27-.053-.227-.508-.22-.663v-.21c.01-.542.44-.823 1.101-.828zm10.477 0c.64-.007 1.122.139 1.115.78v.234c-.002.347-.14.632-.638.679a6.25 6.25 0 0 1-1.356.008c-.27-.053-.228-.508-.223-.663v-.21c.01-.542.442-.823 1.102-.828zm-5.226.633c.88-.018 1.04.263 1.03.565-.004.193 0 .383-.43.542-.083.03-.41.147-.687.242-.725-.017-.945-.13-.945-.704 0-.567.672-.638 1.032-.645z"/></svg>