<svg role="img" viewBox="0 0 64 64" xmlns="http://www.w3.org/2000/svg" fill="currentColor"><title>Ethiopian Airlines</title><path d="M63.358 18.652c-.184.002-.395.098-.615.293-1.29 1.252-7.342 7.604-15.09 12.069-.117.067-.136.22.384.06 3.076-1.078 9.774-4.603 12.055-6.004 1.642-1 2.91-1.738 3.408-2.99.83-2.237.516-3.436-.142-3.428zm-1.547 6.024a.998.998 0 0 0-.467.166c-1.309.842-10.131 5.585-13.658 6.482-.272.09-.186.19.088.168 3.7-.446 8.983-1.984 10.41-2.523 2.068-.628 2.604-1.292 3.377-2.434.855-1.393.669-1.875.25-1.86zm-2.057 4.244a.966.966 0 0 0-.27.039c-1.198.358-5.57 1.848-10.728 2.566-.232.03-.176.154.096.17v.002c3.446.325 4.748.35 6.328.334 1.513-.05 2.651.167 3.932-1.187 1.17-1.214 1.195-1.918.642-1.924zm-47.353.974-1.865.551.769.549v6.254l-.77.55 2.635-.001-.767-.55v-3.294l.709-.5a2.53 2.53 0 0 1 1.597-.594c.67 0 .877.415.877.656v4.282h1.866l-.77-.55v-3.732c0-.741-.415-1.316-1.645-1.316a3.302 3.302 0 0 0-2.01.707l-.626.498zm-6.477.22L0 30.114l.768.545v6.588l-.768.55h6.145V36.37l-1.096.879H1.866v-3.293H4.06l.877.66V32.75l-.877.656H1.866V30.66h3.07l.988.772zm13.01.657c-.332 0-.606.198-.606.442 0 .242.274.437.606.437.332 0 .603-.194.603-.437 0-.244-.271-.442-.603-.442zm16.574 0c-.334 0-.601.198-.601.442 0 .242.269.437.601.437.333 0 .604-.194.604-.437 0-.244-.27-.442-.604-.442zm-26.947.442L6.368 32.75h1.095v4.058c0 .653.53 1.15 1.301 1.15.726 0 1.294-.404 1.445-.71l-.332-.219a1.051 1.051 0 0 1-.925.457.544.544 0 0 1-.391-.13V32.75h1.648v-.442H8.561Zm15.146.988c-1.947 0-3.292 1.373-3.29 2.854 0 1.475 1.343 2.853 3.29 2.853 1.966-.002 3.295-1.378 3.295-2.853-.001-1.48-1.33-2.857-3.295-2.854zm7.575 0c-.656 0-1.685.102-2.196.768v-.66l-1.867.55.77.547v6.037l-.77.55h2.525l-.658-.55V37.14c.572.635 1.54.77 2.196.77 1.612-.003 2.634-1.53 2.634-2.854 0-1.429-1.022-2.856-2.634-2.854zm8.892 0c-.705 0-1.693.16-2.197.44v1.207l1.29-.944a1.404 1.404 0 0 1 .907-.263c.67 0 1.205.367 1.205.876v.989h-1.537c-1.411.002-2.633.903-2.633 1.976a1.383 1.383 0 0 0 1.428 1.428 2.002 2.002 0 0 0 .658-.111l2.084-.88v.88h1.865l-.765-.55v-3.732c0-.847-.787-1.316-2.305-1.316zm7.682 0c-.403 0-1.178.05-2.082.738l-.553.467v-1.098l-1.863.551.767.547v3.842l-.767.55h2.635l-.772-.55v-3.293l.66-.549a2.318 2.318 0 0 1 1.649-.547c.882 0 1.095.387 1.095.657v4.283h1.866l-.768-.551v-3.732c0-.506-.326-1.315-1.865-1.315zm-28.317.107-1.869.553.77.545v3.842l-.77.55h2.637l-.768-.55zm16.573 0-1.868.553.768.545v3.842l-.768.55h2.637l-.77-.55zm-12.405.33c1.462 0 1.976 1.267 1.977 2.417.001 1.145-.515 2.414-1.977 2.414-1.443 0-1.972-1.269-1.974-2.414 0-1.148.53-2.415 1.974-2.416zm7.137.11c1.391-.003 1.754 1.286 1.754 2.307.001 1.017-.363 2.302-1.754 2.302-.741 0-1.404-.28-1.758-.877v-2.853c.352-.613 1.017-.878 1.758-.88zm9.33 2.195h1.205v1.428l-1.537.658c-.168.075-.507.22-.656.22-.336 0-.77-.188-.77-.878 0-.878.698-1.426 1.758-1.428zm-15.68 5.88c-.712 0-1.482.239-1.714.776a1.076 1.076 0 0 0-.092.368c.003.37-.091.927.375 1.287l.656.52.586.452a.336.336 0 0 1 .195.311v.486l-.453.323h1.551l-.453-.323v-.517c0-.258-.035-.45-.277-.631l-.647-.52c-.235-.167-.232-.188-.365-.279 0 0 .523.029.771.022.993.016 1.45-.222 1.586-.512a1.404 1.404 0 0 0 .098-.686c-.016-.32-.042-.36-.121-.51-.23-.418-.921-.568-1.696-.568zm3.688 0-1.098.323.453.325v.257h.89l-.987 1.297a1.28 1.28 0 0 0-.291.77v1.228l-.461.323h1.558l-.45-.323v-1.228a.706.706 0 0 1 .136-.447c.054-.073.087-.12.107-.149a.2.2 0 0 1 .102-.066c.167-.044 1.53-.23 1.53.435v1.39c0 .26.126.39.257.39a.485.485 0 0 0 .258-.065 3.565 3.565 0 0 0 .387-.26v.325h1.101l-.455-.325v-.582h-.32l-.584.39v-1.314c-.02-.76-.957-.815-2-.685l.838-1.104v-.257h-.971zm5.107 0-1.1.323.452.325v.257h.648v1.098h-1.808v.647l-.455.322h1.097v-.71h1.166v1.938l-.455.323h1.553l-.451-.323v-1.937h1.16v.709h1.098l-.451-.322v-.647h-1.807v-1.033c0-.259-.13-.322-.324-.322h-.323zm4.909 0c-.71 0-1.48.239-1.713.776a1.155 1.155 0 0 0-.098.368c.005.37-.085.927.38 1.287l.655.52.586.452a.33.33 0 0 1 .194.311v.486l-.454.325h1.553l-.453-.325v-.515c0-.258-.033-.45-.277-.631l-.647-.52c-.234-.167-.233-.19-.365-.28 0 0 .525.03.773.023.993.016 1.45-.224 1.586-.514a1.008 1.008 0 0 0 .07-.211h.28v.713l1.1-.002-.452-.324v-.647h-.898c0-.067 0-.137-.004-.215-.015-.32-.04-.36-.123-.51-.23-.418-.916-.568-1.693-.568zm5.56 0-1.097.323.45.325c-.664 0-1.354.28-1.382.908-.026.598.413.888 1.006.904l-.664.23c-.347.134-.573.282-.573.864v.646l-.455.323h1.553l-.453-.323v-.588c0-.185-.035-.327.258-.427 0 0 1.06-.379 1.11-.393.517.039.958.071.958.645v.763l-.453.323h1.553l-.453-.323v-.756c0-.737-.53-.85-.973-.896.059-.02.213-.08.27-.1.582-.214.728-.462.742-.882v-.014h.257v.71h1.098l-.451-.323v-.645h-.938c-.094-.327-.423-.63-1.363-.646zm4.914 0c-.71 0-1.479.239-1.709.776a1.156 1.156 0 0 0-.1.368c.006.37-.085.927.381 1.287l1.426 1.14-2.068.18v.45l-.453.324h1.549l-.45-.325v-.252l2.327-.199v-.258l-1.54-1.238s.526.029.774.022c.994.016 1.452-.222 1.586-.512a1.43 1.43 0 0 0 .096-.686c-.017-.32-.038-.36-.122-.51-.226-.418-.92-.568-1.697-.568zm-24.178.26c.64-.006 1.124.138 1.114.78v.233c-.004.347-.14.633-.639.68a6.232 6.232 0 0 1-1.355.007c-.272-.053-.229-.506-.223-.662v-.209c.007-.543.441-.824 1.103-.828zm13.702 0c.638-.006 1.126.138 1.117.78v.233c-.008.347-.141.633-.639.68a6.296 6.296 0 0 1-1.36.007c-.269-.053-.226-.507-.22-.662v-.209c.01-.543.441-.824 1.102-.828zm10.476 0c.641-.006 1.123.138 1.115.78v.233c-.002.347-.139.633-.636.68a6.25 6.25 0 0 1-1.358.007c-.27-.053-.227-.507-.222-.662v-.209c.009-.543.442-.824 1.101-.828zm-5.224.632c.88-.018 1.038.264 1.029.566-.005.194 0 .382-.432.541-.082.03-.408.147-.685.242-.726-.017-.946-.129-.946-.703 0-.567.674-.639 1.034-.646z"/></svg>