<svg role="img" viewBox="0 0 64 64" xmlns="http://www.w3.org/2000/svg" fill="#0c0243"><title>Icelandair</title><path d="M60.336 25.766 49.348 38.234h10.779L64 25.766h-3.664zM4.889 31.109c-1.471 0-2.569 1.097-2.569 2.45 0 1.352 1.098 2.449 2.569 2.449.8 0 1.511-.354 2.03-.893 0 0-.724-.826-.728-.822-.281.398-.771.582-1.302.582-.79 0-1.287-.594-1.287-1.32 0-.727.497-1.313 1.287-1.313.485 0 .997.2 1.295.588.003.005.746-.842.746-.842-.52-.528-1.262-.879-2.041-.879zm56.24.112a28.27 28.27 0 0 0-.078.162c-.112.234-.303.632-.408.83-.222.361-.383.524-.567.629-.144.083-.33.164-.693.176-.28.008-.484-.031-.733-.08-.105-.021-.218-.046-.35-.067-.6-.096-1.186-.132-1.814.066-.457.145-.742.393-.742.393l.584-1.314c.2-.407.863-.702 1.736-.692.413.006.705.064.983.12.252.05.494.097.8.1.964-.003 1.282-.323 1.282-.323zM0 31.223v4.672h1.445v-4.672H0zm7.7 0v4.672h4.4v-.989H9.105v-.898h2.198v-.963H9.105v-.856h2.977v-.966H7.699zm5.396 0v4.672h3.662v-1.102H14.51v-3.57h-1.414zm6.386 0-2.1 4.672h1.33l.407-.897h2.34l.402.897h1.332l-2.109-4.672h-1.602zm4.334 0v4.672h1.264v-3.1l.02-.022 2.77 3.122h1.11v-4.672h-1.26v2.603l-2.337-2.603h-1.567zm6.256 0v4.672h2.471c1.773 0 2.61-1.007 2.61-2.338 0-1.447-.91-2.334-2.64-2.334h-2.44zm7.366 0-2.1 4.672h1.33l.408-.897h2.34l.4.897h1.332l-2.109-4.672h-1.602zm4.335 0v4.672h1.42v-4.672h-1.42zm2.512 0v4.672h1.42V34.22h1.147l.998 1.674h1.496L48.24 34.12c.637-.245 1.014-.664 1.014-1.424 0-.971-.787-1.474-1.82-1.474h-3.149zm1.42.918h1.424c.621 0 .787.274.787.597 0 .37-.27.584-.715.584h-1.496v-1.181zm-25.416.086.768 1.875H19.52l.77-1.875zm17.955 0 .77 1.875h-1.537l.767-1.875zm-6.756.01h.85c.948 0 1.367.4 1.367 1.318 0 .856-.339 1.308-1.367 1.308h-.85v-2.627zm28.711.89s-.31.682-.654 1.121c-.455.537-.904.575-1.791.492-2.237-.198-2.737.388-2.838.506l-.01.012s.015-.072.06-.174c.074-.165.154-.34.241-.527.088-.191.184-.396.283-.62.092-.19.151-.23.227-.28l.05-.036c.423-.278 1.1-.537 1.999-.457.354.031.602.083.818.129.189.04.352.075.543.086.15.009.342.011.523-.027.436-.093.55-.225.55-.225zm-3.592 1.932c-.052.12-.398.826-.398.826s-.21.032-.523.027c-.267-.003-.437-.038-.565-.088-.111-.043-.207-.161-.174-.252a.349.349 0 0 1 .149-.164c.315-.2.884-.307 1.511-.35z"/></svg>