<svg role="img" viewBox="0 0 24 24" xmlns="http://www.w3.org/2000/svg" fill="#003366"><title>TAROM</title><path d="m17.6053 2.567-.1226.01-.1235.0415-.1226.071-.1124.0922-.2259.2055-.2147.2249L.1124 20.7566l-.0718.1124L0 20.9824l.0101.1124.0517.1023.082.0922.1023.082.1124.0516.1438.0102H15.679l.154-.0102.1327-.0313.1336-.071.1328-.082.1235-.0922.1023-.1133.0921-.1226 7.3994-17.6772.0406-.1336L24 2.9872l-.0101-.1124-.0305-.1033-.0009-.0009c-.0079-.0163-.071-.0811-.071-.0811l-.0921-.0608-.1023-.0516c-.0103 0-.1337-.0102-.1337-.0102zm-3.8121 6.579c2.4696 0 4.4683 2.019 4.4683 4.4785 0 2.48-1.9987 4.4988-4.4683 4.4988-2.48 0-4.509-2.0188-4.509-4.4988.0103-2.4697 2.029-4.4785 4.509-4.4785zm0 .328c-2.2955 0-4.1504 1.8653-4.1504 4.1403 0 .6354.1337 1.2294.3797 1.7623.287-.3177.7476-.6144 1.0858-.6452.2107-.0218.375.0024.5806.0332.0844.0126.176.0259.2802.0378l4.437-4.3854c-.7172-.5841-1.6394-.943-2.613-.943Zm2.7567 1.0757-3.0434 4.5301 3.8223.6968c.3894-.6353.5945-1.3528.5945-2.1521 0-1.2092-.533-2.3062-1.3734-3.0748zm-5.4416 4.8573c-.3484-.0102-.6663.0418-1.025.1033.6969 1.3424 2.1008 2.2646 3.72 2.2646 1.4142 0 2.6852-.7282 3.4333-1.8554l-3.5458-.2046 1.9264 1.578-3.566-1.7624c-.328-.0922-.6457-.1132-.943-.1235z"/></svg>